<svg width="591" height="149" viewBox="0 0 591 149" fill="none" xmlns="http://www.w3.org/2000/svg">
<rect width="591" height="149" fill="#451B97"/>
<path d="M232.948 120.739L174.066 63.6473L177.647 65.1219L177.963 118H165.533V38.6829H166.06L224.1 95.7744L221.256 94.9317L221.045 41.3163H233.264V120.739H232.948ZM273.265 119.159C267.998 119.159 263.504 118.14 259.782 116.104C256.06 114.068 253.216 111.259 251.25 107.677C249.283 104.026 248.3 99.9175 248.3 95.353C248.3 90.8587 249.424 86.8209 251.671 83.2395C253.918 79.6581 256.938 76.8141 260.73 74.7074C264.592 72.5305 268.841 71.442 273.475 71.442C279.585 71.442 284.606 73.2327 288.538 76.8141C292.541 80.3253 295.209 85.3111 296.544 91.7716L260.624 103.885L257.886 97.2491L285.905 87.2422L283.482 88.6116C282.71 86.5049 281.446 84.6791 279.69 83.1342C278.005 81.5893 275.617 80.8168 272.527 80.8168C270.069 80.8168 267.893 81.4137 265.997 82.6075C264.1 83.7311 262.591 85.3462 261.467 87.4529C260.414 89.4894 259.887 91.9121 259.887 94.721C259.887 97.6002 260.484 100.128 261.678 102.305C262.872 104.482 264.487 106.167 266.523 107.361C268.56 108.485 270.877 109.047 273.475 109.047C275.301 109.047 277.057 108.731 278.742 108.099C280.427 107.467 282.007 106.624 283.482 105.57L288.854 114.313C286.537 115.788 283.974 116.982 281.165 117.895C278.426 118.737 275.793 119.159 273.265 119.159ZM325.037 89.0329L334.834 73.4434H346.631L329.356 97.5651L325.037 89.0329ZM348.632 118H334.412L300.284 73.4434H314.925L348.632 118ZM323.668 102.41L312.713 118H300.81L318.191 94.405L323.668 102.41ZM362.667 53.8511H374.569V73.4434H386.156V82.7129H374.569V118H362.667V82.7129H355.083V73.4434H362.667V53.8511ZM401.961 53.8511H413.864V73.4434H425.451V82.7129H413.864V118H401.961V82.7129H394.377V73.4434H401.961V53.8511ZM451.368 119.896C447.295 119.896 443.925 118.667 441.256 116.209C438.588 113.681 437.183 110.451 437.043 106.519V73.4434H448.84V102.305C448.981 104.482 449.613 106.273 450.736 107.677C451.86 109.082 453.651 109.784 456.108 109.784C458.426 109.784 460.497 109.082 462.323 107.677C464.149 106.203 465.553 104.201 466.537 101.673C467.59 99.1451 468.117 96.301 468.117 93.141V73.4434H479.914V118H469.275L468.327 108.204L468.643 109.784C467.73 111.68 466.431 113.435 464.746 115.051C463.061 116.596 461.059 117.789 458.742 118.632C456.495 119.475 454.037 119.896 451.368 119.896ZM506.83 73.4434L507.883 86.0836L507.462 84.2929C508.726 81.6244 510.446 79.3421 512.623 77.4461C514.87 75.4799 517.152 74.0052 519.47 73.0221C521.787 71.9687 523.683 71.442 525.158 71.442L524.631 83.2395C521.26 82.9586 518.311 83.5906 515.783 85.1356C513.325 86.6102 511.394 88.5765 509.99 91.0343C508.655 93.4921 507.988 96.0904 507.988 98.8291V118H496.191V73.4434H506.83ZM531.593 95.2477C531.593 90.7534 532.647 86.7156 534.753 83.1342C536.86 79.4826 539.809 76.6385 543.601 74.6021C547.464 72.4954 551.817 71.442 556.663 71.442C561.649 71.442 565.967 72.4954 569.619 74.6021C573.341 76.6385 576.22 79.4826 578.256 83.1342C580.293 86.7156 581.311 90.7534 581.311 95.2477C581.311 99.742 580.293 103.815 578.256 107.467C576.22 111.048 573.341 113.892 569.619 115.999C565.967 118.105 561.614 119.159 556.558 119.159C551.782 119.159 547.499 118.211 543.707 116.315C539.915 114.348 536.93 111.575 534.753 107.993C532.647 104.412 531.593 100.163 531.593 95.2477ZM543.496 95.353C543.496 97.9513 544.058 100.339 545.181 102.516C546.305 104.622 547.85 106.308 549.816 107.572C551.782 108.836 553.959 109.468 556.347 109.468C558.945 109.468 561.192 108.836 563.088 107.572C565.055 106.308 566.564 104.622 567.618 102.516C568.741 100.339 569.303 97.9513 569.303 95.353C569.303 92.6845 568.741 90.297 567.618 88.1903C566.564 86.0133 565.055 84.2929 563.088 83.0289C561.192 81.7648 558.945 81.1328 556.347 81.1328C553.889 81.1328 551.677 81.8 549.711 83.1342C547.815 84.3982 546.305 86.0836 545.181 88.1903C544.058 90.297 543.496 92.6845 543.496 95.353Z" fill="white"/>
<rect x="12.5777" y="16.5777" width="127.845" height="119" rx="19.6993" fill="#451B97" stroke="white" stroke-width="8.84459"/>
<path d="M93.9577 76.9078L66.2702 49.2203L79.6638 36.2769L119.506 76.2308L78.6518 116.973L66.0469 104.48L93.9577 76.9078Z" fill="white" fill-opacity="0.72"/>
<path d="M60.9929 76.9078L33.3053 49.2203L46.6989 36.2769L86.5412 76.2308L45.6869 116.973L33.082 104.48L60.9929 76.9078Z" fill="white"/>
<rect x="355" y="73" width="71" height="10" fill="white"/>
</svg>
