<svg width="1810" height="385" viewBox="0 0 1810 385" fill="none" xmlns="http://www.w3.org/2000/svg">
<g filter="url(#filter0_d_678_2)">
<path d="M281.533 74.6969C268.633 35.356 207.405 36.8704 195.779 74.6969H185.645C201.708 22.4776 278.186 26.4299 291.667 74.6969H281.533Z" fill="#D8D8D8" style="fill:#D8D8D8;fill:color(display-p3 0.8458 0.8458 0.8458);fill-opacity:1;"/>
<rect x="127.582" y="74.6973" width="222.143" height="206.155" rx="29.4507" fill="url(#paint0_linear_678_2)" style=""/>
<rect x="67" y="141.845" width="222.143" height="206.155" rx="29.4507" fill="#D8D8D8" style="fill:#D8D8D8;fill:color(display-p3 0.8458 0.8458 0.8458);fill-opacity:1;"/>
<path d="M220.951 178.364C208.051 244.752 146.823 242.196 135.197 178.364H125.062C141.126 266.484 217.604 259.815 231.085 178.364H220.951Z" fill="#4F4F4F" style="fill:#4F4F4F;fill:color(display-p3 0.3084 0.3084 0.3084);fill-opacity:1;"/>
</g>
<path d="M505.444 251L467.989 128.952H467.032C467.173 131.86 467.386 136.259 467.67 142.146C468.025 147.963 468.344 154.17 468.628 160.768C468.911 167.365 469.053 173.323 469.053 178.644V251H439.579V95.4341H484.482L521.299 214.396H521.937L560.988 95.4341H605.892V251H575.14V177.367C575.14 172.472 575.211 166.833 575.353 160.448C575.566 154.064 575.814 147.999 576.098 142.253C576.382 136.436 576.595 132.073 576.736 129.165H575.779L535.664 251H505.444ZM691.336 129.59C707.297 129.59 719.534 133.066 728.046 140.018C736.559 146.97 740.815 157.54 740.815 171.727V251H718.15L711.872 234.826H711.021C707.616 239.083 704.14 242.558 700.593 245.254C697.046 247.95 692.967 249.936 688.357 251.213C683.746 252.49 678.142 253.128 671.544 253.128C664.522 253.128 658.208 251.78 652.604 249.085C647.071 246.389 642.708 242.275 639.516 236.742C636.324 231.138 634.728 224.044 634.728 215.46C634.728 202.833 639.161 193.541 648.029 187.582C656.896 181.552 670.197 178.218 687.931 177.58L708.574 176.941V171.727C708.574 165.485 706.942 160.909 703.679 158.001C700.416 155.093 695.876 153.638 690.059 153.638C684.313 153.638 678.674 154.454 673.14 156.086C667.607 157.717 662.074 159.774 656.541 162.257L645.794 140.338C652.107 137.003 659.166 134.379 666.969 132.463C674.843 130.548 682.965 129.59 691.336 129.59ZM708.574 195.882L696.018 196.307C685.519 196.591 678.212 198.471 674.098 201.947C670.055 205.423 668.033 209.998 668.033 215.673C668.033 220.639 669.487 224.186 672.396 226.314C675.304 228.371 679.099 229.4 683.781 229.4C690.733 229.4 696.585 227.342 701.338 223.228C706.162 219.114 708.574 213.261 708.574 205.671V195.882ZM822.641 253.128C810.866 253.128 800.828 251 792.528 246.744C784.229 242.417 777.915 235.748 773.588 226.739C769.261 217.73 767.097 206.203 767.097 192.157C767.097 177.615 769.545 165.769 774.439 156.618C779.405 147.396 786.25 140.621 794.976 136.294C803.772 131.967 813.951 129.803 825.514 129.803C833.743 129.803 840.837 130.619 846.795 132.251C852.825 133.811 858.075 135.691 862.544 137.89L852.967 163.002C847.86 160.945 843.107 159.278 838.709 158.001C834.31 156.653 829.912 155.979 825.514 155.979C819.839 155.979 815.122 157.327 811.362 160.023C807.602 162.647 804.8 166.62 802.956 171.94C801.112 177.26 800.19 183.929 800.19 191.945C800.19 199.819 801.183 206.345 803.169 211.523C805.155 216.702 808.028 220.568 811.788 223.122C815.547 225.604 820.123 226.846 825.514 226.846C832.253 226.846 838.247 225.959 843.497 224.186C848.746 222.341 853.854 219.788 858.819 216.524V244.296C853.854 247.418 848.64 249.652 843.178 251C837.786 252.419 830.941 253.128 822.641 253.128ZM938.73 95.4341C958.806 95.4341 973.454 99.7613 982.676 108.416C991.898 116.999 996.509 128.846 996.509 143.955C996.509 150.765 995.48 157.292 993.423 163.534C991.366 169.706 987.997 175.203 983.315 180.027C978.704 184.851 972.532 188.681 964.8 191.519C957.068 194.285 947.527 195.669 936.177 195.669H922.025V251H889.039V95.4341H938.73ZM937.028 122.461H922.025V168.642H932.878C939.05 168.642 944.405 167.826 948.945 166.194C953.485 164.563 956.997 162.009 959.48 158.533C961.962 155.057 963.204 150.588 963.204 145.126C963.204 137.465 961.076 131.79 956.82 128.101C952.563 124.341 945.966 122.461 937.028 122.461ZM1089.72 129.803C1091.35 129.803 1093.23 129.91 1095.36 130.123C1097.56 130.264 1099.33 130.477 1100.68 130.761L1098.23 161.193C1097.17 160.838 1095.64 160.59 1093.66 160.448C1091.74 160.235 1090.08 160.129 1088.66 160.129C1084.47 160.129 1080.39 160.661 1076.42 161.725C1072.52 162.789 1069.01 164.527 1065.89 166.939C1062.76 169.28 1060.28 172.401 1058.44 176.303C1056.66 180.133 1055.78 184.851 1055.78 190.455V251H1023.32V132.038H1047.9L1052.69 152.042H1054.29C1056.63 147.999 1059.54 144.31 1063.01 140.976C1066.56 137.571 1070.57 134.875 1075.04 132.889C1079.58 130.832 1084.47 129.803 1089.72 129.803ZM1171.33 129.803C1182.33 129.803 1191.8 131.931 1199.74 136.188C1207.69 140.373 1213.83 146.474 1218.15 154.49C1222.48 162.505 1224.64 172.295 1224.64 183.858V199.606H1147.93C1148.28 208.757 1151.01 215.957 1156.12 221.206C1161.3 226.385 1168.46 228.974 1177.61 228.974C1185.2 228.974 1192.15 228.194 1198.47 226.633C1204.78 225.072 1211.27 222.731 1217.94 219.61V244.722C1212.05 247.63 1205.88 249.759 1199.43 251.106C1193.04 252.454 1185.27 253.128 1176.12 253.128C1164.21 253.128 1153.64 250.929 1144.41 246.531C1135.26 242.133 1128.06 235.429 1122.81 226.42C1117.63 217.411 1115.05 206.061 1115.05 192.37C1115.05 178.466 1117.39 166.904 1122.07 157.682C1126.82 148.389 1133.42 141.437 1141.86 136.826C1150.3 132.144 1160.13 129.803 1171.33 129.803ZM1171.55 152.893C1165.23 152.893 1159.98 154.915 1155.8 158.959C1151.68 163.002 1149.31 169.351 1148.67 178.005H1194.21C1194.14 173.182 1193.25 168.89 1191.55 165.13C1189.92 161.37 1187.44 158.391 1184.1 156.192C1180.84 153.993 1176.65 152.893 1171.55 152.893ZM1390.74 129.803C1404.22 129.803 1414.4 133.279 1421.28 140.231C1428.23 147.112 1431.71 158.178 1431.71 173.43V251H1399.15V181.517C1399.15 173.004 1397.7 166.584 1394.79 162.257C1391.88 157.93 1387.37 155.766 1381.27 155.766C1372.69 155.766 1366.59 158.852 1362.97 165.024C1359.35 171.124 1357.55 179.885 1357.55 191.306V251H1325.09V181.517C1325.09 175.842 1324.45 171.089 1323.18 167.258C1321.9 163.428 1319.95 160.555 1317.32 158.639C1314.7 156.724 1311.33 155.766 1307.22 155.766C1301.19 155.766 1296.43 157.292 1292.96 160.342C1289.55 163.321 1287.1 167.755 1285.61 173.643C1284.2 179.46 1283.49 186.589 1283.49 195.03V251H1251.03V132.038H1275.83L1280.19 147.254H1282C1284.41 143.14 1287.42 139.805 1291.04 137.252C1294.73 134.698 1298.77 132.818 1303.17 131.612C1307.57 130.406 1312.04 129.803 1316.58 129.803C1325.3 129.803 1332.68 131.222 1338.71 134.06C1344.81 136.897 1349.49 141.295 1352.76 147.254H1355.63C1359.18 141.153 1364.18 136.72 1370.63 133.953C1377.16 131.187 1383.86 129.803 1390.74 129.803ZM1497.58 132.038V251H1465.12V132.038H1497.58ZM1481.4 85.4319C1486.23 85.4319 1490.38 86.5669 1493.85 88.8369C1497.33 91.0359 1499.07 95.1858 1499.07 101.286C1499.07 107.316 1497.33 111.501 1493.85 113.842C1490.38 116.112 1486.23 117.247 1481.4 117.247C1476.51 117.247 1472.32 116.112 1468.85 113.842C1465.44 111.501 1463.74 107.316 1463.74 101.286C1463.74 95.1858 1465.44 91.0359 1468.85 88.8369C1472.32 86.5669 1476.51 85.4319 1481.4 85.4319ZM1580.79 129.803C1591.78 129.803 1601.25 131.931 1609.2 136.188C1617.14 140.373 1623.28 146.474 1627.6 154.49C1631.93 162.505 1634.1 172.295 1634.1 183.858V199.606H1557.38C1557.73 208.757 1560.46 215.957 1565.57 221.206C1570.75 226.385 1577.91 228.974 1587.06 228.974C1594.65 228.974 1601.61 228.194 1607.92 226.633C1614.23 225.072 1620.72 222.731 1627.39 219.61V244.722C1621.5 247.63 1615.33 249.759 1608.88 251.106C1602.49 252.454 1594.73 253.128 1585.57 253.128C1573.66 253.128 1563.09 250.929 1553.87 246.531C1544.71 242.133 1537.51 235.429 1532.26 226.42C1527.09 217.411 1524.5 206.061 1524.5 192.37C1524.5 178.466 1526.84 166.904 1531.52 157.682C1536.27 148.389 1542.87 141.437 1551.31 136.826C1559.75 132.144 1569.58 129.803 1580.79 129.803ZM1581 152.893C1574.69 152.893 1569.44 154.915 1565.25 158.959C1561.14 163.002 1558.76 169.351 1558.12 178.005H1603.66C1603.59 173.182 1602.71 168.89 1601 165.13C1599.37 161.37 1596.89 158.391 1593.55 156.192C1590.29 153.993 1586.11 152.893 1581 152.893ZM1726.88 129.803C1728.51 129.803 1730.39 129.91 1732.52 130.123C1734.72 130.264 1736.49 130.477 1737.84 130.761L1735.39 161.193C1734.33 160.838 1732.8 160.59 1730.82 160.448C1728.9 160.235 1727.24 160.129 1725.82 160.129C1721.63 160.129 1717.55 160.661 1713.58 161.725C1709.68 162.789 1706.17 164.527 1703.05 166.939C1699.93 169.28 1697.44 172.401 1695.6 176.303C1693.82 180.133 1692.94 184.851 1692.94 190.455V251H1660.48V132.038H1685.06L1689.85 152.042H1691.45C1693.79 147.999 1696.7 144.31 1700.17 140.976C1703.72 137.571 1707.73 134.875 1712.2 132.889C1716.74 130.832 1721.63 129.803 1726.88 129.803Z" fill="#E3E3E3" style="fill:#E3E3E3;fill:color(display-p3 0.8902 0.8902 0.8902);fill-opacity:1;"/>
<circle cx="130.5" cy="175.5" r="9.5" fill="#4F4F4F" style="fill:#4F4F4F;fill:color(display-p3 0.3084 0.3084 0.3084);fill-opacity:1;"/>
<circle cx="224.5" cy="175.5" r="9.5" fill="#4F4F4F" style="fill:#4F4F4F;fill:color(display-p3 0.3084 0.3084 0.3084);fill-opacity:1;"/>
<defs>
<filter id="filter0_d_678_2" x="50.9943" y="19.2159" width="323.63" height="351.903" filterUnits="userSpaceOnUse" color-interpolation-filters="sRGB">
<feFlood flood-opacity="0" result="BackgroundImageFix"/>
<feColorMatrix in="SourceAlpha" type="matrix" values="0 0 0 0 0 0 0 0 0 0 0 0 0 0 0 0 0 0 127 0" result="hardAlpha"/>
<feOffset dx="4.44602" dy="2.66761"/>
<feGaussianBlur stdDeviation="10.2258"/>
<feComposite in2="hardAlpha" operator="out"/>
<feColorMatrix type="matrix" values="0 0 0 0 0 0 0 0 0 0 0 0 0 0 0 0 0 0 0.25 0"/>
<feBlend mode="normal" in2="BackgroundImageFix" result="effect1_dropShadow_678_2"/>
<feBlend mode="normal" in="SourceGraphic" in2="effect1_dropShadow_678_2" result="shape"/>
</filter>
<linearGradient id="paint0_linear_678_2" x1="238.653" y1="74.6973" x2="238.653" y2="280.852" gradientUnits="userSpaceOnUse">
<stop stop-color="#00ADEF" style="stop-color:#00ADEF;stop-color:color(display-p3 0.0000 0.6784 0.9373);stop-opacity:1;"/>
<stop offset="1" stop-color="#007EAE" style="stop-color:#007EAE;stop-color:color(display-p3 0.0000 0.4946 0.6833);stop-opacity:1;"/>
</linearGradient>
</defs>
</svg>
