<svg width="1096" height="385" viewBox="0 0 1096 385" fill="none" xmlns="http://www.w3.org/2000/svg">
<g filter="url(#filter0_d_678_38)">
<path d="M281.533 74.6969C268.633 35.356 207.405 36.8704 195.779 74.6969H185.645C201.708 22.4776 278.186 26.4299 291.667 74.6969H281.533Z" fill="#D8D8D8" style="fill:#D8D8D8;fill:color(display-p3 0.8458 0.8458 0.8458);fill-opacity:1;"/>
<rect x="127.582" y="74.6973" width="222.143" height="206.155" rx="29.4507" fill="url(#paint0_linear_678_38)" style=""/>
<rect x="67" y="141.845" width="222.143" height="206.155" rx="29.4507" fill="#D8D8D8" style="fill:#D8D8D8;fill:color(display-p3 0.8458 0.8458 0.8458);fill-opacity:1;"/>
<path d="M220.951 178.364C208.051 244.752 146.823 242.196 135.197 178.364H125.062C141.126 266.484 217.604 259.815 231.085 178.364H220.951Z" fill="#4F4F4F" style="fill:#4F4F4F;fill:color(display-p3 0.3084 0.3084 0.3084);fill-opacity:1;"/>
</g>
<path d="M561.711 198H544.824V121.83C544.824 121.471 544.884 118.776 545.004 113.746C545.124 103.087 545.183 95.0626 545.183 89.6732H544.824L508.536 198H491.29L455.001 89.8529H454.642C454.642 95.1225 454.702 103.027 454.821 113.566C454.941 118.716 455.001 121.471 455.001 121.83V198H438.114V69.0139H463.085L499.913 178.059H500.272L536.92 69.0139H561.711V198ZM600.336 132.609H585.785C586.144 121.71 589.677 113.806 596.384 108.895C603.091 103.865 612.492 101.35 624.589 101.35C627.343 101.35 630.517 101.65 634.11 102.248C637.823 102.847 641.595 104.045 645.428 105.841C649.38 107.518 652.673 110.153 655.308 113.746C658.063 117.339 659.44 121.95 659.44 127.579V181.652C659.44 185.365 661.177 187.221 664.65 187.221C665.728 187.221 667.464 186.982 669.859 186.503V198C669.38 198.12 668.722 198.299 667.883 198.539C665.249 199.377 663.033 199.796 661.236 199.796C654.889 199.796 650.577 198.539 648.302 196.024C646.146 193.389 644.889 189.856 644.529 185.425C640.457 189.856 635.787 193.509 630.517 196.383C625.367 199.258 618.72 200.695 610.576 200.695C601.953 200.695 594.887 198.18 589.378 193.15C583.869 188.119 581.114 181.592 581.114 173.568C581.114 170.933 581.414 168.239 582.012 165.484C582.611 162.61 583.869 159.675 585.785 156.681C587.821 153.687 590.755 151.052 594.588 148.777C598.54 146.382 603.57 144.825 609.678 144.106L635.727 140.872C638.242 140.633 640.218 139.795 641.655 138.357C643.212 136.8 643.99 133.926 643.99 129.734C643.99 119.554 636.625 114.464 621.894 114.464C617.702 114.464 614.229 115.063 611.474 116.261C608.72 117.339 606.564 118.776 605.007 120.572C603.57 122.369 602.492 124.225 601.773 126.141C601.175 128.058 600.696 130.213 600.336 132.609ZM643.631 165.484V150.034C642.194 151.112 639.739 152.07 636.266 152.909C632.912 153.747 626.684 154.765 617.582 155.963C615.187 156.322 612.852 156.801 610.576 157.4C608.42 157.879 606.325 158.657 604.289 159.735C602.253 160.813 600.576 162.31 599.258 164.226C598.061 166.143 597.462 168.478 597.462 171.233C597.462 176.502 598.839 180.574 601.594 183.449C604.468 186.203 608.78 187.581 614.528 187.581C618.121 187.581 621.654 187.042 625.128 185.964C628.72 184.766 631.894 183.209 634.649 181.293C637.403 179.257 639.559 176.921 641.116 174.287C642.793 171.532 643.631 168.598 643.631 165.484ZM760.161 135.663H744.891C743.933 129.195 741.598 124.225 737.885 120.752C734.172 117.279 729.082 115.542 722.615 115.542C717.944 115.542 713.932 116.56 710.579 118.596C707.225 120.632 704.531 123.327 702.495 126.68C700.459 130.034 698.962 133.806 698.004 137.998C697.165 142.19 696.746 146.501 696.746 150.933C696.746 155.484 697.105 159.855 697.824 164.047C698.543 168.119 699.8 171.951 701.597 175.544C703.513 179.017 706.148 181.832 709.501 183.988C712.974 186.024 717.286 187.042 722.436 187.042C727.945 187.042 732.735 185.125 736.807 181.293C740.879 177.341 743.574 171.832 744.891 164.765H760.161C759.682 168.957 758.664 173.089 757.107 177.161C755.67 181.233 753.454 185.065 750.46 188.658C747.466 192.251 743.574 195.186 738.783 197.461C734.113 199.617 728.484 200.695 721.897 200.695C708.962 200.695 698.722 196.323 691.177 187.581C683.632 178.838 679.859 167.52 679.859 153.627C679.859 146.202 680.758 139.375 682.554 133.148C684.35 126.8 687.105 121.231 690.818 116.441C694.65 111.65 699.381 107.937 705.01 105.302C710.758 102.668 717.405 101.35 724.951 101.35C730.819 101.35 735.909 102.308 740.22 104.225C744.652 106.141 748.245 108.776 750.999 112.129C753.874 115.363 756.029 119.015 757.467 123.087C758.904 127.159 759.802 131.351 760.161 135.663ZM457.875 225.925V270.656H492.547C500.931 270.656 507.398 268.86 511.949 265.267C516.5 261.674 518.775 255.746 518.775 247.482C518.775 239.817 516.5 234.308 511.949 230.955C507.398 227.601 501.17 225.925 493.266 225.925H457.875ZM457.875 285.567V340H440.45V211.014H498.475C510.212 211.014 519.494 214.427 526.321 221.254C533.267 227.961 536.74 236.643 536.74 247.302C536.74 252.093 536.021 256.764 534.584 261.315C533.147 265.746 530.872 269.818 527.758 273.531C524.764 277.124 520.811 280.058 515.901 282.334C510.991 284.489 505.182 285.567 498.475 285.567H457.875ZM574.464 285.387V340H558.656V246.045H573.566V261.674H573.925C577.279 255.806 581.111 251.315 585.423 248.201C589.734 244.967 594.705 243.35 600.333 243.35C601.89 243.35 603.268 243.53 604.465 243.889V260.237H598.537C591.351 260.237 585.543 262.692 581.111 267.602C576.68 272.393 574.464 278.321 574.464 285.387ZM680.278 310.538H696.086C695.727 313.891 694.35 317.724 691.955 322.035C690.517 324.79 688.721 327.425 686.565 329.94C684.529 332.335 682.134 334.431 679.379 336.227C676.385 338.144 673.032 339.701 669.319 340.898C665.726 342.096 660.576 342.695 653.87 342.695C640.935 342.695 630.695 338.323 623.15 329.581C615.605 320.838 611.832 309.52 611.832 295.627C611.832 288.202 612.73 281.375 614.527 275.148C616.323 268.8 619.078 263.231 622.791 258.441C626.623 253.65 631.354 249.937 636.983 247.302C642.731 244.668 649.378 243.35 656.924 243.35C670.217 243.35 680.278 248.201 687.104 257.902C693.931 267.602 697.344 281.016 697.344 298.142H628.719C628.719 308.083 630.995 315.748 635.546 321.137C640.216 326.407 647.043 329.042 656.025 329.042C659.618 329.042 662.852 328.443 665.726 327.245C668.72 326.047 671.355 324.431 673.631 322.395C677.703 318.562 679.918 314.61 680.278 310.538ZM628.719 285.567H680.996C680.757 281.615 680.098 278.022 679.02 274.788C678.062 271.435 676.565 268.501 674.529 265.986C672.613 263.351 669.978 261.315 666.624 259.878C663.391 258.321 659.439 257.542 654.768 257.542C651.295 257.542 647.941 258.321 644.708 259.878C641.474 261.315 638.659 263.351 636.264 265.986C633.869 268.62 632.013 271.674 630.695 275.148C629.378 278.501 628.719 281.974 628.719 285.567ZM716.146 340V246.045H731.057V259.339H731.416C732.734 257.542 734.051 255.806 735.369 254.129C736.806 252.452 738.662 250.835 740.938 249.279C743.213 247.602 745.908 246.225 749.022 245.147C752.255 243.949 755.848 243.35 759.801 243.35C763.753 243.35 767.166 243.889 770.04 244.967C772.915 245.925 775.25 247.183 777.047 248.74C778.963 250.297 780.46 251.853 781.538 253.41C782.735 254.967 783.813 256.644 784.771 258.441V258.62C789.562 253.231 793.873 249.338 797.706 246.943C801.658 244.548 806.928 243.35 813.515 243.35C816.509 243.35 819.623 243.829 822.856 244.787C826.09 245.626 829.204 247.243 832.198 249.638C835.312 251.913 837.827 255.147 839.743 259.339C841.659 263.531 842.618 268.74 842.618 274.968V340H826.809V279.28C826.809 272.333 825.491 267.004 822.856 263.291C820.222 259.459 815.73 257.542 809.383 257.542C803.035 257.542 797.766 260.117 793.574 265.267C789.382 270.297 787.286 276.106 787.286 282.693V340H771.478V274.968C771.478 270.177 770.34 266.105 768.064 262.752C765.789 259.279 762.016 257.542 756.747 257.542C754.232 257.542 751.537 258.021 748.662 258.979C745.908 259.938 743.213 261.614 740.578 264.01C738.063 266.285 735.967 269.519 734.291 273.71C732.734 277.782 731.955 282.813 731.955 288.801V340H716.146ZM881.962 246.045V340H866.153V246.045H881.962ZM881.962 228.979H866.153V211.014H881.962V228.979ZM969.571 310.538H985.38C985.021 313.891 983.644 317.724 981.248 322.035C979.811 324.79 978.015 327.425 975.859 329.94C973.823 332.335 971.428 334.431 968.673 336.227C965.679 338.144 962.326 339.701 958.613 340.898C955.02 342.096 949.87 342.695 943.163 342.695C930.229 342.695 919.989 338.323 912.444 329.581C904.899 320.838 901.126 309.52 901.126 295.627C901.126 288.202 902.024 281.375 903.821 275.148C905.617 268.8 908.372 263.231 912.085 258.441C915.917 253.65 920.648 249.937 926.277 247.302C932.025 244.668 938.672 243.35 946.217 243.35C959.511 243.35 969.571 248.201 976.398 257.902C983.225 267.602 986.638 281.016 986.638 298.142H918.013C918.013 308.083 920.288 315.748 924.839 321.137C929.51 326.407 936.337 329.042 945.319 329.042C948.912 329.042 952.146 328.443 955.02 327.245C958.014 326.047 960.649 324.431 962.924 322.395C966.996 318.562 969.212 314.61 969.571 310.538ZM918.013 285.567H970.29C970.05 281.615 969.392 278.022 968.314 274.788C967.356 271.435 965.859 268.501 963.823 265.986C961.907 263.351 959.272 261.315 955.918 259.878C952.685 258.321 948.732 257.542 944.062 257.542C940.588 257.542 937.235 258.321 934.001 259.878C930.768 261.315 927.953 263.351 925.558 265.986C923.163 268.62 921.306 271.674 919.989 275.148C918.672 278.501 918.013 281.974 918.013 285.567ZM1023.41 285.387V340H1007.6V246.045H1022.51V261.674H1022.87C1026.22 255.806 1030.05 251.315 1034.36 248.201C1038.67 244.967 1043.65 243.35 1049.27 243.35C1050.83 243.35 1052.21 243.53 1053.41 243.889V260.237H1047.48C1040.29 260.237 1034.48 262.692 1030.05 267.602C1025.62 272.393 1023.41 278.321 1023.41 285.387Z" fill="#E3E3E3" style="fill:#E3E3E3;fill:color(display-p3 0.8902 0.8902 0.8902);fill-opacity:1;"/>
<circle cx="130.5" cy="175.5" r="9.5" fill="#4F4F4F" style="fill:#4F4F4F;fill:color(display-p3 0.3084 0.3084 0.3084);fill-opacity:1;"/>
<circle cx="224.5" cy="175.5" r="9.5" fill="#4F4F4F" style="fill:#4F4F4F;fill:color(display-p3 0.3084 0.3084 0.3084);fill-opacity:1;"/>
<defs>
<filter id="filter0_d_678_38" x="50.9943" y="19.2159" width="323.63" height="351.903" filterUnits="userSpaceOnUse" color-interpolation-filters="sRGB">
<feFlood flood-opacity="0" result="BackgroundImageFix"/>
<feColorMatrix in="SourceAlpha" type="matrix" values="0 0 0 0 0 0 0 0 0 0 0 0 0 0 0 0 0 0 127 0" result="hardAlpha"/>
<feOffset dx="4.44602" dy="2.66761"/>
<feGaussianBlur stdDeviation="10.2258"/>
<feComposite in2="hardAlpha" operator="out"/>
<feColorMatrix type="matrix" values="0 0 0 0 0 0 0 0 0 0 0 0 0 0 0 0 0 0 0.25 0"/>
<feBlend mode="normal" in2="BackgroundImageFix" result="effect1_dropShadow_678_38"/>
<feBlend mode="normal" in="SourceGraphic" in2="effect1_dropShadow_678_38" result="shape"/>
</filter>
<linearGradient id="paint0_linear_678_38" x1="238.653" y1="74.6973" x2="238.653" y2="280.852" gradientUnits="userSpaceOnUse">
<stop stop-color="#00ADEF" style="stop-color:#00ADEF;stop-color:color(display-p3 0.0000 0.6784 0.9373);stop-opacity:1;"/>
<stop offset="1" stop-color="#007EAE" style="stop-color:#007EAE;stop-color:color(display-p3 0.0000 0.4946 0.6833);stop-opacity:1;"/>
</linearGradient>
</defs>
</svg>
