<svg width="524" height="89" viewBox="0 0 524 89" fill="none" xmlns="http://www.w3.org/2000/svg">
<g clip-path="url(#clip0_679_311)">
<g filter="url(#filter0_d_679_311)">
<path d="M61.4573 10.7526C58.183 0.766288 42.6407 1.15069 39.6897 10.7526H37.1172C41.1947 -2.50276 60.6079 -1.49951 64.0299 10.7526H61.4573Z" fill="#D8D8D8" style="fill:#D8D8D8;fill:color(display-p3 0.8458 0.8458 0.8458);fill-opacity:1;"/>
<rect x="22.375" y="10.751" width="56.3885" height="52.3302" rx="7.47575" fill="url(#paint0_linear_679_311)" style=""/>
<rect x="7" y="27.7949" width="56.3885" height="52.3302" rx="7.47575" fill="#D8D8D8" style="fill:#D8D8D8;fill:color(display-p3 0.8458 0.8458 0.8458);fill-opacity:1;"/>
<path d="M46.0784 37.0672C42.8041 53.919 27.2618 53.2704 24.3108 37.0672H21.7383C25.8158 59.4356 45.229 57.7426 48.651 37.0672H46.0784Z" fill="#4F4F4F" style="fill:#4F4F4F;fill:color(display-p3 0.3084 0.3084 0.3084);fill-opacity:1;"/>
</g>
<path d="M102.186 57V15.16H113.786V21.56C115.866 17.64 120.346 14.2 126.586 14.2C132.106 14.2 136.266 16.52 138.266 21.48C141.626 16.44 147.066 14.2 152.346 14.2C160.106 14.2 166.106 19.08 166.106 30.2V57H154.586V31.48C154.586 26.12 152.186 23.72 148.026 23.72C143.546 23.72 139.946 26.6 139.946 32.28V57H128.426V31.48C128.426 26.12 125.946 23.72 121.866 23.72C117.386 23.72 113.786 26.6 113.786 32.28V57H102.186Z" fill="#C3C3C3" style="fill:#C3C3C3;fill:color(display-p3 0.7647 0.7647 0.7647);fill-opacity:1;"/>
<path d="M184.799 57.7461C178.356 57.7461 172.929 54.626 172.929 47.1649C172.929 38.8898 180.526 35.7697 191.379 35.7697H195.381V34.3453C195.381 30.1399 194.092 27.8337 189.615 27.8337C185.749 27.8337 183.985 29.8007 183.578 32.853H174.286C174.896 24.4423 181.544 20.7117 190.226 20.7117C198.908 20.7117 205.08 24.2388 205.08 33.8705V57H195.516V52.7268C193.481 55.5756 190.361 57.7461 184.799 57.7461ZM187.716 50.8954C192.057 50.8954 195.381 48.5214 195.381 44.5874V41.6029H191.582C185.885 41.6029 182.561 42.8238 182.561 46.6222C182.561 49.1997 184.121 50.8954 187.716 50.8954ZM229.597 57.7461C219.219 57.7461 211.351 51.3024 211.351 39.7037V39.1611C211.351 27.6981 219.558 20.7117 229.665 20.7117C237.872 20.7117 245.469 24.3066 246.351 34.4809H237.058C236.38 30.3434 233.87 28.4442 229.868 28.4442C224.781 28.4442 221.39 32.2426 221.39 39.0254V39.5681C221.39 46.6901 224.578 50.3528 230.072 50.3528C234.006 50.3528 237.194 48.0466 237.669 43.5021H246.554C246.011 51.9129 239.907 57.7461 229.597 57.7461ZM303.672 57V21.5257H313.508V28.3085C315.746 23.5605 319.205 21.0509 324.971 20.983V30.1399C317.713 30.0721 313.508 32.4461 313.508 39.2289V57H303.672ZM347.111 57.7461C336.394 57.7461 328.594 51.0311 328.594 39.7037V39.1611C328.594 27.9694 336.53 20.7117 346.84 20.7117C355.996 20.7117 364.136 26.0702 364.136 38.7541V41.4673H338.564C338.836 47.3683 342.024 50.7598 347.382 50.7598C351.927 50.7598 354.165 48.7927 354.775 45.8083H364.068C362.915 53.4729 356.81 57.7461 347.111 57.7461ZM338.7 35.4305H354.572C354.233 30.0721 351.52 27.4946 346.84 27.4946C342.431 27.4946 339.446 30.4112 338.7 35.4305ZM370.574 57V21.5257H380.409V26.9519C382.172 23.6283 385.971 20.7117 391.261 20.7117C395.942 20.7117 399.469 22.6787 401.164 26.8841C404.013 22.6109 408.626 20.7117 413.102 20.7117C419.682 20.7117 424.769 24.8493 424.769 34.2774V57H415.001V35.3627C415.001 30.8182 412.967 28.7833 409.439 28.7833C405.641 28.7833 402.589 31.2251 402.589 36.041V57H392.821V35.3627C392.821 30.8182 390.719 28.7833 387.26 28.7833C383.461 28.7833 380.409 31.2251 380.409 36.041V57H370.574ZM433.441 57V21.5257H443.208V57H433.441ZM438.257 16.7098C435.136 16.7098 432.695 14.4037 432.695 11.3514C432.695 8.29909 435.136 5.99292 438.257 5.99292C441.444 5.99292 443.886 8.29909 443.886 11.3514C443.886 14.4037 441.444 16.7098 438.257 16.7098ZM468.593 57.7461C457.876 57.7461 450.076 51.0311 450.076 39.7037V39.1611C450.076 27.9694 458.012 20.7117 468.322 20.7117C477.478 20.7117 485.618 26.0702 485.618 38.7541V41.4673H460.046C460.318 47.3683 463.506 50.7598 468.864 50.7598C473.409 50.7598 475.647 48.7927 476.257 45.8083H485.55C484.397 53.4729 478.292 57.7461 468.593 57.7461ZM460.182 35.4305H476.054C475.715 30.0721 473.002 27.4946 468.322 27.4946C463.913 27.4946 460.928 30.4112 460.182 35.4305ZM492.056 57V21.5257H501.891V28.3085C504.129 23.5605 507.588 21.0509 513.354 20.983V30.1399C506.096 30.0721 501.891 32.4461 501.891 39.2289V57H492.056Z" fill="#D8D8D8" style="fill:#D8D8D8;fill:color(display-p3 0.8458 0.8458 0.8458);fill-opacity:1;"/>
<path d="M253.514 71.24V15.16H265.114V21.72C267.434 17.72 272.314 14.2 278.474 14.2C288.714 14.2 296.714 21.8 296.714 35.64V36.28C296.714 50.12 288.874 57.88 278.474 57.88C271.994 57.88 267.274 54.68 265.114 50.6V71.24H253.514ZM275.034 48.84C281.434 48.84 284.954 44.52 284.954 36.36V35.72C284.954 27.24 280.794 23.08 274.954 23.08C268.874 23.08 264.714 27.32 264.714 35.72V36.36C264.714 44.76 268.714 48.84 275.034 48.84Z" fill="#C4C4C4" style="fill:#C4C4C4;fill:color(display-p3 0.7667 0.7667 0.7667);fill-opacity:1;"/>
<circle cx="23.1263" cy="36.3412" r="2.41147" fill="#4F4F4F" style="fill:#4F4F4F;fill:color(display-p3 0.3084 0.3084 0.3084);fill-opacity:1;"/>
<circle cx="46.9857" cy="36.3412" r="2.41147" fill="#4F4F4F" style="fill:#4F4F4F;fill:color(display-p3 0.3084 0.3084 0.3084);fill-opacity:1;"/>
</g>
<defs>
<filter id="filter0_d_679_311" x="2.93713" y="-3.3307" width="82.1446" height="89.3243" filterUnits="userSpaceOnUse" color-interpolation-filters="sRGB">
<feFlood flood-opacity="0" result="BackgroundImageFix"/>
<feColorMatrix in="SourceAlpha" type="matrix" values="0 0 0 0 0 0 0 0 0 0 0 0 0 0 0 0 0 0 127 0" result="hardAlpha"/>
<feOffset dx="1.12857" dy="0.677144"/>
<feGaussianBlur stdDeviation="2.59572"/>
<feComposite in2="hardAlpha" operator="out"/>
<feColorMatrix type="matrix" values="0 0 0 0 0 0 0 0 0 0 0 0 0 0 0 0 0 0 0.25 0"/>
<feBlend mode="normal" in2="BackgroundImageFix" result="effect1_dropShadow_679_311"/>
<feBlend mode="normal" in="SourceGraphic" in2="effect1_dropShadow_679_311" result="shape"/>
</filter>
<linearGradient id="paint0_linear_679_311" x1="50.5692" y1="10.751" x2="50.5692" y2="63.0812" gradientUnits="userSpaceOnUse">
<stop stop-color="#00ADEF" style="stop-color:#00ADEF;stop-color:color(display-p3 0.0000 0.6784 0.9373);stop-opacity:1;"/>
<stop offset="1" stop-color="#007EAE" style="stop-color:#007EAE;stop-color:color(display-p3 0.0000 0.4946 0.6833);stop-opacity:1;"/>
</linearGradient>
<clipPath id="clip0_679_311">
<rect width="524" height="89" fill="white" style="fill:white;fill:white;fill-opacity:1;"/>
</clipPath>
</defs>
</svg>
