<svg width="1810" height="385" viewBox="0 0 1810 385" fill="none" xmlns="http://www.w3.org/2000/svg">
<g clip-path="url(#clip0_436_2)">
<rect width="1810" height="385" fill="#5171A8"/>
<path d="M377.159 228H417.604V138.384C417.604 121.762 427.992 110.127 443.367 110.127C458.326 110.127 467.329 119.546 467.329 135.475V228H506.251V137.83C506.251 121.347 516.362 110.127 531.737 110.127C547.388 110.127 555.976 119.546 555.976 136.721V228H596.421V126.61C596.421 96.6918 576.891 76.7463 547.804 76.7463C526.058 76.7463 508.328 88.5197 501.68 107.219H500.849C495.862 87.8271 480.903 76.7463 459.434 76.7463C439.211 76.7463 423.283 88.5197 417.05 106.388H416.219V79.5165H377.159V228ZM664.477 206.813C653.665 206.813 646.457 201.352 646.457 192.615C646.457 184.314 653.228 178.963 665.132 178.089L689.814 176.56V185.079C689.814 197.748 678.347 206.813 664.477 206.813ZM653.992 229.857C668.627 229.857 683.152 222.539 689.705 210.089H690.361V228H721.159V147.509C721.159 123.919 701.61 108.411 671.576 108.411C640.559 108.411 621.228 124.028 620.027 146.745H649.187C650.716 138.117 658.252 132.219 670.156 132.219C682.17 132.219 689.814 138.554 689.814 149.475V157.229L660.327 158.977C631.167 160.724 614.785 173.065 614.785 194.362C614.785 215.44 631.713 229.857 653.992 229.857ZM848.175 154.499C846.755 127.96 826.659 108.411 794.987 108.411C759.93 108.411 737.541 131.783 737.541 169.352C737.541 207.577 759.93 230.512 795.206 230.512C826.004 230.512 846.646 212.71 848.284 185.079H818.578C816.612 197.857 808.312 205.502 795.533 205.502C779.697 205.502 769.868 192.396 769.868 169.352C769.868 146.745 779.697 133.421 795.424 133.421C808.53 133.421 816.721 142.158 818.578 154.499H848.175ZM947.893 85.1379C927.559 85.1379 911.948 95.3704 904.339 111.9H903.552V87.368H865.77V273.915H904.077V204.386H904.864C912.342 220.26 928.084 230.23 948.549 230.23C983.707 230.23 1005.48 202.943 1005.48 157.684C1005.48 112.293 983.576 85.1379 947.893 85.1379ZM935.037 199.401C916.277 199.401 903.946 183.134 903.946 157.684C903.946 132.496 916.277 115.836 935.037 115.836C954.19 115.836 966.259 132.234 966.259 157.684C966.259 183.265 954.19 199.401 935.037 199.401ZM1023.21 228H1055.1V162.581C1055.1 146.09 1064.27 136.479 1080 136.479C1084.58 136.479 1088.95 137.243 1091.57 138.335V110.267C1089.39 109.612 1086.22 109.066 1082.51 109.066C1068.75 109.066 1058.81 117.148 1054.66 132.001H1054V110.923H1023.21V228ZM1153.28 132.001C1167.48 132.001 1177.2 142.267 1177.85 157.229H1128.16C1129.25 142.595 1139.3 132.001 1153.28 132.001ZM1178.29 192.178C1175.34 201.133 1166.39 206.922 1154.7 206.922C1138.43 206.922 1127.83 195.454 1127.83 178.745V176.779H1208.54V167.059C1208.54 131.455 1187.03 108.411 1152.95 108.411C1118.33 108.411 1096.49 132.656 1096.49 170.007C1096.49 207.468 1118.11 230.512 1154.15 230.512C1183.09 230.512 1204.06 215.113 1207.56 192.178H1178.29ZM1225.03 228H1256.92V157.339C1256.92 144.233 1265.11 135.059 1277.24 135.059C1289.03 135.059 1296.13 142.486 1296.13 155.045V228H1326.82V156.902C1326.82 143.905 1334.79 135.059 1346.92 135.059C1359.26 135.059 1366.03 142.486 1366.03 156.028V228H1397.92V148.055C1397.92 124.465 1382.52 108.738 1359.58 108.738C1342.44 108.738 1328.46 118.022 1323.22 132.766H1322.56C1318.63 117.476 1306.83 108.738 1289.91 108.738C1273.96 108.738 1261.4 118.022 1256.49 132.11H1255.83V110.923H1225.03V228ZM1418.67 228H1450.56V110.923H1418.67V228ZM1434.61 98.0355C1444.23 98.0355 1451.65 90.7182 1451.65 81.5442C1451.65 72.261 1444.23 65.0529 1434.61 65.0529C1425 65.0529 1417.58 72.261 1417.58 81.5442C1417.58 90.7182 1425 98.0355 1434.61 98.0355ZM1524.39 132.001C1538.59 132.001 1548.31 142.267 1548.96 157.229H1499.27C1500.36 142.595 1510.41 132.001 1524.39 132.001ZM1549.4 192.178C1546.45 201.133 1537.49 206.922 1525.81 206.922C1509.54 206.922 1498.94 195.454 1498.94 178.745V176.779H1579.65V167.059C1579.65 131.455 1558.14 108.411 1524.06 108.411C1489.44 108.411 1467.6 132.656 1467.6 170.007C1467.6 207.468 1489.22 230.512 1525.26 230.512C1554.2 230.512 1575.17 215.113 1578.67 192.178H1549.4ZM1596.14 228H1628.03V162.581C1628.03 146.09 1637.21 136.479 1652.93 136.479C1657.52 136.479 1661.89 137.243 1664.51 138.335V110.267C1662.33 109.612 1659.16 109.066 1655.44 109.066C1641.68 109.066 1631.75 117.148 1627.6 132.001H1626.94V110.923H1596.14V228ZM1731.57 166.294C1762.91 166.294 1787.16 142.376 1787.16 111.25C1787.16 80.1244 1762.91 56.2066 1731.57 56.2066C1700.22 56.2066 1675.98 80.2336 1675.98 111.25C1675.98 142.376 1700.33 166.294 1731.57 166.294ZM1731.57 152.315C1708.63 152.315 1691.16 134.622 1691.16 111.25C1691.16 87.8786 1708.63 70.2952 1731.57 70.2952C1754.61 70.2952 1772.09 87.8786 1772.09 111.25C1772.09 134.622 1754.61 152.315 1731.57 152.315ZM1723.27 135.823V118.568H1730.47L1741.51 135.823H1757.67L1744.34 116.602C1750.9 114.854 1755.05 109.066 1755.05 101.421C1755.05 91.8103 1747.51 85.2575 1736.26 85.2575H1709.83V135.823H1723.27ZM1723.27 95.9604H1733.42C1738.23 95.9604 1740.85 98.1447 1740.85 102.295C1740.85 106.445 1738.01 108.738 1733.21 108.738H1723.27V95.9604Z" fill="#E3E3E3"/>
<path d="M405.396 348L428.289 279.887H412.76L397.183 333.32H396.853L381.276 279.887H365.322L388.215 348H405.396ZM433.576 348H447.359V297.399H433.576V348ZM440.467 291.829C444.621 291.829 447.831 288.667 447.831 284.702C447.831 280.69 444.621 277.574 440.467 277.574C436.314 277.574 433.104 280.69 433.104 284.702C433.104 288.667 436.314 291.829 440.467 291.829ZM502.822 297.399H488.425L477.946 335.822H477.663L467.137 297.399H452.362L469.874 348H485.451L502.822 297.399ZM525.951 338.843C521.278 338.843 518.162 336.483 518.162 332.707C518.162 329.119 521.089 326.806 526.234 326.429L536.901 325.768V329.45C536.901 334.925 531.945 338.843 525.951 338.843ZM521.419 348.802C527.744 348.802 534.022 345.64 536.854 340.259H537.137V348H550.448V313.212C550.448 303.016 541.999 296.314 529.019 296.314C515.613 296.314 507.259 303.064 506.739 312.882H519.342C520.003 309.153 523.26 306.604 528.405 306.604C533.597 306.604 536.901 309.341 536.901 314.062V317.413L524.157 318.168C511.554 318.923 504.474 324.257 504.474 333.462C504.474 342.572 511.79 348.802 521.419 348.802ZM624.509 316.233C623.895 304.763 615.21 296.314 601.521 296.314C586.369 296.314 576.693 306.415 576.693 322.652C576.693 339.173 586.369 349.086 601.616 349.086C614.927 349.086 623.848 341.392 624.556 329.45H611.717C610.867 334.972 607.28 338.276 601.757 338.276C594.913 338.276 590.665 332.612 590.665 322.652C590.665 312.882 594.913 307.123 601.71 307.123C607.374 307.123 610.914 310.899 611.717 316.233H624.509ZM654.435 349.086C669.728 349.086 679.499 339.315 679.499 322.652C679.499 306.226 669.587 296.314 654.435 296.314C639.283 296.314 629.37 306.273 629.37 322.652C629.37 339.268 639.141 349.086 654.435 349.086ZM654.435 338.56C647.638 338.56 643.342 332.848 643.342 322.7C643.342 312.646 647.732 306.84 654.435 306.84C661.138 306.84 665.48 312.646 665.48 322.7C665.48 332.848 661.185 338.56 654.435 338.56ZM686.627 348H700.41V317.46C700.41 311.796 703.95 307.831 709.189 307.831C714.287 307.831 717.355 311.041 717.355 316.469V348H730.619V317.271C730.619 311.654 734.065 307.831 739.304 307.831C744.638 307.831 747.565 311.041 747.565 316.894V348H761.348V313.448C761.348 303.252 754.692 296.455 744.78 296.455C737.369 296.455 731.327 300.467 729.061 306.84H728.778C727.079 300.231 721.981 296.455 714.665 296.455C707.773 296.455 702.345 300.467 700.221 306.557H699.938V297.399H686.627V348ZM793.304 349.086C808.597 349.086 818.368 339.315 818.368 322.652C818.368 306.226 808.455 296.314 793.304 296.314C778.152 296.314 768.239 306.273 768.239 322.652C768.239 339.268 778.01 349.086 793.304 349.086ZM793.304 338.56C786.506 338.56 782.211 332.848 782.211 322.7C782.211 312.646 786.601 306.84 793.304 306.84C800.006 306.84 804.349 312.646 804.349 322.7C804.349 332.848 800.053 338.56 793.304 338.56ZM891.39 297.399H877.607V326.381C877.607 333.084 873.783 337.474 867.647 337.474C861.558 337.474 858.206 333.887 858.206 327.137V297.399H844.423V330.016C844.423 341.817 851.693 348.944 862.643 348.944C870.29 348.944 875.294 345.262 877.795 338.89H878.079V348H891.39V297.399ZM900.358 348H914.141V317.46C914.141 311.796 917.681 307.831 922.921 307.831C928.018 307.831 931.087 311.041 931.087 316.469V348H944.35V317.271C944.35 311.654 947.796 307.831 953.036 307.831C958.369 307.831 961.296 311.041 961.296 316.894V348H975.079V313.448C975.079 303.252 968.423 296.455 958.511 296.455C951.1 296.455 945.058 300.467 942.793 306.84H942.51C940.81 300.231 935.712 296.455 928.396 296.455C921.505 296.455 916.076 300.467 913.952 306.557H913.669V297.399H900.358V348ZM1004.16 279.887V348H1018.41V326.523H1031.16C1045.5 326.523 1055.46 317.177 1055.46 303.205C1055.46 289.186 1045.84 279.887 1031.86 279.887H1004.16ZM1018.41 291.169H1028.09C1036.25 291.169 1040.97 295.511 1040.97 303.252C1040.97 311.041 1036.21 315.383 1028.04 315.383H1018.41V291.169ZM1062.73 348H1076.52V319.726C1076.52 312.598 1080.48 308.445 1087.28 308.445C1089.26 308.445 1091.15 308.775 1092.28 309.247V297.116C1091.34 296.833 1089.97 296.597 1088.36 296.597C1082.42 296.597 1078.12 300.09 1076.33 306.509H1076.04V297.399H1062.73V348ZM1119.47 349.086C1134.76 349.086 1144.53 339.315 1144.53 322.652C1144.53 306.226 1134.62 296.314 1119.47 296.314C1104.32 296.314 1094.41 306.273 1094.41 322.652C1094.41 339.268 1104.18 349.086 1119.47 349.086ZM1119.47 338.56C1112.67 338.56 1108.38 332.848 1108.38 322.7C1108.38 312.646 1112.77 306.84 1119.47 306.84C1126.17 306.84 1130.52 312.646 1130.52 322.7C1130.52 332.848 1126.22 338.56 1119.47 338.56ZM1159.21 348.566C1163.42 348.566 1166.81 345.168 1166.81 340.967C1166.81 336.719 1163.42 333.367 1159.21 333.367C1154.97 333.367 1151.62 336.719 1151.62 340.967C1151.62 345.168 1154.97 348.566 1159.21 348.566Z" fill="#B6B6B6"/>
<g filter="url(#filter0_d_436_2)">
<path d="M258.787 59.6431C244.281 15.4002 175.423 17.1032 162.348 59.6431H150.951C169.016 0.917099 255.024 5.36187 270.184 59.6431H258.787Z" fill="#D8D8D8"/>
<rect x="85.6523" y="59.6431" width="249.822" height="231.842" rx="33.1203" fill="url(#paint0_linear_436_2)"/>
<rect x="17.5215" y="135.157" width="249.822" height="231.842" rx="33.1203" fill="#D8D8D8"/>
<path d="M190.652 176.227C176.146 250.886 107.288 248.013 94.2137 176.227H82.8164C100.881 275.327 186.889 267.826 202.05 176.227H190.652Z" fill="#7884A4"/>
</g>
<circle cx="88" cy="176" r="9" fill="#7884A4"/>
<circle cx="196" cy="176" r="9" fill="#7884A4"/>
</g>
<defs>
<filter id="filter0_d_436_2" x="-0.478516" y="-2.75098" width="363.953" height="395.75" filterUnits="userSpaceOnUse" color-interpolation-filters="sRGB">
<feFlood flood-opacity="0" result="BackgroundImageFix"/>
<feColorMatrix in="SourceAlpha" type="matrix" values="0 0 0 0 0 0 0 0 0 0 0 0 0 0 0 0 0 0 127 0" result="hardAlpha"/>
<feOffset dx="5" dy="3"/>
<feGaussianBlur stdDeviation="11.5"/>
<feComposite in2="hardAlpha" operator="out"/>
<feColorMatrix type="matrix" values="0 0 0 0 0 0 0 0 0 0 0 0 0 0 0 0 0 0 0.25 0"/>
<feBlend mode="normal" in2="BackgroundImageFix" result="effect1_dropShadow_436_2"/>
<feBlend mode="normal" in="SourceGraphic" in2="effect1_dropShadow_436_2" result="shape"/>
</filter>
<linearGradient id="paint0_linear_436_2" x1="210.563" y1="59.6431" x2="210.563" y2="291.485" gradientUnits="userSpaceOnUse">
<stop stop-color="#00ADEF"/>
<stop offset="1" stop-color="#007EAE"/>
</linearGradient>
<clipPath id="clip0_436_2">
<rect width="1810" height="385" fill="white"/>
</clipPath>
</defs>
</svg>
