<svg width="1698" height="400" viewBox="0 0 1698 400" fill="none" xmlns="http://www.w3.org/2000/svg">
<path d="M274.862 104.818C256.886 11.083 171.559 14.6911 155.358 104.818H141.234C163.62 -19.6014 270.198 -10.1846 288.985 104.818H274.862Z" fill="white"/>
<rect x="61" y="97.4727" width="309.573" height="287.293" rx="29.9392" fill="#0B58FF"/>
<path d="M324.434 212.752V305.281H290.012V216.857C290.012 205.909 288.012 197.804 284.012 192.54C280.222 187.067 274.222 184.33 266.011 184.33C260.116 184.33 254.958 185.593 250.537 188.119C246.326 190.646 242.957 194.33 240.431 199.172C238.115 204.015 236.957 209.91 236.957 216.857V305.281H202.851V216.857C202.851 205.909 200.851 197.804 196.851 192.54C193.061 187.067 186.956 184.33 178.534 184.33C172.85 184.33 167.797 185.593 163.376 188.119C159.165 190.646 155.797 194.33 153.27 199.172C150.954 204.015 149.796 209.91 149.796 216.857V305.281H116.321V160.013H149.796V181.172C154.218 173.171 159.797 167.171 166.534 163.171C173.271 158.96 181.376 156.855 190.85 156.855C201.377 156.855 210.114 159.066 217.062 163.487C224.22 167.908 229.378 174.329 232.536 182.751C237.799 174.119 244.221 167.698 251.8 163.487C259.59 159.066 268.327 156.855 278.011 156.855C288.538 156.855 297.17 159.066 303.907 163.487C310.644 167.698 315.697 174.014 319.065 182.435C322.644 190.856 324.434 200.962 324.434 212.752ZM376.509 260.122C376.509 264.964 377.667 269.175 379.983 272.754C382.299 276.122 385.457 278.649 389.457 280.333C393.667 282.017 398.404 282.859 403.668 282.859C410.615 282.859 416.826 281.491 422.3 278.754C427.984 275.807 432.511 271.701 435.879 266.438C439.248 261.174 440.932 254.858 440.932 247.49L445.985 266.438C445.985 275.701 443.248 283.491 437.774 289.807C432.511 296.123 425.774 300.86 417.563 304.018C409.563 306.966 401.352 308.439 392.931 308.439C383.878 308.439 375.456 306.65 367.667 303.071C359.877 299.492 353.666 294.228 349.034 287.281C344.403 280.333 342.087 271.912 342.087 262.017C342.087 247.911 347.034 236.753 356.929 228.542C366.824 220.12 380.825 215.91 398.931 215.91C408.615 215.91 416.931 216.962 423.879 219.068C431.037 221.173 436.932 223.699 441.564 226.647C446.196 229.384 449.459 231.91 451.354 234.226V251.595C444.827 246.963 437.88 243.595 430.511 241.49C423.142 239.384 415.352 238.332 407.142 238.332C399.983 238.332 394.194 239.279 389.773 241.174C385.351 242.858 381.983 245.279 379.667 248.437C377.562 251.595 376.509 255.49 376.509 260.122ZM365.772 197.909L351.877 173.908C358.614 169.908 367.14 166.013 377.456 162.224C387.773 158.434 399.773 156.539 413.458 156.539C425.248 156.539 435.774 158.329 445.038 161.908C454.301 165.276 461.459 170.329 466.512 177.066C471.775 183.803 474.407 192.014 474.407 201.699V305.281H440.932V208.331C440.932 203.699 440.195 199.909 438.722 196.962C437.248 194.014 435.037 191.593 432.09 189.698C429.353 187.803 426.09 186.435 422.3 185.593C418.51 184.751 414.405 184.33 409.984 184.33C403.247 184.33 396.825 185.172 390.72 186.856C384.825 188.33 379.772 190.225 375.562 192.54C371.351 194.646 368.088 196.435 365.772 197.909ZM524.274 232.647C524.274 241.7 526.274 249.7 530.274 256.648C534.274 263.596 539.643 269.069 546.38 273.07C553.328 277.07 561.012 279.07 569.433 279.07C576.592 279.07 583.223 278.017 589.329 275.912C595.645 273.596 601.224 270.648 606.066 267.069C610.909 263.28 614.488 259.069 616.804 254.437V292.018C611.751 297.07 604.908 301.071 596.276 304.018C587.645 306.966 578.171 308.439 567.854 308.439C553.117 308.439 539.748 305.281 527.748 298.965C515.958 292.439 506.589 283.491 499.642 272.122C492.694 260.543 489.22 247.384 489.22 232.647C489.22 217.699 492.694 204.541 499.642 193.172C506.589 181.803 515.958 172.961 527.748 166.645C539.748 160.118 553.117 156.855 567.854 156.855C578.171 156.855 587.645 158.329 596.276 161.276C604.908 164.224 611.751 168.119 616.804 172.961V210.857C614.488 206.015 610.803 201.804 605.751 198.225C600.908 194.435 595.329 191.488 589.013 189.382C582.697 187.277 576.171 186.224 569.433 186.224C561.012 186.224 553.328 188.225 546.38 192.225C539.643 196.225 534.274 201.699 530.274 208.646C526.274 215.594 524.274 223.594 524.274 232.647ZM675.029 374.757H640.607V160.013H675.029V374.757ZM795.349 232.647C795.349 248.648 792.086 262.438 785.559 274.017C779.033 285.386 770.401 294.123 759.664 300.228C748.927 306.123 737.242 309.071 724.61 309.071C712.399 309.071 701.662 306.018 692.398 299.913C683.345 293.597 676.292 284.754 671.24 273.385C666.187 261.806 663.66 248.227 663.66 232.647C663.66 216.857 666.187 203.278 671.24 191.909C676.292 180.54 683.345 171.698 692.398 165.382C701.662 159.066 712.399 155.908 724.61 155.908C737.242 155.908 748.927 158.96 759.664 165.066C770.401 171.171 779.033 179.908 785.559 191.277C792.086 202.436 795.349 216.226 795.349 232.647ZM759.98 232.647C759.98 222.963 757.979 214.752 753.979 208.015C749.979 201.067 744.716 195.909 738.189 192.54C731.663 188.961 724.399 187.172 716.399 187.172C709.662 187.172 703.135 188.961 696.819 192.54C690.503 195.909 685.24 200.962 681.029 207.699C677.029 214.436 675.029 222.752 675.029 232.647C675.029 242.542 677.029 250.858 681.029 257.595C685.24 264.332 690.503 269.491 696.819 273.07C703.135 276.438 709.662 278.122 716.399 278.122C724.399 278.122 731.663 276.333 738.189 272.754C744.716 269.175 749.979 264.017 753.979 257.28C757.979 250.543 759.98 242.332 759.98 232.647ZM848.993 160.013V305.281H815.203V160.013H848.993ZM892.258 196.33C889.31 193.804 886.363 191.909 883.416 190.646C880.679 189.382 877.205 188.751 872.994 188.751C867.31 188.751 862.678 190.225 859.099 193.172C855.52 196.12 852.888 200.225 851.204 205.488C849.73 210.541 848.993 216.541 848.993 223.489L837.624 216.857C837.624 205.278 839.73 195.067 843.94 186.224C848.362 177.172 853.941 170.013 860.678 164.75C867.626 159.276 874.784 156.539 882.152 156.539C887.416 156.539 892.363 157.381 896.995 159.066C901.627 160.75 905.627 163.592 908.995 167.592L892.258 196.33ZM978.296 308.439C963.559 308.439 950.506 305.281 939.137 298.965C927.979 292.649 919.347 283.807 913.241 272.438C907.136 261.069 904.083 247.806 904.083 232.647C904.083 217.278 907.136 203.909 913.241 192.54C919.557 181.172 928.4 172.435 939.769 166.329C951.137 160.013 964.506 156.855 979.875 156.855C995.244 156.855 1008.3 159.803 1019.03 165.697C1029.98 171.592 1038.3 180.119 1043.98 191.277C1049.67 202.225 1052.51 215.489 1052.51 231.068C1052.51 232.752 1052.4 234.542 1052.19 236.437C1052.19 238.332 1052.19 239.7 1052.19 240.542H924.61V216.857H1022.82L1012.4 231.384C1013.03 230.121 1013.67 228.436 1014.3 226.331C1015.14 224.226 1015.56 222.436 1015.56 220.963C1015.56 213.173 1013.98 206.436 1010.82 200.751C1007.88 195.067 1003.67 190.646 998.192 187.488C992.928 184.33 986.718 182.751 979.56 182.751C970.928 182.751 963.559 184.645 957.454 188.435C951.559 192.225 946.927 197.699 943.558 204.857C940.4 212.015 938.821 220.857 938.821 231.384C938.611 241.7 940.084 250.543 943.242 257.911C946.611 265.28 951.348 270.859 957.454 274.649C963.559 278.438 971.033 280.333 979.875 280.333C989.349 280.333 997.56 278.438 1004.51 274.649C1011.46 270.859 1017.14 265.069 1021.56 257.28L1051.25 268.964C1043.46 282.017 1033.56 291.912 1021.56 298.649C1009.56 305.176 995.139 308.439 978.296 308.439ZM1280.85 212.752V305.281H1246.43V216.857C1246.43 205.909 1244.43 197.804 1240.43 192.54C1236.64 187.067 1230.64 184.33 1222.43 184.33C1216.53 184.33 1211.38 185.593 1206.96 188.119C1202.74 190.646 1199.38 194.33 1196.85 199.172C1194.53 204.015 1193.38 209.91 1193.38 216.857V305.281H1159.27V216.857C1159.27 205.909 1157.27 197.804 1153.27 192.54C1149.48 187.067 1143.37 184.33 1134.95 184.33C1129.27 184.33 1124.22 185.593 1119.79 188.119C1115.58 190.646 1112.22 194.33 1109.69 199.172C1107.37 204.015 1106.22 209.91 1106.22 216.857V305.281H1072.74V160.013H1106.22V181.172C1110.64 173.171 1116.22 167.171 1122.95 163.171C1129.69 158.96 1137.8 156.855 1147.27 156.855C1157.8 156.855 1166.53 159.066 1173.48 163.487C1180.64 167.908 1185.8 174.329 1188.95 182.751C1194.22 174.119 1200.64 167.698 1208.22 163.487C1216.01 159.066 1224.75 156.855 1234.43 156.855C1244.96 156.855 1253.59 159.066 1260.33 163.487C1267.06 167.698 1272.12 174.014 1275.48 182.435C1279.06 190.856 1280.85 200.962 1280.85 212.752ZM1310.19 102.222C1310.19 96.3266 1312.3 91.3791 1316.51 87.3789C1320.93 83.3788 1325.98 81.3787 1331.66 81.3787C1337.77 81.3787 1342.93 83.3788 1347.14 87.3789C1351.35 91.3791 1353.45 96.3266 1353.45 102.222C1353.45 107.906 1351.35 112.853 1347.14 117.064C1342.93 121.064 1337.77 123.064 1331.66 123.064C1325.98 123.064 1320.93 121.064 1316.51 117.064C1312.3 112.853 1310.19 107.906 1310.19 102.222ZM1314.93 160.013H1348.72V305.281H1314.93V160.013ZM1446.17 308.439C1431.44 308.439 1418.38 305.281 1407.02 298.965C1395.86 292.649 1387.23 283.807 1381.12 272.438C1375.01 261.069 1371.96 247.806 1371.96 232.647C1371.96 217.278 1375.01 203.909 1381.12 192.54C1387.44 181.172 1396.28 172.435 1407.65 166.329C1419.02 160.013 1432.38 156.855 1447.75 156.855C1463.12 156.855 1476.18 159.803 1486.91 165.697C1497.86 171.592 1506.18 180.119 1511.86 191.277C1517.55 202.225 1520.39 215.489 1520.39 231.068C1520.39 232.752 1520.28 234.542 1520.07 236.437C1520.07 238.332 1520.07 239.7 1520.07 240.542H1392.49V216.857H1490.7L1480.28 231.384C1480.91 230.121 1481.54 228.436 1482.18 226.331C1483.02 224.226 1483.44 222.436 1483.44 220.963C1483.44 213.173 1481.86 206.436 1478.7 200.751C1475.75 195.067 1471.54 190.646 1466.07 187.488C1460.81 184.33 1454.6 182.751 1447.44 182.751C1438.81 182.751 1431.44 184.645 1425.33 188.435C1419.44 192.225 1414.8 197.699 1411.44 204.857C1408.28 212.015 1406.7 220.857 1406.7 231.384C1406.49 241.7 1407.96 250.543 1411.12 257.911C1414.49 265.28 1419.23 270.859 1425.33 274.649C1431.44 278.438 1438.91 280.333 1447.75 280.333C1457.23 280.333 1465.44 278.438 1472.39 274.649C1479.33 270.859 1485.02 265.069 1489.44 257.28L1519.12 268.964C1511.33 282.017 1501.44 291.912 1489.44 298.649C1477.44 305.176 1463.02 308.439 1446.17 308.439ZM1574.41 160.013V305.281H1540.62V160.013H1574.41ZM1617.67 196.33C1614.73 193.804 1611.78 191.909 1608.83 190.646C1606.09 189.382 1602.62 188.751 1598.41 188.751C1592.73 188.751 1588.09 190.225 1584.51 193.172C1580.94 196.12 1578.3 200.225 1576.62 205.488C1575.15 210.541 1574.41 216.541 1574.41 223.489L1563.04 216.857C1563.04 205.278 1565.15 195.067 1569.36 186.224C1573.78 177.172 1579.36 170.013 1586.09 164.75C1593.04 159.276 1600.2 156.539 1607.57 156.539C1612.83 156.539 1617.78 157.381 1622.41 159.066C1627.04 160.75 1631.04 163.592 1634.41 167.592L1617.67 196.33Z" fill="white"/>
</svg>
