<svg width="1242" height="385" viewBox="0 0 1242 385" fill="none" xmlns="http://www.w3.org/2000/svg">
<g clip-path="url(#clip0_409_121)">
<rect width="1242" height="385" fill="#5170AA"/>
<path d="M540.812 209V56.8086H503.898L460.656 164.703H459.812L416.57 56.8086H379.656V209H408.027V106.273H408.871L450.215 207.523H470.254L511.598 106.273H512.441V209H540.812ZM595.981 188.539C585.54 188.539 578.579 183.266 578.579 174.828C578.579 166.812 585.118 161.645 596.614 160.801L620.45 159.324V167.551C620.45 179.785 609.376 188.539 595.981 188.539ZM585.856 210.793C599.989 210.793 614.016 203.727 620.344 191.703H620.977V209H650.719V131.27C650.719 108.488 631.84 93.5117 602.837 93.5117C572.883 93.5117 554.215 108.594 553.055 130.531H581.215C582.692 122.199 589.969 116.504 601.465 116.504C613.067 116.504 620.45 122.621 620.45 133.168V140.656L591.973 142.344C563.813 144.031 547.993 155.949 547.993 176.516C547.993 196.871 564.34 210.793 585.856 210.793ZM764.74 138.02C763.368 112.391 743.962 93.5117 713.376 93.5117C679.521 93.5117 657.9 116.082 657.9 152.363C657.9 189.277 679.521 211.426 713.587 211.426C743.329 211.426 763.263 194.234 764.845 167.551H736.158C734.259 179.891 726.243 187.273 713.904 187.273C698.611 187.273 689.118 174.617 689.118 152.363C689.118 130.531 698.611 117.664 713.798 117.664C726.454 117.664 734.365 126.102 736.158 138.02H764.74ZM379.656 213.809V366H411.508V318.012H439.984C472.047 318.012 494.301 297.129 494.301 265.91C494.301 234.586 472.785 213.809 441.566 213.809H379.656ZM411.508 239.016H433.129C451.375 239.016 461.922 248.719 461.922 266.016C461.922 283.418 451.27 293.121 433.023 293.121H411.508V239.016ZM501.903 366H532.7V302.824C532.7 286.898 541.559 277.617 556.747 277.617C561.176 277.617 565.395 278.355 567.926 279.41V252.305C565.817 251.672 562.758 251.145 559.173 251.145C545.883 251.145 536.286 258.949 532.278 273.293H531.645V252.938H501.903V366ZM618.876 273.293C632.587 273.293 641.974 283.207 642.607 297.656H594.618C595.673 283.523 605.376 273.293 618.876 273.293ZM643.029 331.406C640.181 340.055 631.533 345.645 620.247 345.645C604.533 345.645 594.302 334.57 594.302 318.434V316.535H672.243V307.148C672.243 272.766 651.466 250.512 618.56 250.512C585.126 250.512 564.033 273.926 564.033 309.996C564.033 346.172 584.915 368.426 619.72 368.426C647.669 368.426 667.919 353.555 671.294 331.406H643.029ZM679.529 366H710.326V297.762C710.326 285.105 718.236 276.246 729.943 276.246C741.334 276.246 748.189 283.418 748.189 295.547V366H777.826V297.34C777.826 284.789 785.525 276.246 797.232 276.246C809.15 276.246 815.689 283.418 815.689 296.496V366H846.486V288.797C846.486 266.016 831.615 250.828 809.467 250.828C792.908 250.828 779.408 259.793 774.346 274.031H773.713C769.916 259.266 758.525 250.828 742.178 250.828C726.779 250.828 714.65 259.793 709.904 273.398H709.271V252.938H679.529V366ZM857.885 366H888.682V252.938H857.885V366ZM873.284 240.492C882.565 240.492 889.737 233.426 889.737 224.566C889.737 215.602 882.565 208.641 873.284 208.641C864.003 208.641 856.831 215.602 856.831 224.566C856.831 233.426 864.003 240.492 873.284 240.492ZM951.339 273.293C965.05 273.293 974.437 283.207 975.07 297.656H927.081C928.136 283.523 937.839 273.293 951.339 273.293ZM975.491 331.406C972.644 340.055 963.995 345.645 952.71 345.645C936.995 345.645 926.765 334.57 926.765 318.434V316.535H1004.71V307.148C1004.71 272.766 983.929 250.512 951.023 250.512C917.589 250.512 896.495 273.926 896.495 309.996C896.495 346.172 917.378 368.426 952.183 368.426C980.132 368.426 1000.38 353.555 1003.76 331.406H975.491ZM1011.99 366H1042.79V302.824C1042.79 286.898 1051.65 277.617 1066.84 277.617C1071.27 277.617 1075.48 278.355 1078.02 279.41V252.305C1075.91 251.672 1072.85 251.145 1069.26 251.145C1055.97 251.145 1046.37 258.949 1042.37 273.293H1041.73V252.938H1011.99V366ZM1158.71 297.023H1136.03L1135.82 283.102H1155.23C1158.46 283.102 1161.45 282.645 1164.19 281.73C1166.93 280.746 1169.15 279.34 1170.84 277.512C1172.52 275.684 1173.37 273.434 1173.37 270.762C1173.37 267.246 1172.77 264.504 1171.57 262.535C1170.45 260.566 1168.52 259.125 1165.77 258.211C1163.03 257.297 1159.34 256.84 1154.7 256.84H1140.78V332.672H1125.27V243.023H1154.7C1161.66 243.023 1167.71 244.078 1172.84 246.188C1177.97 248.227 1181.91 251.285 1184.65 255.363C1187.47 259.441 1188.87 264.504 1188.87 270.551C1188.87 274.348 1187.96 277.723 1186.13 280.676C1184.37 283.629 1181.81 286.16 1178.43 288.27C1175.06 290.379 1170.87 292.102 1165.88 293.438C1165.67 293.438 1165.42 293.684 1165.14 294.176C1164.93 294.598 1164.72 294.809 1164.51 294.809C1163.31 295.512 1162.54 296.039 1162.19 296.391C1161.91 296.672 1161.59 296.848 1161.24 296.918C1160.96 296.988 1160.11 297.023 1158.71 297.023ZM1157.65 297.023L1159.87 285.738C1170.84 285.738 1178.32 288.199 1182.33 293.121C1186.41 298.043 1188.45 304.23 1188.45 311.684V317.59C1188.45 320.191 1188.59 322.688 1188.87 325.078C1189.15 327.398 1189.61 329.367 1190.24 330.984V332.672H1174.32C1173.61 330.844 1173.19 328.242 1173.05 324.867C1172.98 321.492 1172.95 319.031 1172.95 317.484V311.789C1172.95 306.797 1171.79 303.105 1169.47 300.715C1167.15 298.254 1163.21 297.023 1157.65 297.023ZM1093.84 289.113C1093.84 298.395 1095.46 307.043 1098.7 315.059C1101.93 323.074 1106.4 330.105 1112.09 336.152C1117.79 342.129 1124.4 346.805 1131.92 350.18C1139.44 353.484 1147.53 355.137 1156.18 355.137C1164.75 355.137 1172.77 353.484 1180.22 350.18C1187.75 346.805 1194.36 342.129 1200.05 336.152C1205.75 330.105 1210.21 323.074 1213.45 315.059C1216.68 307.043 1218.3 298.395 1218.3 289.113C1218.3 279.762 1216.68 271.113 1213.45 263.168C1210.21 255.152 1205.75 248.156 1200.05 242.18C1194.36 236.203 1187.75 231.562 1180.22 228.258C1172.77 224.953 1164.75 223.301 1156.18 223.301C1147.53 223.301 1139.44 224.953 1131.92 228.258C1124.4 231.562 1117.79 236.203 1112.09 242.18C1106.4 248.156 1101.93 255.152 1098.7 263.168C1095.46 271.113 1093.84 279.762 1093.84 289.113ZM1081.29 289.113C1081.29 277.934 1083.23 267.562 1087.09 258C1090.96 248.438 1096.34 240.105 1103.23 233.004C1110.12 225.832 1118.07 220.277 1127.07 216.34C1136.14 212.332 1145.84 210.328 1156.18 210.328C1166.51 210.328 1176.18 212.332 1185.18 216.34C1194.25 220.277 1202.2 225.832 1209.02 233.004C1215.91 240.105 1221.29 248.438 1225.15 258C1229.02 267.562 1230.95 277.934 1230.95 289.113C1230.95 300.293 1229.02 310.664 1225.15 320.227C1221.29 329.789 1215.91 338.156 1209.02 345.328C1202.2 352.5 1194.25 358.09 1185.18 362.098C1176.18 366.105 1166.51 368.109 1156.18 368.109C1145.84 368.109 1136.14 366.105 1127.07 362.098C1118.07 358.09 1110.12 352.5 1103.23 345.328C1096.34 338.156 1090.96 329.789 1087.09 320.227C1083.23 310.664 1081.29 300.293 1081.29 289.113Z" fill="#E3E3E3"/>
<g filter="url(#filter0_d_409_121)">
<rect x="86" y="57" width="249.822" height="231.842" rx="33.1203" fill="url(#paint0_linear_409_121)"/>
<rect x="18" y="133.908" width="249.822" height="231.842" rx="33.1203" fill="url(#paint1_linear_409_121)"/>
<path d="M191.104 176.751C176.625 247.716 107.902 244.985 94.8535 176.751H83.4785C101.508 270.947 187.347 263.818 202.479 176.751H191.104Z" fill="#7884A4"/>
<path d="M258.836 63.394C244.329 19.1512 175.471 20.8542 162.397 63.394H151C169.065 4.66808 255.072 9.11285 270.233 63.394H258.836Z" fill="#D8D8D8"/>
</g>
<circle cx="89" cy="175" r="9" fill="#7884A4"/>
<circle cx="196" cy="175" r="9" fill="#7884A4"/>
</g>
<defs>
<filter id="filter0_d_409_121" x="17" y="18" width="329.822" height="356.75" filterUnits="userSpaceOnUse" color-interpolation-filters="sRGB">
<feFlood flood-opacity="0" result="BackgroundImageFix"/>
<feColorMatrix in="SourceAlpha" type="matrix" values="0 0 0 0 0 0 0 0 0 0 0 0 0 0 0 0 0 0 127 0" result="hardAlpha"/>
<feOffset dx="5" dy="3"/>
<feGaussianBlur stdDeviation="3"/>
<feComposite in2="hardAlpha" operator="out"/>
<feColorMatrix type="matrix" values="0 0 0 0 0 0 0 0 0 0 0 0 0 0 0 0 0 0 0.25 0"/>
<feBlend mode="normal" in2="BackgroundImageFix" result="effect1_dropShadow_409_121"/>
<feBlend mode="normal" in="SourceGraphic" in2="effect1_dropShadow_409_121" result="shape"/>
</filter>
<linearGradient id="paint0_linear_409_121" x1="210.911" y1="57" x2="210.911" y2="288.842" gradientUnits="userSpaceOnUse">
<stop stop-color="#00ADEF"/>
<stop offset="1" stop-color="#007EAE"/>
</linearGradient>
<linearGradient id="paint1_linear_409_121" x1="142.911" y1="133.908" x2="142.911" y2="365.751" gradientUnits="userSpaceOnUse">
<stop stop-color="#D8D8D8"/>
<stop offset="1" stop-color="#CFCFCF"/>
</linearGradient>
<clipPath id="clip0_409_121">
<rect width="1242" height="385" fill="white"/>
</clipPath>
</defs>
</svg>
