<svg width="1287" height="385" viewBox="0 0 1287 385" fill="none" xmlns="http://www.w3.org/2000/svg">
<g clip-path="url(#clip0_683_420)">
<path d="M445.264 58.8H478.312L528.424 156.216L578.104 58.8H611.152V210H584.584V101.568L537.496 194.448H518.92L471.616 101.568V210H445.264V58.8ZM706.932 210V195.96C702.9 201 697.716 204.816 691.38 207.408C685.044 210 677.772 211.296 669.564 211.296C661.5 211.296 654.372 209.784 648.18 206.76C642.132 203.592 637.452 199.272 634.14 193.8C630.828 188.328 629.172 182.208 629.172 175.44C629.172 164.64 632.988 156.216 640.62 150.168C648.252 143.976 659.052 140.808 673.02 140.664H706.716V137.64C706.716 130.872 704.484 125.616 700.02 121.872C695.556 118.128 689.076 116.256 680.58 116.256C669.636 116.256 658.188 119.856 646.236 127.056L636.084 107.616C645.156 102.576 653.364 98.976 660.708 96.816C668.196 94.512 676.908 93.36 686.844 93.36C701.82 93.36 713.412 96.96 721.62 104.16C729.972 111.36 734.22 121.44 734.364 134.4L734.58 210H706.932ZM676.26 189.696C684.324 189.696 691.236 187.824 696.996 184.08C702.756 180.192 705.996 175.44 706.716 169.824V159.456H677.556C670.068 159.456 664.524 160.608 660.924 162.912C657.468 165.072 655.74 168.672 655.74 173.712C655.74 178.608 657.54 182.496 661.14 185.376C664.884 188.256 669.924 189.696 676.26 189.696ZM836.931 130.944C829.155 122.448 819.075 118.2 806.691 118.2C797.331 118.2 789.699 121.368 783.795 127.704C778.035 134.04 775.155 142.248 775.155 152.328C775.155 162.696 778.035 171.048 783.795 177.384C789.699 183.72 797.331 186.888 806.691 186.888C820.515 186.888 830.883 182.352 837.795 173.28L855.291 187.752C850.107 195.24 843.267 201 834.771 205.032C826.275 209.064 816.411 211.08 805.179 211.08C793.803 211.08 783.651 208.632 774.723 203.736C765.939 198.84 759.099 192 754.203 183.216C749.307 174.288 746.859 164.064 746.859 152.544C746.859 140.88 749.307 130.584 754.203 121.656C759.243 112.728 766.155 105.816 774.939 100.92C783.867 96.024 794.091 93.576 805.611 93.576C816.123 93.576 825.483 95.448 833.691 99.192C842.043 102.792 848.811 107.976 853.995 114.744L836.931 130.944ZM507.256 215.8C526.264 215.8 540.952 220.336 551.32 229.408C561.832 238.48 567.088 251.296 567.088 267.856C567.088 285.136 561.832 298.6 551.32 308.248C540.952 317.752 526.264 322.504 507.256 322.504H474.208V367H445.264V215.8H507.256ZM505.744 297.016C516.688 297.016 525.04 294.64 530.8 289.888C536.704 285.136 539.656 278.08 539.656 268.72C539.656 259.504 536.704 252.592 530.8 247.984C525.04 243.376 516.688 241.072 505.744 241.072H474.208V297.016H505.744ZM609.381 273.688C613.269 266.2 618.525 260.512 625.149 256.624C631.917 252.592 639.765 250.504 648.693 250.36V277.576C636.741 276.856 627.165 279.664 619.965 286C612.909 292.192 609.381 300.616 609.381 311.272V367H581.301V251.44H609.381V273.688ZM707.947 250.576C726.379 250.576 740.203 255.832 749.419 266.344C758.779 276.856 763.459 291.616 763.459 310.624C763.459 314.368 763.387 317.176 763.243 319.048H677.923C679.795 327.256 683.611 333.736 689.371 338.488C695.275 343.096 702.475 345.4 710.971 345.4C716.875 345.4 722.491 344.32 727.819 342.16C733.291 339.856 738.043 336.616 742.075 332.44L757.195 348.208C751.435 354.544 744.379 359.44 736.027 362.896C727.819 366.352 718.675 368.08 708.595 368.08C696.787 368.08 686.347 365.632 677.275 360.736C668.347 355.84 661.435 349 656.539 340.216C651.643 331.288 649.195 321.064 649.195 309.544C649.195 298.024 651.643 287.8 656.539 278.872C661.579 269.944 668.563 263.032 677.491 258.136C686.419 253.096 696.571 250.576 707.947 250.576ZM737.755 300.256C737.467 291.76 734.659 284.992 729.331 279.952C724.003 274.912 716.947 272.392 708.163 272.392C699.955 272.392 693.043 274.912 687.427 279.952C681.955 284.848 678.571 291.616 677.275 300.256H737.755ZM930.383 250.36C943.487 250.36 953.783 254.392 961.271 262.456C968.759 270.376 972.503 281.176 972.503 294.856V367H944.207V303.064C944.207 294.856 941.903 288.448 937.295 283.84C932.831 279.088 926.711 276.712 918.935 276.712C910.007 277 902.879 280.24 897.551 286.432C892.367 292.624 889.775 300.472 889.775 309.976V367H861.479V303.064C861.479 294.856 859.247 288.448 854.783 283.84C850.319 279.088 844.199 276.712 836.423 276.712C827.351 277 820.151 280.24 814.823 286.432C809.639 292.624 807.047 300.472 807.047 309.976V367H778.967V251.44H807.047V272.824C814.679 258.136 828.215 250.648 847.655 250.36C857.735 250.36 866.159 252.808 872.927 257.704C879.839 262.456 884.663 269.224 887.399 278.008C894.743 259.864 909.071 250.648 930.383 250.36ZM995.186 251.44H1023.27V367H995.186V251.44ZM1009.01 201.76C1013.62 201.76 1017.43 203.344 1020.46 206.512C1023.48 209.68 1024.99 213.712 1024.99 218.608C1024.99 223.36 1023.48 227.32 1020.46 230.488C1017.43 233.656 1013.62 235.24 1009.01 235.24C1004.4 235.24 1000.59 233.656 997.562 230.488C994.538 227.32 993.026 223.36 993.026 218.608C993.026 213.712 994.538 209.68 997.562 206.512C1000.59 203.344 1004.4 201.76 1009.01 201.76ZM1097.57 250.576C1116.01 250.576 1129.83 255.832 1139.05 266.344C1148.41 276.856 1153.09 291.616 1153.09 310.624C1153.09 314.368 1153.01 317.176 1152.87 319.048H1067.55C1069.42 327.256 1073.24 333.736 1079 338.488C1084.9 343.096 1092.1 345.4 1100.6 345.4C1106.5 345.4 1112.12 344.32 1117.45 342.16C1122.92 339.856 1127.67 336.616 1131.7 332.44L1146.82 348.208C1141.06 354.544 1134.01 359.44 1125.65 362.896C1117.45 366.352 1108.3 368.08 1098.22 368.08C1086.41 368.08 1075.97 365.632 1066.9 360.736C1057.97 355.84 1051.06 349 1046.17 340.216C1041.27 331.288 1038.82 321.064 1038.82 309.544C1038.82 298.024 1041.27 287.8 1046.17 278.872C1051.21 269.944 1058.19 263.032 1067.12 258.136C1076.05 253.096 1086.2 250.576 1097.57 250.576ZM1127.38 300.256C1127.09 291.76 1124.29 284.992 1118.96 279.952C1113.63 274.912 1106.57 272.392 1097.79 272.392C1089.58 272.392 1082.67 274.912 1077.05 279.952C1071.58 284.848 1068.2 291.616 1066.9 300.256H1127.38ZM1196.67 273.688C1200.56 266.2 1205.82 260.512 1212.44 256.624C1219.21 252.592 1227.06 250.504 1235.99 250.36V277.576C1224.03 276.856 1214.46 279.664 1207.26 286C1200.2 292.192 1196.67 300.616 1196.67 311.272V367H1168.59V251.44H1196.67V273.688Z" fill="#E3E3E3"/>
<g filter="url(#filter0_d_683_420)">
<path d="M305.19 59.5577C290.627 15.144 221.503 16.8536 208.379 59.5577H196.938C215.072 0.605003 301.412 5.06694 316.631 59.5577H305.19Z" fill="#D8D8D8"/>
<rect x="131.395" y="59.5586" width="250.787" height="232.738" rx="33.2482" fill="url(#paint0_linear_683_420)"/>
<rect x="63" y="135.364" width="250.787" height="232.738" rx="33.2482" fill="#D8D8D8"/>
<path d="M236.799 176.592C222.237 251.54 153.113 248.655 139.988 176.592H128.547C146.682 276.075 233.021 268.545 248.241 176.592H236.799Z" fill="#4F4F4F"/>
</g>
<circle cx="134.682" cy="173.359" r="10.725" fill="#4F4F4F"/>
<circle cx="240.803" cy="173.359" r="10.725" fill="#4F4F4F"/>
</g>
<defs>
<filter id="filter0_d_683_420" x="44.9305" y="-3.07724" width="365.357" height="397.279" filterUnits="userSpaceOnUse" color-interpolation-filters="sRGB">
<feFlood flood-opacity="0" result="BackgroundImageFix"/>
<feColorMatrix in="SourceAlpha" type="matrix" values="0 0 0 0 0 0 0 0 0 0 0 0 0 0 0 0 0 0 127 0" result="hardAlpha"/>
<feOffset dx="5.01931" dy="3.01159"/>
<feGaussianBlur stdDeviation="11.5444"/>
<feComposite in2="hardAlpha" operator="out"/>
<feColorMatrix type="matrix" values="0 0 0 0 0 0 0 0 0 0 0 0 0 0 0 0 0 0 0.25 0"/>
<feBlend mode="normal" in2="BackgroundImageFix" result="effect1_dropShadow_683_420"/>
<feBlend mode="normal" in="SourceGraphic" in2="effect1_dropShadow_683_420" result="shape"/>
</filter>
<linearGradient id="paint0_linear_683_420" x1="256.788" y1="59.5586" x2="256.788" y2="292.296" gradientUnits="userSpaceOnUse">
<stop stop-color="#00ADEF"/>
<stop offset="1" stop-color="#007EAE"/>
</linearGradient>
<clipPath id="clip0_683_420">
<rect width="1287" height="385" fill="white"/>
</clipPath>
</defs>
</svg>
