<svg width="561" height="139" viewBox="0 0 561 139" fill="none" xmlns="http://www.w3.org/2000/svg">
<g filter="url(#filter0_d_679_290)">
<path d="M98.339 27.6568C93.718 13.5634 71.7836 14.1059 67.6188 27.6568H63.9883C69.7428 8.94987 97.1402 10.3657 101.97 27.6568H98.339Z" fill="#D8D8D8" style="fill:#D8D8D8;fill:color(display-p3 0.8458 0.8458 0.8458);fill-opacity:1;"/>
<rect x="43.1875" y="27.6562" width="79.5798" height="73.8525" rx="10.5504" fill="url(#paint0_linear_679_290)" style=""/>
<rect x="21.4844" y="51.7109" width="79.5798" height="73.8525" rx="10.5504" fill="#D8D8D8" style="fill:#D8D8D8;fill:color(display-p3 0.8458 0.8458 0.8458);fill-opacity:1;"/>
<path d="M76.6359 64.7942C72.0149 88.5768 50.0804 87.6614 45.9157 64.7942H42.2852C48.0397 96.3622 75.437 93.9729 80.2664 64.7942H76.6359Z" fill="#4F4F4F" style="fill:#4F4F4F;fill:color(display-p3 0.3084 0.3084 0.3084);fill-opacity:1;"/>
</g>
<path d="M144.407 75.7656V40.2913H154.243V45.7176C156.006 42.394 159.805 39.4773 165.095 39.4773C169.775 39.4773 173.302 41.4444 174.998 45.6497C177.847 41.3765 182.459 39.4773 186.936 39.4773C193.515 39.4773 198.602 43.6149 198.602 53.0431V75.7656H188.835V54.1283C188.835 49.5838 186.8 47.5489 183.273 47.5489C179.475 47.5489 176.423 49.9908 176.423 54.8066V75.7656H166.655V54.1283C166.655 49.5838 164.553 47.5489 161.093 47.5489C157.295 47.5489 154.243 49.9908 154.243 54.8066V75.7656H144.407ZM216.567 76.5117C210.123 76.5117 204.697 73.3916 204.697 65.9305C204.697 57.6554 212.294 54.5353 223.146 54.5353H227.148V53.1109C227.148 48.9055 225.859 46.5993 221.383 46.5993C217.517 46.5993 215.753 48.5664 215.346 51.6187H206.054C206.664 43.2079 213.311 39.4773 221.993 39.4773C230.675 39.4773 236.848 43.0044 236.848 52.6361V75.7656H227.284V71.4924C225.249 74.3412 222.129 76.5117 216.567 76.5117ZM219.484 69.6611C223.825 69.6611 227.148 67.2871 227.148 63.353V60.3685H223.35C217.652 60.3685 214.329 61.5895 214.329 65.3879C214.329 67.9653 215.889 69.6611 219.484 69.6611ZM261.365 76.5117C250.987 76.5117 243.119 70.068 243.119 58.4693V57.9267C243.119 46.4637 251.326 39.4773 261.432 39.4773C269.64 39.4773 277.236 43.0723 278.118 53.2465H268.826C268.147 49.109 265.638 47.2098 261.636 47.2098C256.549 47.2098 253.157 51.0082 253.157 57.7911V58.3337C253.157 65.4557 256.345 69.1184 261.839 69.1184C265.773 69.1184 268.961 66.8123 269.436 62.2677H278.322C277.779 70.6785 271.674 76.5117 261.365 76.5117ZM284.503 87.8391V40.2913H294.338V45.8532C296.305 42.4618 300.442 39.4773 305.665 39.4773C314.347 39.4773 321.13 45.9211 321.13 57.6554V58.198C321.13 69.9324 314.483 76.5117 305.665 76.5117C300.171 76.5117 296.169 73.7986 294.338 70.3393V87.8391H284.503ZM302.748 68.8471C308.175 68.8471 311.159 65.1844 311.159 58.2659V57.7232C311.159 50.5334 307.632 47.0063 302.681 47.0063C297.526 47.0063 293.999 50.6012 293.999 57.7232V58.2659C293.999 65.3879 297.39 68.8471 302.748 68.8471ZM327.69 75.7656V40.2913H337.525V47.0741C339.764 42.3261 343.223 39.8165 348.988 39.7487V48.9055C341.731 48.8377 337.525 51.2117 337.525 57.9945V75.7656H327.69ZM371.129 76.5117C360.412 76.5117 352.611 69.7967 352.611 58.4693V57.9267C352.611 46.735 360.547 39.4773 370.857 39.4773C380.014 39.4773 388.154 44.8358 388.154 57.5197V60.2329H362.582C362.854 66.134 366.041 69.5254 371.4 69.5254C375.944 69.5254 378.183 67.5584 378.793 64.5739H388.086C386.933 72.2385 380.828 76.5117 371.129 76.5117ZM362.718 54.1961H378.59C378.251 48.8377 375.537 46.2602 370.857 46.2602C366.448 46.2602 363.464 49.1768 362.718 54.1961ZM394.591 75.7656V40.2913H404.427V45.7176C406.19 42.394 409.989 39.4773 415.279 39.4773C419.959 39.4773 423.486 41.4444 425.182 45.6497C428.031 41.3765 432.643 39.4773 437.12 39.4773C443.699 39.4773 448.787 43.6149 448.787 53.0431V75.7656H439.019V54.1283C439.019 49.5838 436.984 47.5489 433.457 47.5489C429.659 47.5489 426.607 49.9908 426.607 54.8066V75.7656H416.839V54.1283C416.839 49.5838 414.737 47.5489 411.277 47.5489C407.479 47.5489 404.427 49.9908 404.427 54.8066V75.7656H394.591ZM457.459 75.7656V40.2913H467.226V75.7656H457.459ZM462.274 35.4755C459.154 35.4755 456.712 33.1693 456.712 30.117C456.712 27.0647 459.154 24.7585 462.274 24.7585C465.462 24.7585 467.904 27.0647 467.904 30.117C467.904 33.1693 465.462 35.4755 462.274 35.4755ZM492.611 76.5117C481.894 76.5117 474.093 69.7967 474.093 58.4693V57.9267C474.093 46.735 482.029 39.4773 492.339 39.4773C501.496 39.4773 509.636 44.8358 509.636 57.5197V60.2329H484.064C484.336 66.134 487.524 69.5254 492.882 69.5254C497.426 69.5254 499.665 67.5584 500.275 64.5739H509.568C508.415 72.2385 502.31 76.5117 492.611 76.5117ZM484.2 54.1961H500.072C499.733 48.8377 497.02 46.2602 492.339 46.2602C487.93 46.2602 484.946 49.1768 484.2 54.1961ZM516.074 75.7656V40.2913H525.909V47.0741C528.147 42.3261 531.606 39.8165 537.372 39.7487V48.9055C530.114 48.8377 525.909 51.2117 525.909 57.9945V75.7656H516.074Z" fill="#D8D8D8" style="fill:#D8D8D8;fill:color(display-p3 0.8458 0.8458 0.8458);fill-opacity:1;"/>
<circle cx="44.2392" cy="63.7685" r="3.40326" fill="#4F4F4F" style="fill:#4F4F4F;fill:color(display-p3 0.3084 0.3084 0.3084);fill-opacity:1;"/>
<circle cx="77.915" cy="63.7685" r="3.40326" fill="#4F4F4F" style="fill:#4F4F4F;fill:color(display-p3 0.3084 0.3084 0.3084);fill-opacity:1;"/>
<defs>
<filter id="filter0_d_679_290" x="15.7505" y="7.78142" width="115.934" height="126.064" filterUnits="userSpaceOnUse" color-interpolation-filters="sRGB">
<feFlood flood-opacity="0" result="BackgroundImageFix"/>
<feColorMatrix in="SourceAlpha" type="matrix" values="0 0 0 0 0 0 0 0 0 0 0 0 0 0 0 0 0 0 127 0" result="hardAlpha"/>
<feOffset dx="1.59273" dy="0.955639"/>
<feGaussianBlur stdDeviation="3.66328"/>
<feComposite in2="hardAlpha" operator="out"/>
<feColorMatrix type="matrix" values="0 0 0 0 0 0 0 0 0 0 0 0 0 0 0 0 0 0 0.25 0"/>
<feBlend mode="normal" in2="BackgroundImageFix" result="effect1_dropShadow_679_290"/>
<feBlend mode="normal" in="SourceGraphic" in2="effect1_dropShadow_679_290" result="shape"/>
</filter>
<linearGradient id="paint0_linear_679_290" x1="82.9774" y1="27.6562" x2="82.9774" y2="101.509" gradientUnits="userSpaceOnUse">
<stop stop-color="#00ADEF" style="stop-color:#00ADEF;stop-color:color(display-p3 0.0000 0.6784 0.9373);stop-opacity:1;"/>
<stop offset="1" stop-color="#007EAE" style="stop-color:#007EAE;stop-color:color(display-p3 0.0000 0.4946 0.6833);stop-opacity:1;"/>
</linearGradient>
</defs>
</svg>
