<svg width="1810" height="385" viewBox="0 0 1810 385" fill="none" xmlns="http://www.w3.org/2000/svg">
<g filter="url(#filter0_d_673_4)">
<path d="M262.533 74.6969C249.633 35.356 188.405 36.8704 176.779 74.6969H166.645C182.708 22.4776 259.186 26.4299 272.667 74.6969H262.533Z" fill="#D8D8D8" style="fill:#D8D8D8;fill:color(display-p3 0.8458 0.8458 0.8458);fill-opacity:1;"/>
<rect x="108.582" y="74.6973" width="222.143" height="206.155" rx="29.4507" fill="url(#paint0_linear_673_4)" style=""/>
<rect x="48" y="141.845" width="222.143" height="206.155" rx="29.4507" fill="#D8D8D8" style="fill:#D8D8D8;fill:color(display-p3 0.8458 0.8458 0.8458);fill-opacity:1;"/>
<path d="M201.951 178.364C189.051 244.752 127.823 242.196 116.197 178.364H106.062C122.126 266.484 198.604 259.815 212.085 178.364H201.951Z" fill="#4F4F4F" style="fill:#4F4F4F;fill:color(display-p3 0.3084 0.3084 0.3084);fill-opacity:1;"/>
</g>
<path d="M545.17 49.3016V194H516.956V73.0822H516.553L489.548 194H459.923L433.523 73.0822H433.12V194H404.906V49.3016H449.041L475.239 163.367H475.642L501.438 49.3016H545.17ZM604.825 164.174L594.748 194H562.906L614.498 49.3016H649.363L700.35 194H667.5L658.23 164.174H604.825ZM631.427 81.9495L612.886 139.184H649.766L631.83 81.9495H631.427ZM834.093 96.6611H803.864C801.445 87.9954 796.81 71.6714 771.82 71.6714C757.31 71.6714 735.948 81.3449 735.948 122.255C735.948 148.253 746.226 171.63 771.82 171.63C788.547 171.63 800.236 162.158 803.864 144.424H834.093C828.047 175.862 807.491 197.829 771.216 197.829C732.724 197.829 705.114 171.832 705.114 121.852C705.114 71.2684 734.336 45.4726 771.619 45.4726C814.948 45.4726 832.481 75.299 834.093 96.6611ZM436.546 300.804V353H406.316V208.302H472.418C500.431 208.302 517.359 226.238 517.359 254.653C517.359 267.753 510.104 300.804 471.209 300.804H436.546ZM436.546 275.814H464.558C487.13 275.814 487.13 259.692 487.13 253.243C487.13 239.136 479.27 233.291 460.528 233.291H436.546V275.814ZM540.735 353V208.302H613.89C652.382 208.302 659.436 236.717 659.436 249.212C659.436 265.133 651.375 278.837 637.066 283.674C648.956 288.914 655.405 293.347 655.405 320.352C655.405 341.513 655.405 346.753 661.854 349.171V353H628.4C626.385 346.148 625.176 338.691 625.176 323.778C625.176 304.028 623.967 296.37 601.597 296.37H570.36V353H540.735ZM570.36 271.985H605.829C621.548 271.985 629.207 266.544 629.207 252.235C629.207 244.577 625.781 233.291 608.046 233.291H570.36V271.985ZM792.583 208.302V233.896H715.8V264.327H786.335V289.921H715.8V327.406H796.009V353H686.175V208.302H792.583ZM959.448 208.302V353H931.233V232.082H930.83L903.825 353H874.201L847.8 232.082H847.397V353H819.183V208.302H863.318L889.517 322.367H889.92L915.716 208.302H959.448ZM1016.28 208.302V353H986.051V208.302H1016.28ZM1150.97 208.302V233.896H1074.18V264.327H1144.72V289.921H1074.18V327.406H1154.39V353H1044.56V208.302H1150.97ZM1178.98 353V208.302H1252.13C1290.63 208.302 1297.68 236.717 1297.68 249.212C1297.68 265.133 1289.62 278.837 1275.31 283.674C1287.2 288.914 1293.65 293.347 1293.65 320.352C1293.65 341.513 1293.65 346.753 1300.1 349.171V353H1266.64C1264.63 346.148 1263.42 338.691 1263.42 323.778C1263.42 304.028 1262.21 296.37 1239.84 296.37H1208.6V353H1178.98ZM1208.6 271.985H1244.07C1259.79 271.985 1267.45 266.544 1267.45 252.235C1267.45 244.577 1264.02 233.291 1246.29 233.291H1208.6V271.985Z" fill="#E3E3E3" style="fill:#E3E3E3;fill:color(display-p3 0.8902 0.8902 0.8902);fill-opacity:1;"/>
<circle cx="111.5" cy="175.5" r="9.5" fill="#4F4F4F" style="fill:#4F4F4F;fill:color(display-p3 0.3084 0.3084 0.3084);fill-opacity:1;"/>
<circle cx="205.5" cy="175.5" r="9.5" fill="#4F4F4F" style="fill:#4F4F4F;fill:color(display-p3 0.3084 0.3084 0.3084);fill-opacity:1;"/>
<defs>
<filter id="filter0_d_673_4" x="31.9943" y="19.2159" width="323.63" height="351.903" filterUnits="userSpaceOnUse" color-interpolation-filters="sRGB">
<feFlood flood-opacity="0" result="BackgroundImageFix"/>
<feColorMatrix in="SourceAlpha" type="matrix" values="0 0 0 0 0 0 0 0 0 0 0 0 0 0 0 0 0 0 127 0" result="hardAlpha"/>
<feOffset dx="4.44602" dy="2.66761"/>
<feGaussianBlur stdDeviation="10.2258"/>
<feComposite in2="hardAlpha" operator="out"/>
<feColorMatrix type="matrix" values="0 0 0 0 0 0 0 0 0 0 0 0 0 0 0 0 0 0 0.25 0"/>
<feBlend mode="normal" in2="BackgroundImageFix" result="effect1_dropShadow_673_4"/>
<feBlend mode="normal" in="SourceGraphic" in2="effect1_dropShadow_673_4" result="shape"/>
</filter>
<linearGradient id="paint0_linear_673_4" x1="219.653" y1="74.6973" x2="219.653" y2="280.852" gradientUnits="userSpaceOnUse">
<stop stop-color="#00ADEF" style="stop-color:#00ADEF;stop-color:color(display-p3 0.0000 0.6784 0.9373);stop-opacity:1;"/>
<stop offset="1" stop-color="#007EAE" style="stop-color:#007EAE;stop-color:color(display-p3 0.0000 0.4946 0.6833);stop-opacity:1;"/>
</linearGradient>
</defs>
</svg>
