<svg width="1698" height="400" viewBox="0 0 1698 400" fill="none" xmlns="http://www.w3.org/2000/svg">
<path d="M274.862 104.818C256.886 11.083 171.559 14.6911 155.358 104.818H141.234C163.62 -19.6014 270.198 -10.1846 288.985 104.818H274.862Z" fill="white"/>
<rect x="61" y="97.4727" width="309.573" height="287.293" rx="29.9392" fill="url(#paint0_linear_827_2)"/>
<path d="M324.118 213.068V305.281H290.012V216.857C290.012 205.909 288.012 197.804 284.012 192.54C280.222 187.067 274.116 184.33 265.695 184.33C260.011 184.33 254.958 185.593 250.537 188.119C246.326 190.646 242.957 194.33 240.431 199.172C238.115 204.015 236.957 209.91 236.957 216.857V305.281H202.851V216.857C202.851 205.909 200.851 197.804 196.851 192.54C193.061 187.067 186.956 184.33 178.534 184.33C172.639 184.33 167.481 185.593 163.06 188.119C158.849 190.646 155.586 194.33 153.27 199.172C150.954 204.015 149.796 209.91 149.796 216.857V305.281H116.321V160.013H149.796V181.172C154.007 173.171 159.481 167.171 166.218 163.171C173.166 158.96 181.271 156.855 190.535 156.855C201.272 156.855 210.114 159.066 217.062 163.487C224.22 167.908 229.378 174.329 232.536 182.751C237.589 174.329 243.905 167.908 251.484 163.487C259.274 159.066 268.116 156.855 278.011 156.855C288.327 156.855 296.854 159.066 303.591 163.487C310.539 167.698 315.697 174.014 319.065 182.435C322.434 190.856 324.118 201.067 324.118 213.068ZM376.509 260.122C376.509 264.964 377.667 269.175 379.983 272.754C382.299 276.122 385.457 278.649 389.457 280.333C393.667 282.017 398.404 282.859 403.668 282.859C410.405 282.859 416.51 281.491 421.984 278.754C427.669 276.017 432.195 272.017 435.564 266.754C439.143 261.28 440.932 254.964 440.932 247.806L445.985 266.754C445.985 276.017 443.248 283.807 437.774 290.123C432.511 296.228 425.774 300.86 417.563 304.018C409.563 306.966 401.352 308.439 392.931 308.439C383.878 308.439 375.456 306.65 367.667 303.071C359.877 299.492 353.666 294.228 349.034 287.281C344.403 280.333 342.087 271.912 342.087 262.017C342.087 247.911 347.034 236.753 356.929 228.542C366.824 220.12 380.825 215.91 398.931 215.91C408.615 215.91 416.931 216.962 423.879 219.068C431.037 221.173 436.932 223.699 441.564 226.647C446.196 229.384 449.459 231.91 451.354 234.226V251.595C444.827 246.963 437.88 243.595 430.511 241.49C423.142 239.384 415.352 238.332 407.142 238.332C399.983 238.332 394.194 239.279 389.773 241.174C385.351 242.858 381.983 245.279 379.667 248.437C377.562 251.595 376.509 255.49 376.509 260.122ZM365.772 197.909L351.877 173.908C358.403 169.908 366.824 166.013 377.141 162.224C387.667 158.434 399.668 156.539 413.142 156.539C425.142 156.539 435.669 158.329 444.722 161.908C453.985 165.487 461.249 170.645 466.512 177.382C471.775 183.909 474.407 192.014 474.407 201.699V305.281H440.932V208.331C440.932 203.699 440.09 199.909 438.406 196.962C436.932 194.014 434.827 191.593 432.09 189.698C429.353 187.803 426.09 186.435 422.3 185.593C418.51 184.751 414.405 184.33 409.984 184.33C403.247 184.33 396.825 185.172 390.72 186.856C384.825 188.33 379.667 190.225 375.246 192.54C371.035 194.646 367.877 196.435 365.772 197.909ZM524.274 232.647C524.274 241.911 526.274 250.016 530.274 256.964C534.274 263.701 539.643 269.069 546.38 273.07C553.328 277.07 561.012 279.07 569.433 279.07C576.381 279.07 583.013 278.017 589.329 275.912C595.645 273.806 601.224 270.859 606.066 267.069C610.909 263.28 614.488 259.069 616.804 254.437V292.018C611.751 297.07 604.908 301.071 596.276 304.018C587.645 306.966 578.171 308.439 567.854 308.439C552.907 308.439 539.432 305.281 527.432 298.965C515.642 292.439 506.273 283.491 499.326 272.122C492.589 260.543 489.22 247.384 489.22 232.647C489.22 217.699 492.589 204.541 499.326 193.172C506.273 181.803 515.642 172.961 527.432 166.645C539.432 160.118 552.907 156.855 567.854 156.855C578.171 156.855 587.645 158.329 596.276 161.276C604.908 164.224 611.751 168.224 616.804 173.277V210.857C614.488 206.015 610.803 201.804 605.751 198.225C600.908 194.435 595.329 191.488 589.013 189.382C582.697 187.277 576.171 186.224 569.433 186.224C561.012 186.224 553.328 188.225 546.38 192.225C539.643 196.225 534.274 201.699 530.274 208.646C526.274 215.594 524.274 223.594 524.274 232.647ZM675.029 374.757H640.607V160.013H675.029V374.757ZM795.349 232.647C795.349 248.648 792.086 262.438 785.559 274.017C779.033 285.386 770.401 294.123 759.664 300.228C748.927 306.123 737.242 309.071 724.61 309.071C712.188 309.071 701.346 306.018 692.082 299.913C683.03 293.597 675.977 284.754 670.924 273.385C666.082 261.806 663.66 248.227 663.66 232.647C663.66 216.857 666.082 203.278 670.924 191.909C675.977 180.54 683.03 171.803 692.082 165.697C701.346 159.381 712.188 156.223 724.61 156.223C737.242 156.223 748.927 159.276 759.664 165.382C770.401 171.277 779.033 179.908 785.559 191.277C792.086 202.646 795.349 216.436 795.349 232.647ZM759.98 232.647C759.98 222.963 757.979 214.752 753.979 208.015C749.979 201.067 744.611 195.909 737.874 192.54C731.347 188.961 724.084 187.172 716.083 187.172C709.557 187.172 703.135 188.961 696.819 192.54C690.503 195.909 685.24 200.962 681.029 207.699C677.029 214.436 675.029 222.752 675.029 232.647C675.029 242.542 677.029 250.858 681.029 257.595C685.24 264.332 690.503 269.491 696.819 273.07C703.135 276.438 709.557 278.122 716.083 278.122C724.084 278.122 731.347 276.438 737.874 273.07C744.611 269.491 749.979 264.332 753.979 257.595C757.979 250.648 759.98 242.332 759.98 232.647ZM848.993 160.013V305.281H815.203V160.013H848.993ZM892.258 196.33C889.1 193.804 886.152 191.909 883.416 190.646C880.679 189.382 877.205 188.751 872.994 188.751C867.31 188.751 862.678 190.225 859.099 193.172C855.52 196.12 852.888 200.225 851.204 205.488C849.73 210.541 848.993 216.541 848.993 223.489L837.624 216.857C837.624 205.278 839.73 195.067 843.94 186.224C848.362 177.172 853.941 170.013 860.678 164.75C867.626 159.487 874.784 156.855 882.152 156.855C887.416 156.855 892.363 157.697 896.995 159.381C901.627 160.855 905.522 163.592 908.68 167.592L892.258 196.33ZM977.988 308.439C963.251 308.439 950.197 305.281 938.829 298.965C927.67 292.649 919.039 283.807 912.933 272.438C906.828 261.069 903.775 247.806 903.775 232.647C903.775 217.278 906.828 203.909 912.933 192.54C919.249 181.172 928.091 172.435 939.46 166.329C950.829 160.013 964.198 156.855 979.567 156.855C994.936 156.855 1007.99 159.803 1018.73 165.697C1029.46 171.592 1037.67 180.119 1043.36 191.277C1049.25 202.225 1052.2 215.489 1052.2 231.068C1052.2 232.752 1052.1 234.542 1051.89 236.437C1051.89 238.332 1051.78 239.7 1051.57 240.542H923.986V217.173H1022.52L1012.09 231.7C1012.73 230.437 1013.36 228.752 1013.99 226.647C1014.83 224.331 1015.25 222.436 1015.25 220.963C1015.25 213.173 1013.67 206.436 1010.52 200.751C1007.57 195.067 1003.36 190.646 997.883 187.488C992.62 184.33 986.409 182.751 979.251 182.751C970.619 182.751 963.251 184.645 957.145 188.435C951.04 192.225 946.408 197.699 943.25 204.857C940.092 212.015 938.408 220.857 938.197 231.384C938.197 241.911 939.776 250.858 942.934 258.227C946.092 265.385 950.724 270.859 956.829 274.649C963.145 278.438 970.725 280.333 979.567 280.333C988.83 280.333 996.936 278.438 1003.88 274.649C1010.83 270.859 1016.62 265.069 1021.25 257.28L1050.62 269.28C1043.04 282.333 1033.25 292.123 1021.25 298.649C1009.25 305.176 994.831 308.439 977.988 308.439ZM1279.92 213.068V305.281H1245.81V216.857C1245.81 205.909 1243.81 197.804 1239.81 192.54C1236.02 187.067 1229.92 184.33 1221.5 184.33C1215.81 184.33 1210.76 185.593 1206.34 188.119C1202.13 190.646 1198.76 194.33 1196.23 199.172C1193.92 204.015 1192.76 209.91 1192.76 216.857V305.281H1158.65V216.857C1158.65 205.909 1156.65 197.804 1152.65 192.54C1148.86 187.067 1142.76 184.33 1134.34 184.33C1128.44 184.33 1123.28 185.593 1118.86 188.119C1114.65 190.646 1111.39 194.33 1109.07 199.172C1106.76 204.015 1105.6 209.91 1105.6 216.857V305.281H1072.12V160.013H1105.6V181.172C1109.81 173.171 1115.28 167.171 1122.02 163.171C1128.97 158.96 1137.07 156.855 1146.34 156.855C1157.07 156.855 1165.92 159.066 1172.86 163.487C1180.02 167.908 1185.18 174.329 1188.34 182.751C1193.39 174.329 1199.71 167.908 1207.29 163.487C1215.08 159.066 1223.92 156.855 1233.81 156.855C1244.13 156.855 1252.66 159.066 1259.39 163.487C1266.34 167.698 1271.5 174.014 1274.87 182.435C1278.24 190.856 1279.92 201.067 1279.92 213.068ZM1309.57 102.222C1309.57 96.3266 1311.68 91.3791 1315.89 87.3789C1320.31 83.3788 1325.36 81.3787 1331.05 81.3787C1337.15 81.3787 1342.21 83.3788 1346.21 87.3789C1350.42 91.3791 1352.52 96.3266 1352.52 102.222C1352.52 107.906 1350.42 112.853 1346.21 117.064C1342.21 121.064 1337.15 123.064 1331.05 123.064C1325.36 123.064 1320.31 121.064 1315.89 117.064C1311.68 112.853 1309.57 107.906 1309.57 102.222ZM1314.31 160.013H1347.79V305.281H1314.31V160.013ZM1445.25 308.439C1430.51 308.439 1417.46 305.281 1406.09 298.965C1394.93 292.649 1386.3 283.807 1380.19 272.438C1374.09 261.069 1371.04 247.806 1371.04 232.647C1371.04 217.278 1374.09 203.909 1380.19 192.54C1386.51 181.172 1395.35 172.435 1406.72 166.329C1418.09 160.013 1431.46 156.855 1446.83 156.855C1462.2 156.855 1475.25 159.803 1485.99 165.697C1496.72 171.592 1504.94 180.119 1510.62 191.277C1516.51 202.225 1519.46 215.489 1519.46 231.068C1519.46 232.752 1519.36 234.542 1519.15 236.437C1519.15 238.332 1519.04 239.7 1518.83 240.542H1391.25V217.173H1489.78L1479.36 231.7C1479.99 230.437 1480.62 228.752 1481.25 226.647C1482.09 224.331 1482.51 222.436 1482.51 220.963C1482.51 213.173 1480.93 206.436 1477.78 200.751C1474.83 195.067 1470.62 190.646 1465.14 187.488C1459.88 184.33 1453.67 182.751 1446.51 182.751C1437.88 182.751 1430.51 184.645 1424.41 188.435C1418.3 192.225 1413.67 197.699 1410.51 204.857C1407.35 212.015 1405.67 220.857 1405.46 231.384C1405.46 241.911 1407.04 250.858 1410.2 258.227C1413.35 265.385 1417.99 270.859 1424.09 274.649C1430.41 278.438 1437.99 280.333 1446.83 280.333C1456.09 280.333 1464.2 278.438 1471.14 274.649C1478.09 270.859 1483.88 265.069 1488.51 257.28L1517.88 269.28C1510.3 282.333 1500.51 292.123 1488.51 298.649C1476.51 305.176 1462.09 308.439 1445.25 308.439ZM1573.18 160.013V305.281H1539.38V160.013H1573.18ZM1616.44 196.33C1613.28 193.804 1610.33 191.909 1607.6 190.646C1604.86 189.382 1601.39 188.751 1597.18 188.751C1591.49 188.751 1586.86 190.225 1583.28 193.172C1579.7 196.12 1577.07 200.225 1575.39 205.488C1573.91 210.541 1573.18 216.541 1573.18 223.489L1561.81 216.857C1561.81 205.278 1563.91 195.067 1568.12 186.224C1572.54 177.172 1578.12 170.013 1584.86 164.75C1591.81 159.487 1598.97 156.855 1606.33 156.855C1611.6 156.855 1616.55 157.697 1621.18 159.381C1625.81 160.855 1629.7 163.592 1632.86 167.592L1616.44 196.33Z" fill="white"/>
<defs>
<linearGradient id="paint0_linear_827_2" x1="215.787" y1="97.4727" x2="215.787" y2="384.766" gradientUnits="userSpaceOnUse">
<stop stop-color="#1760FF"/>
<stop offset="1" stop-color="#0A50E9"/>
</linearGradient>
</defs>
</svg>
