<svg width="1810" height="385" viewBox="0 0 1810 385" fill="none" xmlns="http://www.w3.org/2000/svg">
<g clip-path="url(#clip0_641_14)">
<rect width="1810" height="385" fill="#5171A8" style="fill:#5171A8;fill:color(display-p3 0.3176 0.4431 0.6588);fill-opacity:1;"/>
<path d="M390.012 267.297V131.752H425.668V156.281H426.427C432.117 139.97 446.658 129.223 465.118 129.223C484.716 129.223 498.372 139.338 502.924 157.04H503.683C509.752 139.97 525.936 129.223 545.788 129.223C572.34 129.223 590.169 147.43 590.169 174.742V267.297H553.248V183.972C553.248 168.293 545.408 159.695 531.12 159.695C517.085 159.695 507.855 169.937 507.855 184.984V267.297H472.325V182.834C472.325 168.293 464.107 159.695 450.451 159.695C436.416 159.695 426.933 170.316 426.933 185.489V267.297H390.012ZM652.294 247.956C664.956 247.956 675.424 239.681 675.424 228.116V220.339L652.892 221.735C642.025 222.533 635.844 227.418 635.844 234.995C635.844 242.971 642.424 247.956 652.294 247.956ZM642.723 268.992C622.385 268.992 606.932 255.832 606.932 236.59C606.932 217.149 621.887 205.883 648.506 204.288L675.424 202.693V195.615C675.424 185.645 668.445 179.862 657.478 179.862C646.611 179.862 639.732 185.246 638.337 193.122H611.717C612.814 172.385 630.461 158.128 658.775 158.128C686.191 158.128 704.037 172.285 704.037 193.82V267.297H675.922V250.947H675.324C669.342 262.312 656.083 268.992 642.723 268.992ZM819.985 200.201H792.967C791.272 188.935 783.795 180.959 771.831 180.959C757.475 180.959 748.502 193.122 748.502 213.759C748.502 234.796 757.475 246.759 771.931 246.759C783.596 246.759 791.173 239.78 792.967 228.116H820.085C818.589 253.339 799.747 269.59 771.632 269.59C739.43 269.59 718.992 248.653 718.992 213.759C718.992 179.464 739.43 158.128 771.432 158.128C800.345 158.128 818.689 175.974 819.985 200.201ZM911.014 136.883C943.588 136.883 963.587 161.673 963.587 203.108C963.587 244.424 943.708 269.333 911.613 269.333C892.931 269.333 878.561 260.231 871.735 245.741H871.016V309.211H836.048V138.919H870.537V161.313H871.256C878.202 146.224 892.452 136.883 911.014 136.883ZM899.278 241.19C916.763 241.19 927.78 226.46 927.78 203.108C927.78 179.875 916.763 164.906 899.278 164.906C882.153 164.906 870.896 180.115 870.896 203.108C870.896 226.341 882.153 241.19 899.278 241.19ZM979.765 267.297V160.421H1007.88V179.663H1008.48C1012.27 166.104 1021.34 158.727 1033.9 158.727C1037.29 158.727 1040.18 159.225 1042.18 159.823V185.445C1039.78 184.448 1035.79 183.751 1031.61 183.751C1017.25 183.751 1008.88 192.524 1008.88 207.578V267.297H979.765ZM1098.5 179.663C1085.74 179.663 1076.57 189.334 1075.57 202.693H1120.94C1120.34 189.034 1111.46 179.663 1098.5 179.663ZM1121.33 234.596H1148.05C1144.86 255.533 1125.72 269.59 1099.3 269.59C1066.4 269.59 1046.66 248.554 1046.66 214.358C1046.66 180.261 1066.6 158.128 1098.2 158.128C1129.31 158.128 1148.95 179.164 1148.95 211.666V220.539H1075.27V222.333C1075.27 237.587 1084.95 248.055 1099.8 248.055C1110.47 248.055 1118.64 242.771 1121.33 234.596ZM1164.01 267.297V160.421H1192.12V179.763H1192.72C1197.2 166.902 1208.67 158.427 1223.23 158.427C1238.68 158.427 1249.45 166.403 1253.03 180.361H1253.63C1258.42 166.902 1271.18 158.427 1286.83 158.427C1307.77 158.427 1321.83 172.784 1321.83 194.318V267.297H1292.71V201.596C1292.71 189.234 1286.53 182.454 1275.27 182.454C1264.2 182.454 1256.92 190.53 1256.92 202.394V267.297H1228.91V200.699C1228.91 189.234 1222.43 182.454 1211.66 182.454C1200.59 182.454 1193.12 190.829 1193.12 202.793V267.297H1164.01ZM1340.77 267.297V160.421H1369.88V267.297H1340.77ZM1355.32 148.657C1346.55 148.657 1339.77 141.977 1339.77 133.603C1339.77 125.129 1346.55 118.548 1355.32 118.548C1364.1 118.548 1370.88 125.129 1370.88 133.603C1370.88 141.977 1364.1 148.657 1355.32 148.657ZM1437.28 179.663C1424.51 179.663 1415.34 189.334 1414.35 202.693H1459.71C1459.11 189.034 1450.24 179.663 1437.28 179.663ZM1460.11 234.596H1486.83C1483.63 255.533 1464.49 269.59 1438.07 269.59C1405.17 269.59 1385.43 248.554 1385.43 214.358C1385.43 180.261 1405.37 158.128 1436.98 158.128C1468.08 158.128 1487.72 179.164 1487.72 211.666V220.539H1414.05V222.333C1414.05 237.587 1423.72 248.055 1438.57 248.055C1449.24 248.055 1457.41 242.771 1460.11 234.596ZM1502.78 267.297V160.421H1530.89V179.663H1531.49C1535.28 166.104 1544.35 158.727 1556.91 158.727C1560.3 158.727 1563.19 159.225 1565.19 159.823V185.445C1562.79 184.448 1558.81 183.751 1554.62 183.751C1540.26 183.751 1531.89 192.524 1531.89 207.578V267.297H1502.78Z" fill="#E3E3E3" style="fill:#E3E3E3;fill:color(display-p3 0.8902 0.8902 0.8902);fill-opacity:1;"/>
<g filter="url(#filter0_d_641_14)">
<path d="M262.533 74.6969C249.633 35.356 188.405 36.8704 176.779 74.6969H166.645C182.708 22.4776 259.186 26.4299 272.667 74.6969H262.533Z" fill="#D8D8D8" style="fill:#D8D8D8;fill:color(display-p3 0.8458 0.8458 0.8458);fill-opacity:1;"/>
<rect x="108.582" y="74.6973" width="222.143" height="206.155" rx="29.4507" fill="url(#paint0_linear_641_14)" style=""/>
<rect x="48" y="141.845" width="222.143" height="206.155" rx="29.4507" fill="#D8D8D8" style="fill:#D8D8D8;fill:color(display-p3 0.8458 0.8458 0.8458);fill-opacity:1;"/>
<path d="M201.951 178.364C189.051 244.752 127.823 242.196 116.197 178.364H106.062C122.126 266.484 198.604 259.815 212.085 178.364H201.951Z" fill="#4F4F4F" style="fill:#4F4F4F;fill:color(display-p3 0.3084 0.3084 0.3084);fill-opacity:1;"/>
</g>
<path d="M1665.77 223.574H1642.29L1642.07 209.158H1662.17C1665.52 209.158 1668.61 208.685 1671.45 207.738C1674.29 206.719 1676.59 205.263 1678.33 203.37C1680.08 201.477 1680.95 199.147 1680.95 196.38C1680.95 192.739 1680.34 189.9 1679.1 187.861C1677.93 185.823 1675.93 184.33 1673.09 183.383C1670.25 182.437 1666.43 181.964 1661.62 181.964H1647.21V260.488H1631.15V167.657H1661.62C1668.83 167.657 1675.09 168.749 1680.41 170.933C1685.72 173.045 1689.8 176.212 1692.64 180.435C1695.55 184.658 1697.01 189.9 1697.01 196.161C1697.01 200.093 1696.06 203.588 1694.17 206.646C1692.35 209.704 1689.69 212.325 1686.2 214.509C1682.7 216.694 1678.37 218.477 1673.2 219.861C1672.98 219.861 1672.73 220.116 1672.44 220.625C1672.22 221.062 1672 221.281 1671.78 221.281C1670.54 222.009 1669.74 222.555 1669.38 222.919C1669.09 223.21 1668.76 223.392 1668.39 223.465C1668.1 223.538 1667.23 223.574 1665.77 223.574ZM1664.68 223.574L1666.98 211.888C1678.33 211.888 1686.09 214.437 1690.24 219.533C1694.46 224.63 1696.57 231.037 1696.57 238.755V244.871C1696.57 247.565 1696.72 250.15 1697.01 252.625C1697.3 255.028 1697.77 257.066 1698.43 258.741V260.488H1681.94C1681.21 258.595 1680.77 255.901 1680.63 252.407C1680.55 248.912 1680.52 246.363 1680.52 244.762V238.864C1680.52 233.695 1679.32 229.872 1676.91 227.397C1674.51 224.848 1670.43 223.574 1664.68 223.574ZM1598.61 215.383C1598.61 224.994 1600.28 233.949 1603.63 242.25C1606.98 250.55 1611.6 257.831 1617.5 264.092C1623.4 270.281 1630.24 275.123 1638.03 278.618C1645.82 282.04 1654.2 283.751 1663.15 283.751C1672.04 283.751 1680.34 282.04 1688.05 278.618C1695.84 275.123 1702.69 270.281 1708.59 264.092C1714.48 257.831 1719.11 250.55 1722.46 242.25C1725.81 233.949 1727.48 224.994 1727.48 215.383C1727.48 205.699 1725.81 196.744 1722.46 188.516C1719.11 180.216 1714.48 172.972 1708.59 166.783C1702.69 160.594 1695.84 155.789 1688.05 152.367C1680.34 148.945 1672.04 147.234 1663.15 147.234C1654.2 147.234 1645.82 148.945 1638.03 152.367C1630.24 155.789 1623.4 160.594 1617.5 166.783C1611.6 172.972 1606.98 180.216 1603.63 188.516C1600.28 196.744 1598.61 205.699 1598.61 215.383ZM1585.61 215.383C1585.61 203.806 1587.61 193.067 1591.62 183.165C1595.62 173.263 1601.19 164.635 1608.33 157.281C1615.46 149.855 1623.69 144.103 1633.01 140.026C1642.4 135.875 1652.45 133.8 1663.15 133.8C1673.86 133.8 1683.87 135.875 1693.19 140.026C1702.58 144.103 1710.81 149.855 1717.87 157.281C1725 164.635 1730.57 173.263 1734.58 183.165C1738.58 193.067 1740.59 203.806 1740.59 215.383C1740.59 226.96 1738.58 237.699 1734.58 247.601C1730.57 257.503 1725 266.168 1717.87 273.594C1710.81 281.021 1702.58 286.809 1693.19 290.959C1683.87 295.109 1673.86 297.184 1663.15 297.184C1652.45 297.184 1642.4 295.109 1633.01 290.959C1623.69 286.809 1615.46 281.021 1608.33 273.594C1601.19 266.168 1595.62 257.503 1591.62 247.601C1587.61 237.699 1585.61 226.96 1585.61 215.383Z" fill="#E3E3E3" style="fill:#E3E3E3;fill:color(display-p3 0.8902 0.8902 0.8902);fill-opacity:1;"/>
</g>
<defs>
<filter id="filter0_d_641_14" x="31.9943" y="19.2159" width="323.63" height="351.903" filterUnits="userSpaceOnUse" color-interpolation-filters="sRGB">
<feFlood flood-opacity="0" result="BackgroundImageFix"/>
<feColorMatrix in="SourceAlpha" type="matrix" values="0 0 0 0 0 0 0 0 0 0 0 0 0 0 0 0 0 0 127 0" result="hardAlpha"/>
<feOffset dx="4.44602" dy="2.66761"/>
<feGaussianBlur stdDeviation="10.2258"/>
<feComposite in2="hardAlpha" operator="out"/>
<feColorMatrix type="matrix" values="0 0 0 0 0 0 0 0 0 0 0 0 0 0 0 0 0 0 0.25 0"/>
<feBlend mode="normal" in2="BackgroundImageFix" result="effect1_dropShadow_641_14"/>
<feBlend mode="normal" in="SourceGraphic" in2="effect1_dropShadow_641_14" result="shape"/>
</filter>
<linearGradient id="paint0_linear_641_14" x1="219.653" y1="74.6973" x2="219.653" y2="280.852" gradientUnits="userSpaceOnUse">
<stop stop-color="#00ADEF" style="stop-color:#00ADEF;stop-color:color(display-p3 0.0000 0.6784 0.9373);stop-opacity:1;"/>
<stop offset="1" stop-color="#007EAE" style="stop-color:#007EAE;stop-color:color(display-p3 0.0000 0.4946 0.6833);stop-opacity:1;"/>
</linearGradient>
<clipPath id="clip0_641_14">
<rect width="1810" height="385" fill="white" style="fill:white;fill:white;fill-opacity:1;"/>
</clipPath>
</defs>
</svg>
