<svg width="1810" height="385" viewBox="0 0 1810 385" fill="none" xmlns="http://www.w3.org/2000/svg">
<g filter="url(#filter0_d_673_4)">
<path d="M262.533 74.6969C249.633 35.356 188.405 36.8704 176.779 74.6969H166.645C182.708 22.4776 259.186 26.4299 272.667 74.6969H262.533Z" fill="#D8D8D8" style="fill:#D8D8D8;fill:color(display-p3 0.8458 0.8458 0.8458);fill-opacity:1;"/>
<rect x="108.582" y="74.6973" width="222.143" height="206.155" rx="29.4507" fill="url(#paint0_linear_673_4)" style=""/>
<rect x="48" y="141.845" width="222.143" height="206.155" rx="29.4507" fill="#D8D8D8" style="fill:#D8D8D8;fill:color(display-p3 0.8458 0.8458 0.8458);fill-opacity:1;"/>
<path d="M201.951 178.364C189.051 244.752 127.823 242.196 116.197 178.364H106.062C122.126 266.484 198.604 259.815 212.085 178.364H201.951Z" fill="#4F4F4F" style="fill:#4F4F4F;fill:color(display-p3 0.3084 0.3084 0.3084);fill-opacity:1;"/>
</g>
<path d="M645.428 154.103V263H603.999V167.419C603.999 144.041 593.642 136.347 581.509 136.347C560.795 136.347 553.397 149.96 553.397 168.602V263H511.969V168.307C511.969 154.99 511.969 136.347 487.112 136.347C467.581 136.347 461.367 149.96 461.367 167.123V263H419.939V105.572H459.592V128.654H460.183C465.51 118.297 477.051 101.429 504.867 101.429C527.653 101.429 538.01 109.715 548.663 126.582C553.989 118.888 565.53 101.429 590.683 101.429C621.458 101.429 645.428 119.48 645.428 154.103ZM770.777 178.591V240.606C770.777 254.171 773.791 257.186 777.452 258.478V263H744.937C743.215 257.617 742.784 255.894 742.138 249.434C735.247 256.54 725.558 266.015 705.101 266.015C687.875 266.015 670.218 256.325 670.218 232.638C670.218 210.244 684.43 198.832 703.594 196.032L730.725 191.941C735.463 191.295 741.277 189.357 741.277 182.897C741.277 170.193 729.218 169.547 721.466 169.547C706.393 169.547 703.809 178.806 702.948 185.481H673.878C677.324 150.382 701.656 145.43 725.127 145.43C741.277 145.43 770.777 150.382 770.777 178.591ZM741.277 221.872V207.23C738.262 209.598 733.309 211.536 720.82 213.474C709.623 215.412 700.364 218.211 700.364 230.7C700.364 241.252 708.546 244.482 714.36 244.482C727.711 244.482 741.277 235.868 741.277 221.872ZM865.665 221.226H896.242C895.165 233.069 885.906 266.015 843.917 266.015C800.851 266.015 790.946 233.069 790.946 208.952C790.946 171.915 807.095 145.43 845.855 145.43C863.942 145.43 893.658 153.612 896.457 189.357H865.88C864.588 181.821 859.851 169.977 845.855 170.839C826.906 170.839 821.953 189.788 821.953 204C821.953 216.489 822.384 241.252 845.209 241.252C860.497 241.252 865.665 226.609 865.665 221.226ZM958.208 191.812C958.208 213.953 967.737 234.693 992.681 234.693C1017.91 234.693 1024.91 207.226 1024.91 189.569C1024.91 166.027 1016.5 143.885 991.56 143.885C964.654 143.885 958.208 167.989 958.208 191.812ZM958.208 113.897V135.477H958.769C966.056 123.706 976.986 109.973 1003.33 109.973C1036.12 109.973 1065.27 135.197 1065.27 186.767C1065.27 227.686 1046.77 266.924 1002.49 266.924C975.024 266.924 965.215 252.069 960.45 243.942H959.89V321.016H920.652V113.897H958.208ZM1088.39 263V148.444H1117.25V168.255H1117.68C1123.92 156.627 1130.81 145.43 1149.12 145.43C1151.05 145.43 1152.99 145.645 1154.93 145.86V176.437C1152.35 176.007 1149.12 176.007 1146.32 176.007C1122.85 176.007 1118.54 190.649 1118.54 203.354V263H1088.39ZM1239.7 229.409H1270.71C1262.74 256.971 1239.91 266.015 1220.32 266.015C1188.02 266.015 1163.26 250.511 1163.26 203.354C1163.26 189.572 1167.99 145.43 1218.17 145.43C1240.78 145.43 1272 156.196 1272 208.522V213.905H1193.4C1194.26 222.518 1195.99 241.898 1220.32 241.898C1228.72 241.898 1237.33 237.591 1239.7 229.409ZM1194.26 194.31H1240.99C1239.27 175.791 1227.43 170.193 1217.74 170.193C1203.52 170.193 1195.99 179.237 1194.26 194.31ZM1455.82 183.759V263H1425.67V193.448C1425.67 176.437 1418.14 170.839 1409.31 170.839C1394.23 170.839 1388.85 180.744 1388.85 194.31V263H1358.7V194.094C1358.7 184.405 1358.7 170.839 1340.62 170.839C1326.41 170.839 1321.88 180.744 1321.88 193.233V263H1291.74V148.444H1320.59V165.24H1321.02C1324.9 157.704 1333.3 145.43 1353.54 145.43C1370.12 145.43 1377.65 151.459 1385.41 163.733C1389.28 158.134 1397.68 145.43 1415.98 145.43C1438.38 145.43 1455.82 158.565 1455.82 183.759ZM1484.17 148.444H1514.32V263H1484.17V148.444ZM1514.32 106.886V134.879H1484.17V106.886H1514.32ZM1610.64 229.409H1641.65C1633.68 256.971 1610.85 266.015 1591.26 266.015C1558.96 266.015 1534.2 250.511 1534.2 203.354C1534.2 189.572 1538.93 145.43 1589.11 145.43C1611.72 145.43 1642.94 156.196 1642.94 208.522V213.905H1564.34C1565.2 222.518 1566.93 241.898 1591.26 241.898C1599.66 241.898 1608.27 237.591 1610.64 229.409ZM1565.2 194.31H1611.93C1610.21 175.791 1598.37 170.193 1588.68 170.193C1574.46 170.193 1566.93 179.237 1565.2 194.31ZM1662.68 263V148.444H1691.53V168.255H1691.96C1698.21 156.627 1705.1 145.43 1723.4 145.43C1725.34 145.43 1727.28 145.645 1729.21 145.86V176.437C1726.63 176.007 1723.4 176.007 1720.6 176.007C1697.13 176.007 1692.82 190.649 1692.82 203.354V263H1662.68Z" fill="#E3E3E3" style="fill:#E3E3E3;fill:color(display-p3 0.8902 0.8902 0.8902);fill-opacity:1;"/>
<circle cx="111.5" cy="175.5" r="9.5" fill="#4F4F4F" style="fill:#4F4F4F;fill:color(display-p3 0.3084 0.3084 0.3084);fill-opacity:1;"/>
<circle cx="205.5" cy="175.5" r="9.5" fill="#4F4F4F" style="fill:#4F4F4F;fill:color(display-p3 0.3084 0.3084 0.3084);fill-opacity:1;"/>
<defs>
<filter id="filter0_d_673_4" x="31.9943" y="19.2159" width="323.63" height="351.903" filterUnits="userSpaceOnUse" color-interpolation-filters="sRGB">
<feFlood flood-opacity="0" result="BackgroundImageFix"/>
<feColorMatrix in="SourceAlpha" type="matrix" values="0 0 0 0 0 0 0 0 0 0 0 0 0 0 0 0 0 0 127 0" result="hardAlpha"/>
<feOffset dx="4.44602" dy="2.66761"/>
<feGaussianBlur stdDeviation="10.2258"/>
<feComposite in2="hardAlpha" operator="out"/>
<feColorMatrix type="matrix" values="0 0 0 0 0 0 0 0 0 0 0 0 0 0 0 0 0 0 0.25 0"/>
<feBlend mode="normal" in2="BackgroundImageFix" result="effect1_dropShadow_673_4"/>
<feBlend mode="normal" in="SourceGraphic" in2="effect1_dropShadow_673_4" result="shape"/>
</filter>
<linearGradient id="paint0_linear_673_4" x1="219.653" y1="74.6973" x2="219.653" y2="280.852" gradientUnits="userSpaceOnUse">
<stop stop-color="#00ADEF" style="stop-color:#00ADEF;stop-color:color(display-p3 0.0000 0.6784 0.9373);stop-opacity:1;"/>
<stop offset="1" stop-color="#007EAE" style="stop-color:#007EAE;stop-color:color(display-p3 0.0000 0.4946 0.6833);stop-opacity:1;"/>
</linearGradient>
</defs>
</svg>
