<svg width="1566" height="385" viewBox="0 0 1566 385" fill="none" xmlns="http://www.w3.org/2000/svg">
<g filter="url(#filter0_d_678_38)">
<path d="M274.533 75.6969C261.633 36.356 200.405 37.8704 188.779 75.6969H178.645C194.708 23.4776 271.186 27.4299 284.667 75.6969H274.533Z" fill="#D8D8D8" style="fill:#D8D8D8;fill:color(display-p3 0.8458 0.8458 0.8458);fill-opacity:1;"/>
<rect x="120.582" y="75.6973" width="222.143" height="206.155" rx="29.4507" fill="url(#paint0_linear_678_38)" style=""/>
<rect x="60" y="142.845" width="222.143" height="206.155" rx="29.4507" fill="#D8D8D8" style="fill:#D8D8D8;fill:color(display-p3 0.8458 0.8458 0.8458);fill-opacity:1;"/>
<path d="M213.951 179.364C201.051 245.752 139.823 243.196 128.197 179.364H118.062C134.126 267.484 210.604 260.815 224.085 179.364H213.951Z" fill="#4F4F4F" style="fill:#4F4F4F;fill:color(display-p3 0.3084 0.3084 0.3084);fill-opacity:1;"/>
</g>
<path d="M405.579 211V75.6222H446.098L477.718 159.878L508.959 75.6222H548.72V211H518.236V115.951L480.747 211H470.712L433.033 115.951V211H405.579ZM601.404 213.083C583.416 213.083 568.269 204.373 568.269 183.546C568.269 160.446 589.475 151.737 619.77 151.737H630.941V147.761C630.941 136.022 627.343 129.584 614.847 129.584C604.054 129.584 599.132 135.075 597.996 143.595H572.056C573.76 120.117 592.315 109.703 616.551 109.703C640.786 109.703 658.016 119.549 658.016 146.435V211H631.319V199.072C625.639 207.024 616.93 213.083 601.404 213.083ZM609.545 193.959C621.663 193.959 630.941 187.333 630.941 176.351V168.02H620.338C604.433 168.02 595.155 171.428 595.155 182.031C595.155 189.226 599.51 193.959 609.545 193.959ZM726.454 213.083C697.485 213.083 675.521 195.095 675.521 162.718V161.204C675.521 129.205 698.431 109.703 726.643 109.703C749.553 109.703 770.759 119.738 773.22 148.139H747.281C745.388 136.59 738.382 131.288 727.211 131.288C713.01 131.288 703.544 141.891 703.544 160.825V162.34C703.544 182.22 712.442 192.445 727.779 192.445C738.761 192.445 747.66 186.007 748.985 173.321H773.789C772.274 196.8 755.233 213.083 726.454 213.083ZM791.042 244.702V111.975H818.496V127.501C823.987 118.034 835.537 109.703 850.116 109.703C874.352 109.703 893.285 127.691 893.285 160.446V161.961C893.285 194.717 874.73 213.083 850.116 213.083C834.78 213.083 823.609 205.509 818.496 195.853V244.702H791.042ZM841.974 191.687C857.122 191.687 865.453 181.463 865.453 162.15V160.636C865.453 140.566 855.607 130.72 841.785 130.72C827.395 130.72 817.55 140.755 817.55 160.636V162.15C817.55 182.031 827.017 191.687 841.974 191.687ZM911.598 211V111.975H939.052V130.909C945.301 117.656 954.957 110.65 971.051 110.461V136.022C950.791 135.832 939.052 142.459 939.052 161.393V211H911.598ZM1032.85 213.083C1002.94 213.083 981.164 194.338 981.164 162.718V161.204C981.164 129.963 1003.32 109.703 1032.1 109.703C1057.66 109.703 1080.38 124.661 1080.38 160.068V167.641H1009C1009.75 184.114 1018.65 193.581 1033.61 193.581C1046.3 193.581 1052.55 188.09 1054.25 179.759H1080.19C1076.97 201.154 1059.93 213.083 1032.85 213.083ZM1009.38 150.79H1053.68C1052.73 135.832 1045.16 128.637 1032.1 128.637C1019.79 128.637 1011.46 136.779 1009.38 150.79ZM1098.35 211V111.975H1125.8V127.123C1130.73 117.845 1141.33 109.703 1156.1 109.703C1169.16 109.703 1179.01 115.194 1183.74 126.933C1191.69 115.005 1204.57 109.703 1217.07 109.703C1235.43 109.703 1249.63 121.253 1249.63 147.571V211H1222.37V150.601C1222.37 137.915 1216.69 132.235 1206.84 132.235C1196.24 132.235 1187.72 139.051 1187.72 152.494V211H1160.45V150.601C1160.45 137.915 1154.58 132.235 1144.93 132.235C1134.32 132.235 1125.8 139.051 1125.8 152.494V211H1098.35ZM1273.84 211V111.975H1301.1V211H1273.84ZM1287.28 98.5323C1278.57 98.5323 1271.76 92.0947 1271.76 83.5744C1271.76 75.0541 1278.57 68.6166 1287.28 68.6166C1296.18 68.6166 1303 75.0541 1303 83.5744C1303 92.0947 1296.18 98.5323 1287.28 98.5323ZM1371.96 213.083C1342.05 213.083 1320.27 194.338 1320.27 162.718V161.204C1320.27 129.963 1342.43 109.703 1371.21 109.703C1396.77 109.703 1419.49 124.661 1419.49 160.068V167.641H1348.11C1348.86 184.114 1357.76 193.581 1372.72 193.581C1385.41 193.581 1391.66 188.09 1393.36 179.759H1419.3C1416.08 201.154 1399.04 213.083 1371.96 213.083ZM1348.49 150.79H1392.79C1391.84 135.832 1384.27 128.637 1371.21 128.637C1358.9 128.637 1350.57 136.779 1348.49 150.79ZM1437.46 211V111.975H1464.91V130.909C1471.16 117.656 1480.82 110.65 1496.91 110.461V136.022C1476.65 135.832 1464.91 142.459 1464.91 161.393V211H1437.46Z" fill="#D8D8D8" style="fill:#D8D8D8;fill:color(display-p3 0.8458 0.8458 0.8458);fill-opacity:1;"/>
<path d="M1193.55 334V242.238H1221.14C1238.21 242.238 1250.66 247.885 1250.66 265.98V266.494C1250.66 274.836 1247.32 282.279 1236.8 285.873C1250.15 289.081 1255.15 295.883 1255.15 307.819V308.332C1255.15 325.658 1243.35 334 1224.99 334H1193.55ZM1204.46 325.273H1224.74C1238.08 325.273 1244.24 319.369 1244.24 308.204V307.691C1244.24 296.397 1237.96 291.006 1223.2 291.006H1204.46V325.273ZM1204.46 282.279H1221.14C1234.62 282.279 1239.75 277.403 1239.75 266.109V265.595C1239.75 255.2 1233.72 250.965 1220.89 250.965H1204.46V282.279ZM1272.62 334V266.879H1283.27V278.943C1287.5 271.371 1293.28 266.109 1305.34 265.724V275.734C1291.87 276.376 1283.27 280.611 1283.27 297.167V334H1272.62ZM1337.05 335.155C1324.61 335.155 1314.72 329.123 1314.72 315.391C1314.72 299.862 1331.15 294.6 1348.35 294.6H1357.97V289.723C1357.97 279.071 1353.87 274.579 1343.6 274.579C1334.36 274.579 1329.23 278.429 1328.2 286.643H1317.55C1318.96 271.371 1331.15 265.724 1344.11 265.724C1356.95 265.724 1368.63 270.986 1368.63 289.723V334H1357.97V325.53C1352.97 331.818 1346.94 335.155 1337.05 335.155ZM1338.08 326.685C1349.38 326.685 1357.97 320.909 1357.97 310.514V302.172H1348.73C1335.26 302.172 1325.38 305.509 1325.38 315.391C1325.38 322.321 1328.71 326.685 1338.08 326.685ZM1410.34 335.155C1394.3 335.155 1384.67 327.07 1384.03 313.337H1394.43C1395.2 321.294 1399.43 326.3 1410.21 326.3C1420.35 326.3 1424.84 322.835 1424.84 315.648C1424.84 308.589 1419.58 306.279 1409.19 304.354C1391.73 301.145 1385.83 296.268 1385.83 284.589C1385.83 272.141 1398.02 265.724 1408.54 265.724C1420.61 265.724 1431 270.601 1432.8 285.103H1422.53C1420.99 277.788 1416.89 274.579 1408.42 274.579C1400.72 274.579 1395.71 278.429 1395.71 284.204C1395.71 290.236 1399.05 292.675 1411.37 294.857C1425.23 297.423 1434.98 300.504 1434.98 314.749C1434.98 326.941 1426.64 335.155 1410.34 335.155ZM1451.47 334V266.879H1462.12V334H1451.47ZM1456.6 252.89C1452.75 252.89 1449.54 249.681 1449.54 245.831C1449.54 241.981 1452.75 238.772 1456.6 238.772C1460.45 238.772 1463.66 241.981 1463.66 245.831C1463.66 249.681 1460.45 252.89 1456.6 252.89ZM1484.18 334V234.794H1494.96V334H1484.18Z" fill="#C1C1C1" style="fill:#C1C1C1;fill:color(display-p3 0.7583 0.7583 0.7583);fill-opacity:1;"/>
<circle cx="123.5" cy="176.5" r="9.5" fill="#4F4F4F" style="fill:#4F4F4F;fill:color(display-p3 0.3084 0.3084 0.3084);fill-opacity:1;"/>
<circle cx="217.5" cy="176.5" r="9.5" fill="#4F4F4F" style="fill:#4F4F4F;fill:color(display-p3 0.3084 0.3084 0.3084);fill-opacity:1;"/>
<defs>
<filter id="filter0_d_678_38" x="43.9943" y="20.2159" width="323.63" height="351.903" filterUnits="userSpaceOnUse" color-interpolation-filters="sRGB">
<feFlood flood-opacity="0" result="BackgroundImageFix"/>
<feColorMatrix in="SourceAlpha" type="matrix" values="0 0 0 0 0 0 0 0 0 0 0 0 0 0 0 0 0 0 127 0" result="hardAlpha"/>
<feOffset dx="4.44602" dy="2.66761"/>
<feGaussianBlur stdDeviation="10.2258"/>
<feComposite in2="hardAlpha" operator="out"/>
<feColorMatrix type="matrix" values="0 0 0 0 0 0 0 0 0 0 0 0 0 0 0 0 0 0 0.25 0"/>
<feBlend mode="normal" in2="BackgroundImageFix" result="effect1_dropShadow_678_38"/>
<feBlend mode="normal" in="SourceGraphic" in2="effect1_dropShadow_678_38" result="shape"/>
</filter>
<linearGradient id="paint0_linear_678_38" x1="231.653" y1="75.6973" x2="231.653" y2="281.852" gradientUnits="userSpaceOnUse">
<stop stop-color="#00ADEF" style="stop-color:#00ADEF;stop-color:color(display-p3 0.0000 0.6784 0.9373);stop-opacity:1;"/>
<stop offset="1" stop-color="#007EAE" style="stop-color:#007EAE;stop-color:color(display-p3 0.0000 0.4946 0.6833);stop-opacity:1;"/>
</linearGradient>
</defs>
</svg>
