<svg width="321" height="99" viewBox="0 0 321 99" fill="none" xmlns="http://www.w3.org/2000/svg">
<g clip-path="url(#clip0_427_60)">
<rect width="321" height="97.8504" transform="translate(0 0.574707)" fill="#5171A8"/>
<g filter="url(#filter0_d_427_60)">
<path d="M134.746 50.083V18.4452H127.072L118.083 40.8745H117.907L108.918 18.4452H101.244V50.083H107.142V28.7281H107.318L115.912 49.7761H120.078L128.672 28.7281H128.848V50.083H134.746ZM150.089 45.238C147.616 45.238 145.968 43.9893 145.968 41.9914C145.968 40.0933 147.516 38.8696 150.238 38.6698L155.883 38.3202V40.2682C155.883 43.1652 153.26 45.238 150.089 45.238ZM147.691 50.5076C151.038 50.5076 154.359 48.8343 155.858 45.9872H156.007V50.083H163.05V31.677C163.05 26.2826 158.58 22.7363 151.712 22.7363C144.619 22.7363 140.199 26.3076 139.924 31.5022H146.592C146.942 29.5293 148.665 28.1807 151.387 28.1807C154.134 28.1807 155.883 29.6292 155.883 32.1266V33.8997L149.14 34.2993C142.471 34.6989 138.725 37.521 138.725 42.391C138.725 47.211 142.596 50.5076 147.691 50.5076ZM192.095 33.2754C191.77 27.2067 187.175 22.7363 179.933 22.7363C171.916 22.7363 166.796 28.0808 166.796 36.6719C166.796 45.4128 171.916 50.6574 179.983 50.6574C187.025 50.6574 191.745 46.5866 192.12 40.2682H185.327C184.878 43.1901 182.98 44.9383 180.058 44.9383C176.436 44.9383 174.189 41.9414 174.189 36.6719C174.189 31.5022 176.436 28.4554 180.033 28.4554C183.029 28.4554 184.903 30.4533 185.327 33.2754H192.095ZM101.244 58.4452V90.083H107.866V80.1071H113.785C120.451 80.1071 125.077 75.766 125.077 69.2762C125.077 62.7645 120.604 58.4452 114.114 58.4452H101.244ZM107.866 63.6853H112.36C116.153 63.6853 118.346 65.7024 118.346 69.2981C118.346 72.9157 116.131 74.9328 112.338 74.9328H107.866V63.6853ZM128.743 90.083H136.035V75.1235C136.035 71.3524 138.133 69.1547 141.729 69.1547C142.778 69.1547 143.777 69.3295 144.377 69.5792V63.1609C143.877 63.011 143.153 62.8861 142.304 62.8861C139.157 62.8861 136.884 64.7342 135.935 68.1307H135.786V63.3107H128.743V90.083ZM158.487 68.1307C161.734 68.1307 163.956 70.4783 164.106 73.8997H152.743C152.993 70.5532 155.29 68.1307 158.487 68.1307ZM164.206 81.8915C163.532 83.9394 161.484 85.263 158.812 85.263C155.091 85.263 152.668 82.6407 152.668 78.8197V78.3701H171.124V76.1474C171.124 68.0058 166.204 62.7363 158.412 62.7363C150.495 62.7363 145.501 68.2806 145.501 76.8217C145.501 85.3879 150.445 90.6574 158.687 90.6574C165.305 90.6574 170.1 87.1361 170.899 81.8915H164.206ZM174.895 90.083H182.188V73.9247C182.188 70.9278 184.061 68.83 186.833 68.83C189.53 68.83 191.153 70.5282 191.153 73.4003V90.083H198.171V73.8248C198.171 70.8529 199.994 68.83 202.766 68.83C205.588 68.83 207.137 70.5282 207.137 73.625V90.083H214.429V71.8019C214.429 66.4075 210.908 62.8112 205.663 62.8112C201.742 62.8112 198.546 64.934 197.347 68.3055H197.197C196.298 64.8092 193.601 62.8112 189.73 62.8112C186.084 62.8112 183.212 64.934 182.088 68.1557H181.938V63.3107H174.895V90.083ZM219.174 90.083H226.467V63.3107H219.174V90.083ZM222.821 60.3637C225.018 60.3637 226.717 58.6905 226.717 56.5926C226.717 54.4698 225.018 52.8216 222.821 52.8216C220.623 52.8216 218.925 54.4698 218.925 56.5926C218.925 58.6905 220.623 60.3637 222.821 60.3637ZM243.349 68.1307C246.596 68.1307 248.819 70.4783 248.969 73.8997H237.605C237.855 70.5532 240.153 68.1307 243.349 68.1307ZM249.068 81.8915C248.394 83.9394 246.346 85.263 243.674 85.263C239.953 85.263 237.53 82.6407 237.53 78.8197V78.3701H255.986V76.1474C255.986 68.0058 251.066 62.7363 243.274 62.7363C235.358 62.7363 230.363 68.2806 230.363 76.8217C230.363 85.3879 235.308 90.6574 243.549 90.6574C250.167 90.6574 254.962 87.1361 255.761 81.8915H249.068ZM259.757 90.083H267.05V75.1235C267.05 71.3524 269.148 69.1547 272.744 69.1547C273.793 69.1547 274.792 69.3295 275.391 69.5792V63.1609C274.892 63.011 274.167 62.8861 273.318 62.8861C270.172 62.8861 267.899 64.7342 266.95 68.1307H266.8V63.3107H259.757V90.083ZM296.544 73.7499H291.175L291.125 70.4533H295.72C296.486 70.4533 297.194 70.3451 297.843 70.1286C298.492 69.8956 299.017 69.5626 299.416 69.1297C299.816 68.6968 300.016 68.164 300.016 67.5313C300.016 66.6989 299.874 66.0495 299.591 65.5833C299.325 65.1172 298.867 64.7759 298.218 64.5594C297.568 64.343 296.694 64.2347 295.595 64.2347H292.299V82.1912H288.627V60.9631H295.595C297.244 60.9631 298.675 61.2129 299.891 61.7124C301.106 62.1952 302.039 62.9194 302.688 63.8851C303.354 64.8508 303.687 66.0495 303.687 67.4814C303.687 68.3805 303.47 69.1796 303.038 69.8789C302.621 70.5782 302.014 71.1776 301.214 71.677C300.415 72.1765 299.425 72.5844 298.243 72.9008C298.193 72.9008 298.134 72.9591 298.068 73.0756C298.018 73.1755 297.968 73.2254 297.918 73.2254C297.635 73.3919 297.452 73.5168 297.368 73.6001C297.302 73.6667 297.227 73.7083 297.144 73.7249C297.077 73.7416 296.877 73.7499 296.544 73.7499ZM296.295 73.7499L296.819 71.0777C299.416 71.0777 301.189 71.6604 302.139 72.8259C303.104 73.9913 303.587 75.4565 303.587 77.2213V78.6199C303.587 79.2359 303.62 79.8269 303.687 80.393C303.754 80.9425 303.862 81.4086 304.012 81.7916V82.1912H300.24C300.074 81.7583 299.974 81.1423 299.941 80.3431C299.924 79.5439 299.916 78.9612 299.916 78.5949V77.2463C299.916 76.0642 299.641 75.1901 299.092 74.624C298.542 74.0413 297.61 73.7499 296.295 73.7499ZM281.185 71.8768C281.185 74.0746 281.568 76.1224 282.334 78.0205C283.1 79.9185 284.157 81.5835 285.506 83.0153C286.854 84.4305 288.419 85.5377 290.201 86.3369C291.982 87.1194 293.897 87.5107 295.945 87.5107C297.976 87.5107 299.874 87.1194 301.639 86.3369C303.421 85.5377 304.986 84.4305 306.334 83.0153C307.683 81.5835 308.74 79.9185 309.506 78.0205C310.272 76.1224 310.655 74.0746 310.655 71.8768C310.655 69.6625 310.272 67.6146 309.506 65.7332C308.74 63.8352 307.683 62.1785 306.334 60.7633C304.986 59.3481 303.421 58.2493 301.639 57.4667C299.874 56.6842 297.976 56.293 295.945 56.293C293.897 56.293 291.982 56.6842 290.201 57.4667C288.419 58.2493 286.854 59.3481 285.506 60.7633C284.157 62.1785 283.1 63.8352 282.334 65.7332C281.568 67.6146 281.185 69.6625 281.185 71.8768ZM278.213 71.8768C278.213 69.2296 278.671 66.7738 279.587 64.5095C280.503 62.2451 281.776 60.2722 283.408 58.5906C285.04 56.8923 286.921 55.577 289.052 54.6447C291.2 53.6956 293.497 53.2211 295.945 53.2211C298.392 53.2211 300.682 53.6956 302.813 54.6447C304.961 55.577 306.842 56.8923 308.457 58.5906C310.089 60.2722 311.362 62.2451 312.278 64.5095C313.194 66.7738 313.652 69.2296 313.652 71.8768C313.652 74.5241 313.194 76.9799 312.278 79.2442C311.362 81.5085 310.089 83.4898 308.457 85.1881C306.842 86.8863 304.961 88.2099 302.813 89.159C300.682 90.108 298.392 90.5825 295.945 90.5825C293.497 90.5825 291.2 90.108 289.052 89.159C286.921 88.2099 285.04 86.8863 283.408 85.1881C281.776 83.4898 280.503 81.5085 279.587 79.2442C278.671 76.9799 278.213 74.5241 278.213 71.8768Z" fill="#E3E3E3"/>
</g>
<g filter="url(#filter1_d_427_60)">
<path d="M65.7725 15.7337C62.0855 4.48909 44.5848 4.92193 41.2619 15.7337H38.3652C42.9566 0.808115 64.8159 1.93778 68.6692 15.7337H65.7725Z" fill="#D8D8D8"/>
<rect x="21.7695" y="15.7334" width="63.4939" height="58.9243" rx="8.41776" fill="url(#paint0_linear_427_60)"/>
<rect x="4.45312" y="34.9258" width="63.4939" height="58.9243" rx="8.41776" fill="#D8D8D8"/>
<path d="M48.4561 45.364C44.7691 64.3393 27.2684 63.6089 23.9455 45.364H21.0488C25.6402 70.551 47.4995 68.6447 51.3528 45.364H48.4561Z" fill="#7884A4"/>
</g>
</g>
<defs>
<filter id="filter0_d_427_60" x="99.2109" y="16.4121" width="216.475" height="76.2784" filterUnits="userSpaceOnUse" color-interpolation-filters="sRGB">
<feFlood flood-opacity="0" result="BackgroundImageFix"/>
<feColorMatrix in="SourceAlpha" type="matrix" values="0 0 0 0 0 0 0 0 0 0 0 0 0 0 0 0 0 0 127 0" result="hardAlpha"/>
<feOffset/>
<feGaussianBlur stdDeviation="1.01663"/>
<feComposite in2="hardAlpha" operator="out"/>
<feColorMatrix type="matrix" values="0 0 0 0 0 0 0 0 0 0 0 0 0 0 0 0 0 0 0.28 0"/>
<feBlend mode="normal" in2="BackgroundImageFix" result="effect1_dropShadow_427_60"/>
<feBlend mode="normal" in="SourceGraphic" in2="effect1_dropShadow_427_60" result="shape"/>
</filter>
<filter id="filter1_d_427_60" x="-0.121697" y="-0.124151" width="92.5018" height="100.582" filterUnits="userSpaceOnUse" color-interpolation-filters="sRGB">
<feFlood flood-opacity="0" result="BackgroundImageFix"/>
<feColorMatrix in="SourceAlpha" type="matrix" values="0 0 0 0 0 0 0 0 0 0 0 0 0 0 0 0 0 0 127 0" result="hardAlpha"/>
<feOffset dx="1.27078" dy="0.76247"/>
<feGaussianBlur stdDeviation="2.9228"/>
<feComposite in2="hardAlpha" operator="out"/>
<feColorMatrix type="matrix" values="0 0 0 0 0 0 0 0 0 0 0 0 0 0 0 0 0 0 0.25 0"/>
<feBlend mode="normal" in2="BackgroundImageFix" result="effect1_dropShadow_427_60"/>
<feBlend mode="normal" in="SourceGraphic" in2="effect1_dropShadow_427_60" result="shape"/>
</filter>
<linearGradient id="paint0_linear_427_60" x1="53.5165" y1="15.7334" x2="53.5165" y2="74.6577" gradientUnits="userSpaceOnUse">
<stop stop-color="#00ADEF"/>
<stop offset="1" stop-color="#007EAE"/>
</linearGradient>
<clipPath id="clip0_427_60">
<rect width="321" height="97.8504" fill="white" transform="translate(0 0.574707)"/>
</clipPath>
</defs>
</svg>
