<svg width="1698" height="400" viewBox="0 0 1698 400" fill="none" xmlns="http://www.w3.org/2000/svg">
<path d="M274.866 104.818C256.89 11.083 171.563 14.6911 155.362 104.818H141.238C163.624 -19.6014 270.202 -10.1846 288.989 104.818H274.866Z" fill="white"/>
<rect x="61" y="97.4727" width="309.573" height="287.293" rx="29.9392" fill="url(#paint0_linear_782_2)"/>
<path d="M324.438 212.752V305.281H290.016V216.857C290.016 205.909 288.016 197.804 284.015 192.54C280.226 187.067 274.226 184.33 266.015 184.33C260.12 184.33 254.962 185.593 250.541 188.119C246.33 190.646 242.961 194.33 240.435 199.172C238.119 204.015 236.961 209.91 236.961 216.857V305.281H202.855V216.857C202.855 205.909 200.855 197.804 196.855 192.54C193.065 187.067 186.959 184.33 178.538 184.33C172.854 184.33 167.801 185.593 163.38 188.119C159.169 190.646 155.8 194.33 153.274 199.172C150.958 204.015 149.8 209.91 149.8 216.857V305.281H116.325V160.013H149.8V181.172C154.221 173.171 159.801 167.171 166.538 163.171C173.275 158.96 181.38 156.855 190.854 156.855C201.381 156.855 210.118 159.066 217.066 163.487C224.224 167.908 229.382 174.329 232.54 182.751C237.803 174.119 244.225 167.698 251.804 163.487C259.594 159.066 268.331 156.855 278.015 156.855C288.542 156.855 297.174 159.066 303.911 163.487C310.648 167.698 315.701 174.014 319.069 182.435C322.648 190.856 324.438 200.962 324.438 212.752ZM376.513 260.122C376.513 264.964 377.671 269.175 379.987 272.754C382.303 276.122 385.461 278.649 389.461 280.333C393.671 282.017 398.408 282.859 403.672 282.859C410.619 282.859 416.83 281.491 422.304 278.754C427.988 275.807 432.515 271.701 435.883 266.438C439.252 261.174 440.936 254.858 440.936 247.49L445.989 266.438C445.989 275.701 443.252 283.491 437.778 289.807C432.515 296.123 425.778 300.86 417.567 304.018C409.567 306.966 401.356 308.439 392.935 308.439C383.882 308.439 375.46 306.65 367.67 303.071C359.881 299.492 353.67 294.228 349.038 287.281C344.406 280.333 342.091 271.912 342.091 262.017C342.091 247.911 347.038 236.753 356.933 228.542C366.828 220.12 380.829 215.91 398.935 215.91C408.619 215.91 416.935 216.962 423.883 219.068C431.041 221.173 436.936 223.699 441.568 226.647C446.2 229.384 449.463 231.91 451.358 234.226V251.595C444.831 246.963 437.883 243.595 430.515 241.49C423.146 239.384 415.356 238.332 407.146 238.332C399.987 238.332 394.198 239.279 389.776 241.174C385.355 242.858 381.987 245.279 379.671 248.437C377.566 251.595 376.513 255.49 376.513 260.122ZM365.776 197.909L351.88 173.908C358.618 169.908 367.144 166.013 377.46 162.224C387.776 158.434 399.777 156.539 413.462 156.539C425.251 156.539 435.778 158.329 445.042 161.908C454.305 165.276 461.463 170.329 466.516 177.066C471.779 183.803 474.411 192.014 474.411 201.699V305.281H440.936V208.331C440.936 203.699 440.199 199.909 438.726 196.962C437.252 194.014 435.041 191.593 432.094 189.698C429.357 187.803 426.094 186.435 422.304 185.593C418.514 184.751 414.409 184.33 409.988 184.33C403.251 184.33 396.829 185.172 390.724 186.856C384.829 188.33 379.776 190.225 375.565 192.54C371.355 194.646 368.092 196.435 365.776 197.909ZM524.278 232.647C524.278 241.7 526.278 249.7 530.278 256.648C534.278 263.596 539.647 269.069 546.384 273.07C553.332 277.07 561.016 279.07 569.437 279.07C576.596 279.07 583.227 278.017 589.333 275.912C595.649 273.596 601.228 270.648 606.07 267.069C610.912 263.28 614.492 259.069 616.807 254.437V292.018C611.755 297.07 604.912 301.071 596.28 304.018C587.649 306.966 578.175 308.439 567.858 308.439C553.121 308.439 539.752 305.281 527.752 298.965C515.962 292.439 506.593 283.491 499.645 272.122C492.698 260.543 489.224 247.384 489.224 232.647C489.224 217.699 492.698 204.541 499.645 193.172C506.593 181.803 515.962 172.961 527.752 166.645C539.752 160.118 553.121 156.855 567.858 156.855C578.175 156.855 587.649 158.329 596.28 161.276C604.912 164.224 611.755 168.119 616.807 172.961V210.857C614.492 206.015 610.807 201.804 605.754 198.225C600.912 194.435 595.333 191.488 589.017 189.382C582.701 187.277 576.174 186.224 569.437 186.224C561.016 186.224 553.332 188.225 546.384 192.225C539.647 196.225 534.278 201.699 530.278 208.646C526.278 215.594 524.278 223.594 524.278 232.647ZM675.033 374.757H640.611V160.013H675.033V374.757ZM795.353 232.647C795.353 248.648 792.09 262.438 785.563 274.017C779.037 285.386 770.405 294.123 759.668 300.228C748.93 306.123 737.246 309.071 724.614 309.071C712.403 309.071 701.666 306.018 692.402 299.913C683.349 293.597 676.296 284.754 671.244 273.385C666.191 261.806 663.664 248.227 663.664 232.647C663.664 216.857 666.191 203.278 671.244 191.909C676.296 180.54 683.349 171.698 692.402 165.382C701.666 159.066 712.403 155.908 724.614 155.908C737.246 155.908 748.93 158.96 759.668 165.066C770.405 171.171 779.037 179.908 785.563 191.277C792.09 202.436 795.353 216.226 795.353 232.647ZM759.983 232.647C759.983 222.963 757.983 214.752 753.983 208.015C749.983 201.067 744.72 195.909 738.193 192.54C731.667 188.961 724.403 187.172 716.403 187.172C709.666 187.172 703.139 188.961 696.823 192.54C690.507 195.909 685.244 200.962 681.033 207.699C677.033 214.436 675.033 222.752 675.033 232.647C675.033 242.542 677.033 250.858 681.033 257.595C685.244 264.332 690.507 269.491 696.823 273.07C703.139 276.438 709.666 278.122 716.403 278.122C724.403 278.122 731.667 276.333 738.193 272.754C744.72 269.175 749.983 264.017 753.983 257.28C757.983 250.543 759.983 242.332 759.983 232.647ZM848.997 160.013V305.281H815.207V160.013H848.997ZM892.262 196.33C889.314 193.804 886.367 191.909 883.419 190.646C880.683 189.382 877.209 188.751 872.998 188.751C867.314 188.751 862.682 190.225 859.103 193.172C855.524 196.12 852.892 200.225 851.208 205.488C849.734 210.541 848.997 216.541 848.997 223.489L837.628 216.857C837.628 205.278 839.734 195.067 843.944 186.224C848.366 177.172 853.945 170.013 860.682 164.75C867.629 159.276 874.788 156.539 882.156 156.539C887.42 156.539 892.367 157.381 896.999 159.066C901.631 160.75 905.631 163.592 908.999 167.592L892.262 196.33ZM978.3 308.439C963.563 308.439 950.51 305.281 939.141 298.965C927.983 292.649 919.351 283.807 913.245 272.438C907.14 261.069 904.087 247.806 904.087 232.647C904.087 217.278 907.14 203.909 913.245 192.54C919.561 181.172 928.404 172.435 939.773 166.329C951.141 160.013 964.51 156.855 979.879 156.855C995.248 156.855 1008.3 159.803 1019.04 165.697C1029.99 171.592 1038.3 180.119 1043.99 191.277C1049.67 202.225 1052.51 215.489 1052.51 231.068C1052.51 232.752 1052.41 234.542 1052.2 236.437C1052.2 238.332 1052.2 239.7 1052.2 240.542H924.614V216.857H1022.83L1012.41 231.384C1013.04 230.121 1013.67 228.436 1014.3 226.331C1015.14 224.226 1015.56 222.436 1015.56 220.963C1015.56 213.173 1013.99 206.436 1010.83 200.751C1007.88 195.067 1003.67 190.646 998.196 187.488C992.932 184.33 986.722 182.751 979.563 182.751C970.932 182.751 963.563 184.645 957.457 188.435C951.562 192.225 946.931 197.699 943.562 204.857C940.404 212.015 938.825 220.857 938.825 231.384C938.615 241.7 940.088 250.543 943.246 257.911C946.615 265.28 951.352 270.859 957.457 274.649C963.563 278.438 971.037 280.333 979.879 280.333C989.353 280.333 997.564 278.438 1004.51 274.649C1011.46 270.859 1017.14 265.069 1021.56 257.28L1051.25 268.964C1043.46 282.017 1033.57 291.912 1021.56 298.649C1009.56 305.176 995.143 308.439 978.3 308.439ZM1280.86 212.752V305.281H1246.43V216.857C1246.43 205.909 1244.43 197.804 1240.43 192.54C1236.64 187.067 1230.64 184.33 1222.43 184.33C1216.54 184.33 1211.38 185.593 1206.96 188.119C1202.75 190.646 1199.38 194.33 1196.85 199.172C1194.54 204.015 1193.38 209.91 1193.38 216.857V305.281H1159.27V216.857C1159.27 205.909 1157.27 197.804 1153.27 192.54C1149.48 187.067 1143.38 184.33 1134.96 184.33C1129.27 184.33 1124.22 185.593 1119.8 188.119C1115.59 190.646 1112.22 194.33 1109.69 199.172C1107.38 204.015 1106.22 209.91 1106.22 216.857V305.281H1072.74V160.013H1106.22V181.172C1110.64 173.171 1116.22 167.171 1122.96 163.171C1129.69 158.96 1137.8 156.855 1147.27 156.855C1157.8 156.855 1166.54 159.066 1173.48 163.487C1180.64 167.908 1185.8 174.329 1188.96 182.751C1194.22 174.119 1200.64 167.698 1208.22 163.487C1216.01 159.066 1224.75 156.855 1234.43 156.855C1244.96 156.855 1253.59 159.066 1260.33 163.487C1267.07 167.698 1272.12 174.014 1275.49 182.435C1279.07 190.856 1280.86 200.962 1280.86 212.752ZM1310.19 102.222C1310.19 96.3266 1312.3 91.3791 1316.51 87.3789C1320.93 83.3788 1325.98 81.3787 1331.67 81.3787C1337.77 81.3787 1342.93 83.3788 1347.14 87.3789C1351.35 91.3791 1353.46 96.3266 1353.46 102.222C1353.46 107.906 1351.35 112.853 1347.14 117.064C1342.93 121.064 1337.77 123.064 1331.67 123.064C1325.98 123.064 1320.93 121.064 1316.51 117.064C1312.3 112.853 1310.19 107.906 1310.19 102.222ZM1314.93 160.013H1348.72V305.281H1314.93V160.013ZM1446.18 308.439C1431.44 308.439 1418.39 305.281 1407.02 298.965C1395.86 292.649 1387.23 283.807 1381.12 272.438C1375.02 261.069 1371.97 247.806 1371.97 232.647C1371.97 217.278 1375.02 203.909 1381.12 192.54C1387.44 181.172 1396.28 172.435 1407.65 166.329C1419.02 160.013 1432.39 156.855 1447.76 156.855C1463.13 156.855 1476.18 159.803 1486.92 165.697C1497.86 171.592 1506.18 180.119 1511.86 191.277C1517.55 202.225 1520.39 215.489 1520.39 231.068C1520.39 232.752 1520.29 234.542 1520.08 236.437C1520.08 238.332 1520.08 239.7 1520.08 240.542H1392.49V216.857H1490.71L1480.28 231.384C1480.92 230.121 1481.55 228.436 1482.18 226.331C1483.02 224.226 1483.44 222.436 1483.44 220.963C1483.44 213.173 1481.86 206.436 1478.71 200.751C1475.76 195.067 1471.55 190.646 1466.07 187.488C1460.81 184.33 1454.6 182.751 1447.44 182.751C1438.81 182.751 1431.44 184.645 1425.34 188.435C1419.44 192.225 1414.81 197.699 1411.44 204.857C1408.28 212.015 1406.7 220.857 1406.7 231.384C1406.49 241.7 1407.97 250.543 1411.12 257.911C1414.49 265.28 1419.23 270.859 1425.34 274.649C1431.44 278.438 1438.91 280.333 1447.76 280.333C1457.23 280.333 1465.44 278.438 1472.39 274.649C1479.34 270.859 1485.02 265.069 1489.44 257.28L1519.13 268.964C1511.34 282.017 1501.44 291.912 1489.44 298.649C1477.44 305.176 1463.02 308.439 1446.18 308.439ZM1574.41 160.013V305.281H1540.62V160.013H1574.41ZM1617.68 196.33C1614.73 193.804 1611.78 191.909 1608.84 190.646C1606.1 189.382 1602.62 188.751 1598.41 188.751C1592.73 188.751 1588.1 190.225 1584.52 193.172C1580.94 196.12 1578.31 200.225 1576.62 205.488C1575.15 210.541 1574.41 216.541 1574.41 223.489L1563.04 216.857C1563.04 205.278 1565.15 195.067 1569.36 186.224C1573.78 177.172 1579.36 170.013 1586.1 164.75C1593.05 159.276 1600.2 156.539 1607.57 156.539C1612.84 156.539 1617.78 157.381 1622.41 159.066C1627.05 160.75 1631.05 163.592 1634.42 167.592L1617.68 196.33Z" fill="white"/>
<path d="M618 325H849V341H618V325Z" fill="url(#paint1_linear_782_2)"/>
<defs>
<linearGradient id="paint0_linear_782_2" x1="215.787" y1="97.4727" x2="215.787" y2="384.766" gradientUnits="userSpaceOnUse">
<stop stop-color="#338AF5"/>
<stop offset="1" stop-color="#0565DC"/>
</linearGradient>
<linearGradient id="paint1_linear_782_2" x1="880.399" y1="250" x2="1109.79" y2="250" gradientUnits="userSpaceOnUse">
<stop stop-color="#338AF5"/>
<stop offset="1" stop-color="#246DC8"/>
</linearGradient>
</defs>
</svg>
