<svg width="1666" height="385" viewBox="0 0 1666 385" fill="none" xmlns="http://www.w3.org/2000/svg">
<g clip-path="url(#clip0_683_440)">
<g filter="url(#filter0_d_683_440)">
<path d="M250.533 50.6969C237.633 11.356 176.405 12.8704 164.779 50.6969H154.645C170.708 -1.52241 247.186 2.4299 260.667 50.6969H250.533Z" fill="#E3E3E3"/>
<rect x="96.582" y="50.6973" width="222.143" height="206.155" rx="29.4507" fill="url(#paint0_linear_683_440)"/>
<rect x="36" y="117.845" width="222.143" height="206.155" rx="29.4507" fill="#E3E3E3"/>
<path d="M189.951 154.364C177.051 220.752 115.823 218.196 104.197 154.364H94.0625C110.126 242.484 186.604 235.815 200.085 154.364H189.951Z" fill="#5F7191"/>
</g>
<circle cx="98.6669" cy="154.162" r="8.00284" fill="#5F7191"/>
<circle cx="194.698" cy="154.162" r="8.00284" fill="#5F7191"/>
<path d="M378.777 225V89.544H405.302V112.335H405.946C411.998 97.2696 426.161 87.2263 444.445 87.2263C463.244 87.2263 476.893 96.8834 482.301 113.751H482.945C489.898 97.2696 505.864 87.2263 525.178 87.2263C551.96 87.2263 569.472 104.995 569.472 131.906V225H541.531V138.602C541.531 121.09 532.131 111.047 515.65 111.047C499.168 111.047 487.709 123.279 487.709 140.404V225H460.411V136.542C460.411 120.962 450.497 111.047 434.788 111.047C418.307 111.047 406.59 123.923 406.59 141.306V225H378.777ZM633.218 205.3C652.661 205.3 667.855 191.909 667.855 174.268V163.581L634.506 165.641C617.896 166.8 608.496 174.14 608.496 185.728C608.496 197.574 618.282 205.3 633.218 205.3ZM625.493 227.318C598.968 227.318 580.427 210.836 580.427 186.501C580.427 162.809 598.582 148.259 630.772 146.456L667.855 144.267V133.838C667.855 118.773 657.683 109.759 640.686 109.759C624.591 109.759 614.548 117.485 612.102 129.589H585.834C587.38 105.124 608.239 87.0976 641.716 87.0976C674.55 87.0976 695.538 104.48 695.538 131.649V225H668.885V202.724H668.241C660.387 217.789 643.262 227.318 625.493 227.318ZM828.301 136.155H801.776C798.943 121.734 788.127 110.274 769.972 110.274C748.469 110.274 734.306 128.172 734.306 157.272C734.306 187.016 748.598 204.27 770.23 204.27C787.355 204.27 798.557 194.87 801.776 179.161H828.558C825.597 208.004 802.549 227.575 769.972 227.575C731.215 227.575 705.978 201.051 705.978 157.272C705.978 114.266 731.215 87.0976 769.715 87.0976C804.609 87.0976 825.854 109.502 828.301 136.155ZM908.271 87.3551C942.65 87.3551 965.312 114.395 965.312 157.272C965.312 200.149 942.779 227.318 908.786 227.318C889.343 227.318 873.892 217.789 866.167 202.724H865.523V269.809H837.71V89.544H864.621V112.85H865.136C873.12 97.2696 888.7 87.3551 908.271 87.3551ZM900.932 203.755C922.95 203.755 936.727 185.728 936.727 157.272C936.727 128.945 922.95 110.789 900.932 110.789C879.686 110.789 865.394 129.331 865.394 157.272C865.394 185.471 879.558 203.755 900.932 203.755ZM976.267 225V89.544H1002.79V112.592H1003.44C1007.94 96.7546 1020.05 87.3551 1036.01 87.3551C1040 87.3551 1043.48 87.9989 1045.54 88.3852V114.266C1043.35 113.365 1038.46 112.721 1033.05 112.721C1015.15 112.721 1004.08 124.696 1004.08 143.881V225H976.267ZM1102.98 109.502C1083.53 109.502 1069.89 124.309 1068.47 144.782H1136.2C1135.55 124.052 1122.42 109.502 1102.98 109.502ZM1136.07 185.213H1162.46C1158.6 209.935 1135.17 227.575 1104.14 227.575C1064.35 227.575 1040.27 200.664 1040.27 157.916C1040.27 115.425 1064.74 87.0976 1102.98 87.0976C1140.58 87.0976 1164.01 113.622 1164.01 154.697V164.225H1068.34V165.899C1068.34 189.462 1082.5 205.042 1104.78 205.042C1120.62 205.042 1132.33 197.059 1136.07 185.213ZM1175.09 225V89.544H1201.62V112.335H1202.26C1208.31 97.2696 1222.48 87.2263 1240.76 87.2263C1259.56 87.2263 1273.21 96.8834 1278.62 113.751H1279.26C1286.21 97.2696 1302.18 87.2263 1321.49 87.2263C1348.28 87.2263 1365.79 104.995 1365.79 131.906V225H1337.85V138.602C1337.85 121.09 1328.45 111.047 1311.97 111.047C1295.48 111.047 1284.03 123.279 1284.03 140.404V225H1256.73V136.542C1256.73 120.962 1246.81 111.047 1231.1 111.047C1214.62 111.047 1202.91 123.923 1202.91 141.306V225H1175.09ZM1383.05 225V89.544H1410.86V225H1383.05ZM1396.96 69.7149C1388.07 69.7149 1380.86 62.6331 1380.86 53.8774C1380.86 44.9929 1388.07 37.9111 1396.96 37.9111C1405.97 37.9111 1413.18 44.9929 1413.18 53.8774C1413.18 62.6331 1405.97 69.7149 1396.96 69.7149ZM1485.43 109.502C1465.98 109.502 1452.34 124.309 1450.92 144.782H1518.65C1518 124.052 1504.87 109.502 1485.43 109.502ZM1518.52 185.213H1544.91C1541.05 209.935 1517.62 227.575 1486.59 227.575C1446.8 227.575 1422.72 200.664 1422.72 157.916C1422.72 115.425 1447.19 87.0976 1485.43 87.0976C1523.03 87.0976 1546.46 113.622 1546.46 154.697V164.225H1450.79V165.899C1450.79 189.462 1464.95 205.042 1487.23 205.042C1503.07 205.042 1514.78 197.059 1518.52 185.213ZM1557.54 225V89.544H1584.07V112.592H1584.71C1589.22 96.7546 1601.32 87.3551 1617.29 87.3551C1621.28 87.3551 1624.76 87.9989 1626.82 88.3852V114.266C1624.63 113.365 1619.73 112.721 1614.33 112.721C1596.43 112.721 1585.36 124.696 1585.36 143.881V225H1557.54Z" fill="url(#paint1_linear_683_440)"/>
<path d="M1382.64 353H1348.71V263.185H1382.76C1398.13 263.185 1408.53 272.148 1408.53 285.592C1408.53 294.929 1401.68 303.642 1393.03 305.199V305.696C1405.23 307.252 1413.07 315.842 1413.07 327.792C1413.07 343.602 1401.74 353 1382.64 353ZM1359.92 273.082V301.9H1376.72C1389.98 301.9 1397.2 296.609 1397.2 286.9C1397.2 277.999 1391.1 273.082 1380.21 273.082H1359.92ZM1359.92 343.104H1380.95C1394.46 343.104 1401.56 337.626 1401.56 327.232C1401.56 316.838 1394.21 311.547 1379.9 311.547H1359.92V343.104ZM1424.09 353V288.269H1434.3V298.85H1434.54C1436.66 291.692 1442.64 287.148 1450.23 287.148C1452.1 287.148 1453.72 287.46 1454.59 287.584V298.103C1453.72 297.792 1451.41 297.481 1448.8 297.481C1440.4 297.481 1434.92 303.518 1434.92 312.667V353H1424.09ZM1483.53 344.909C1493.74 344.909 1501.58 337.751 1501.58 328.415V323.124L1484.28 324.182C1475.56 324.742 1470.58 328.601 1470.58 334.701C1470.58 340.863 1475.75 344.909 1483.53 344.909ZM1481.1 354.12C1468.22 354.12 1459.57 346.34 1459.57 334.701C1459.57 323.622 1468.09 316.651 1483.03 315.78L1501.58 314.721V309.306C1501.58 301.402 1496.35 296.671 1487.39 296.671C1479.05 296.671 1473.82 300.593 1472.45 306.941H1461.99C1462.74 295.738 1472.33 287.148 1487.64 287.148C1502.82 287.148 1512.41 295.364 1512.41 308.248V353H1502.14V341.859H1501.89C1498.03 349.266 1489.82 354.12 1481.1 354.12ZM1525.04 306.132C1525.04 295.053 1534.94 287.148 1549.19 287.148C1562.58 287.148 1572.41 295.115 1572.91 306.07H1562.58C1561.83 299.846 1556.79 295.987 1548.82 295.987C1540.92 295.987 1535.69 299.908 1535.69 305.572C1535.69 310.053 1539.11 313.041 1546.46 314.908L1556.48 317.336C1569.55 320.634 1574.28 325.365 1574.28 334.888C1574.28 346.153 1563.63 354.12 1548.51 354.12C1534.32 354.12 1524.42 346.402 1523.3 334.95H1534.13C1535.31 341.672 1540.42 345.282 1549.19 345.282C1557.97 345.282 1563.38 341.548 1563.38 335.697C1563.38 331.091 1560.71 328.601 1553.43 326.672L1542.04 323.746C1530.65 320.821 1525.04 314.97 1525.04 306.132ZM1586.1 353V288.269H1596.93V353H1586.1ZM1591.52 277.377C1587.85 277.377 1584.8 274.327 1584.8 270.654C1584.8 266.92 1587.85 263.932 1591.52 263.932C1595.25 263.932 1598.3 266.92 1598.3 270.654C1598.3 274.327 1595.25 277.377 1591.52 277.377ZM1612.12 353V263.185H1622.95V353H1612.12Z" fill="#BCBCBC"/>
</g>
<defs>
<filter id="filter0_d_683_440" x="19.9943" y="-4.78408" width="323.63" height="351.903" filterUnits="userSpaceOnUse" color-interpolation-filters="sRGB">
<feFlood flood-opacity="0" result="BackgroundImageFix"/>
<feColorMatrix in="SourceAlpha" type="matrix" values="0 0 0 0 0 0 0 0 0 0 0 0 0 0 0 0 0 0 127 0" result="hardAlpha"/>
<feOffset dx="4.44602" dy="2.66761"/>
<feGaussianBlur stdDeviation="10.2258"/>
<feComposite in2="hardAlpha" operator="out"/>
<feColorMatrix type="matrix" values="0 0 0 0 0 0 0 0 0 0 0 0 0 0 0 0 0 0 0.25 0"/>
<feBlend mode="normal" in2="BackgroundImageFix" result="effect1_dropShadow_683_440"/>
<feBlend mode="normal" in="SourceGraphic" in2="effect1_dropShadow_683_440" result="shape"/>
</filter>
<linearGradient id="paint0_linear_683_440" x1="207.653" y1="50.6973" x2="207.653" y2="256.852" gradientUnits="userSpaceOnUse">
<stop stop-color="#00ADEF"/>
<stop offset="1" stop-color="#007EAE"/>
</linearGradient>
<linearGradient id="paint1_linear_683_440" x1="344.581" y1="157.743" x2="1631" y2="151.335" gradientUnits="userSpaceOnUse">
<stop stop-color="#E3E3E3"/>
<stop offset="1" stop-color="#C9D3E6"/>
</linearGradient>
<clipPath id="clip0_683_440">
<rect width="1666" height="385" fill="white"/>
</clipPath>
</defs>
</svg>
