<svg width="1566" height="507" viewBox="0 0 1566 507" fill="none" xmlns="http://www.w3.org/2000/svg">
<g clip-path="url(#clip0_680_343)">
<rect width="1566" height="387" fill="url(#paint0_linear_680_343)" style=""/>
<path d="M1306 385H1566L1306 507V385Z" fill="#D9D9D9" style="fill:#D9D9D9;fill:color(display-p3 0.8510 0.8510 0.8510);fill-opacity:1;"/>
<path d="M367.118 235.399V136.375H394.572V151.522C399.495 142.244 410.098 134.103 424.866 134.103C437.931 134.103 447.776 139.594 452.51 151.333C460.462 139.404 473.337 134.103 485.834 134.103C504.2 134.103 518.4 145.652 518.4 171.971V235.399H491.135V175C491.135 162.314 485.455 156.634 475.609 156.634C465.006 156.634 456.486 163.45 456.486 176.893V235.399H429.221V175C429.221 162.314 423.352 156.634 413.695 156.634C403.092 156.634 394.572 163.45 394.572 176.893V235.399H367.118ZM568.547 237.482C550.56 237.482 535.413 228.773 535.413 207.945C535.413 184.846 556.619 176.136 586.913 176.136H598.084V172.16C598.084 160.421 594.487 153.983 581.99 153.983C571.198 153.983 566.275 159.474 565.139 167.995H539.199C540.903 144.516 559.459 134.103 583.694 134.103C607.93 134.103 625.16 143.948 625.16 170.835V235.399H598.463V223.471C592.782 231.423 584.073 237.482 568.547 237.482ZM576.689 218.359C588.806 218.359 598.084 211.732 598.084 200.75V192.419H587.481C571.576 192.419 562.299 195.827 562.299 206.43C562.299 213.625 566.654 218.359 576.689 218.359ZM693.597 237.482C664.628 237.482 642.665 219.495 642.665 187.118V185.603C642.665 153.605 665.575 134.103 693.786 134.103C716.696 134.103 737.902 144.138 740.364 172.539H714.424C712.531 160.989 705.525 155.687 694.354 155.687C680.154 155.687 670.687 166.29 670.687 185.224V186.739C670.687 206.62 679.586 216.844 694.922 216.844C705.904 216.844 714.803 210.407 716.128 197.721H740.932C739.417 221.199 722.377 237.482 693.597 237.482ZM758.185 269.102V136.375H785.64V151.901C791.131 142.434 802.68 134.103 817.259 134.103C841.495 134.103 860.429 152.09 860.429 184.846V186.36C860.429 219.116 841.874 237.482 817.259 237.482C801.923 237.482 790.752 229.909 785.64 220.252V269.102H758.185ZM809.118 216.087C824.265 216.087 832.596 205.862 832.596 186.55V185.035C832.596 164.965 822.75 155.119 808.928 155.119C794.539 155.119 784.693 165.154 784.693 185.035V186.55C784.693 206.43 794.16 216.087 809.118 216.087ZM878.742 235.399V136.375H906.196V155.309C912.444 142.055 922.1 135.049 938.194 134.86V160.421C917.935 160.232 906.196 166.858 906.196 185.792V235.399H878.742ZM999.997 237.482C970.082 237.482 948.308 218.738 948.308 187.118V185.603C948.308 154.362 970.46 134.103 999.24 134.103C1024.8 134.103 1047.52 149.061 1047.52 184.467V192.041H976.141C976.898 208.513 985.797 217.98 1000.75 217.98C1013.44 217.98 1019.69 212.489 1021.39 204.158H1047.33C1044.11 225.554 1027.07 237.482 999.997 237.482ZM976.519 175.189H1020.82C1019.88 160.232 1012.3 153.037 999.24 153.037C986.933 153.037 978.602 161.178 976.519 175.189ZM1065.49 235.399V136.375H1092.95V151.522C1097.87 142.244 1108.47 134.103 1123.24 134.103C1136.31 134.103 1146.15 139.594 1150.88 151.333C1158.84 139.404 1171.71 134.103 1184.21 134.103C1202.57 134.103 1216.77 145.652 1216.77 171.971V235.399H1189.51V175C1189.51 162.314 1183.83 156.634 1173.98 156.634C1163.38 156.634 1154.86 163.45 1154.86 176.893V235.399H1127.6V175C1127.6 162.314 1121.73 156.634 1112.07 156.634C1101.47 156.634 1092.95 163.45 1092.95 176.893V235.399H1065.49ZM1240.98 235.399V136.375H1268.25V235.399H1240.98ZM1254.43 122.932C1245.72 122.932 1238.9 116.494 1238.9 107.974C1238.9 99.4535 1245.72 93.016 1254.43 93.016C1263.32 93.016 1270.14 99.4535 1270.14 107.974C1270.14 116.494 1263.32 122.932 1254.43 122.932ZM1339.11 237.482C1309.19 237.482 1287.42 218.738 1287.42 187.118V185.603C1287.42 154.362 1309.57 134.103 1338.35 134.103C1363.91 134.103 1386.63 149.061 1386.63 184.467V192.041H1315.25C1316.01 208.513 1324.91 217.98 1339.86 217.98C1352.55 217.98 1358.8 212.489 1360.5 204.158H1386.44C1383.22 225.554 1366.18 237.482 1339.11 237.482ZM1315.63 175.189H1359.93C1358.99 160.232 1351.41 153.037 1338.35 153.037C1326.04 153.037 1317.71 161.178 1315.63 175.189ZM1404.6 235.399V136.375H1432.06V155.309C1438.31 142.055 1447.96 135.049 1464.06 134.86V160.421C1443.8 160.232 1432.06 166.858 1432.06 185.792V235.399H1404.6Z" fill="#D8D8D8" style="fill:#D8D8D8;fill:color(display-p3 0.8458 0.8458 0.8458);fill-opacity:1;"/>
<g filter="url(#filter0_d_680_343)">
<path d="M255.898 105.097C246.284 75.7747 200.648 76.9034 191.983 105.097H184.43C196.402 66.1759 253.404 69.1217 263.452 105.097H255.898Z" fill="#D8D8D8" style="fill:#D8D8D8;fill:color(display-p3 0.8458 0.8458 0.8458);fill-opacity:1;"/>
<rect x="141.152" y="105.097" width="165.571" height="153.655" rx="21.9507" fill="url(#paint1_linear_680_343)" style=""/>
<rect x="96" y="155.145" width="165.571" height="153.655" rx="21.9507" fill="#D8D8D8" style="fill:#D8D8D8;fill:color(display-p3 0.8458 0.8458 0.8458);fill-opacity:1;"/>
<path d="M210.746 182.364C201.132 231.845 155.496 229.94 146.831 182.364H139.277C151.25 248.043 208.252 243.072 218.3 182.364H210.746Z" fill="#4F4F4F" style="fill:#4F4F4F;fill:color(display-p3 0.3084 0.3084 0.3084);fill-opacity:1;"/>
</g>
<circle cx="143.331" cy="180.229" r="7.08069" fill="#4F4F4F" style="fill:#4F4F4F;fill:color(display-p3 0.3084 0.3084 0.3084);fill-opacity:1;"/>
<circle cx="213.389" cy="180.229" r="7.08069" fill="#4F4F4F" style="fill:#4F4F4F;fill:color(display-p3 0.3084 0.3084 0.3084);fill-opacity:1;"/>
</g>
<defs>
<filter id="filter0_d_680_343" x="84.0704" y="63.7449" width="241.209" height="262.286" filterUnits="userSpaceOnUse" color-interpolation-filters="sRGB">
<feFlood flood-opacity="0" result="BackgroundImageFix"/>
<feColorMatrix in="SourceAlpha" type="matrix" values="0 0 0 0 0 0 0 0 0 0 0 0 0 0 0 0 0 0 127 0" result="hardAlpha"/>
<feOffset dx="3.31378" dy="1.98827"/>
<feGaussianBlur stdDeviation="7.62168"/>
<feComposite in2="hardAlpha" operator="out"/>
<feColorMatrix type="matrix" values="0 0 0 0 0 0 0 0 0 0 0 0 0 0 0 0 0 0 0.25 0"/>
<feBlend mode="normal" in2="BackgroundImageFix" result="effect1_dropShadow_680_343"/>
<feBlend mode="normal" in="SourceGraphic" in2="effect1_dropShadow_680_343" result="shape"/>
</filter>
<linearGradient id="paint0_linear_680_343" x1="783" y1="0" x2="783" y2="387" gradientUnits="userSpaceOnUse">
<stop stop-color="#0087BB" style="stop-color:#0087BB;stop-color:color(display-p3 0.0000 0.5294 0.7333);stop-opacity:1;"/>
<stop offset="1" stop-color="#0087BB" style="stop-color:#0087BB;stop-color:color(display-p3 0.0000 0.5294 0.7333);stop-opacity:1;"/>
</linearGradient>
<linearGradient id="paint1_linear_680_343" x1="223.938" y1="105.097" x2="223.938" y2="258.751" gradientUnits="userSpaceOnUse">
<stop stop-color="#00ADEF" style="stop-color:#00ADEF;stop-color:color(display-p3 0.0000 0.6784 0.9373);stop-opacity:1;"/>
<stop offset="1" stop-color="#007EAE" style="stop-color:#007EAE;stop-color:color(display-p3 0.0000 0.4946 0.6833);stop-opacity:1;"/>
</linearGradient>
<clipPath id="clip0_680_343">
<rect width="1566" height="507" fill="white" style="fill:white;fill:white;fill-opacity:1;"/>
</clipPath>
</defs>
</svg>
