<svg width="1639" height="350" viewBox="0 0 1639 350" fill="none" xmlns="http://www.w3.org/2000/svg">
<rect width="1639" height="350" fill="#63AAC1"/>
<path d="M353.936 250.525H387.552V176.042C387.552 162.227 396.186 152.557 408.964 152.557C421.397 152.557 428.88 160.385 428.88 173.624V250.525H461.229V175.581C461.229 161.882 469.633 152.557 482.411 152.557C495.42 152.557 502.557 160.385 502.557 174.66V250.525H536.173V166.256C536.173 141.39 519.941 124.813 495.765 124.813C477.691 124.813 462.956 134.598 457.43 150.139H456.739C452.595 134.023 440.162 124.813 422.318 124.813C405.511 124.813 392.272 134.598 387.091 149.449H386.401V127.115H353.936V250.525ZM589.334 230.617C579.175 230.617 572.403 225.486 572.403 217.277C572.403 209.478 578.765 204.45 589.95 203.629L613.141 202.193V210.197C613.141 222.1 602.366 230.617 589.334 230.617ZM579.483 252.269C593.234 252.269 606.882 245.394 613.038 233.696H613.654V250.525H642.592V174.897C642.592 152.732 624.224 138.16 596.004 138.16C566.861 138.16 548.698 152.834 547.57 174.178H574.968C576.405 166.072 583.485 160.531 594.67 160.531C605.958 160.531 613.141 166.482 613.141 176.744V184.03L585.435 185.671C558.036 187.313 542.644 198.909 542.644 218.919C542.644 238.724 558.549 252.269 579.483 252.269ZM753.528 181.464C752.194 156.528 733.313 138.16 703.554 138.16C670.614 138.16 649.578 160.12 649.578 195.42C649.578 231.335 670.614 252.885 703.759 252.885C732.697 252.885 752.091 236.158 753.631 210.197H725.719C723.872 222.203 716.073 229.386 704.067 229.386C689.188 229.386 679.952 217.072 679.952 195.42C679.952 174.178 689.188 161.659 703.964 161.659C716.278 161.659 723.975 169.869 725.719 181.464H753.528ZM832.947 125.158C815.103 125.158 801.404 134.138 794.727 148.643H794.036V127.115H760.881V290.817H794.496V229.803H795.187C801.749 243.733 815.563 252.482 833.522 252.482C864.375 252.482 883.485 228.537 883.485 188.82C883.485 148.988 864.259 125.158 832.947 125.158ZM821.665 225.428C805.202 225.428 794.381 211.153 794.381 188.82C794.381 166.717 805.202 152.096 821.665 152.096C838.472 152.096 849.063 166.487 849.063 188.82C849.063 211.268 838.472 225.428 821.665 225.428ZM890.249 250.525H920.213V189.058C920.213 173.563 928.833 164.533 943.609 164.533C947.919 164.533 952.024 165.251 954.487 166.277V139.905C952.434 139.289 949.459 138.776 945.97 138.776C933.04 138.776 923.702 146.37 919.803 160.325H919.187V140.52H890.249V250.525ZM1004.06 160.325C1017.4 160.325 1026.53 169.971 1027.15 184.03H980.457C981.483 170.279 990.924 160.325 1004.06 160.325ZM1027.56 216.867C1024.79 225.281 1016.37 230.72 1005.39 230.72C990.103 230.72 980.149 219.945 980.149 204.245V202.398H1055.98V193.265C1055.98 159.812 1035.77 138.16 1003.75 138.16C971.221 138.16 950.698 160.941 950.698 196.036C950.698 231.233 971.016 252.885 1004.88 252.885C1032.07 252.885 1051.77 238.416 1055.06 216.867H1027.56ZM1063.07 250.525H1093.03V184.132C1093.03 171.818 1100.73 163.199 1112.12 163.199C1123.2 163.199 1129.87 170.176 1129.87 181.977V250.525H1158.71V183.722C1158.71 171.51 1166.2 163.199 1177.59 163.199C1189.19 163.199 1195.55 170.176 1195.55 182.901V250.525H1225.51V175.41C1225.51 153.245 1211.04 138.468 1189.49 138.468C1173.38 138.468 1160.25 147.19 1155.32 161.044H1154.71C1151.01 146.677 1139.93 138.468 1124.02 138.468C1109.04 138.468 1097.24 147.19 1092.62 160.428H1092.01V140.52H1063.07V250.525ZM1236.6 250.525H1266.57V140.52H1236.6V250.525ZM1251.58 128.412C1260.61 128.412 1267.59 121.536 1267.59 112.917C1267.59 104.194 1260.61 97.4217 1251.58 97.4217C1242.55 97.4217 1235.58 104.194 1235.58 112.917C1235.58 121.536 1242.55 128.412 1251.58 128.412ZM1327.53 160.325C1340.87 160.325 1350 169.971 1350.62 184.03H1303.93C1304.95 170.279 1314.39 160.325 1327.53 160.325ZM1351.03 216.867C1348.26 225.281 1339.84 230.72 1328.86 230.72C1313.57 230.72 1303.62 219.945 1303.62 204.245V202.398H1379.45V193.265C1379.45 159.812 1359.24 138.16 1327.22 138.16C1294.69 138.16 1274.17 160.941 1274.17 196.036C1274.17 231.233 1294.49 252.885 1328.35 252.885C1355.54 252.885 1375.24 238.416 1378.53 216.867H1351.03ZM1386.54 250.525H1416.5V189.058C1416.5 173.563 1425.12 164.533 1439.9 164.533C1444.21 164.533 1448.32 165.251 1450.78 166.277V139.905C1448.73 139.289 1445.75 138.776 1442.26 138.776C1429.33 138.776 1419.99 146.37 1416.09 160.325H1415.48V140.52H1386.54V250.525ZM1529.29 183.414H1507.23L1507.02 169.869H1525.9C1529.05 169.869 1531.96 169.424 1534.62 168.535C1537.29 167.577 1539.45 166.209 1541.09 164.43C1542.73 162.651 1543.55 160.462 1543.55 157.862C1543.55 154.442 1542.97 151.774 1541.81 149.858C1540.71 147.943 1538.83 146.541 1536.16 145.651C1533.49 144.762 1529.9 144.317 1525.39 144.317H1511.84V218.098H1496.76V130.875H1525.39C1532.16 130.875 1538.04 131.901 1543.04 133.953C1548.03 135.937 1551.86 138.913 1554.53 142.881C1557.27 146.848 1558.64 151.774 1558.64 157.657C1558.64 161.351 1557.75 164.635 1555.97 167.508C1554.26 170.382 1551.76 172.844 1548.48 174.897C1545.19 176.949 1541.12 178.625 1536.27 179.925C1536.06 179.925 1535.82 180.164 1535.55 180.643C1535.34 181.054 1535.14 181.259 1534.93 181.259C1533.77 181.943 1533.02 182.456 1532.67 182.798C1532.4 183.072 1532.09 183.243 1531.75 183.311C1531.48 183.38 1530.66 183.414 1529.29 183.414ZM1528.26 183.414L1530.42 172.434C1541.09 172.434 1548.37 174.828 1552.27 179.617C1556.24 184.406 1558.23 190.426 1558.23 197.677V203.424C1558.23 205.955 1558.36 208.384 1558.64 210.71C1558.91 212.967 1559.35 214.883 1559.97 216.456V218.098H1544.47C1543.79 216.319 1543.38 213.788 1543.24 210.504C1543.18 207.221 1543.14 204.826 1543.14 203.321V197.78C1543.14 192.923 1542.01 189.331 1539.75 187.005C1537.5 184.611 1533.67 183.414 1528.26 183.414ZM1466.18 175.718C1466.18 184.748 1467.75 193.162 1470.9 200.961C1474.05 208.76 1478.39 215.601 1483.93 221.484C1489.47 227.299 1495.9 231.849 1503.22 235.132C1510.54 238.348 1518.41 239.955 1526.82 239.955C1535.17 239.955 1542.97 238.348 1550.22 235.132C1557.54 231.849 1563.97 227.299 1569.51 221.484C1575.05 215.601 1579.4 208.76 1582.55 200.961C1585.69 193.162 1587.27 184.748 1587.27 175.718C1587.27 166.619 1585.69 158.205 1582.55 150.474C1579.4 142.675 1575.05 135.868 1569.51 130.054C1563.97 124.239 1557.54 119.724 1550.22 116.508C1542.97 113.293 1535.17 111.685 1526.82 111.685C1518.41 111.685 1510.54 113.293 1503.22 116.508C1495.9 119.724 1489.47 124.239 1483.93 130.054C1478.39 135.868 1474.05 142.675 1470.9 150.474C1467.75 158.205 1466.18 166.619 1466.18 175.718ZM1453.97 175.718C1453.97 164.84 1455.85 154.75 1459.61 145.446C1463.37 136.142 1468.61 128.035 1475.31 121.126C1482.02 114.148 1489.75 108.744 1498.5 104.913C1507.33 101.013 1516.77 99.0636 1526.82 99.0636C1536.88 99.0636 1546.29 101.013 1555.04 104.913C1563.87 108.744 1571.6 114.148 1578.24 121.126C1584.94 128.035 1590.17 136.142 1593.94 145.446C1597.7 154.75 1599.58 164.84 1599.58 175.718C1599.58 186.595 1597.7 196.686 1593.94 205.989C1590.17 215.293 1584.94 223.434 1578.24 230.412C1571.6 237.39 1563.87 242.828 1555.04 246.728C1546.29 250.627 1536.88 252.577 1526.82 252.577C1516.77 252.577 1507.33 250.627 1498.5 246.728C1489.75 242.828 1482.02 237.39 1475.31 230.412C1468.61 223.434 1463.37 215.293 1459.61 205.989C1455.85 196.686 1453.97 186.595 1453.97 175.718Z" fill="#E3E3E3"/>
<path d="M218.537 62.4859C200.776 1.9786 116.47 4.3077 100.463 62.4859H86.5088C108.627 -17.8287 213.929 -11.75 232.491 62.4859H218.537Z" fill="#E3E3E3"/>
<rect x="13" y="62.4858" width="293" height="274.364" rx="23.8127" fill="#E3E3E3"/>
<path d="M43.0254 250.85C43.0254 254.91 45.39 259.611 47.7546 260.359C50.4831 261.214 267.483 261.214 270.211 260.359C272.576 259.611 274.941 254.91 274.941 250.85V248.178H225.374C195.453 248.178 175.808 248.606 175.808 249.14C175.808 249.674 175.172 250.956 174.353 251.811C173.171 253.2 170.442 253.521 158.983 253.521C147.524 253.521 144.795 253.2 143.613 251.811C142.794 250.956 142.158 249.674 142.158 249.14C142.158 248.606 122.513 248.178 92.5916 248.178H43.0254V250.85Z" fill="#63AAC1"/>
<rect x="72.0137" y="138.065" width="174.972" height="100.428" rx="8.28269" fill="#63AAC1"/>
</svg>
