<svg width="1810" height="385" viewBox="0 0 1810 385" fill="none" xmlns="http://www.w3.org/2000/svg">
<g clip-path="url(#clip0_427_50)">
<rect width="1810" height="385" fill="#5171A8"/>
<g filter="url(#filter0_d_427_50)">
<path d="M391.159 276H431.604V186.384C431.604 169.762 441.992 158.127 457.367 158.127C472.326 158.127 481.329 167.546 481.329 183.475V276H520.251V185.83C520.251 169.347 530.362 158.127 545.737 158.127C561.388 158.127 569.976 167.546 569.976 184.721V276H610.421V174.61C610.421 144.692 590.891 124.746 561.804 124.746C540.058 124.746 522.328 136.52 515.68 155.219H514.849C509.862 135.827 494.903 124.746 473.434 124.746C453.211 124.746 437.283 136.52 431.05 154.388H430.219V127.516H391.159V276ZM678.477 254.813C667.665 254.813 660.457 249.352 660.457 240.615C660.457 232.314 667.228 226.963 679.132 226.089L703.814 224.56V233.079C703.814 245.748 692.347 254.813 678.477 254.813ZM667.992 277.857C682.627 277.857 697.152 270.539 703.705 258.089H704.361V276H735.159V195.509C735.159 171.919 715.61 156.411 685.576 156.411C654.559 156.411 635.228 172.028 634.027 194.745H663.187C664.716 186.117 672.252 180.219 684.156 180.219C696.17 180.219 703.814 186.554 703.814 197.475V205.229L674.327 206.977C645.167 208.724 628.785 221.065 628.785 242.362C628.785 263.44 645.713 277.857 667.992 277.857ZM862.175 202.499C860.755 175.96 840.659 156.411 808.987 156.411C773.93 156.411 751.541 179.783 751.541 217.352C751.541 255.577 773.93 278.512 809.206 278.512C840.004 278.512 860.646 260.71 862.284 233.079H832.578C830.612 245.857 822.312 253.502 809.533 253.502C793.697 253.502 783.868 240.396 783.868 217.352C783.868 194.745 793.697 181.421 809.424 181.421C822.53 181.421 830.721 190.158 832.578 202.499H862.175ZM961.893 133.138C941.559 133.138 925.948 143.37 918.339 159.9H917.552V135.368H879.77V321.915H918.077V252.386H918.864C926.342 268.26 942.084 278.23 962.549 278.23C997.707 278.23 1019.48 250.943 1019.48 205.684C1019.48 160.293 997.576 133.138 961.893 133.138ZM949.037 247.401C930.277 247.401 917.946 231.134 917.946 205.684C917.946 180.496 930.277 163.836 949.037 163.836C968.19 163.836 980.259 180.234 980.259 205.684C980.259 231.265 968.19 247.401 949.037 247.401ZM1037.21 276H1069.1V210.581C1069.1 194.09 1078.27 184.479 1094 184.479C1098.58 184.479 1102.95 185.243 1105.57 186.335V158.267C1103.39 157.612 1100.22 157.066 1096.51 157.066C1082.75 157.066 1072.81 165.148 1068.66 180.001H1068V158.923H1037.21V276ZM1167.28 180.001C1181.48 180.001 1191.2 190.267 1191.85 205.229H1142.16C1143.25 190.595 1153.3 180.001 1167.28 180.001ZM1192.29 240.178C1189.34 249.133 1180.39 254.922 1168.7 254.922C1152.43 254.922 1141.83 243.454 1141.83 226.745V224.779H1222.54V215.059C1222.54 179.455 1201.03 156.411 1166.95 156.411C1132.33 156.411 1110.49 180.656 1110.49 218.007C1110.49 255.468 1132.11 278.512 1168.15 278.512C1197.09 278.512 1218.06 263.113 1221.56 240.178H1192.29ZM1239.03 276H1270.92V205.339C1270.92 192.233 1279.11 183.059 1291.24 183.059C1303.03 183.059 1310.13 190.486 1310.13 203.045V276H1340.82V204.902C1340.82 191.905 1348.79 183.059 1360.92 183.059C1373.26 183.059 1380.03 190.486 1380.03 204.028V276H1411.92V196.055C1411.92 172.465 1396.52 156.738 1373.58 156.738C1356.44 156.738 1342.46 166.022 1337.22 180.766H1336.56C1332.63 165.476 1320.83 156.738 1303.91 156.738C1287.96 156.738 1275.4 166.022 1270.49 180.11H1269.83V158.923H1239.03V276ZM1432.67 276H1464.56V158.923H1432.67V276ZM1448.61 146.035C1458.23 146.035 1465.65 138.718 1465.65 129.544C1465.65 120.261 1458.23 113.053 1448.61 113.053C1439 113.053 1431.58 120.261 1431.58 129.544C1431.58 138.718 1439 146.035 1448.61 146.035ZM1538.39 180.001C1552.59 180.001 1562.31 190.267 1562.96 205.229H1513.27C1514.36 190.595 1524.41 180.001 1538.39 180.001ZM1563.4 240.178C1560.45 249.133 1551.49 254.922 1539.81 254.922C1523.54 254.922 1512.94 243.454 1512.94 226.745V224.779H1593.65V215.059C1593.65 179.455 1572.14 156.411 1538.06 156.411C1503.44 156.411 1481.6 180.656 1481.6 218.007C1481.6 255.468 1503.22 278.512 1539.26 278.512C1568.2 278.512 1589.17 263.113 1592.67 240.178H1563.4ZM1610.14 276H1642.03V210.581C1642.03 194.09 1651.21 184.479 1666.93 184.479C1671.52 184.479 1675.89 185.243 1678.51 186.335V158.267C1676.33 157.612 1673.16 157.066 1669.44 157.066C1655.68 157.066 1645.75 165.148 1641.6 180.001H1640.94V158.923H1610.14V276ZM1745.57 214.294C1776.91 214.294 1801.16 190.376 1801.16 159.25C1801.16 128.124 1776.91 104.207 1745.57 104.207C1714.22 104.207 1689.98 128.234 1689.98 159.25C1689.98 190.376 1714.33 214.294 1745.57 214.294ZM1745.57 200.315C1722.63 200.315 1705.16 182.622 1705.16 159.25C1705.16 135.879 1722.63 118.295 1745.57 118.295C1768.61 118.295 1786.09 135.879 1786.09 159.25C1786.09 182.622 1768.61 200.315 1745.57 200.315ZM1737.27 183.823V166.568H1744.47L1755.51 183.823H1771.67L1758.34 164.602C1764.9 162.854 1769.05 157.066 1769.05 149.421C1769.05 139.81 1761.51 133.257 1750.26 133.257H1723.83V183.823H1737.27ZM1737.27 143.96H1747.42C1752.23 143.96 1754.85 146.145 1754.85 150.295C1754.85 154.445 1752.01 156.738 1747.21 156.738H1737.27V143.96Z" fill="#E3E3E3"/>
</g>
<g filter="url(#filter1_d_427_50)">
<path d="M258.787 59.6431C244.281 15.4002 175.423 17.1032 162.348 59.6431H150.951C169.016 0.917099 255.024 5.36187 270.184 59.6431H258.787Z" fill="#D8D8D8"/>
<rect x="85.6523" y="59.6431" width="249.822" height="231.842" rx="33.1203" fill="url(#paint0_linear_427_50)"/>
<rect x="17.5215" y="135.157" width="249.822" height="231.842" rx="33.1203" fill="#D8D8D8"/>
<path d="M190.652 176.227C176.146 250.886 107.288 248.013 94.2137 176.227H82.8164C100.881 275.327 186.889 267.826 202.05 176.227H190.652Z" fill="#7884A4"/>
</g>
<circle cx="88" cy="176" r="9" fill="#7884A4"/>
<circle cx="196" cy="176" r="9" fill="#7884A4"/>
</g>
<defs>
<filter id="filter0_d_427_50" x="383.158" y="96.2065" width="1426" height="233.708" filterUnits="userSpaceOnUse" color-interpolation-filters="sRGB">
<feFlood flood-opacity="0" result="BackgroundImageFix"/>
<feColorMatrix in="SourceAlpha" type="matrix" values="0 0 0 0 0 0 0 0 0 0 0 0 0 0 0 0 0 0 127 0" result="hardAlpha"/>
<feOffset/>
<feGaussianBlur stdDeviation="4"/>
<feComposite in2="hardAlpha" operator="out"/>
<feColorMatrix type="matrix" values="0 0 0 0 0 0 0 0 0 0 0 0 0 0 0 0 0 0 0.28 0"/>
<feBlend mode="normal" in2="BackgroundImageFix" result="effect1_dropShadow_427_50"/>
<feBlend mode="normal" in="SourceGraphic" in2="effect1_dropShadow_427_50" result="shape"/>
</filter>
<filter id="filter1_d_427_50" x="-0.478516" y="-2.75098" width="363.953" height="395.75" filterUnits="userSpaceOnUse" color-interpolation-filters="sRGB">
<feFlood flood-opacity="0" result="BackgroundImageFix"/>
<feColorMatrix in="SourceAlpha" type="matrix" values="0 0 0 0 0 0 0 0 0 0 0 0 0 0 0 0 0 0 127 0" result="hardAlpha"/>
<feOffset dx="5" dy="3"/>
<feGaussianBlur stdDeviation="11.5"/>
<feComposite in2="hardAlpha" operator="out"/>
<feColorMatrix type="matrix" values="0 0 0 0 0 0 0 0 0 0 0 0 0 0 0 0 0 0 0.25 0"/>
<feBlend mode="normal" in2="BackgroundImageFix" result="effect1_dropShadow_427_50"/>
<feBlend mode="normal" in="SourceGraphic" in2="effect1_dropShadow_427_50" result="shape"/>
</filter>
<linearGradient id="paint0_linear_427_50" x1="210.563" y1="59.6431" x2="210.563" y2="291.485" gradientUnits="userSpaceOnUse">
<stop stop-color="#00ADEF"/>
<stop offset="1" stop-color="#007EAE"/>
</linearGradient>
<clipPath id="clip0_427_50">
<rect width="1810" height="385" fill="white"/>
</clipPath>
</defs>
</svg>
