<svg width="1810" height="385" viewBox="0 0 1810 385" fill="none" xmlns="http://www.w3.org/2000/svg">
<g clip-path="url(#clip0_436_2)">
<rect width="1810" height="385" fill="#5171A8"/>
<path d="M395.159 226H435.604V136.384C435.604 119.762 445.992 108.127 461.367 108.127C476.326 108.127 485.329 117.546 485.329 133.475V226H524.251V135.83C524.251 119.347 534.362 108.127 549.737 108.127C565.388 108.127 573.976 117.546 573.976 134.721V226H614.421V124.61C614.421 94.6918 594.891 74.7463 565.804 74.7463C544.058 74.7463 526.328 86.5197 519.68 105.219H518.849C513.862 85.8271 498.903 74.7463 477.434 74.7463C457.211 74.7463 441.283 86.5197 435.05 104.388H434.219V77.5165H395.159V226ZM682.477 204.813C671.665 204.813 664.457 199.352 664.457 190.615C664.457 182.314 671.228 176.963 683.132 176.089L707.814 174.56V183.079C707.814 195.748 696.347 204.813 682.477 204.813ZM671.992 227.857C686.627 227.857 701.152 220.539 707.705 208.089H708.361V226H739.159V145.509C739.159 121.919 719.61 106.411 689.576 106.411C658.559 106.411 639.228 122.028 638.027 144.745H667.187C668.716 136.117 676.252 130.219 688.156 130.219C700.17 130.219 707.814 136.554 707.814 147.475V155.229L678.327 156.977C649.167 158.724 632.785 171.065 632.785 192.362C632.785 213.44 649.713 227.857 671.992 227.857ZM866.175 152.499C864.755 125.96 844.659 106.411 812.987 106.411C777.93 106.411 755.541 129.783 755.541 167.352C755.541 205.577 777.93 228.512 813.206 228.512C844.004 228.512 864.646 210.71 866.284 183.079H836.578C834.612 195.857 826.312 203.502 813.533 203.502C797.697 203.502 787.868 190.396 787.868 167.352C787.868 144.745 797.697 131.421 813.424 131.421C826.53 131.421 834.721 140.158 836.578 152.499H866.175ZM965.893 83.1379C945.559 83.1379 929.948 93.3704 922.339 109.9H921.552V85.368H883.77V271.915H922.077V202.386H922.864C930.342 218.26 946.084 228.23 966.549 228.23C1001.71 228.23 1023.48 200.943 1023.48 155.684C1023.48 110.293 1001.58 83.1379 965.893 83.1379ZM953.037 197.401C934.277 197.401 921.946 181.134 921.946 155.684C921.946 130.496 934.277 113.836 953.037 113.836C972.19 113.836 984.259 130.234 984.259 155.684C984.259 181.265 972.19 197.401 953.037 197.401ZM1041.21 226H1073.1V160.581C1073.1 144.09 1082.27 134.479 1098 134.479C1102.58 134.479 1106.95 135.243 1109.57 136.335V108.267C1107.39 107.612 1104.22 107.066 1100.51 107.066C1086.75 107.066 1076.81 115.148 1072.66 130.001H1072V108.923H1041.21V226ZM1171.28 130.001C1185.48 130.001 1195.2 140.267 1195.85 155.229H1146.16C1147.25 140.595 1157.3 130.001 1171.28 130.001ZM1196.29 190.178C1193.34 199.133 1184.39 204.922 1172.7 204.922C1156.43 204.922 1145.83 193.454 1145.83 176.745V174.779H1226.54V165.059C1226.54 129.455 1205.03 106.411 1170.95 106.411C1136.33 106.411 1114.49 130.656 1114.49 168.007C1114.49 205.468 1136.11 228.512 1172.15 228.512C1201.09 228.512 1222.06 213.113 1225.56 190.178H1196.29ZM1243.03 226H1274.92V155.339C1274.92 142.233 1283.11 133.059 1295.24 133.059C1307.03 133.059 1314.13 140.486 1314.13 153.045V226H1344.82V154.902C1344.82 141.905 1352.79 133.059 1364.92 133.059C1377.26 133.059 1384.03 140.486 1384.03 154.028V226H1415.92V146.055C1415.92 122.465 1400.52 106.738 1377.58 106.738C1360.44 106.738 1346.46 116.022 1341.22 130.766H1340.56C1336.63 115.476 1324.83 106.738 1307.91 106.738C1291.96 106.738 1279.4 116.022 1274.49 130.11H1273.83V108.923H1243.03V226ZM1436.67 226H1468.56V108.923H1436.67V226ZM1452.61 96.0355C1462.23 96.0355 1469.65 88.7182 1469.65 79.5442C1469.65 70.261 1462.23 63.0529 1452.61 63.0529C1443 63.0529 1435.58 70.261 1435.58 79.5442C1435.58 88.7182 1443 96.0355 1452.61 96.0355ZM1542.39 130.001C1556.59 130.001 1566.31 140.267 1566.96 155.229H1517.27C1518.36 140.595 1528.41 130.001 1542.39 130.001ZM1567.4 190.178C1564.45 199.133 1555.49 204.922 1543.81 204.922C1527.54 204.922 1516.94 193.454 1516.94 176.745V174.779H1597.65V165.059C1597.65 129.455 1576.14 106.411 1542.06 106.411C1507.44 106.411 1485.6 130.656 1485.6 168.007C1485.6 205.468 1507.22 228.512 1543.26 228.512C1572.2 228.512 1593.17 213.113 1596.67 190.178H1567.4ZM1614.14 226H1646.03V160.581C1646.03 144.09 1655.21 134.479 1670.93 134.479C1675.52 134.479 1679.89 135.243 1682.51 136.335V108.267C1680.33 107.612 1677.16 107.066 1673.44 107.066C1659.68 107.066 1649.75 115.148 1645.6 130.001H1644.94V108.923H1614.14V226ZM1749.57 164.294C1780.91 164.294 1805.16 140.376 1805.16 109.25C1805.16 78.1244 1780.91 54.2066 1749.57 54.2066C1718.22 54.2066 1693.98 78.2336 1693.98 109.25C1693.98 140.376 1718.33 164.294 1749.57 164.294ZM1749.57 150.315C1726.63 150.315 1709.16 132.622 1709.16 109.25C1709.16 85.8786 1726.63 68.2952 1749.57 68.2952C1772.61 68.2952 1790.09 85.8786 1790.09 109.25C1790.09 132.622 1772.61 150.315 1749.57 150.315ZM1741.27 133.823V116.568H1748.47L1759.51 133.823H1775.67L1762.34 114.602C1768.9 112.854 1773.05 107.066 1773.05 99.4211C1773.05 89.8103 1765.51 83.2575 1754.26 83.2575H1727.83V133.823H1741.27ZM1741.27 93.9604H1751.42C1756.23 93.9604 1758.85 96.1447 1758.85 100.295C1758.85 104.445 1756.01 106.738 1751.21 106.738H1741.27V93.9604Z" fill="#E3E3E3"/>
<path d="M426.394 350L450.945 276.955H434.291L417.586 334.257H417.232L400.527 276.955H383.417L407.968 350H426.394ZM456.614 350H471.395V295.735H456.614V350ZM464.005 289.762C468.459 289.762 471.901 286.371 471.901 282.118C471.901 277.816 468.459 274.475 464.005 274.475C459.55 274.475 456.108 277.816 456.108 282.118C456.108 286.371 459.55 289.762 464.005 289.762ZM530.874 295.735H515.435L504.197 336.94H503.893L492.605 295.735H476.761L495.541 350H512.246L530.874 295.735ZM555.678 340.18C550.666 340.18 547.325 337.649 547.325 333.599C547.325 329.752 550.464 327.272 555.981 326.867L567.421 326.158V330.106C567.421 335.978 562.106 340.18 555.678 340.18ZM550.818 350.861C557.601 350.861 564.334 347.469 567.371 341.698H567.675V350H581.949V312.693C581.949 301.759 572.888 294.571 558.968 294.571C544.592 294.571 535.632 301.81 535.075 312.339H548.591C549.299 308.34 552.792 305.606 558.31 305.606C563.878 305.606 567.421 308.542 567.421 313.604V317.198L553.754 318.008C540.238 318.818 532.645 324.538 532.645 334.409C532.645 344.179 540.492 350.861 550.818 350.861ZM661.372 315.933C660.714 303.632 651.4 294.571 636.72 294.571C620.471 294.571 610.094 305.404 610.094 322.817C610.094 340.534 620.471 351.164 636.822 351.164C651.097 351.164 660.664 342.913 661.423 330.106H647.654C646.743 336.029 642.896 339.572 636.974 339.572C629.634 339.572 625.078 333.498 625.078 322.817C625.078 312.339 629.634 306.163 636.923 306.163C642.997 306.163 646.794 310.213 647.654 315.933H661.372ZM693.466 351.164C709.866 351.164 720.345 340.686 720.345 322.817C720.345 305.201 709.715 294.571 693.466 294.571C677.217 294.571 666.586 305.252 666.586 322.817C666.586 340.635 677.065 351.164 693.466 351.164ZM693.466 339.876C686.176 339.876 681.57 333.751 681.57 322.868C681.57 312.086 686.278 305.859 693.466 305.859C700.654 305.859 705.311 312.086 705.311 322.868C705.311 333.751 700.704 339.876 693.466 339.876ZM727.989 350H742.77V317.249C742.77 311.174 746.566 306.922 752.185 306.922C757.652 306.922 760.942 310.364 760.942 316.186V350H775.166V317.046C775.166 311.023 778.862 306.922 784.481 306.922C790.201 306.922 793.339 310.364 793.339 316.641V350H808.12V312.946C808.12 302.012 800.983 294.723 790.352 294.723C782.405 294.723 775.926 299.026 773.496 305.859H773.192C771.37 298.772 765.903 294.723 758.057 294.723C750.666 294.723 744.845 299.026 742.567 305.556H742.263V295.735H727.989V350ZM842.39 351.164C858.791 351.164 869.269 340.686 869.269 322.817C869.269 305.201 858.639 294.571 842.39 294.571C826.141 294.571 815.511 305.252 815.511 322.817C815.511 340.635 825.989 351.164 842.39 351.164ZM842.39 339.876C835.101 339.876 830.494 333.751 830.494 322.868C830.494 312.086 835.202 305.859 842.39 305.859C849.578 305.859 854.235 312.086 854.235 322.868C854.235 333.751 849.629 339.876 842.39 339.876ZM947.579 295.735H932.797V326.816C932.797 334.004 928.697 338.712 922.117 338.712C915.587 338.712 911.993 334.865 911.993 327.626V295.735H897.212V330.714C897.212 343.369 905.007 351.012 916.751 351.012C924.951 351.012 930.317 347.064 933 340.23H933.304V350H947.579V295.735ZM957.196 350H971.977V317.249C971.977 311.174 975.774 306.922 981.393 306.922C986.86 306.922 990.15 310.364 990.15 316.186V350H1004.37V317.046C1004.37 311.023 1008.07 306.922 1013.69 306.922C1019.41 306.922 1022.55 310.364 1022.55 316.641V350H1037.33V312.946C1037.33 302.012 1030.19 294.723 1019.56 294.723C1011.61 294.723 1005.13 299.026 1002.7 305.859H1002.4C1000.58 298.772 995.111 294.723 987.265 294.723C979.874 294.723 974.053 299.026 971.775 305.556H971.471V295.735H957.196V350ZM1068.51 276.955V350H1083.8V326.968H1097.46C1112.85 326.968 1123.53 316.945 1123.53 301.962C1123.53 286.927 1113.21 276.955 1098.22 276.955H1068.51ZM1083.8 289.053H1094.17C1102.93 289.053 1107.99 293.71 1107.99 302.012C1107.99 310.364 1102.88 315.021 1094.12 315.021H1083.8V289.053ZM1131.33 350H1146.11V319.679C1146.11 312.035 1150.36 307.58 1157.65 307.58C1159.78 307.58 1161.8 307.935 1163.02 308.441V295.432C1162.01 295.128 1160.54 294.875 1158.82 294.875C1152.44 294.875 1147.83 298.621 1145.91 305.505H1145.6V295.735H1131.33V350ZM1192.17 351.164C1208.58 351.164 1219.05 340.686 1219.05 322.817C1219.05 305.201 1208.42 294.571 1192.17 294.571C1175.93 294.571 1165.3 305.252 1165.3 322.817C1165.3 340.635 1175.77 351.164 1192.17 351.164ZM1192.17 339.876C1184.89 339.876 1180.28 333.751 1180.28 322.868C1180.28 312.086 1184.99 305.859 1192.17 305.859C1199.36 305.859 1204.02 312.086 1204.02 322.868C1204.02 333.751 1199.41 339.876 1192.17 339.876Z" fill="#BFBFBF"/>
<g filter="url(#filter0_d_436_2)">
<path d="M258.787 59.6431C244.281 15.4002 175.423 17.1032 162.348 59.6431H150.951C169.016 0.917099 255.024 5.36187 270.184 59.6431H258.787Z" fill="#D8D8D8"/>
<rect x="85.6523" y="59.6431" width="249.822" height="231.842" rx="33.1203" fill="url(#paint0_linear_436_2)"/>
<rect x="17.5215" y="135.157" width="249.822" height="231.842" rx="33.1203" fill="#D8D8D8"/>
<path d="M190.652 176.227C176.146 250.886 107.288 248.013 94.2137 176.227H82.8164C100.881 275.327 186.889 267.826 202.05 176.227H190.652Z" fill="#7884A4"/>
</g>
<circle cx="88" cy="176" r="9" fill="#7884A4"/>
<circle cx="196" cy="176" r="9" fill="#7884A4"/>
</g>
<defs>
<filter id="filter0_d_436_2" x="-0.478516" y="-2.75098" width="363.953" height="395.75" filterUnits="userSpaceOnUse" color-interpolation-filters="sRGB">
<feFlood flood-opacity="0" result="BackgroundImageFix"/>
<feColorMatrix in="SourceAlpha" type="matrix" values="0 0 0 0 0 0 0 0 0 0 0 0 0 0 0 0 0 0 127 0" result="hardAlpha"/>
<feOffset dx="5" dy="3"/>
<feGaussianBlur stdDeviation="11.5"/>
<feComposite in2="hardAlpha" operator="out"/>
<feColorMatrix type="matrix" values="0 0 0 0 0 0 0 0 0 0 0 0 0 0 0 0 0 0 0.25 0"/>
<feBlend mode="normal" in2="BackgroundImageFix" result="effect1_dropShadow_436_2"/>
<feBlend mode="normal" in="SourceGraphic" in2="effect1_dropShadow_436_2" result="shape"/>
</filter>
<linearGradient id="paint0_linear_436_2" x1="210.563" y1="59.6431" x2="210.563" y2="291.485" gradientUnits="userSpaceOnUse">
<stop stop-color="#00ADEF"/>
<stop offset="1" stop-color="#007EAE"/>
</linearGradient>
<clipPath id="clip0_436_2">
<rect width="1810" height="385" fill="white"/>
</clipPath>
</defs>
</svg>
