<svg width="1698" height="400" viewBox="0 0 1698 400" fill="none" xmlns="http://www.w3.org/2000/svg">
<path d="M267.645 54.8669C252.634 9.08695 181.384 10.8491 167.856 54.8669H156.062C174.755 -5.89934 263.751 -1.30015 279.438 54.8669H267.645Z" fill="#E3E3E3"/>
<rect x="88.4961" y="54.8672" width="258.501" height="239.897" rx="25" fill="url(#paint0_linear_773_2)"/>
<rect x="18" y="133.006" width="258.501" height="239.897" rx="25" fill="white"/>
<path d="M196.124 180.289C179.535 250.98 113.644 248.371 98.3305 180.28C97.7155 177.546 95.3228 175.502 92.5201 175.502C88.8999 175.502 86.1676 178.837 86.9587 182.37C107.756 275.239 189.346 268.529 207.649 182.357C208.405 178.802 205.636 175.502 202.001 175.502C199.183 175.502 196.768 177.545 196.124 180.289Z" fill="#293B52"/>
<path d="M583.975 152.735V230H555.231V156.164C555.231 147.022 553.561 140.254 550.221 135.859C547.056 131.288 542.046 129.002 535.19 129.002C530.267 129.002 525.96 130.057 522.268 132.167C518.752 134.276 515.94 137.353 513.83 141.396C511.896 145.44 510.929 150.362 510.929 156.164V230H482.45V156.164C482.45 147.022 480.779 140.254 477.439 135.859C474.275 131.288 469.177 129.002 462.145 129.002C457.398 129.002 453.179 130.057 449.487 132.167C445.971 134.276 443.158 137.353 441.048 141.396C439.115 145.44 438.148 150.362 438.148 156.164V230H410.195V108.697H438.148V126.365C441.84 119.685 446.498 114.675 452.124 111.334C457.75 107.818 464.518 106.06 472.429 106.06C481.219 106.06 488.515 107.906 494.316 111.598C500.293 115.29 504.6 120.652 507.238 127.684C511.633 120.476 516.994 115.114 523.323 111.598C529.828 107.906 537.124 106.06 545.211 106.06C554.001 106.06 561.208 107.906 566.834 111.598C572.46 115.114 576.679 120.388 579.492 127.42C582.48 134.452 583.975 142.891 583.975 152.735ZM627.459 192.291C627.459 196.334 628.425 199.85 630.359 202.839C632.293 205.652 634.93 207.761 638.27 209.168C641.786 210.574 645.742 211.277 650.137 211.277C655.938 211.277 661.124 210.134 665.695 207.849C670.442 205.388 674.222 201.96 677.034 197.565C679.847 193.17 681.254 187.896 681.254 181.743L685.473 197.565C685.473 205.3 683.187 211.805 678.617 217.079C674.222 222.353 668.596 226.308 661.74 228.945C655.059 231.406 648.203 232.637 641.171 232.637C633.612 232.637 626.58 231.143 620.075 228.154C613.57 225.165 608.384 220.77 604.517 214.969C600.649 209.168 598.715 202.136 598.715 193.873C598.715 182.094 602.846 172.777 611.109 165.921C619.372 158.889 631.062 155.373 646.181 155.373C654.268 155.373 661.212 156.252 667.014 158.01C672.991 159.768 677.913 161.877 681.781 164.338C685.649 166.624 688.374 168.733 689.956 170.667V185.171C684.506 181.303 678.705 178.49 672.552 176.732C666.398 174.974 659.894 174.095 653.038 174.095C647.06 174.095 642.226 174.886 638.534 176.469C634.842 177.875 632.029 179.897 630.096 182.534C628.338 185.171 627.459 188.423 627.459 192.291ZM618.493 140.342L606.89 120.3C612.515 116.96 619.635 113.708 628.25 110.543C636.864 107.379 646.885 105.797 658.312 105.797C668.156 105.797 676.947 107.291 684.682 110.28C692.417 113.092 698.394 117.312 702.613 122.937C707.008 128.563 709.206 135.419 709.206 143.506V230H681.254V149.044C681.254 145.176 680.638 142.012 679.408 139.55C678.177 137.089 676.331 135.067 673.87 133.485C671.585 131.903 668.86 130.76 665.695 130.057C662.531 129.354 659.103 129.002 655.411 129.002C649.785 129.002 644.423 129.706 639.325 131.112C634.403 132.343 630.183 133.925 626.667 135.859C623.151 137.617 620.427 139.111 618.493 140.342ZM750.846 169.349C750.846 176.908 752.516 183.589 755.856 189.39C759.197 195.191 763.68 199.762 769.305 203.102C775.107 206.443 781.523 208.113 788.555 208.113C794.533 208.113 800.07 207.234 805.169 205.476C810.443 203.542 815.101 201.081 819.145 198.092C823.188 194.928 826.177 191.412 828.111 187.544V218.925C823.891 223.144 818.178 226.484 810.97 228.945C803.762 231.406 795.851 232.637 787.237 232.637C774.931 232.637 763.767 230 753.747 224.726C743.902 219.276 736.079 211.805 730.277 202.311C724.476 192.642 721.575 181.655 721.575 169.349C721.575 156.867 724.476 145.879 730.277 136.386C736.079 126.893 743.902 119.509 753.747 114.235C763.767 108.785 774.931 106.06 787.237 106.06C795.851 106.06 803.762 107.291 810.97 109.752C818.178 112.213 823.891 115.466 828.111 119.509V151.153C826.177 147.11 823.1 143.594 818.881 140.605C814.838 137.441 810.179 134.98 804.905 133.222C799.631 131.464 794.181 130.585 788.555 130.585C781.523 130.585 775.107 132.255 769.305 135.595C763.68 138.935 759.197 143.506 755.856 149.307C752.516 155.109 750.846 161.789 750.846 169.349ZM876.731 288.014H847.987V108.697H876.731V288.014ZM977.201 169.349C977.201 182.71 974.476 194.225 969.026 203.894C963.576 213.387 956.368 220.683 947.403 225.781C938.437 230.703 928.68 233.164 918.132 233.164C907.935 233.164 898.969 230.615 891.234 225.517C883.675 220.243 877.785 212.859 873.566 203.366C869.347 193.697 867.237 182.358 867.237 169.349C867.237 156.164 869.347 144.824 873.566 135.331C877.785 125.838 883.675 118.454 891.234 113.18C898.969 107.906 907.935 105.269 918.132 105.269C928.68 105.269 938.437 107.818 947.403 112.917C956.368 118.015 963.576 125.311 969.026 134.804C974.476 144.121 977.201 155.636 977.201 169.349ZM947.666 169.349C947.666 161.262 945.996 154.406 942.656 148.78C939.316 142.979 934.921 138.671 929.471 135.859C924.021 132.87 917.956 131.376 911.275 131.376C905.65 131.376 900.2 132.87 894.926 135.859C889.652 138.671 885.257 142.891 881.741 148.516C878.401 154.142 876.731 161.086 876.731 169.349C876.731 177.611 878.401 184.555 881.741 190.181C885.257 195.807 889.652 200.114 894.926 203.102C900.2 205.915 905.65 207.322 911.275 207.322C917.956 207.322 924.021 205.827 929.471 202.839C934.921 199.85 939.316 195.543 942.656 189.917C945.996 184.292 947.666 177.436 947.666 169.349ZM1022 108.697V230H993.779V108.697H1022ZM1058.12 139.023C1055.66 136.913 1053.2 135.331 1050.74 134.276C1048.45 133.222 1045.55 132.694 1042.04 132.694C1037.29 132.694 1033.42 133.925 1030.43 136.386C1027.44 138.847 1025.25 142.275 1023.84 146.67C1022.61 150.89 1022 155.9 1022 161.701L1012.5 156.164C1012.5 146.495 1014.26 137.968 1017.78 130.585C1021.47 123.025 1026.13 117.048 1031.75 112.653C1037.55 108.082 1043.53 105.797 1049.68 105.797C1054.08 105.797 1058.21 106.5 1062.08 107.906C1065.95 109.313 1069.29 111.686 1072.1 115.026L1058.12 139.023ZM1129.97 232.637C1117.66 232.637 1106.76 230 1097.27 224.726C1087.95 219.452 1080.74 212.068 1075.64 202.575C1070.55 193.082 1068 182.006 1068 169.349C1068 156.515 1070.55 145.352 1075.64 135.859C1080.92 126.365 1088.3 119.07 1097.79 113.971C1107.29 108.697 1118.45 106.06 1131.28 106.06C1144.12 106.06 1155.02 108.522 1163.98 113.444C1173.13 118.366 1180.07 125.486 1184.82 134.804C1189.56 143.945 1191.94 155.021 1191.94 168.03C1191.94 169.437 1191.85 170.931 1191.67 172.513C1191.67 174.095 1191.67 175.238 1191.67 175.941H1085.14V156.164H1167.15L1158.45 168.294C1158.97 167.239 1159.5 165.833 1160.03 164.075C1160.73 162.317 1161.08 160.822 1161.08 159.592C1161.08 153.087 1159.76 147.461 1157.13 142.715C1154.67 137.968 1151.15 134.276 1146.58 131.639C1142.18 129.002 1137 127.684 1131.02 127.684C1123.81 127.684 1117.66 129.266 1112.56 132.43C1107.64 135.595 1103.77 140.166 1100.96 146.143C1098.32 152.12 1097 159.504 1097 168.294C1096.83 176.908 1098.06 184.292 1100.7 190.445C1103.51 196.598 1107.46 201.257 1112.56 204.421C1117.66 207.585 1123.9 209.168 1131.28 209.168C1139.2 209.168 1146.05 207.585 1151.85 204.421C1157.65 201.257 1162.4 196.422 1166.09 189.917L1190.88 199.674C1184.38 210.574 1176.11 218.837 1166.09 224.462C1156.07 229.912 1144.03 232.637 1129.97 232.637ZM1382.61 152.735V230H1353.87V156.164C1353.87 147.022 1352.2 140.254 1348.85 135.859C1345.69 131.288 1340.68 129.002 1333.82 129.002C1328.9 129.002 1324.59 130.057 1320.9 132.167C1317.39 134.276 1314.57 137.353 1312.46 141.396C1310.53 145.44 1309.56 150.362 1309.56 156.164V230H1281.08V156.164C1281.08 147.022 1279.41 140.254 1276.07 135.859C1272.91 131.288 1267.81 129.002 1260.78 129.002C1256.03 129.002 1251.81 130.057 1248.12 132.167C1244.6 134.276 1241.79 137.353 1239.68 141.396C1237.75 145.44 1236.78 150.362 1236.78 156.164V230H1208.83V108.697H1236.78V126.365C1240.47 119.685 1245.13 114.675 1250.76 111.334C1256.38 107.818 1263.15 106.06 1271.06 106.06C1279.85 106.06 1287.15 107.906 1292.95 111.598C1298.93 115.29 1303.23 120.652 1305.87 127.684C1310.27 120.476 1315.63 115.114 1321.96 111.598C1328.46 107.906 1335.76 106.06 1343.84 106.06C1352.63 106.06 1359.84 107.906 1365.47 111.598C1371.09 115.114 1375.31 120.388 1378.13 127.42C1381.11 134.452 1382.61 142.891 1382.61 152.735ZM1407.11 60.44C1407.11 55.5176 1408.86 51.3863 1412.38 48.046C1416.07 44.7058 1420.29 43.0357 1425.04 43.0357C1430.14 43.0357 1434.44 44.7058 1437.96 48.046C1441.48 51.3863 1443.23 55.5176 1443.23 60.44C1443.23 65.1866 1441.48 69.3179 1437.96 72.834C1434.44 76.1742 1430.14 77.8443 1425.04 77.8443C1420.29 77.8443 1416.07 76.1742 1412.38 72.834C1408.86 69.3179 1407.11 65.1866 1407.11 60.44ZM1411.06 108.697H1439.28V230H1411.06V108.697ZM1520.66 232.637C1508.35 232.637 1497.45 230 1487.96 224.726C1478.64 219.452 1471.43 212.068 1466.33 202.575C1461.24 193.082 1458.69 182.006 1458.69 169.349C1458.69 156.515 1461.24 145.352 1466.33 135.859C1471.61 126.365 1478.99 119.07 1488.48 113.971C1497.98 108.697 1509.14 106.06 1521.97 106.06C1534.81 106.06 1545.71 108.522 1554.67 113.444C1563.82 118.366 1570.76 125.486 1575.51 134.804C1580.25 143.945 1582.63 155.021 1582.63 168.03C1582.63 169.437 1582.54 170.931 1582.36 172.513C1582.36 174.095 1582.36 175.238 1582.36 175.941H1475.83V156.164H1557.84L1549.14 168.294C1549.66 167.239 1550.19 165.833 1550.72 164.075C1551.42 162.317 1551.77 160.822 1551.77 159.592C1551.77 153.087 1550.45 147.461 1547.82 142.715C1545.36 137.968 1541.84 134.276 1537.27 131.639C1532.87 129.002 1527.69 127.684 1521.71 127.684C1514.5 127.684 1508.35 129.266 1503.25 132.43C1498.33 135.595 1494.46 140.166 1491.65 146.143C1489.01 152.12 1487.69 159.504 1487.69 168.294C1487.52 176.908 1488.75 184.292 1491.39 190.445C1494.2 196.598 1498.15 201.257 1503.25 204.421C1508.35 207.585 1514.59 209.168 1521.97 209.168C1529.89 209.168 1536.74 207.585 1542.54 204.421C1548.35 201.257 1553.09 196.422 1556.78 189.917L1581.57 199.674C1575.07 210.574 1566.8 218.837 1556.78 224.462C1546.76 229.912 1534.72 232.637 1520.66 232.637ZM1627.74 108.697V230H1599.52V108.697H1627.74ZM1663.86 139.023C1661.4 136.913 1658.94 135.331 1656.48 134.276C1654.19 133.222 1651.29 132.694 1647.78 132.694C1643.03 132.694 1639.16 133.925 1636.17 136.386C1633.19 138.847 1630.99 142.275 1629.58 146.67C1628.35 150.89 1627.74 155.9 1627.74 161.701L1618.24 156.164C1618.24 146.495 1620 137.968 1623.52 130.585C1627.21 123.025 1631.87 117.048 1637.49 112.653C1643.29 108.082 1649.27 105.797 1655.42 105.797C1659.82 105.797 1663.95 106.5 1667.82 107.906C1671.69 109.313 1675.03 111.686 1677.84 115.026L1663.86 139.023Z" fill="white"/>
<rect x="833" y="242" width="190" height="16" fill="url(#paint1_linear_773_2)"/>
<defs>
<linearGradient id="paint0_linear_773_2" x1="217.747" y1="54.8672" x2="217.747" y2="294.764" gradientUnits="userSpaceOnUse">
<stop stop-color="#338AF5"/>
<stop offset="1" stop-color="#0565DC"/>
</linearGradient>
<linearGradient id="paint1_linear_773_2" x1="834.326" y1="250" x2="1023" y2="250" gradientUnits="userSpaceOnUse">
<stop stop-color="#338AF5"/>
<stop offset="1" stop-color="#246DC8"/>
</linearGradient>
</defs>
</svg>
