<svg width="1566" height="385" viewBox="0 0 1566 385" fill="none" xmlns="http://www.w3.org/2000/svg">
<g filter="url(#filter0_d_678_38)">
<path d="M274.533 75.6969C261.633 36.356 200.405 37.8704 188.779 75.6969H178.645C194.708 23.4776 271.186 27.4299 284.667 75.6969H274.533Z" fill="#D8D8D8" style="fill:#D8D8D8;fill:color(display-p3 0.8458 0.8458 0.8458);fill-opacity:1;"/>
<rect x="120.582" y="75.6973" width="222.143" height="206.155" rx="29.4507" fill="url(#paint0_linear_678_38)" style=""/>
<rect x="60" y="142.845" width="222.143" height="206.155" rx="29.4507" fill="#D8D8D8" style="fill:#D8D8D8;fill:color(display-p3 0.8458 0.8458 0.8458);fill-opacity:1;"/>
<path d="M213.951 179.364C201.051 245.752 139.823 243.196 128.197 179.364H118.062C134.126 267.484 210.604 260.815 224.085 179.364H213.951Z" fill="#4F4F4F" style="fill:#4F4F4F;fill:color(display-p3 0.3084 0.3084 0.3084);fill-opacity:1;"/>
</g>
<path d="M405.579 211V75.6222H446.098L477.718 159.878L508.959 75.6222H548.72V211H518.236V115.951L480.747 211H470.712L433.033 115.951V211H405.579ZM601.404 213.083C583.416 213.083 568.269 204.373 568.269 183.546C568.269 160.446 589.475 151.737 619.77 151.737H630.941V147.761C630.941 136.022 627.343 129.584 614.847 129.584C604.054 129.584 599.132 135.075 597.996 143.595H572.056C573.76 120.117 592.315 109.703 616.551 109.703C640.786 109.703 658.016 119.549 658.016 146.435V211H631.319V199.072C625.639 207.024 616.93 213.083 601.404 213.083ZM609.545 193.959C621.663 193.959 630.941 187.333 630.941 176.351V168.02H620.338C604.433 168.02 595.155 171.428 595.155 182.031C595.155 189.226 599.51 193.959 609.545 193.959ZM726.454 213.083C697.485 213.083 675.521 195.095 675.521 162.718V161.204C675.521 129.205 698.431 109.703 726.643 109.703C749.553 109.703 770.759 119.738 773.22 148.139H747.281C745.388 136.59 738.382 131.288 727.211 131.288C713.01 131.288 703.544 141.891 703.544 160.825V162.34C703.544 182.22 712.442 192.445 727.779 192.445C738.761 192.445 747.66 186.007 748.985 173.321H773.789C772.274 196.8 755.233 213.083 726.454 213.083ZM791.042 244.702V111.975H818.496V127.501C823.987 118.034 835.537 109.703 850.116 109.703C874.352 109.703 893.285 127.691 893.285 160.446V161.961C893.285 194.717 874.73 213.083 850.116 213.083C834.78 213.083 823.609 205.509 818.496 195.853V244.702H791.042ZM841.974 191.687C857.122 191.687 865.453 181.463 865.453 162.15V160.636C865.453 140.566 855.607 130.72 841.785 130.72C827.395 130.72 817.55 140.755 817.55 160.636V162.15C817.55 182.031 827.017 191.687 841.974 191.687ZM911.598 211V111.975H939.052V130.909C945.301 117.656 954.957 110.65 971.051 110.461V136.022C950.791 135.832 939.052 142.459 939.052 161.393V211H911.598ZM1032.85 213.083C1002.94 213.083 981.164 194.338 981.164 162.718V161.204C981.164 129.963 1003.32 109.703 1032.1 109.703C1057.66 109.703 1080.38 124.661 1080.38 160.068V167.641H1009C1009.75 184.114 1018.65 193.581 1033.61 193.581C1046.3 193.581 1052.55 188.09 1054.25 179.759H1080.19C1076.97 201.154 1059.93 213.083 1032.85 213.083ZM1009.38 150.79H1053.68C1052.73 135.832 1045.16 128.637 1032.1 128.637C1019.79 128.637 1011.46 136.779 1009.38 150.79ZM1098.35 211V111.975H1125.8V127.123C1130.73 117.845 1141.33 109.703 1156.1 109.703C1169.16 109.703 1179.01 115.194 1183.74 126.933C1191.69 115.005 1204.57 109.703 1217.07 109.703C1235.43 109.703 1249.63 121.253 1249.63 147.571V211H1222.37V150.601C1222.37 137.915 1216.69 132.235 1206.84 132.235C1196.24 132.235 1187.72 139.051 1187.72 152.494V211H1160.45V150.601C1160.45 137.915 1154.58 132.235 1144.93 132.235C1134.32 132.235 1125.8 139.051 1125.8 152.494V211H1098.35ZM1273.84 211V111.975H1301.1V211H1273.84ZM1287.28 98.5323C1278.57 98.5323 1271.76 92.0947 1271.76 83.5744C1271.76 75.0541 1278.57 68.6166 1287.28 68.6166C1296.18 68.6166 1303 75.0541 1303 83.5744C1303 92.0947 1296.18 98.5323 1287.28 98.5323ZM1371.96 213.083C1342.05 213.083 1320.27 194.338 1320.27 162.718V161.204C1320.27 129.963 1342.43 109.703 1371.21 109.703C1396.77 109.703 1419.49 124.661 1419.49 160.068V167.641H1348.11C1348.86 184.114 1357.76 193.581 1372.72 193.581C1385.41 193.581 1391.66 188.09 1393.36 179.759H1419.3C1416.08 201.154 1399.04 213.083 1371.96 213.083ZM1348.49 150.79H1392.79C1391.84 135.832 1384.27 128.637 1371.21 128.637C1358.9 128.637 1350.57 136.779 1348.49 150.79ZM1437.46 211V111.975H1464.91V130.909C1471.16 117.656 1480.82 110.65 1496.91 110.461V136.022C1476.65 135.832 1464.91 142.459 1464.91 161.393V211H1437.46Z" fill="#D8D8D8" style="fill:#D8D8D8;fill:color(display-p3 0.8458 0.8458 0.8458);fill-opacity:1;"/>
<circle cx="123.5" cy="176.5" r="9.5" fill="#4F4F4F" style="fill:#4F4F4F;fill:color(display-p3 0.3084 0.3084 0.3084);fill-opacity:1;"/>
<circle cx="217.5" cy="176.5" r="9.5" fill="#4F4F4F" style="fill:#4F4F4F;fill:color(display-p3 0.3084 0.3084 0.3084);fill-opacity:1;"/>
<rect x="783" y="225" width="112" height="16" fill="url(#paint1_linear_678_38)" style=""/>
<path d="M1190.55 339V247.238H1218.14C1235.21 247.238 1247.66 252.885 1247.66 270.98V271.494C1247.66 279.836 1244.32 287.279 1233.8 290.873C1247.15 294.081 1252.15 300.883 1252.15 312.819V313.332C1252.15 330.658 1240.35 339 1221.99 339H1190.55ZM1201.46 330.273H1221.74C1235.08 330.273 1241.24 324.369 1241.24 313.204V312.691C1241.24 301.397 1234.96 296.006 1220.2 296.006H1201.46V330.273ZM1201.46 287.279H1218.14C1231.62 287.279 1236.75 282.403 1236.75 271.109V270.595C1236.75 260.2 1230.72 255.965 1217.89 255.965H1201.46V287.279ZM1269.62 339V271.879H1280.27V283.943C1284.5 276.371 1290.28 271.109 1302.34 270.724V280.734C1288.87 281.376 1280.27 285.611 1280.27 302.167V339H1269.62ZM1334.05 340.155C1321.61 340.155 1311.72 334.123 1311.72 320.391C1311.72 304.862 1328.15 299.6 1345.35 299.6H1354.97V294.723C1354.97 284.071 1350.87 279.579 1340.6 279.579C1331.36 279.579 1326.23 283.429 1325.2 291.643H1314.55C1315.96 276.371 1328.15 270.724 1341.11 270.724C1353.95 270.724 1365.63 275.986 1365.63 294.723V339H1354.97V330.53C1349.97 336.818 1343.94 340.155 1334.05 340.155ZM1335.08 331.685C1346.38 331.685 1354.97 325.909 1354.97 315.514V307.172H1345.73C1332.26 307.172 1322.38 310.509 1322.38 320.391C1322.38 327.321 1325.71 331.685 1335.08 331.685ZM1407.34 340.155C1391.3 340.155 1381.67 332.07 1381.03 318.337H1391.43C1392.2 326.294 1396.43 331.3 1407.21 331.3C1417.35 331.3 1421.84 327.835 1421.84 320.648C1421.84 313.589 1416.58 311.279 1406.19 309.354C1388.73 306.145 1382.83 301.268 1382.83 289.589C1382.83 277.141 1395.02 270.724 1405.54 270.724C1417.61 270.724 1428 275.601 1429.8 290.103H1419.53C1417.99 282.788 1413.89 279.579 1405.42 279.579C1397.72 279.579 1392.71 283.429 1392.71 289.204C1392.71 295.236 1396.05 297.675 1408.37 299.857C1422.23 302.423 1431.98 305.504 1431.98 319.749C1431.98 331.941 1423.64 340.155 1407.34 340.155ZM1448.47 339V271.879H1459.12V339H1448.47ZM1453.6 257.89C1449.75 257.89 1446.54 254.681 1446.54 250.831C1446.54 246.981 1449.75 243.772 1453.6 243.772C1457.45 243.772 1460.66 246.981 1460.66 250.831C1460.66 254.681 1457.45 257.89 1453.6 257.89ZM1481.18 339V239.794H1491.96V339H1481.18Z" fill="#C1C1C1" style="fill:#C1C1C1;fill:color(display-p3 0.7583 0.7583 0.7583);fill-opacity:1;"/>
<defs>
<filter id="filter0_d_678_38" x="43.9943" y="20.2159" width="323.63" height="351.903" filterUnits="userSpaceOnUse" color-interpolation-filters="sRGB">
<feFlood flood-opacity="0" result="BackgroundImageFix"/>
<feColorMatrix in="SourceAlpha" type="matrix" values="0 0 0 0 0 0 0 0 0 0 0 0 0 0 0 0 0 0 127 0" result="hardAlpha"/>
<feOffset dx="4.44602" dy="2.66761"/>
<feGaussianBlur stdDeviation="10.2258"/>
<feComposite in2="hardAlpha" operator="out"/>
<feColorMatrix type="matrix" values="0 0 0 0 0 0 0 0 0 0 0 0 0 0 0 0 0 0 0.25 0"/>
<feBlend mode="normal" in2="BackgroundImageFix" result="effect1_dropShadow_678_38"/>
<feBlend mode="normal" in="SourceGraphic" in2="effect1_dropShadow_678_38" result="shape"/>
</filter>
<linearGradient id="paint0_linear_678_38" x1="231.653" y1="75.6973" x2="231.653" y2="281.852" gradientUnits="userSpaceOnUse">
<stop stop-color="#00ADEF" style="stop-color:#00ADEF;stop-color:color(display-p3 0.0000 0.6784 0.9373);stop-opacity:1;"/>
<stop offset="1" stop-color="#007EAE" style="stop-color:#007EAE;stop-color:color(display-p3 0.0000 0.4946 0.6833);stop-opacity:1;"/>
</linearGradient>
<linearGradient id="paint1_linear_678_38" x1="783.782" y1="233" x2="895" y2="233" gradientUnits="userSpaceOnUse">
<stop stop-color="#64C8E8" style="stop-color:#64C8E8;stop-color:color(display-p3 0.3936 0.7848 0.9083);stop-opacity:1;"/>
<stop offset="1" stop-color="#00A1D3" style="stop-color:#00A1D3;stop-color:color(display-p3 0.0000 0.6302 0.8292);stop-opacity:1;"/>
</linearGradient>
</defs>
</svg>
