<svg width="1639" height="350" viewBox="0 0 1639 350" fill="none" xmlns="http://www.w3.org/2000/svg">
<rect width="1639" height="350" fill="#25B1C2"/>
<g filter="url(#filter0_d_306_10)">
<path d="M355.979 265.741H395.872V177.348C395.872 160.953 406.118 149.477 421.283 149.477C436.038 149.477 444.918 158.768 444.918 174.479V265.741H483.308V176.801C483.308 160.544 493.282 149.477 508.446 149.477C523.884 149.477 532.355 158.768 532.355 175.708V265.741H572.248V165.735C572.248 136.225 552.984 116.552 524.294 116.552C502.845 116.552 485.358 128.165 478.8 146.608H477.98C473.062 127.482 458.307 116.552 437.131 116.552C417.184 116.552 401.473 128.165 395.325 145.789H394.506V119.284H355.979V265.741ZM630.952 243.787C619.748 243.787 612.28 238.129 612.28 229.076C612.28 220.475 619.296 214.931 631.631 214.025L657.205 212.441V221.268C657.205 234.395 645.323 243.787 630.952 243.787ZM620.088 267.664C635.252 267.664 650.302 260.083 657.092 247.182H657.771V265.741H689.683V182.34C689.683 157.896 669.427 141.827 638.307 141.827C606.169 141.827 586.139 158.009 584.894 181.547H615.109C616.693 172.608 624.501 166.497 636.836 166.497C649.284 166.497 657.205 173.06 657.205 184.376V192.411L626.651 194.222C596.437 196.032 579.462 208.82 579.462 230.886C579.462 252.727 597.003 267.664 620.088 267.664ZM812.022 189.582C810.55 162.083 789.728 141.827 756.911 141.827C720.586 141.827 697.387 166.044 697.387 204.972C697.387 244.579 720.586 268.343 757.137 268.343C789.049 268.343 810.437 249.898 812.135 221.268H781.354C779.317 234.508 770.717 242.429 757.477 242.429C741.068 242.429 730.884 228.85 730.884 204.972C730.884 181.547 741.068 167.742 757.364 167.742C770.943 167.742 779.431 176.795 781.354 189.582H812.022ZM906.573 116.962C885.397 116.962 869.139 127.618 861.215 144.832H860.395V119.284H821.049V313.558H860.942V241.149H861.761C869.549 257.68 885.943 268.063 907.256 268.063C943.87 268.063 966.549 239.646 966.549 192.513C966.549 145.242 943.733 116.962 906.573 116.962ZM893.184 235.958C873.647 235.958 860.805 219.017 860.805 192.513C860.805 166.282 873.647 148.931 893.184 148.931C913.13 148.931 925.699 166.008 925.699 192.513C925.699 219.153 913.13 235.958 893.184 235.958ZM973.758 265.741H1006.8V197.956C1006.8 180.868 1016.31 170.91 1032.6 170.91C1037.36 170.91 1041.88 171.702 1044.6 172.834V143.751C1042.33 143.072 1039.05 142.506 1035.21 142.506C1020.95 142.506 1010.65 150.88 1006.35 166.27H1005.67V144.43H973.758V265.741ZM1099.26 166.27C1113.98 166.27 1124.05 176.908 1124.73 192.411H1073.24C1074.37 177.247 1084.78 166.27 1099.26 166.27ZM1125.18 228.623C1122.12 237.903 1112.84 243.9 1100.74 243.9C1083.87 243.9 1072.9 232.018 1072.9 214.704V212.667H1156.53V202.596C1156.53 165.705 1134.23 141.827 1098.93 141.827C1063.05 141.827 1040.42 166.949 1040.42 205.651C1040.42 244.466 1062.83 268.343 1100.17 268.343C1130.16 268.343 1151.89 252.387 1155.51 228.623H1125.18ZM1164.34 265.741H1197.39V192.524C1197.39 178.945 1205.87 169.439 1218.43 169.439C1230.66 169.439 1238.01 177.134 1238.01 190.148V265.741H1269.81V192.072C1269.81 178.605 1278.07 169.439 1290.63 169.439C1303.42 169.439 1310.44 177.134 1310.44 191.166V265.741H1343.48V182.905C1343.48 158.462 1327.52 142.167 1303.76 142.167C1285.99 142.167 1271.51 151.786 1266.08 167.063H1265.4C1261.32 151.22 1249.1 142.167 1231.56 142.167C1215.04 142.167 1202.03 151.786 1196.93 166.384H1196.25V144.43H1164.34V265.741ZM1355.71 265.741H1388.75V144.43H1355.71V265.741ZM1372.23 131.077C1382.19 131.077 1389.89 123.495 1389.89 113.989C1389.89 104.37 1382.19 96.9014 1372.23 96.9014C1362.27 96.9014 1354.58 104.37 1354.58 113.989C1354.58 123.495 1362.27 131.077 1372.23 131.077ZM1455.98 166.27C1470.69 166.27 1480.76 176.908 1481.44 192.411H1429.95C1431.09 177.247 1441.5 166.27 1455.98 166.27ZM1481.9 228.623C1478.84 237.903 1469.56 243.9 1457.45 243.9C1440.59 243.9 1429.61 232.018 1429.61 214.704V212.667H1513.24V202.596C1513.24 165.705 1490.95 141.827 1455.64 141.827C1419.77 141.827 1397.14 166.949 1397.14 205.651C1397.14 244.466 1419.54 268.343 1456.89 268.343C1486.88 268.343 1508.6 252.387 1512.22 228.623H1481.9ZM1521.06 265.741H1554.1V197.956C1554.1 180.868 1563.61 170.91 1579.9 170.91C1584.66 170.91 1589.18 171.702 1591.9 172.834V143.751C1589.64 143.072 1586.35 142.506 1582.51 142.506C1568.25 142.506 1557.95 150.88 1553.65 166.27H1552.97V144.43H1521.06V265.741Z" fill="url(#paint0_linear_306_10)"/>
</g>
<g filter="url(#filter1_d_306_10)">
<path d="M218.537 62.4859C200.776 1.9786 116.47 4.3077 100.463 62.4859H86.5088C108.627 -17.8287 213.929 -11.75 232.491 62.4859H218.537Z" fill="#DFDFDF"/>
</g>
<g filter="url(#filter2_d_306_10)">
<rect x="13" y="62.4858" width="293" height="274.364" rx="23.8127" fill="#DFDFDF"/>
</g>
<g filter="url(#filter3_i_306_10)">
<path d="M43.0249 250.85C43.0249 254.91 45.3895 259.611 47.7542 260.359C50.4826 261.214 267.482 261.214 270.211 260.359C272.576 259.611 274.94 254.91 274.94 250.85V248.178H225.374C195.452 248.178 175.808 248.606 175.808 249.14C175.808 249.674 175.171 250.956 174.353 251.811C173.17 253.2 170.442 253.521 158.983 253.521C147.523 253.521 144.795 253.2 143.612 251.811C142.794 250.956 142.157 249.674 142.157 249.14C142.157 248.606 122.513 248.178 92.5911 248.178H43.0249V250.85Z" fill="#25B1C2"/>
</g>
<g filter="url(#filter4_i_306_10)">
<rect x="72.0142" y="138.065" width="174.972" height="100.428" rx="8.28269" fill="#25B1C2"/>
</g>
<defs>
<filter id="filter0_d_306_10" x="355.979" y="96.9014" width="1239.15" height="220.961" filterUnits="userSpaceOnUse" color-interpolation-filters="sRGB">
<feFlood flood-opacity="0" result="BackgroundImageFix"/>
<feColorMatrix in="SourceAlpha" type="matrix" values="0 0 0 0 0 0 0 0 0 0 0 0 0 0 0 0 0 0 127 0" result="hardAlpha"/>
<feOffset dx="2.15228" dy="3.22843"/>
<feGaussianBlur stdDeviation="0.538071"/>
<feComposite in2="hardAlpha" operator="out"/>
<feColorMatrix type="matrix" values="0 0 0 0 0 0 0 0 0 0 0 0 0 0 0 0 0 0 0.19 0"/>
<feBlend mode="normal" in2="BackgroundImageFix" result="effect1_dropShadow_306_10"/>
<feBlend mode="normal" in="SourceGraphic" in2="effect1_dropShadow_306_10" result="shape"/>
</filter>
<filter id="filter1_d_306_10" x="86.5088" y="4.50708" width="149.088" height="62.1201" filterUnits="userSpaceOnUse" color-interpolation-filters="sRGB">
<feFlood flood-opacity="0" result="BackgroundImageFix"/>
<feColorMatrix in="SourceAlpha" type="matrix" values="0 0 0 0 0 0 0 0 0 0 0 0 0 0 0 0 0 0 127 0" result="hardAlpha"/>
<feOffset dx="2.07067" dy="3.10601"/>
<feGaussianBlur stdDeviation="0.517668"/>
<feComposite in2="hardAlpha" operator="out"/>
<feColorMatrix type="matrix" values="0 0 0 0 0 0 0 0 0 0 0 0 0 0 0 0 0 0 0.25 0"/>
<feBlend mode="normal" in2="BackgroundImageFix" result="effect1_dropShadow_306_10"/>
<feBlend mode="normal" in="SourceGraphic" in2="effect1_dropShadow_306_10" result="shape"/>
</filter>
<filter id="filter2_d_306_10" x="13" y="62.4858" width="296.106" height="278.505" filterUnits="userSpaceOnUse" color-interpolation-filters="sRGB">
<feFlood flood-opacity="0" result="BackgroundImageFix"/>
<feColorMatrix in="SourceAlpha" type="matrix" values="0 0 0 0 0 0 0 0 0 0 0 0 0 0 0 0 0 0 127 0" result="hardAlpha"/>
<feOffset dx="2.07067" dy="3.10601"/>
<feGaussianBlur stdDeviation="0.517668"/>
<feComposite in2="hardAlpha" operator="out"/>
<feColorMatrix type="matrix" values="0 0 0 0 0 0 0 0 0 0 0 0 0 0 0 0 0 0 0.25 0"/>
<feBlend mode="normal" in2="BackgroundImageFix" result="effect1_dropShadow_306_10"/>
<feBlend mode="normal" in="SourceGraphic" in2="effect1_dropShadow_306_10" result="shape"/>
</filter>
<filter id="filter3_i_306_10" x="43.0249" y="248.178" width="232.95" height="13.857" filterUnits="userSpaceOnUse" color-interpolation-filters="sRGB">
<feFlood flood-opacity="0" result="BackgroundImageFix"/>
<feBlend mode="normal" in="SourceGraphic" in2="BackgroundImageFix" result="shape"/>
<feColorMatrix in="SourceAlpha" type="matrix" values="0 0 0 0 0 0 0 0 0 0 0 0 0 0 0 0 0 0 127 0" result="hardAlpha"/>
<feOffset dx="1.03534" dy="2.07067"/>
<feGaussianBlur stdDeviation="0.517668"/>
<feComposite in2="hardAlpha" operator="arithmetic" k2="-1" k3="1"/>
<feColorMatrix type="matrix" values="0 0 0 0 0 0 0 0 0 0 0 0 0 0 0 0 0 0 0.25 0"/>
<feBlend mode="normal" in2="shape" result="effect1_innerShadow_306_10"/>
</filter>
<filter id="filter4_i_306_10" x="72.0142" y="138.065" width="176.007" height="101.463" filterUnits="userSpaceOnUse" color-interpolation-filters="sRGB">
<feFlood flood-opacity="0" result="BackgroundImageFix"/>
<feBlend mode="normal" in="SourceGraphic" in2="BackgroundImageFix" result="shape"/>
<feColorMatrix in="SourceAlpha" type="matrix" values="0 0 0 0 0 0 0 0 0 0 0 0 0 0 0 0 0 0 127 0" result="hardAlpha"/>
<feOffset dx="1.03534" dy="2.07067"/>
<feGaussianBlur stdDeviation="0.517668"/>
<feComposite in2="hardAlpha" operator="arithmetic" k2="-1" k3="1"/>
<feColorMatrix type="matrix" values="0 0 0 0 0 0 0 0 0 0 0 0 0 0 0 0 0 0 0.25 0"/>
<feBlend mode="normal" in2="shape" result="effect1_innerShadow_306_10"/>
</filter>
<linearGradient id="paint0_linear_306_10" x1="359.282" y1="166.71" x2="1554.45" y2="166.71" gradientUnits="userSpaceOnUse">
<stop stop-color="#DFDFDF"/>
<stop offset="0.503298" stop-color="#DFDFDF"/>
<stop offset="1" stop-color="#DFDFDF"/>
</linearGradient>
</defs>
</svg>
