<svg width="1566" height="385" viewBox="0 0 1566 385" fill="none" xmlns="http://www.w3.org/2000/svg">
<g filter="url(#filter0_d_678_38)">
<path d="M274.533 75.6969C261.633 36.356 200.405 37.8704 188.779 75.6969H178.645C194.708 23.4776 271.186 27.4299 284.667 75.6969H274.533Z" fill="#D8D8D8" style="fill:#D8D8D8;fill:color(display-p3 0.8458 0.8458 0.8458);fill-opacity:1;"/>
<rect x="120.582" y="75.6973" width="222.143" height="206.155" rx="29.4507" fill="url(#paint0_linear_678_38)" style=""/>
<rect x="60" y="142.845" width="222.143" height="206.155" rx="29.4507" fill="#D8D8D8" style="fill:#D8D8D8;fill:color(display-p3 0.8458 0.8458 0.8458);fill-opacity:1;"/>
<path d="M213.951 179.364C201.051 245.752 139.823 243.196 128.197 179.364H118.062C134.126 267.484 210.604 260.815 224.085 179.364H213.951Z" fill="#4F4F4F" style="fill:#4F4F4F;fill:color(display-p3 0.3084 0.3084 0.3084);fill-opacity:1;"/>
</g>
<path d="M403.118 211V111.975H430.572V127.123C435.495 117.845 446.098 109.703 460.866 109.703C473.931 109.703 483.776 115.194 488.51 126.933C496.462 115.005 509.337 109.703 521.834 109.703C540.2 109.703 554.4 121.253 554.4 147.571V211H527.135V150.601C527.135 137.915 521.455 132.235 511.609 132.235C501.006 132.235 492.486 139.051 492.486 152.494V211H465.221V150.601C465.221 137.915 459.352 132.235 449.695 132.235C439.092 132.235 430.572 139.051 430.572 152.494V211H403.118ZM604.547 213.083C586.56 213.083 571.413 204.373 571.413 183.546C571.413 160.446 592.619 151.737 622.913 151.737H634.084V147.761C634.084 136.022 630.487 129.584 617.99 129.584C607.198 129.584 602.275 135.075 601.139 143.595H575.199C576.903 120.117 595.459 109.703 619.694 109.703C643.93 109.703 661.16 119.549 661.16 146.435V211H634.463V199.072C628.782 207.024 620.073 213.083 604.547 213.083ZM612.689 193.959C624.806 193.959 634.084 187.333 634.084 176.351V168.02H623.481C607.576 168.02 598.299 171.428 598.299 182.031C598.299 189.226 602.654 193.959 612.689 193.959ZM729.597 213.083C700.628 213.083 678.665 195.095 678.665 162.718V161.204C678.665 129.205 701.575 109.703 729.786 109.703C752.696 109.703 773.902 119.738 776.364 148.139H750.424C748.531 136.59 741.525 131.288 730.354 131.288C716.154 131.288 706.687 141.891 706.687 160.825V162.34C706.687 182.22 715.586 192.445 730.922 192.445C741.904 192.445 750.803 186.007 752.128 173.321H776.932C775.417 196.8 758.377 213.083 729.597 213.083ZM794.185 244.702V111.975H821.64V127.501C827.131 118.034 838.68 109.703 853.259 109.703C877.495 109.703 896.429 127.691 896.429 160.446V161.961C896.429 194.717 877.874 213.083 853.259 213.083C837.923 213.083 826.752 205.509 821.64 195.853V244.702H794.185ZM845.118 191.687C860.265 191.687 868.596 181.463 868.596 162.15V160.636C868.596 140.566 858.75 130.72 844.928 130.72C830.539 130.72 820.693 140.755 820.693 160.636V162.15C820.693 182.031 830.16 191.687 845.118 191.687ZM914.742 211V111.975H942.196V130.909C948.444 117.656 958.1 110.65 974.194 110.461V136.022C953.935 135.832 942.196 142.459 942.196 161.393V211H914.742ZM1036 213.083C1006.08 213.083 984.308 194.338 984.308 162.718V161.204C984.308 129.963 1006.46 109.703 1035.24 109.703C1060.8 109.703 1083.52 124.661 1083.52 160.068V167.641H1012.14C1012.9 184.114 1021.8 193.581 1036.75 193.581C1049.44 193.581 1055.69 188.09 1057.39 179.759H1083.33C1080.11 201.154 1063.07 213.083 1036 213.083ZM1012.52 150.79H1056.82C1055.88 135.832 1048.3 128.637 1035.24 128.637C1022.93 128.637 1014.6 136.779 1012.52 150.79ZM1101.49 211V111.975H1128.95V127.123C1133.87 117.845 1144.47 109.703 1159.24 109.703C1172.31 109.703 1182.15 115.194 1186.88 126.933C1194.84 115.005 1207.71 109.703 1220.21 109.703C1238.57 109.703 1252.77 121.253 1252.77 147.571V211H1225.51V150.601C1225.51 137.915 1219.83 132.235 1209.98 132.235C1199.38 132.235 1190.86 139.051 1190.86 152.494V211H1163.6V150.601C1163.6 137.915 1157.73 132.235 1148.07 132.235C1137.47 132.235 1128.95 139.051 1128.95 152.494V211H1101.49ZM1276.98 211V111.975H1304.25V211H1276.98ZM1290.43 98.5323C1281.72 98.5323 1274.9 92.0947 1274.9 83.5744C1274.9 75.0541 1281.72 68.6166 1290.43 68.6166C1299.32 68.6166 1306.14 75.0541 1306.14 83.5744C1306.14 92.0947 1299.32 98.5323 1290.43 98.5323ZM1375.11 213.083C1345.19 213.083 1323.42 194.338 1323.42 162.718V161.204C1323.42 129.963 1345.57 109.703 1374.35 109.703C1399.91 109.703 1422.63 124.661 1422.63 160.068V167.641H1351.25C1352.01 184.114 1360.91 193.581 1375.86 193.581C1388.55 193.581 1394.8 188.09 1396.5 179.759H1422.44C1419.22 201.154 1402.18 213.083 1375.11 213.083ZM1351.63 150.79H1395.93C1394.99 135.832 1387.41 128.637 1374.35 128.637C1362.04 128.637 1353.71 136.779 1351.63 150.79ZM1440.6 211V111.975H1468.06V130.909C1474.31 117.656 1483.96 110.65 1500.06 110.461V136.022C1479.8 135.832 1468.06 142.459 1468.06 161.393V211H1440.6Z" fill="#D8D8D8" style="fill:#D8D8D8;fill:color(display-p3 0.8458 0.8458 0.8458);fill-opacity:1;"/>
<circle cx="123.5" cy="176.5" r="9.5" fill="#4F4F4F" style="fill:#4F4F4F;fill:color(display-p3 0.3084 0.3084 0.3084);fill-opacity:1;"/>
<circle cx="217.5" cy="176.5" r="9.5" fill="#4F4F4F" style="fill:#4F4F4F;fill:color(display-p3 0.3084 0.3084 0.3084);fill-opacity:1;"/>
<defs>
<filter id="filter0_d_678_38" x="43.9943" y="20.2159" width="323.63" height="351.903" filterUnits="userSpaceOnUse" color-interpolation-filters="sRGB">
<feFlood flood-opacity="0" result="BackgroundImageFix"/>
<feColorMatrix in="SourceAlpha" type="matrix" values="0 0 0 0 0 0 0 0 0 0 0 0 0 0 0 0 0 0 127 0" result="hardAlpha"/>
<feOffset dx="4.44602" dy="2.66761"/>
<feGaussianBlur stdDeviation="10.2258"/>
<feComposite in2="hardAlpha" operator="out"/>
<feColorMatrix type="matrix" values="0 0 0 0 0 0 0 0 0 0 0 0 0 0 0 0 0 0 0.25 0"/>
<feBlend mode="normal" in2="BackgroundImageFix" result="effect1_dropShadow_678_38"/>
<feBlend mode="normal" in="SourceGraphic" in2="effect1_dropShadow_678_38" result="shape"/>
</filter>
<linearGradient id="paint0_linear_678_38" x1="231.653" y1="75.6973" x2="231.653" y2="281.852" gradientUnits="userSpaceOnUse">
<stop stop-color="#00ADEF" style="stop-color:#00ADEF;stop-color:color(display-p3 0.0000 0.6784 0.9373);stop-opacity:1;"/>
<stop offset="1" stop-color="#007EAE" style="stop-color:#007EAE;stop-color:color(display-p3 0.0000 0.4946 0.6833);stop-opacity:1;"/>
</linearGradient>
</defs>
</svg>
