<svg width="400" height="400" viewBox="0 0 400 400" fill="none" xmlns="http://www.w3.org/2000/svg">
<g clip-path="url(#clip0_782_33)">
<rect width="400" height="400" rx="24.704" fill="url(#paint0_linear_782_33)"/>
<path d="M347.413 200.628V332H298.54V206.457C298.54 190.913 295.701 179.405 290.021 171.932C284.641 164.161 276.122 160.275 264.464 160.275C256.095 160.275 248.771 162.068 242.494 165.655C236.516 169.242 231.733 174.473 228.146 181.348C224.858 188.223 223.214 196.593 223.214 206.457V332H174.791V206.457C174.791 190.913 171.951 179.405 166.271 171.932C160.891 164.161 152.223 160.275 140.266 160.275C132.195 160.275 125.022 162.068 118.744 165.655C112.766 169.242 107.984 174.473 104.397 181.348C101.109 188.223 99.4645 196.593 99.4645 206.457V332H51.9375V125.75H99.4645V155.791C105.742 144.432 113.663 135.913 123.228 130.234C132.793 124.256 144.301 121.267 157.752 121.267C172.698 121.267 185.103 124.405 194.967 130.682C205.13 136.96 212.453 146.076 216.937 158.033C224.41 145.777 233.527 136.661 244.288 130.682C255.347 124.405 267.752 121.267 281.502 121.267C296.448 121.267 308.703 124.405 318.269 130.682C327.834 136.661 335.008 145.628 339.79 157.585C344.872 169.541 347.413 183.889 347.413 200.628Z" fill="white"/>
<path d="M258.628 -24.9993C240.651 68.7353 155.324 65.1272 139.123 -24.9993H125C147.386 99.4197 253.964 90.0029 272.751 -24.9993H258.628Z" fill="white"/>
</g>
<defs>
<linearGradient id="paint0_linear_782_33" x1="200" y1="0" x2="200" y2="400" gradientUnits="userSpaceOnUse">
<stop stop-color="#338AF5"/>
<stop offset="1" stop-color="#0565DC"/>
</linearGradient>
<clipPath id="clip0_782_33">
<rect width="400" height="400" rx="72" fill="white"/>
</clipPath>
</defs>
</svg>
