<svg width="400" height="400" viewBox="0 0 400 400" fill="none" xmlns="http://www.w3.org/2000/svg">
<rect width="400" height="400" rx="37" fill="#2D2D2D"/>
<path d="M262.63 99.2668C251.589 65.5928 199.18 66.889 189.229 99.2668H180.555C194.304 54.5695 259.766 57.9525 271.305 99.2668H262.63Z" fill="#E3E3E3"/>
<rect x="130.855" y="99.2676" width="190.143" height="176.459" rx="25.2084" fill="url(#paint0_linear_747_46)"/>
<rect x="79" y="156.744" width="190.143" height="176.459" rx="25.2084" fill="#E3E3E3"/>
<path d="M210.017 191.522C197.815 243.52 149.348 241.601 138.084 191.516C137.632 189.504 135.872 188.001 133.81 188.001C131.147 188.001 129.138 190.454 129.719 193.053C145.017 261.363 205.032 256.428 218.495 193.043C219.05 190.428 217.014 188.001 214.34 188.001C212.268 188.001 210.49 189.504 210.017 191.522Z" fill="#3F3F3F"/>
<circle cx="210.29" cy="187.267" r="13.6103" fill="#B9B9B9"/>
<circle cx="135.27" cy="187.267" r="13.6103" fill="#B9B9B9"/>
<defs>
<linearGradient id="paint0_linear_747_46" x1="225.927" y1="99.2676" x2="225.927" y2="275.726" gradientUnits="userSpaceOnUse">
<stop stop-color="#00ADEF"/>
<stop offset="1" stop-color="#008BEF"/>
</linearGradient>
</defs>
</svg>
