<svg width="400" height="400" viewBox="0 0 400 400" fill="none" xmlns="http://www.w3.org/2000/svg">
<g clip-path="url(#clip0_814_70)">
<rect width="400" height="400" rx="24.704" fill="#0B58FF"/>
<path d="M311.907 198.428V298H275.079V202.52C275.079 190.699 272.919 181.946 268.6 176.263C264.508 170.352 257.915 167.397 248.822 167.397C242.684 167.397 237.228 168.761 232.454 171.489C227.907 174.217 224.27 178.195 221.542 183.424C219.041 188.653 217.791 195.018 217.791 202.52V298H180.963V202.52C180.963 190.699 178.803 181.946 174.484 176.263C170.392 170.352 163.799 167.397 154.706 167.397C148.341 167.397 142.771 168.761 137.997 171.489C133.45 174.217 129.927 178.195 127.426 183.424C124.925 188.653 123.675 195.018 123.675 202.52V298H87.529V141.14H123.675V163.987C128.222 155.348 134.132 148.869 141.407 144.55C148.909 140.003 157.661 137.73 167.664 137.73C179.258 137.73 188.806 140.117 196.308 144.891C204.037 149.665 209.607 156.599 213.017 165.692C218.473 156.599 225.293 149.665 233.477 144.891C241.888 140.117 251.436 137.73 262.121 137.73C273.26 137.73 282.467 140.117 289.742 144.891C297.244 149.438 302.814 156.258 306.451 165.351C310.088 174.444 311.907 185.47 311.907 198.428Z" fill="white"/>
<path d="M140.122 0.00072074C158.098 93.7353 243.426 90.1272 259.627 0.000731187L273.75 0.000732422C251.364 124.42 144.786 115.003 125.999 0.000719505L140.122 0.00072074Z" fill="white"/>
</g>
<defs>
<clipPath id="clip0_814_70">
<rect width="400" height="400" rx="72" fill="white"/>
</clipPath>
</defs>
</svg>
