<svg width="365" height="400" viewBox="0 0 365 400" fill="none" xmlns="http://www.w3.org/2000/svg">
<path d="M267.645 54.8669C252.634 9.08695 181.384 10.8491 167.856 54.8669H156.062C174.755 -5.89934 263.751 -1.30015 279.438 54.8669H267.645Z" fill="#E3E3E3"/>
<rect x="88.4961" y="54.8672" width="258.501" height="239.897" rx="34.271" fill="url(#paint0_linear_747_30)"/>
<rect x="18" y="133.006" width="258.501" height="239.897" rx="34.271" fill="#E3E3E3"/>
<path d="M196.124 180.289C179.535 250.98 113.644 248.371 98.3305 180.28C97.7155 177.546 95.3228 175.502 92.5201 175.502C88.8999 175.502 86.1676 178.837 86.9587 182.37C107.756 275.239 189.346 268.529 207.649 182.357C208.405 178.802 205.636 175.502 202.001 175.502C199.183 175.502 196.768 177.545 196.124 180.289Z" fill="#3F3F3F"/>
<circle cx="196.495" cy="174.503" r="18.5032" fill="#B9B9B9"/>
<circle cx="94.5033" cy="174.503" r="18.5032" fill="#B9B9B9"/>
<defs>
<linearGradient id="paint0_linear_747_30" x1="217.747" y1="54.8672" x2="217.747" y2="294.764" gradientUnits="userSpaceOnUse">
<stop stop-color="#00ADEF"/>
<stop offset="1" stop-color="#008BEF"/>
</linearGradient>
</defs>
</svg>
