<svg width="128" height="128" viewBox="0 0 128 128" fill="none" xmlns="http://www.w3.org/2000/svg">
<g clip-path="url(#clip0_835_2)">
<rect width="128" height="128" rx="17.6" fill="url(#paint0_linear_835_2)"/>
<path d="M111.027 64.1044V106H95.5316V65.8262C95.5316 60.8523 94.6229 57.1696 92.8056 54.7783C91.0838 52.2914 88.3099 51.0479 84.4838 51.0479C81.9012 51.0479 79.6056 51.6218 77.5969 52.7697C75.6839 53.9175 74.1534 55.5914 73.0056 57.7914C71.9534 59.9914 71.4273 62.6696 71.4273 65.8262V106H55.9317V65.8262C55.9317 60.8523 55.023 57.1696 53.2056 54.7783C51.4839 52.2914 48.71 51.0479 44.8839 51.0479C42.2056 51.0479 39.8622 51.6218 37.8535 52.7697C35.9404 53.9175 34.4578 55.5914 33.4057 57.7914C32.3535 59.9914 31.8274 62.6696 31.8274 65.8262V106H16.6187V40.0001H31.8274V49.6131C33.7404 45.9784 36.2274 43.2523 39.2883 41.4349C42.4448 39.5219 46.1274 38.5653 50.3361 38.5653C55.2143 38.5653 59.2317 39.5697 62.3882 41.5784C65.6404 43.5871 67.9839 46.5044 69.4186 50.3305C71.7143 46.5044 74.5839 43.5871 78.0273 41.5784C81.5665 39.5697 85.5838 38.5653 90.0795 38.5653C94.7664 38.5653 98.6403 39.5697 101.701 41.5784C104.858 43.4914 107.201 46.361 108.732 50.187C110.262 54.0131 111.027 58.6523 111.027 64.1044Z" fill="white"/>
<path d="M82.7608 -7.99945C77.0085 21.9956 49.7038 20.841 44.5194 -7.99945H40C47.1634 31.8146 81.2685 28.8012 87.2803 -7.99945H82.7608Z" fill="white"/>
</g>
<defs>
<linearGradient id="paint0_linear_835_2" x1="64" y1="0" x2="64" y2="128" gradientUnits="userSpaceOnUse">
<stop stop-color="#1760FF"/>
<stop offset="1" stop-color="#0A50E9"/>
</linearGradient>
<clipPath id="clip0_835_2">
<rect width="128" height="128" fill="white"/>
</clipPath>
</defs>
</svg>
