<svg width="365" height="400" viewBox="0 0 365 400" fill="none" xmlns="http://www.w3.org/2000/svg">
<path d="M277.028 48.3283C260.491 -2.10762 181.995 -0.166197 167.09 48.3283H154.098C174.691 -18.618 272.738 -13.5511 290.021 48.3283H277.028Z" fill="#E3E3E3"/>
<rect x="79.6719" y="48.3281" width="284.792" height="264.295" rx="37.7565" fill="url(#paint0_linear_747_30)"/>
<rect x="2" y="134.414" width="284.792" height="264.295" rx="37.7565" fill="#E3E3E3"/>
<path d="M198.239 186.505C179.962 264.386 107.371 261.511 90.4997 186.495C89.8222 183.483 87.1861 181.231 84.0983 181.231C80.11 181.231 77.0998 184.906 77.9714 188.798C100.884 291.111 190.772 283.719 210.937 188.784C211.769 184.867 208.719 181.231 204.714 181.231C201.61 181.231 198.948 183.482 198.239 186.505Z" fill="#3F3F3F"/>
<circle cx="198.651" cy="180.131" r="20.3851" fill="#B9B9B9"/>
<circle cx="86.2835" cy="180.131" r="20.3851" fill="#B9B9B9"/>
<defs>
<linearGradient id="paint0_linear_747_30" x1="222.068" y1="48.3281" x2="222.068" y2="312.623" gradientUnits="userSpaceOnUse">
<stop stop-color="#00ADEF"/>
<stop offset="1" stop-color="#008BEF"/>
</linearGradient>
</defs>
</svg>
