<svg width="400" height="400" viewBox="0 0 400 400" fill="none" xmlns="http://www.w3.org/2000/svg">
<rect width="400" height="400" rx="37" fill="#2D2D2D"/>
<path d="M284.094 65.0669C269.358 20.1218 199.407 21.8519 186.125 65.0669H174.547C192.899 5.40886 280.271 9.92418 295.672 65.0669H284.094Z" fill="#E3E3E3"/>
<rect x="108.215" y="65.0684" width="253.787" height="235.522" rx="33.646" fill="url(#paint0_linear_750_2)"/>
<rect x="39" y="141.783" width="253.787" height="235.522" rx="33.646" fill="#E3E3E3"/>
<path d="M213.865 188.202C197.579 257.604 132.89 255.043 117.855 188.193C117.252 185.509 114.903 183.502 112.151 183.502C108.597 183.502 105.914 186.777 106.691 190.245C127.109 281.42 207.212 274.833 225.181 190.233C225.922 186.742 223.204 183.502 219.636 183.502C216.869 183.502 214.497 185.508 213.865 188.202Z" fill="#3F3F3F"/>
<circle cx="214.228" cy="182.521" r="18.1658" fill="#B9B9B9"/>
<circle cx="114.099" cy="182.521" r="18.1658" fill="#B9B9B9"/>
<defs>
<linearGradient id="paint0_linear_750_2" x1="235.108" y1="65.0684" x2="235.108" y2="300.59" gradientUnits="userSpaceOnUse">
<stop stop-color="#00ADEF"/>
<stop offset="1" stop-color="#008BEF"/>
</linearGradient>
</defs>
</svg>
