<svg width="300" height="300" viewBox="0 0 300 300" fill="none" xmlns="http://www.w3.org/2000/svg">
<g clip-path="url(#clip0_668_17)">
<g style="mix-blend-mode:multiply">
<path d="M154.321 4.32395L164.163 19.601L177.056 6.79389L184.387 23.4226L199.125 12.79L203.765 30.3608L219.985 22.1647L221.819 40.245L239.121 34.6872L238.104 52.8317L256.063 50.049L252.22 67.811L270.393 67.8719L263.818 84.8141L281.758 87.7171L272.614 103.422L289.879 109.096L278.391 123.177L294.556 131.482L281.006 143.593L295.673 154.324L280.396 164.166L293.203 177.059L276.574 184.391L287.207 199.129L269.636 203.768L277.832 219.988L259.752 221.822L265.31 239.124L247.165 238.107L249.948 256.066L232.186 252.223L232.125 270.396L215.183 263.822L212.28 281.761L196.574 272.618L190.901 289.882L176.819 278.394L168.515 294.559L156.404 281.01L145.673 295.676L135.83 280.399L122.937 293.206L115.606 276.577L100.868 287.21L96.2283 269.639L80.0084 277.835L78.1746 259.755L60.8723 265.313L61.8893 247.168L43.9306 249.951L47.7736 232.189L29.6007 232.128L36.175 215.186L18.2353 212.283L27.379 196.578L10.1143 190.904L21.6023 176.823L5.43769 168.518L18.987 156.407L4.32058 145.676L19.5977 135.834L6.79052 122.941L23.4192 115.609L12.7867 100.871L30.3575 96.2316L22.1614 80.0118L40.2416 78.1779L34.6838 60.8756L52.8284 61.8927L50.0456 43.934L67.8077 47.777L67.8686 29.6041L84.8108 36.1783L87.7138 18.2387L103.419 27.3824L109.093 10.1177L123.174 21.6056L131.479 5.44106L143.59 18.9904L154.321 4.32395Z" fill="url(#paint0_linear_668_17)"/>
</g>
<path d="M100.965 149.94L104.576 144.033C105.01 143.322 105.129 142.478 104.905 141.685C104.681 140.892 104.133 140.215 103.383 139.804L97.1349 136.386V129.575C97.1349 128.754 96.7903 127.967 96.1769 127.386C95.5634 126.806 94.7314 126.48 93.8639 126.48H86.671L83.0631 120.57C82.6273 119.86 81.914 119.342 81.0776 119.127C80.6627 119.02 80.2296 118.993 79.8034 119.046C79.3772 119.099 78.9665 119.232 78.5949 119.436L72.3472 122.854L66.0996 119.433C65.3483 119.023 64.4555 118.912 63.6176 119.124C62.7796 119.337 62.0652 119.855 61.6314 120.566L58.0202 126.48H50.8273C49.9598 126.48 49.1278 126.806 48.5143 127.386C47.9009 127.967 47.5563 128.754 47.5563 129.575V136.383L41.3087 139.801C40.9359 140.004 40.6091 140.275 40.3472 140.598C40.0853 140.92 39.8933 141.289 39.7824 141.682C39.6714 142.076 39.6437 142.486 39.7007 142.889C39.7578 143.293 39.8985 143.681 40.1147 144.033L43.7259 149.94L40.1147 155.847C39.6829 156.558 39.5658 157.402 39.7888 158.195C40.0118 158.988 40.557 159.665 41.3054 160.079L47.553 163.497V170.305C47.553 171.126 47.8976 171.913 48.5111 172.494C49.1245 173.074 49.9565 173.401 50.824 173.401H58.0202L61.6314 179.314C61.921 179.782 62.3345 180.171 62.8312 180.443C63.3278 180.714 63.8906 180.859 64.4641 180.862C65.0333 180.862 65.5992 180.719 66.1029 180.444L72.344 177.026L78.5916 180.444C79.3427 180.854 80.2349 180.965 81.0725 180.753C81.9102 180.541 82.6248 180.024 83.0598 179.314L86.6677 173.401H93.8607C94.7282 173.401 95.5602 173.074 96.1736 172.494C96.787 171.913 97.1317 171.126 97.1317 170.305V163.497L103.379 160.079C103.751 159.875 104.078 159.605 104.339 159.282C104.6 158.959 104.792 158.59 104.903 158.197C105.014 157.804 105.042 157.394 104.985 156.991C104.929 156.588 104.789 156.199 104.573 155.847L100.965 149.94ZM64.1664 134.43C65.4682 134.43 66.7164 134.92 67.6366 135.791C68.5567 136.663 69.0734 137.845 69.073 139.077C69.0725 140.309 68.555 141.49 67.6342 142.361C66.7135 143.232 65.4649 143.721 64.1632 143.72C62.8615 143.72 61.6132 143.23 60.6931 142.359C59.7729 141.487 59.2562 140.306 59.2567 139.074C59.2571 137.842 59.7746 136.66 60.6954 135.789C61.6161 134.918 62.8647 134.429 64.1664 134.43ZM65.1478 164.15L59.9141 160.438L79.5402 135.671L84.7738 139.383L65.1478 164.15ZM80.5215 165.388C79.8769 165.388 79.2387 165.268 78.6433 165.034C78.0479 164.801 77.507 164.458 77.0514 164.027C76.5958 163.595 76.2344 163.083 75.988 162.519C75.7415 161.956 75.6148 161.352 75.615 160.742C75.6152 160.132 75.7424 159.527 75.9892 158.964C76.2361 158.4 76.5978 157.888 77.0537 157.457C77.5096 157.026 78.0508 156.684 78.6464 156.451C79.2419 156.217 79.8802 156.098 80.5248 156.098C81.8265 156.098 83.0747 156.588 83.9949 157.459C84.915 158.331 85.4317 159.513 85.4313 160.745C85.4308 161.977 84.9133 163.158 83.9925 164.029C83.0718 164.9 81.8232 165.389 80.5215 165.388Z" fill="white"/>
<path d="M126.172 139.724C129.083 139.724 130.899 137.476 130.899 133.787V133.556C130.899 129.896 129.055 127.734 126.144 127.734C123.233 127.734 121.417 129.838 121.417 133.585V133.816C121.417 137.562 123.319 139.724 126.172 139.724ZM126.057 144.364C119.399 144.364 115.249 140.041 115.249 133.844V133.614C115.249 127.331 119.976 123.123 126.144 123.123C132.427 123.123 137.067 127.071 137.067 133.47V133.7C137.067 140.041 132.715 144.364 126.057 144.364ZM139.959 144.019V123.411H153.88V127.994H145.896V132.375H152.266V136.727H145.896V144.019H139.959ZM156.65 144.019V123.411H170.888V127.965H162.529V131.51H169.187V135.718H162.529V139.465H171.349V144.019H156.65ZM174.298 144.019V123.411H182.368C187.757 123.411 190.755 125.601 190.755 129.953V130.069C190.755 133.009 189.199 134.651 187.037 135.487L191.965 144.019H185.74L181.561 136.64H180.177V144.019H174.298ZM180.177 132.807H182.08C184.068 132.807 185.048 131.971 185.048 130.299V130.184C185.048 128.512 184.011 127.849 182.108 127.849H180.177V132.807ZM197.78 144.019V127.965H192.448V123.411H209.049V127.965H203.717V144.019H197.78ZM208.148 144.019L214.748 123.411H222.386L228.929 144.019H222.674L221.579 140.185H214.748L213.653 144.019H208.148ZM218.178 128.195L215.901 136.121H220.426L218.178 128.195ZM116.344 176.019V155.411H122.281V171.436H130.063V176.019H116.344ZM133.038 176.019V155.411H139.004V176.019H133.038ZM143.055 176.019V155.411H150.751L154.699 166.392L158.648 155.411H166.199V176.019H160.319V163.193L155.276 176.019H153.316L148.33 163.193V176.019H143.055ZM170.332 176.019V155.411H176.298V176.019H170.332ZM184.298 176.019V159.965H178.966V155.411H195.567V159.965H190.235V176.019H184.298ZM194.666 176.019L201.266 155.411H208.904L215.447 176.019H209.192L208.097 172.185H201.266L200.171 176.019H194.666ZM204.696 160.195L202.419 168.121H206.944L204.696 160.195ZM223.749 171.465H225.104C228.62 171.465 230.177 169.62 230.177 165.787V165.556C230.177 161.636 228.62 159.965 225.046 159.965H223.749V171.465ZM217.812 176.019V155.411H225.306C232.626 155.411 236.344 159.071 236.344 165.47V165.7C236.344 172.128 232.54 176.019 225.277 176.019H217.812ZM236.604 176.019L243.204 155.411H250.842L257.385 176.019H251.13L250.035 172.185H243.204L242.109 176.019H236.604ZM246.634 160.195L244.357 168.121H248.882L246.634 160.195Z" fill="white"/>
</g>
<defs>
<linearGradient id="paint0_linear_668_17" x1="154.321" y1="4.32395" x2="145.673" y2="295.676" gradientUnits="userSpaceOnUse">
<stop stop-color="#C35249"/>
<stop offset="1" stop-color="#8E3F39"/>
</linearGradient>
<clipPath id="clip0_668_17">
<rect width="300" height="300" fill="white"/>
</clipPath>
</defs>
</svg>
