<svg width="250" height="250" viewBox="0 0 250 250" fill="none" xmlns="http://www.w3.org/2000/svg">
<rect x="18" y="18" width="213" height="213" rx="15.2143" fill="url(#paint0_linear_692_11)"/>
<path d="M81.5245 157.538C83.9854 157.538 85.3078 155.701 85.3078 152.506V152.212C85.3078 148.98 84.0222 147.18 81.5245 147.18C79.0635 147.18 77.7045 148.906 77.7045 152.139V152.432C77.7045 155.738 78.99 157.538 81.5245 157.538ZM81.4877 162.423C75.5741 162.423 70.9827 158.824 70.9827 152.616V152.322C70.9827 146.151 75.5741 142.258 81.5245 142.258C87.4381 142.258 91.9928 146.041 91.9928 152.139V152.432C91.9928 158.677 87.4014 162.423 81.4877 162.423ZM95.8521 161.982V147.253H93.4279V142.772H95.8521V141.083C95.8521 136.308 98.8273 134.03 103.382 134.03C104.594 134.03 105.512 134.214 106.394 134.434V139.246C105.916 139.099 105.329 138.989 104.594 138.989C103.051 138.989 102.39 139.834 102.39 141.083V142.772H106.284V147.253H102.39V161.982H95.8521ZM117.715 162.423C111.691 162.423 107.283 158.897 107.283 152.616V152.322C107.283 146.151 111.875 142.258 117.678 142.258C122.931 142.258 127.448 145.27 127.448 152.175V153.902H113.931C114.115 156.436 115.584 157.905 117.935 157.905C120.102 157.905 121.021 156.914 121.278 155.628H127.448C126.861 159.962 123.518 162.423 117.715 162.423ZM114.005 150.192H121.057C120.947 147.878 119.808 146.592 117.678 146.592C115.695 146.592 114.335 147.878 114.005 150.192ZM130.264 161.982V142.772H136.839V146.592C138.051 143.727 140.071 142.478 143.046 142.515V148.649C139.043 148.539 136.839 149.788 136.839 152.873V161.982H130.264ZM153.974 162.423C149.64 162.423 147.215 160.33 147.215 155.812V147.253H144.901V142.772H147.215V138.768H153.79V142.772H157.573V147.253H153.79V155.187C153.79 156.583 154.488 157.207 155.737 157.207C156.472 157.207 157.023 157.097 157.61 156.877V161.872C156.765 162.093 155.517 162.423 153.974 162.423ZM166.01 162.423C162.557 162.423 159.508 160.734 159.508 156.656C159.508 152.139 163.328 150.375 169.719 150.375H171.556V149.935C171.556 148.098 171.115 146.886 169.021 146.886C167.222 146.886 166.561 147.951 166.414 149.163H160.243C160.537 144.535 164.173 142.258 169.426 142.258C174.715 142.258 178.094 144.425 178.094 149.531V161.982H171.703V159.742C170.785 161.138 169.095 162.423 166.01 162.423ZM168.287 157.979C170.16 157.979 171.556 156.914 171.556 155.261V154.085H169.83C167.185 154.085 166.01 154.6 166.01 156.179C166.01 157.281 166.744 157.979 168.287 157.979ZM60.8966 195.423C54.8728 195.423 50.4651 191.897 50.4651 185.616V185.322C50.4651 179.151 55.0564 175.258 60.8599 175.258C66.1124 175.258 70.6303 178.27 70.6303 185.175V186.902H57.1134C57.297 189.436 58.7662 190.905 61.117 190.905C63.2841 190.905 64.2024 189.914 64.4595 188.628H70.6303C70.0426 192.962 66.7001 195.423 60.8966 195.423ZM57.1868 183.192H64.2391C64.129 180.878 62.9903 179.592 60.8599 179.592C58.8764 179.592 57.5174 180.878 57.1868 183.192ZM81.1552 195.423C75.6823 195.423 72.4867 193.146 72.3397 188.885H78.4003C78.6207 190.281 79.2452 191.052 81.1184 191.052C82.7346 191.052 83.4692 190.428 83.4692 189.473C83.4692 188.555 82.5509 188.114 79.9063 187.746C74.764 187.085 72.5969 185.579 72.5969 181.576C72.5969 177.315 76.3801 175.258 80.8246 175.258C85.5629 175.258 88.8686 176.874 89.3094 181.465H83.359C83.1019 180.18 82.404 179.555 80.898 179.555C79.4655 179.555 78.7309 180.18 78.7309 181.061C78.7309 181.98 79.6125 182.347 81.9632 182.641C87.2892 183.302 89.8604 184.698 89.8604 188.812C89.8604 193.366 86.4811 195.423 81.1552 195.423ZM92.5288 201.41V175.772H99.1037V178.637C100.206 176.801 102.189 175.258 105.091 175.258C109.572 175.258 113.208 178.637 113.208 185.212V185.506C113.208 192.117 109.572 195.423 105.054 195.423C102.152 195.423 100.059 194.064 99.1037 192.154V201.41H92.5288ZM102.74 190.391C105.201 190.391 106.523 188.665 106.523 185.506V185.212C106.523 181.833 105.054 180.217 102.74 180.217C100.353 180.217 98.92 181.943 98.92 185.175V185.469C98.92 188.738 100.353 190.391 102.74 190.391ZM125.534 195.423C119.511 195.423 115.103 191.897 115.103 185.616V185.322C115.103 179.151 119.694 175.258 125.498 175.258C130.75 175.258 135.268 178.27 135.268 185.175V186.902H121.751C121.935 189.436 123.404 190.905 125.755 190.905C127.922 190.905 128.84 189.914 129.097 188.628H135.268C134.68 192.962 131.338 195.423 125.534 195.423ZM121.825 183.192H128.877C128.767 180.878 127.628 179.592 125.498 179.592C123.514 179.592 122.155 180.878 121.825 183.192ZM147.156 195.423C141.426 195.423 137.055 192.081 137.055 185.616V185.322C137.055 178.931 141.647 175.258 147.303 175.258C152.005 175.258 156.339 177.315 156.706 183.155H150.536C150.242 181.355 149.36 180.364 147.45 180.364C145.136 180.364 143.777 182.016 143.777 185.249V185.543C143.777 188.885 145.063 190.611 147.56 190.611C149.397 190.611 150.682 189.51 150.903 187.416H156.816C156.633 192.264 153.364 195.423 147.156 195.423ZM159.682 194.982V175.772H166.257V194.982H159.682ZM162.951 173.936C160.894 173.936 159.351 172.503 159.351 170.556C159.351 168.61 160.894 167.14 162.951 167.14C165.008 167.14 166.587 168.61 166.587 170.556C166.587 172.503 165.008 173.936 162.951 173.936ZM175.73 195.423C172.278 195.423 169.229 193.734 169.229 189.656C169.229 185.139 173.049 183.375 179.44 183.375H181.277V182.935C181.277 181.098 180.836 179.886 178.742 179.886C176.942 179.886 176.281 180.951 176.134 182.163H169.964C170.257 177.535 173.894 175.258 179.146 175.258C184.436 175.258 187.815 177.425 187.815 182.531V194.982H181.424V192.742C180.505 194.138 178.816 195.423 175.73 195.423ZM178.008 190.979C179.881 190.979 181.277 189.914 181.277 188.261V187.085H179.55C176.906 187.085 175.73 187.6 175.73 189.179C175.73 190.281 176.465 190.979 178.008 190.979ZM191.75 194.982V167.324H198.288V194.982H191.75Z" fill="url(#paint1_linear_692_11)"/>
<path d="M158.838 86.229L163.109 79.3082C163.622 78.4755 163.762 77.4858 163.497 76.5566C163.232 75.6275 162.585 74.8349 161.697 74.3533L154.307 70.3488V62.3689C154.307 61.4068 153.9 60.4842 153.174 59.804C152.448 59.1238 151.464 58.7416 150.438 58.7416H141.93L137.663 51.8172C137.148 50.9862 136.304 50.379 135.315 50.1269C134.824 50.0021 134.312 49.97 133.808 50.0322C133.303 50.0945 132.818 50.25 132.378 50.4896L124.988 54.4941L117.599 50.486C116.71 50.005 115.654 49.8746 114.663 50.1236C113.672 50.3726 112.827 50.9804 112.314 51.8135L108.042 58.7416H99.5345C98.5084 58.7416 97.5243 59.1238 96.7987 59.804C96.0732 60.4842 95.6655 61.4068 95.6655 62.3689V70.3452L88.2758 74.3497C87.8349 74.5875 87.4484 74.9046 87.1386 75.2828C86.8288 75.6611 86.6018 76.093 86.4705 76.5538C86.3393 77.0145 86.3065 77.495 86.374 77.9677C86.4414 78.4404 86.6078 78.896 86.8637 79.3082L91.135 86.229L86.8637 93.1498C86.3529 93.9832 86.2143 94.9722 86.4782 95.901C86.742 96.8299 87.3868 97.6233 88.272 98.1082L95.6617 102.113V110.089C95.6617 111.051 96.0693 111.974 96.7949 112.654C97.5204 113.334 98.5045 113.716 99.5306 113.716H108.042L112.314 120.644C112.656 121.193 113.145 121.649 113.733 121.967C114.32 122.285 114.986 122.454 115.664 122.458C116.337 122.458 117.007 122.291 117.602 121.968L124.984 117.964L132.374 121.968C133.263 122.449 134.318 122.579 135.309 122.331C136.299 122.083 137.145 121.476 137.659 120.644L141.927 113.716H150.434C151.461 113.716 152.445 113.334 153.17 112.654C153.896 111.974 154.303 111.051 154.303 110.089V102.113L161.693 98.1082C162.133 97.8698 162.519 97.5523 162.828 97.174C163.137 96.7956 163.364 96.3639 163.495 95.9034C163.626 95.4429 163.659 94.9627 163.593 94.4902C163.526 94.0177 163.36 93.5622 163.105 93.1498L158.838 86.229ZM115.312 68.0564C116.852 68.0569 118.328 68.6308 119.417 69.6518C120.505 70.6729 121.116 72.0574 121.115 73.5009C121.115 74.9444 120.503 76.3286 119.414 77.349C118.325 78.3693 116.848 78.9423 115.308 78.9418C113.769 78.9413 112.292 78.3674 111.204 77.3464C110.115 76.3253 109.504 74.9408 109.505 73.4973C109.505 72.0538 110.117 70.6696 111.206 69.6492C112.296 68.6289 113.772 68.0559 115.312 68.0564ZM116.473 102.878L110.282 98.529L133.496 69.5109L139.686 73.86L116.473 102.878ZM134.657 104.329C133.894 104.329 133.14 104.188 132.435 103.914C131.731 103.64 131.091 103.239 130.552 102.734C130.013 102.228 129.586 101.628 129.295 100.967C129.003 100.307 128.853 99.5992 128.853 98.8845C128.854 98.1697 129.004 97.462 129.296 96.8018C129.588 96.1415 130.016 95.5417 130.555 95.0364C131.094 94.5312 131.734 94.1305 132.439 93.8572C133.143 93.5839 133.898 93.4433 134.661 93.4436C136.2 93.4441 137.677 94.018 138.765 95.039C139.854 96.06 140.465 97.4446 140.464 98.8881C140.464 100.332 139.851 101.716 138.762 102.736C137.673 103.757 136.197 104.329 134.657 104.329Z" fill="url(#paint2_linear_692_11)"/>
<defs>
<linearGradient id="paint0_linear_692_11" x1="124.5" y1="18" x2="124.5" y2="231" gradientUnits="userSpaceOnUse">
<stop stop-color="#C8544B"/>
<stop offset="1" stop-color="#A4473F"/>
</linearGradient>
<linearGradient id="paint1_linear_692_11" x1="124.981" y1="133.982" x2="124.981" y2="199.818" gradientUnits="userSpaceOnUse">
<stop stop-color="white"/>
<stop offset="1" stop-color="white" stop-opacity="0.69"/>
</linearGradient>
<linearGradient id="paint2_linear_692_11" x1="124.984" y1="50" x2="124.984" y2="122.458" gradientUnits="userSpaceOnUse">
<stop stop-color="white"/>
<stop offset="1" stop-color="white" stop-opacity="0.69"/>
</linearGradient>
</defs>
</svg>
