<svg width="802" height="161" viewBox="0 0 802 161" fill="none" xmlns="http://www.w3.org/2000/svg">
<path d="M225.771 61.9058C223.033 60.5014 220.118 59.3076 217.029 58.3245C213.939 57.2711 210.989 56.7444 208.18 56.7444C204.388 56.7444 201.369 57.5871 199.122 59.2725C196.945 60.9578 195.856 63.2752 195.856 66.2246C195.856 68.3313 196.629 70.1922 198.174 71.8073C199.719 73.3522 201.685 74.7216 204.072 75.9154C206.46 77.0389 208.988 78.1274 211.656 79.1807C213.974 80.0234 216.256 81.0417 218.503 82.2354C220.821 83.359 222.892 84.7635 224.718 86.4488C226.544 88.1342 227.983 90.2409 229.037 92.7689C230.16 95.2267 230.722 98.2814 230.722 101.933C230.722 105.936 229.704 109.622 227.667 112.993C225.631 116.294 222.717 118.927 218.925 120.893C215.133 122.86 210.498 123.843 205.02 123.843C201.86 123.843 198.735 123.492 195.646 122.789C192.626 122.087 189.747 121.139 187.008 119.945C184.269 118.681 181.741 117.277 179.424 115.732L184.901 106.146C186.587 107.41 188.518 108.569 190.695 109.622C192.872 110.676 195.119 111.519 197.436 112.151C199.754 112.712 201.931 112.993 203.967 112.993C206.144 112.993 208.286 112.642 210.392 111.94C212.569 111.238 214.36 110.079 215.765 108.464C217.239 106.849 217.977 104.707 217.977 102.038C217.977 99.8615 217.345 98.0005 216.081 96.4556C214.817 94.9107 213.166 93.5765 211.13 92.4529C209.164 91.2591 206.987 90.2058 204.599 89.2929C202.211 88.38 199.754 87.3617 197.226 86.2382C194.768 85.1146 192.486 83.7452 190.379 82.1301C188.272 80.4448 186.552 78.4083 185.217 76.0207C183.883 73.6331 183.216 70.6837 183.216 67.1726C183.216 62.9592 184.199 59.3076 186.165 56.2178C188.132 53.1279 190.835 50.6701 194.276 48.8443C197.787 47.0185 201.825 46.0354 206.39 45.8949C211.797 45.8949 216.397 46.5621 220.189 47.8963C224.051 49.1603 227.457 50.7052 230.406 52.531L225.771 61.9058ZM244.419 123V40.8389H256.006V88.2395L255.795 86.4488C257.34 83.5697 259.622 81.2172 262.642 79.3914C265.661 77.4954 269.278 76.5474 273.491 76.5474C277.705 76.5474 281.181 77.7763 283.919 80.2341C286.658 82.6919 288.063 85.9222 288.133 89.9249V123H276.335V94.1383C276.265 91.8911 275.633 90.1004 274.439 88.7662C273.246 87.3617 271.349 86.6244 268.751 86.5542C266.364 86.5542 264.222 87.2915 262.326 88.7662C260.43 90.2409 258.92 92.2422 257.796 94.7703C256.743 97.2281 256.216 100.037 256.216 103.197V123H244.419ZM300.703 100.248C300.703 95.7534 301.756 91.7156 303.863 88.1342C305.97 84.4826 308.919 81.6385 312.711 79.6021C316.573 77.4954 320.927 76.442 325.773 76.442C330.759 76.442 335.077 77.4954 338.729 79.6021C342.451 81.6385 345.33 84.4826 347.366 88.1342C349.403 91.7156 350.421 95.7534 350.421 100.248C350.421 104.742 349.403 108.815 347.366 112.467C345.33 116.048 342.451 118.892 338.729 120.999C335.077 123.105 330.723 124.159 325.667 124.159C320.892 124.159 316.609 123.211 312.817 121.315C309.024 119.348 306.04 116.575 303.863 112.993C301.756 109.412 300.703 105.163 300.703 100.248ZM312.606 100.353C312.606 102.951 313.168 105.339 314.291 107.516C315.415 109.622 316.96 111.308 318.926 112.572C320.892 113.836 323.069 114.468 325.457 114.468C328.055 114.468 330.302 113.836 332.198 112.572C334.164 111.308 335.674 109.622 336.728 107.516C337.851 105.339 338.413 102.951 338.413 100.353C338.413 97.6845 337.851 95.297 336.728 93.1903C335.674 91.0133 334.164 89.2929 332.198 88.0289C330.302 86.7648 328.055 86.1328 325.457 86.1328C322.999 86.1328 320.787 86.8 318.821 88.1342C316.925 89.3982 315.415 91.0836 314.291 93.1903C313.168 95.297 312.606 97.6845 312.606 100.353ZM389.889 124.159C386.799 124.159 383.814 123.492 380.935 122.157C378.056 120.823 375.739 118.997 373.983 116.68L374.615 113.099V144.383H362.818V77.6007H373.035L374.615 87.9235L373.562 84.7635C375.739 82.3759 378.372 80.4096 381.462 78.8647C384.622 77.2496 388.168 76.442 392.101 76.442C396.314 76.442 400.071 77.4252 403.372 79.3914C406.672 81.3577 409.27 84.1666 411.166 87.8182C413.133 91.3996 414.116 95.6481 414.116 100.564C414.116 105.479 413.062 109.693 410.956 113.204C408.849 116.715 405.97 119.419 402.318 121.315C398.667 123.211 394.523 124.159 389.889 124.159ZM387.571 114.784C390.17 114.784 392.557 114.187 394.734 112.993C396.981 111.799 398.772 110.149 400.106 108.042C401.44 105.866 402.108 103.443 402.108 100.774C402.108 97.9654 401.475 95.5076 400.211 93.4009C399.018 91.224 397.367 89.5387 395.261 88.3449C393.224 87.0808 390.942 86.4488 388.414 86.4488C386.097 86.4488 384.025 86.8351 382.199 87.6075C380.373 88.38 378.829 89.5035 377.565 90.9782C376.3 92.3827 375.317 94.0681 374.615 96.0343V104.988C375.107 106.884 375.949 108.569 377.143 110.044C378.337 111.519 379.847 112.677 381.673 113.52C383.498 114.363 385.465 114.784 387.571 114.784ZM429.017 46.3163H479.894V58.1138H441.341V78.5487H475.681V90.4516H441.341V111.203H481.369V123H429.017V46.3163ZM514.149 94.0329L523.945 78.4434H535.743L518.468 102.565L514.149 94.0329ZM537.744 123H523.524L489.395 78.4434H504.037L537.744 123ZM512.78 107.41L501.825 123H489.922L507.302 99.405L512.78 107.41ZM574.636 124.159C571.546 124.159 568.562 123.492 565.683 122.157C562.803 120.823 560.486 118.997 558.73 116.68L559.362 113.099V144.383H547.565V77.6007H557.782L559.362 87.9235L558.309 84.7635C560.486 82.3759 563.119 80.4096 566.209 78.8647C569.369 77.2496 572.916 76.442 576.848 76.442C581.061 76.442 584.818 77.4252 588.119 79.3914C591.419 81.3577 594.018 84.1666 595.914 87.8182C597.88 91.3996 598.863 95.6481 598.863 100.564C598.863 105.479 597.81 109.693 595.703 113.204C593.596 116.715 590.717 119.419 587.065 121.315C583.414 123.211 579.271 124.159 574.636 124.159ZM572.319 114.784C574.917 114.784 577.304 114.187 579.481 112.993C581.729 111.799 583.519 110.149 584.853 108.042C586.188 105.866 586.855 103.443 586.855 100.774C586.855 97.9654 586.223 95.5076 584.959 93.4009C583.765 91.224 582.115 89.5387 580.008 88.3449C577.972 87.0808 575.689 86.4488 573.161 86.4488C570.844 86.4488 568.772 86.8351 566.947 87.6075C565.121 88.38 563.576 89.5035 562.312 90.9782C561.048 92.3827 560.065 94.0681 559.362 96.0343V104.988C559.854 106.884 560.697 108.569 561.89 110.044C563.084 111.519 564.594 112.677 566.42 113.52C568.246 114.363 570.212 114.784 572.319 114.784ZM621.981 78.4434L623.034 91.0836L622.613 89.2929C623.877 86.6244 625.597 84.3421 627.774 82.4461C630.021 80.4799 632.303 79.0052 634.621 78.0221C636.938 76.9687 638.834 76.442 640.309 76.442L639.782 88.2395C636.412 87.9586 633.462 88.5906 630.934 90.1356C628.476 91.6102 626.545 93.5765 625.141 96.0343C623.806 98.4921 623.139 101.09 623.139 103.829V123H611.342V78.4434H621.981ZM671.709 124.159C666.442 124.159 661.948 123.14 658.226 121.104C654.504 119.068 651.66 116.259 649.694 112.677C647.727 109.026 646.744 104.918 646.744 100.353C646.744 95.8587 647.868 91.8209 650.115 88.2395C652.362 84.6581 655.382 81.8141 659.174 79.7074C663.036 77.5305 667.284 76.442 671.919 76.442C678.029 76.442 683.05 78.2327 686.982 81.8141C690.985 85.3253 693.653 90.3111 694.988 96.7716L659.068 108.885L656.33 102.249L684.349 92.2422L681.926 93.6116C681.154 91.5049 679.89 89.6791 678.134 88.1342C676.449 86.5893 674.061 85.8168 670.971 85.8168C668.513 85.8168 666.336 86.4137 664.44 87.6075C662.544 88.7311 661.035 90.3462 659.911 92.4529C658.858 94.4894 658.331 96.9121 658.331 99.721C658.331 102.6 658.928 105.128 660.122 107.305C661.316 109.482 662.931 111.167 664.967 112.361C667.004 113.485 669.321 114.047 671.919 114.047C673.745 114.047 675.501 113.731 677.186 113.099C678.871 112.467 680.451 111.624 681.926 110.57L687.298 119.313C684.981 120.788 682.418 121.982 679.609 122.895C676.87 123.737 674.237 124.159 671.709 124.159ZM719.973 123.948C716.603 123.948 713.372 123.351 710.282 122.157C707.263 120.964 704.7 119.208 702.593 116.891L707.649 110.254C709.615 112.151 711.546 113.555 713.443 114.468C715.409 115.311 717.27 115.732 719.025 115.732C720.36 115.732 721.553 115.591 722.607 115.311C723.73 114.959 724.608 114.433 725.24 113.731C725.942 113.028 726.293 112.08 726.293 110.887C726.293 109.482 725.802 108.394 724.819 107.621C723.836 106.778 722.572 106.111 721.027 105.62C719.482 105.058 717.867 104.531 716.181 104.04C712.319 102.846 709.44 101.09 707.544 98.773C705.648 96.4556 704.7 93.7872 704.7 90.7676C704.7 88.4502 705.297 86.2382 706.49 84.1315C707.684 81.9546 709.51 80.1639 711.968 78.7594C714.426 77.3549 717.515 76.6527 721.237 76.6527C724.608 76.6527 727.522 77.0389 729.98 77.8114C732.508 78.5136 734.861 79.7425 737.038 81.4981L732.508 88.5555C731.244 87.3617 729.734 86.4488 727.979 85.8168C726.293 85.1146 724.748 84.7284 723.344 84.6581C722.08 84.5879 720.956 84.7635 719.973 85.1848C718.99 85.5359 718.183 86.0626 717.551 86.7648C716.989 87.4671 716.708 88.2746 716.708 89.1875C716.638 90.592 717.094 91.7156 718.077 92.5583C719.131 93.4009 720.465 94.0681 722.08 94.5596C723.695 95.0512 725.31 95.5778 726.925 96.1396C729.102 96.7716 731.033 97.6494 732.719 98.773C734.404 99.8966 735.703 101.266 736.616 102.881C737.599 104.426 738.091 106.357 738.091 108.674C738.091 111.343 737.424 113.871 736.089 116.259C734.755 118.576 732.754 120.437 730.085 121.841C727.417 123.246 724.046 123.948 719.973 123.948ZM764.514 123.948C761.144 123.948 757.913 123.351 754.823 122.157C751.804 120.964 749.241 119.208 747.134 116.891L752.19 110.254C754.156 112.151 756.087 113.555 757.983 114.468C759.95 115.311 761.811 115.732 763.566 115.732C764.9 115.732 766.094 115.591 767.148 115.311C768.271 114.959 769.149 114.433 769.781 113.731C770.483 113.028 770.834 112.08 770.834 110.887C770.834 109.482 770.343 108.394 769.36 107.621C768.377 106.778 767.112 106.111 765.568 105.62C764.023 105.058 762.408 104.531 760.722 104.04C756.86 102.846 753.981 101.09 752.085 98.773C750.189 96.4556 749.241 93.7872 749.241 90.7676C749.241 88.4502 749.838 86.2382 751.031 84.1315C752.225 81.9546 754.051 80.1639 756.509 78.7594C758.967 77.3549 762.056 76.6527 765.778 76.6527C769.149 76.6527 772.063 77.0389 774.521 77.8114C777.049 78.5136 779.402 79.7425 781.578 81.4981L777.049 88.5555C775.785 87.3617 774.275 86.4488 772.52 85.8168C770.834 85.1146 769.289 84.7284 767.885 84.6581C766.621 84.5879 765.497 84.7635 764.514 85.1848C763.531 85.5359 762.724 86.0626 762.092 86.7648C761.53 87.4671 761.249 88.2746 761.249 89.1875C761.179 90.592 761.635 91.7156 762.618 92.5583C763.672 93.4009 765.006 94.0681 766.621 94.5596C768.236 95.0512 769.851 95.5778 771.466 96.1396C773.643 96.7716 775.574 97.6494 777.26 98.773C778.945 99.8966 780.244 101.266 781.157 102.881C782.14 104.426 782.632 106.357 782.632 108.674C782.632 111.343 781.965 113.871 780.63 116.259C779.296 118.576 777.295 120.437 774.626 121.841C771.958 123.246 768.587 123.948 764.514 123.948Z" fill="white"/>
<rect x="17" y="15" width="142" height="131" rx="16" fill="#451B97" stroke="white" stroke-width="6"/>
<path d="M105.713 81.5326L71.2777 47.0977L87.9353 31L137.487 80.6906L86.6767 131.362L71 115.824L105.713 81.5326Z" fill="white" fill-opacity="0.72"/>
<path d="M77.7126 81.5326L43.2777 47.0977L59.9353 31L109.487 80.6906L58.6767 131.362L43 115.824L77.7126 81.5326Z" fill="white"/>
</svg>
