<svg width="518" height="518" viewBox="0 0 518 518" fill="none" xmlns="http://www.w3.org/2000/svg">
<path d="M328.258 101.891C315.977 64.4348 257.681 65.8766 246.612 101.891H236.963C252.257 52.1732 325.072 55.9362 337.907 101.891H328.258Z" fill="#D8D8D8"/>
<rect x="181.678" y="101.891" width="211.502" height="196.28" rx="35.5211" fill="url(#paint0_linear_647_8)"/>
<rect x="124" y="165.823" width="211.502" height="196.28" rx="35.5211" fill="#D8D8D8"/>
<path d="M270.574 200.592C258.293 263.8 199.997 261.367 188.928 200.592H179.279C194.573 284.491 267.388 278.141 280.223 200.592H270.574Z" fill="#656565"/>
<path d="M61.5073 442V402.423H71.9186V409.585H72.1401C73.8014 404.822 78.0472 401.684 83.4374 401.684C89.1599 401.684 93.1471 404.638 94.4762 409.806H94.6978C96.4699 404.822 101.196 401.684 106.992 401.684C114.745 401.684 119.951 407.001 119.951 414.975V442H109.17V417.67C109.17 413.092 106.881 410.582 102.709 410.582C98.6112 410.582 95.9161 413.572 95.9161 417.966V442H85.5418V417.338C85.5418 413.092 83.142 410.582 79.1547 410.582C75.0567 410.582 72.2878 413.683 72.2878 418.113V442H61.5073ZM138.09 436.353C141.787 436.353 144.844 433.936 144.844 430.56V428.289L138.265 428.697C135.092 428.929 133.287 430.356 133.287 432.568C133.287 434.897 135.209 436.353 138.09 436.353ZM135.296 442.495C129.357 442.495 124.845 438.652 124.845 433.034C124.845 427.357 129.212 424.068 136.984 423.602L144.844 423.136V421.07C144.844 418.159 142.806 416.47 139.604 416.47C136.431 416.47 134.423 418.042 134.015 420.342H126.243C126.563 414.287 131.715 410.124 139.983 410.124C147.988 410.124 153.199 414.258 153.199 420.546V442H144.99V437.226H144.815C143.068 440.544 139.197 442.495 135.296 442.495ZM187.054 422.409H179.165C178.67 419.119 176.487 416.79 172.994 416.79C168.802 416.79 166.182 420.342 166.182 426.368C166.182 432.51 168.802 436.003 173.023 436.003C176.429 436.003 178.641 433.966 179.165 430.56H187.083C186.646 437.925 181.145 442.67 172.936 442.67C163.533 442.67 157.565 436.556 157.565 426.368C157.565 416.354 163.533 410.124 172.877 410.124C181.319 410.124 186.676 415.335 187.054 422.409ZM213.633 403.921C223.144 403.921 228.984 411.159 228.984 423.258C228.984 435.321 223.179 442.594 213.808 442.594C208.353 442.594 204.157 439.937 202.164 435.706H201.954V454.238H191.744V404.515H201.815V411.054H202.024C204.052 406.648 208.214 403.921 213.633 403.921ZM210.207 434.377C215.312 434.377 218.529 430.076 218.529 423.258C218.529 416.474 215.312 412.103 210.207 412.103C205.206 412.103 201.92 416.544 201.92 423.258C201.92 430.041 205.206 434.377 210.207 434.377ZM233.708 442V410.794H241.917V416.412H242.091C243.198 412.453 245.847 410.299 249.515 410.299C250.504 410.299 251.348 410.444 251.931 410.619V418.1C251.232 417.809 250.068 417.606 248.845 417.606C244.653 417.606 242.208 420.167 242.208 424.563V442H233.708ZM268.378 416.412C264.652 416.412 261.974 419.236 261.683 423.136H274.928C274.753 419.148 272.162 416.412 268.378 416.412ZM275.044 432.452H282.846C281.914 438.565 276.325 442.67 268.611 442.67C259.005 442.67 253.241 436.527 253.241 426.542C253.241 416.587 259.063 410.124 268.291 410.124C277.373 410.124 283.108 416.266 283.108 425.756V428.347H261.595V428.871C261.595 433.325 264.419 436.382 268.756 436.382C271.871 436.382 274.258 434.839 275.044 432.452ZM287.504 442V410.794H295.713V416.441H295.887C297.197 412.686 300.545 410.211 304.795 410.211C309.307 410.211 312.451 412.54 313.499 416.616H313.674C315.071 412.686 318.797 410.211 323.368 410.211C329.481 410.211 333.585 414.403 333.585 420.691V442H325.085V422.816C325.085 419.207 323.28 417.227 319.991 417.227C316.759 417.227 314.634 419.585 314.634 423.049V442H306.454V422.554C306.454 419.207 304.562 417.227 301.418 417.227C298.187 417.227 296.004 419.672 296.004 423.166V442H287.504ZM339.116 442V410.794H347.616V442H339.116ZM343.366 407.359C340.805 407.359 338.825 405.408 338.825 402.963C338.825 400.489 340.805 398.567 343.366 398.567C345.928 398.567 347.908 400.489 347.908 402.963C347.908 405.408 345.928 407.359 343.366 407.359ZM367.295 416.412C363.569 416.412 360.891 419.236 360.6 423.136H373.845C373.67 419.148 371.079 416.412 367.295 416.412ZM373.961 432.452H381.763C380.831 438.565 375.242 442.67 367.528 442.67C357.921 442.67 352.158 436.527 352.158 426.542C352.158 416.587 357.98 410.124 367.208 410.124C376.29 410.124 382.025 416.266 382.025 425.756V428.347H360.512V428.871C360.512 433.325 363.336 436.382 367.673 436.382C370.788 436.382 373.175 434.839 373.961 432.452ZM386.421 442V410.794H394.63V416.412H394.804C395.91 412.453 398.56 410.299 402.227 410.299C403.217 410.299 404.061 410.444 404.644 410.619V418.1C403.945 417.809 402.781 417.606 401.558 417.606C397.366 417.606 394.921 420.167 394.921 424.563V442H386.421Z" fill="#D8D8D8"/>
<path d="M434.016 429.06H427.159L427.096 424.851H432.963C433.941 424.851 434.845 424.713 435.674 424.436C436.503 424.139 437.173 423.713 437.683 423.161C438.193 422.608 438.448 421.928 438.448 421.12C438.448 420.057 438.267 419.228 437.906 418.632C437.566 418.037 436.981 417.601 436.152 417.325C435.323 417.049 434.207 416.91 432.804 416.91H428.594V439.839H423.907V412.733H432.804C434.908 412.733 436.737 413.052 438.289 413.69C439.841 414.306 441.031 415.231 441.86 416.464C442.711 417.697 443.136 419.228 443.136 421.056C443.136 422.204 442.859 423.224 442.307 424.117C441.775 425.01 440.999 425.776 439.979 426.413C438.958 427.051 437.693 427.572 436.184 427.976C436.12 427.976 436.046 428.05 435.961 428.199C435.897 428.327 435.833 428.39 435.769 428.39C435.408 428.603 435.174 428.762 435.068 428.869C434.983 428.954 434.887 429.007 434.781 429.028C434.696 429.049 434.441 429.06 434.016 429.06ZM433.697 429.06L434.366 425.648C437.683 425.648 439.947 426.392 441.159 427.88C442.392 429.368 443.008 431.239 443.008 433.493V435.278C443.008 436.065 443.051 436.82 443.136 437.543C443.221 438.244 443.359 438.839 443.55 439.328V439.839H438.735C438.523 439.286 438.395 438.499 438.352 437.479C438.331 436.458 438.321 435.714 438.321 435.247V433.525C438.321 432.015 437.97 430.899 437.268 430.176C436.567 429.432 435.376 429.06 433.697 429.06ZM414.404 426.668C414.404 429.475 414.893 432.09 415.871 434.513C416.849 436.937 418.199 439.063 419.921 440.891C421.643 442.698 423.641 444.112 425.916 445.132C428.19 446.131 430.635 446.631 433.25 446.631C435.844 446.631 438.267 446.131 440.521 445.132C442.796 444.112 444.794 442.698 446.516 440.891C448.238 439.063 449.588 436.937 450.566 434.513C451.544 432.09 452.033 429.475 452.033 426.668C452.033 423.841 451.544 421.226 450.566 418.824C449.588 416.4 448.238 414.285 446.516 412.478C444.794 410.671 442.796 409.268 440.521 408.268C438.267 407.269 435.844 406.77 433.25 406.77C430.635 406.77 428.19 407.269 425.916 408.268C423.641 409.268 421.643 410.671 419.921 412.478C418.199 414.285 416.849 416.4 415.871 418.824C414.893 421.226 414.404 423.841 414.404 426.668ZM410.609 426.668C410.609 423.288 411.194 420.152 412.363 417.261C413.532 414.37 415.158 411.851 417.242 409.703C419.325 407.535 421.728 405.855 424.449 404.665C427.191 403.453 430.125 402.847 433.25 402.847C436.375 402.847 439.298 403.453 442.02 404.665C444.762 405.855 447.164 407.535 449.227 409.703C451.31 411.851 452.936 414.37 454.106 417.261C455.275 420.152 455.86 423.288 455.86 426.668C455.86 430.049 455.275 433.184 454.106 436.076C452.936 438.967 451.31 441.497 449.227 443.665C447.164 445.834 444.762 447.524 442.02 448.736C439.298 449.947 436.375 450.553 433.25 450.553C430.125 450.553 427.191 449.947 424.449 448.736C421.728 447.524 419.325 445.834 417.242 443.665C415.158 441.497 413.532 438.967 412.363 436.076C411.194 433.184 410.609 430.049 410.609 426.668Z" fill="#D8D8D8"/>
<defs>
<linearGradient id="paint0_linear_647_8" x1="287.429" y1="101.891" x2="287.429" y2="298.171" gradientUnits="userSpaceOnUse">
<stop stop-color="#00ABEC"/>
<stop offset="1" stop-color="#0082B4"/>
</linearGradient>
</defs>
</svg>
