<svg width="250" height="250" viewBox="0 0 250 250" fill="none" xmlns="http://www.w3.org/2000/svg">
<rect x="18" y="18" width="213" height="213" rx="15.2143" fill="url(#paint0_linear_694_5)"/>
<path d="M48.3017 175V151.041H56.0422L63.7157 164.545V151.041H69.7137V175H63.079L54.3333 159.955V175H48.3017ZM82.3284 170.945C84.5735 170.945 85.7798 169.27 85.7798 166.355V166.087C85.7798 163.138 84.607 161.496 82.3284 161.496C80.0834 161.496 78.8435 163.071 78.8435 166.02V166.288C78.8435 169.304 80.0163 170.945 82.3284 170.945ZM82.2949 175.402C76.9 175.402 72.7115 172.118 72.7115 166.455V166.187C72.7115 160.558 76.9 157.006 82.3284 157.006C87.7233 157.006 91.8784 160.457 91.8784 166.02V166.288C91.8784 171.984 87.6898 175.402 82.2949 175.402ZM98.5694 175L92.1357 157.475H98.5359L102.188 168.767L105.774 157.475H111.504L105.104 175H98.5694ZM113.674 175V157.475H119.672V175H113.674ZM116.656 155.8C114.78 155.8 113.373 154.493 113.373 152.717C113.373 150.941 114.78 149.6 116.656 149.6C118.533 149.6 119.974 150.941 119.974 152.717C119.974 154.493 118.533 155.8 116.656 155.8ZM129.89 175.402C125.835 175.402 122.518 172.487 122.518 166.422V166.154C122.518 160.189 125.802 157.006 129.957 157.006C132.704 157.006 134.346 158.179 135.352 159.955V149.768H141.35V175H135.352V172.152C134.48 173.961 132.537 175.402 129.89 175.402ZM132.001 170.811C134.179 170.811 135.519 169.304 135.519 166.321V166.053C135.519 163.104 134.279 161.53 132.068 161.53C129.823 161.53 128.616 163.037 128.616 166.087V166.355C128.616 169.304 129.923 170.811 132.001 170.811ZM149.814 175.402C146.664 175.402 143.883 173.861 143.883 170.141C143.883 166.02 147.368 164.411 153.198 164.411H154.874V164.009C154.874 162.334 154.472 161.228 152.562 161.228C150.92 161.228 150.317 162.2 150.183 163.305H144.553C144.821 159.083 148.139 157.006 152.93 157.006C157.756 157.006 160.838 158.983 160.838 163.641V175H155.008V172.956C154.17 174.229 152.629 175.402 149.814 175.402ZM151.892 171.348C153.601 171.348 154.874 170.376 154.874 168.868V167.796H153.299C150.886 167.796 149.814 168.265 149.814 169.706C149.814 170.711 150.484 171.348 151.892 171.348ZM170.761 175.402C166.707 175.402 163.389 172.487 163.389 166.422V166.154C163.389 160.189 166.673 157.006 170.828 157.006C173.576 157.006 175.218 158.179 176.223 159.955V149.768H182.221V175H176.223V172.152C175.352 173.961 173.408 175.402 170.761 175.402ZM172.872 170.811C175.05 170.811 176.391 169.304 176.391 166.321V166.053C176.391 163.104 175.151 161.53 172.939 161.53C170.694 161.53 169.488 163.037 169.488 166.087V166.355C169.488 169.304 170.795 170.811 172.872 170.811ZM194.338 175.402C188.842 175.402 184.821 172.185 184.821 166.455V166.187C184.821 160.558 189.01 157.006 194.304 157.006C199.096 157.006 203.218 159.754 203.218 166.053V167.628H190.887C191.054 169.94 192.394 171.281 194.539 171.281C196.516 171.281 197.354 170.376 197.588 169.203H203.218C202.682 173.157 199.632 175.402 194.338 175.402ZM190.954 164.244H197.387C197.287 162.133 196.248 160.96 194.304 160.96C192.495 160.96 191.255 162.133 190.954 164.244Z" fill="url(#paint1_linear_694_5)"/>
<path d="M167.675 107.098L160.287 100.519C158.148 98.6149 158.148 95.4963 160.287 93.5927L167.675 87.0091C169.814 85.1054 169.245 83.3344 166.409 83.0563L156.612 82.1281C153.78 81.8628 152.249 79.4202 153.229 76.7123L158.426 62.2403C159.401 59.5239 158.208 58.54 155.778 60.0415L144.224 67.1855C143.651 67.5441 143.012 67.7819 142.344 67.8842C141.677 67.9866 140.995 67.9513 140.342 67.7806C139.688 67.61 139.077 67.3075 138.544 66.8917C138.012 66.476 137.57 65.9558 137.246 65.3632L133.063 57.8941C131.655 55.3787 129.332 55.3701 127.899 57.8598L124.011 64.6188C122.569 67.1214 119.271 68.1823 116.683 66.9973L109.838 63.8574C107.237 62.6596 105.248 64.037 105.402 66.9203L105.77 73.829C105.928 76.7123 103.798 79.6768 101.047 80.4212L94.4381 82.1922C91.6917 82.9366 91.1869 85.1012 93.3258 87.0048L100.714 93.5884C102.853 95.492 102.853 98.6106 100.714 100.514L93.3258 107.098C91.1869 109.001 91.7516 110.85 94.5792 111.192L103.541 112.278C106.369 112.621 107.943 115.144 107.041 117.887L102.446 131.824C101.544 134.566 102.831 135.627 105.304 134.198L115.84 128.098C117.069 127.417 118.508 127.219 119.876 127.542C121.243 127.864 122.441 128.685 123.237 129.843L127.608 136.427C129.2 138.818 131.591 138.69 132.913 136.136L136.759 128.722C137.399 127.492 138.494 126.561 139.811 126.127C141.128 125.693 142.563 125.791 143.809 126.399L151.226 130.108C153.785 131.379 155.748 130.066 155.594 127.191L155.222 120.274C155.072 117.39 157.194 114.434 159.953 113.69L166.554 111.91C169.309 111.166 169.814 109.001 167.675 107.098ZM134.778 114.182H126.222V105.626H134.778V114.182ZM134.778 101.348H126.222V79.9592H134.778V101.348Z" fill="url(#paint2_linear_694_5)"/>
<defs>
<linearGradient id="paint0_linear_694_5" x1="124.5" y1="18" x2="124.5" y2="231" gradientUnits="userSpaceOnUse">
<stop stop-color="#C14473"/>
<stop offset="1" stop-color="#7F2C4B"/>
</linearGradient>
<linearGradient id="paint1_linear_694_5" x1="125" y1="134" x2="125" y2="194.06" gradientUnits="userSpaceOnUse">
<stop stop-color="white"/>
<stop offset="1" stop-color="white" stop-opacity="0.69"/>
</linearGradient>
<linearGradient id="paint2_linear_694_5" x1="130.5" y1="56" x2="130.5" y2="138.139" gradientUnits="userSpaceOnUse">
<stop stop-color="white"/>
<stop offset="1" stop-color="white" stop-opacity="0.69"/>
</linearGradient>
</defs>
</svg>
