<svg width="250" height="250" viewBox="0 0 250 250" fill="none" xmlns="http://www.w3.org/2000/svg">
<rect x="18" y="18" width="213" height="213" rx="15.2143" fill="url(#paint0_linear_694_5)"/>
<path d="M90.4493 184V160.041H98.1898L105.863 173.545V160.041H111.861V184H105.227L96.4809 168.955V184H90.4493ZM124.376 184.402C118.88 184.402 114.859 181.185 114.859 175.455V175.187C114.859 169.558 119.048 166.006 124.342 166.006C129.134 166.006 133.255 168.754 133.255 175.053V176.628H120.924C121.092 178.94 122.432 180.281 124.577 180.281C126.554 180.281 127.391 179.376 127.626 178.203H133.255C132.719 182.157 129.67 184.402 124.376 184.402ZM120.991 173.244H127.425C127.324 171.133 126.286 169.96 124.342 169.96C122.533 169.96 121.293 171.133 120.991 173.244ZM139.153 184L133.859 166.475H140.125L142.671 176.963L145.62 166.475H150.445L153.059 176.963L155.907 166.475H161.604L156.041 184H150.311L147.698 174.215L144.984 184H139.153Z" fill="url(#paint1_linear_694_5)"/>
<path d="M161.675 112.098L154.287 105.519C152.148 103.615 152.148 100.496 154.287 98.5927L161.675 92.0091C163.814 90.1054 163.245 88.3344 160.409 88.0563L150.612 87.1281C147.78 86.8628 146.249 84.4202 147.229 81.7123L152.426 67.2403C153.401 64.5239 152.208 63.54 149.778 65.0415L138.224 72.1855C137.651 72.5441 137.012 72.7819 136.344 72.8842C135.677 72.9866 134.995 72.9513 134.342 72.7806C133.688 72.61 133.077 72.3075 132.544 71.8917C132.012 71.476 131.57 70.9558 131.246 70.3632L127.063 62.8941C125.655 60.3787 123.332 60.3701 121.899 62.8598L118.011 69.6188C116.569 72.1214 113.271 73.1823 110.683 71.9973L103.838 68.8574C101.237 67.6596 99.2482 69.037 99.4022 71.9203L99.7701 78.829C99.9284 81.7123 97.798 84.6768 95.0473 85.4212L88.4381 87.1922C85.6917 87.9366 85.1869 90.1012 87.3258 92.0048L94.7137 98.5884C96.8526 100.492 96.8526 103.611 94.7137 105.514L87.3258 112.098C85.1869 114.001 85.7516 115.85 88.5792 116.192L97.5413 117.278C100.369 117.621 101.943 120.144 101.041 122.887L96.4462 136.824C95.5436 139.566 96.8312 140.627 99.3038 139.198L109.84 133.098C111.069 132.417 112.508 132.219 113.876 132.542C115.243 132.864 116.441 133.685 117.237 134.843L121.608 141.427C123.2 143.818 125.591 143.69 126.913 141.136L130.759 133.722C131.399 132.492 132.494 131.561 133.811 131.127C135.128 130.693 136.563 130.791 137.809 131.399L145.226 135.108C147.785 136.379 149.748 135.066 149.594 132.191L149.222 125.274C149.072 122.39 151.194 119.434 153.953 118.69L160.554 116.91C163.309 116.166 163.814 114.001 161.675 112.098ZM128.778 119.182H120.222V110.626H128.778V119.182ZM128.778 106.348H120.222V84.9592H128.778V106.348Z" fill="url(#paint2_linear_694_5)"/>
<defs>
<linearGradient id="paint0_linear_694_5" x1="124.5" y1="18" x2="124.5" y2="231" gradientUnits="userSpaceOnUse">
<stop stop-color="#C92B67"/>
<stop offset="1" stop-color="#7F2C4B"/>
</linearGradient>
<linearGradient id="paint1_linear_694_5" x1="125" y1="158" x2="125" y2="188" gradientUnits="userSpaceOnUse">
<stop stop-color="white"/>
<stop offset="1" stop-color="white" stop-opacity="0.69"/>
</linearGradient>
<linearGradient id="paint2_linear_694_5" x1="124.5" y1="61" x2="124.5" y2="143.139" gradientUnits="userSpaceOnUse">
<stop stop-color="white"/>
<stop offset="1" stop-color="white" stop-opacity="0.69"/>
</linearGradient>
</defs>
</svg>
