<svg width="250" height="250" viewBox="0 0 250 250" fill="none" xmlns="http://www.w3.org/2000/svg">
<g clip-path="url(#clip0_710_29)">
<rect width="250" height="250" fill="white"/>
<rect x="-0.75" width="251.5" height="251.5" fill="url(#paint0_linear_710_29)"/>
<path d="M41.867 174.527C35.9718 174.527 32.5296 172.073 32.3713 167.484H38.8996C39.137 168.987 39.8096 169.818 41.8275 169.818C43.5683 169.818 44.3596 169.146 44.3596 168.117C44.3596 167.128 43.3705 166.653 40.5218 166.257C34.9827 165.545 32.6483 163.923 32.6483 159.61C32.6483 155.021 36.7235 152.805 41.5109 152.805C46.6149 152.805 50.1758 154.546 50.6505 159.492H44.241C43.964 158.107 43.2123 157.434 41.5901 157.434C40.047 157.434 39.2557 158.107 39.2557 159.056C39.2557 160.046 40.2053 160.441 42.7375 160.758C48.4744 161.47 51.244 162.973 51.244 167.405C51.244 172.311 47.604 174.527 41.867 174.527ZM64.4403 174.527C57.9516 174.527 53.2037 170.728 53.2037 163.963V163.646C53.2037 156.999 58.1494 152.805 64.4007 152.805C70.0586 152.805 74.9251 156.05 74.9251 163.488V165.347H60.3651C60.5629 168.077 62.1455 169.66 64.6777 169.66C67.0121 169.66 68.0012 168.592 68.2782 167.207H74.9251C74.2921 171.876 70.6916 174.527 64.4403 174.527ZM60.4442 161.351H68.0408C67.9221 158.859 66.6955 157.474 64.4007 157.474C62.2642 157.474 60.8003 158.859 60.4442 161.351ZM77.9581 174.052V153.359H85.0403V156.524C86.1481 154.546 88.3242 152.805 91.529 152.805C94.259 152.805 96.1581 153.992 97.1473 156.247C98.9277 153.834 101.381 152.805 103.992 152.805C107.909 152.805 110.758 155.337 110.758 160.52V174.052H103.676V161.707C103.676 159.61 102.647 158.582 101.025 158.582C99.1255 158.582 97.8595 159.808 97.8595 162.063V174.052H90.8564V161.707C90.8564 159.61 89.8277 158.582 88.2055 158.582C86.3064 158.582 85.0403 159.808 85.0403 162.063V174.052H77.9581ZM114.978 174.052V153.359H122.06V174.052H114.978ZM118.499 151.381C116.284 151.381 114.622 149.838 114.622 147.741C114.622 145.644 116.284 144.061 118.499 144.061C120.715 144.061 122.416 145.644 122.416 147.741C122.416 149.838 120.715 151.381 118.499 151.381ZM126.449 174.052V153.359H133.531V156.683C134.639 154.546 136.894 152.805 140.336 152.805C144.332 152.805 147.102 155.298 147.102 160.6V174.052H140.02V162.024C140.02 159.69 139.11 158.542 137.052 158.542C134.955 158.542 133.531 159.808 133.531 162.459V174.052H126.449ZM161.386 169.264C164.037 169.264 165.461 167.286 165.461 163.844V163.527C165.461 160.046 164.076 158.107 161.386 158.107C158.735 158.107 157.271 159.966 157.271 163.448V163.765C157.271 167.326 158.656 169.264 161.386 169.264ZM161.346 174.527C154.976 174.527 150.031 170.649 150.031 163.963V163.646C150.031 156.999 154.976 152.805 161.386 152.805C167.756 152.805 172.662 156.88 172.662 163.448V163.765C172.662 170.491 167.716 174.527 161.346 174.527ZM180.563 174.052L172.966 153.359H180.523L184.836 166.693L189.069 153.359H195.835L188.278 174.052H180.563ZM207.249 169.264C209.9 169.264 211.325 167.286 211.325 163.844V163.527C211.325 160.046 209.94 158.107 207.249 158.107C204.598 158.107 203.135 159.966 203.135 163.448V163.765C203.135 167.326 204.519 169.264 207.249 169.264ZM207.21 174.527C200.84 174.527 195.894 170.649 195.894 163.963V163.646C195.894 156.999 200.84 152.805 207.249 152.805C213.619 152.805 218.525 156.88 218.525 163.448V163.765C218.525 170.491 213.58 174.527 207.21 174.527ZM42.7644 210.527C36.2756 210.527 31.5278 206.728 31.5278 199.963V199.646C31.5278 192.999 36.4735 188.805 42.7248 188.805C48.3827 188.805 53.2492 192.05 53.2492 199.488V201.347H38.6891C38.887 204.077 40.4696 205.66 43.0018 205.66C45.3361 205.66 46.3253 204.592 46.6022 203.207H53.2492C52.6161 207.876 49.0157 210.527 42.7644 210.527ZM38.7683 197.351H46.3648C46.2461 194.859 45.0196 193.474 42.7248 193.474C40.5883 193.474 39.1244 194.859 38.7683 197.351ZM53.4226 210.052L60.307 199.527L53.8578 189.359H62.0083L65.2131 194.819L68.3387 189.359H75.6188L69.0905 198.973L76.2518 210.052H68.1014L64.4218 203.88L60.6631 210.052H53.4226ZM86.8034 210.527C80.6312 210.527 75.9229 206.926 75.9229 199.963V199.646C75.9229 192.762 80.8686 188.805 86.9617 188.805C92.026 188.805 96.6947 191.021 97.0904 197.312H90.4434C90.1269 195.373 89.1773 194.305 87.1199 194.305C84.6273 194.305 83.1634 196.085 83.1634 199.567V199.883C83.1634 203.484 84.5482 205.343 87.2386 205.343C89.2169 205.343 90.6017 204.157 90.8391 201.901H97.2091C97.0113 207.124 93.49 210.527 86.8034 210.527ZM110.226 210.527C103.738 210.527 98.9899 206.728 98.9899 199.963V199.646C98.9899 192.999 103.936 188.805 110.187 188.805C115.845 188.805 120.711 192.05 120.711 199.488V201.347H106.151C106.349 204.077 107.932 205.66 110.464 205.66C112.798 205.66 113.787 204.592 114.064 203.207H120.711C120.078 207.876 116.478 210.527 110.226 210.527ZM106.23 197.351H113.827C113.708 194.859 112.482 193.474 110.187 193.474C108.05 193.474 106.586 194.859 106.23 197.351ZM123.942 210.052V180.259H130.985V210.052H123.942ZM145.503 210.527C139.014 210.527 134.266 206.728 134.266 199.963V199.646C134.266 192.999 139.212 188.805 145.463 188.805C151.121 188.805 155.988 192.05 155.988 199.488V201.347H141.428C141.626 204.077 143.208 205.66 145.74 205.66C148.075 205.66 149.064 204.592 149.341 203.207H155.988C155.355 207.876 151.754 210.527 145.503 210.527ZM141.507 197.351H149.103C148.985 194.859 147.758 193.474 145.463 193.474C143.327 193.474 141.863 194.859 141.507 197.351ZM159.021 210.052V189.359H166.103V192.683C167.211 190.546 169.466 188.805 172.908 188.805C176.904 188.805 179.674 191.298 179.674 196.6V210.052H172.592V198.024C172.592 195.69 171.682 194.542 169.624 194.542C167.527 194.542 166.103 195.808 166.103 198.459V210.052H159.021ZM191.94 210.527C187.271 210.527 184.66 208.271 184.66 203.405V194.186H182.167V189.359H184.66V185.046H191.742V189.359H195.817V194.186H191.742V202.732C191.742 204.236 192.494 204.908 193.839 204.908C194.63 204.908 195.224 204.79 195.857 204.552V209.933C194.947 210.17 193.602 210.527 191.94 210.527ZM209.217 210.527C202.728 210.527 197.981 206.728 197.981 199.963V199.646C197.981 192.999 202.926 188.805 209.178 188.805C214.835 188.805 219.702 192.05 219.702 199.488V201.347H205.142C205.34 204.077 206.922 205.66 209.455 205.66C211.789 205.66 212.778 204.592 213.055 203.207H219.702C219.069 207.876 215.468 210.527 209.217 210.527ZM205.221 197.351H212.818C212.699 194.859 211.472 193.474 209.178 193.474C207.041 193.474 205.577 194.859 205.221 197.351Z" fill="url(#paint1_linear_710_29)"/>
<path fill-rule="evenodd" clip-rule="evenodd" d="M113.389 42.5788C119.078 34.613 130.917 34.613 136.607 42.5788L137.513 43.847C138.514 45.249 140.196 45.9996 141.908 45.8094L145.945 45.3608C155.032 44.3511 162.71 52.0291 161.701 61.1158L161.252 65.1534C161.062 66.8656 161.812 68.5469 163.214 69.5483L164.483 70.4541C172.448 76.1437 172.448 87.9828 164.483 93.6728L163.214 94.5788C161.812 95.5798 161.062 97.2614 161.252 98.9734L161.701 103.011C162.71 112.098 155.032 119.776 145.945 118.766L141.908 118.318C140.196 118.127 138.514 118.878 137.513 120.28L136.607 121.548C130.917 129.514 119.079 129.514 113.389 121.548L112.483 120.28C111.481 118.878 109.8 118.127 108.088 118.318L104.05 118.766C94.9637 119.776 87.2857 112.098 88.2953 103.011L88.744 98.9734C88.9342 97.2614 88.1835 95.5798 86.7816 94.5788L85.5134 93.6728C77.5476 87.9828 77.5476 76.1442 85.5134 70.4541L86.7816 69.5483C88.1835 68.5469 88.9342 66.8656 88.744 65.1533L88.2953 61.1158C87.2857 52.0291 94.9637 44.3511 104.05 45.3608L108.088 45.8094C109.8 45.9996 111.481 45.249 112.483 43.847L113.389 42.5788ZM142.627 69.1896C144.485 71.0468 144.485 74.0579 142.627 75.915L124.466 94.0761C122.134 96.4092 118.351 96.4092 116.019 94.0761L107.369 85.4262C105.511 83.5691 105.511 80.5579 107.369 78.7008C109.226 76.8438 112.237 76.8438 114.094 78.7008L120.242 84.8493L135.902 69.1896C137.759 67.3325 140.77 67.3325 142.627 69.1896Z" fill="url(#paint2_linear_710_29)"/>
</g>
<defs>
<linearGradient id="paint0_linear_710_29" x1="125" y1="0" x2="125" y2="251.5" gradientUnits="userSpaceOnUse">
<stop stop-color="#377BA4"/>
<stop offset="1" stop-color="#1E6895"/>
</linearGradient>
<linearGradient id="paint1_linear_710_29" x1="125.588" y1="144.052" x2="125.588" y2="214.968" gradientUnits="userSpaceOnUse">
<stop stop-color="white"/>
<stop offset="1" stop-color="white" stop-opacity="0.69"/>
</linearGradient>
<linearGradient id="paint2_linear_710_29" x1="124.998" y1="36.6045" x2="124.998" y2="127.522" gradientUnits="userSpaceOnUse">
<stop stop-color="white"/>
<stop offset="1" stop-color="white" stop-opacity="0.69"/>
</linearGradient>
<clipPath id="clip0_710_29">
<rect width="250" height="250" fill="white"/>
</clipPath>
</defs>
</svg>
