<svg width="500" height="500" viewBox="0 0 500 500" fill="none" xmlns="http://www.w3.org/2000/svg">
<g clip-path="url(#clip0_668_17)">
<g style="mix-blend-mode:multiply">
<path d="M257.204 7.20658L273.607 32.6684L295.096 11.3231L307.315 39.0376L331.878 21.3167L339.611 50.6014L366.644 36.9412L369.7 67.075L398.538 57.8119L396.842 88.0529L426.774 83.415L420.369 113.018L450.657 113.12L439.7 141.357L469.599 146.195L454.36 172.371L483.134 181.827L463.988 205.296L490.929 219.137L468.346 239.322L492.79 257.207L467.329 273.61L488.674 295.099L460.959 307.318L478.68 331.881L449.396 339.614L463.056 366.647L432.922 369.703L442.185 398.541L411.944 396.845L416.582 426.777L386.979 420.372L386.877 450.66L358.64 439.703L353.802 469.602L327.626 454.363L318.17 483.137L294.701 463.991L280.86 490.932L260.675 468.349L242.79 492.793L226.387 467.332L204.898 488.677L192.679 460.962L168.116 478.683L160.383 449.399L133.35 463.059L130.294 432.925L101.456 442.188L103.152 411.947L73.2203 416.585L79.6253 386.982L49.3371 386.88L60.2942 358.643L30.3947 353.805L45.6343 327.63L16.8598 318.173L36.0064 294.704L9.06541 280.863L31.6476 260.679L7.20357 242.793L32.6654 226.39L11.3201 204.901L39.0346 192.682L21.3137 168.119L50.5984 160.386L36.9382 133.353L67.072 130.297L57.8089 101.459L88.0499 103.155L83.412 73.2233L113.015 79.6283L113.117 49.3401L141.354 60.2972L146.192 30.3978L172.368 45.6373L181.824 16.8628L205.293 36.0094L219.134 9.06842L239.319 31.6507L257.204 7.20658Z" fill="url(#paint0_linear_668_17)"/>
</g>
<path d="M168.277 249.9L174.295 240.055C175.019 238.871 175.216 237.463 174.842 236.141C174.469 234.819 173.557 233.692 172.306 233.007L161.893 227.311V215.959C161.893 214.591 161.318 213.278 160.296 212.31C159.274 211.343 157.887 210.799 156.441 210.799H144.453L138.44 200.949C137.713 199.767 136.525 198.903 135.131 198.545C134.439 198.367 133.717 198.322 133.007 198.41C132.297 198.499 131.612 198.72 130.993 199.061L120.58 204.757L110.167 199.056C108.915 198.371 107.427 198.186 106.031 198.54C104.634 198.894 103.443 199.759 102.72 200.944L96.7017 210.799H84.7134C83.2676 210.799 81.8809 211.343 80.8585 212.31C79.8361 213.278 79.2618 214.591 79.2618 215.959V227.305L68.8491 233.002C68.2277 233.34 67.6832 233.791 67.2466 234.329C66.8101 234.867 66.4902 235.482 66.3052 236.137C66.1203 236.793 66.0741 237.476 66.1692 238.148C66.2642 238.821 66.4987 239.469 66.8592 240.055L72.8779 249.9L66.8592 259.745C66.1395 260.931 65.9443 262.337 66.316 263.659C66.6877 264.98 67.5963 266.109 68.8436 266.798L79.2563 272.495V283.841C79.2563 285.21 79.8307 286.522 80.8531 287.49C81.8755 288.457 83.2621 289.001 84.708 289.001H96.7017L102.72 298.856C103.203 299.637 103.892 300.286 104.72 300.738C105.548 301.19 106.486 301.431 107.441 301.436C108.39 301.436 109.333 301.199 110.173 300.739L120.575 295.043L130.987 300.739C132.239 301.423 133.726 301.608 135.122 301.255C136.518 300.902 137.709 300.039 138.434 298.856L144.447 289.001H156.436C157.882 289.001 159.268 288.457 160.291 287.49C161.313 286.522 161.887 285.21 161.887 283.841V272.495L172.3 266.798C172.92 266.459 173.464 266.008 173.9 265.469C174.335 264.931 174.655 264.317 174.84 263.662C175.024 263.007 175.071 262.324 174.977 261.652C174.882 260.98 174.649 260.332 174.29 259.745L168.277 249.9ZM106.945 224.05C109.115 224.05 111.195 224.867 112.729 226.319C114.262 227.771 115.124 229.741 115.123 231.794C115.122 233.848 114.26 235.817 112.725 237.268C111.19 238.72 109.109 239.535 106.94 239.534C104.77 239.533 102.69 238.717 101.156 237.265C99.6228 235.812 98.7617 233.843 98.7624 231.789C98.7631 229.736 99.6257 227.767 101.16 226.315C102.695 224.864 104.776 224.049 106.945 224.05ZM108.581 273.584L99.8582 267.397L132.568 226.119L141.291 232.305L108.581 273.584ZM134.204 275.647C133.13 275.647 132.066 275.447 131.074 275.057C130.081 274.668 129.18 274.097 128.42 273.378C127.661 272.659 127.059 271.805 126.648 270.866C126.237 269.926 126.026 268.919 126.026 267.903C126.027 266.886 126.239 265.879 126.65 264.94C127.061 264.001 127.664 263.147 128.424 262.429C129.184 261.71 130.086 261.14 131.079 260.751C132.071 260.362 133.135 260.163 134.209 260.163C136.379 260.164 138.459 260.98 139.993 262.432C141.526 263.885 142.387 265.854 142.387 267.908C142.386 269.961 141.523 271.93 139.989 273.382C138.454 274.833 136.373 275.648 134.204 275.647Z" fill="white"/>
<path d="M210.285 233.207C215.137 233.207 218.163 229.46 218.163 223.311V222.927C218.163 216.826 215.088 213.224 210.237 213.224C205.385 213.224 202.359 216.73 202.359 222.975V223.359C202.359 229.604 205.529 233.207 210.285 233.207ZM210.093 240.941C198.996 240.941 192.079 233.735 192.079 223.407V223.023C192.079 212.551 199.957 205.538 210.237 205.538C220.709 205.538 228.443 212.119 228.443 222.783V223.167C228.443 233.735 221.189 240.941 210.093 240.941ZM233.262 240.364V206.018H256.464V213.656H243.158V220.958H253.774V228.211H243.158V240.364H233.262ZM261.08 240.364V206.018H284.81V213.608H270.88V219.516H281.976V226.53H270.88V232.774H285.579V240.364H261.08ZM290.493 240.364V206.018H303.944C312.926 206.018 317.922 209.669 317.922 216.922V217.115C317.922 222.014 315.328 224.752 311.726 226.145L319.94 240.364H309.564L302.599 228.067H300.293V240.364H290.493ZM300.293 221.678H303.463C306.778 221.678 308.411 220.285 308.411 217.499V217.307C308.411 214.521 306.682 213.416 303.511 213.416H300.293V221.678ZM329.63 240.364V213.608H320.744V206.018H348.413V213.608H339.526V240.364H329.63ZM346.911 240.364L357.911 206.018H370.641L381.545 240.364H371.121L369.296 233.975H357.911L356.086 240.364H346.911ZM363.627 213.992L359.833 227.202H367.374L363.627 213.992ZM193.904 293.364V259.018H203.8V285.726H216.77V293.364H193.904ZM221.727 293.364V259.018H231.67V293.364H221.727ZM238.423 293.364V259.018H251.248L257.829 277.32L264.41 259.018H276.996V293.364H267.196V271.988L258.79 293.364H255.524L247.213 271.988V293.364H238.423ZM283.884 293.364V259.018H293.827V293.364H283.884ZM307.16 293.364V266.608H298.273V259.018H325.942V266.608H317.056V293.364H307.16ZM324.441 293.364L335.441 259.018H348.171L359.075 293.364H348.651L346.826 286.975H335.441L333.616 293.364H324.441ZM341.157 266.992L337.362 280.202H344.904L341.157 266.992ZM372.913 285.774H375.171C381.031 285.774 383.625 282.7 383.625 276.311V275.927C383.625 269.394 381.031 266.608 375.074 266.608H372.913V285.774ZM363.017 293.364V259.018H375.507C387.708 259.018 393.905 265.119 393.905 275.783V276.167C393.905 286.879 387.564 293.364 375.459 293.364H363.017ZM394.337 293.364L405.338 259.018H418.068L428.972 293.364H418.548L416.722 286.975H405.338L403.512 293.364H394.337ZM411.054 266.992L407.259 280.202H414.801L411.054 266.992Z" fill="white"/>
</g>
<defs>
<linearGradient id="paint0_linear_668_17" x1="257.204" y1="7.20658" x2="242.79" y2="492.793" gradientUnits="userSpaceOnUse">
<stop stop-color="#C35249"/>
<stop offset="1" stop-color="#8E3F39"/>
</linearGradient>
<clipPath id="clip0_668_17">
<rect width="500" height="500" fill="white"/>
</clipPath>
</defs>
</svg>
