<svg width="350" height="350" viewBox="0 0 350 350" fill="none" xmlns="http://www.w3.org/2000/svg">
<rect width="350" height="350" rx="25" fill="url(#paint0_linear_691_5)"/>
<path d="M102.759 228.007C108.855 228.007 112.657 223.299 112.657 215.574V215.091C112.657 207.426 108.795 202.899 102.699 202.899C96.6027 202.899 92.8002 207.305 92.8002 215.151V215.634C92.8002 223.48 96.7837 228.007 102.759 228.007ZM102.518 237.724C88.5753 237.724 79.8841 228.671 79.8841 215.694V215.212C79.8841 202.054 89.7824 193.242 102.699 193.242C115.856 193.242 125.574 201.511 125.574 214.91V215.393C125.574 228.671 116.46 237.724 102.518 237.724ZM132.883 237V212.797H128.899V205.434H132.883V202.657C132.883 194.811 137.772 191.069 145.256 191.069C147.247 191.069 148.756 191.371 150.205 191.733V199.64C149.42 199.398 148.455 199.217 147.247 199.217C144.712 199.217 143.626 200.605 143.626 202.657V205.434H150.024V212.797H143.626V237H132.883ZM168.807 237.724C158.909 237.724 151.666 231.93 151.666 221.609V221.126C151.666 210.987 159.211 204.589 168.747 204.589C177.378 204.589 184.802 209.538 184.802 220.885V223.722H162.591C162.892 227.886 165.307 230.3 169.169 230.3C172.73 230.3 174.239 228.671 174.662 226.558H184.802C183.836 233.68 178.343 237.724 168.807 237.724ZM162.711 217.626H174.3C174.119 213.823 172.248 211.711 168.747 211.711C165.488 211.711 163.254 213.823 162.711 217.626ZM189.428 237V205.434H200.232V211.711C202.224 207.003 205.543 204.951 210.432 205.011V215.091C203.853 214.91 200.232 216.962 200.232 222.032V237H189.428ZM228.388 237.724C221.266 237.724 217.282 234.284 217.282 226.86V212.797H213.48V205.434H217.282V198.855H228.086V205.434H234.303V212.797H228.086V225.834C228.086 228.128 229.233 229.154 231.285 229.154C232.492 229.154 233.397 228.973 234.363 228.611V236.819C232.975 237.181 230.923 237.724 228.388 237.724ZM248.165 237.724C242.491 237.724 237.482 234.948 237.482 228.248C237.482 220.825 243.759 217.928 254.261 217.928H257.279V217.203C257.279 214.185 256.554 212.194 253.114 212.194C250.157 212.194 249.07 213.944 248.829 215.936H238.689C239.172 208.331 245.147 204.589 253.778 204.589C262.469 204.589 268.022 208.15 268.022 216.539V237H257.52V233.318C256.011 235.612 253.235 237.724 248.165 237.724ZM251.907 230.421C254.985 230.421 257.279 228.671 257.279 225.955V224.023H254.442C250.096 224.023 248.165 224.868 248.165 227.464C248.165 229.274 249.372 230.421 251.907 230.421ZM69.1964 291.724C59.298 291.724 52.0553 285.93 52.0553 275.609V275.126C52.0553 264.987 59.5998 258.589 69.136 258.589C77.7669 258.589 85.1907 263.538 85.1907 274.885V277.722H62.9797C63.2815 281.886 65.6957 284.3 69.5585 284.3C73.1195 284.3 74.6284 282.671 75.0509 280.558H85.1907C84.225 287.68 78.7326 291.724 69.1964 291.724ZM63.1004 271.626H74.6887C74.5077 267.823 72.6366 265.711 69.136 265.711C65.8768 265.711 63.6436 267.823 63.1004 271.626ZM102.485 291.724C93.492 291.724 88.241 287.982 87.9996 280.981H97.9583C98.3204 283.274 99.3465 284.542 102.425 284.542C105.08 284.542 106.287 283.516 106.287 281.947C106.287 280.438 104.779 279.713 100.433 279.11C91.9831 278.023 88.4221 275.549 88.4221 268.97C88.4221 261.969 94.6387 258.589 101.942 258.589C109.728 258.589 115.16 261.245 115.884 268.789H106.106C105.684 266.677 104.537 265.651 102.063 265.651C99.7086 265.651 98.5015 266.677 98.5015 268.125C98.5015 269.634 99.9501 270.238 103.813 270.72C112.564 271.807 116.789 274.1 116.789 280.86C116.789 288.344 111.237 291.724 102.485 291.724ZM121.174 301.562V259.434H131.978V264.142C133.789 261.124 137.048 258.589 141.816 258.589C149.179 258.589 155.155 264.142 155.155 274.945V275.428C155.155 286.292 149.179 291.724 141.755 291.724C136.987 291.724 133.547 289.491 131.978 286.353V301.562H121.174ZM137.953 283.456C141.997 283.456 144.17 280.619 144.17 275.428V274.945C144.17 269.393 141.755 266.737 137.953 266.737C134.03 266.737 131.676 269.574 131.676 274.885V275.368C131.676 280.739 134.03 283.456 137.953 283.456ZM175.409 291.724C165.51 291.724 158.268 285.93 158.268 275.609V275.126C158.268 264.987 165.812 258.589 175.348 258.589C183.979 258.589 191.403 263.538 191.403 274.885V277.722H169.192C169.494 281.886 171.908 284.3 175.771 284.3C179.332 284.3 180.841 282.671 181.263 280.558H191.403C190.437 287.68 184.945 291.724 175.409 291.724ZM169.313 271.626H180.901C180.72 267.823 178.849 265.711 175.348 265.711C172.089 265.711 169.856 267.823 169.313 271.626ZM210.938 291.724C201.522 291.724 194.34 286.232 194.34 275.609V275.126C194.34 264.624 201.884 258.589 211.179 258.589C218.905 258.589 226.027 261.969 226.63 271.565H216.49C216.007 268.608 214.559 266.978 211.42 266.978C207.618 266.978 205.385 269.694 205.385 275.006V275.489C205.385 280.981 207.497 283.818 211.601 283.818C214.619 283.818 216.732 282.007 217.094 278.567H226.811C226.509 286.534 221.138 291.724 210.938 291.724ZM231.519 291V259.434H242.323V291H231.519ZM236.891 256.416C233.511 256.416 230.976 254.062 230.976 250.863C230.976 247.664 233.511 245.25 236.891 245.25C240.271 245.25 242.866 247.664 242.866 250.863C242.866 254.062 240.271 256.416 236.891 256.416ZM257.89 291.724C252.217 291.724 247.207 288.948 247.207 282.248C247.207 274.825 253.484 271.928 263.986 271.928H267.004V271.203C267.004 268.185 266.28 266.194 262.839 266.194C259.882 266.194 258.796 267.944 258.554 269.936H248.414C248.897 262.331 254.872 258.589 263.503 258.589C272.195 258.589 277.747 262.15 277.747 270.539V291H267.245V287.318C265.736 289.612 262.96 291.724 257.89 291.724ZM261.632 284.421C264.71 284.421 267.004 282.671 267.004 279.955V278.023H264.167C259.822 278.023 257.89 278.868 257.89 281.464C257.89 283.274 259.097 284.421 261.632 284.421ZM284.213 291V245.552H294.956V291H284.213Z" fill="url(#paint1_linear_691_5)"/>
<path d="M230.128 111.531L237.147 100.159C237.99 98.7907 238.22 97.1644 237.785 95.6376C237.349 94.1109 236.285 92.8086 234.826 92.0172L222.684 85.437V72.3244C222.684 70.7436 222.014 69.2276 220.821 68.1099C219.629 66.9921 218.012 66.3641 216.326 66.3641H202.346L195.334 54.9859C194.487 53.6205 193.101 52.6227 191.475 52.2084C190.669 52.0035 189.827 51.9507 188.999 52.053C188.17 52.1553 187.372 52.4107 186.65 52.8045L174.507 59.3846L162.364 52.7985C160.904 52.0082 159.169 51.794 157.54 52.2031C155.912 52.6122 154.523 53.6111 153.68 54.98L146.661 66.3641H132.681C130.995 66.3641 129.378 66.9921 128.186 68.1099C126.994 69.2276 126.324 70.7436 126.324 72.3244V85.4311L114.181 92.0112C113.457 92.402 112.822 92.9231 112.313 93.5446C111.803 94.1661 111.43 94.8758 111.215 95.6329C110.999 96.3901 110.945 97.1797 111.056 97.9564C111.167 98.7331 111.44 99.4816 111.861 100.159L118.879 111.531L111.861 122.903C111.021 124.273 110.794 125.898 111.227 127.424C111.661 128.951 112.72 130.254 114.175 131.051L126.318 137.631V150.738C126.318 152.319 126.987 153.835 128.18 154.952C129.372 156.07 130.989 156.698 132.675 156.698H146.661L153.68 168.082C154.243 168.984 155.046 169.734 156.012 170.256C156.977 170.779 158.071 171.057 159.185 171.063C160.292 171.063 161.391 170.788 162.371 170.258L174.501 163.678L186.643 170.258C188.103 171.047 189.837 171.261 191.465 170.853C193.093 170.446 194.482 169.449 195.327 168.082L202.34 156.698H216.32C218.006 156.698 219.623 156.07 220.815 154.952C222.007 153.835 222.677 152.319 222.677 150.738V137.631L234.82 131.051C235.543 130.659 236.177 130.138 236.685 129.516C237.193 128.894 237.566 128.185 237.781 127.428C237.997 126.671 238.051 125.882 237.941 125.106C237.831 124.33 237.559 123.581 237.14 122.903L230.128 111.531ZM158.607 81.6701C161.137 81.6709 163.563 82.6139 165.351 84.2917C167.14 85.9695 168.144 88.2446 168.143 90.6165C168.142 92.9885 167.136 95.2629 165.347 96.9396C163.557 98.6163 161.131 99.5577 158.601 99.557C156.071 99.5562 153.645 98.6132 151.856 96.9354C150.068 95.2576 149.064 92.9825 149.064 90.6106C149.065 88.2386 150.071 85.9642 151.861 84.2875C153.65 82.6108 156.077 81.6693 158.607 81.6701ZM160.514 138.889L150.342 131.742L188.487 84.0602L198.659 91.2066L160.514 138.889ZM190.394 141.273C189.141 141.273 187.901 141.041 186.744 140.591C185.587 140.141 184.535 139.482 183.65 138.651C182.764 137.821 182.062 136.835 181.583 135.749C181.104 134.664 180.858 133.501 180.858 132.327C180.858 131.152 181.106 129.989 181.585 128.904C182.065 127.819 182.768 126.834 183.654 126.004C184.54 125.173 185.592 124.515 186.75 124.066C187.907 123.617 189.148 123.386 190.4 123.386C192.93 123.387 195.356 124.33 197.145 126.008C198.933 127.686 199.937 129.961 199.937 132.333C199.936 134.704 198.93 136.979 197.14 138.656C195.351 140.332 192.924 141.274 190.394 141.273Z" fill="url(#paint2_linear_691_5)"/>
<defs>
<linearGradient id="paint0_linear_691_5" x1="175" y1="0" x2="175" y2="350" gradientUnits="userSpaceOnUse">
<stop stop-color="#D04D4D"/>
<stop offset="0.437066" stop-color="#A43F54"/>
<stop offset="1" stop-color="#6B2D5E"/>
</linearGradient>
<linearGradient id="paint1_linear_691_5" x1="174.5" y1="190" x2="174.5" y2="298.181" gradientUnits="userSpaceOnUse">
<stop stop-color="white"/>
<stop offset="1" stop-color="white" stop-opacity="0.69"/>
</linearGradient>
<linearGradient id="paint2_linear_691_5" x1="174.5" y1="52" x2="174.5" y2="171.062" gradientUnits="userSpaceOnUse">
<stop stop-color="white"/>
<stop offset="1" stop-color="white" stop-opacity="0.69"/>
</linearGradient>
</defs>
</svg>
