<svg width="250" height="250" viewBox="0 0 250 250" fill="none" xmlns="http://www.w3.org/2000/svg">
<rect x="18" y="18" width="213" height="213" rx="15.2143" fill="url(#paint0_linear_692_11)"/>
<path d="M81.3219 156.51C85.0317 156.51 87.3457 153.645 87.3457 148.943V148.649C87.3457 143.984 84.995 141.229 81.2851 141.229C77.5753 141.229 75.2613 143.911 75.2613 148.686V148.98C75.2613 153.755 77.6855 156.51 81.3219 156.51ZM81.175 162.423C72.6901 162.423 67.4009 156.914 67.4009 149.016V148.723C67.4009 140.715 73.4247 135.353 81.2851 135.353C89.2925 135.353 95.2062 140.385 95.2062 148.539V148.833C95.2062 156.914 89.6598 162.423 81.175 162.423ZM99.6543 161.982V147.253H97.2301V142.772H99.6543V141.083C99.6543 136.308 102.63 134.03 107.184 134.03C108.396 134.03 109.315 134.214 110.196 134.434V139.246C109.719 139.099 109.131 138.989 108.396 138.989C106.854 138.989 106.192 139.834 106.192 141.083V142.772H110.086V147.253H106.192V161.982H99.6543ZM121.517 162.423C115.493 162.423 111.085 158.897 111.085 152.616V152.322C111.085 146.151 115.677 142.258 121.48 142.258C126.733 142.258 131.251 145.27 131.251 152.175V153.902H117.734C117.917 156.436 119.387 157.905 121.737 157.905C123.904 157.905 124.823 156.914 125.08 155.628H131.251C130.663 159.962 127.32 162.423 121.517 162.423ZM117.807 150.192H124.859C124.749 147.878 123.611 146.592 121.48 146.592C119.497 146.592 118.138 147.878 117.807 150.192ZM134.066 161.982V142.772H140.641V146.592C141.853 143.727 143.873 142.478 146.849 142.515V148.649C142.845 148.539 140.641 149.788 140.641 152.873V161.982H134.066ZM157.776 162.423C153.442 162.423 151.018 160.33 151.018 155.812V147.253H148.704V142.772H151.018V138.768H157.592V142.772H161.376V147.253H157.592V155.187C157.592 156.583 158.29 157.207 159.539 157.207C160.274 157.207 160.825 157.097 161.412 156.877V161.872C160.568 162.093 159.319 162.423 157.776 162.423ZM169.812 162.423C166.359 162.423 163.31 160.734 163.31 156.656C163.31 152.139 167.13 150.375 173.522 150.375H175.358V149.935C175.358 148.098 174.917 146.886 172.824 146.886C171.024 146.886 170.363 147.951 170.216 149.163H164.045C164.339 144.535 167.975 142.258 173.228 142.258C178.517 142.258 181.896 144.425 181.896 149.531V161.982H175.505V159.742C174.587 161.138 172.897 162.423 169.812 162.423ZM172.089 157.979C173.962 157.979 175.358 156.914 175.358 155.261V154.085H173.632C170.987 154.085 169.812 154.6 169.812 156.179C169.812 157.281 170.546 157.979 172.089 157.979ZM60.8966 195.423C54.8728 195.423 50.4651 191.897 50.4651 185.616V185.322C50.4651 179.151 55.0564 175.258 60.8599 175.258C66.1124 175.258 70.6303 178.27 70.6303 185.175V186.902H57.1134C57.297 189.436 58.7662 190.905 61.117 190.905C63.2841 190.905 64.2024 189.914 64.4595 188.628H70.6303C70.0426 192.962 66.7001 195.423 60.8966 195.423ZM57.1868 183.192H64.2391C64.129 180.878 62.9903 179.592 60.8599 179.592C58.8764 179.592 57.5174 180.878 57.1868 183.192ZM81.1552 195.423C75.6823 195.423 72.4867 193.146 72.3397 188.885H78.4003C78.6207 190.281 79.2452 191.052 81.1184 191.052C82.7346 191.052 83.4692 190.428 83.4692 189.473C83.4692 188.555 82.5509 188.114 79.9063 187.746C74.764 187.085 72.5969 185.579 72.5969 181.576C72.5969 177.315 76.3801 175.258 80.8246 175.258C85.5629 175.258 88.8686 176.874 89.3094 181.465H83.359C83.1019 180.18 82.404 179.555 80.898 179.555C79.4655 179.555 78.7309 180.18 78.7309 181.061C78.7309 181.98 79.6125 182.347 81.9632 182.641C87.2892 183.302 89.8604 184.698 89.8604 188.812C89.8604 193.366 86.4811 195.423 81.1552 195.423ZM92.5288 201.41V175.772H99.1037V178.637C100.206 176.801 102.189 175.258 105.091 175.258C109.572 175.258 113.208 178.637 113.208 185.212V185.506C113.208 192.117 109.572 195.423 105.054 195.423C102.152 195.423 100.059 194.064 99.1037 192.154V201.41H92.5288ZM102.74 190.391C105.201 190.391 106.523 188.665 106.523 185.506V185.212C106.523 181.833 105.054 180.217 102.74 180.217C100.353 180.217 98.92 181.943 98.92 185.175V185.469C98.92 188.738 100.353 190.391 102.74 190.391ZM125.534 195.423C119.511 195.423 115.103 191.897 115.103 185.616V185.322C115.103 179.151 119.694 175.258 125.498 175.258C130.75 175.258 135.268 178.27 135.268 185.175V186.902H121.751C121.935 189.436 123.404 190.905 125.755 190.905C127.922 190.905 128.84 189.914 129.097 188.628H135.268C134.68 192.962 131.338 195.423 125.534 195.423ZM121.825 183.192H128.877C128.767 180.878 127.628 179.592 125.498 179.592C123.514 179.592 122.155 180.878 121.825 183.192ZM147.156 195.423C141.426 195.423 137.055 192.081 137.055 185.616V185.322C137.055 178.931 141.647 175.258 147.303 175.258C152.005 175.258 156.339 177.315 156.706 183.155H150.536C150.242 181.355 149.36 180.364 147.45 180.364C145.136 180.364 143.777 182.016 143.777 185.249V185.543C143.777 188.885 145.063 190.611 147.56 190.611C149.397 190.611 150.682 189.51 150.903 187.416H156.816C156.633 192.264 153.364 195.423 147.156 195.423ZM159.682 194.982V175.772H166.257V194.982H159.682ZM162.951 173.936C160.894 173.936 159.351 172.503 159.351 170.556C159.351 168.61 160.894 167.14 162.951 167.14C165.008 167.14 166.587 168.61 166.587 170.556C166.587 172.503 165.008 173.936 162.951 173.936ZM175.73 195.423C172.278 195.423 169.229 193.734 169.229 189.656C169.229 185.139 173.049 183.375 179.44 183.375H181.277V182.935C181.277 181.098 180.836 179.886 178.742 179.886C176.942 179.886 176.281 180.951 176.134 182.163H169.964C170.257 177.535 173.894 175.258 179.146 175.258C184.436 175.258 187.815 177.425 187.815 182.531V194.982H181.424V192.742C180.505 194.138 178.816 195.423 175.73 195.423ZM178.008 190.979C179.881 190.979 181.277 189.914 181.277 188.261V187.085H179.55C176.906 187.085 175.73 187.6 175.73 189.179C175.73 190.281 176.465 190.979 178.008 190.979ZM191.75 194.982V167.324H198.288V194.982H191.75Z" fill="url(#paint1_linear_692_11)"/>
<path d="M158.838 86.229L163.109 79.3082C163.622 78.4755 163.762 77.4858 163.497 76.5566C163.232 75.6275 162.585 74.8349 161.697 74.3533L154.307 70.3488V62.3689C154.307 61.4068 153.9 60.4842 153.174 59.804C152.448 59.1238 151.464 58.7416 150.438 58.7416H141.93L137.663 51.8172C137.148 50.9862 136.304 50.379 135.315 50.1269C134.824 50.0021 134.312 49.97 133.808 50.0322C133.303 50.0945 132.818 50.25 132.378 50.4896L124.988 54.4941L117.599 50.486C116.71 50.005 115.654 49.8746 114.663 50.1236C113.672 50.3726 112.827 50.9804 112.314 51.8135L108.042 58.7416H99.5345C98.5084 58.7416 97.5243 59.1238 96.7987 59.804C96.0732 60.4842 95.6655 61.4068 95.6655 62.3689V70.3452L88.2758 74.3497C87.8349 74.5875 87.4484 74.9046 87.1386 75.2828C86.8288 75.6611 86.6018 76.093 86.4705 76.5538C86.3393 77.0145 86.3065 77.495 86.374 77.9677C86.4414 78.4404 86.6078 78.896 86.8637 79.3082L91.135 86.229L86.8637 93.1498C86.3529 93.9832 86.2143 94.9722 86.4782 95.901C86.742 96.8299 87.3868 97.6233 88.272 98.1082L95.6617 102.113V110.089C95.6617 111.051 96.0693 111.974 96.7949 112.654C97.5204 113.334 98.5045 113.716 99.5306 113.716H108.042L112.314 120.644C112.656 121.193 113.145 121.649 113.733 121.967C114.32 122.285 114.986 122.454 115.664 122.458C116.337 122.458 117.007 122.291 117.602 121.968L124.984 117.964L132.374 121.968C133.263 122.449 134.318 122.579 135.309 122.331C136.299 122.083 137.145 121.476 137.659 120.644L141.927 113.716H150.434C151.461 113.716 152.445 113.334 153.17 112.654C153.896 111.974 154.303 111.051 154.303 110.089V102.113L161.693 98.1082C162.133 97.8698 162.519 97.5523 162.828 97.174C163.137 96.7956 163.364 96.3639 163.495 95.9034C163.626 95.4429 163.659 94.9627 163.593 94.4902C163.526 94.0177 163.36 93.5622 163.105 93.1498L158.838 86.229ZM115.312 68.0564C116.852 68.0569 118.328 68.6308 119.417 69.6518C120.505 70.6729 121.116 72.0574 121.115 73.5009C121.115 74.9444 120.503 76.3286 119.414 77.349C118.325 78.3693 116.848 78.9423 115.308 78.9418C113.769 78.9413 112.292 78.3674 111.204 77.3464C110.115 76.3253 109.504 74.9408 109.505 73.4973C109.505 72.0538 110.117 70.6696 111.206 69.6492C112.296 68.6289 113.772 68.0559 115.312 68.0564ZM116.473 102.878L110.282 98.529L133.496 69.5109L139.686 73.86L116.473 102.878ZM134.657 104.329C133.894 104.329 133.14 104.188 132.435 103.914C131.731 103.64 131.091 103.239 130.552 102.734C130.013 102.228 129.586 101.628 129.295 100.967C129.003 100.307 128.853 99.5992 128.853 98.8845C128.854 98.1697 129.004 97.462 129.296 96.8018C129.588 96.1415 130.016 95.5417 130.555 95.0364C131.094 94.5312 131.734 94.1305 132.439 93.8572C133.143 93.5839 133.898 93.4433 134.661 93.4436C136.2 93.4441 137.677 94.018 138.765 95.039C139.854 96.06 140.465 97.4446 140.464 98.8881C140.464 100.332 139.851 101.716 138.762 102.736C137.673 103.757 136.197 104.329 134.657 104.329Z" fill="url(#paint2_linear_692_11)"/>
<defs>
<linearGradient id="paint0_linear_692_11" x1="124.5" y1="18" x2="124.5" y2="231" gradientUnits="userSpaceOnUse">
<stop stop-color="#29A067"/>
<stop offset="1" stop-color="#257D53"/>
</linearGradient>
<linearGradient id="paint1_linear_692_11" x1="124.981" y1="133.982" x2="124.981" y2="199.818" gradientUnits="userSpaceOnUse">
<stop stop-color="white"/>
<stop offset="1" stop-color="white" stop-opacity="0.69"/>
</linearGradient>
<linearGradient id="paint2_linear_692_11" x1="124.984" y1="50" x2="124.984" y2="122.458" gradientUnits="userSpaceOnUse">
<stop stop-color="white"/>
<stop offset="1" stop-color="white" stop-opacity="0.69"/>
</linearGradient>
</defs>
</svg>
