<svg width="250" height="250" viewBox="0 0 250 250" fill="none" xmlns="http://www.w3.org/2000/svg">
<rect x="18" y="18" width="213" height="213" rx="15.2143" fill="url(#paint0_linear_698_2)"/>
<path d="M42.904 182V162.33H48.5711V177.626H55.9988V182H42.904ZM62.3315 182.33C59.7455 182.33 57.4622 181.065 57.4622 178.011C57.4622 174.627 60.3232 173.307 65.11 173.307H66.4855V172.977C66.4855 171.601 66.1554 170.693 64.5873 170.693C63.2393 170.693 62.7441 171.491 62.6341 172.399H58.0124C58.2325 168.933 60.956 167.227 64.8899 167.227C68.8513 167.227 71.3823 168.85 71.3823 172.674V182H66.5955V180.322C65.9078 181.367 64.6423 182.33 62.3315 182.33ZM64.0371 179.001C65.4401 179.001 66.4855 178.204 66.4855 176.966V176.085H65.1925C63.2118 176.085 62.3315 176.47 62.3315 177.653C62.3315 178.479 62.8817 179.001 64.0371 179.001ZM74.1917 182V167.612H79.116V169.923C79.8863 168.438 81.4544 167.227 83.8477 167.227C86.6262 167.227 88.5519 168.96 88.5519 172.647V182H83.6276V173.637C83.6276 172.014 82.9949 171.216 81.5644 171.216C80.1064 171.216 79.116 172.096 79.116 173.94V182H74.1917ZM97.6309 188.217C95.6502 188.217 94.3847 187.309 94.1371 185.659H96.448C96.558 186.071 96.8331 186.429 97.4383 186.429C97.9885 186.429 98.3186 186.071 98.3186 185.604C98.3186 185.109 97.9885 184.751 97.4108 184.751C96.9706 184.751 96.6955 184.916 96.5305 185.054L95.4576 184.008L96.6405 182.22C93.1192 181.697 90.5883 179.249 90.5883 174.985V174.765C90.5883 169.978 94.0271 167.227 98.2636 167.227C101.785 167.227 105.031 168.768 105.306 173.142H100.684C100.464 171.794 99.8042 171.051 98.3737 171.051C96.6405 171.051 95.6227 172.289 95.6227 174.71V174.93C95.6227 177.433 96.5855 178.726 98.4562 178.726C99.8317 178.726 100.795 177.901 100.96 176.333H105.389C105.251 179.882 102.94 182.193 98.5387 182.33L97.906 183.238C99.5016 183.073 100.96 183.816 100.96 185.604C100.96 187.254 99.6391 188.217 97.6309 188.217ZM111.575 182.33C108.99 182.33 106.706 181.065 106.706 178.011C106.706 174.627 109.567 173.307 114.354 173.307H115.729V172.977C115.729 171.601 115.399 170.693 113.831 170.693C112.483 170.693 111.988 171.491 111.878 172.399H107.256C107.476 168.933 110.2 167.227 114.134 167.227C118.095 167.227 120.626 168.85 120.626 172.674V182H115.839V180.322C115.152 181.367 113.886 182.33 111.575 182.33ZM113.281 179.001C114.684 179.001 115.729 178.204 115.729 176.966V176.085H114.436C112.456 176.085 111.575 176.47 111.575 177.653C111.575 178.479 112.126 179.001 113.281 179.001ZM123.436 182V167.612H128.36V169.813C129.13 168.438 130.643 167.227 132.872 167.227C134.77 167.227 136.09 168.052 136.778 169.62C138.016 167.942 139.722 167.227 141.537 167.227C144.261 167.227 146.241 168.988 146.241 172.592V182H141.317V173.417C141.317 171.959 140.602 171.244 139.474 171.244C138.154 171.244 137.273 172.096 137.273 173.664V182H132.404V173.417C132.404 171.959 131.689 171.244 130.561 171.244C129.24 171.244 128.36 172.096 128.36 173.664V182H123.436ZM156.081 182.33C151.569 182.33 148.268 179.689 148.268 174.985V174.765C148.268 170.143 151.707 167.227 156.053 167.227C159.987 167.227 163.371 169.483 163.371 174.655V175.948H153.247C153.385 177.846 154.485 178.946 156.246 178.946C157.869 178.946 158.557 178.204 158.749 177.241H163.371C162.931 180.487 160.427 182.33 156.081 182.33ZM153.302 173.169H158.584C158.502 171.436 157.649 170.473 156.053 170.473C154.568 170.473 153.55 171.436 153.302 173.169ZM165.48 182V167.612H170.404V169.923C171.174 168.438 172.742 167.227 175.136 167.227C177.914 167.227 179.84 168.96 179.84 172.647V182H174.916V173.637C174.916 172.014 174.283 171.216 172.852 171.216C171.394 171.216 170.404 172.096 170.404 173.94V182H165.48ZM188.369 182.33C185.123 182.33 183.307 180.762 183.307 177.378V170.968H181.574V167.612H183.307V164.614H188.231V167.612H191.065V170.968H188.231V176.911C188.231 177.956 188.754 178.424 189.689 178.424C190.239 178.424 190.652 178.341 191.092 178.176V181.917C190.46 182.083 189.524 182.33 188.369 182.33ZM200.464 178.671C202.307 178.671 203.298 177.296 203.298 174.902V174.682C203.298 172.261 202.335 170.913 200.464 170.913C198.621 170.913 197.603 172.206 197.603 174.627V174.847C197.603 177.323 198.566 178.671 200.464 178.671ZM200.437 182.33C196.007 182.33 192.569 179.634 192.569 174.985V174.765C192.569 170.143 196.007 167.227 200.464 167.227C204.893 167.227 208.304 170.061 208.304 174.627V174.847C208.304 179.524 204.866 182.33 200.437 182.33Z" fill="url(#paint1_linear_698_2)"/>
<path d="M161.675 112.098L154.287 105.519C152.148 103.615 152.148 100.496 154.287 98.5927L161.675 92.0091C163.814 90.1054 163.245 88.3344 160.409 88.0563L150.612 87.1281C147.78 86.8628 146.249 84.4202 147.229 81.7123L152.426 67.2403C153.401 64.5239 152.208 63.54 149.778 65.0415L138.224 72.1855C137.651 72.5441 137.012 72.7819 136.344 72.8842C135.677 72.9866 134.995 72.9513 134.342 72.7806C133.688 72.61 133.077 72.3075 132.544 71.8917C132.012 71.476 131.57 70.9558 131.246 70.3632L127.063 62.8941C125.655 60.3787 123.332 60.3701 121.899 62.8598L118.011 69.6188C116.569 72.1214 113.271 73.1823 110.683 71.9973L103.838 68.8574C101.237 67.6596 99.2482 69.037 99.4022 71.9203L99.7701 78.829C99.9284 81.7123 97.798 84.6768 95.0473 85.4212L88.4381 87.1922C85.6917 87.9366 85.1869 90.1012 87.3258 92.0048L94.7137 98.5884C96.8526 100.492 96.8526 103.611 94.7137 105.514L87.3258 112.098C85.1869 114.001 85.7516 115.85 88.5792 116.192L97.5413 117.278C100.369 117.621 101.943 120.144 101.041 122.887L96.4462 136.824C95.5436 139.566 96.8312 140.627 99.3038 139.198L109.84 133.098C111.069 132.417 112.508 132.219 113.876 132.542C115.243 132.864 116.441 133.685 117.237 134.843L121.608 141.427C123.2 143.818 125.591 143.69 126.913 141.136L130.759 133.722C131.399 132.492 132.494 131.561 133.811 131.127C135.128 130.693 136.563 130.791 137.809 131.399L145.226 135.108C147.785 136.379 149.748 135.066 149.594 132.191L149.222 125.274C149.072 122.39 151.194 119.434 153.953 118.69L160.554 116.91C163.309 116.166 163.814 114.001 161.675 112.098ZM128.778 119.182H120.222V110.626H128.778V119.182ZM128.778 106.348H120.222V84.9592H128.778V106.348Z" fill="url(#paint2_linear_698_2)"/>
<defs>
<linearGradient id="paint0_linear_698_2" x1="124.5" y1="18" x2="124.5" y2="231" gradientUnits="userSpaceOnUse">
<stop stop-color="#C92B67"/>
<stop offset="1" stop-color="#7F2C4B"/>
</linearGradient>
<linearGradient id="paint1_linear_698_2" x1="125" y1="161" x2="125" y2="186" gradientUnits="userSpaceOnUse">
<stop stop-color="white"/>
<stop offset="1" stop-color="white" stop-opacity="0.69"/>
</linearGradient>
<linearGradient id="paint2_linear_698_2" x1="124.5" y1="61" x2="124.5" y2="143.139" gradientUnits="userSpaceOnUse">
<stop stop-color="white"/>
<stop offset="1" stop-color="white" stop-opacity="0.69"/>
</linearGradient>
</defs>
</svg>
