<svg width="300" height="300" viewBox="0 0 300 300" fill="none" xmlns="http://www.w3.org/2000/svg">
<g clip-path="url(#clip0_668_17)">
<g style="mix-blend-mode:multiply">
<path d="M154.321 4.32395L164.163 19.601L177.056 6.79389L184.387 23.4226L199.125 12.79L203.765 30.3608L219.985 22.1647L221.819 40.245L239.121 34.6872L238.104 52.8317L256.063 50.049L252.22 67.811L270.393 67.8719L263.818 84.8141L281.758 87.7171L272.614 103.422L289.879 109.096L278.391 123.177L294.556 131.482L281.006 143.593L295.673 154.324L280.396 164.166L293.203 177.059L276.574 184.391L287.207 199.129L269.636 203.768L277.832 219.988L259.752 221.822L265.31 239.124L247.165 238.107L249.948 256.066L232.186 252.223L232.125 270.396L215.183 263.822L212.28 281.761L196.574 272.618L190.901 289.882L176.819 278.394L168.515 294.559L156.404 281.01L145.673 295.676L135.83 280.399L122.937 293.206L115.606 276.577L100.868 287.21L96.2283 269.639L80.0084 277.835L78.1746 259.755L60.8723 265.313L61.8893 247.168L43.9306 249.951L47.7736 232.189L29.6007 232.128L36.175 215.186L18.2353 212.283L27.379 196.578L10.1143 190.904L21.6023 176.823L5.43769 168.518L18.987 156.407L4.32058 145.676L19.5977 135.834L6.79052 122.941L23.4192 115.609L12.7867 100.871L30.3575 96.2316L22.1614 80.0118L40.2416 78.1779L34.6838 60.8756L52.8284 61.8927L50.0456 43.934L67.8077 47.777L67.8686 29.6041L84.8108 36.1783L87.7138 18.2387L103.419 27.3824L109.093 10.1177L123.174 21.6056L131.479 5.44106L143.59 18.9904L154.321 4.32395Z" fill="url(#paint0_linear_668_17)"/>
</g>
<circle cx="149.5" cy="149.5" r="119.5" fill="#BD544C"/>
<circle cx="149.5" cy="149.5" r="117.5" stroke="#F8F8F8" stroke-width="4"/>
<path d="M82.1651 134.994C86.2365 134.994 88.7762 131.849 88.7762 126.689V126.367C88.7762 121.247 86.1962 118.224 82.1248 118.224C78.0533 118.224 75.5137 121.167 75.5137 126.407V126.73C75.5137 131.97 78.1743 134.994 82.1651 134.994ZM82.0038 141.484C72.6919 141.484 66.8871 135.437 66.8871 126.77V126.448C66.8871 117.66 73.4981 111.774 82.1248 111.774C90.9127 111.774 97.4028 117.297 97.4028 126.246V126.569C97.4028 135.437 91.3158 141.484 82.0038 141.484ZM101.447 141V112.177H120.918V118.587H109.752V124.714H118.66V130.801H109.752V141H101.447ZM124.792 141V112.177H144.706V118.547H133.015V123.505H142.327V129.39H133.015V134.631H145.351V141H124.792ZM149.475 141V112.177H160.762C168.3 112.177 172.492 115.241 172.492 121.328V121.489C172.492 125.601 170.316 127.899 167.292 129.068L174.186 141H165.478L159.633 130.68H157.698V141H149.475ZM157.698 125.319H160.359C163.14 125.319 164.511 124.15 164.511 121.812V121.651C164.511 119.312 163.06 118.385 160.399 118.385H157.698V125.319ZM182.318 141V118.547H174.86V112.177H198.08V118.547H190.622V141H182.318ZM196.819 141L206.05 112.177H216.733L225.884 141H217.136L215.604 135.639H206.05L204.519 141H196.819ZM210.848 118.869L207.663 129.955H213.992L210.848 118.869ZM52.4951 185V156.177H60.7993V178.59H71.6833V185H52.4951ZM75.8433 185V156.177H84.1877V185H75.8433ZM89.854 185V156.177H100.617L106.14 171.536L111.662 156.177H122.224V185H114.001V167.061L106.946 185H104.205L97.231 167.061V185H89.854ZM128.004 185V156.177H136.348V185H128.004ZM147.537 185V162.547H140.08V156.177H163.299V162.547H155.842V185H147.537ZM162.039 185L171.27 156.177H181.953L191.103 185H182.356L180.824 179.639H171.27L169.738 185H162.039ZM176.067 162.869L172.883 173.955H179.211L176.067 162.869ZM202.716 178.631H204.61C209.528 178.631 211.705 176.051 211.705 170.689V170.367C211.705 164.885 209.528 162.547 204.53 162.547H202.716V178.631ZM194.412 185V156.177H204.893C215.132 156.177 220.332 161.297 220.332 170.246V170.569C220.332 179.558 215.011 185 204.852 185H194.412ZM220.695 185L229.926 156.177H240.609L249.759 185H241.012L239.48 179.639H229.926L228.394 185H220.695ZM234.723 162.869L231.539 173.955H237.868L234.723 162.869Z" fill="#F8F8F8"/>
</g>
<defs>
<linearGradient id="paint0_linear_668_17" x1="154.321" y1="4.32395" x2="145.673" y2="295.676" gradientUnits="userSpaceOnUse">
<stop stop-color="#C35249"/>
<stop offset="1" stop-color="#8E3F39"/>
</linearGradient>
<clipPath id="clip0_668_17">
<rect width="300" height="300" fill="white"/>
</clipPath>
</defs>
</svg>
