<svg width="250" height="250" viewBox="0 0 250 250" fill="none" xmlns="http://www.w3.org/2000/svg">
<rect x="18" y="18" width="213" height="213" rx="15.2143" fill="url(#paint0_linear_692_16)"/>
<path d="M54.3159 165.402C47.6141 165.402 44.1963 162.587 43.9952 157.394H50.5294C50.6969 159.102 51.4676 160.51 54.3159 160.51C56.2929 160.51 57.3987 159.538 57.3987 158.131C57.3987 156.656 56.4939 156.254 53.6122 155.819C46.8434 155.014 44.5649 153.004 44.5649 148.179C44.5649 143.856 48.1168 140.706 53.8468 140.706C59.6102 140.706 62.8606 143.119 63.2962 148.179H56.9295C56.695 146.47 55.7232 145.598 53.8468 145.598C52.0038 145.598 51.0655 146.436 51.0655 147.643C51.0655 148.983 51.8027 149.586 54.785 149.988C60.8501 150.658 63.9664 152.233 63.9664 157.427C63.9664 161.817 60.4815 165.402 54.3159 165.402ZM75.4378 165.402C69.9424 165.402 65.9214 162.185 65.9214 156.455V156.187C65.9214 150.558 70.11 147.006 75.4043 147.006C80.1961 147.006 84.3176 149.754 84.3176 156.053V157.628H71.9864C72.154 159.94 73.4943 161.281 75.6389 161.281C77.6159 161.281 78.4536 160.376 78.6882 159.203H84.3176C83.7815 163.157 80.7322 165.402 75.4378 165.402ZM72.0535 154.244H78.4871C78.3866 152.133 77.3478 150.96 75.4043 150.96C73.5949 150.96 72.355 152.133 72.0535 154.244ZM86.8863 165V147.475H92.8843V150.156C93.8226 148.48 95.6655 147.006 98.3797 147.006C100.692 147.006 102.3 148.011 103.138 149.921C104.646 147.877 106.723 147.006 108.935 147.006C112.252 147.006 114.665 149.15 114.665 153.54V165H108.667V154.545C108.667 152.769 107.796 151.898 106.422 151.898C104.813 151.898 103.741 152.937 103.741 154.847V165H97.8101V154.545C97.8101 152.769 96.9389 151.898 95.565 151.898C93.9566 151.898 92.8843 152.937 92.8843 154.847V165H86.8863ZM118.239 165V147.475H124.237V165H118.239ZM121.221 145.8C119.345 145.8 117.938 144.493 117.938 142.717C117.938 140.941 119.345 139.6 121.221 139.6C123.098 139.6 124.539 140.941 124.539 142.717C124.539 144.493 123.098 145.8 121.221 145.8ZM127.954 165V147.475H133.952V150.29C134.89 148.48 136.8 147.006 139.716 147.006C143.1 147.006 145.446 149.117 145.446 153.607V165H139.447V154.813C139.447 152.836 138.677 151.865 136.934 151.865C135.158 151.865 133.952 152.937 133.952 155.182V165H127.954ZM157.543 160.945C159.788 160.945 160.994 159.27 160.994 156.355V156.087C160.994 153.138 159.822 151.496 157.543 151.496C155.298 151.496 154.058 153.071 154.058 156.02V156.288C154.058 159.304 155.231 160.945 157.543 160.945ZM157.509 165.402C152.115 165.402 147.926 162.118 147.926 156.455V156.187C147.926 150.558 152.115 147.006 157.543 147.006C162.938 147.006 167.093 150.457 167.093 156.02V156.288C167.093 161.984 162.904 165.402 157.509 165.402ZM173.784 165L167.35 147.475H173.75L177.403 158.767L180.988 147.475H186.718L180.318 165H173.784ZM196.385 160.945C198.631 160.945 199.837 159.27 199.837 156.355V156.087C199.837 153.138 198.664 151.496 196.385 151.496C194.14 151.496 192.901 153.071 192.901 156.02V156.288C192.901 159.304 194.073 160.945 196.385 160.945ZM196.352 165.402C190.957 165.402 186.768 162.118 186.768 156.455V156.187C186.768 150.558 190.957 147.006 196.385 147.006C201.78 147.006 205.935 150.457 205.935 156.02V156.288C205.935 161.984 201.747 165.402 196.352 165.402ZM54.8549 195.402C49.3595 195.402 45.3384 192.185 45.3384 186.455V186.187C45.3384 180.558 49.527 177.006 54.8214 177.006C59.6131 177.006 63.7347 179.754 63.7347 186.053V187.628H51.4035C51.571 189.94 52.9114 191.281 55.0559 191.281C57.033 191.281 57.8707 190.376 58.1052 189.203H63.7347C63.1985 193.157 60.1493 195.402 54.8549 195.402ZM51.4705 184.244H57.9042C57.8036 182.133 56.7649 180.96 54.8214 180.96C53.0119 180.96 51.7721 182.133 51.4705 184.244ZM63.8815 195L69.712 186.087L64.2501 177.475H71.1529L73.8671 182.099L76.5143 177.475H82.6799L77.151 185.618L83.216 195H76.3132L73.1969 189.773L70.0136 195H63.8815ZM92.1524 195.402C86.925 195.402 82.9375 192.353 82.9375 186.455V186.187C82.9375 180.357 87.1261 177.006 92.2864 177.006C96.5755 177.006 100.53 178.882 100.865 184.21H95.2352C94.9671 182.568 94.1629 181.664 92.4204 181.664C90.3094 181.664 89.0696 183.171 89.0696 186.12V186.388C89.0696 189.438 90.2424 191.012 92.521 191.012C94.1964 191.012 95.3692 190.007 95.5702 188.097H100.965C100.798 192.52 97.8153 195.402 92.1524 195.402ZM111.99 195.402C106.494 195.402 102.473 192.185 102.473 186.455V186.187C102.473 180.558 106.662 177.006 111.956 177.006C116.748 177.006 120.87 179.754 120.87 186.053V187.628H108.538C108.706 189.94 110.046 191.281 112.191 191.281C114.168 191.281 115.006 190.376 115.24 189.203H120.87C120.333 193.157 117.284 195.402 111.99 195.402ZM108.605 184.244H115.039C114.939 182.133 113.9 180.96 111.956 180.96C110.147 180.96 108.907 182.133 108.605 184.244ZM123.606 195V169.768H129.57V195H123.606ZM141.866 195.402C136.371 195.402 132.35 192.185 132.35 186.455V186.187C132.35 180.558 136.538 177.006 141.833 177.006C146.624 177.006 150.746 179.754 150.746 186.053V187.628H138.415C138.582 189.94 139.923 191.281 142.067 191.281C144.044 191.281 144.882 190.376 145.116 189.203H150.746C150.21 193.157 147.16 195.402 141.866 195.402ZM138.482 184.244H144.915C144.815 182.133 143.776 180.96 141.833 180.96C140.023 180.96 138.783 182.133 138.482 184.244ZM153.315 195V177.475H159.313V180.29C160.251 178.48 162.161 177.006 165.076 177.006C168.46 177.006 170.806 179.117 170.806 183.607V195H164.808V184.813C164.808 182.836 164.037 181.865 162.295 181.865C160.519 181.865 159.313 182.937 159.313 185.182V195H153.315ZM181.195 195.402C177.24 195.402 175.029 193.492 175.029 189.371V181.563H172.918V177.475H175.029V173.823H181.027V177.475H184.478V181.563H181.027V188.801C181.027 190.074 181.664 190.644 182.803 190.644C183.473 190.644 183.976 190.543 184.512 190.342V194.899C183.741 195.101 182.602 195.402 181.195 195.402ZM195.827 195.402C190.331 195.402 186.31 192.185 186.31 186.455V186.187C186.31 180.558 190.499 177.006 195.793 177.006C200.585 177.006 204.707 179.754 204.707 186.053V187.628H192.375C192.543 189.94 193.883 191.281 196.028 191.281C198.005 191.281 198.843 190.376 199.077 189.203H204.707C204.17 193.157 201.121 195.402 195.827 195.402ZM192.442 184.244H198.876C198.776 182.133 197.737 180.96 195.793 180.96C193.984 180.96 192.744 182.133 192.442 184.244Z" fill="url(#paint1_linear_692_16)"/>
<path fill-rule="evenodd" clip-rule="evenodd" d="M114.668 53.0598C119.487 46.3134 129.513 46.3134 134.332 53.0598L135.099 54.1338C135.947 55.3212 137.371 55.9569 138.821 55.7958L142.241 55.4158C149.937 54.5608 156.439 61.0634 155.584 68.7591L155.204 72.1786C155.043 73.6287 155.679 75.0526 156.866 75.9007L157.94 76.6679C164.687 81.4865 164.687 91.5132 157.94 96.3322L156.866 97.0995C155.679 97.9473 155.043 99.3714 155.204 100.821L155.584 104.241C156.439 111.937 149.937 118.439 142.241 117.584L138.821 117.204C137.371 117.043 135.947 117.679 135.099 118.866L134.332 119.94C129.513 126.687 119.487 126.687 114.668 119.94L113.901 118.866C113.053 117.679 111.629 117.043 110.179 117.204L106.759 117.584C99.0634 118.439 92.5608 111.937 93.4158 104.241L93.7958 100.821C93.9569 99.3714 93.3212 97.9473 92.1338 97.0995L91.0598 96.3322C84.3134 91.5132 84.3134 81.4869 91.0598 76.6679L92.1338 75.9007C93.3212 75.0526 93.9569 73.6287 93.7958 72.1785L93.4158 68.7591C92.5608 61.0634 99.0634 54.5608 106.759 55.4158L110.179 55.7958C111.629 55.9569 113.053 55.3212 113.901 54.1338L114.668 53.0598ZM139.431 75.5969C141.004 77.1698 141.004 79.72 139.431 81.2928L124.05 96.6738C122.074 98.6497 118.871 98.6497 116.895 96.6738L109.569 89.348C107.996 87.7752 107.996 85.2249 109.569 83.6522C111.142 82.0794 113.692 82.0794 115.265 83.6522L120.472 88.8594L133.735 75.5969C135.308 74.0241 137.858 74.0241 139.431 75.5969Z" fill="url(#paint2_linear_692_16)"/>
<defs>
<linearGradient id="paint0_linear_692_16" x1="124.5" y1="18" x2="124.5" y2="231" gradientUnits="userSpaceOnUse">
<stop stop-color="#377BA4"/>
<stop offset="1" stop-color="#1E6895"/>
</linearGradient>
<linearGradient id="paint1_linear_692_16" x1="125" y1="139" x2="125" y2="199.06" gradientUnits="userSpaceOnUse">
<stop stop-color="white"/>
<stop offset="1" stop-color="white" stop-opacity="0.69"/>
</linearGradient>
<linearGradient id="paint2_linear_692_16" x1="124.5" y1="48" x2="124.5" y2="125" gradientUnits="userSpaceOnUse">
<stop stop-color="white"/>
<stop offset="1" stop-color="white" stop-opacity="0.69"/>
</linearGradient>
</defs>
</svg>
