<svg width="300" height="300" viewBox="0 0 300 300" fill="none" xmlns="http://www.w3.org/2000/svg">
<g clip-path="url(#clip0_668_17)">
<g style="mix-blend-mode:multiply">
<path d="M154.321 4.32395L164.163 19.601L177.056 6.79389L184.387 23.4226L199.125 12.79L203.765 30.3608L219.985 22.1647L221.819 40.245L239.121 34.6872L238.104 52.8317L256.063 50.049L252.22 67.811L270.393 67.8719L263.818 84.8141L281.758 87.7171L272.614 103.422L289.879 109.096L278.391 123.177L294.556 131.482L281.006 143.593L295.673 154.324L280.396 164.166L293.203 177.059L276.574 184.391L287.207 199.129L269.636 203.768L277.832 219.988L259.752 221.822L265.31 239.124L247.165 238.107L249.948 256.066L232.186 252.223L232.125 270.396L215.183 263.822L212.28 281.761L196.574 272.618L190.901 289.882L176.819 278.394L168.515 294.559L156.404 281.01L145.673 295.676L135.83 280.399L122.937 293.206L115.606 276.577L100.868 287.21L96.2283 269.639L80.0084 277.835L78.1746 259.755L60.8723 265.313L61.8893 247.168L43.9306 249.951L47.7736 232.189L29.6007 232.128L36.175 215.186L18.2353 212.283L27.379 196.578L10.1143 190.904L21.6023 176.823L5.43769 168.518L18.987 156.407L4.32058 145.676L19.5977 135.834L6.79052 122.941L23.4192 115.609L12.7867 100.871L30.3575 96.2316L22.1614 80.0118L40.2416 78.1779L34.6838 60.8756L52.8284 61.8927L50.0456 43.934L67.8077 47.777L67.8686 29.6041L84.8108 36.1783L87.7138 18.2387L103.419 27.3824L109.093 10.1177L123.174 21.6056L131.479 5.44106L143.59 18.9904L154.321 4.32395Z" fill="url(#paint0_linear_668_17)"/>
</g>
<path d="M267 149.5C267 214.393 214.393 267 149.5 267C84.6065 267 32 214.393 32 149.5C32 84.6065 84.6065 32 149.5 32C214.393 32 267 84.6065 267 149.5Z" stroke="#F8F8F8" stroke-width="4"/>
<path d="M102.882 179.828C105.71 179.828 107.474 177.644 107.474 174.06V173.836C107.474 170.28 105.682 168.18 102.854 168.18C100.026 168.18 98.2623 170.224 98.2623 173.864V174.088C98.2623 177.728 100.11 179.828 102.882 179.828ZM102.77 184.336C96.3023 184.336 92.2703 180.136 92.2703 174.116V173.892C92.2703 167.788 96.8623 163.7 102.854 163.7C108.958 163.7 113.466 167.536 113.466 173.752V173.976C113.466 180.136 109.238 184.336 102.77 184.336ZM116.276 184V163.98H129.8V168.432H122.044V172.688H128.232V176.916H122.044V184H116.276ZM132.491 184V163.98H146.323V168.404H138.203V171.848H144.671V175.936H138.203V179.576H146.771V184H132.491ZM149.635 184V163.98H157.475C162.711 163.98 165.623 166.108 165.623 170.336V170.448C165.623 173.304 164.111 174.9 162.011 175.712L166.799 184H160.751L156.691 176.832H155.347V184H149.635ZM155.347 173.108H157.195C159.127 173.108 160.079 172.296 160.079 170.672V170.56C160.079 168.936 159.071 168.292 157.223 168.292H155.347V173.108ZM172.448 184V168.404H167.268V163.98H183.396V168.404H178.216V184H172.448ZM182.52 184L188.932 163.98H196.352L202.708 184H196.632L195.568 180.276H188.932L187.868 184H182.52ZM192.264 168.628L190.052 176.328H194.448L192.264 168.628ZM82.2738 215V194.98H88.0418V210.548H95.6018V215H82.2738ZM98.4913 215V194.98H104.287V215H98.4913ZM108.223 215V194.98H115.699L119.535 205.648L123.371 194.98H130.707V215H124.995V202.54L120.095 215H118.191L113.347 202.54V215H108.223ZM134.722 215V194.98H140.518V215H134.722ZM148.289 215V199.404H143.109V194.98H159.237V199.404H154.057V215H148.289ZM158.362 215L164.774 194.98H172.194L178.55 215H172.474L171.41 211.276H164.774L163.71 215H158.362ZM168.106 199.628L165.894 207.328H170.29L168.106 199.628ZM186.616 210.576H187.932C191.348 210.576 192.86 208.784 192.86 205.06V204.836C192.86 201.028 191.348 199.404 187.876 199.404H186.616V210.576ZM180.848 215V194.98H188.128C195.24 194.98 198.852 198.536 198.852 204.752V204.976C198.852 211.22 195.156 215 188.1 215H180.848ZM199.104 215L205.516 194.98H212.936L219.292 215H213.216L212.152 211.276H205.516L204.452 215H199.104ZM208.848 199.628L206.636 207.328H211.032L208.848 199.628Z" fill="#F8F8F8"/>
<path d="M189.359 107.656L194.389 99.5076C194.993 98.5272 195.157 97.3619 194.846 96.2679C194.534 95.1739 193.771 94.2408 192.726 93.6737L184.025 88.9588V79.5632C184.025 78.4305 183.545 77.3442 182.691 76.5433C181.837 75.7424 180.678 75.2924 179.47 75.2924H169.453L164.428 67.1395C163.821 66.1612 162.828 65.4462 161.663 65.1494C161.085 65.0025 160.482 64.9646 159.889 65.038C159.295 65.1113 158.723 65.2943 158.206 65.5764L149.505 70.2913L140.804 65.5722C139.758 65.0059 138.515 64.8524 137.348 65.1455C136.181 65.4387 135.186 66.1544 134.582 67.1353L129.553 75.2924H119.535C118.327 75.2924 117.169 75.7424 116.314 76.5433C115.46 77.3442 114.98 78.4305 114.98 79.5632V88.9545L106.279 93.6695C105.76 93.9494 105.305 94.3228 104.94 94.7682C104.576 95.2135 104.308 95.722 104.154 96.2645C103.999 96.807 103.961 97.3728 104.04 97.9294C104.12 98.4859 104.316 99.0223 104.617 99.5076L109.646 107.656L104.617 115.805C104.015 116.786 103.852 117.951 104.163 119.044C104.473 120.138 105.233 121.072 106.275 121.643L114.976 126.358V135.749C114.976 136.882 115.455 137.968 116.31 138.769C117.164 139.57 118.323 140.02 119.531 140.02H129.553L134.582 148.177C134.985 148.823 135.561 149.36 136.252 149.735C136.944 150.109 137.728 150.308 138.527 150.312C139.319 150.312 140.107 150.116 140.809 149.736L149.5 145.021L158.201 149.736C159.247 150.301 160.49 150.455 161.656 150.163C162.823 149.87 163.818 149.156 164.424 148.177L169.448 140.02H179.465C180.673 140.02 181.832 139.57 182.686 138.769C183.541 137.968 184.021 136.882 184.021 135.749V126.358L192.721 121.643C193.24 121.362 193.694 120.988 194.058 120.543C194.422 120.097 194.689 119.589 194.843 119.047C194.998 118.505 195.037 117.939 194.958 117.383C194.879 116.827 194.684 116.29 194.384 115.805L189.359 107.656ZM138.112 86.2597C139.925 86.2603 141.663 86.936 142.945 88.1382C144.226 89.3403 144.946 90.9705 144.945 92.6701C144.944 94.3697 144.224 95.9994 142.941 97.2008C141.659 98.4022 139.92 99.0768 138.108 99.0762C136.295 99.0757 134.556 98.4 133.275 97.1978C131.993 95.9956 131.274 94.3654 131.275 92.6658C131.275 90.9663 131.996 89.3365 133.278 88.1351C134.56 86.9338 136.299 86.2591 138.112 86.2597ZM139.479 127.259L132.19 122.138L159.522 87.9723L166.811 93.0929L139.479 127.259ZM160.889 128.967C159.991 128.967 159.102 128.801 158.273 128.479C157.444 128.156 156.691 127.684 156.056 127.089C155.422 126.494 154.918 125.787 154.575 125.009C154.232 124.232 154.055 123.398 154.056 122.557C154.056 121.715 154.233 120.882 154.577 120.105C154.921 119.327 155.424 118.621 156.059 118.026C156.694 117.431 157.448 116.959 158.277 116.638C159.107 116.316 159.996 116.15 160.893 116.151C162.706 116.151 164.444 116.827 165.726 118.029C167.007 119.231 167.727 120.862 167.726 122.561C167.726 124.261 167.005 125.89 165.723 127.092C164.44 128.293 162.702 128.968 160.889 128.967Z" fill="#F8F8F8"/>
</g>
<defs>
<linearGradient id="paint0_linear_668_17" x1="154.321" y1="4.32395" x2="145.673" y2="295.676" gradientUnits="userSpaceOnUse">
<stop stop-color="#C35249"/>
<stop offset="1" stop-color="#8E3F39"/>
</linearGradient>
<clipPath id="clip0_668_17">
<rect width="300" height="300" fill="white"/>
</clipPath>
</defs>
</svg>
