<svg width="250" height="250" viewBox="0 0 250 250" fill="none" xmlns="http://www.w3.org/2000/svg">
<rect x="18" y="18" width="213" height="213" rx="15.2143" fill="url(#paint0_linear_692_11)"/>
<path d="M80.5367 156.156C84.2465 156.156 86.5606 153.291 86.5606 148.589V148.296C86.5606 143.631 84.2098 140.876 80.5 140.876C76.7902 140.876 74.4761 143.557 74.4761 148.332V148.626C74.4761 153.401 76.9004 156.156 80.5367 156.156ZM80.3898 162.07C71.905 162.07 66.6157 156.56 66.6157 148.663V148.369C66.6157 140.362 72.6396 134.999 80.5 134.999C88.5073 134.999 94.421 140.031 94.421 148.185V148.479C94.421 156.56 88.8746 162.07 80.3898 162.07ZM98.8692 161.629V146.9H96.4449V142.419H98.8692V140.729C98.8692 135.954 101.844 133.677 106.399 133.677C107.611 133.677 108.529 133.86 109.411 134.081V138.892C108.933 138.746 108.346 138.635 107.611 138.635C106.068 138.635 105.407 139.48 105.407 140.729V142.419H109.301V146.9H105.407V161.629H98.8692ZM120.732 162.07C114.708 162.07 110.3 158.544 110.3 152.263V151.969C110.3 145.798 114.892 141.904 120.695 141.904C125.948 141.904 130.465 144.916 130.465 151.822V153.548H116.949C117.132 156.083 118.601 157.552 120.952 157.552C123.119 157.552 124.038 156.56 124.295 155.274H130.465C129.878 159.609 126.535 162.07 120.732 162.07ZM117.022 149.838H124.074C123.964 147.524 122.825 146.239 120.695 146.239C118.712 146.239 117.353 147.524 117.022 149.838ZM133.281 161.629V142.419H139.856V146.239C141.068 143.374 143.088 142.125 146.063 142.162V148.296C142.06 148.185 139.856 149.434 139.856 152.52V161.629H133.281ZM156.991 162.07C152.657 162.07 150.232 159.976 150.232 155.458V146.9H147.918V142.419H150.232V138.415H156.807V142.419H160.591V146.9H156.807V154.834C156.807 156.229 157.505 156.854 158.754 156.854C159.489 156.854 160.04 156.744 160.627 156.523V161.519C159.782 161.739 158.534 162.07 156.991 162.07ZM169.027 162.07C165.574 162.07 162.525 160.38 162.525 156.303C162.525 151.785 166.345 150.022 172.736 150.022H174.573V149.581C174.573 147.745 174.132 146.533 172.039 146.533C170.239 146.533 169.578 147.598 169.431 148.81H163.26C163.554 144.182 167.19 141.904 172.443 141.904C177.732 141.904 181.111 144.072 181.111 149.177V161.629H174.72V159.388C173.802 160.784 172.112 162.07 169.027 162.07ZM171.304 157.625C173.177 157.625 174.573 156.56 174.573 154.907V153.732H172.847C170.202 153.732 169.027 154.246 169.027 155.825C169.027 156.927 169.761 157.625 171.304 157.625ZM60.1115 195.07C54.0876 195.07 49.6799 191.544 49.6799 185.263V184.969C49.6799 178.798 54.2713 174.904 60.0748 174.904C65.3273 174.904 69.8452 177.916 69.8452 184.822V186.548H56.3282C56.5119 189.083 57.9811 190.552 60.3319 190.552C62.499 190.552 63.4173 189.56 63.6744 188.274H69.8452C69.2575 192.609 65.915 195.07 60.1115 195.07ZM56.4017 182.838H63.454C63.3438 180.524 62.2051 179.239 60.0748 179.239C58.0913 179.239 56.7322 180.524 56.4017 182.838ZM80.37 195.07C74.8971 195.07 71.7015 192.792 71.5546 188.532H77.6152C77.8356 189.927 78.46 190.699 80.3333 190.699C81.9494 190.699 82.684 190.074 82.684 189.119C82.684 188.201 81.7658 187.76 79.1212 187.393C73.9788 186.732 71.8117 185.226 71.8117 181.222C71.8117 176.961 75.595 174.904 80.0394 174.904C84.7777 174.904 88.0835 176.521 88.5243 181.112H82.5739C82.3167 179.826 81.6189 179.202 80.1129 179.202C78.6804 179.202 77.9458 179.826 77.9458 180.708C77.9458 181.626 78.8273 181.993 81.1781 182.287C86.5041 182.948 89.0752 184.344 89.0752 188.458C89.0752 193.013 85.696 195.07 80.37 195.07ZM91.7437 201.057V175.419H98.3185V178.284C99.4204 176.447 101.404 174.904 104.306 174.904C108.787 174.904 112.423 178.284 112.423 184.858V185.152C112.423 191.764 108.787 195.07 104.269 195.07C101.367 195.07 99.2735 193.711 98.3185 191.801V201.057H91.7437ZM101.955 190.038C104.416 190.038 105.738 188.311 105.738 185.152V184.858C105.738 181.479 104.269 179.863 101.955 179.863C99.5673 179.863 98.1348 181.589 98.1348 184.822V185.116C98.1348 188.385 99.5673 190.038 101.955 190.038ZM124.749 195.07C118.725 195.07 114.318 191.544 114.318 185.263V184.969C114.318 178.798 118.909 174.904 124.713 174.904C129.965 174.904 134.483 177.916 134.483 184.822V186.548H120.966C121.15 189.083 122.619 190.552 124.97 190.552C127.137 190.552 128.055 189.56 128.312 188.274H134.483C133.895 192.609 130.553 195.07 124.749 195.07ZM121.039 182.838H128.092C127.982 180.524 126.843 179.239 124.713 179.239C122.729 179.239 121.37 180.524 121.039 182.838ZM146.371 195.07C140.641 195.07 136.27 191.727 136.27 185.263V184.969C136.27 178.578 140.861 174.904 146.518 174.904C151.22 174.904 155.554 176.961 155.921 182.802H149.75C149.457 181.002 148.575 180.01 146.665 180.01C144.351 180.01 142.992 181.663 142.992 184.895V185.189C142.992 188.532 144.277 190.258 146.775 190.258C148.612 190.258 149.897 189.156 150.118 187.062H156.031C155.848 191.911 152.579 195.07 146.371 195.07ZM158.897 194.629V175.419H165.471V194.629H158.897ZM162.166 173.582C160.109 173.582 158.566 172.15 158.566 170.203C158.566 168.256 160.109 166.787 162.166 166.787C164.223 166.787 165.802 168.256 165.802 170.203C165.802 172.15 164.223 173.582 162.166 173.582ZM174.945 195.07C171.492 195.07 168.444 193.38 168.444 189.303C168.444 184.785 172.264 183.022 178.655 183.022H180.492V182.581C180.492 180.745 180.051 179.533 177.957 179.533C176.157 179.533 175.496 180.598 175.349 181.81H169.178C169.472 177.182 173.109 174.904 178.361 174.904C183.65 174.904 187.03 177.072 187.03 182.177V194.629H180.638V192.388C179.72 193.784 178.031 195.07 174.945 195.07ZM177.222 190.625C179.096 190.625 180.492 189.56 180.492 187.907V186.732H178.765C176.121 186.732 174.945 187.246 174.945 188.825C174.945 189.927 175.68 190.625 177.222 190.625ZM190.964 194.629V166.971H197.503V194.629H190.964Z" fill="url(#paint1_linear_692_11)"/>
<path d="M158.053 85.8754L162.324 78.9546C162.837 78.122 162.977 77.1323 162.712 76.2031C162.447 75.2739 161.8 74.4814 160.912 73.9998L153.522 69.9953V62.0153C153.522 61.0533 153.114 60.1307 152.389 59.4505C151.663 58.7702 150.679 58.3881 149.653 58.3881H141.145L136.878 51.4636C136.362 50.6327 135.519 50.0255 134.529 49.7733C134.039 49.6486 133.526 49.6165 133.022 49.6787C132.518 49.741 132.032 49.8964 131.593 50.1361L124.203 54.1406L116.813 50.1324C115.925 49.6515 114.869 49.5211 113.878 49.7701C112.887 50.019 112.042 50.6269 111.528 51.46L107.257 58.3881H98.7493C97.7232 58.3881 96.7391 58.7702 96.0136 59.4505C95.288 60.1307 94.8804 61.0533 94.8804 62.0153V69.9917L87.4907 73.9962C87.0497 74.234 86.6633 74.5511 86.3535 74.9293C86.0436 75.3076 85.8166 75.7395 85.6854 76.2002C85.5542 76.661 85.5213 77.1415 85.5888 77.6142C85.6563 78.0869 85.8227 78.5424 86.0785 78.9546L90.3498 85.8754L86.0785 92.7963C85.5678 93.6297 85.4292 94.6187 85.693 95.5475C85.9568 96.4764 86.6016 97.2698 87.4868 97.7547L94.8765 101.759V109.736C94.8765 110.698 95.2841 111.62 96.0097 112.3C96.7353 112.981 97.7193 113.363 98.7455 113.363H107.257L111.528 120.291C111.871 120.84 112.36 121.296 112.948 121.614C113.535 121.932 114.201 122.101 114.879 122.105C115.552 122.105 116.222 121.938 116.817 121.615L124.199 117.61L131.589 121.615C132.477 122.095 133.533 122.225 134.523 121.977C135.514 121.729 136.36 121.123 136.874 120.291L141.141 113.363H149.649C150.675 113.363 151.659 112.981 152.385 112.3C153.111 111.62 153.518 110.698 153.518 109.736V101.759L160.908 97.7547C161.348 97.5162 161.734 97.1988 162.043 96.8204C162.352 96.4421 162.579 96.0104 162.71 95.5499C162.841 95.0894 162.874 94.6092 162.807 94.1367C162.74 93.6642 162.575 93.2087 162.32 92.7963L158.053 85.8754ZM114.527 67.7029C116.067 67.7034 117.543 68.2772 118.631 69.2983C119.72 70.3193 120.331 71.7039 120.33 73.1474C120.33 74.5909 119.718 75.9751 118.629 76.9954C117.54 78.0158 116.063 78.5888 114.523 78.5883C112.983 78.5878 111.507 78.0139 110.419 76.9929C109.33 75.9718 108.719 74.5873 108.72 73.1438C108.72 71.7003 109.332 70.3161 110.421 69.2957C111.51 68.2754 112.987 67.7024 114.527 67.7029ZM115.688 102.525L109.497 98.1755L132.711 69.1574L138.901 73.5065L115.688 102.525ZM133.872 103.975C133.109 103.975 132.354 103.834 131.65 103.56C130.946 103.287 130.306 102.886 129.767 102.38C129.228 101.874 128.801 101.274 128.509 100.614C128.218 99.9535 128.068 99.2457 128.068 98.531C128.069 97.8162 128.219 97.1085 128.511 96.4483C128.803 95.788 129.231 95.1881 129.77 94.6829C130.309 94.1777 130.949 93.777 131.654 93.5037C132.358 93.2304 133.113 93.0898 133.876 93.0901C135.415 93.0906 136.892 93.6644 137.98 94.6855C139.068 95.7065 139.679 97.0911 139.679 98.5346C139.678 99.9781 139.066 101.362 137.977 102.383C136.888 103.403 135.411 103.976 133.872 103.975Z" fill="url(#paint2_linear_692_11)"/>
<defs>
<linearGradient id="paint0_linear_692_11" x1="124.5" y1="18" x2="124.5" y2="231" gradientUnits="userSpaceOnUse">
<stop stop-color="#D04D4D"/>
<stop offset="0.437066" stop-color="#A43F54"/>
<stop offset="1" stop-color="#6B2D5E"/>
</linearGradient>
<linearGradient id="paint1_linear_692_11" x1="124.196" y1="133.629" x2="124.196" y2="199.465" gradientUnits="userSpaceOnUse">
<stop stop-color="white"/>
<stop offset="1" stop-color="white" stop-opacity="0.69"/>
</linearGradient>
<linearGradient id="paint2_linear_692_11" x1="124.199" y1="49.6465" x2="124.199" y2="122.105" gradientUnits="userSpaceOnUse">
<stop stop-color="white"/>
<stop offset="1" stop-color="white" stop-opacity="0.69"/>
</linearGradient>
</defs>
</svg>
