<svg width="253" height="252" viewBox="0 0 253 252" fill="none" xmlns="http://www.w3.org/2000/svg">
<rect x="0.75" width="252" height="251" fill="url(#paint0_linear_710_30)"/>
<path d="M43.2811 121.475C37.3859 121.475 33.9437 119.022 33.7854 114.432H40.3137C40.5511 115.936 41.2237 116.767 43.2415 116.767C44.9824 116.767 45.7737 116.094 45.7737 115.065C45.7737 114.076 44.7846 113.601 41.9359 113.206C36.3967 112.493 34.0624 110.871 34.0624 106.559C34.0624 101.969 38.1376 99.7534 42.925 99.7534C48.0289 99.7534 51.5898 101.494 52.0646 106.44H45.655C45.3781 105.055 44.6263 104.383 43.0041 104.383C41.4611 104.383 40.6698 105.055 40.6698 106.005C40.6698 106.994 41.6193 107.39 44.1515 107.706C49.8885 108.418 52.6581 109.922 52.6581 114.353C52.6581 119.259 49.0181 121.475 43.2811 121.475ZM65.8544 121.475C59.3657 121.475 54.6178 117.677 54.6178 110.911V110.594C54.6178 103.947 59.5635 99.7534 65.8148 99.7534C71.4727 99.7534 76.3392 102.998 76.3392 110.436V112.296H61.7791C61.977 115.026 63.5596 116.608 66.0918 116.608C68.4261 116.608 69.4153 115.54 69.6922 114.155H76.3392C75.7062 118.824 72.1057 121.475 65.8544 121.475ZM61.8583 108.3H69.4548C69.3361 105.807 68.1096 104.422 65.8148 104.422C63.6783 104.422 62.2144 105.807 61.8583 108.3ZM79.3721 121V100.307H86.4543V103.473C87.5622 101.494 89.7383 99.7534 92.9431 99.7534C95.6731 99.7534 97.5722 100.94 98.5613 103.196C100.342 100.782 102.795 99.7534 105.406 99.7534C109.323 99.7534 112.172 102.286 112.172 107.469V121H105.09V108.656C105.09 106.559 104.061 105.53 102.439 105.53C100.54 105.53 99.2735 106.756 99.2735 109.012V121H92.2704V108.656C92.2704 106.559 91.2417 105.53 89.6196 105.53C87.7204 105.53 86.4543 106.756 86.4543 109.012V121H79.3721ZM116.392 121V100.307H123.474V121H116.392ZM119.913 98.329C117.698 98.329 116.036 96.786 116.036 94.689C116.036 92.5921 117.698 91.0094 119.913 91.0094C122.129 91.0094 123.83 92.5921 123.83 94.689C123.83 96.786 122.129 98.329 119.913 98.329ZM127.863 121V100.307H134.945V103.631C136.053 101.494 138.308 99.7534 141.75 99.7534C145.746 99.7534 148.516 102.246 148.516 107.548V121H141.434V108.972C141.434 106.638 140.524 105.49 138.466 105.49C136.369 105.49 134.945 106.756 134.945 109.407V121H127.863ZM162.8 116.213C165.451 116.213 166.875 114.234 166.875 110.792V110.476C166.875 106.994 165.49 105.055 162.8 105.055C160.149 105.055 158.685 106.915 158.685 110.396V110.713C158.685 114.274 160.07 116.213 162.8 116.213ZM162.76 121.475C156.39 121.475 151.445 117.597 151.445 110.911V110.594C151.445 103.947 156.39 99.7534 162.8 99.7534C169.17 99.7534 174.076 103.829 174.076 110.396V110.713C174.076 117.439 169.131 121.475 162.76 121.475ZM181.977 121L174.38 100.307H181.937L186.25 113.641L190.483 100.307H197.249L189.692 121H181.977ZM208.663 116.213C211.314 116.213 212.739 114.234 212.739 110.792V110.476C212.739 106.994 211.354 105.055 208.663 105.055C206.013 105.055 204.549 106.915 204.549 110.396V110.713C204.549 114.274 205.933 116.213 208.663 116.213ZM208.624 121.475C202.254 121.475 197.308 117.597 197.308 110.911V110.594C197.308 103.947 202.254 99.7534 208.663 99.7534C215.033 99.7534 219.94 103.829 219.94 110.396V110.713C219.94 117.439 214.994 121.475 208.624 121.475ZM44.1784 157.475C37.6897 157.475 32.9419 153.677 32.9419 146.911V146.594C32.9419 139.947 37.8875 135.753 44.1389 135.753C49.7967 135.753 54.6633 138.998 54.6633 146.436V148.296H40.1032C40.301 151.026 41.8836 152.608 44.4158 152.608C46.7502 152.608 47.7393 151.54 48.0163 150.155H54.6633C54.0302 154.824 50.4298 157.475 44.1784 157.475ZM40.1823 144.3H47.7789C47.6602 141.807 46.4337 140.422 44.1389 140.422C42.0023 140.422 40.5384 141.807 40.1823 144.3ZM54.8367 157L61.721 146.476L55.2719 136.307H63.4223L66.6271 141.767L69.7528 136.307H77.0328L70.5045 145.922L77.6659 157H69.5154L65.8358 150.828L62.0771 157H54.8367ZM88.2175 157.475C82.0453 157.475 77.337 153.874 77.337 146.911V146.594C77.337 139.71 82.2827 135.753 88.3757 135.753C93.4401 135.753 98.1088 137.969 98.5045 144.26H91.8575C91.541 142.321 90.5914 141.253 88.534 141.253C86.0414 141.253 84.5775 143.033 84.5775 146.515V146.832C84.5775 150.432 85.9622 152.292 88.6527 152.292C90.631 152.292 92.0157 151.105 92.2531 148.85H98.6232C98.4253 154.072 94.904 157.475 88.2175 157.475ZM111.64 157.475C105.152 157.475 100.404 153.677 100.404 146.911V146.594C100.404 139.947 105.35 135.753 111.601 135.753C117.259 135.753 122.125 138.998 122.125 146.436V148.296H107.565C107.763 151.026 109.346 152.608 111.878 152.608C114.212 152.608 115.201 151.54 115.478 150.155H122.125C121.492 154.824 117.892 157.475 111.64 157.475ZM107.644 144.3H115.241C115.122 141.807 113.896 140.422 111.601 140.422C109.464 140.422 108 141.807 107.644 144.3ZM125.356 157V127.207H132.399V157H125.356ZM146.917 157.475C140.428 157.475 135.68 153.677 135.68 146.911V146.594C135.68 139.947 140.626 135.753 146.877 135.753C152.535 135.753 157.402 138.998 157.402 146.436V148.296H142.842C143.04 151.026 144.622 152.608 147.154 152.608C149.489 152.608 150.478 151.54 150.755 150.155H157.402C156.769 154.824 153.168 157.475 146.917 157.475ZM142.921 144.3H150.517C150.399 141.807 149.172 140.422 146.877 140.422C144.741 140.422 143.277 141.807 142.921 144.3ZM160.435 157V136.307H167.517V139.631C168.625 137.494 170.88 135.753 174.322 135.753C178.318 135.753 181.088 138.246 181.088 143.548V157H174.006V144.972C174.006 142.638 173.096 141.49 171.038 141.49C168.941 141.49 167.517 142.756 167.517 145.407V157H160.435ZM193.354 157.475C188.685 157.475 186.074 155.22 186.074 150.353V141.134H183.581V136.307H186.074V131.995H193.156V136.307H197.232V141.134H193.156V149.68C193.156 151.184 193.908 151.857 195.253 151.857C196.045 151.857 196.638 151.738 197.271 151.5V156.881C196.361 157.119 195.016 157.475 193.354 157.475ZM210.631 157.475C204.142 157.475 199.395 153.677 199.395 146.911V146.594C199.395 139.947 204.34 135.753 210.592 135.753C216.249 135.753 221.116 138.998 221.116 146.436V148.296H206.556C206.754 151.026 208.336 152.608 210.869 152.608C213.203 152.608 214.192 151.54 214.469 150.155H221.116C220.483 154.824 216.883 157.475 210.631 157.475ZM206.635 144.3H214.232C214.113 141.807 212.886 140.422 210.592 140.422C208.455 140.422 206.991 141.807 206.635 144.3Z" fill="url(#paint1_linear_710_30)"/>
<defs>
<linearGradient id="paint0_linear_710_30" x1="1" y1="4.91958e-07" x2="253" y2="251" gradientUnits="userSpaceOnUse">
<stop stop-color="#2E2E33"/>
<stop offset="1" stop-color="#0A0A0B"/>
</linearGradient>
<linearGradient id="paint1_linear_710_30" x1="127.002" y1="91" x2="127.002" y2="161.916" gradientUnits="userSpaceOnUse">
<stop stop-color="white"/>
<stop offset="1" stop-color="white" stop-opacity="0.69"/>
</linearGradient>
</defs>
</svg>
