<svg width="250" height="250" viewBox="0 0 250 250" fill="none" xmlns="http://www.w3.org/2000/svg">
<rect x="18" y="18" width="213" height="213" rx="15.2143" fill="url(#paint0_linear_692_16)"/>
<path d="M54.0949 166.402C49.1021 166.402 46.1869 164.325 46.0528 160.438H51.5818C51.7828 161.711 52.3525 162.415 54.0614 162.415C55.5358 162.415 56.206 161.845 56.206 160.974C56.206 160.136 55.3683 159.734 52.9556 159.399C48.2644 158.796 46.2874 157.422 46.2874 153.769C46.2874 149.882 49.7388 148.006 53.7933 148.006C58.116 148.006 61.1317 149.48 61.5338 153.669H56.1054C55.8709 152.496 55.2342 151.926 53.8604 151.926C52.5535 151.926 51.8834 152.496 51.8834 153.3C51.8834 154.138 52.6876 154.473 54.8321 154.741C59.6909 155.344 62.0365 156.618 62.0365 160.371C62.0365 164.526 58.9537 166.402 54.0949 166.402ZM73.2127 166.402C67.7172 166.402 63.6962 163.185 63.6962 157.455V157.187C63.6962 151.558 67.8848 148.006 73.1791 148.006C77.9709 148.006 82.0924 150.754 82.0924 157.053V158.628H69.7613C69.9288 160.94 71.2692 162.281 73.4137 162.281C75.3907 162.281 76.2284 161.376 76.463 160.203H82.0924C81.5563 164.157 78.507 166.402 73.2127 166.402ZM69.8283 155.244H76.2619C76.1614 153.133 75.1226 151.96 73.1791 151.96C71.3697 151.96 70.1299 153.133 69.8283 155.244ZM84.6611 166V148.475H90.6591V151.156C91.5974 149.48 93.4404 148.006 96.1546 148.006C98.4667 148.006 100.075 149.011 100.913 150.921C102.421 148.877 104.498 148.006 106.71 148.006C110.027 148.006 112.44 150.15 112.44 154.54V166H106.442V155.545C106.442 153.769 105.57 152.898 104.197 152.898C102.588 152.898 101.516 153.937 101.516 155.847V166H95.5849V155.545C95.5849 153.769 94.7137 152.898 93.3398 152.898C91.7314 152.898 90.6591 153.937 90.6591 155.847V166H84.6611ZM116.014 166V148.475H122.012V166H116.014ZM118.996 146.8C117.12 146.8 115.712 145.493 115.712 143.717C115.712 141.941 117.12 140.6 118.996 140.6C120.873 140.6 122.314 141.941 122.314 143.717C122.314 145.493 120.873 146.8 118.996 146.8ZM125.729 166V148.475H131.727V151.29C132.665 149.48 134.575 148.006 137.49 148.006C140.875 148.006 143.22 150.117 143.22 154.607V166H137.222V155.813C137.222 153.836 136.452 152.865 134.709 152.865C132.933 152.865 131.727 153.937 131.727 156.182V166H125.729ZM155.318 161.945C157.563 161.945 158.769 160.27 158.769 157.355V157.087C158.769 154.138 157.596 152.496 155.318 152.496C153.073 152.496 151.833 154.071 151.833 157.02V157.288C151.833 160.304 153.006 161.945 155.318 161.945ZM155.284 166.402C149.889 166.402 145.701 163.118 145.701 157.455V157.187C145.701 151.558 149.889 148.006 155.318 148.006C160.713 148.006 164.868 151.457 164.868 157.02V157.288C164.868 162.984 160.679 166.402 155.284 166.402ZM171.559 166L165.125 148.475H171.525L175.178 159.767L178.763 148.475H184.493L178.093 166H171.559ZM194.16 161.945C196.405 161.945 197.612 160.27 197.612 157.355V157.087C197.612 154.138 196.439 152.496 194.16 152.496C191.915 152.496 190.675 154.071 190.675 157.02V157.288C190.675 160.304 191.848 161.945 194.16 161.945ZM194.127 166.402C188.732 166.402 184.543 163.118 184.543 157.455V157.187C184.543 151.558 188.732 148.006 194.16 148.006C199.555 148.006 203.71 151.457 203.71 157.02V157.288C203.71 162.984 199.522 166.402 194.127 166.402ZM54.8549 196.402C49.3595 196.402 45.3384 193.185 45.3384 187.455V187.187C45.3384 181.558 49.527 178.006 54.8214 178.006C59.6131 178.006 63.7347 180.754 63.7347 187.053V188.628H51.4035C51.571 190.94 52.9114 192.281 55.0559 192.281C57.033 192.281 57.8707 191.376 58.1052 190.203H63.7347C63.1985 194.157 60.1493 196.402 54.8549 196.402ZM51.4705 185.244H57.9042C57.8036 183.133 56.7649 181.96 54.8214 181.96C53.0119 181.96 51.7721 183.133 51.4705 185.244ZM63.8815 196L69.712 187.087L64.2501 178.475H71.1529L73.8671 183.099L76.5143 178.475H82.6799L77.151 186.618L83.216 196H76.3132L73.1969 190.773L70.0136 196H63.8815ZM92.1524 196.402C86.925 196.402 82.9375 193.353 82.9375 187.455V187.187C82.9375 181.357 87.1261 178.006 92.2864 178.006C96.5755 178.006 100.53 179.882 100.865 185.21H95.2352C94.9671 183.568 94.1629 182.664 92.4204 182.664C90.3094 182.664 89.0696 184.171 89.0696 187.12V187.388C89.0696 190.438 90.2424 192.012 92.521 192.012C94.1964 192.012 95.3692 191.007 95.5702 189.097H100.965C100.798 193.52 97.8153 196.402 92.1524 196.402ZM111.99 196.402C106.494 196.402 102.473 193.185 102.473 187.455V187.187C102.473 181.558 106.662 178.006 111.956 178.006C116.748 178.006 120.87 180.754 120.87 187.053V188.628H108.538C108.706 190.94 110.046 192.281 112.191 192.281C114.168 192.281 115.006 191.376 115.24 190.203H120.87C120.333 194.157 117.284 196.402 111.99 196.402ZM108.605 185.244H115.039C114.939 183.133 113.9 181.96 111.956 181.96C110.147 181.96 108.907 183.133 108.605 185.244ZM123.606 196V170.768H129.57V196H123.606ZM141.866 196.402C136.371 196.402 132.35 193.185 132.35 187.455V187.187C132.35 181.558 136.538 178.006 141.833 178.006C146.624 178.006 150.746 180.754 150.746 187.053V188.628H138.415C138.582 190.94 139.923 192.281 142.067 192.281C144.044 192.281 144.882 191.376 145.116 190.203H150.746C150.21 194.157 147.16 196.402 141.866 196.402ZM138.482 185.244H144.915C144.815 183.133 143.776 181.96 141.833 181.96C140.023 181.96 138.783 183.133 138.482 185.244ZM153.315 196V178.475H159.313V181.29C160.251 179.48 162.161 178.006 165.076 178.006C168.46 178.006 170.806 180.117 170.806 184.607V196H164.808V185.813C164.808 183.836 164.037 182.865 162.295 182.865C160.519 182.865 159.313 183.937 159.313 186.182V196H153.315ZM181.195 196.402C177.24 196.402 175.029 194.492 175.029 190.371V182.563H172.918V178.475H175.029V174.823H181.027V178.475H184.478V182.563H181.027V189.801C181.027 191.074 181.664 191.644 182.803 191.644C183.473 191.644 183.976 191.543 184.512 191.342V195.899C183.741 196.101 182.602 196.402 181.195 196.402ZM195.827 196.402C190.331 196.402 186.31 193.185 186.31 187.455V187.187C186.31 181.558 190.499 178.006 195.793 178.006C200.585 178.006 204.707 180.754 204.707 187.053V188.628H192.375C192.543 190.94 193.883 192.281 196.028 192.281C198.005 192.281 198.843 191.376 199.077 190.203H204.707C204.17 194.157 201.121 196.402 195.827 196.402ZM192.442 185.244H198.876C198.776 183.133 197.737 181.96 195.793 181.96C193.984 181.96 192.744 183.133 192.442 185.244Z" fill="url(#paint1_linear_692_16)"/>
<path fill-rule="evenodd" clip-rule="evenodd" d="M114.668 54.0598C119.487 47.3134 129.513 47.3134 134.332 54.0598L135.099 55.1338C135.947 56.3212 137.371 56.9569 138.821 56.7958L142.241 56.4158C149.937 55.5608 156.439 62.0634 155.584 69.7591L155.204 73.1786C155.043 74.6287 155.679 76.0526 156.866 76.9007L157.94 77.6679C164.687 82.4865 164.687 92.5132 157.94 97.3322L156.866 98.0995C155.679 98.9473 155.043 100.371 155.204 101.821L155.584 105.241C156.439 112.937 149.937 119.439 142.241 118.584L138.821 118.204C137.371 118.043 135.947 118.679 135.099 119.866L134.332 120.94C129.513 127.687 119.487 127.687 114.668 120.94L113.901 119.866C113.053 118.679 111.629 118.043 110.179 118.204L106.759 118.584C99.0634 119.439 92.5608 112.937 93.4158 105.241L93.7958 101.821C93.9569 100.371 93.3212 98.9473 92.1338 98.0995L91.0598 97.3322C84.3134 92.5132 84.3134 82.4869 91.0598 77.6679L92.1338 76.9007C93.3212 76.0526 93.9569 74.6287 93.7958 73.1785L93.4158 69.7591C92.5608 62.0634 99.0634 55.5608 106.759 56.4158L110.179 56.7958C111.629 56.9569 113.053 56.3212 113.901 55.1338L114.668 54.0598ZM139.431 76.5969C141.004 78.1698 141.004 80.72 139.431 82.2928L124.05 97.6738C122.074 99.6497 118.871 99.6497 116.895 97.6738L109.569 90.348C107.996 88.7752 107.996 86.2249 109.569 84.6522C111.142 83.0794 113.692 83.0794 115.265 84.6522L120.472 89.8594L133.735 76.5969C135.308 75.0241 137.858 75.0241 139.431 76.5969Z" fill="url(#paint2_linear_692_16)"/>
<defs>
<linearGradient id="paint0_linear_692_16" x1="124.5" y1="18" x2="124.5" y2="231" gradientUnits="userSpaceOnUse">
<stop stop-color="#377BA4"/>
<stop offset="1" stop-color="#1E6895"/>
</linearGradient>
<linearGradient id="paint1_linear_692_16" x1="125" y1="140" x2="125" y2="200.06" gradientUnits="userSpaceOnUse">
<stop stop-color="white"/>
<stop offset="1" stop-color="white" stop-opacity="0.69"/>
</linearGradient>
<linearGradient id="paint2_linear_692_16" x1="124.5" y1="49" x2="124.5" y2="126" gradientUnits="userSpaceOnUse">
<stop stop-color="white"/>
<stop offset="1" stop-color="white" stop-opacity="0.69"/>
</linearGradient>
</defs>
</svg>
