<svg width="333" height="98" viewBox="0 0 333 98" fill="none" xmlns="http://www.w3.org/2000/svg">
<path d="M0 49C0 21.9381 21.938 0 49 0H284C311.062 0 333 21.938 333 49V49C333 76.062 311.062 98 284 98H49C21.938 98 0 76.0619 0 49V49Z" fill="url(#paint0_linear_660_47)"/>
<path d="M59.3818 64.2499C58.1925 63.1222 56.8049 62.2556 55.2896 61.7152L52.1128 49.3342L89.9469 38.7413L94 54.5498L59.3818 64.2499ZM47.3373 30.7223L72.5609 23.6612L76.6166 39.4749L51.3956 46.5359L47.3373 30.7223ZM48.4692 61.4777C47.765 61.6761 47.1104 61.958 46.474 62.2686L35.3527 18.8973H31.1692C30.7493 19.8135 29.8704 20.4583 28.8323 20.4583H23.6108C22.1685 20.4583 21 19.234 21 17.7278C21 16.2217 22.1685 15 23.6108 15H28.8323C29.7087 15 30.4442 15.4803 30.9189 16.1668H38.952V16.3L39.072 16.2634L50.574 61.1175C49.8724 61.1827 49.1708 61.2845 48.4692 61.4777ZM49.1447 64.1142C54.0194 62.7489 59.0297 65.7717 60.3364 70.8698C61.6431 75.9626 58.7506 81.199 53.8733 82.5643C48.9987 83.9243 43.9884 80.9015 42.6817 75.8086C41.375 70.7158 44.2701 65.4794 49.1447 64.1142ZM47.7702 74.5635C48.3284 76.7457 50.4775 78.0405 52.5667 77.4532C54.6558 76.8658 55.8947 74.6235 55.3365 72.4412C54.7784 70.259 52.6292 68.9642 50.5401 69.5463C48.4484 70.1337 47.2095 72.3786 47.7702 74.5635ZM93.674 63.827L63.2001 72.3577C63.1454 71.6294 63.0437 70.8933 62.8559 70.1598C62.6707 69.4263 62.402 68.7371 62.1021 68.0741L92.4168 59.5904L93.674 63.827Z" fill="url(#paint1_linear_660_47)"/>
<path d="M111.772 44V15.2784H131.174V21.6655H120.047V27.7713H128.924V33.837H120.047V44H111.772ZM135.034 44V15.2784H146.282C153.794 15.2784 157.971 18.3314 157.971 24.397V24.5577C157.971 28.6551 155.802 30.9447 152.789 32.1097L159.658 44H150.982L145.157 33.7165H143.229V44H135.034ZM143.229 28.3739H145.88C148.652 28.3739 150.018 27.2089 150.018 24.8791V24.7184C150.018 22.3885 148.572 21.4646 145.92 21.4646H143.229V28.3739ZM163.043 44V15.2784H182.887V21.6253H171.238V26.5662H180.517V32.431H171.238V37.6531H183.53V44H163.043ZM193.143 44V21.6253H185.712V15.2784H208.849V21.6253H201.418V44H193.143ZM212.471 44V15.2784H232.315V21.6253H220.666V26.5662H229.945V32.431H220.666V37.6531H232.958V44H212.471ZM125.309 80.482C115.548 80.482 110.245 74.4164 110.245 65.82V65.4986C110.245 56.7416 116.672 50.8366 125.309 50.8366C132.098 50.8366 138.123 53.9297 138.686 61.4013H130.531C130.129 58.7099 128.402 57.304 125.349 57.304C121.292 57.304 118.842 60.4372 118.842 65.6191V65.9405C118.842 70.6002 120.569 74.2155 125.55 74.2155C129.567 74.2155 131.093 72.1669 131.254 69.8772H125.871V64.1329H139.369V67.6678C139.369 74.9788 134.588 80.482 125.309 80.482ZM143.39 80V51.2784H154.638C162.149 51.2784 166.327 54.3314 166.327 60.397V60.5577C166.327 64.6551 164.158 66.9447 161.145 68.1097L168.014 80H159.337L153.513 69.7165H151.585V80H143.39ZM151.585 64.3739H154.236C157.008 64.3739 158.373 63.2089 158.373 60.8791V60.7184C158.373 58.3885 156.927 57.4646 154.276 57.4646H151.585V64.3739ZM169.15 80L178.348 51.2784H188.994L198.112 80H189.395L187.869 74.6574H178.348L176.822 80H169.15ZM180.477 49.511L182.526 43.6462H190.038L185.9 49.511H180.477ZM183.129 57.9467L179.955 68.9934H186.262L183.129 57.9467ZM204.284 80V57.6253H196.852V51.2784H219.99V57.6253H212.559V80H204.284ZM223.773 80V51.2784H232.088V80H223.773ZM248.259 80.482C240.225 80.482 236.128 77.1078 235.887 70.8814H243.72C243.921 72.9301 244.845 74.6172 248.259 74.6172C250.629 74.6172 251.955 73.4523 251.955 71.7651C251.955 69.9977 250.87 69.5156 247.415 68.9934C239.301 68.0293 236.57 65.6191 236.57 59.8347C236.57 54.6527 240.828 50.8768 247.697 50.8768C254.606 50.8768 258.502 53.769 259.025 59.8347H251.392C251.111 57.786 249.946 56.7416 247.697 56.7416C245.487 56.7416 244.363 57.7458 244.363 59.1919C244.363 60.7987 245.246 61.5218 248.821 62.0038C256.092 62.8072 259.828 64.6952 259.828 70.9216C259.828 76.1838 255.65 80.482 248.259 80.482Z" fill="url(#paint2_linear_660_47)"/>
<defs>
<linearGradient id="paint0_linear_660_47" x1="21.7456" y1="49" x2="314.521" y2="54.6372" gradientUnits="userSpaceOnUse">
<stop stop-color="#EA8C00"/>
<stop offset="1" stop-color="#C19700"/>
</linearGradient>
<linearGradient id="paint1_linear_660_47" x1="57.5" y1="15" x2="57.5" y2="82.89" gradientUnits="userSpaceOnUse">
<stop stop-color="white"/>
<stop offset="1" stop-color="white" stop-opacity="0.69"/>
</linearGradient>
<linearGradient id="paint2_linear_660_47" x1="208.5" y1="13" x2="208.5" y2="85" gradientUnits="userSpaceOnUse">
<stop stop-color="white"/>
<stop offset="1" stop-color="white" stop-opacity="0.69"/>
</linearGradient>
</defs>
</svg>
