<svg width="350" height="141" viewBox="0 0 350 141" fill="none" xmlns="http://www.w3.org/2000/svg">
<path d="M0 0H350V98H0C0 59.7286 0 38.2714 0 0Z" fill="url(#paint0_linear_660_47)"/>
<path d="M63.517 64.2499C62.267 63.1222 60.8086 62.2556 59.2159 61.7152L55.877 49.3342L95.6425 38.7413L99.9025 54.5498L63.517 64.2499ZM50.8576 30.7223L77.3689 23.6612L81.6316 39.4749L55.1231 46.5359L50.8576 30.7223ZM52.0473 61.4777C51.3072 61.6761 50.6191 61.958 49.9502 62.2686L38.2612 18.8973H33.8642C33.4228 19.8135 32.499 20.4583 31.408 20.4583H25.9198C24.4039 20.4583 23.1758 19.234 23.1758 17.7278C23.1758 16.2217 24.4039 15 25.9198 15H31.408C32.329 15 33.1021 15.4803 33.601 16.1668H42.0443V16.3L42.1704 16.2634L54.2596 61.1175C53.5222 61.1827 52.7847 61.2845 52.0473 61.4777ZM52.7573 64.1142C57.8809 62.7489 63.1469 65.7717 64.5203 70.8698C65.8937 75.9626 62.8536 81.199 57.7273 82.5643C52.6038 83.9243 47.3378 80.9015 45.9644 75.8086C44.591 70.7158 47.6338 65.4794 52.7573 64.1142ZM51.3127 74.5635C51.8993 76.7457 54.1582 78.0405 56.3539 77.4532C58.5497 76.8658 59.8519 74.6235 59.2652 72.4412C58.6786 70.259 56.4197 68.9642 54.2239 69.5463C52.0254 70.1337 50.7233 72.3786 51.3127 74.5635ZM99.5598 63.827L67.5303 72.3577C67.4727 71.6294 67.3658 70.8933 67.1684 70.1598C66.9738 69.4263 66.6914 68.7371 66.3762 68.0741L98.2385 59.5904L99.5598 63.827Z" fill="url(#paint1_linear_660_47)"/>
<path d="M112.772 44V15.2784H132.174V21.6655H121.047V27.7713H129.924V33.837H121.047V44H112.772ZM136.034 44V15.2784H147.282C154.794 15.2784 158.971 18.3314 158.971 24.397V24.5577C158.971 28.6551 156.802 30.9447 153.789 32.1097L160.658 44H151.982L146.157 33.7165H144.229V44H136.034ZM144.229 28.3739H146.88C149.652 28.3739 151.018 27.2089 151.018 24.8791V24.7184C151.018 22.3885 149.572 21.4646 146.92 21.4646H144.229V28.3739ZM164.043 44V15.2784H183.887V21.6253H172.238V26.5662H181.517V32.431H172.238V37.6531H184.53V44H164.043ZM194.143 44V21.6253H186.712V15.2784H209.849V21.6253H202.418V44H194.143ZM213.471 44V15.2784H233.315V21.6253H221.666V26.5662H230.945V32.431H221.666V37.6531H233.958V44H213.471ZM126.309 80.482C116.548 80.482 111.245 74.4164 111.245 65.82V65.4986C111.245 56.7416 117.672 50.8366 126.309 50.8366C133.098 50.8366 139.123 53.9297 139.686 61.4013H131.531C131.129 58.7099 129.402 57.304 126.349 57.304C122.292 57.304 119.842 60.4372 119.842 65.6191V65.9405C119.842 70.6002 121.569 74.2155 126.55 74.2155C130.567 74.2155 132.093 72.1669 132.254 69.8772H126.871V64.1329H140.369V67.6678C140.369 74.9788 135.588 80.482 126.309 80.482ZM144.39 80V51.2784H155.638C163.149 51.2784 167.327 54.3314 167.327 60.397V60.5577C167.327 64.6551 165.158 66.9447 162.145 68.1097L169.014 80H160.337L154.513 69.7165H152.585V80H144.39ZM152.585 64.3739H155.236C158.008 64.3739 159.373 63.2089 159.373 60.8791V60.7184C159.373 58.3885 157.927 57.4646 155.276 57.4646H152.585V64.3739ZM170.15 80L179.348 51.2784H189.994L199.112 80H190.395L188.869 74.6574H179.348L177.822 80H170.15ZM181.477 49.511L183.526 43.6462H191.038L186.9 49.511H181.477ZM184.129 57.9467L180.955 68.9934H187.262L184.129 57.9467ZM205.284 80V57.6253H197.852V51.2784H220.99V57.6253H213.559V80H205.284ZM224.773 80V51.2784H233.088V80H224.773ZM249.259 80.482C241.225 80.482 237.128 77.1078 236.887 70.8814H244.72C244.921 72.9301 245.845 74.6172 249.259 74.6172C251.629 74.6172 252.955 73.4523 252.955 71.7651C252.955 69.9977 251.87 69.5156 248.415 68.9934C240.301 68.0293 237.57 65.6191 237.57 59.8347C237.57 54.6527 241.828 50.8768 248.697 50.8768C255.606 50.8768 259.502 53.769 260.025 59.8347H252.392C252.111 57.786 250.946 56.7416 248.697 56.7416C246.487 56.7416 245.363 57.7458 245.363 59.1919C245.363 60.7987 246.246 61.5218 249.821 62.0038C257.092 62.8072 260.828 64.6952 260.828 70.9216C260.828 76.1838 256.65 80.482 249.259 80.482Z" fill="url(#paint2_linear_660_47)"/>
<path d="M300 98H350L300 129V98Z" fill="#D9D9D9"/>
<defs>
<linearGradient id="paint0_linear_660_47" x1="22.8558" y1="49" x2="330.566" y2="55.2272" gradientUnits="userSpaceOnUse">
<stop stop-color="#EA8C00"/>
<stop offset="1" stop-color="#AD6903"/>
</linearGradient>
<linearGradient id="paint1_linear_660_47" x1="61.5391" y1="15" x2="61.5391" y2="82.89" gradientUnits="userSpaceOnUse">
<stop stop-color="white"/>
<stop offset="1" stop-color="white" stop-opacity="0.69"/>
</linearGradient>
<linearGradient id="paint2_linear_660_47" x1="209.5" y1="13" x2="209.5" y2="85" gradientUnits="userSpaceOnUse">
<stop stop-color="white"/>
<stop offset="1" stop-color="white" stop-opacity="0.69"/>
</linearGradient>
</defs>
</svg>
