<svg width="61" height="60" viewBox="0 0 61 60" fill="none" xmlns="http://www.w3.org/2000/svg">
<path d="M3.63388 53.3732C3.61399 53.1727 3.52865 53.0169 3.37784 52.9059C3.22704 52.7949 3.02237 52.7393 2.76385 52.7393C2.58819 52.7393 2.43987 52.7642 2.31889 52.8139C2.19792 52.862 2.10511 52.9291 2.04048 53.0153C1.97751 53.1014 1.94602 53.1992 1.94602 53.3086C1.94271 53.3997 1.96177 53.4793 2.0032 53.5472C2.04628 53.6152 2.10511 53.674 2.17969 53.7237C2.25426 53.7718 2.34044 53.814 2.43821 53.8505C2.53598 53.8853 2.64039 53.9151 2.75142 53.94L3.20881 54.0494C3.43087 54.0991 3.63471 54.1654 3.82031 54.2482C4.00592 54.3311 4.16667 54.433 4.30256 54.554C4.43845 54.675 4.54368 54.8175 4.61825 54.9815C4.69448 55.1456 4.73343 55.3337 4.73509 55.5458C4.73343 55.8574 4.65388 56.1275 4.49645 56.3562C4.34067 56.5832 4.11529 56.7597 3.82031 56.8857C3.52699 57.0099 3.17318 57.0721 2.75888 57.0721C2.34789 57.0721 1.98994 57.0091 1.68501 56.8832C1.38175 56.7572 1.14477 56.5708 0.974077 56.3239C0.805043 56.0753 0.716383 55.7679 0.708097 55.4016H1.74964C1.76125 55.5723 1.81013 55.7148 1.89631 55.8292C1.98414 55.9419 2.10097 56.0272 2.2468 56.0852C2.39429 56.1416 2.56084 56.1697 2.74645 56.1697C2.92874 56.1697 3.087 56.1432 3.22124 56.0902C3.35713 56.0372 3.46236 55.9634 3.53693 55.869C3.61151 55.7745 3.64879 55.666 3.64879 55.5433C3.64879 55.429 3.61482 55.3329 3.54688 55.255C3.48059 55.1771 3.38281 55.1108 3.25355 55.0561C3.12595 55.0014 2.96934 54.9517 2.78374 54.907L2.2294 54.7678C1.80019 54.6634 1.46129 54.5001 1.21271 54.2781C0.964134 54.056 0.840672 53.7569 0.84233 53.3807C0.840672 53.0724 0.922704 52.8031 1.08842 52.5728C1.2558 52.3424 1.48532 52.1626 1.77699 52.0334C2.06866 51.9041 2.40009 51.8395 2.77131 51.8395C3.14915 51.8395 3.47893 51.9041 3.76065 52.0334C4.04403 52.1626 4.26444 52.3424 4.42188 52.5728C4.57931 52.8031 4.66051 53.07 4.66548 53.3732H3.63388ZM5.43919 57V53.1818H6.49814V57H5.43919ZM5.97115 52.6896C5.81371 52.6896 5.67865 52.6374 5.56596 52.533C5.45493 52.427 5.39941 52.3002 5.39941 52.1527C5.39941 52.0069 5.45493 51.8817 5.56596 51.7773C5.67865 51.6713 5.81371 51.6183 5.97115 51.6183C6.12858 51.6183 6.26281 51.6713 6.37385 51.7773C6.48654 51.8817 6.54288 52.0069 6.54288 52.1527C6.54288 52.3002 6.48654 52.427 6.37385 52.533C6.26281 52.6374 6.12858 52.6896 5.97115 52.6896ZM9.37731 53.1818V53.9773H7.07795V53.1818H9.37731ZM7.59996 52.267H8.65891V55.8267C8.65891 55.9245 8.67383 56.0007 8.70366 56.0554C8.73349 56.1084 8.77492 56.1457 8.82795 56.1673C8.88264 56.1888 8.94561 56.1996 9.01687 56.1996C9.06658 56.1996 9.1163 56.1954 9.16602 56.1871C9.21573 56.1772 9.25385 56.1697 9.28036 56.1648L9.44691 56.9528C9.39388 56.9693 9.31931 56.9884 9.22319 57.0099C9.12707 57.0331 9.01024 57.0472 8.87269 57.0522C8.61748 57.0621 8.39376 57.0282 8.20153 56.9503C8.01095 56.8724 7.86263 56.7514 7.75657 56.5874C7.65051 56.4233 7.59831 56.2161 7.59996 55.9659V52.267ZM11.7662 57.0746C11.3734 57.0746 11.0353 56.995 10.752 56.8359C10.4702 56.6752 10.2531 56.4482 10.1007 56.1548C9.94821 55.8598 9.87198 55.511 9.87198 55.1083C9.87198 54.7156 9.94821 54.3709 10.1007 54.0742C10.2531 53.7776 10.4677 53.5464 10.7445 53.3807C11.0229 53.215 11.3494 53.1321 11.7239 53.1321C11.9758 53.1321 12.2103 53.1727 12.4274 53.2539C12.6461 53.3335 12.8367 53.4536 12.9991 53.6143C13.1632 53.7751 13.2908 53.9773 13.3819 54.2209C13.4731 54.4628 13.5186 54.7462 13.5186 55.071V55.3619H10.2946V54.7056H12.5218C12.5218 54.5531 12.4887 54.4181 12.4224 54.3004C12.3561 54.1828 12.2641 54.0908 12.1465 54.0245C12.0305 53.9566 11.8954 53.9226 11.7413 53.9226C11.5806 53.9226 11.438 53.9599 11.3137 54.0344C11.1911 54.1074 11.095 54.206 11.0254 54.3303C10.9558 54.4529 10.9202 54.5896 10.9185 54.7404V55.3643C10.9185 55.5533 10.9533 55.7165 11.0229 55.854C11.0942 55.9916 11.1944 56.0977 11.3237 56.1722C11.4529 56.2468 11.6062 56.2841 11.7836 56.2841C11.9012 56.2841 12.0089 56.2675 12.1067 56.2344C12.2045 56.2012 12.2882 56.1515 12.3578 56.0852C12.4274 56.0189 12.4804 55.9377 12.5169 55.8416L13.4963 55.9062C13.4466 56.1416 13.3446 56.3471 13.1905 56.5227C13.0381 56.6967 12.8408 56.8326 12.5989 56.9304C12.3586 57.0265 12.081 57.0746 11.7662 57.0746ZM39.7059 54.2706L38.7364 54.3303C38.7198 54.2474 38.6842 54.1728 38.6295 54.1065C38.5748 54.0386 38.5028 53.9847 38.4133 53.945C38.3254 53.9035 38.2202 53.8828 38.0976 53.8828C37.9335 53.8828 37.7951 53.9176 37.6824 53.9872C37.5698 54.0552 37.5134 54.1463 37.5134 54.2607C37.5134 54.3518 37.5499 54.4289 37.6228 54.4918C37.6957 54.5548 37.8208 54.6054 37.9981 54.6435L38.6892 54.7827C39.0604 54.8589 39.3372 54.9815 39.5194 55.1506C39.7017 55.3196 39.7929 55.5417 39.7929 55.8168C39.7929 56.067 39.7191 56.2866 39.5716 56.4755C39.4258 56.6644 39.2253 56.8119 38.9701 56.918C38.7165 57.0224 38.424 57.0746 38.0926 57.0746C37.5872 57.0746 37.1845 56.9693 36.8845 56.7589C36.5862 56.5468 36.4114 56.2584 36.36 55.8938L37.4015 55.8391C37.433 55.9933 37.5093 56.1109 37.6302 56.1921C37.7512 56.2717 37.9062 56.3114 38.0951 56.3114C38.2807 56.3114 38.4298 56.2758 38.5425 56.2045C38.6569 56.1316 38.7149 56.038 38.7165 55.9237C38.7149 55.8275 38.6743 55.7488 38.5947 55.6875C38.5152 55.6245 38.3925 55.5765 38.2268 55.5433L37.5656 55.4116C37.1927 55.337 36.9152 55.2077 36.7329 55.0238C36.5522 54.8398 36.4619 54.6054 36.4619 54.3203C36.4619 54.075 36.5282 53.8638 36.6608 53.6864C36.795 53.5091 36.9831 53.3724 37.2251 53.2763C37.4687 53.1802 37.7537 53.1321 38.0802 53.1321C38.5624 53.1321 38.9419 53.234 39.2187 53.4379C39.4971 53.6417 39.6595 53.9193 39.7059 54.2706ZM42.1998 57.0746C41.807 57.0746 41.4689 56.995 41.1855 56.8359C40.9038 56.6752 40.6867 56.4482 40.5343 56.1548C40.3818 55.8598 40.3056 55.511 40.3056 55.1083C40.3056 54.7156 40.3818 54.3709 40.5343 54.0742C40.6867 53.7776 40.9013 53.5464 41.1781 53.3807C41.4565 53.215 41.783 53.1321 42.1575 53.1321C42.4094 53.1321 42.6439 53.1727 42.861 53.2539C43.0797 53.3335 43.2703 53.4536 43.4327 53.6143C43.5968 53.7751 43.7244 53.9773 43.8155 54.2209C43.9067 54.4628 43.9522 54.7462 43.9522 55.071V55.3619H40.7282V54.7056H42.9554C42.9554 54.5531 42.9223 54.4181 42.856 54.3004C42.7897 54.1828 42.6977 54.0908 42.5801 54.0245C42.4641 53.9566 42.329 53.9226 42.1749 53.9226C42.0141 53.9226 41.8716 53.9599 41.7473 54.0344C41.6247 54.1074 41.5286 54.206 41.459 54.3303C41.3894 54.4529 41.3538 54.5896 41.3521 54.7404V55.3643C41.3521 55.5533 41.3869 55.7165 41.4565 55.854C41.5278 55.9916 41.628 56.0977 41.7573 56.1722C41.8865 56.2468 42.0398 56.2841 42.2172 56.2841C42.3348 56.2841 42.4425 56.2675 42.5403 56.2344C42.6381 56.2012 42.7218 56.1515 42.7914 56.0852C42.861 56.0189 42.914 55.9377 42.9505 55.8416L43.9299 55.9062C43.8801 56.1416 43.7782 56.3471 43.6241 56.5227C43.4717 56.6967 43.2744 56.8326 43.0325 56.9304C42.7922 57.0265 42.5146 57.0746 42.1998 57.0746ZM46.3635 58.5114C46.0204 58.5114 45.7263 58.4641 45.481 58.3697C45.2374 58.2769 45.0435 58.1501 44.8993 57.9893C44.7551 57.8286 44.6615 57.648 44.6184 57.4474L45.5978 57.3157C45.6277 57.3919 45.6749 57.4632 45.7395 57.5295C45.8042 57.5958 45.8895 57.6488 45.9956 57.6886C46.1033 57.73 46.2342 57.7507 46.3883 57.7507C46.6187 57.7507 46.8084 57.6944 46.9576 57.5817C47.1084 57.4706 47.1838 57.2842 47.1838 57.0224V56.3239H47.139C47.0926 56.4299 47.023 56.5302 46.9302 56.6246C46.8374 56.7191 46.7181 56.7962 46.5723 56.8558C46.4264 56.9155 46.2524 56.9453 46.0502 56.9453C45.7636 56.9453 45.5025 56.879 45.2672 56.7464C45.0336 56.6122 44.8471 56.4076 44.7079 56.1325C44.5704 55.8557 44.5016 55.506 44.5016 55.0835C44.5016 54.6509 44.572 54.2897 44.7129 53.9996C44.8538 53.7096 45.041 53.4925 45.2747 53.3484C45.51 53.2042 45.7677 53.1321 46.0478 53.1321C46.2615 53.1321 46.4405 53.1686 46.5847 53.2415C46.7289 53.3127 46.8449 53.4022 46.9327 53.5099C47.0222 53.616 47.091 53.7204 47.139 53.8232H47.1788V53.1818H48.2303V57.0373C48.2303 57.3621 48.1507 57.6339 47.9917 57.8526C47.8326 58.0714 47.6122 58.2354 47.3304 58.3448C47.0504 58.4558 46.728 58.5114 46.3635 58.5114ZM46.3858 56.1499C46.5565 56.1499 46.7007 56.1076 46.8184 56.0231C46.9377 55.9369 47.0288 55.8143 47.0918 55.6552C47.1564 55.4944 47.1887 55.3022 47.1887 55.0785C47.1887 54.8548 47.1573 54.6609 47.0943 54.4968C47.0313 54.3311 46.9402 54.2027 46.8208 54.1115C46.7015 54.0204 46.5565 53.9748 46.3858 53.9748C46.2118 53.9748 46.0652 54.022 45.9458 54.1165C45.8265 54.2093 45.7362 54.3385 45.6749 54.5043C45.6136 54.67 45.5829 54.8614 45.5829 55.0785C45.5829 55.2989 45.6136 55.4895 45.6749 55.6502C45.7379 55.8093 45.8282 55.9328 45.9458 56.0206C46.0652 56.1068 46.2118 56.1499 46.3858 56.1499ZM51.5215 55.3743V53.1818H52.5804V57H51.5637V56.3065H51.524C51.4378 56.5302 51.2944 56.71 51.0939 56.8459C50.8951 56.9818 50.6523 57.0497 50.3656 57.0497C50.1104 57.0497 49.8858 56.9917 49.6919 56.8757C49.498 56.7597 49.3464 56.5948 49.237 56.381C49.1293 56.1673 49.0746 55.9112 49.073 55.6129V53.1818H50.1319V55.424C50.1336 55.6494 50.1941 55.8275 50.3134 55.9585C50.4327 56.0894 50.5926 56.1548 50.7931 56.1548C50.9208 56.1548 51.0401 56.1258 51.1511 56.0678C51.2621 56.0082 51.3516 55.9203 51.4196 55.8043C51.4892 55.6883 51.5231 55.545 51.5215 55.3743ZM53.4275 57V53.1818H54.4541V53.848H54.4939C54.5635 53.611 54.6803 53.4321 54.8444 53.3111C55.0084 53.1884 55.1974 53.1271 55.4111 53.1271C55.4642 53.1271 55.5213 53.1304 55.5827 53.1371C55.644 53.1437 55.6978 53.1528 55.7442 53.1644V54.104C55.6945 54.0891 55.6257 54.0759 55.5379 54.0643C55.4501 54.0527 55.3697 54.0469 55.2968 54.0469C55.141 54.0469 55.0018 54.0808 54.8792 54.1488C54.7582 54.2151 54.6621 54.3079 54.5908 54.4272C54.5212 54.5465 54.4864 54.6841 54.4864 54.8398V57H53.4275ZM57.8391 57.0746C57.453 57.0746 57.1191 56.9925 56.8374 56.8285C56.5573 56.6628 56.341 56.4324 56.1886 56.1374C56.0361 55.8408 55.9599 55.4969 55.9599 55.1058C55.9599 54.7114 56.0361 54.3667 56.1886 54.0717C56.341 53.7751 56.5573 53.5447 56.8374 53.3807C57.1191 53.215 57.453 53.1321 57.8391 53.1321C58.2253 53.1321 58.5584 53.215 58.8384 53.3807C59.1201 53.5447 59.3372 53.7751 59.4897 54.0717C59.6422 54.3667 59.7184 54.7114 59.7184 55.1058C59.7184 55.4969 59.6422 55.8408 59.4897 56.1374C59.3372 56.4324 59.1201 56.6628 58.8384 56.8285C58.5584 56.9925 58.2253 57.0746 57.8391 57.0746ZM57.8441 56.2543C58.0198 56.2543 58.1664 56.2045 58.2841 56.1051C58.4018 56.004 58.4904 55.8665 58.5501 55.6925C58.6114 55.5185 58.642 55.3204 58.642 55.0984C58.642 54.8763 58.6114 54.6783 58.5501 54.5043C58.4904 54.3303 58.4018 54.1927 58.2841 54.0916C58.1664 53.9905 58.0198 53.94 57.8441 53.94C57.6668 53.94 57.5176 53.9905 57.3967 54.0916C57.2773 54.1927 57.187 54.3303 57.1257 54.5043C57.0661 54.6783 57.0362 54.8763 57.0362 55.0984C57.0362 55.3204 57.0661 55.5185 57.1257 55.6925C57.187 55.8665 57.2773 56.004 57.3967 56.1051C57.5176 56.2045 57.6668 56.2543 57.8441 56.2543Z" fill="#7D7D7D"/>
<path d="M18.0347 51.9091V57H16.9584V52.9308H16.9285L15.7627 53.6616V52.707L17.023 51.9091H18.0347ZM21.2408 57.1119C20.8132 57.1102 20.4453 57.005 20.1371 56.7962C19.8305 56.5874 19.5943 56.2849 19.4286 55.8888C19.2646 55.4928 19.1834 55.0163 19.185 54.4595C19.185 53.9044 19.267 53.4312 19.4311 53.0401C19.5968 52.649 19.833 52.3516 20.1396 52.1477C20.4478 51.9422 20.8149 51.8395 21.2408 51.8395C21.6667 51.8395 22.0329 51.9422 22.3395 52.1477C22.6477 52.3532 22.8847 52.6515 23.0504 53.0426C23.2161 53.4321 23.2982 53.9044 23.2965 54.4595C23.2965 55.018 23.2137 55.4953 23.0479 55.8913C22.8839 56.2874 22.6486 56.5898 22.342 56.7987C22.0354 57.0075 21.6683 57.1119 21.2408 57.1119ZM21.2408 56.2195C21.5324 56.2195 21.7653 56.0728 21.9393 55.7795C22.1133 55.4862 22.1995 55.0462 22.1978 54.4595C22.1978 54.0734 22.158 53.7519 22.0785 53.495C22.0006 53.2382 21.8896 53.0451 21.7454 52.9158C21.6029 52.7866 21.4347 52.7219 21.2408 52.7219C20.9508 52.7219 20.7188 52.867 20.5447 53.157C20.3707 53.447 20.2829 53.8812 20.2812 54.4595C20.2812 54.8506 20.3202 55.1771 20.3981 55.4389C20.4776 55.6991 20.5895 55.8946 20.7337 56.0256C20.8778 56.1548 21.0469 56.2195 21.2408 56.2195ZM26.0601 57.1119C25.6325 57.1102 25.2646 57.005 24.9564 56.7962C24.6498 56.5874 24.4137 56.2849 24.248 55.8888C24.0839 55.4928 24.0027 55.0163 24.0044 54.4595C24.0044 53.9044 24.0864 53.4312 24.2504 53.0401C24.4162 52.649 24.6523 52.3516 24.9589 52.1477C25.2671 51.9422 25.6342 51.8395 26.0601 51.8395C26.486 51.8395 26.8522 51.9422 27.1588 52.1477C27.4671 52.3532 27.704 52.6515 27.8698 53.0426C28.0355 53.4321 28.1175 53.9044 28.1159 54.4595C28.1159 55.018 28.033 55.4953 27.8673 55.8913C27.7032 56.2874 27.4679 56.5898 27.1613 56.7987C26.8547 57.0075 26.4877 57.1119 26.0601 57.1119ZM26.0601 56.2195C26.3518 56.2195 26.5846 56.0728 26.7586 55.7795C26.9326 55.4862 27.0188 55.0462 27.0171 54.4595C27.0171 54.0734 26.9774 53.7519 26.8978 53.495C26.8199 53.2382 26.7089 53.0451 26.5647 52.9158C26.4222 52.7866 26.254 52.7219 26.0601 52.7219C25.7701 52.7219 25.5381 52.867 25.3641 53.157C25.1901 53.447 25.1022 53.8812 25.1006 54.4595C25.1006 54.8506 25.1395 55.1771 25.2174 55.4389C25.297 55.6991 25.4088 55.8946 25.553 56.0256C25.6972 56.1548 25.8662 56.2195 26.0601 56.2195ZM31.6699 56.0455V55.777C31.6699 55.5732 31.713 55.3859 31.7992 55.2152C31.887 55.0429 32.0138 54.9053 32.1795 54.8026C32.3469 54.6982 32.5507 54.646 32.791 54.646C33.0346 54.646 33.2393 54.6973 33.405 54.8001C33.5724 54.9028 33.6983 55.0404 33.7828 55.2127C33.869 55.3834 33.9121 55.5715 33.9121 55.777V56.0455C33.9121 56.2493 33.869 56.4374 33.7828 56.6097C33.6967 56.7804 33.5699 56.9171 33.4025 57.0199C33.2351 57.1243 33.0313 57.1765 32.791 57.1765C32.5474 57.1765 32.3427 57.1243 32.177 57.0199C32.0113 56.9171 31.8854 56.7804 31.7992 56.6097C31.713 56.4374 31.6699 56.2493 31.6699 56.0455ZM32.3933 55.777V56.0455C32.3933 56.1631 32.4215 56.2741 32.4778 56.3786C32.5358 56.483 32.6402 56.5352 32.791 56.5352C32.9418 56.5352 33.0446 56.4838 33.0993 56.381C33.1556 56.2783 33.1838 56.1664 33.1838 56.0455V55.777C33.1838 55.656 33.1573 55.5433 33.1042 55.4389C33.0512 55.3345 32.9468 55.2823 32.791 55.2823C32.6419 55.2823 32.5383 55.3345 32.4803 55.4389C32.4223 55.5433 32.3933 55.656 32.3933 55.777ZM29.0574 53.1321V52.8636C29.0574 52.6581 29.1013 52.4701 29.1891 52.2994C29.2769 52.127 29.4037 51.9895 29.5694 51.8867C29.7368 51.784 29.939 51.7326 30.176 51.7326C30.4212 51.7326 30.6267 51.784 30.7924 51.8867C30.9582 51.9895 31.0841 52.127 31.1703 52.2994C31.2565 52.4701 31.2995 52.6581 31.2995 52.8636V53.1321C31.2995 53.3376 31.2556 53.5257 31.1678 53.6964C31.0816 53.8671 30.9548 54.0038 30.7875 54.1065C30.6217 54.2076 30.4179 54.2582 30.176 54.2582C29.934 54.2582 29.7293 54.2068 29.562 54.104C29.3962 53.9996 29.2703 53.8629 29.1841 53.6939C29.0996 53.5232 29.0574 53.3359 29.0574 53.1321ZM29.7857 52.8636V53.1321C29.7857 53.2531 29.8139 53.3649 29.8702 53.4677C29.9282 53.5704 30.0301 53.6218 30.176 53.6218C30.3284 53.6218 30.432 53.5704 30.4867 53.4677C30.543 53.3649 30.5712 53.2531 30.5712 53.1321V52.8636C30.5712 52.7427 30.5447 52.63 30.4917 52.5256C30.4386 52.4212 30.3334 52.369 30.176 52.369C30.0285 52.369 29.9266 52.422 29.8702 52.5281C29.8139 52.6341 29.7857 52.746 29.7857 52.8636ZM29.3855 57L32.8855 51.9091H33.5368L30.0368 57H29.3855Z" fill="#65B969"/>
<path d="M0.679688 39.9501V28.1274H8.62772V30.5321H3.43481V32.7696H8.34389V35.0572H3.43481V37.5119H8.92849V39.9501H0.679688Z" fill="#2C3C69"/>
<path d="M16.1516 39.9495V35.4074C16.1516 35.1737 16.1316 34.9512 16.0932 34.7396C16.0541 34.5281 15.9901 34.3417 15.9009 34.1802C15.8117 34.0191 15.6867 33.8908 15.5252 33.7959C15.3637 33.7018 15.1604 33.654 14.9158 33.654C14.6711 33.654 14.4565 33.7018 14.2728 33.7959C14.0895 33.8908 13.9359 34.0218 13.8136 34.1885C13.6912 34.3553 13.5994 34.5476 13.5384 34.7645C13.477 34.9817 13.4465 35.2072 13.4465 35.4409V39.9495H10.6914V31.6337H13.3464V32.7859H13.3799C13.4804 32.6079 13.6107 32.4328 13.7725 32.2604C13.9336 32.0876 14.1234 31.9401 14.3402 31.8177C14.5574 31.6954 14.7938 31.5949 15.0501 31.517C15.3061 31.4394 15.5787 31.3999 15.8681 31.3999C16.4249 31.3999 16.8977 31.5004 17.2877 31.7007C17.6776 31.9009 17.9916 32.1599 18.2314 32.4769C18.4708 32.7942 18.6432 33.159 18.749 33.5704C18.8544 33.9826 18.9075 34.3944 18.9075 34.8063V39.9491H16.1516V39.9495Z" fill="#2C3C69"/>
<path d="M25.9552 34.3221C25.799 34.1218 25.5874 33.9607 25.3205 33.838C25.0533 33.7156 24.78 33.6543 24.5022 33.6543C24.2123 33.6543 23.9511 33.7126 23.7173 33.8297C23.4835 33.9468 23.2833 34.103 23.1161 34.2972C22.9494 34.4922 22.818 34.7177 22.7235 34.9737C22.629 35.23 22.5816 35.5022 22.5816 35.7921C22.5816 36.0815 22.626 36.3541 22.7152 36.6101C22.8041 36.8664 22.9347 37.0919 23.1075 37.2865C23.2799 37.4815 23.4858 37.6347 23.7256 37.7458C23.965 37.8572 24.2349 37.9125 24.5353 37.9125C24.8131 37.9125 25.089 37.8598 25.3616 37.754C25.6341 37.6483 25.8543 37.495 26.0211 37.2948L27.5407 39.1483C27.1955 39.4822 26.7498 39.7439 26.2048 39.9332C25.6593 40.1222 25.0804 40.217 24.4683 40.217C23.8114 40.217 23.1982 40.1165 22.6286 39.9163C22.0595 39.716 21.5648 39.4235 21.1451 39.0396C20.725 38.6556 20.3949 38.1911 20.154 37.6456C19.9131 37.1002 19.793 36.4824 19.793 35.7921C19.793 35.113 19.913 34.5005 20.154 33.9551C20.3949 33.41 20.725 32.9447 21.1451 32.5608C21.5648 32.1764 22.0599 31.8817 22.6286 31.6758C23.1982 31.4698 23.8058 31.3667 24.4517 31.3667C24.7521 31.3667 25.0499 31.3946 25.345 31.4506C25.6397 31.506 25.9236 31.5816 26.1965 31.6761C26.4694 31.7706 26.7197 31.8877 26.9478 32.027C27.176 32.1662 27.374 32.3191 27.5407 32.4862L25.9552 34.3221V34.3221Z" fill="#2C3C69"/>
<path d="M33.9795 33.8881C33.8568 33.8546 33.7371 33.8328 33.6204 33.8215C33.5037 33.8102 33.3892 33.8046 33.2782 33.8046C32.9108 33.8046 32.6017 33.8716 32.3514 34.0045C32.1011 34.1377 31.9008 34.2984 31.7502 34.4874C31.6 34.676 31.4913 34.8815 31.4246 35.1036C31.358 35.3257 31.3245 35.5196 31.3245 35.6864V39.9495H28.5859V31.6438H31.2244V32.8462H31.2579C31.4694 32.42 31.7694 32.0726 32.1598 31.8034C32.549 31.5343 33 31.3999 33.5123 31.3999C33.6234 31.3999 33.7322 31.4059 33.8379 31.4168C33.9433 31.4278 34.0299 31.4447 34.0969 31.4669L33.9795 33.8881Z" fill="#2C3C69"/>
<path d="M40.4099 41.2021C40.2432 41.6361 40.0565 42.0231 39.8506 42.3626C39.6447 42.7018 39.4 42.9913 39.1161 43.2311C38.8323 43.4705 38.498 43.6508 38.1141 43.7735C37.7301 43.8959 37.2761 43.9572 36.7533 43.9572C36.4969 43.9572 36.2327 43.9403 35.9605 43.9068C35.6872 43.8733 35.4508 43.8289 35.2505 43.7735L35.5513 41.4694C35.6846 41.5134 35.8321 41.5499 35.994 41.5778C36.1551 41.6053 36.3027 41.6192 36.4363 41.6192C36.8594 41.6192 37.1655 41.5217 37.3548 41.3271C37.5438 41.1321 37.7053 40.8569 37.8389 40.5008L38.1062 39.8164L34.6328 31.6343H37.6718L39.5253 36.9778H39.5754L41.2287 31.6343H44.134L40.4099 41.2021Z" fill="#2C3C69"/>
<path d="M54.1024 35.7583C54.1024 36.3372 54.0132 36.894 53.8352 37.4281C53.6567 37.9627 53.3981 38.4328 53.059 38.839C52.7194 39.2455 52.3046 39.5712 51.8148 39.8162C51.3247 40.0605 50.7684 40.1836 50.1446 40.1836C49.6327 40.1836 49.1486 40.0808 48.6919 39.8749C48.2353 39.669 47.8796 39.3878 47.6232 39.0317H47.5901V43.9577H44.8516V31.6337H47.4565V32.6523H47.5066C47.7629 32.3184 48.116 32.0263 48.567 31.7756C49.0176 31.5253 49.5491 31.3999 50.1615 31.3999C50.7627 31.3999 51.3078 31.517 51.7979 31.7507C52.2876 31.9845 52.7021 32.3018 53.042 32.7024C53.3819 33.1029 53.6432 33.5682 53.8269 34.0967C54.0106 34.6256 54.1024 35.1797 54.1024 35.7583ZM51.4474 35.7583C51.4474 35.491 51.406 35.2297 51.3225 34.9734C51.2389 34.7174 51.1162 34.4919 50.9547 34.2969C50.7932 34.1023 50.5899 33.9438 50.3452 33.8211C50.1006 33.6984 49.8167 33.6374 49.4937 33.6374C49.1821 33.6374 48.9035 33.6988 48.6588 33.8211C48.4138 33.9435 48.2048 34.105 48.0324 34.3052C47.8596 34.5055 47.7264 34.734 47.6319 34.9896C47.537 35.2459 47.49 35.5072 47.49 35.7744C47.49 36.0417 47.537 36.3033 47.6319 36.5593C47.7264 36.8157 47.8596 37.0434 48.0324 37.2437C48.2048 37.4439 48.4138 37.6058 48.6588 37.7281C48.9031 37.8505 49.1821 37.9115 49.4937 37.9115C49.8164 37.9115 50.1002 37.8505 50.3452 37.7281C50.5903 37.6058 50.7932 37.4439 50.9547 37.2437C51.1162 37.0434 51.2389 36.8123 51.3225 36.5507C51.4057 36.2898 51.4474 36.0255 51.4474 35.7583Z" fill="#2C3C69"/>
<path d="M58.4763 33.6715V36.8565C58.4763 37.2476 58.5516 37.5405 58.7021 37.7366C58.8519 37.9324 59.1218 38.0295 59.5118 38.0295C59.6451 38.0295 59.787 38.0189 59.9376 37.996C60.0878 37.9738 60.2128 37.9406 60.3133 37.8958L60.3468 39.8996C60.1574 39.9662 59.918 40.0246 59.6289 40.075C59.339 40.1251 59.0499 40.1499 58.7605 40.1499C58.2037 40.1499 57.7358 40.0799 57.3575 39.9406C56.9788 39.8014 56.6754 39.6003 56.4477 39.3376C56.2192 39.0756 56.055 38.7631 55.9549 38.4003C55.8544 38.0378 55.8047 37.6331 55.8047 37.1866V33.6715H54.4688V31.6342H55.7878V29.4468H58.4763V31.6342H60.43V33.6715H58.4763Z" fill="#2C3C69"/>
<path d="M0.429688 23.7397V11.917H3.30188V21.2514H7.87706V23.7393H0.429688V23.7397Z" fill="#2C3C69"/>
<path d="M17.3413 19.6814C17.3413 19.7928 17.3413 19.9042 17.3413 20.0156C17.3413 20.1271 17.3356 20.2325 17.3247 20.333H11.2969C11.3191 20.5667 11.3887 20.7783 11.5058 20.9676C11.6229 21.157 11.7731 21.3207 11.9564 21.4604C12.1401 21.5997 12.346 21.7081 12.5745 21.7856C12.8023 21.8639 13.039 21.9027 13.2841 21.9027C13.7181 21.9027 14.0859 21.8221 14.3863 21.6607C14.6871 21.4992 14.9317 21.2906 15.1211 21.0343L17.0247 22.2366C16.6351 22.8043 16.1205 23.2413 15.4802 23.5473C14.8399 23.853 14.0964 24.0066 13.251 24.0066C12.6272 24.0066 12.0373 23.9087 11.481 23.7145C10.9242 23.5195 10.4375 23.236 10.0197 22.8626C9.60256 22.4899 9.27393 22.0307 9.03452 21.4852C8.79511 20.9398 8.67578 20.3164 8.67578 19.6147C8.67578 18.936 8.79247 18.3206 9.02624 17.7698C9.26001 17.2191 9.57734 16.7512 9.97824 16.3672C10.3788 15.9829 10.8516 15.6851 11.3978 15.4736C11.9429 15.2624 12.5331 15.1562 13.1674 15.1562C13.7795 15.1562 14.3419 15.2594 14.8538 15.4653C15.3658 15.6712 15.8054 15.969 16.1732 16.3586C16.5406 16.7482 16.8267 17.2214 17.033 17.7781C17.2385 18.3345 17.3413 18.9695 17.3413 19.6814ZM14.8199 18.6292C14.8199 18.1952 14.6837 17.8222 14.4108 17.5105C14.1378 17.1992 13.7287 17.0429 13.1836 17.0429C12.9163 17.0429 12.6716 17.0847 12.4488 17.1683C12.2259 17.2519 12.0317 17.3659 11.8642 17.5105C11.6974 17.6554 11.5638 17.8252 11.4637 18.0202C11.3635 18.2152 11.3078 18.4184 11.2969 18.6292H14.8199Z" fill="#2C3C69"/>
<path d="M21.7145 17.461V20.6461C21.7145 21.0372 21.7898 21.33 21.9404 21.5262C22.0902 21.7219 22.3601 21.819 22.7501 21.819C22.8834 21.819 23.0253 21.8085 23.1759 21.7855C23.3261 21.7633 23.451 21.7302 23.5515 21.6854L23.585 23.6892C23.3957 23.7558 23.1563 23.8141 22.8672 23.8646C22.5773 23.9146 22.2882 23.9395 21.9988 23.9395C21.442 23.9395 20.9741 23.8695 20.5958 23.7302C20.2171 23.5909 19.9137 23.3899 19.6859 23.1271C19.4574 22.8651 19.2933 22.5527 19.1932 22.1898C19.0927 21.8273 19.043 21.4226 19.043 20.9762V17.461H17.707V15.4238H19.0261V13.2363H21.7145V15.4238H23.6682V17.461H21.7145Z" fill="#2C3C69"/>
<path d="M32.5428 17.878C32.3199 17.6668 32.0587 17.4888 31.7579 17.3439C31.4575 17.1993 31.1402 17.1267 30.8063 17.1267C30.5499 17.1267 30.3135 17.1771 30.0967 17.2769C29.8795 17.3774 29.7711 17.5501 29.7711 17.7945C29.7711 18.0282 29.8904 18.195 30.1298 18.2955C30.3692 18.396 30.7562 18.507 31.2904 18.6294C31.602 18.6964 31.9167 18.7913 32.2341 18.9136C32.5514 19.0359 32.8379 19.1974 33.0939 19.3977C33.3498 19.5979 33.5557 19.843 33.712 20.1325C33.8674 20.422 33.9457 20.7672 33.9457 21.1677C33.9457 21.6913 33.84 22.1332 33.6284 22.495C33.4168 22.8567 33.1413 23.1489 32.8017 23.3717C32.4622 23.5946 32.0809 23.7557 31.6581 23.8558C31.235 23.9563 30.8119 24.006 30.3892 24.006C29.7097 24.006 29.0449 23.8976 28.3933 23.6804C27.7425 23.4636 27.1997 23.1432 26.7656 22.7201L28.3019 21.1003C28.5462 21.3676 28.8469 21.5904 29.2034 21.7681C29.5595 21.9465 29.9382 22.0354 30.3391 22.0354C30.562 22.0354 30.7818 21.9823 30.9986 21.8765C31.2158 21.7711 31.3242 21.5844 31.3242 21.3175C31.3242 21.0611 31.191 20.8722 30.9237 20.7495C30.6564 20.6271 30.2394 20.4991 29.6713 20.3651C29.3818 20.2985 29.0924 20.2097 28.8029 20.0982C28.513 19.9868 28.2544 19.837 28.0267 19.6473C27.7986 19.4583 27.6118 19.2245 27.4673 18.946C27.3227 18.6682 27.2505 18.3339 27.2505 17.9443C27.2505 17.4432 27.3559 17.0175 27.5678 16.6667C27.7794 16.3158 28.0519 16.0297 28.3862 15.8069C28.7201 15.584 29.0901 15.4203 29.4963 15.3141C29.9024 15.208 30.306 15.1553 30.7073 15.1553C31.3303 15.1553 31.9397 15.2531 32.5352 15.4474C33.1307 15.6424 33.6348 15.9345 34.0466 16.3241L32.5428 17.878V17.878Z" fill="#2C3C69"/>
<path d="M26.176 11.6904C25.3543 11.6904 24.7109 12.2826 24.7109 13.0388C24.7109 13.8354 25.2526 14.3703 26.0593 14.3703C26.1282 14.3703 26.1933 14.3639 26.2547 14.3514C26.1256 14.9409 25.5575 15.3641 25.0207 15.4487L24.9116 15.4661V16.7373L25.0531 16.7237C25.7043 16.6616 26.3477 16.3657 26.819 15.9118C27.4333 15.3196 27.7582 14.4648 27.7582 13.4393C27.7582 12.426 27.0926 11.6904 26.176 11.6904Z" fill="#2C3C69"/>
<path d="M53.4071 12.6144H50.587V11.1665C50.587 10.01 49.6459 9.06927 48.4894 9.06927C47.333 9.06927 46.3922 10.0104 46.3922 11.1665V12.6144H43.5721V11.1665C43.5721 8.4551 45.7781 6.24882 48.4898 6.24882C51.2015 6.24882 53.4074 8.45475 53.4074 11.1665L53.4071 12.6144Z" fill="#F9A11D"/>
<path d="M54.5471 12.614H42.4371C41.9201 12.614 41.4971 13.037 41.4971 13.554V22.5124C41.4971 23.0294 41.9201 23.4524 42.4371 23.4524H54.5471C55.0641 23.4524 55.4871 23.0294 55.4871 22.5124V13.554C55.4871 13.037 55.0641 12.614 54.5471 12.614ZM49.1058 18.4959V19.7098C49.1058 20.0487 48.8308 20.3233 48.4923 20.3233C48.1538 20.3233 47.8788 20.0483 47.8788 19.7098V18.4962C47.5014 18.2819 47.2464 17.8775 47.2464 17.4124C47.2464 16.7242 47.8044 16.1665 48.4923 16.1665C49.1805 16.1665 49.7382 16.7245 49.7382 17.4124C49.7382 17.8771 49.4832 18.2816 49.1058 18.4959Z" fill="#2C3C69"/>
<path d="M41.2098 11.2776H38.2876C37.8138 11.2776 37.4297 10.8935 37.4297 10.4196C37.4297 9.94572 37.8138 9.56164 38.2876 9.56164H41.2098C41.6837 9.56164 42.0678 9.94572 42.0678 10.4196C42.0678 10.8935 41.6833 11.2776 41.2098 11.2776Z" fill="#F9A11D"/>
<path d="M43.2668 6.68178C43.0753 6.68178 42.8821 6.61794 42.7225 6.48641L40.411 4.58565C40.0451 4.28469 39.9922 3.74418 40.2935 3.37798C40.5944 3.01214 41.1349 2.95918 41.5011 3.26013L43.8126 5.16089C44.1785 5.46184 44.2314 6.00236 43.9301 6.36855C43.7607 6.57515 43.5148 6.68178 43.2668 6.68178Z" fill="#F9A11D"/>
<path d="M48.492 4.66123C48.0181 4.66123 47.6341 4.27715 47.6341 3.80328V0.857956C47.6341 0.384081 48.0181 0 48.492 0C48.9659 0 49.35 0.384081 49.35 0.857956V3.80328C49.35 4.27715 48.9659 4.66123 48.492 4.66123Z" fill="#F9A11D"/>
<path d="M53.7121 6.68178C53.4641 6.68178 53.2186 6.57515 53.0488 6.36855C52.7478 6.00271 52.8004 5.46184 53.1663 5.16089L55.4778 3.26013C55.844 2.95918 56.3845 3.01214 56.6854 3.37798C56.9864 3.74382 56.9338 4.28469 56.5679 4.58565L54.2564 6.48641C54.0969 6.61794 53.9039 6.68178 53.7121 6.68178Z" fill="#F9A11D"/>
<path d="M58.6967 11.2776H55.7469C55.273 11.2776 54.8889 10.8935 54.8889 10.4196C54.8889 9.94572 55.273 9.56164 55.7469 9.56164H58.6967C59.1706 9.56164 59.5547 9.94572 59.5547 10.4196C59.5547 10.8935 59.1706 11.2776 58.6967 11.2776Z" fill="#F9A11D"/>
</svg>
