<svg width="900" height="200" viewBox="0 0 900 200" fill="none" xmlns="http://www.w3.org/2000/svg">
<g filter="url(#filter0_d_4_22)">
<path d="M86.8402 2.50537C81.1124 3.51616 75.0218 6.08199 70.2789 9.42534C64.2142 13.7536 58.6938 20.7253 56.0502 27.412C55.3246 29.2263 54.2619 32.777 53.8473 34.6949L53.6918 35.4205H38.9706C22.9537 35.4205 22.6426 35.4465 19.8954 36.9238C18.2108 37.8049 15.3858 40.6299 14.5046 42.3146C12.8977 45.321 13.0014 40.2153 13.0014 114.21C13.0014 188.204 12.8977 183.098 14.5046 186.105C15.3858 187.789 18.2108 190.614 19.8954 191.495C22.9018 193.102 17.5887 192.999 93.8638 192.999C170.139 192.999 164.826 193.102 167.832 191.495C169.517 190.614 172.342 187.789 173.223 186.105C174.83 183.098 174.726 188.204 174.726 114.21C174.726 40.2153 174.83 45.321 173.223 42.3146C172.342 40.6299 169.517 37.8049 167.832 36.9238C165.085 35.4465 164.774 35.4205 148.757 35.4205H134.036L133.88 34.6949C132.118 26.5049 128.438 19.7146 122.632 13.9091C116.542 7.81845 109.077 3.93083 100.68 2.50537C96.7407 1.83153 90.7019 1.83153 86.8402 2.50537ZM99.7989 9.65858C110.399 11.5506 119.522 18.5224 124.187 28.2932C125.146 30.3407 126.52 34.3061 126.52 35.0577C126.52 35.3687 122.192 35.4205 93.8638 35.4205C65.536 35.4205 61.2078 35.3687 61.2078 35.0577C61.2078 34.3061 62.5814 30.3407 63.5404 28.2932C70.0716 14.6088 84.8186 7.01501 99.7989 9.65858Z" fill="#DFDFDF"/>
</g>
<g filter="url(#filter1_i_4_22)">
<path d="M49.9777 81.2551C49.4103 81.4915 48.7482 82.1063 48.4645 82.6265C48.0862 83.2412 47.9443 92.1789 47.9443 110.007V136.442L49.0319 137.435L50.1196 138.475H93.6257H137.179L138.172 137.387L139.213 136.3V109.77C139.213 84.3762 139.165 83.1939 138.314 82.1536L137.416 81.0186L94.1932 80.924C69.8865 80.8768 50.5452 81.0186 49.9777 81.2551ZM134.72 109.865V133.983H93.5784H52.4368L52.2949 110.338C52.2476 97.3334 52.2949 86.4096 52.4368 86.0786C52.5786 85.6057 61.0907 85.5111 93.673 85.6057L134.72 85.7475V109.865Z" fill="#25A5C2"/>
<path d="M33.2846 144.334C33.2846 146.763 34.5141 149.575 35.7437 150.022C37.1623 150.534 149.994 150.534 151.413 150.022C152.643 149.575 153.872 146.763 153.872 144.334V142.736H128.1C112.541 142.736 102.327 142.991 102.327 143.311C102.327 143.631 101.996 144.398 101.57 144.909C100.956 145.74 99.5368 145.932 93.5784 145.932C87.62 145.932 86.2013 145.74 85.5865 144.909C85.1609 144.398 84.8299 143.631 84.8299 143.311C84.8299 142.991 74.6154 142.736 59.0573 142.736H33.2846V144.334Z" fill="#25A5C2"/>
<rect x="49.6314" y="82.8381" width="86.5418" height="52.8866" fill="#25A5C2"/>
</g>
<path d="M214.658 66.2188H227.209L248.197 124.016L269.133 66.2188H281.736L253.207 143H243.135L214.658 66.2188ZM208.33 66.2188H220.617L222.832 119.322V143H208.33V66.2188ZM275.725 66.2188H288.064V143H273.562V119.322L275.725 66.2188ZM333.205 130.871V104.557C333.205 102.623 332.871 100.953 332.203 99.5469C331.535 98.1406 330.516 97.0508 329.145 96.2773C327.773 95.5039 326.033 95.1172 323.924 95.1172C322.061 95.1172 320.426 95.4336 319.02 96.0664C317.648 96.6992 316.594 97.5957 315.855 98.7559C315.117 99.8809 314.748 101.182 314.748 102.658H300.773C300.773 100.303 301.336 98.0703 302.461 95.9609C303.586 93.8164 305.186 91.918 307.26 90.2656C309.369 88.5781 311.883 87.2598 314.801 86.3105C317.754 85.3613 321.059 84.8867 324.715 84.8867C329.039 84.8867 332.889 85.625 336.264 87.1016C339.674 88.543 342.346 90.7227 344.279 93.6406C346.248 96.5586 347.232 100.232 347.232 104.662V129.553C347.232 132.4 347.408 134.844 347.76 136.883C348.146 138.887 348.709 140.627 349.447 142.104V143H335.262C334.594 141.559 334.084 139.73 333.732 137.516C333.381 135.266 333.205 133.051 333.205 130.871ZM335.156 108.248L335.262 116.527H326.455C324.275 116.527 322.359 116.756 320.707 117.213C319.055 117.635 317.701 118.268 316.646 119.111C315.592 119.92 314.801 120.904 314.273 122.064C313.746 123.189 313.482 124.473 313.482 125.914C313.482 127.32 313.799 128.586 314.432 129.711C315.1 130.836 316.049 131.732 317.279 132.4C318.545 133.033 320.021 133.35 321.709 133.35C324.17 133.35 326.314 132.857 328.143 131.873C329.971 130.854 331.395 129.623 332.414 128.182C333.434 126.74 333.979 125.369 334.049 124.068L338.057 130.08C337.564 131.521 336.826 133.051 335.842 134.668C334.857 136.285 333.592 137.797 332.045 139.203C330.498 140.609 328.635 141.77 326.455 142.684C324.275 143.598 321.744 144.055 318.861 144.055C315.17 144.055 311.865 143.316 308.947 141.84C306.029 140.363 303.727 138.342 302.039 135.775C300.352 133.209 299.508 130.291 299.508 127.021C299.508 123.998 300.07 121.326 301.195 119.006C302.32 116.686 303.99 114.734 306.205 113.152C308.42 111.535 311.162 110.322 314.432 109.514C317.736 108.67 321.516 108.248 325.77 108.248H335.156ZM383.197 133.086C385.166 133.086 386.924 132.699 388.471 131.926C390.018 131.152 391.248 130.062 392.162 128.656C393.111 127.25 393.621 125.615 393.691 123.752H406.822C406.752 127.619 405.662 131.082 403.553 134.141C401.443 137.199 398.631 139.625 395.115 141.418C391.635 143.176 387.732 144.055 383.408 144.055C379.014 144.055 375.182 143.316 371.912 141.84C368.643 140.363 365.918 138.307 363.738 135.67C361.594 133.033 359.977 129.975 358.887 126.494C357.832 123.014 357.305 119.287 357.305 115.314V113.627C357.305 109.654 357.832 105.928 358.887 102.447C359.977 98.9668 361.594 95.9082 363.738 93.2715C365.918 90.6348 368.643 88.5781 371.912 87.1016C375.182 85.625 378.996 84.8867 383.355 84.8867C387.961 84.8867 392.004 85.7832 395.484 87.5762C399 89.3691 401.742 91.9004 403.711 95.1699C405.715 98.4395 406.752 102.289 406.822 106.719H393.691C393.621 104.68 393.164 102.852 392.32 101.234C391.477 99.6172 390.281 98.3164 388.734 97.332C387.188 96.3477 385.307 95.8555 383.092 95.8555C380.736 95.8555 378.768 96.3477 377.186 97.332C375.639 98.3164 374.426 99.6699 373.547 101.393C372.703 103.08 372.105 104.979 371.754 107.088C371.438 109.162 371.279 111.342 371.279 113.627V115.314C371.279 117.635 371.438 119.85 371.754 121.959C372.105 124.068 372.703 125.967 373.547 127.654C374.426 129.307 375.639 130.625 377.186 131.609C378.768 132.594 380.771 133.086 383.197 133.086ZM446.689 114.998H426.914V103.607H446.689C449.924 103.607 452.543 103.08 454.547 102.025C456.586 100.936 458.08 99.459 459.029 97.5957C459.979 95.6973 460.453 93.5352 460.453 91.1094C460.453 88.7539 459.979 86.5566 459.029 84.5176C458.08 82.4785 456.586 80.8262 454.547 79.5605C452.543 78.2949 449.924 77.6621 446.689 77.6621H431.66V143H417.158V66.2188H446.689C452.666 66.2188 457.764 67.291 461.982 69.4355C466.236 71.5449 469.471 74.4805 471.686 78.2422C473.936 81.9688 475.061 86.2227 475.061 91.0039C475.061 95.9609 473.936 100.232 471.686 103.818C469.471 107.404 466.236 110.164 461.982 112.098C457.764 114.031 452.666 114.998 446.689 114.998ZM499.318 97.5957V143H485.396V85.9414H498.58L499.318 97.5957ZM516.668 85.5723L516.457 98.5449C515.684 98.4043 514.805 98.2988 513.82 98.2285C512.871 98.1582 511.975 98.123 511.131 98.123C508.986 98.123 507.105 98.4219 505.488 99.0195C503.871 99.582 502.518 100.408 501.428 101.498C500.373 102.588 499.564 103.924 499.002 105.506C498.439 107.053 498.123 108.811 498.053 110.779L495.047 110.41C495.047 106.789 495.416 103.432 496.154 100.338C496.893 97.2441 497.965 94.5371 499.371 92.2168C500.777 89.8965 502.535 88.1035 504.645 86.8379C506.789 85.5371 509.25 84.8867 512.027 84.8867C512.801 84.8867 513.627 84.957 514.506 85.0977C515.42 85.2031 516.141 85.3613 516.668 85.5723ZM548.889 144.055C544.564 144.055 540.68 143.352 537.234 141.945C533.789 140.539 530.854 138.588 528.428 136.092C526.037 133.561 524.191 130.625 522.891 127.285C521.625 123.91 520.992 120.289 520.992 116.422V114.312C520.992 109.918 521.625 105.928 522.891 102.342C524.156 98.7207 525.949 95.6094 528.27 93.0078C530.59 90.4062 533.367 88.4023 536.602 86.9961C539.836 85.5898 543.404 84.8867 547.307 84.8867C551.35 84.8867 554.918 85.5723 558.012 86.9434C561.105 88.2793 563.689 90.1777 565.764 92.6387C567.838 95.0996 569.402 98.0527 570.457 101.498C571.512 104.908 572.039 108.688 572.039 112.836V118.689H527.32V109.092H558.328V108.037C558.258 105.822 557.836 103.801 557.062 101.973C556.289 100.109 555.094 98.6328 553.477 97.543C551.859 96.418 549.768 95.8555 547.201 95.8555C545.127 95.8555 543.316 96.3125 541.77 97.2266C540.258 98.1055 538.992 99.3711 537.973 101.023C536.988 102.641 536.25 104.574 535.758 106.824C535.266 109.074 535.02 111.57 535.02 114.312V116.422C535.02 118.812 535.336 121.027 535.969 123.066C536.637 125.105 537.604 126.881 538.869 128.393C540.17 129.869 541.717 131.029 543.51 131.873C545.338 132.682 547.412 133.086 549.732 133.086C552.65 133.086 555.287 132.523 557.643 131.398C560.033 130.238 562.107 128.533 563.865 126.283L570.879 133.561C569.684 135.318 568.066 137.006 566.027 138.623C564.023 140.24 561.598 141.559 558.75 142.578C555.902 143.562 552.615 144.055 548.889 144.055ZM595.242 97.6484V143H581.32V85.9414H594.451L595.242 97.6484ZM593.186 112.414H588.914C588.914 108.441 589.389 104.785 590.338 101.445C591.322 98.1055 592.764 95.2051 594.662 92.7441C596.561 90.248 598.898 88.3145 601.676 86.9434C604.488 85.5723 607.74 84.8867 611.432 84.8867C613.998 84.8867 616.354 85.2734 618.498 86.0469C620.643 86.7852 622.488 87.9629 624.035 89.5801C625.617 91.1621 626.83 93.2363 627.674 95.8027C628.518 98.334 628.939 101.375 628.939 104.926V143H615.018V106.35C615.018 103.678 614.631 101.586 613.857 100.074C613.119 98.5625 612.047 97.5078 610.641 96.9102C609.234 96.2773 607.547 95.9609 605.578 95.9609C603.398 95.9609 601.518 96.4004 599.936 97.2793C598.389 98.123 597.105 99.3008 596.086 100.812C595.102 102.324 594.363 104.064 593.871 106.033C593.414 108.002 593.186 110.129 593.186 112.414ZM627.885 109.83L622.137 110.885C622.172 107.299 622.664 103.941 623.613 100.812C624.562 97.6484 625.951 94.8887 627.779 92.5332C629.643 90.1426 631.945 88.2793 634.688 86.9434C637.465 85.5723 640.664 84.8867 644.285 84.8867C647.098 84.8867 649.629 85.291 651.879 86.0996C654.164 86.873 656.115 88.1211 657.732 89.8438C659.35 91.5312 660.58 93.7285 661.424 96.4355C662.303 99.1426 662.742 102.447 662.742 106.35V143H648.715V106.297C648.715 103.52 648.328 101.393 647.555 99.916C646.816 98.4395 645.744 97.4199 644.338 96.8574C642.932 96.2598 641.279 95.9609 639.381 95.9609C637.447 95.9609 635.76 96.3301 634.318 97.0684C632.912 97.7715 631.717 98.7559 630.732 100.021C629.783 101.287 629.062 102.764 628.57 104.451C628.113 106.104 627.885 107.896 627.885 109.83ZM690.006 85.9414V143H676.031V85.9414H690.006ZM675.082 71.0176C675.082 68.9434 675.785 67.2207 677.191 65.8496C678.633 64.4785 680.566 63.793 682.992 63.793C685.418 63.793 687.334 64.4785 688.74 65.8496C690.182 67.2207 690.902 68.9434 690.902 71.0176C690.902 73.0566 690.182 74.7617 688.74 76.1328C687.334 77.5039 685.418 78.1895 682.992 78.1895C680.566 78.1895 678.633 77.5039 677.191 76.1328C675.785 74.7617 675.082 73.0566 675.082 71.0176ZM728.924 144.055C724.6 144.055 720.715 143.352 717.27 141.945C713.824 140.539 710.889 138.588 708.463 136.092C706.072 133.561 704.227 130.625 702.926 127.285C701.66 123.91 701.027 120.289 701.027 116.422V114.312C701.027 109.918 701.66 105.928 702.926 102.342C704.191 98.7207 705.984 95.6094 708.305 93.0078C710.625 90.4062 713.402 88.4023 716.637 86.9961C719.871 85.5898 723.439 84.8867 727.342 84.8867C731.385 84.8867 734.953 85.5723 738.047 86.9434C741.141 88.2793 743.725 90.1777 745.799 92.6387C747.873 95.0996 749.438 98.0527 750.492 101.498C751.547 104.908 752.074 108.688 752.074 112.836V118.689H707.355V109.092H738.363V108.037C738.293 105.822 737.871 103.801 737.098 101.973C736.324 100.109 735.129 98.6328 733.512 97.543C731.895 96.418 729.803 95.8555 727.236 95.8555C725.162 95.8555 723.352 96.3125 721.805 97.2266C720.293 98.1055 719.027 99.3711 718.008 101.023C717.023 102.641 716.285 104.574 715.793 106.824C715.301 109.074 715.055 111.57 715.055 114.312V116.422C715.055 118.812 715.371 121.027 716.004 123.066C716.672 125.105 717.639 126.881 718.904 128.393C720.205 129.869 721.752 131.029 723.545 131.873C725.373 132.682 727.447 133.086 729.768 133.086C732.686 133.086 735.322 132.523 737.678 131.398C740.068 130.238 742.143 128.533 743.9 126.283L750.914 133.561C749.719 135.318 748.102 137.006 746.062 138.623C744.059 140.24 741.633 141.559 738.785 142.578C735.938 143.562 732.65 144.055 728.924 144.055ZM775.33 97.5957V143H761.408V85.9414H774.592L775.33 97.5957ZM792.68 85.5723L792.469 98.5449C791.695 98.4043 790.816 98.2988 789.832 98.2285C788.883 98.1582 787.986 98.123 787.143 98.123C784.998 98.123 783.117 98.4219 781.5 99.0195C779.883 99.582 778.529 100.408 777.439 101.498C776.385 102.588 775.576 103.924 775.014 105.506C774.451 107.053 774.135 108.811 774.064 110.779L771.059 110.41C771.059 106.789 771.428 103.432 772.166 100.338C772.904 97.2441 773.977 94.5371 775.383 92.2168C776.789 89.8965 778.547 88.1035 780.656 86.8379C782.801 85.5371 785.262 84.8867 788.039 84.8867C788.812 84.8867 789.639 84.957 790.518 85.0977C791.432 85.2031 792.152 85.3613 792.68 85.5723ZM837.451 108.512H826.061L825.955 101.604H835.922C837.504 101.568 838.963 101.322 840.299 100.865C841.67 100.373 842.76 99.6699 843.568 98.7559C844.412 97.8418 844.834 96.7168 844.834 95.3809C844.834 93.623 844.535 92.252 843.938 91.2676C843.375 90.248 842.408 89.5273 841.037 89.1055C839.666 88.6484 837.803 88.4199 835.447 88.4199H828.434V126.336H820.734V81.5117H835.447C838.928 81.5117 841.934 82.0391 844.465 83.0938C847.031 84.1133 849 85.6426 850.371 87.6816C851.777 89.6855 852.48 92.1992 852.48 95.2227C852.48 97.1211 852.041 98.8086 851.162 100.285C850.283 101.762 848.982 103.045 847.26 104.135C845.572 105.189 843.498 106.051 841.037 106.719C840.932 106.719 840.809 106.842 840.668 107.088C840.562 107.299 840.457 107.404 840.352 107.404C839.754 107.756 839.367 108.02 839.191 108.195C839.051 108.336 838.893 108.424 838.717 108.459C838.576 108.494 838.154 108.512 837.451 108.512ZM836.924 108.512L838.031 103.08C843.516 103.08 847.26 104.293 849.264 106.719C851.268 109.109 852.27 112.15 852.27 115.842V118.795C852.27 120.096 852.34 121.344 852.48 122.539C852.621 123.699 852.85 124.684 853.166 125.492V126.336H845.256C844.904 125.422 844.693 124.121 844.623 122.434C844.588 120.746 844.57 119.516 844.57 118.742V115.895C844.57 113.398 843.99 111.553 842.83 110.357C841.67 109.127 839.701 108.512 836.924 108.512ZM804.967 104.557C804.967 109.197 805.775 113.539 807.393 117.582C809.01 121.59 811.242 125.105 814.09 128.129C816.938 131.117 820.242 133.455 824.004 135.143C827.801 136.795 831.844 137.621 836.133 137.621C840.457 137.621 844.482 136.795 848.209 135.143C851.971 133.455 855.275 131.117 858.123 128.129C861.006 125.105 863.238 121.59 864.82 117.582C866.438 113.539 867.246 109.197 867.246 104.557C867.246 99.8809 866.438 95.5566 864.82 91.584C863.238 87.5762 861.006 84.0781 858.123 81.0898C855.275 78.1016 851.971 75.7812 848.209 74.1289C844.482 72.4414 840.457 71.5977 836.133 71.5977C831.844 71.5977 827.801 72.4414 824.004 74.1289C820.242 75.7812 816.938 78.1016 814.09 81.0898C811.242 84.0781 809.01 87.5762 807.393 91.584C805.775 95.5566 804.967 99.8809 804.967 104.557ZM798.691 104.557C798.691 98.9668 799.658 93.7812 801.592 89C803.525 84.2188 806.215 80.0527 809.66 76.502C813.105 72.916 817.078 70.1387 821.578 68.1699C826.113 66.166 830.965 65.1641 836.133 65.1641C841.301 65.1641 846.135 66.166 850.635 68.1699C855.17 70.1387 859.143 72.916 862.553 76.502C865.998 80.0527 868.688 84.2188 870.621 89C872.59 93.7812 873.574 98.9668 873.574 104.557C873.574 110.146 872.59 115.332 870.621 120.113C868.688 124.895 865.998 129.078 862.553 132.664C859.143 136.25 855.17 139.045 850.635 141.049C846.135 143.053 841.301 144.055 836.133 144.055C830.965 144.055 826.113 143.053 821.578 141.049C817.078 139.045 813.105 136.25 809.66 132.664C806.215 129.078 803.525 124.895 801.592 120.113C799.658 115.332 798.691 110.146 798.691 104.557Z" fill="#DFDFDF"/>
<defs>
<filter id="filter0_d_4_22" x="13" y="2" width="163.912" height="194.277" filterUnits="userSpaceOnUse" color-interpolation-filters="sRGB">
<feFlood flood-opacity="0" result="BackgroundImageFix"/>
<feColorMatrix in="SourceAlpha" type="matrix" values="0 0 0 0 0 0 0 0 0 0 0 0 0 0 0 0 0 0 127 0" result="hardAlpha"/>
<feOffset dx="2.1844" dy="3.2766"/>
<feComposite in2="hardAlpha" operator="out"/>
<feColorMatrix type="matrix" values="0 0 0 0 0 0 0 0 0 0 0 0 0 0 0 0 0 0 0.22 0"/>
<feBlend mode="normal" in2="BackgroundImageFix" result="effect1_dropShadow_4_22"/>
<feBlend mode="normal" in="SourceGraphic" in2="effect1_dropShadow_4_22" result="shape"/>
</filter>
<filter id="filter1_i_4_22" x="33.2846" y="80.915" width="120.588" height="69.4908" filterUnits="userSpaceOnUse" color-interpolation-filters="sRGB">
<feFlood flood-opacity="0" result="BackgroundImageFix"/>
<feBlend mode="normal" in="SourceGraphic" in2="BackgroundImageFix" result="shape"/>
<feColorMatrix in="SourceAlpha" type="matrix" values="0 0 0 0 0 0 0 0 0 0 0 0 0 0 0 0 0 0 127 0" result="hardAlpha"/>
<feOffset dx="2.1844" dy="2.1844"/>
<feComposite in2="hardAlpha" operator="arithmetic" k2="-1" k3="1"/>
<feColorMatrix type="matrix" values="0 0 0 0 0 0 0 0 0 0 0 0 0 0 0 0 0 0 0.25 0"/>
<feBlend mode="normal" in2="shape" result="effect1_innerShadow_4_22"/>
</filter>
</defs>
</svg>
