<svg width="1698" height="400" viewBox="0 0 1698 400" fill="none" xmlns="http://www.w3.org/2000/svg">
<rect x="16" y="63" width="303.039" height="307" rx="57" fill="#0051FF"/>
<rect x="16" y="105.336" width="303.027" height="264.603" rx="57" fill="#2267FC"/>
<ellipse cx="102.248" cy="165.464" rx="16.2561" ry="15.4644" fill="#437BF4"/>
<ellipse cx="102.248" cy="165.464" rx="16.2561" ry="15.4644" fill="#437BF4"/>
<ellipse cx="102.248" cy="165.464" rx="16.2561" ry="15.4644" fill="#0046DD"/>
<ellipse cx="232.287" cy="165.464" rx="16.2561" ry="15.4644" fill="#437BF4"/>
<ellipse cx="232.287" cy="165.464" rx="16.2561" ry="15.4644" fill="#437BF4"/>
<ellipse cx="232.287" cy="165.464" rx="16.2561" ry="15.4644" fill="#0046DD"/>
<path d="M110.153 167.675C127.686 251.503 210.908 248.276 226.71 167.675C228.881 162.661 229.701 161.6 235.093 161.6C239.504 163.256 238.868 163.423 240.484 167.675C218.651 278.944 114.702 270.523 96.3786 167.675C96.8088 164.588 98.8294 159.943 104.221 161.6C108.633 161.6 108.633 164.361 110.153 167.675Z" fill="white"/>
<path d="M371.31 298V150.439H398.881V174.456H400.707C403.781 166.322 408.808 159.982 415.789 155.435C422.77 150.823 431.128 148.518 440.863 148.518C450.726 148.518 458.988 150.823 465.649 155.435C472.374 160.046 477.337 166.386 480.539 174.456H482.077C485.599 166.578 491.203 160.302 498.889 155.627C506.574 150.887 515.732 148.518 526.364 148.518C539.75 148.518 550.669 152.713 559.123 161.103C567.641 169.493 571.9 182.142 571.9 199.05V298H543.176V201.74C543.176 191.748 540.454 184.511 535.01 180.028C529.566 175.545 523.066 173.303 515.508 173.303C506.158 173.303 498.889 176.185 493.701 181.949C488.513 187.649 485.919 194.983 485.919 203.949V298H457.291V199.914C457.291 191.909 454.793 185.472 449.798 180.604C444.802 175.737 438.301 173.303 430.296 173.303C424.852 173.303 419.824 174.744 415.213 177.626C410.666 180.444 406.983 184.383 404.165 189.443C401.411 194.502 400.034 200.363 400.034 207.023V298H371.31ZM631.7 301.266C622.349 301.266 613.895 299.537 606.338 296.079C598.781 292.556 592.792 287.465 588.373 280.804C584.018 274.143 581.841 265.977 581.841 256.306C581.841 247.98 583.442 241.128 586.644 235.748C589.846 230.368 594.169 226.109 599.613 222.971C605.057 219.832 611.141 217.463 617.866 215.862C624.591 214.26 631.444 213.044 638.425 212.211C647.263 211.186 654.436 210.354 659.944 209.713C665.452 209.009 669.455 207.888 671.953 206.351C674.451 204.814 675.699 202.316 675.699 198.857V198.185C675.699 189.795 673.33 183.294 668.59 178.683C663.915 174.072 656.934 171.766 647.647 171.766C637.977 171.766 630.355 173.912 624.783 178.203C619.275 182.43 615.465 187.137 613.351 192.325L586.356 186.176C589.558 177.21 594.233 169.973 600.382 164.465C606.594 158.893 613.735 154.858 621.805 152.36C629.875 149.799 638.361 148.518 647.263 148.518C653.155 148.518 659.4 149.222 665.997 150.631C672.657 151.976 678.87 154.474 684.634 158.124C690.462 161.775 695.233 166.995 698.948 173.784C702.663 180.508 704.52 189.251 704.52 200.01V298H676.468V277.826H675.315C673.458 281.54 670.672 285.191 666.957 288.777C663.243 292.364 658.471 295.342 652.643 297.712C646.815 300.081 639.834 301.266 631.7 301.266ZM637.945 278.21C645.886 278.21 652.675 276.641 658.311 273.503C664.011 270.364 668.334 266.265 671.28 261.206C674.29 256.082 675.795 250.606 675.795 244.778V225.757C674.771 226.781 672.785 227.742 669.839 228.639C666.957 229.471 663.659 230.208 659.944 230.848C656.23 231.425 652.611 231.969 649.088 232.481C645.566 232.93 642.62 233.314 640.25 233.634C634.678 234.339 629.587 235.524 624.975 237.189C620.428 238.854 616.778 241.256 614.024 244.394C611.334 247.468 609.989 251.567 609.989 256.691C609.989 263.8 612.615 269.179 617.866 272.83C623.118 276.417 629.811 278.21 637.945 278.21ZM783.293 300.978C769.011 300.978 756.714 297.744 746.403 291.275C736.156 284.743 728.278 275.744 722.77 264.28C717.262 252.816 714.508 239.687 714.508 224.892C714.508 209.905 717.326 196.68 722.962 185.216C728.598 173.688 736.54 164.689 746.787 158.221C757.034 151.752 769.107 148.518 783.005 148.518C794.213 148.518 804.204 150.599 812.978 154.762C821.752 158.861 828.829 164.625 834.209 172.054C839.653 179.484 842.887 188.162 843.912 198.089H815.956C814.419 191.172 810.897 185.216 805.389 180.22C799.945 175.225 792.644 172.727 783.485 172.727C775.48 172.727 768.467 174.84 762.446 179.067C756.49 183.23 751.847 189.187 748.516 196.936C745.186 204.622 743.521 213.716 743.521 224.22C743.521 234.979 745.154 244.266 748.42 252.079C751.687 259.893 756.298 265.945 762.254 270.236C768.274 274.527 775.351 276.673 783.485 276.673C788.929 276.673 793.861 275.68 798.28 273.695C802.763 271.645 806.51 268.731 809.52 264.952C812.594 261.174 814.739 256.627 815.956 251.311H843.912C842.887 260.854 839.781 269.372 834.594 276.865C829.406 284.358 822.457 290.25 813.747 294.542C805.101 298.833 794.949 300.978 783.293 300.978ZM852.988 353.335V150.439H881.04V174.36H883.441C885.107 171.286 887.508 167.731 890.647 163.696C893.785 159.662 898.14 156.139 903.712 153.129C909.284 150.055 916.649 148.518 925.808 148.518C937.72 148.518 948.352 151.528 957.702 157.548C967.053 163.568 974.386 172.247 979.702 183.583C985.082 194.919 987.772 208.56 987.772 224.508C987.772 240.455 985.114 254.129 979.798 265.529C974.482 276.865 967.181 285.607 957.894 291.756C948.608 297.84 938.008 300.882 926.096 300.882C917.129 300.882 909.796 299.377 904.096 296.367C898.46 293.357 894.041 289.834 890.839 285.799C887.636 281.764 885.171 278.178 883.441 275.04H881.712V353.335H852.988ZM881.136 224.22C881.136 234.595 882.641 243.689 885.651 251.503C888.661 259.316 893.016 265.433 898.716 269.852C904.416 274.207 911.397 276.385 919.659 276.385C928.241 276.385 935.414 274.111 941.179 269.564C946.943 264.952 951.298 258.708 954.244 250.83C957.254 242.953 958.759 234.083 958.759 224.22C958.759 214.485 957.286 205.742 954.34 197.993C951.458 190.243 947.103 184.127 941.275 179.644C935.51 175.161 928.305 172.919 919.659 172.919C911.333 172.919 904.288 175.065 898.524 179.356C892.824 183.647 888.501 189.635 885.555 197.32C882.609 205.006 881.136 213.972 881.136 224.22ZM998.312 298V150.439H1026.08V173.88H1027.61C1030.3 165.938 1035.04 159.694 1041.83 155.146C1048.68 150.535 1056.43 148.229 1065.08 148.229C1066.87 148.229 1068.99 148.293 1071.42 148.422C1073.92 148.55 1075.87 148.71 1077.28 148.902V176.377C1076.13 176.057 1074.08 175.705 1071.13 175.321C1068.19 174.872 1065.24 174.648 1062.29 174.648C1055.5 174.648 1049.45 176.089 1044.14 178.971C1038.89 181.789 1034.72 185.728 1031.65 190.788C1028.57 195.783 1027.04 201.483 1027.04 207.888V298H998.312ZM1138.81 300.978C1124.27 300.978 1111.75 297.872 1101.25 291.659C1090.81 285.383 1082.74 276.577 1077.04 265.241C1071.4 253.841 1068.58 240.487 1068.58 225.18C1068.58 210.065 1071.4 196.744 1077.04 185.216C1082.74 173.688 1090.68 164.689 1100.86 158.221C1111.11 151.752 1123.09 148.518 1136.79 148.518C1145.12 148.518 1153.19 149.895 1161 152.649C1168.81 155.403 1175.83 159.726 1182.04 165.618C1188.25 171.51 1193.15 179.163 1196.74 188.578C1200.33 197.929 1202.12 209.297 1202.12 222.682V232.866H1084.82V211.346H1173.97C1173.97 203.789 1172.43 197.096 1169.36 191.268C1166.28 185.376 1161.96 180.733 1156.39 177.338C1150.88 173.944 1144.41 172.247 1136.98 172.247C1128.91 172.247 1121.87 174.232 1115.85 178.203C1109.89 182.11 1105.28 187.233 1102.02 193.574C1098.81 199.85 1097.21 206.671 1097.21 214.036V230.848C1097.21 240.711 1098.94 249.101 1102.4 256.018C1105.92 262.935 1110.82 268.219 1117.1 271.869C1123.37 275.456 1130.71 277.249 1139.1 277.249C1144.54 277.249 1149.51 276.481 1153.99 274.944C1158.47 273.342 1162.35 270.973 1165.61 267.835C1168.88 264.696 1171.38 260.822 1173.11 256.21L1200.29 261.11C1198.12 269.115 1194.21 276.128 1188.57 282.149C1183 288.105 1175.99 292.748 1167.53 296.079C1159.14 299.345 1149.57 300.978 1138.81 300.978ZM1212.35 298V150.439H1239.92V174.456H1241.74C1244.82 166.322 1249.85 159.982 1256.83 155.435C1263.81 150.823 1272.17 148.518 1281.9 148.518C1291.76 148.518 1300.03 150.823 1306.69 155.435C1313.41 160.046 1318.37 166.386 1321.58 174.456H1323.11C1326.64 166.578 1332.24 160.302 1339.93 155.627C1347.61 150.887 1356.77 148.518 1367.4 148.518C1380.79 148.518 1391.71 152.713 1400.16 161.103C1408.68 169.493 1412.94 182.142 1412.94 199.05V298H1384.21V201.74C1384.21 191.748 1381.49 184.511 1376.05 180.028C1370.6 175.545 1364.1 173.303 1356.55 173.303C1347.19 173.303 1339.93 176.185 1334.74 181.949C1329.55 187.649 1326.96 194.983 1326.96 203.949V298H1298.33V199.914C1298.33 191.909 1295.83 185.472 1290.83 180.604C1285.84 175.737 1279.34 173.303 1271.33 173.303C1265.89 173.303 1260.86 174.744 1256.25 177.626C1251.7 180.444 1248.02 184.383 1245.2 189.443C1242.45 194.502 1241.07 200.363 1241.07 207.023V298H1212.35ZM1429.79 298V150.439H1458.52V298H1429.79ZM1444.3 127.671C1439.31 127.671 1435.01 126.006 1431.43 122.675C1427.91 119.281 1426.14 115.246 1426.14 110.571C1426.14 105.831 1427.91 101.796 1431.43 98.466C1435.01 95.0716 1439.31 93.3744 1444.3 93.3744C1449.3 93.3744 1453.56 95.0716 1457.08 98.466C1460.66 101.796 1462.46 105.831 1462.46 110.571C1462.46 115.246 1460.66 119.281 1457.08 122.675C1453.56 126.006 1449.3 127.671 1444.3 127.671ZM1539.12 300.978C1524.58 300.978 1512.06 297.872 1501.55 291.659C1491.12 285.383 1483.05 276.577 1477.35 265.241C1471.71 253.841 1468.89 240.487 1468.89 225.18C1468.89 210.065 1471.71 196.744 1477.35 185.216C1483.05 173.688 1490.99 164.689 1501.17 158.221C1511.42 151.752 1523.39 148.518 1537.1 148.518C1545.43 148.518 1553.5 149.895 1561.31 152.649C1569.12 155.403 1576.14 159.726 1582.35 165.618C1588.56 171.51 1593.46 179.163 1597.05 188.578C1600.63 197.929 1602.43 209.297 1602.43 222.682V232.866H1485.13V211.346H1574.28C1574.28 203.789 1572.74 197.096 1569.67 191.268C1566.59 185.376 1562.27 180.733 1556.7 177.338C1551.19 173.944 1544.72 172.247 1537.29 172.247C1529.22 172.247 1522.18 174.232 1516.16 178.203C1510.2 182.11 1505.59 187.233 1502.32 193.574C1499.12 199.85 1497.52 206.671 1497.52 214.036V230.848C1497.52 240.711 1499.25 249.101 1502.71 256.018C1506.23 262.935 1511.13 268.219 1517.41 271.869C1523.68 275.456 1531.02 277.249 1539.41 277.249C1544.85 277.249 1549.81 276.481 1554.3 274.944C1558.78 273.342 1562.65 270.973 1565.92 267.835C1569.19 264.696 1571.68 260.822 1573.41 256.21L1600.6 261.11C1598.42 269.115 1594.52 276.128 1588.88 282.149C1583.31 288.105 1576.3 292.748 1567.84 296.079C1559.45 299.345 1549.88 300.978 1539.12 300.978ZM1612.65 298V150.439H1640.42V173.88H1641.96C1644.65 165.938 1649.39 159.694 1656.17 155.146C1663.03 150.535 1670.78 148.229 1679.42 148.229C1681.22 148.229 1683.33 148.293 1685.76 148.422C1688.26 148.55 1690.21 148.71 1691.62 148.902V176.377C1690.47 176.057 1688.42 175.705 1685.47 175.321C1682.53 174.872 1679.58 174.648 1676.64 174.648C1669.85 174.648 1663.8 176.089 1658.48 178.971C1653.23 181.789 1649.06 185.728 1645.99 190.788C1642.92 195.783 1641.38 201.483 1641.38 207.888V298H1612.65Z" fill="white"/>
</svg>
