<svg width="1698" height="400" viewBox="0 0 1698 400" fill="none" xmlns="http://www.w3.org/2000/svg">
<path d="M370.599 293V139.409H393.397V163.408H395.397C398.597 155.208 403.763 148.842 410.896 144.309C418.029 139.709 426.595 137.41 436.595 137.41C446.727 137.41 455.16 139.709 461.893 144.309C468.693 148.842 473.992 155.208 477.792 163.408H479.392C483.325 155.475 489.225 149.175 497.091 144.509C504.957 139.776 514.39 137.41 525.389 137.41C539.122 137.41 550.354 141.709 559.087 150.309C567.82 158.842 572.186 172.141 572.186 190.206V293H548.588V190.206C548.588 178.874 545.488 170.774 539.288 165.908C533.089 161.041 525.789 158.608 517.39 158.608C506.59 158.608 498.224 161.875 492.291 168.408C486.358 174.874 483.392 183.073 483.392 193.006V293H459.393V187.806C459.393 179.074 456.56 172.041 450.894 166.708C445.227 161.308 437.928 158.608 428.995 158.608C422.862 158.608 417.129 160.241 411.796 163.508C406.53 166.774 402.263 171.307 398.997 177.107C395.797 182.84 394.197 189.473 394.197 197.006V293H370.599ZM635.188 296.6C625.456 296.6 616.623 294.767 608.69 291.1C600.757 287.367 594.458 282.001 589.791 275.001C585.125 267.935 582.792 259.402 582.792 249.403C582.792 240.603 584.525 233.47 587.991 228.004C591.458 222.471 596.091 218.138 601.891 215.005C607.69 211.872 614.09 209.538 621.089 208.005C628.156 206.405 635.255 205.139 642.388 204.205C651.721 203.006 659.287 202.106 665.087 201.506C670.953 200.839 675.219 199.739 677.886 198.206C680.619 196.673 681.986 194.006 681.986 190.206V189.406C681.986 179.54 679.286 171.874 673.886 166.408C668.553 160.941 660.454 158.208 649.588 158.208C638.322 158.208 629.489 160.675 623.089 165.608C616.69 170.541 612.19 175.807 609.59 181.407L587.191 173.407C591.191 164.075 596.524 156.808 603.19 151.609C609.923 146.342 617.256 142.676 625.189 140.609C633.189 138.476 641.055 137.41 648.788 137.41C653.721 137.41 659.387 138.009 665.787 139.209C672.253 140.343 678.486 142.709 684.485 146.309C690.552 149.909 695.585 155.342 699.585 162.608C703.584 169.874 705.584 179.607 705.584 191.806V293H681.986V272.201H680.786C679.186 275.534 676.519 279.101 672.786 282.901C669.053 286.7 664.087 289.934 657.887 292.6C651.687 295.267 644.121 296.6 635.188 296.6ZM638.788 275.401C648.121 275.401 655.987 273.568 662.387 269.901C668.853 266.235 673.719 261.502 676.986 255.702C680.319 249.903 681.986 243.803 681.986 237.403V215.805C680.986 217.005 678.786 218.105 675.386 219.105C672.053 220.038 668.186 220.871 663.787 221.604C659.454 222.271 655.221 222.871 651.088 223.404C647.021 223.871 643.721 224.271 641.188 224.604C635.055 225.404 629.322 226.704 623.989 228.504C618.723 230.237 614.456 232.87 611.19 236.403C607.99 239.87 606.39 244.603 606.39 250.603C606.39 258.802 609.423 265.002 615.49 269.201C621.623 273.335 629.389 275.401 638.788 275.401ZM785.71 296.2C771.311 296.2 758.912 292.8 748.513 286C738.113 279.201 730.114 269.835 724.514 257.902C718.914 245.97 716.115 232.337 716.115 217.005C716.115 201.406 718.981 187.64 724.714 175.707C730.514 163.708 738.58 154.342 748.913 147.609C759.312 140.809 771.444 137.41 785.31 137.41C796.11 137.41 805.842 139.409 814.508 143.409C823.175 147.409 830.274 153.009 835.807 160.208C841.34 167.408 844.773 175.807 846.107 185.407H822.508C820.708 178.407 816.708 172.207 810.509 166.808C804.376 161.341 796.11 158.608 785.71 158.608C776.511 158.608 768.445 161.008 761.512 165.808C754.645 170.541 749.279 177.24 745.413 185.907C741.613 194.506 739.713 204.605 739.713 216.205C739.713 228.071 741.58 238.403 745.313 247.203C749.112 256.002 754.446 262.835 761.312 267.702C768.245 272.568 776.377 275.001 785.71 275.001C791.843 275.001 797.41 273.935 802.409 271.801C807.409 269.668 811.642 266.602 815.108 262.602C818.575 258.602 821.041 253.802 822.508 248.203H846.107C844.773 257.269 841.474 265.435 836.207 272.701C831.007 279.901 824.108 285.634 815.508 289.9C806.976 294.1 797.043 296.2 785.71 296.2ZM855.262 350.596V139.409H878.061V163.808H880.86C882.594 161.141 884.994 157.742 888.06 153.609C891.193 149.409 895.66 145.676 901.459 142.409C907.325 139.076 915.258 137.41 925.258 137.41C938.19 137.41 949.59 140.643 959.456 147.109C969.322 153.575 977.021 162.741 982.554 174.607C988.087 186.473 990.854 200.472 990.854 216.605C990.854 232.87 988.087 246.969 982.554 258.902C977.021 270.768 969.355 279.967 959.556 286.5C949.756 292.967 938.457 296.2 925.658 296.2C915.792 296.2 907.892 294.567 901.959 291.3C896.026 287.967 891.46 284.201 888.26 280.001C885.06 275.734 882.594 272.201 880.86 269.401H878.861V350.596H855.262ZM878.461 216.205C878.461 227.804 880.16 238.037 883.56 246.903C886.96 255.702 891.926 262.602 898.459 267.602C904.992 272.535 912.992 275.001 922.458 275.001C932.324 275.001 940.557 272.401 947.156 267.202C953.823 261.935 958.822 254.869 962.155 246.003C965.555 237.07 967.255 227.137 967.255 216.205C967.255 205.405 965.589 195.673 962.255 187.006C958.989 178.274 954.023 171.374 947.356 166.308C940.757 161.175 932.457 158.608 922.458 158.608C912.858 158.608 904.792 161.041 898.259 165.908C891.726 170.707 886.793 177.44 883.46 186.107C880.127 194.706 878.461 204.739 878.461 216.205ZM1001.51 293V139.409H1024.31V162.608H1025.91C1028.71 155.008 1033.77 148.842 1041.11 144.109C1048.44 139.376 1056.71 137.01 1065.91 137.01C1067.64 137.01 1069.8 137.043 1072.4 137.11C1075 137.176 1076.97 137.276 1078.3 137.41V161.408C1077.5 161.208 1075.67 160.908 1072.8 160.508C1070 160.041 1067.04 159.808 1063.91 159.808C1056.44 159.808 1049.77 161.375 1043.91 164.508C1038.11 167.574 1033.51 171.841 1030.11 177.307C1026.77 182.707 1025.11 188.873 1025.11 195.806V293H1001.51ZM1140.66 296.2C1125.86 296.2 1113.09 292.933 1102.36 286.4C1091.69 279.801 1083.46 270.601 1077.66 258.802C1071.93 246.936 1069.06 233.137 1069.06 217.405C1069.06 201.672 1071.93 187.806 1077.66 175.807C1083.46 163.741 1091.53 154.342 1101.86 147.609C1112.26 140.809 1124.39 137.41 1138.26 137.41C1146.26 137.41 1154.16 138.743 1161.96 141.409C1169.75 144.076 1176.85 148.409 1183.25 154.408C1189.65 160.341 1194.75 168.208 1198.55 178.007C1202.35 187.806 1204.25 199.872 1204.25 214.205V224.204H1085.86V203.805H1180.25C1180.25 195.139 1178.52 187.406 1175.05 180.607C1171.65 173.807 1166.79 168.441 1160.46 164.508C1154.19 160.575 1146.79 158.608 1138.26 158.608C1128.86 158.608 1120.72 160.941 1113.86 165.608C1107.06 170.208 1101.83 176.207 1098.16 183.607C1094.49 191.006 1092.66 198.939 1092.66 207.405V221.004C1092.66 232.604 1094.66 242.436 1098.66 250.503C1102.73 258.502 1108.36 264.602 1115.56 268.801C1122.76 272.935 1131.12 275.001 1140.66 275.001C1146.86 275.001 1152.46 274.134 1157.46 272.401C1162.52 270.601 1166.89 267.935 1170.55 264.402C1174.22 260.802 1177.05 256.336 1179.05 251.003L1201.85 257.402C1199.45 265.135 1195.42 271.935 1189.75 277.801C1184.09 283.601 1177.09 288.134 1168.75 291.4C1160.42 294.6 1151.06 296.2 1140.66 296.2ZM1214.81 293V139.409H1237.61V163.408H1239.61C1242.81 155.208 1247.97 148.842 1255.11 144.309C1262.24 139.709 1270.8 137.41 1280.8 137.41C1290.94 137.41 1299.37 139.709 1306.1 144.309C1312.9 148.842 1318.2 155.208 1322 163.408H1323.6C1327.53 155.475 1333.43 149.175 1341.3 144.509C1349.17 139.776 1358.6 137.41 1369.6 137.41C1383.33 137.41 1394.56 141.709 1403.3 150.309C1412.03 158.842 1416.4 172.141 1416.4 190.206V293H1392.8V190.206C1392.8 178.874 1389.7 170.774 1383.5 165.908C1377.3 161.041 1370 158.608 1361.6 158.608C1350.8 158.608 1342.43 161.875 1336.5 168.408C1330.57 174.874 1327.6 183.073 1327.6 193.006V293H1303.6V187.806C1303.6 179.074 1300.77 172.041 1295.1 166.708C1289.44 161.308 1282.14 158.608 1273.2 158.608C1267.07 158.608 1261.34 160.241 1256.01 163.508C1250.74 166.774 1246.47 171.307 1243.21 177.107C1240.01 182.84 1238.41 189.473 1238.41 197.006V293H1214.81ZM1434.2 293V139.409H1457.8V293H1434.2ZM1446.2 113.811C1441.6 113.811 1437.63 112.244 1434.3 109.111C1431.03 105.978 1429.4 102.212 1429.4 97.8119C1429.4 93.4122 1431.03 89.6458 1434.3 86.5126C1437.63 83.3795 1441.6 81.8129 1446.2 81.8129C1450.8 81.8129 1454.73 83.3795 1458 86.5126C1461.33 89.6458 1463 93.4122 1463 97.8119C1463 102.212 1461.33 105.978 1458 109.111C1454.73 112.244 1450.8 113.811 1446.2 113.811ZM1540.08 296.2C1525.28 296.2 1512.51 292.933 1501.78 286.4C1491.11 279.801 1482.88 270.601 1477.08 258.802C1471.35 246.936 1468.48 233.137 1468.48 217.405C1468.48 201.672 1471.35 187.806 1477.08 175.807C1482.88 163.741 1490.94 154.342 1501.28 147.609C1511.68 140.809 1523.81 137.41 1537.68 137.41C1545.67 137.41 1553.57 138.743 1561.37 141.409C1569.17 144.076 1576.27 148.409 1582.67 154.408C1589.07 160.341 1594.17 168.208 1597.97 178.007C1601.77 187.806 1603.67 199.872 1603.67 214.205V224.204H1485.28V203.805H1579.67C1579.67 195.139 1577.94 187.406 1574.47 180.607C1571.07 173.807 1566.21 168.441 1559.87 164.508C1553.61 160.575 1546.21 158.608 1537.68 158.608C1528.28 158.608 1520.14 160.941 1513.28 165.608C1506.48 170.208 1501.24 176.207 1497.58 183.607C1493.91 191.006 1492.08 198.939 1492.08 207.405V221.004C1492.08 232.604 1494.08 242.436 1498.08 250.503C1502.14 258.502 1507.78 264.602 1514.98 268.801C1522.18 272.935 1530.54 275.001 1540.08 275.001C1546.27 275.001 1551.87 274.134 1556.87 272.401C1561.94 270.601 1566.31 267.935 1569.97 264.402C1573.64 260.802 1576.47 256.336 1578.47 251.003L1601.27 257.402C1598.87 265.135 1594.84 271.935 1589.17 277.801C1583.51 283.601 1576.51 288.134 1568.17 291.4C1559.84 294.6 1550.47 296.2 1540.08 296.2ZM1614.23 293V139.409H1637.03V162.608H1638.62C1641.42 155.008 1646.49 148.842 1653.82 144.109C1661.16 139.376 1669.42 137.01 1678.62 137.01C1680.36 137.01 1682.52 137.043 1685.12 137.11C1687.72 137.176 1689.69 137.276 1691.02 137.41V161.408C1690.22 161.208 1688.39 160.908 1685.52 160.508C1682.72 160.041 1679.76 159.808 1676.62 159.808C1669.16 159.808 1662.49 161.375 1656.62 164.508C1650.82 167.574 1646.22 171.841 1642.82 177.307C1639.49 182.707 1637.83 188.873 1637.83 195.806V293H1614.23Z" fill="white"/>
<rect x="7" y="45" width="300.317" height="309" rx="34" fill="url(#paint0_linear_855_85)" stroke="white" stroke-width="14"/>
<path d="M84.2059 100C106.106 256.541 210.057 250.516 229.794 100L247 100C219.728 307.786 89.8875 292.059 67 100L84.2059 100Z" fill="white"/>
<ellipse cx="76.5" cy="99.8099" rx="19.5" ry="19.8099" fill="white"/>
<ellipse cx="237.5" cy="99.8099" rx="19.5" ry="19.8099" fill="white"/>
<defs>
<linearGradient id="paint0_linear_855_85" x1="157.159" y1="38" x2="157.159" y2="361" gradientUnits="userSpaceOnUse">
<stop stop-color="#0B58FF"/>
<stop offset="1" stop-color="#0043D4"/>
</linearGradient>
</defs>
</svg>
