<svg width="1698" height="400" viewBox="0 0 1698 400" fill="none" xmlns="http://www.w3.org/2000/svg">
<rect x="13.5547" y="25.2754" width="301.443" height="301.443" rx="57.9241" fill="url(#paint0_linear_852_20)" stroke="white" stroke-width="10"/>
<g filter="url(#filter0_d_852_20)">
<path d="M86.9508 277.795L66.0203 256.75L192.862 129.68H95.6433L95.872 100.744H242.843V247.829H213.678L213.906 150.611L86.9508 277.795Z" fill="url(#paint1_linear_852_20)" shape-rendering="crispEdges"/>
</g>
<g filter="url(#filter1_d_852_20)">
<path d="M373.03 253.932V100.866H401.63V125.779H403.524C406.713 117.342 411.928 110.765 419.169 106.048C426.41 101.264 435.08 98.8727 445.178 98.8727C455.409 98.8727 463.979 101.264 470.889 106.048C477.864 110.831 483.013 117.408 486.335 125.779H487.929C491.583 117.607 497.396 111.097 505.368 106.247C513.34 101.331 522.841 98.8727 533.869 98.8727C547.754 98.8727 559.081 103.224 567.85 111.927C576.686 120.63 581.104 133.751 581.104 151.29V253.932H551.308V154.08C551.308 143.716 548.485 136.209 542.838 131.559C537.191 126.908 530.447 124.583 522.608 124.583C512.909 124.583 505.368 127.573 499.987 133.552C494.606 139.464 491.915 147.071 491.915 156.372V253.932H462.219V152.187C462.219 143.882 459.628 137.206 454.446 132.157C449.264 127.108 442.521 124.583 434.217 124.583C428.57 124.583 423.354 126.078 418.571 129.067C413.854 131.991 410.034 136.076 407.111 141.325C404.254 146.573 402.826 152.652 402.826 159.561V253.932H373.03ZM637.522 257.32C627.823 257.32 619.053 255.526 611.214 251.939C603.375 248.285 597.163 243.003 592.579 236.094C588.061 229.185 585.803 220.714 585.803 210.683C585.803 202.046 587.463 194.938 590.785 189.357C594.107 183.776 598.591 179.359 604.238 176.103C609.885 172.848 616.197 170.39 623.172 168.729C630.148 167.068 637.256 165.806 644.498 164.942C653.666 163.879 661.106 163.016 666.82 162.351C672.533 161.62 676.685 160.458 679.276 158.863C681.867 157.269 683.163 154.678 683.163 151.091V150.393C683.163 141.69 680.705 134.947 675.789 130.164C670.939 125.38 663.697 122.989 654.064 122.989C644.033 122.989 636.127 125.214 630.347 129.665C624.634 134.05 620.681 138.933 618.489 144.314L590.486 137.936C593.808 128.636 598.658 121.128 605.035 115.415C611.48 109.635 618.887 105.45 627.258 102.859C635.629 100.201 644.431 98.8727 653.666 98.8727C659.778 98.8727 666.255 99.6035 673.098 101.065C680.007 102.46 686.451 105.051 692.431 108.838C698.476 112.625 703.425 118.039 707.279 125.081C711.132 132.057 713.059 141.125 713.059 152.286V253.932H683.96V233.005H682.764C680.838 236.858 677.948 240.645 674.094 244.365C670.241 248.085 665.292 251.175 659.246 253.633C653.201 256.091 645.959 257.32 637.522 257.32ZM644 233.403C652.237 233.403 659.28 231.776 665.126 228.52C671.038 225.265 675.523 221.013 678.579 215.765C681.701 210.45 683.263 204.77 683.263 198.724V178.993C682.2 180.056 680.14 181.053 677.084 181.983C674.094 182.846 670.673 183.61 666.82 184.275C662.967 184.873 659.213 185.437 655.559 185.969C651.905 186.434 648.849 186.832 646.391 187.165C640.611 187.895 635.33 189.124 630.546 190.852C625.83 192.579 622.043 195.07 619.186 198.326C616.396 201.515 615.001 205.766 615.001 211.081C615.001 218.455 617.725 224.036 623.172 227.823C628.62 231.543 635.562 233.403 644 233.403ZM789.158 257.021C774.343 257.021 761.588 253.666 750.892 246.956C740.262 240.18 732.09 230.846 726.377 218.954C720.664 207.062 717.807 193.443 717.807 178.096C717.807 162.551 720.73 148.832 726.576 136.94C732.423 124.982 740.661 115.648 751.29 108.938C761.92 102.228 774.443 98.8727 788.859 98.8727C800.485 98.8727 810.849 101.032 819.951 105.35C829.052 109.602 836.393 115.581 841.974 123.288C847.621 130.994 850.976 139.996 852.039 150.293H823.04C821.445 143.118 817.791 136.94 812.078 131.758C806.431 126.576 798.857 123.985 789.357 123.985C781.053 123.985 773.778 126.177 767.533 130.562C761.355 134.88 756.538 141.059 753.084 149.097C749.629 157.07 747.902 166.503 747.902 177.399C747.902 188.56 749.596 198.193 752.984 206.298C756.372 214.403 761.156 220.681 767.334 225.132C773.579 229.583 780.92 231.809 789.357 231.809C795.004 231.809 800.12 230.779 804.704 228.72C809.354 226.594 813.241 223.571 816.363 219.651C819.552 215.732 821.777 211.015 823.04 205.501H852.039C850.976 215.399 847.753 224.235 842.372 232.008C836.991 239.781 829.783 245.893 820.748 250.344C811.779 254.795 801.249 257.021 789.158 257.021ZM855.84 311.331V100.866H884.939V125.679H887.43C889.157 122.49 891.649 118.803 894.904 114.618C898.159 110.432 902.677 106.778 908.457 103.656C914.237 100.467 921.877 98.8727 931.377 98.8727C943.734 98.8727 954.762 101.995 964.461 108.24C974.161 114.485 981.768 123.487 987.282 135.246C992.862 147.005 995.652 161.155 995.652 177.698C995.652 194.24 992.895 208.424 987.381 220.249C981.867 232.008 974.294 241.077 964.661 247.454C955.027 253.766 944.033 256.921 931.676 256.921C922.375 256.921 914.768 255.36 908.855 252.238C903.009 249.115 898.425 245.461 895.103 241.276C891.782 237.09 889.224 233.37 887.43 230.115H885.636V311.331H855.84ZM885.038 177.399C885.038 188.161 886.6 197.595 889.722 205.7C892.844 213.805 897.362 220.15 903.275 224.734C909.187 229.251 916.429 231.51 924.999 231.51C933.901 231.51 941.342 229.151 947.321 224.435C953.3 219.651 957.818 213.174 960.874 205.002C963.996 196.831 965.557 187.63 965.557 177.399C965.557 167.301 964.029 158.232 960.973 150.194C957.984 142.155 953.466 135.811 947.421 131.16C941.442 126.51 933.968 124.184 924.999 124.184C916.362 124.184 909.055 126.41 903.075 130.861C897.163 135.312 892.678 141.524 889.622 149.496C886.566 157.468 885.038 166.769 885.038 177.399ZM1000.97 253.932V100.866H1029.77V125.181H1031.37C1034.16 116.943 1039.07 110.466 1046.12 105.749C1053.22 100.965 1061.26 98.5738 1070.23 98.5738C1072.09 98.5738 1074.28 98.6402 1076.81 98.7731C1079.4 98.906 1081.43 99.072 1082.89 99.2714V127.772C1081.69 127.44 1079.57 127.074 1076.51 126.676C1073.45 126.211 1070.4 125.978 1067.34 125.978C1060.3 125.978 1054.02 127.473 1048.51 130.463C1043.06 133.386 1038.74 137.471 1035.55 142.72C1032.36 147.902 1030.77 153.814 1030.77 160.458V253.932H1000.97ZM1141.1 257.021C1126.02 257.021 1113.03 253.799 1102.14 247.355C1091.31 240.844 1082.94 231.709 1077.02 219.95C1071.18 208.125 1068.25 194.273 1068.25 178.395C1068.25 162.717 1071.18 148.898 1077.02 136.94C1082.94 124.982 1091.17 115.648 1101.74 108.938C1112.37 102.228 1124.79 98.8727 1139.01 98.8727C1147.64 98.8727 1156.01 100.301 1164.12 103.158C1172.22 106.014 1179.5 110.499 1185.94 116.611C1192.39 122.723 1197.47 130.662 1201.19 140.428C1204.91 150.127 1206.77 161.919 1206.77 175.804V186.367H1085.1V164.045H1177.57C1177.57 156.206 1175.98 149.264 1172.79 143.218C1169.6 137.106 1165.12 132.289 1159.34 128.768C1153.62 125.247 1146.91 123.487 1139.21 123.487C1130.84 123.487 1123.53 125.546 1117.28 129.665C1111.1 133.718 1106.32 139.033 1102.93 145.61C1099.61 152.12 1097.95 159.196 1097.95 166.836V184.275C1097.95 194.506 1099.74 203.209 1103.33 210.384C1106.99 217.559 1112.07 223.039 1118.58 226.826C1125.09 230.547 1132.7 232.407 1141.4 232.407C1147.05 232.407 1152.19 231.61 1156.84 230.015C1161.5 228.354 1165.51 225.896 1168.9 222.641C1172.29 219.386 1174.88 215.366 1176.68 210.583L1204.88 215.665C1202.62 223.97 1198.57 231.244 1192.72 237.489C1186.94 243.667 1179.67 248.484 1170.9 251.939C1162.19 255.327 1152.26 257.021 1141.1 257.021ZM1211.77 253.932V100.866H1240.37V125.779H1242.26C1245.45 117.342 1250.67 110.765 1257.91 106.048C1265.15 101.264 1273.82 98.8727 1283.92 98.8727C1294.15 98.8727 1302.72 101.264 1309.63 106.048C1316.6 110.831 1321.75 117.408 1325.07 125.779H1326.67C1330.32 117.607 1336.13 111.097 1344.11 106.247C1352.08 101.331 1361.58 98.8727 1372.61 98.8727C1386.49 98.8727 1397.82 103.224 1406.59 111.927C1415.42 120.63 1419.84 133.751 1419.84 151.29V253.932H1390.05V154.08C1390.05 143.716 1387.22 136.209 1381.58 131.559C1375.93 126.908 1369.19 124.583 1361.35 124.583C1351.65 124.583 1344.11 127.573 1338.73 133.552C1333.34 139.464 1330.65 147.071 1330.65 156.372V253.932H1300.96V152.187C1300.96 143.882 1298.37 137.206 1293.18 132.157C1288 127.108 1281.26 124.583 1272.95 124.583C1267.31 124.583 1262.09 126.078 1257.31 129.067C1252.59 131.991 1248.77 136.076 1245.85 141.325C1242.99 146.573 1241.56 152.652 1241.56 159.561V253.932H1211.77ZM1431.72 253.932V100.866H1461.51V253.932H1431.72ZM1446.76 77.2482C1441.58 77.2482 1437.13 75.5209 1433.41 72.0663C1429.76 68.5452 1427.93 64.3598 1427.93 59.5101C1427.93 54.5939 1429.76 50.4085 1433.41 46.9539C1437.13 43.4329 1441.58 41.6723 1446.76 41.6723C1451.95 41.6723 1456.36 43.4329 1460.02 46.9539C1463.74 50.4085 1465.6 54.5939 1465.6 59.5101C1465.6 64.3598 1463.74 68.5452 1460.02 72.0663C1456.36 75.5209 1451.95 77.2482 1446.76 77.2482ZM1539.5 257.021C1524.42 257.021 1511.44 253.799 1500.54 247.355C1489.71 240.844 1481.34 231.709 1475.43 219.95C1469.58 208.125 1466.66 194.273 1466.66 178.395C1466.66 162.717 1469.58 148.898 1475.43 136.94C1481.34 124.982 1489.58 115.648 1500.14 108.938C1510.77 102.228 1523.19 98.8727 1537.41 98.8727C1546.05 98.8727 1554.42 100.301 1562.52 103.158C1570.63 106.014 1577.9 110.499 1584.35 116.611C1590.79 122.723 1595.87 130.662 1599.59 140.428C1603.32 150.127 1605.18 161.919 1605.18 175.804V186.367H1483.5V164.045H1575.98C1575.98 156.206 1574.38 149.264 1571.19 143.218C1568.01 137.106 1563.52 132.289 1557.74 128.768C1552.03 125.247 1545.32 123.487 1537.61 123.487C1529.24 123.487 1521.93 125.546 1515.69 129.665C1509.51 133.718 1504.73 139.033 1501.34 145.61C1498.02 152.12 1496.36 159.196 1496.36 166.836V184.275C1496.36 194.506 1498.15 203.209 1501.74 210.384C1505.39 217.559 1510.47 223.039 1516.98 226.826C1523.49 230.547 1531.1 232.407 1539.8 232.407C1545.45 232.407 1550.6 231.61 1555.25 230.015C1559.9 228.354 1563.92 225.896 1567.31 222.641C1570.7 219.386 1573.29 215.366 1575.08 210.583L1603.28 215.665C1601.02 223.97 1596.97 231.244 1591.12 237.489C1585.34 243.667 1578.07 248.484 1569.3 251.939C1560.6 255.327 1550.67 257.021 1539.5 257.021ZM1610.17 253.932V100.866H1638.97V125.181H1640.57C1643.36 116.943 1648.27 110.466 1655.32 105.749C1662.42 100.965 1670.46 98.5738 1679.43 98.5738C1681.29 98.5738 1683.48 98.6402 1686.01 98.7731C1688.6 98.906 1690.63 99.072 1692.09 99.2714V127.772C1690.89 127.44 1688.77 127.074 1685.71 126.676C1682.65 126.211 1679.6 125.978 1676.54 125.978C1669.5 125.978 1663.22 127.473 1657.71 130.463C1652.26 133.386 1647.94 137.471 1644.75 142.72C1641.56 147.902 1639.97 153.814 1639.97 160.458V253.932H1610.17Z" fill="white"/>
</g>
<defs>
<filter id="filter0_d_852_20" x="49.1752" y="87.309" width="213.462" height="213.692" filterUnits="userSpaceOnUse" color-interpolation-filters="sRGB">
<feFlood flood-opacity="0" result="BackgroundImageFix"/>
<feColorMatrix in="SourceAlpha" type="matrix" values="0 0 0 0 0 0 0 0 0 0 0 0 0 0 0 0 0 0 127 0" result="hardAlpha"/>
<feOffset dx="1.47243" dy="4.8855"/>
<feGaussianBlur stdDeviation="9.16032"/>
<feComposite in2="hardAlpha" operator="out"/>
<feColorMatrix type="matrix" values="0 0 0 0 0 0 0 0 0 0 0 0 0 0 0 0 0 0 0.29 0"/>
<feBlend mode="normal" in2="BackgroundImageFix" result="effect1_dropShadow_852_20"/>
<feBlend mode="normal" in="SourceGraphic" in2="effect1_dropShadow_852_20" result="shape"/>
</filter>
<filter id="filter1_d_852_20" x="369.031" y="41.6719" width="1327.05" height="277.66" filterUnits="userSpaceOnUse" color-interpolation-filters="sRGB">
<feFlood flood-opacity="0" result="BackgroundImageFix"/>
<feColorMatrix in="SourceAlpha" type="matrix" values="0 0 0 0 0 0 0 0 0 0 0 0 0 0 0 0 0 0 127 0" result="hardAlpha"/>
<feOffset dy="4"/>
<feGaussianBlur stdDeviation="2"/>
<feComposite in2="hardAlpha" operator="out"/>
<feColorMatrix type="matrix" values="0 0 0 0 0 0 0 0 0 0 0 0 0 0 0 0 0 0 0.25 0"/>
<feBlend mode="normal" in2="BackgroundImageFix" result="effect1_dropShadow_852_20"/>
<feBlend mode="normal" in="SourceGraphic" in2="effect1_dropShadow_852_20" result="shape"/>
</filter>
<linearGradient id="paint0_linear_852_20" x1="164.276" y1="20.2754" x2="164.276" y2="331.719" gradientUnits="userSpaceOnUse">
<stop stop-color="#0B58FF"/>
<stop offset="1" stop-color="#0047E2"/>
</linearGradient>
<linearGradient id="paint1_linear_852_20" x1="75.1208" y1="269.147" x2="246.5" y2="97.5" gradientUnits="userSpaceOnUse">
<stop stop-color="white"/>
<stop offset="1" stop-color="white" stop-opacity="0.7"/>
</linearGradient>
</defs>
</svg>
