<svg width="1698" height="400" viewBox="0 0 1698 400" fill="none" xmlns="http://www.w3.org/2000/svg">
<path d="M371.31 322V174.439H398.881V198.456H400.707C403.781 190.322 408.808 183.982 415.789 179.435C422.77 174.823 431.128 172.518 440.863 172.518C450.726 172.518 458.988 174.823 465.649 179.435C472.374 184.046 477.337 190.386 480.539 198.456H482.077C485.599 190.578 491.203 184.302 498.889 179.627C506.574 174.887 515.732 172.518 526.364 172.518C539.75 172.518 550.669 176.713 559.123 185.103C567.641 193.493 571.9 206.142 571.9 223.05V322H543.176V225.74C543.176 215.748 540.454 208.511 535.01 204.028C529.566 199.545 523.066 197.303 515.508 197.303C506.158 197.303 498.889 200.185 493.701 205.949C488.513 211.649 485.919 218.983 485.919 227.949V322H457.291V223.914C457.291 215.909 454.793 209.472 449.798 204.604C444.802 199.737 438.301 197.303 430.296 197.303C424.852 197.303 419.824 198.744 415.213 201.626C410.666 204.444 406.983 208.383 404.165 213.443C401.411 218.502 400.034 224.363 400.034 231.023V322H371.31ZM631.7 325.266C622.349 325.266 613.895 323.537 606.338 320.079C598.781 316.556 592.792 311.465 588.373 304.804C584.018 298.143 581.841 289.977 581.841 280.306C581.841 271.98 583.442 265.128 586.644 259.748C589.846 254.368 594.169 250.109 599.613 246.971C605.057 243.832 611.141 241.463 617.866 239.862C624.591 238.26 631.444 237.044 638.425 236.211C647.263 235.186 654.436 234.354 659.944 233.713C665.452 233.009 669.455 231.888 671.953 230.351C674.451 228.814 675.699 226.316 675.699 222.857V222.185C675.699 213.795 673.33 207.294 668.59 202.683C663.915 198.072 656.934 195.766 647.647 195.766C637.977 195.766 630.355 197.912 624.783 202.203C619.275 206.43 615.465 211.137 613.351 216.325L586.356 210.176C589.558 201.21 594.233 193.973 600.382 188.465C606.594 182.893 613.735 178.858 621.805 176.36C629.875 173.799 638.361 172.518 647.263 172.518C653.155 172.518 659.4 173.222 665.997 174.631C672.657 175.976 678.87 178.474 684.634 182.124C690.462 185.775 695.233 190.995 698.948 197.784C702.663 204.508 704.52 213.251 704.52 224.01V322H676.468V301.826H675.315C673.458 305.54 670.672 309.191 666.957 312.777C663.243 316.364 658.471 319.342 652.643 321.712C646.815 324.081 639.834 325.266 631.7 325.266ZM637.945 302.21C645.886 302.21 652.675 300.641 658.311 297.503C664.011 294.364 668.334 290.265 671.28 285.206C674.29 280.082 675.795 274.606 675.795 268.778V249.757C674.771 250.781 672.785 251.742 669.839 252.639C666.957 253.471 663.659 254.208 659.944 254.848C656.23 255.425 652.611 255.969 649.088 256.481C645.566 256.93 642.62 257.314 640.25 257.634C634.678 258.339 629.587 259.524 624.975 261.189C620.428 262.854 616.778 265.256 614.024 268.394C611.334 271.468 609.989 275.567 609.989 280.691C609.989 287.8 612.615 293.179 617.866 296.83C623.118 300.417 629.811 302.21 637.945 302.21ZM783.293 324.978C769.011 324.978 756.714 321.744 746.403 315.275C736.156 308.743 728.278 299.744 722.77 288.28C717.262 276.816 714.508 263.687 714.508 248.892C714.508 233.905 717.326 220.68 722.962 209.216C728.598 197.688 736.54 188.689 746.787 182.221C757.034 175.752 769.107 172.518 783.005 172.518C794.213 172.518 804.204 174.599 812.978 178.762C821.752 182.861 828.829 188.625 834.209 196.054C839.653 203.484 842.887 212.162 843.912 222.089H815.956C814.419 215.172 810.897 209.216 805.389 204.22C799.945 199.225 792.644 196.727 783.485 196.727C775.48 196.727 768.467 198.84 762.446 203.067C756.49 207.23 751.847 213.187 748.516 220.936C745.186 228.622 743.521 237.716 743.521 248.22C743.521 258.979 745.154 268.266 748.42 276.079C751.687 283.893 756.298 289.945 762.254 294.236C768.274 298.527 775.351 300.673 783.485 300.673C788.929 300.673 793.861 299.68 798.28 297.695C802.763 295.645 806.51 292.731 809.52 288.952C812.594 285.174 814.739 280.627 815.956 275.311H843.912C842.887 284.854 839.781 293.372 834.594 300.865C829.406 308.358 822.457 314.25 813.747 318.542C805.101 322.833 794.949 324.978 783.293 324.978ZM852.988 377.335V174.439H881.04V198.36H883.441C885.107 195.286 887.508 191.731 890.647 187.696C893.785 183.662 898.14 180.139 903.712 177.129C909.284 174.055 916.649 172.518 925.808 172.518C937.72 172.518 948.352 175.528 957.702 181.548C967.053 187.568 974.386 196.247 979.702 207.583C985.082 218.919 987.772 232.56 987.772 248.508C987.772 264.455 985.114 278.129 979.798 289.529C974.482 300.865 967.181 309.607 957.894 315.756C948.608 321.84 938.008 324.882 926.096 324.882C917.129 324.882 909.796 323.377 904.096 320.367C898.46 317.357 894.041 313.834 890.839 309.799C887.636 305.764 885.171 302.178 883.441 299.04H881.712V377.335H852.988ZM881.136 248.22C881.136 258.595 882.641 267.689 885.651 275.503C888.661 283.316 893.016 289.433 898.716 293.852C904.416 298.207 911.397 300.385 919.659 300.385C928.241 300.385 935.414 298.111 941.179 293.564C946.943 288.952 951.298 282.708 954.244 274.83C957.254 266.953 958.759 258.083 958.759 248.22C958.759 238.485 957.286 229.742 954.34 221.993C951.458 214.243 947.103 208.127 941.275 203.644C935.51 199.161 928.305 196.919 919.659 196.919C911.333 196.919 904.288 199.065 898.524 203.356C892.824 207.647 888.501 213.635 885.555 221.32C882.609 229.006 881.136 237.972 881.136 248.22ZM998.312 322V174.439H1026.08V197.88H1027.61C1030.3 189.938 1035.04 183.694 1041.83 179.146C1048.68 174.535 1056.43 172.229 1065.08 172.229C1066.87 172.229 1068.99 172.293 1071.42 172.422C1073.92 172.55 1075.87 172.71 1077.28 172.902V200.377C1076.13 200.057 1074.08 199.705 1071.13 199.321C1068.19 198.872 1065.24 198.648 1062.29 198.648C1055.5 198.648 1049.45 200.089 1044.14 202.971C1038.89 205.789 1034.72 209.728 1031.65 214.788C1028.57 219.783 1027.04 225.483 1027.04 231.888V322H998.312ZM1138.81 324.978C1124.27 324.978 1111.75 321.872 1101.25 315.659C1090.81 309.383 1082.74 300.577 1077.04 289.241C1071.4 277.841 1068.58 264.487 1068.58 249.18C1068.58 234.065 1071.4 220.744 1077.04 209.216C1082.74 197.688 1090.68 188.689 1100.86 182.221C1111.11 175.752 1123.09 172.518 1136.79 172.518C1145.12 172.518 1153.19 173.895 1161 176.649C1168.81 179.403 1175.83 183.726 1182.04 189.618C1188.25 195.51 1193.15 203.163 1196.74 212.578C1200.33 221.929 1202.12 233.297 1202.12 246.682V256.866H1084.82V235.346H1173.97C1173.97 227.789 1172.43 221.096 1169.36 215.268C1166.28 209.376 1161.96 204.733 1156.39 201.338C1150.88 197.944 1144.41 196.247 1136.98 196.247C1128.91 196.247 1121.87 198.232 1115.85 202.203C1109.89 206.11 1105.28 211.233 1102.02 217.574C1098.81 223.85 1097.21 230.671 1097.21 238.036V254.848C1097.21 264.711 1098.94 273.101 1102.4 280.018C1105.92 286.935 1110.82 292.219 1117.1 295.869C1123.37 299.456 1130.71 301.249 1139.1 301.249C1144.54 301.249 1149.51 300.481 1153.99 298.944C1158.47 297.342 1162.35 294.973 1165.61 291.835C1168.88 288.696 1171.38 284.822 1173.11 280.21L1200.29 285.11C1198.12 293.115 1194.21 300.128 1188.57 306.149C1183 312.105 1175.99 316.748 1167.53 320.079C1159.14 323.345 1149.57 324.978 1138.81 324.978ZM1212.35 322V174.439H1239.92V198.456H1241.74C1244.82 190.322 1249.85 183.982 1256.83 179.435C1263.81 174.823 1272.17 172.518 1281.9 172.518C1291.76 172.518 1300.03 174.823 1306.69 179.435C1313.41 184.046 1318.37 190.386 1321.58 198.456H1323.11C1326.64 190.578 1332.24 184.302 1339.93 179.627C1347.61 174.887 1356.77 172.518 1367.4 172.518C1380.79 172.518 1391.71 176.713 1400.16 185.103C1408.68 193.493 1412.94 206.142 1412.94 223.05V322H1384.21V225.74C1384.21 215.748 1381.49 208.511 1376.05 204.028C1370.6 199.545 1364.1 197.303 1356.55 197.303C1347.19 197.303 1339.93 200.185 1334.74 205.949C1329.55 211.649 1326.96 218.983 1326.96 227.949V322H1298.33V223.914C1298.33 215.909 1295.83 209.472 1290.83 204.604C1285.84 199.737 1279.34 197.303 1271.33 197.303C1265.89 197.303 1260.86 198.744 1256.25 201.626C1251.7 204.444 1248.02 208.383 1245.2 213.443C1242.45 218.502 1241.07 224.363 1241.07 231.023V322H1212.35ZM1429.79 322V174.439H1458.52V322H1429.79ZM1444.3 151.671C1439.31 151.671 1435.01 150.006 1431.43 146.675C1427.91 143.281 1426.14 139.246 1426.14 134.571C1426.14 129.831 1427.91 125.796 1431.43 122.466C1435.01 119.072 1439.31 117.374 1444.3 117.374C1449.3 117.374 1453.56 119.072 1457.08 122.466C1460.66 125.796 1462.46 129.831 1462.46 134.571C1462.46 139.246 1460.66 143.281 1457.08 146.675C1453.56 150.006 1449.3 151.671 1444.3 151.671ZM1539.12 324.978C1524.58 324.978 1512.06 321.872 1501.55 315.659C1491.12 309.383 1483.05 300.577 1477.35 289.241C1471.71 277.841 1468.89 264.487 1468.89 249.18C1468.89 234.065 1471.71 220.744 1477.35 209.216C1483.05 197.688 1490.99 188.689 1501.17 182.221C1511.42 175.752 1523.39 172.518 1537.1 172.518C1545.43 172.518 1553.5 173.895 1561.31 176.649C1569.12 179.403 1576.14 183.726 1582.35 189.618C1588.56 195.51 1593.46 203.163 1597.05 212.578C1600.63 221.929 1602.43 233.297 1602.43 246.682V256.866H1485.13V235.346H1574.28C1574.28 227.789 1572.74 221.096 1569.67 215.268C1566.59 209.376 1562.27 204.733 1556.7 201.338C1551.19 197.944 1544.72 196.247 1537.29 196.247C1529.22 196.247 1522.18 198.232 1516.16 202.203C1510.2 206.11 1505.59 211.233 1502.32 217.574C1499.12 223.85 1497.52 230.671 1497.52 238.036V254.848C1497.52 264.711 1499.25 273.101 1502.71 280.018C1506.23 286.935 1511.13 292.219 1517.41 295.869C1523.68 299.456 1531.02 301.249 1539.41 301.249C1544.85 301.249 1549.81 300.481 1554.3 298.944C1558.78 297.342 1562.65 294.973 1565.92 291.835C1569.19 288.696 1571.68 284.822 1573.41 280.21L1600.6 285.11C1598.42 293.115 1594.52 300.128 1588.88 306.149C1583.31 312.105 1576.3 316.748 1567.84 320.079C1559.45 323.345 1549.88 324.978 1539.12 324.978ZM1612.65 322V174.439H1640.42V197.88H1641.96C1644.65 189.938 1649.39 183.694 1656.17 179.146C1663.03 174.535 1670.78 172.229 1679.42 172.229C1681.22 172.229 1683.33 172.293 1685.76 172.422C1688.26 172.55 1690.21 172.71 1691.62 172.902V200.377C1690.47 200.057 1688.42 199.705 1685.47 199.321C1682.53 198.872 1679.58 198.648 1676.64 198.648C1669.85 198.648 1663.8 200.089 1658.48 202.971C1653.23 205.789 1649.06 209.728 1645.99 214.788C1642.92 219.783 1641.38 225.483 1641.38 231.888V322H1612.65Z" fill="white"/>
<rect x="10" y="104.754" width="307.012" height="283.246" rx="49.3699" fill="url(#paint0_linear_857_141)" stroke="white" stroke-width="18"/>
<path d="M105.531 140.356C123.23 227.909 207.244 224.538 223.196 140.356L237.102 140.356C215.06 256.57 110.123 247.774 91.625 140.356L105.531 140.356Z" fill="white"/>
<path d="M223.055 105.894C205.356 18.3414 121.342 21.7115 105.39 105.894L91.4844 105.894C113.526 -10.3195 218.463 -1.52368 236.961 105.894L223.055 105.894Z" fill="white"/>
<defs>
<linearGradient id="paint0_linear_857_141" x1="163.506" y1="113.754" x2="163.506" y2="379" gradientUnits="userSpaceOnUse">
<stop stop-color="#2268FF"/>
<stop offset="1" stop-color="#1855DA"/>
</linearGradient>
</defs>
</svg>
