<svg width="1698" height="400" viewBox="0 0 1698 400" fill="none" xmlns="http://www.w3.org/2000/svg">
<path d="M274.862 104.818C256.886 11.0831 171.559 14.6912 155.358 104.818H141.234C163.62 -19.6014 270.198 -10.1845 288.985 104.818H274.862Z" fill="white"/>
<rect x="61" y="97.4727" width="309.573" height="287.293" rx="29.9392" fill="url(#paint0_linear_860_5)"/>
<path d="M108.554 318V153.286H139.331V180.095H141.368C144.8 171.016 150.412 163.938 158.204 158.862C165.997 153.715 175.326 151.141 186.193 151.141C197.202 151.141 206.425 153.715 213.86 158.862C221.366 164.01 226.907 171.087 230.481 180.095H232.197C236.129 171.302 242.384 164.296 250.963 159.077C259.542 153.786 269.765 151.141 281.633 151.141C296.574 151.141 308.763 155.824 318.2 165.189C327.708 174.554 332.462 188.674 332.462 207.547V318H300.399V210.55C300.399 199.397 297.361 191.319 291.284 186.315C285.207 181.31 277.951 178.808 269.515 178.808C259.077 178.808 250.963 182.025 245.173 188.459C239.382 194.822 236.486 203.008 236.486 213.016V318H204.53V208.512C204.53 199.576 201.742 192.391 196.166 186.958C190.59 181.525 183.333 178.808 174.397 178.808C168.32 178.808 162.708 180.417 157.561 183.634C152.485 186.779 148.375 191.176 145.229 196.824C142.155 202.471 140.618 209.013 140.618 216.448V318H108.554ZM402.233 321.646C391.795 321.646 382.359 319.716 373.923 315.855C365.487 311.923 358.803 306.24 353.87 298.805C349.008 291.37 346.578 282.255 346.578 271.46C346.578 262.166 348.365 254.517 351.94 248.511C355.514 242.506 360.34 237.752 366.416 234.249C372.493 230.746 379.285 228.101 386.791 226.314C394.298 224.526 401.947 223.168 409.74 222.239C419.605 221.095 427.612 220.165 433.76 219.45C439.909 218.664 444.377 217.413 447.165 215.697C449.953 213.981 451.347 211.193 451.347 207.333V206.582C451.347 197.217 448.702 189.961 443.412 184.813C438.193 179.666 430.4 177.092 420.034 177.092C409.239 177.092 400.732 179.487 394.512 184.277C388.364 188.996 384.11 194.25 381.751 200.041L351.618 193.178C355.192 183.169 360.411 175.091 367.274 168.942C374.209 162.723 382.18 158.219 391.188 155.431C400.196 152.571 409.668 151.141 419.605 151.141C426.182 151.141 433.153 151.928 440.516 153.501C447.951 155.002 454.886 157.79 461.32 161.865C467.826 165.94 473.152 171.766 477.298 179.344C481.444 186.851 483.518 196.609 483.518 208.62V318H452.205V295.481H450.918C448.845 299.627 445.735 303.702 441.589 307.705C437.442 311.709 432.116 315.033 425.61 317.678C419.105 320.323 411.312 321.646 402.233 321.646ZM409.203 295.909C418.068 295.909 425.646 294.158 431.937 290.655C438.3 287.152 443.126 282.576 446.414 276.929C449.774 271.21 451.454 265.097 451.454 258.591V237.359C450.31 238.503 448.094 239.575 444.806 240.576C441.589 241.505 437.907 242.327 433.76 243.042C429.614 243.686 425.575 244.293 421.643 244.865C417.711 245.366 414.422 245.795 411.777 246.152C405.557 246.939 399.874 248.261 394.727 250.12C389.651 251.979 385.576 254.659 382.502 258.163C379.499 261.594 377.998 266.169 377.998 271.889C377.998 279.824 380.929 285.829 386.791 289.904C392.653 293.908 400.124 295.909 409.203 295.909ZM574.467 321.324C558.525 321.324 544.799 317.714 533.289 310.494C521.851 303.201 513.057 293.157 506.909 280.36C500.761 267.564 497.687 252.908 497.687 236.394C497.687 219.665 500.832 204.902 507.123 192.105C513.415 179.237 522.279 169.193 533.718 161.972C545.156 154.752 558.632 151.141 574.146 151.141C586.657 151.141 597.809 153.465 607.603 158.112C617.397 162.687 625.297 169.121 631.302 177.414C637.379 185.707 640.989 195.394 642.133 206.475H610.928C609.212 198.754 605.28 192.105 599.132 186.529C593.055 180.953 584.905 178.165 574.682 178.165C565.746 178.165 557.917 180.524 551.197 185.242C544.549 189.889 539.366 196.538 535.648 205.188C531.931 213.767 530.072 223.919 530.072 235.643C530.072 247.653 531.895 258.02 535.541 266.741C539.187 275.463 544.334 282.219 550.983 287.009C557.703 291.799 565.603 294.194 574.682 294.194C580.759 294.194 586.263 293.086 591.196 290.869C596.201 288.582 600.383 285.329 603.743 281.111C607.174 276.893 609.569 271.817 610.928 265.883H642.133C640.989 276.536 637.522 286.044 631.731 294.408C625.941 302.773 618.184 309.35 608.461 314.14C598.81 318.929 587.479 321.324 574.467 321.324ZM655.283 379.768V153.286H686.596V179.988H689.277C691.136 176.556 693.817 172.588 697.32 168.085C700.823 163.581 705.684 159.649 711.904 156.289C718.124 152.857 726.345 151.141 736.568 151.141C749.865 151.141 761.733 154.501 772.17 161.222C782.608 167.942 790.794 177.629 796.727 190.282C802.733 202.936 805.735 218.164 805.735 235.965C805.735 253.766 802.768 269.029 796.835 281.754C790.901 294.408 782.751 304.167 772.385 311.03C762.019 317.821 750.187 321.217 736.89 321.217C726.881 321.217 718.695 319.537 712.333 316.177C706.042 312.817 701.109 308.885 697.534 304.381C693.96 299.877 691.207 295.874 689.277 292.371H687.347V379.768H655.283ZM686.704 235.643C686.704 247.224 688.384 257.376 691.744 266.098C695.104 274.82 699.965 281.647 706.328 286.58C712.69 291.441 720.483 293.872 729.705 293.872C739.285 293.872 747.292 291.334 753.726 286.258C760.16 281.111 765.021 274.141 768.31 265.347C771.67 256.554 773.35 246.653 773.35 235.643C773.35 224.776 771.706 215.018 768.417 206.368C765.2 197.717 760.339 190.89 753.833 185.886C747.399 180.881 739.356 178.379 729.705 178.379C720.411 178.379 712.547 180.774 706.113 185.564C699.751 190.354 694.925 197.038 691.636 205.617C688.348 214.196 686.704 224.205 686.704 235.643ZM820.521 318V153.286H851.512V179.452H853.228C856.23 170.587 861.52 163.616 869.098 158.541C876.748 153.393 885.398 150.82 895.049 150.82C897.051 150.82 899.41 150.891 902.127 151.034C904.915 151.177 907.096 151.356 908.668 151.57V182.24C907.382 181.882 905.094 181.489 901.805 181.06C898.517 180.56 895.228 180.309 891.94 180.309C884.362 180.309 877.606 181.918 871.672 185.135C865.81 188.281 861.163 192.677 857.732 198.325C854.3 203.901 852.584 210.264 852.584 217.413V318H820.521ZM980.369 321.324C964.141 321.324 950.165 317.857 938.44 310.922C926.787 303.916 917.78 294.086 911.417 281.433C905.126 268.707 901.98 253.802 901.98 236.715C901.98 219.844 905.126 204.974 911.417 192.105C917.78 179.237 926.644 169.193 938.011 161.972C949.45 154.752 962.818 151.141 978.117 151.141C987.411 151.141 996.419 152.678 1005.14 155.752C1013.86 158.827 1021.69 163.652 1028.63 170.229C1035.56 176.806 1041.03 185.35 1045.03 195.859C1049.04 206.296 1051.04 218.986 1051.04 233.927V245.294H920.103V221.273H1019.62C1019.62 212.838 1017.9 205.367 1014.47 198.861C1011.04 192.284 1006.21 187.101 999.993 183.312C993.845 179.523 986.625 177.629 978.332 177.629C969.324 177.629 961.46 179.845 954.74 184.277C948.091 188.638 942.944 194.357 939.298 201.435C935.724 208.441 933.936 216.055 933.936 224.276V243.042C933.936 254.052 935.867 263.417 939.727 271.138C943.659 278.859 949.128 284.757 956.134 288.832C963.14 292.835 971.326 294.837 980.691 294.837C986.768 294.837 992.308 293.979 997.313 292.263C1002.32 290.476 1006.64 287.831 1010.29 284.328C1013.93 280.825 1016.72 276.5 1018.65 271.352L1049 276.822C1046.57 285.758 1042.21 293.586 1035.92 300.306C1029.7 306.955 1021.87 312.138 1012.43 315.855C1003.07 319.501 992.38 321.324 980.369 321.324ZM1065.47 318V153.286H1096.25V180.095H1098.29C1101.72 171.016 1107.33 163.938 1115.12 158.862C1122.92 153.715 1132.25 151.141 1143.11 151.141C1154.12 151.141 1163.35 153.715 1170.78 158.862C1178.29 164.01 1183.83 171.087 1187.4 180.095H1189.12C1193.05 171.302 1199.3 164.296 1207.88 159.077C1216.46 153.786 1226.69 151.141 1238.55 151.141C1253.49 151.141 1265.68 155.824 1275.12 165.189C1284.63 174.554 1289.38 188.674 1289.38 207.547V318H1257.32V210.55C1257.32 199.397 1254.28 191.319 1248.2 186.315C1242.13 181.31 1234.87 178.808 1226.44 178.808C1216 178.808 1207.88 182.025 1202.09 188.459C1196.3 194.822 1193.41 203.008 1193.41 213.016V318H1161.45V208.512C1161.45 199.576 1158.66 192.391 1153.09 186.958C1147.51 181.525 1140.25 178.808 1131.32 178.808C1125.24 178.808 1119.63 180.417 1114.48 183.634C1109.41 186.779 1105.29 191.176 1102.15 196.824C1099.08 202.471 1097.54 209.013 1097.54 216.448V318H1065.47ZM1311.22 318V153.286H1343.28V318H1311.22ZM1327.41 127.871C1321.84 127.871 1317.05 126.012 1313.04 122.295C1309.11 118.506 1307.14 114.002 1307.14 108.783C1307.14 103.493 1309.11 98.9891 1313.04 95.2716C1317.05 91.4826 1321.84 89.5881 1327.41 89.5881C1332.99 89.5881 1337.74 91.4826 1341.67 95.2716C1345.68 98.9891 1347.68 103.493 1347.68 108.783C1347.68 114.002 1345.68 118.506 1341.67 122.295C1337.74 126.012 1332.99 127.871 1327.41 127.871ZM1436.27 321.324C1420.04 321.324 1406.07 317.857 1394.34 310.922C1382.69 303.916 1373.68 294.086 1367.32 281.433C1361.03 268.707 1357.88 253.802 1357.88 236.715C1357.88 219.844 1361.03 204.974 1367.32 192.105C1373.68 179.237 1382.54 169.193 1393.91 161.972C1405.35 154.752 1418.72 151.141 1434.02 151.141C1443.31 151.141 1452.32 152.678 1461.04 155.752C1469.76 158.827 1477.59 163.652 1484.53 170.229C1491.46 176.806 1496.93 185.35 1500.93 195.859C1504.94 206.296 1506.94 218.986 1506.94 233.927V245.294H1376V221.273H1475.52C1475.52 212.838 1473.8 205.367 1470.37 198.861C1466.94 192.284 1462.11 187.101 1455.89 183.312C1449.75 179.523 1442.53 177.629 1434.23 177.629C1425.22 177.629 1417.36 179.845 1410.64 184.277C1403.99 188.638 1398.84 194.357 1395.2 201.435C1391.62 208.441 1389.84 216.055 1389.84 224.276V243.042C1389.84 254.052 1391.77 263.417 1395.63 271.138C1399.56 278.859 1405.03 284.757 1412.03 288.832C1419.04 292.835 1427.23 294.837 1436.59 294.837C1442.67 294.837 1448.21 293.979 1453.21 292.263C1458.22 290.476 1462.54 287.831 1466.19 284.328C1469.83 280.825 1472.62 276.5 1474.55 271.352L1504.9 276.822C1502.47 285.758 1498.11 293.586 1491.82 300.306C1485.6 306.955 1477.77 312.138 1468.33 315.855C1458.97 319.501 1448.28 321.324 1436.27 321.324ZM1521.38 318V153.286H1552.37V179.452H1554.08C1557.08 170.587 1562.38 163.616 1569.95 158.541C1577.6 153.393 1586.25 150.82 1595.9 150.82C1597.91 150.82 1600.26 150.891 1602.98 151.034C1605.77 151.177 1607.95 151.356 1609.52 151.57V182.24C1608.24 181.882 1605.95 181.489 1602.66 181.06C1599.37 180.56 1596.08 180.309 1592.79 180.309C1585.22 180.309 1578.46 181.918 1572.53 185.135C1566.66 188.281 1562.02 192.677 1558.59 198.325C1555.15 203.901 1553.44 210.264 1553.44 217.413V318H1521.38Z" fill="white"/>
<defs>
<linearGradient id="paint0_linear_860_5" x1="215.787" y1="97.4727" x2="215.787" y2="384.766" gradientUnits="userSpaceOnUse">
<stop stop-color="#1760FF"/>
<stop offset="1" stop-color="#0A50E9"/>
</linearGradient>
</defs>
</svg>
