<svg width="1698" height="400" viewBox="0 0 1698 400" fill="none" xmlns="http://www.w3.org/2000/svg">
<rect x="16" y="63" width="289.012" height="261.051" rx="40.3699" fill="white"/>
<rect x="16" y="101" width="289.012" height="255.001" rx="40.3699" fill="#2267FC"/>
<circle cx="92" cy="152" r="17" fill="#437BF4"/>
<circle cx="92" cy="152" r="17" fill="#437BF4"/>
<circle cx="92" cy="152" r="17" fill="#0046DD"/>
<circle cx="227" cy="152" r="17" fill="#437BF4"/>
<circle cx="227" cy="152" r="17" fill="#437BF4"/>
<circle cx="227" cy="152" r="17" fill="#0046DD"/>
<path d="M101.051 152C118.936 227.89 203.83 224.969 219.949 152C222.163 147.461 223 146.5 228.5 146.5C233 148 232.351 148.15 234 152C211.728 252.733 105.691 245.109 87 152C87.4389 149.205 89.5 145 95 146.5C99.5 146.5 99.5 149 101.051 152Z" fill="white"/>
<path d="M358.31 268V120.439H385.881V144.456H387.707C390.781 136.322 395.808 129.982 402.789 125.435C409.77 120.823 418.128 118.518 427.863 118.518C437.726 118.518 445.988 120.823 452.649 125.435C459.374 130.046 464.337 136.386 467.539 144.456H469.077C472.599 136.578 478.203 130.302 485.889 125.627C493.574 120.887 502.732 118.518 513.364 118.518C526.75 118.518 537.669 122.713 546.123 131.103C554.641 139.493 558.9 152.142 558.9 169.05V268H530.176V171.74C530.176 161.748 527.454 154.511 522.01 150.028C516.566 145.545 510.066 143.303 502.508 143.303C493.158 143.303 485.889 146.185 480.701 151.949C475.513 157.649 472.919 164.983 472.919 173.949V268H444.291V169.914C444.291 161.909 441.793 155.472 436.798 150.604C431.802 145.737 425.301 143.303 417.296 143.303C411.852 143.303 406.824 144.744 402.213 147.626C397.666 150.444 393.983 154.383 391.165 159.443C388.411 164.502 387.034 170.363 387.034 177.023V268H358.31ZM618.7 271.266C609.349 271.266 600.895 269.537 593.338 266.079C585.781 262.556 579.792 257.465 575.373 250.804C571.018 244.143 568.841 235.977 568.841 226.306C568.841 217.98 570.442 211.128 573.644 205.748C576.846 200.368 581.169 196.109 586.613 192.971C592.057 189.832 598.141 187.463 604.866 185.862C611.591 184.26 618.444 183.044 625.425 182.211C634.263 181.186 641.436 180.354 646.944 179.713C652.452 179.009 656.455 177.888 658.953 176.351C661.451 174.814 662.699 172.316 662.699 168.857V168.185C662.699 159.795 660.33 153.294 655.59 148.683C650.915 144.072 643.934 141.766 634.647 141.766C624.977 141.766 617.355 143.912 611.783 148.203C606.275 152.43 602.465 157.137 600.351 162.325L573.356 156.176C576.558 147.21 581.233 139.973 587.382 134.465C593.594 128.893 600.735 124.858 608.805 122.36C616.875 119.799 625.361 118.518 634.263 118.518C640.155 118.518 646.4 119.222 652.997 120.631C659.657 121.976 665.87 124.474 671.634 128.124C677.462 131.775 682.233 136.995 685.948 143.784C689.663 150.508 691.52 159.251 691.52 170.01V268H663.468V247.826H662.315C660.458 251.54 657.672 255.191 653.957 258.777C650.243 262.364 645.471 265.342 639.643 267.712C633.815 270.081 626.834 271.266 618.7 271.266ZM624.945 248.21C632.886 248.21 639.675 246.641 645.311 243.503C651.011 240.364 655.334 236.265 658.28 231.206C661.29 226.082 662.795 220.606 662.795 214.778V195.757C661.771 196.781 659.785 197.742 656.839 198.639C653.957 199.471 650.659 200.208 646.944 200.848C643.23 201.425 639.611 201.969 636.088 202.481C632.566 202.93 629.62 203.314 627.25 203.634C621.678 204.339 616.587 205.524 611.975 207.189C607.428 208.854 603.778 211.256 601.024 214.394C598.334 217.468 596.989 221.567 596.989 226.691C596.989 233.8 599.615 239.179 604.866 242.83C610.118 246.417 616.811 248.21 624.945 248.21ZM770.293 270.978C756.011 270.978 743.714 267.744 733.403 261.275C723.156 254.743 715.278 245.744 709.77 234.28C704.262 222.816 701.508 209.687 701.508 194.892C701.508 179.905 704.326 166.68 709.962 155.216C715.598 143.688 723.54 134.689 733.787 128.221C744.034 121.752 756.107 118.518 770.005 118.518C781.213 118.518 791.204 120.599 799.978 124.762C808.752 128.861 815.829 134.625 821.209 142.054C826.653 149.484 829.887 158.162 830.912 168.089H802.956C801.419 161.172 797.897 155.216 792.389 150.22C786.945 145.225 779.644 142.727 770.485 142.727C762.48 142.727 755.467 144.84 749.446 149.067C743.49 153.23 738.847 159.187 735.516 166.936C732.186 174.622 730.521 183.716 730.521 194.22C730.521 204.979 732.154 214.266 735.42 222.079C738.687 229.893 743.298 235.945 749.254 240.236C755.274 244.527 762.351 246.673 770.485 246.673C775.929 246.673 780.861 245.68 785.28 243.695C789.763 241.645 793.51 238.731 796.52 234.952C799.594 231.174 801.739 226.627 802.956 221.311H830.912C829.887 230.854 826.781 239.372 821.594 246.865C816.406 254.358 809.457 260.25 800.747 264.542C792.101 268.833 781.949 270.978 770.293 270.978ZM839.988 323.335V120.439H868.04V144.36H870.441C872.107 141.286 874.508 137.731 877.647 133.696C880.785 129.662 885.14 126.139 890.712 123.129C896.284 120.055 903.649 118.518 912.808 118.518C924.72 118.518 935.352 121.528 944.702 127.548C954.053 133.568 961.386 142.247 966.702 153.583C972.082 164.919 974.772 178.56 974.772 194.508C974.772 210.455 972.114 224.129 966.798 235.529C961.482 246.865 954.181 255.607 944.894 261.756C935.608 267.84 925.008 270.882 913.096 270.882C904.129 270.882 896.796 269.377 891.096 266.367C885.46 263.357 881.041 259.834 877.839 255.799C874.636 251.764 872.171 248.178 870.441 245.04H868.712V323.335H839.988ZM868.136 194.22C868.136 204.595 869.641 213.689 872.651 221.503C875.661 229.316 880.016 235.433 885.716 239.852C891.416 244.207 898.397 246.385 906.659 246.385C915.241 246.385 922.414 244.111 928.179 239.564C933.943 234.952 938.298 228.708 941.244 220.83C944.254 212.953 945.759 204.083 945.759 194.22C945.759 184.485 944.286 175.742 941.34 167.993C938.458 160.243 934.103 154.127 928.275 149.644C922.51 145.161 915.305 142.919 906.659 142.919C898.333 142.919 891.288 145.065 885.524 149.356C879.824 153.647 875.501 159.635 872.555 167.32C869.609 175.006 868.136 183.972 868.136 194.22ZM985.312 268V120.439H1013.08V143.88H1014.61C1017.3 135.938 1022.04 129.694 1028.83 125.146C1035.68 120.535 1043.43 118.229 1052.08 118.229C1053.87 118.229 1055.99 118.293 1058.42 118.422C1060.92 118.55 1062.87 118.71 1064.28 118.902V146.377C1063.13 146.057 1061.08 145.705 1058.13 145.321C1055.19 144.872 1052.24 144.648 1049.29 144.648C1042.5 144.648 1036.45 146.089 1031.14 148.971C1025.89 151.789 1021.72 155.728 1018.65 160.788C1015.57 165.783 1014.04 171.483 1014.04 177.888V268H985.312ZM1125.81 270.978C1111.27 270.978 1098.75 267.872 1088.25 261.659C1077.81 255.383 1069.74 246.577 1064.04 235.241C1058.4 223.841 1055.58 210.487 1055.58 195.18C1055.58 180.065 1058.4 166.744 1064.04 155.216C1069.74 143.688 1077.68 134.689 1087.86 128.221C1098.11 121.752 1110.09 118.518 1123.79 118.518C1132.12 118.518 1140.19 119.895 1148 122.649C1155.81 125.403 1162.83 129.726 1169.04 135.618C1175.25 141.51 1180.15 149.163 1183.74 158.578C1187.33 167.929 1189.12 179.297 1189.12 192.682V202.866H1071.82V181.346H1160.97C1160.97 173.789 1159.43 167.096 1156.36 161.268C1153.28 155.376 1148.96 150.733 1143.39 147.338C1137.88 143.944 1131.41 142.247 1123.98 142.247C1115.91 142.247 1108.87 144.232 1102.85 148.203C1096.89 152.11 1092.28 157.233 1089.02 163.574C1085.81 169.85 1084.21 176.671 1084.21 184.036V200.848C1084.21 210.711 1085.94 219.101 1089.4 226.018C1092.92 232.935 1097.82 238.219 1104.1 241.869C1110.37 245.456 1117.71 247.249 1126.1 247.249C1131.54 247.249 1136.51 246.481 1140.99 244.944C1145.47 243.342 1149.35 240.973 1152.61 237.835C1155.88 234.696 1158.38 230.822 1160.11 226.21L1187.29 231.11C1185.12 239.115 1181.21 246.128 1175.57 252.149C1170 258.105 1162.99 262.748 1154.53 266.079C1146.14 269.345 1136.57 270.978 1125.81 270.978ZM1199.35 268V120.439H1226.92V144.456H1228.74C1231.82 136.322 1236.85 129.982 1243.83 125.435C1250.81 120.823 1259.17 118.518 1268.9 118.518C1278.76 118.518 1287.03 120.823 1293.69 125.435C1300.41 130.046 1305.37 136.386 1308.58 144.456H1310.11C1313.64 136.578 1319.24 130.302 1326.93 125.627C1334.61 120.887 1343.77 118.518 1354.4 118.518C1367.79 118.518 1378.71 122.713 1387.16 131.103C1395.68 139.493 1399.94 152.142 1399.94 169.05V268H1371.21V171.74C1371.21 161.748 1368.49 154.511 1363.05 150.028C1357.6 145.545 1351.1 143.303 1343.55 143.303C1334.19 143.303 1326.93 146.185 1321.74 151.949C1316.55 157.649 1313.96 164.983 1313.96 173.949V268H1285.33V169.914C1285.33 161.909 1282.83 155.472 1277.83 150.604C1272.84 145.737 1266.34 143.303 1258.33 143.303C1252.89 143.303 1247.86 144.744 1243.25 147.626C1238.7 150.444 1235.02 154.383 1232.2 159.443C1229.45 164.502 1228.07 170.363 1228.07 177.023V268H1199.35ZM1416.79 268V120.439H1445.52V268H1416.79ZM1431.3 97.6708C1426.31 97.6708 1422.01 96.0056 1418.43 92.6752C1414.91 89.2808 1413.14 85.246 1413.14 80.5706C1413.14 75.8313 1414.91 71.7964 1418.43 68.466C1422.01 65.0716 1426.31 63.3744 1431.3 63.3744C1436.3 63.3744 1440.56 65.0716 1444.08 68.466C1447.66 71.7964 1449.46 75.8313 1449.46 80.5706C1449.46 85.246 1447.66 89.2808 1444.08 92.6752C1440.56 96.0056 1436.3 97.6708 1431.3 97.6708ZM1526.12 270.978C1511.58 270.978 1499.06 267.872 1488.55 261.659C1478.12 255.383 1470.05 246.577 1464.35 235.241C1458.71 223.841 1455.89 210.487 1455.89 195.18C1455.89 180.065 1458.71 166.744 1464.35 155.216C1470.05 143.688 1477.99 134.689 1488.17 128.221C1498.42 121.752 1510.39 118.518 1524.1 118.518C1532.43 118.518 1540.5 119.895 1548.31 122.649C1556.12 125.403 1563.14 129.726 1569.35 135.618C1575.56 141.51 1580.46 149.163 1584.05 158.578C1587.63 167.929 1589.43 179.297 1589.43 192.682V202.866H1472.13V181.346H1561.28C1561.28 173.789 1559.74 167.096 1556.67 161.268C1553.59 155.376 1549.27 150.733 1543.7 147.338C1538.19 143.944 1531.72 142.247 1524.29 142.247C1516.22 142.247 1509.18 144.232 1503.16 148.203C1497.2 152.11 1492.59 157.233 1489.32 163.574C1486.12 169.85 1484.52 176.671 1484.52 184.036V200.848C1484.52 210.711 1486.25 219.101 1489.71 226.018C1493.23 232.935 1498.13 238.219 1504.41 241.869C1510.68 245.456 1518.02 247.249 1526.41 247.249C1531.85 247.249 1536.81 246.481 1541.3 244.944C1545.78 243.342 1549.65 240.973 1552.92 237.835C1556.19 234.696 1558.68 230.822 1560.41 226.21L1587.6 231.11C1585.42 239.115 1581.52 246.128 1575.88 252.149C1570.31 258.105 1563.3 262.748 1554.84 266.079C1546.45 269.345 1536.88 270.978 1526.12 270.978ZM1599.65 268V120.439H1627.42V143.88H1628.96C1631.65 135.938 1636.39 129.694 1643.17 125.146C1650.03 120.535 1657.78 118.229 1666.42 118.229C1668.22 118.229 1670.33 118.293 1672.76 118.422C1675.26 118.55 1677.21 118.71 1678.62 118.902V146.377C1677.47 146.057 1675.42 145.705 1672.47 145.321C1669.53 144.872 1666.58 144.648 1663.64 144.648C1656.85 144.648 1650.8 146.089 1645.48 148.971C1640.23 151.789 1636.06 155.728 1632.99 160.788C1629.92 165.783 1628.38 171.483 1628.38 177.888V268H1599.65Z" fill="white"/>
</svg>
