<svg width="1000" height="1000" viewBox="0 0 1000 1000" fill="none" xmlns="http://www.w3.org/2000/svg">
<rect width="1000" height="1000" fill="#F7F7F7"/>
<path d="M575.502 378.863C552.513 258.991 443.393 263.605 422.675 378.863H404.613C433.241 219.75 569.538 231.793 593.563 378.863H575.502Z" fill="#E6E6E6"/>
<rect x="302" y="369.469" width="395.895" height="367.403" rx="38.2875" fill="url(#paint0_linear_796_2)"/>
<path d="M631.822 521.402V639.732H587.801V526.652C587.801 512.652 585.243 502.286 580.128 495.555C575.281 488.555 567.608 485.055 557.108 485.055C549.569 485.055 542.973 486.67 537.319 489.901C531.934 493.132 527.626 497.843 524.395 504.036C521.434 510.228 519.953 517.767 519.953 526.652V639.732H476.336V526.652C476.336 512.652 473.778 502.286 468.663 495.555C463.816 488.555 456.008 485.055 445.239 485.055C437.969 485.055 431.508 486.67 425.854 489.901C420.469 493.132 416.161 497.843 412.93 504.036C409.969 510.228 408.488 517.767 408.488 526.652V639.732H365.679V453.957H408.488V481.016C414.142 470.785 421.277 463.112 429.892 457.996C438.508 452.611 448.874 449.919 460.989 449.919C474.451 449.919 485.625 452.746 494.51 458.4C503.664 464.054 510.26 472.266 514.299 483.035C521.03 471.996 529.242 463.785 538.934 458.4C548.896 452.746 560.069 449.919 572.454 449.919C585.916 449.919 596.955 452.746 605.571 458.4C614.187 463.785 620.648 471.862 624.956 482.631C629.533 493.401 631.822 506.324 631.822 521.402Z" fill="white"/>
<defs>
<linearGradient id="paint0_linear_796_2" x1="499.948" y1="369.469" x2="499.948" y2="736.871" gradientUnits="userSpaceOnUse">
<stop stop-color="#338AF5"/>
<stop offset="1" stop-color="#0565DC"/>
</linearGradient>
</defs>
</svg>
