<svg width="1000" height="1000" viewBox="0 0 1000 1000" fill="none" xmlns="http://www.w3.org/2000/svg">
<rect width="1000" height="1000" fill="#032C7D"/>
<path d="M602.762 257.201C584.558 201.68 498.147 203.817 481.74 257.201H467.438C490.108 183.505 598.039 189.083 617.064 257.201H602.762Z" fill="#E3E3E3"/>
<rect x="385.496" y="257.201" width="313.504" height="290.941" rx="41.563" fill="url(#paint0_linear_753_2)"/>
<rect x="300" y="351.967" width="313.504" height="290.941" rx="41.563" fill="#E3E3E3"/>
<path d="M516.023 409.309C495.904 495.041 415.993 491.877 397.421 409.298C396.675 405.982 393.774 403.503 390.375 403.503C385.984 403.503 382.67 407.548 383.63 411.832C408.852 524.461 507.803 516.324 530.001 411.817C530.917 407.505 527.559 403.503 523.151 403.503C519.733 403.503 516.803 405.981 516.023 409.309Z" fill="#3F3F3F"/>
<circle cx="516.475" cy="402.292" r="22.4403" fill="#B9B9B9"/>
<circle cx="392.78" cy="402.292" r="22.4403" fill="#B9B9B9"/>
<path d="M231.745 733.314V779H214.847V735.192C214.847 729.768 213.856 725.752 211.874 723.145C209.997 720.433 206.972 719.077 202.8 719.077C199.984 719.077 197.48 719.703 195.29 720.954C193.204 722.206 191.535 724.031 190.283 726.43C189.136 728.829 188.562 731.75 188.562 735.192V779H171.665V735.192C171.665 729.768 170.674 725.752 168.692 723.145C166.815 720.433 163.79 719.077 159.618 719.077C156.697 719.077 154.142 719.703 151.951 720.954C149.865 722.206 148.248 724.031 147.101 726.43C145.954 728.829 145.38 731.75 145.38 735.192V779H128.796V707.03H145.38V717.512C147.466 713.549 150.178 710.576 153.516 708.594C156.958 706.508 160.974 705.465 165.563 705.465C170.883 705.465 175.263 706.56 178.705 708.751C182.252 710.941 184.807 714.122 186.372 718.295C188.875 714.122 192.004 710.941 195.759 708.751C199.619 706.56 203.999 705.465 208.902 705.465C214.013 705.465 218.237 706.56 221.575 708.751C225.017 710.837 227.572 713.966 229.241 718.138C230.91 722.31 231.745 727.369 231.745 733.314ZM257.701 756.627C257.701 759.026 258.274 761.112 259.422 762.885C260.569 764.554 262.134 765.805 264.115 766.64C266.201 767.474 268.548 767.892 271.156 767.892C274.494 767.892 277.518 767.214 280.23 765.858C283.047 764.502 285.289 762.52 286.958 759.912C288.731 757.2 289.618 754.071 289.618 750.525L292.121 759.912C292.121 764.502 290.765 768.361 288.053 771.49C285.446 774.515 282.108 776.81 278.04 778.374C274.076 779.834 270.009 780.565 265.836 780.565C261.351 780.565 257.179 779.678 253.32 777.905C249.46 776.132 246.383 773.524 244.089 770.082C241.794 766.64 240.647 762.468 240.647 757.565C240.647 750.577 243.098 745.049 248 740.981C252.903 736.809 259.839 734.723 268.809 734.723C273.607 734.723 277.727 735.244 281.169 736.287C284.716 737.33 287.636 738.582 289.931 740.042C292.225 741.398 293.842 742.65 294.781 743.797V752.402C291.547 750.108 288.105 748.439 284.455 747.396C280.804 746.353 276.945 745.831 272.877 745.831C269.331 745.831 266.462 746.3 264.272 747.239C262.081 748.074 260.412 749.273 259.265 750.838C258.222 752.402 257.701 754.332 257.701 756.627ZM252.381 725.804L245.497 713.914C248.73 711.932 252.903 710.002 258.013 708.125C263.229 706.247 269.174 705.309 275.85 705.309C281.795 705.309 287.01 706.195 291.495 707.968C296.085 709.742 299.683 712.297 302.291 715.635C304.899 718.868 306.202 722.884 306.202 727.682V779H289.618V730.968C289.618 728.673 289.201 726.795 288.366 725.335C287.636 723.875 286.593 722.675 285.237 721.737C283.881 720.798 282.264 720.12 280.387 719.703C278.509 719.285 276.475 719.077 274.285 719.077C270.947 719.077 267.766 719.494 264.741 720.328C261.821 721.059 259.265 721.997 257.075 723.145C254.989 724.188 253.424 725.074 252.381 725.804ZM330.908 743.015C330.908 747.604 331.899 751.62 333.881 755.062C335.862 758.4 338.522 761.06 341.86 763.041C345.302 765.023 349.109 766.014 353.281 766.014C356.723 766.014 360.009 765.493 363.138 764.449C366.267 763.406 369.031 761.946 371.43 760.069C373.829 758.191 375.603 756.105 376.75 753.81V772.429C374.247 774.932 370.857 776.914 366.58 778.374C362.304 779.834 357.61 780.565 352.499 780.565C345.093 780.565 338.418 779 332.472 775.871C326.631 772.637 321.99 768.204 318.548 762.572C315.21 756.835 313.541 750.316 313.541 743.015C313.541 735.609 315.21 729.09 318.548 723.458C321.99 717.825 326.631 713.444 332.472 710.315C338.418 707.082 345.093 705.465 352.499 705.465C357.61 705.465 362.304 706.195 366.58 707.655C370.857 709.116 374.247 711.097 376.75 713.601V732.219C375.603 729.82 373.777 727.734 371.274 725.961C368.875 724.083 366.111 722.623 362.982 721.58C359.853 720.537 356.619 720.016 353.281 720.016C349.109 720.016 345.302 721.006 341.86 722.988C338.522 724.97 335.862 727.682 333.881 731.124C331.899 734.566 330.908 738.53 330.908 743.015ZM405.597 813.421H388.543V707.03H405.597V813.421ZM465.207 743.015C465.207 750.942 463.59 757.774 460.357 763.511C457.123 769.143 452.847 773.472 447.527 776.497C442.208 779.417 436.419 780.877 430.161 780.877C424.007 780.877 418.635 779.365 414.045 776.34C409.56 773.211 406.066 768.83 403.563 763.198C401.164 757.461 399.964 750.733 399.964 743.015C399.964 735.192 401.164 728.464 403.563 722.832C406.066 717.199 409.56 712.871 414.045 709.846C418.635 706.717 424.007 705.152 430.161 705.152C436.419 705.152 442.208 706.665 447.527 709.689C452.847 712.61 457.123 716.886 460.357 722.519C463.59 728.151 465.207 734.983 465.207 743.015ZM447.684 743.015C447.684 738.217 446.693 734.149 444.711 730.811C442.729 727.369 440.07 724.814 436.732 723.145C433.498 721.372 429.9 720.485 425.936 720.485C422.703 720.485 419.521 721.372 416.392 723.145C413.263 724.814 410.656 727.317 408.569 730.655C406.588 733.992 405.597 738.112 405.597 743.015C405.597 747.917 406.588 752.037 408.569 755.375C410.656 758.713 413.263 761.268 416.392 763.041C419.521 764.71 422.703 765.545 425.936 765.545C429.9 765.545 433.498 764.71 436.732 763.041C440.07 761.268 442.729 758.713 444.711 755.375C446.693 751.933 447.684 747.813 447.684 743.015ZM491.784 707.03V779H475.043V707.03H491.784ZM513.219 725.022C511.654 723.771 510.194 722.832 508.838 722.206C507.482 721.58 505.761 721.267 503.675 721.267C500.859 721.267 498.564 721.997 496.791 723.458C495.017 724.918 493.714 726.952 492.879 729.559C492.149 732.063 491.784 735.035 491.784 738.478L486.152 735.192C486.152 729.455 487.195 724.396 489.281 720.016C491.471 715.53 494.235 711.984 497.573 709.376C501.015 706.769 504.561 705.465 508.212 705.465C510.82 705.465 513.271 705.882 515.566 706.717C517.86 707.447 519.79 708.803 521.354 710.785L513.219 725.022ZM555.692 780.565C548.391 780.565 541.924 779 536.291 775.871C530.763 772.742 526.487 768.361 523.462 762.728C520.437 757.096 518.924 750.525 518.924 743.015C518.924 735.401 520.437 728.777 523.462 723.145C526.591 717.512 530.972 713.184 536.604 710.159C542.237 707.03 548.86 705.465 556.474 705.465C564.088 705.465 570.555 706.925 575.875 709.846C581.194 712.766 585.262 716.991 588.079 722.519C590.999 727.943 592.459 734.514 592.459 742.233C592.459 743.067 592.407 743.954 592.303 744.892C592.303 745.831 592.251 746.509 592.146 746.926H528.938V735.348H577.752L572.589 742.545C572.902 741.92 573.215 741.085 573.528 740.042C573.945 738.895 574.154 737.956 574.154 737.226C574.154 733.367 573.372 730.029 571.807 727.213C570.347 724.396 568.261 722.206 565.549 720.641C562.941 719.077 559.864 718.295 556.318 718.295C552.041 718.295 548.391 719.233 545.366 721.111C542.341 722.988 540.046 725.7 538.482 729.247C536.917 732.793 536.083 737.174 535.978 742.389C535.978 747.604 536.761 752.037 538.325 755.688C539.89 759.234 542.184 761.946 545.209 763.824C548.338 765.701 552.093 766.64 556.474 766.64C561.064 766.64 565.079 765.701 568.521 763.824C571.963 761.946 574.832 759.078 577.127 755.218L591.677 761.164C587.922 767.631 583.072 772.481 577.127 775.714C571.181 778.948 564.036 780.565 555.692 780.565ZM705.279 733.314V779H688.381V735.192C688.381 729.768 687.39 725.752 685.409 723.145C683.531 720.433 680.506 719.077 676.334 719.077C673.518 719.077 671.014 719.703 668.824 720.954C666.738 722.206 665.069 724.031 663.817 726.43C662.67 728.829 662.096 731.75 662.096 735.192V779H645.199V735.192C645.199 729.768 644.208 725.752 642.226 723.145C640.349 720.433 637.324 719.077 633.152 719.077C630.231 719.077 627.676 719.703 625.485 720.954C623.399 722.206 621.783 724.031 620.635 726.43C619.488 728.829 618.914 731.75 618.914 735.192V779H602.33V707.03H618.914V717.512C621 713.549 623.712 710.576 627.05 708.594C630.492 706.508 634.508 705.465 639.097 705.465C644.417 705.465 648.798 706.56 652.24 708.751C655.786 710.941 658.341 714.122 659.906 718.295C662.409 714.122 665.538 710.941 669.293 708.751C673.153 706.56 677.534 705.465 682.436 705.465C687.547 705.465 691.771 706.56 695.109 708.751C698.551 710.837 701.106 713.966 702.775 718.138C704.444 722.31 705.279 727.369 705.279 733.314ZM719.97 678.398C719.97 675.477 721.013 673.026 723.099 671.044C725.289 669.063 727.793 668.072 730.609 668.072C733.634 668.072 736.137 669.063 738.119 671.044C740.205 673.026 741.248 675.477 741.248 678.398C741.248 681.214 740.205 683.665 738.119 685.751C736.137 687.733 733.634 688.724 730.609 688.724C727.793 688.724 725.289 687.733 723.099 685.751C721.013 683.665 719.97 681.214 719.97 678.398ZM722.317 707.03H738.901V779H722.317V707.03ZM787.188 780.565C779.886 780.565 773.419 779 767.787 775.871C762.259 772.742 757.982 768.361 754.958 762.728C751.933 757.096 750.42 750.525 750.42 743.015C750.42 735.401 751.933 728.777 754.958 723.145C758.087 717.512 762.467 713.184 768.1 710.159C773.732 707.03 780.356 705.465 787.97 705.465C795.584 705.465 802.051 706.925 807.371 709.846C812.69 712.766 816.758 716.991 819.574 722.519C822.495 727.943 823.955 734.514 823.955 742.233C823.955 743.067 823.903 743.954 823.799 744.892C823.799 745.831 823.747 746.509 823.642 746.926H760.434V735.348H809.248L804.085 742.545C804.398 741.92 804.711 741.085 805.024 740.042C805.441 738.895 805.65 737.956 805.65 737.226C805.65 733.367 804.867 730.029 803.303 727.213C801.843 724.396 799.756 722.206 797.045 720.641C794.437 719.077 791.36 718.295 787.814 718.295C783.537 718.295 779.886 719.233 776.862 721.111C773.837 722.988 771.542 725.7 769.977 729.247C768.413 732.793 767.578 737.174 767.474 742.389C767.474 747.604 768.256 752.037 769.821 755.688C771.386 759.234 773.68 761.946 776.705 763.824C779.834 765.701 783.589 766.64 787.97 766.64C792.559 766.64 796.575 765.701 800.017 763.824C803.459 761.946 806.328 759.078 808.622 755.218L823.173 761.164C819.418 767.631 814.568 772.481 808.622 775.714C802.677 778.948 795.532 780.565 787.188 780.565ZM850.566 707.03V779H833.825V707.03H850.566ZM872.001 725.022C870.436 723.771 868.976 722.832 867.62 722.206C866.264 721.58 864.543 721.267 862.457 721.267C859.641 721.267 857.346 721.997 855.573 723.458C853.8 724.918 852.496 726.952 851.662 729.559C850.931 732.063 850.566 735.035 850.566 738.478L844.934 735.192C844.934 729.455 845.977 724.396 848.063 720.016C850.253 715.53 853.018 711.984 856.355 709.376C859.797 706.769 863.344 705.465 866.994 705.465C869.602 705.465 872.053 705.882 874.348 706.717C876.643 707.447 878.572 708.803 880.137 710.785L872.001 725.022Z" fill="white"/>
<rect x="379.652" y="786.408" width="112.729" height="9.493" fill="url(#paint1_linear_753_2)"/>
<defs>
<linearGradient id="paint0_linear_753_2" x1="542.248" y1="257.201" x2="542.248" y2="548.142" gradientUnits="userSpaceOnUse">
<stop stop-color="#00ADEF"/>
<stop offset="1" stop-color="#008BEF"/>
</linearGradient>
<linearGradient id="paint1_linear_753_2" x1="380.439" y1="791.155" x2="492.382" y2="791.155" gradientUnits="userSpaceOnUse">
<stop stop-color="#00AAEF"/>
<stop offset="1" stop-color="#008DEF"/>
</linearGradient>
</defs>
</svg>
