<svg width="350" height="141" viewBox="0 0 350 141" fill="none" xmlns="http://www.w3.org/2000/svg">
<path d="M0 0H350V98H0C0 59.7286 0 38.2714 0 0Z" fill="url(#paint0_linear_660_14)"/>
<path d="M300 98H350L300 129V98Z" fill="#D9D9D9"/>
<path d="M116.296 61.482C108.262 61.482 104.165 58.1078 103.924 51.8814H111.757C111.958 53.9301 112.882 55.6172 116.296 55.6172C118.666 55.6172 119.992 54.4523 119.992 52.7651C119.992 50.9977 118.907 50.5156 115.453 49.9934C107.338 49.0293 104.607 46.6191 104.607 40.8347C104.607 35.6527 108.865 31.8768 115.734 31.8768C122.643 31.8768 126.54 34.769 127.062 40.8347H119.43C119.148 38.786 117.983 37.7416 115.734 37.7416C113.525 37.7416 112.4 38.7458 112.4 40.1919C112.4 41.7987 113.284 42.5218 116.859 43.0038C124.129 43.8072 127.865 45.6952 127.865 51.9216C127.865 57.1838 123.688 61.482 116.296 61.482ZM131.78 61V32.2784H151.624V38.6253H139.975V43.5662H149.254V49.431H139.975V54.6531H152.267V61H131.78ZM156.377 61V32.2784H167.102L172.605 47.5832L178.108 32.2784H188.633V61H180.438V43.1243L173.409 61H170.677L163.728 43.1243V61H156.377ZM194.393 61V32.2784H202.708V61H194.393ZM208.354 61V32.2784H217.634L226.832 48.467V32.2784H234.023V61H226.069L215.585 42.9637V61H208.354ZM253.278 55.0147C257.335 55.0147 259.866 51.8814 259.866 46.7396V46.4183C259.866 41.3167 257.295 38.304 253.238 38.304C249.181 38.304 246.65 41.2364 246.65 46.4585V46.7798C246.65 52.0019 249.301 55.0147 253.278 55.0147ZM253.117 61.482C243.838 61.482 238.054 55.4565 238.054 46.82V46.4986C238.054 37.7416 244.642 31.8768 253.238 31.8768C261.995 31.8768 268.462 37.38 268.462 46.2978V46.6191C268.462 55.4565 262.397 61.482 253.117 61.482ZM278.311 61L268.791 32.2784H277.669L283.493 52.4438L289.358 32.2784H297.071L287.671 61H278.311ZM312.592 55.0147C316.649 55.0147 319.18 51.8814 319.18 46.7396V46.4183C319.18 41.3167 316.609 38.304 312.552 38.304C308.494 38.304 305.964 41.2364 305.964 46.4585V46.7798C305.964 52.0019 308.615 55.0147 312.592 55.0147ZM312.431 61.482C303.152 61.482 297.367 55.4565 297.367 46.82V46.4986C297.367 37.7416 303.955 31.8768 312.552 31.8768C321.309 31.8768 327.776 37.38 327.776 46.2978V46.6191C327.776 55.4565 321.71 61.482 312.431 61.482Z" fill="url(#paint1_linear_660_14)"/>
<path d="M35.7552 20.9742C35.2126 21.058 33.9278 22.5195 26.5761 31.3136C21.8762 36.9324 18.0399 41.6115 18.0195 41.6954C18.0195 41.7996 21.9365 41.8623 26.7366 41.8623H35.4741L43.9705 31.5644C48.65 25.9245 52.5466 21.1834 52.6069 21.0784C52.7275 20.87 37.0204 20.7658 35.7552 20.9742Z" fill="url(#paint2_linear_660_14)"/>
<path d="M60.282 21.0165C60.2217 21.1004 64.0377 25.8203 68.7376 31.5229L77.3138 41.8623H86.0309C90.8318 41.8623 94.748 41.7996 94.748 41.6954C94.7276 41.6115 90.8514 36.912 86.1115 31.2306L77.4954 20.9115L68.9192 20.8903C64.2185 20.87 60.3219 20.9327 60.282 21.0165Z" fill="url(#paint3_linear_660_14)"/>
<path d="M48.1521 31.6898C43.673 37.1001 39.9971 41.6115 39.9572 41.6954C39.9173 41.7793 47.3081 41.8623 56.3674 41.8623C65.4462 41.8623 72.8574 41.8208 72.8574 41.7581C72.8574 41.6539 70.5274 38.8132 59.7214 25.7787C57.9739 23.648 56.4676 21.8934 56.4073 21.8731C56.347 21.8519 52.6312 26.2591 48.1521 31.6898Z" fill="url(#paint4_linear_660_14)"/>
<path d="M19.4449 46.6041C20.1684 47.3979 27.4598 55.377 35.6742 64.3592C43.8692 73.3617 50.618 80.7139 50.6783 80.7139C50.7988 80.7139 50.6579 80.4004 42.8451 62.5419L35.3133 45.3095L26.7363 45.2468L18.1602 45.2053L19.4449 46.6041Z" fill="url(#paint5_linear_660_14)"/>
<path d="M38.9494 45.3924C39.2704 46.3328 56.303 85.1006 56.3836 85.1006C56.4838 85.1006 73.3356 46.7301 73.7975 45.4763C73.8774 45.2467 70.8247 45.2051 56.3836 45.2051C45.7984 45.2051 38.9095 45.2882 38.9494 45.3924Z" fill="url(#paint6_linear_660_14)"/>
<path d="M77.1881 45.874C77.048 46.2501 73.7738 53.7489 69.9374 62.5421C61.7018 81.3622 61.9837 80.7141 62.0839 80.7141C62.1238 80.7141 68.8726 73.3619 77.0879 64.3798C85.3024 55.3772 92.5938 47.3982 93.3172 46.6043L94.602 45.2055H86.0462H77.4692L77.1881 45.874Z" fill="url(#paint7_linear_660_14)"/>
<defs>
<linearGradient id="paint0_linear_660_14" x1="22.8558" y1="49" x2="330.566" y2="55.2272" gradientUnits="userSpaceOnUse">
<stop stop-color="#606C88"/>
<stop offset="1" stop-color="#606C88"/>
</linearGradient>
<linearGradient id="paint1_linear_660_14" x1="216.5" y1="12" x2="216.5" y2="84" gradientUnits="userSpaceOnUse">
<stop stop-color="white"/>
<stop offset="1" stop-color="white" stop-opacity="0.69"/>
</linearGradient>
<linearGradient id="paint2_linear_660_14" x1="35.3136" y1="41.8623" x2="35.3136" y2="20.8606" gradientUnits="userSpaceOnUse">
<stop stop-color="white"/>
<stop offset="1" stop-color="white" stop-opacity="0.69"/>
</linearGradient>
<linearGradient id="paint3_linear_660_14" x1="77.5146" y1="41.8623" x2="77.5146" y2="20.8865" gradientUnits="userSpaceOnUse">
<stop stop-color="white"/>
<stop offset="1" stop-color="white" stop-opacity="0.69"/>
</linearGradient>
<linearGradient id="paint4_linear_660_14" x1="56.4072" y1="41.8623" x2="56.4072" y2="21.873" gradientUnits="userSpaceOnUse">
<stop stop-color="white"/>
<stop offset="1" stop-color="white" stop-opacity="0.69"/>
</linearGradient>
<linearGradient id="paint5_linear_660_14" x1="34.4297" y1="80.7139" x2="34.4297" y2="45.2053" gradientUnits="userSpaceOnUse">
<stop stop-color="white"/>
<stop offset="1" stop-color="white" stop-opacity="0.69"/>
</linearGradient>
<linearGradient id="paint6_linear_660_14" x1="56.3741" y1="85.1006" x2="56.3741" y2="45.2051" gradientUnits="userSpaceOnUse">
<stop stop-color="white"/>
<stop offset="1" stop-color="white" stop-opacity="0.69"/>
</linearGradient>
<linearGradient id="paint7_linear_660_14" x1="78.3283" y1="80.7168" x2="78.3283" y2="45.2055" gradientUnits="userSpaceOnUse">
<stop stop-color="white"/>
<stop offset="1" stop-color="white" stop-opacity="0.69"/>
</linearGradient>
</defs>
</svg>
