<svg width="333" height="98" viewBox="0 0 333 98" fill="none" xmlns="http://www.w3.org/2000/svg">
<path d="M0 49C0 21.9381 21.938 0 49 0H284C311.062 0 333 21.938 333 49V49C333 76.062 311.062 98 284 98H49C21.938 98 0 76.0619 0 49V49Z" fill="url(#paint0_linear_660_14)"/>
<path d="M107.296 62.482C99.2623 62.482 95.1649 59.1078 94.9239 52.8814H102.757C102.958 54.9301 103.882 56.6172 107.296 56.6172C109.666 56.6172 110.992 55.4523 110.992 53.7651C110.992 51.9977 109.907 51.5156 106.453 50.9934C98.3384 50.0293 95.6068 47.6191 95.6068 41.8347C95.6068 36.6527 99.8648 32.8768 106.734 32.8768C113.643 32.8768 117.54 35.769 118.062 41.8347H110.43C110.148 39.786 108.983 38.7416 106.734 38.7416C104.525 38.7416 103.4 39.7458 103.4 41.1919C103.4 42.7987 104.284 43.5218 107.859 44.0038C115.129 44.8072 118.865 46.6952 118.865 52.9216C118.865 58.1838 114.688 62.482 107.296 62.482ZM122.78 62V33.2784H142.624V39.6253H130.975V44.5662H140.254V50.431H130.975V55.6531H143.267V62H122.78ZM147.377 62V33.2784H158.102L163.605 48.5832L169.108 33.2784H179.633V62H171.438V44.1243L164.409 62H161.677L154.728 44.1243V62H147.377ZM185.393 62V33.2784H193.708V62H185.393ZM199.354 62V33.2784H208.634L217.832 49.467V33.2784H225.023V62H217.069L206.585 43.9637V62H199.354ZM244.278 56.0147C248.335 56.0147 250.866 52.8814 250.866 47.7396V47.4183C250.866 42.3167 248.295 39.304 244.238 39.304C240.181 39.304 237.65 42.2364 237.65 47.4585V47.7798C237.65 53.0019 240.301 56.0147 244.278 56.0147ZM244.117 62.482C234.838 62.482 229.054 56.4565 229.054 47.82V47.4986C229.054 38.7416 235.642 32.8768 244.238 32.8768C252.995 32.8768 259.462 38.38 259.462 47.2978V47.6191C259.462 56.4565 253.397 62.482 244.117 62.482ZM269.311 62L259.791 33.2784H268.669L274.493 53.4438L280.358 33.2784H288.071L278.671 62H269.311ZM303.592 56.0147C307.649 56.0147 310.18 52.8814 310.18 47.7396V47.4183C310.18 42.3167 307.609 39.304 303.552 39.304C299.494 39.304 296.964 42.2364 296.964 47.4585V47.7798C296.964 53.0019 299.615 56.0147 303.592 56.0147ZM303.431 62.482C294.152 62.482 288.367 56.4565 288.367 47.82V47.4986C288.367 38.7416 294.955 32.8768 303.552 32.8768C312.309 32.8768 318.776 38.38 318.776 47.2978V47.6191C318.776 56.4565 312.71 62.482 303.431 62.482Z" fill="url(#paint1_linear_660_14)"/>
<path d="M29.8742 20.1035C29.358 20.1802 28.1356 21.5173 21.141 29.5629C16.6694 34.7035 13.0194 38.9844 13 39.0612C13 39.1565 16.7267 39.2139 21.2937 39.2139H29.6068L37.6904 29.7924C42.1427 24.6325 45.8501 20.2949 45.9074 20.1988C46.0222 20.0081 31.078 19.9128 29.8742 20.1035Z" fill="url(#paint2_linear_660_14)"/>
<path d="M53.2077 20.1422C53.1503 20.2189 56.781 24.5371 61.2526 29.7544L69.4122 39.2139H77.706C82.2737 39.2139 85.9997 39.1565 85.9997 39.0612C85.9803 38.9844 82.2923 34.6849 77.7827 29.487L69.5851 20.0461L61.4254 20.0267C56.9531 20.0081 53.2457 20.0655 53.2077 20.1422Z" fill="url(#paint3_linear_660_14)"/>
<path d="M41.6681 29.9071C37.4065 34.8569 33.9092 38.9844 33.8712 39.0612C33.8333 39.1379 40.8651 39.2139 49.4843 39.2139C58.1222 39.2139 65.1734 39.1759 65.1734 39.1185C65.1734 39.0232 62.9566 36.4242 52.6755 24.4991C51.0129 22.5497 49.5797 20.9445 49.5223 20.9258C49.465 20.9065 45.9297 24.9386 41.6681 29.9071Z" fill="url(#paint4_linear_660_14)"/>
<path d="M14.3552 43.552C15.0435 44.2782 21.9807 51.5783 29.7962 59.796C37.5931 68.0323 44.0141 74.7588 44.0715 74.7588C44.1862 74.7588 44.0521 74.472 36.6188 58.1334L29.4528 42.3676L21.2924 42.3102L13.1328 42.2722L14.3552 43.552Z" fill="url(#paint5_linear_660_14)"/>
<path d="M32.9142 42.4437C33.2196 43.3041 49.4249 78.7725 49.5017 78.7725C49.597 78.7725 65.6302 43.6676 66.0697 42.5204C66.1457 42.3104 63.2413 42.2724 49.5017 42.2724C39.4306 42.2724 32.8762 42.3484 32.9142 42.4437Z" fill="url(#paint6_linear_660_14)"/>
<path d="M69.2968 42.8842C69.1635 43.2284 66.0483 50.0889 62.3983 58.1338C54.5627 75.3522 54.8309 74.7593 54.9262 74.7593C54.9642 74.7593 61.3852 68.0328 69.2015 59.8151C77.0169 51.5787 83.9542 44.2787 84.6425 43.5524L85.8649 42.2727H77.7246H69.5642L69.2968 42.8842Z" fill="url(#paint7_linear_660_14)"/>
<defs>
<linearGradient id="paint0_linear_660_14" x1="21.7456" y1="49" x2="314.521" y2="54.6372" gradientUnits="userSpaceOnUse">
<stop stop-color="#219FD6"/>
<stop offset="1" stop-color="#006996"/>
</linearGradient>
<linearGradient id="paint1_linear_660_14" x1="207.5" y1="13" x2="207.5" y2="85" gradientUnits="userSpaceOnUse">
<stop stop-color="white"/>
<stop offset="1" stop-color="white" stop-opacity="0.69"/>
</linearGradient>
<linearGradient id="paint2_linear_660_14" x1="29.454" y1="39.2139" x2="29.454" y2="19.9995" gradientUnits="userSpaceOnUse">
<stop stop-color="white"/>
<stop offset="1" stop-color="white" stop-opacity="0.69"/>
</linearGradient>
<linearGradient id="paint3_linear_660_14" x1="69.6034" y1="39.2139" x2="69.6034" y2="20.0232" gradientUnits="userSpaceOnUse">
<stop stop-color="white"/>
<stop offset="1" stop-color="white" stop-opacity="0.69"/>
</linearGradient>
<linearGradient id="paint4_linear_660_14" x1="49.5223" y1="39.2139" x2="49.5223" y2="20.9258" gradientUnits="userSpaceOnUse">
<stop stop-color="white"/>
<stop offset="1" stop-color="white" stop-opacity="0.69"/>
</linearGradient>
<linearGradient id="paint5_linear_660_14" x1="28.6121" y1="74.7588" x2="28.6121" y2="42.2722" gradientUnits="userSpaceOnUse">
<stop stop-color="white"/>
<stop offset="1" stop-color="white" stop-opacity="0.69"/>
</linearGradient>
<linearGradient id="paint6_linear_660_14" x1="49.4926" y1="78.7725" x2="49.4926" y2="42.2724" gradientUnits="userSpaceOnUse">
<stop stop-color="white"/>
<stop offset="1" stop-color="white" stop-opacity="0.69"/>
</linearGradient>
<linearGradient id="paint7_linear_660_14" x1="70.3817" y1="74.7617" x2="70.3817" y2="42.2727" gradientUnits="userSpaceOnUse">
<stop stop-color="white"/>
<stop offset="1" stop-color="white" stop-opacity="0.69"/>
</linearGradient>
</defs>
</svg>
