<svg width="333" height="141" viewBox="0 0 333 141" fill="none" xmlns="http://www.w3.org/2000/svg">
<path d="M0 0H333V98H0C0 59.7286 0 38.2714 0 0Z" fill="url(#paint0_linear_660_14)"/>
<path d="M240 98H333L240 129V98Z" fill="#D9D9D9"/>
<path d="M107.296 62.482C99.2623 62.482 95.1649 59.1078 94.9239 52.8814H102.757C102.958 54.9301 103.882 56.6172 107.296 56.6172C109.666 56.6172 110.992 55.4523 110.992 53.7651C110.992 51.9977 109.907 51.5156 106.453 50.9934C98.3384 50.0293 95.6068 47.6191 95.6068 41.8347C95.6068 36.6527 99.8648 32.8768 106.734 32.8768C113.643 32.8768 117.54 35.769 118.062 41.8347H110.43C110.148 39.786 108.983 38.7416 106.734 38.7416C104.525 38.7416 103.4 39.7458 103.4 41.1919C103.4 42.7987 104.284 43.5218 107.859 44.0038C115.129 44.8072 118.865 46.6952 118.865 52.9216C118.865 58.1838 114.688 62.482 107.296 62.482ZM122.78 62V33.2784H142.624V39.6253H130.975V44.5662H140.254V50.431H130.975V55.6531H143.267V62H122.78ZM147.377 62V33.2784H158.102L163.605 48.5832L169.108 33.2784H179.633V62H171.438V44.1243L164.409 62H161.677L154.728 44.1243V62H147.377ZM185.393 62V33.2784H193.708V62H185.393ZM199.354 62V33.2784H208.634L217.832 49.467V33.2784H225.023V62H217.069L206.585 43.9637V62H199.354ZM244.278 56.0147C248.335 56.0147 250.866 52.8814 250.866 47.7396V47.4183C250.866 42.3167 248.295 39.304 244.238 39.304C240.181 39.304 237.65 42.2364 237.65 47.4585V47.7798C237.65 53.0019 240.301 56.0147 244.278 56.0147ZM244.117 62.482C234.838 62.482 229.054 56.4565 229.054 47.82V47.4986C229.054 38.7416 235.642 32.8768 244.238 32.8768C252.995 32.8768 259.462 38.38 259.462 47.2978V47.6191C259.462 56.4565 253.397 62.482 244.117 62.482ZM269.311 62L259.791 33.2784H268.669L274.493 53.4438L280.358 33.2784H288.071L278.671 62H269.311ZM303.592 56.0147C307.649 56.0147 310.18 52.8814 310.18 47.7396V47.4183C310.18 42.3167 307.609 39.304 303.552 39.304C299.494 39.304 296.964 42.2364 296.964 47.4585V47.7798C296.964 53.0019 299.615 56.0147 303.592 56.0147ZM303.431 62.482C294.152 62.482 288.367 56.4565 288.367 47.82V47.4986C288.367 38.7416 294.955 32.8768 303.552 32.8768C312.309 32.8768 318.776 38.38 318.776 47.2978V47.6191C318.776 56.4565 312.71 62.482 303.431 62.482Z" fill="url(#paint1_linear_660_14)"/>
<path d="M29.8742 21.9742C29.358 22.058 28.1356 23.5195 21.141 32.3136C16.6694 37.9324 13.0194 42.6115 13 42.6954C13 42.7996 16.7267 42.8623 21.2937 42.8623H29.6068L37.6904 32.5644C42.1427 26.9245 45.8501 22.1834 45.9074 22.0784C46.0222 21.87 31.078 21.7658 29.8742 21.9742Z" fill="url(#paint2_linear_660_14)"/>
<path d="M53.2077 22.0165C53.1503 22.1004 56.781 26.8203 61.2526 32.5229L69.4122 42.8623H77.706C82.2737 42.8623 85.9997 42.7996 85.9997 42.6954C85.9803 42.6115 82.2923 37.912 77.7827 32.2306L69.5851 21.9115L61.4254 21.8903C56.9531 21.87 53.2457 21.9327 53.2077 22.0165Z" fill="url(#paint3_linear_660_14)"/>
<path d="M41.6681 32.6898C37.4065 38.1001 33.9092 42.6115 33.8712 42.6954C33.8333 42.7793 40.8651 42.8623 49.4843 42.8623C58.1222 42.8623 65.1734 42.8208 65.1734 42.7581C65.1734 42.6539 62.9566 39.8132 52.6755 26.7787C51.0129 24.648 49.5797 22.8934 49.5223 22.8731C49.465 22.8519 45.9297 27.2591 41.6681 32.6898Z" fill="url(#paint4_linear_660_14)"/>
<path d="M14.3552 47.6041C15.0435 48.3979 21.9807 56.377 29.7962 65.3592C37.5931 74.3617 44.0141 81.7139 44.0715 81.7139C44.1862 81.7139 44.0521 81.4004 36.6188 63.5419L29.4528 46.3095L21.2924 46.2468L13.1328 46.2053L14.3552 47.6041Z" fill="url(#paint5_linear_660_14)"/>
<path d="M32.9142 46.3924C33.2196 47.3328 49.4249 86.1006 49.5017 86.1006C49.597 86.1006 65.6302 47.7301 66.0697 46.4763C66.1457 46.2467 63.2413 46.2051 49.5017 46.2051C39.4306 46.2051 32.8762 46.2882 32.9142 46.3924Z" fill="url(#paint6_linear_660_14)"/>
<path d="M69.2968 46.874C69.1635 47.2501 66.0483 54.7489 62.3983 63.5421C54.5627 82.3622 54.8309 81.7141 54.9262 81.7141C54.9642 81.7141 61.3852 74.3619 69.2015 65.3798C77.0169 56.3772 83.9542 48.3982 84.6425 47.6043L85.8649 46.2055H77.7246H69.5642L69.2968 46.874Z" fill="url(#paint7_linear_660_14)"/>
<defs>
<linearGradient id="paint0_linear_660_14" x1="21.7456" y1="49" x2="314.521" y2="54.6372" gradientUnits="userSpaceOnUse">
<stop stop-color="#21D695"/>
<stop offset="1" stop-color="#008A58"/>
</linearGradient>
<linearGradient id="paint1_linear_660_14" x1="207.5" y1="13" x2="207.5" y2="85" gradientUnits="userSpaceOnUse">
<stop stop-color="white"/>
<stop offset="1" stop-color="white" stop-opacity="0.69"/>
</linearGradient>
<linearGradient id="paint2_linear_660_14" x1="29.454" y1="42.8623" x2="29.454" y2="21.8606" gradientUnits="userSpaceOnUse">
<stop stop-color="white"/>
<stop offset="1" stop-color="white" stop-opacity="0.69"/>
</linearGradient>
<linearGradient id="paint3_linear_660_14" x1="69.6034" y1="42.8623" x2="69.6034" y2="21.8865" gradientUnits="userSpaceOnUse">
<stop stop-color="white"/>
<stop offset="1" stop-color="white" stop-opacity="0.69"/>
</linearGradient>
<linearGradient id="paint4_linear_660_14" x1="49.5223" y1="42.8623" x2="49.5223" y2="22.873" gradientUnits="userSpaceOnUse">
<stop stop-color="white"/>
<stop offset="1" stop-color="white" stop-opacity="0.69"/>
</linearGradient>
<linearGradient id="paint5_linear_660_14" x1="28.6121" y1="81.7139" x2="28.6121" y2="46.2053" gradientUnits="userSpaceOnUse">
<stop stop-color="white"/>
<stop offset="1" stop-color="white" stop-opacity="0.69"/>
</linearGradient>
<linearGradient id="paint6_linear_660_14" x1="49.4926" y1="86.1006" x2="49.4926" y2="46.2051" gradientUnits="userSpaceOnUse">
<stop stop-color="white"/>
<stop offset="1" stop-color="white" stop-opacity="0.69"/>
</linearGradient>
<linearGradient id="paint7_linear_660_14" x1="70.3817" y1="81.7168" x2="70.3817" y2="46.2055" gradientUnits="userSpaceOnUse">
<stop stop-color="white"/>
<stop offset="1" stop-color="white" stop-opacity="0.69"/>
</linearGradient>
</defs>
</svg>
