<svg xmlns="http://www.w3.org/2000/svg" xmlns:xlink="http://www.w3.org/1999/xlink" width="2000" zoomAndPan="magnify" viewBox="0 0 1500 1499.999933" height="2000" preserveAspectRatio="xMidYMid meet" version="1.0"><defs><g/><clipPath id="59c00d8ef7"><rect x="0" width="988" y="0" height="441"/></clipPath><clipPath id="911a92e650"><path d="M 897.632812 511.621094 L 1292.132812 511.621094 L 1292.132812 750.121094 L 897.632812 750.121094 Z M 897.632812 511.621094 " clip-rule="nonzero"/></clipPath><clipPath id="452b466d90"><path d="M 163 0.621094 L 260 0.621094 L 260 160 L 163 160 Z M 163 0.621094 " clip-rule="nonzero"/></clipPath><clipPath id="7cfd101d7d"><path d="M 0.960938 17 L 68 17 L 68 155 L 0.960938 155 Z M 0.960938 17 " clip-rule="nonzero"/></clipPath><clipPath id="be6cb12b2e"><path d="M 252 135 L 395.132812 135 L 395.132812 239 L 252 239 Z M 252 135 " clip-rule="nonzero"/></clipPath><clipPath id="048be2c048"><rect x="0" width="396" y="0" height="240"/></clipPath></defs><rect x="-150" width="1800" fill="#ffffff" y="-149.999993" height="1799.99992" fill-opacity="1"/><rect x="-150" width="1800" fill="#0b58ff" y="-149.999993" height="1799.99992" fill-opacity="1"/><g transform="matrix(1, 0, 0, 1, 150, 623)"><g clip-path="url(#59c00d8ef7)"><g fill="#ffffff" fill-opacity="1"><g transform="translate(0.00002043, 345.391332)"><g><path d="M 233.59375 0 L 171.453125 0 L 71.140625 -174.453125 L 69.71875 -174.453125 C 71.71875 -143.640625 72.71875 -121.660156 72.71875 -108.515625 L 72.71875 0 L 29.015625 0 L 29.015625 -230.59375 L 90.6875 -230.59375 L 190.859375 -57.890625 L 191.953125 -57.890625 C 190.378906 -87.859375 189.59375 -109.046875 189.59375 -121.453125 L 189.59375 -230.59375 L 233.59375 -230.59375 Z M 233.59375 0 "/></g></g><g transform="translate(262.615172, 345.391332)"><g><path d="M 238.328125 -115.609375 C 238.328125 -77.441406 228.863281 -48.101562 209.9375 -27.59375 C 191.007812 -7.09375 163.878906 3.15625 128.546875 3.15625 C 93.210938 3.15625 66.082031 -7.09375 47.15625 -27.59375 C 28.226562 -48.101562 18.765625 -77.550781 18.765625 -115.9375 C 18.765625 -154.3125 28.253906 -183.617188 47.234375 -203.859375 C 66.210938 -224.109375 93.421875 -234.234375 128.859375 -234.234375 C 164.296875 -234.234375 191.398438 -224.03125 210.171875 -203.625 C 228.941406 -183.226562 238.328125 -153.890625 238.328125 -115.609375 Z M 70.03125 -115.609375 C 70.03125 -89.847656 74.921875 -70.445312 84.703125 -57.40625 C 94.484375 -44.375 109.097656 -37.859375 128.546875 -37.859375 C 167.554688 -37.859375 187.0625 -63.773438 187.0625 -115.609375 C 187.0625 -167.554688 167.660156 -193.53125 128.859375 -193.53125 C 109.410156 -193.53125 94.742188 -186.984375 84.859375 -173.890625 C 74.972656 -160.804688 70.03125 -141.378906 70.03125 -115.609375 Z M 70.03125 -115.609375 "/></g></g><g transform="translate(519.709886, 345.391332)"><g><path d="M 160.5625 -230.59375 L 209.9375 -230.59375 L 131.546875 0 L 78.234375 0 L 0 -230.59375 L 49.375 -230.59375 L 92.75 -93.375 C 95.164062 -85.28125 97.660156 -75.84375 100.234375 -65.0625 C 102.816406 -54.28125 104.421875 -46.789062 105.046875 -42.59375 C 106.203125 -52.257812 110.144531 -69.1875 116.875 -93.375 Z M 160.5625 -230.59375 "/></g></g><g transform="translate(729.644279, 345.391332)"><g><path d="M 238.328125 -115.609375 C 238.328125 -77.441406 228.863281 -48.101562 209.9375 -27.59375 C 191.007812 -7.09375 163.878906 3.15625 128.546875 3.15625 C 93.210938 3.15625 66.082031 -7.09375 47.15625 -27.59375 C 28.226562 -48.101562 18.765625 -77.550781 18.765625 -115.9375 C 18.765625 -154.3125 28.253906 -183.617188 47.234375 -203.859375 C 66.210938 -224.109375 93.421875 -234.234375 128.859375 -234.234375 C 164.296875 -234.234375 191.398438 -224.03125 210.171875 -203.625 C 228.941406 -183.226562 238.328125 -153.890625 238.328125 -115.609375 Z M 70.03125 -115.609375 C 70.03125 -89.847656 74.921875 -70.445312 84.703125 -57.40625 C 94.484375 -44.375 109.097656 -37.859375 128.546875 -37.859375 C 167.554688 -37.859375 187.0625 -63.773438 187.0625 -115.609375 C 187.0625 -167.554688 167.660156 -193.53125 128.859375 -193.53125 C 109.410156 -193.53125 94.742188 -186.984375 84.859375 -173.890625 C 74.972656 -160.804688 70.03125 -141.378906 70.03125 -115.609375 Z M 70.03125 -115.609375 "/></g></g></g></g></g><g clip-path="url(#911a92e650)"><g transform="matrix(1, 0, 0, 1, 897, 511)"><g clip-path="url(#048be2c048)"><g clip-path="url(#452b466d90)"><path fill="#ffffff" d="M 225.078125 5.882812 C 251.414062 14.789062 261.613281 23.183594 259.421875 34.027344 C 259.035156 36.222656 251.417969 48.746094 242.640625 61.914062 C 233.859375 75.085938 218.753906 98.710938 208.941406 114.332031 C 184.019531 154.226562 183.503906 155 180.019531 155.90625 C 178.210938 156.296875 175.5 157.457031 173.824219 158.230469 C 169.433594 160.554688 166.207031 159.265625 164.398438 154.875 C 162.976562 151.644531 163.496094 148.03125 167.628906 129.4375 C 173.308594 104.132812 173.824219 101.941406 182.476562 56.234375 C 190.09375 15.949219 191.769531 9.109375 195.773438 4.589844 C 200.550781 -0.964844 205.585938 -0.707031 225.082031 5.878906 Z M 225.078125 5.882812 " fill-opacity="1" fill-rule="evenodd"/></g><g clip-path="url(#7cfd101d7d)"><path fill="#ffffff" d="M 50.390625 18.40625 C 51.941406 19.179688 53.75 21.246094 54.523438 23.183594 C 55.296875 24.992188 57.363281 41.90625 59.171875 60.757812 C 60.976562 79.609375 63.429688 102.847656 64.464844 112.398438 C 68.855469 150.097656 68.722656 152.421875 60.976562 154.363281 C 55.558594 155.785156 51.683594 150.878906 44.324219 133.058594 C 40.707031 124.152344 29.476562 100.65625 19.535156 80.769531 C 8.558594 58.691406 1.203125 42.550781 0.816406 39.195312 C -0.21875 31.1875 3.136719 28.476562 22.765625 22.152344 C 39.292969 16.730469 45.359375 15.953125 50.394531 18.40625 Z M 50.390625 18.40625 " fill-opacity="1" fill-rule="evenodd"/></g><g clip-path="url(#be6cb12b2e)"><path fill="#ffffff" d="M 360.902344 137.058594 C 363.226562 138.351562 388.273438 170.886719 393.050781 178.636719 C 396.410156 184.316406 396.28125 190.644531 392.535156 193.871094 C 390.085938 196.195312 352.902344 209.234375 284.730469 231.957031 C 273.238281 235.828125 262.003906 238.925781 259.941406 238.925781 C 254.777344 238.925781 252.453125 234.796875 252.710938 226.789062 C 252.972656 221.367188 253.613281 219.949219 256.84375 217.363281 C 258.90625 215.816406 267.945312 208.714844 276.984375 201.742188 C 296.867188 186.378906 322.171875 164.820312 337.925781 149.710938 C 352.902344 135.511719 355.746094 133.957031 360.910156 137.058594 Z M 360.902344 137.058594 " fill-opacity="1" fill-rule="evenodd"/></g></g></g></g></svg>