<svg width="350" height="141" viewBox="0 0 350 141" fill="none" xmlns="http://www.w3.org/2000/svg">
<path d="M0 0H350V98H0C0 59.7286 0 38.2714 0 0Z" fill="url(#paint0_linear_660_13)"/>
<path d="M118.47 38.0147C122.527 38.0147 125.058 34.8814 125.058 29.7396V29.4183C125.058 24.3167 122.487 21.304 118.43 21.304C114.372 21.304 111.842 24.2364 111.842 29.4585V29.7798C111.842 35.0019 114.493 38.0147 118.47 38.0147ZM118.309 44.482C109.03 44.482 103.245 38.4565 103.245 29.82V29.4986C103.245 20.7416 109.833 14.8768 118.43 14.8768C127.187 14.8768 133.654 20.38 133.654 29.2978V29.6191C133.654 38.4565 127.588 44.482 118.309 44.482ZM137.684 44V15.2784H157.087V21.6655H145.959V27.7713H154.837V33.837H145.959V44H137.684ZM160.947 44V15.2784H180.791V21.6253H169.142V26.5662H178.421V32.431H169.142V37.6531H181.434V44H160.947ZM185.543 44V15.2784H196.791C204.303 15.2784 208.48 18.3314 208.48 24.397V24.5577C208.48 28.6551 206.311 30.9447 203.298 32.1097L210.167 44H201.491L195.666 33.7165H193.738V44H185.543ZM193.738 28.3739H196.389C199.161 28.3739 200.527 27.2089 200.527 24.8791V24.7184C200.527 22.3885 199.081 21.4646 196.429 21.4646H193.738V28.3739ZM218.271 44V21.6253H210.84V15.2784H233.978V21.6253H226.546V44H218.271ZM232.722 44L241.921 15.2784H252.566L261.684 44H252.967L251.441 38.6574H241.921L240.394 44H232.722ZM246.701 21.9467L243.527 32.9934H249.834L246.701 21.9467ZM104.772 80V51.2784H124.616V57.6253H112.966V62.5662H122.246V68.431H112.966V73.6531H125.258V80H104.772ZM140.089 80.482C132.055 80.482 127.957 77.1078 127.716 70.8814H135.549C135.75 72.9301 136.674 74.6172 140.089 74.6172C142.459 74.6172 143.784 73.4523 143.784 71.7651C143.784 69.9977 142.7 69.5156 139.245 68.9934C131.131 68.0293 128.399 65.6191 128.399 59.8347C128.399 54.6527 132.657 50.8768 139.526 50.8768C146.436 50.8768 150.332 53.769 150.854 59.8347H143.222C142.941 57.786 141.776 56.7416 139.526 56.7416C137.317 56.7416 136.192 57.7458 136.192 59.1919C136.192 60.7987 137.076 61.5218 140.651 62.0038C147.922 62.8072 151.658 64.6952 151.658 70.9216C151.658 76.1838 147.48 80.482 140.089 80.482ZM155.573 80V51.2784H166.499C174.372 51.2784 178.028 54.7732 178.028 60.8791V61.0398C178.028 67.0653 173.971 70.319 166.86 70.319H163.767V80H155.573ZM163.767 64.6952H166.137C168.789 64.6952 170.195 63.45 170.195 61.0799V60.9192C170.195 58.4689 168.748 57.4646 166.178 57.4646H163.767V64.6952ZM181.777 80V51.2784H201.621V57.6253H189.972V62.5662H199.251V68.431H189.972V73.6531H202.264V80H181.777ZM219.478 80.482C209.436 80.482 204.495 74.6172 204.495 65.82V65.4986C204.495 56.6612 210.762 50.8366 219.157 50.8366C226.629 50.8366 231.811 54.2912 232.493 61.8833H224.018C223.696 58.9509 222.089 57.3441 219.197 57.3441C215.502 57.3441 213.172 60.2364 213.172 65.4585V65.7798C213.172 70.9618 215.381 73.8942 219.318 73.8942C222.21 73.8942 224.259 72.3677 224.66 69.1943H232.855C232.293 76.6257 226.91 80.482 219.478 80.482ZM236.623 80V51.2784H244.938V80H236.623ZM248.335 80L257.534 51.2784H268.179L277.297 80H268.58L267.054 74.6574H257.534L256.007 80H248.335ZM262.314 57.9467L259.14 68.9934H265.447L262.314 57.9467ZM280.594 80V51.2784H288.869V73.613H299.715V80H280.594Z" fill="url(#paint1_linear_660_13)"/>
<path d="M87.4752 48.9999L91.5095 42.1229C91.9944 41.2955 92.1263 40.312 91.8761 39.3887C91.626 38.4655 91.0144 37.678 90.1757 37.1994L83.196 33.2202V25.2907C83.196 24.3347 82.811 23.418 82.1257 22.742C81.4404 22.0661 80.5109 21.6863 79.5418 21.6863H71.506L67.4754 14.8057C66.9886 13.98 66.1917 13.3766 65.2572 13.1261C64.7937 13.0021 64.3099 12.9702 63.8338 13.032C63.3577 13.0939 62.8988 13.2484 62.4836 13.4865L55.504 17.4657L48.5243 13.4829C47.685 13.0049 46.6876 12.8754 45.7514 13.1228C44.8153 13.3702 44.0172 13.9742 43.5326 14.8021L39.4982 21.6863H31.4625C30.4933 21.6863 29.5638 22.0661 28.8785 22.742C28.1932 23.418 27.8082 24.3347 27.8082 25.2907V33.2166L20.8286 37.1958C20.4121 37.4321 20.0471 37.7472 19.7544 38.123C19.4618 38.4989 19.2474 38.9281 19.1234 39.3859C18.9995 39.8437 18.9685 40.3212 19.0322 40.7909C19.0959 41.2606 19.2531 41.7133 19.4948 42.1229L23.5291 48.9999L19.4948 55.877C19.0123 56.7052 18.8815 57.6879 19.1306 58.6109C19.3798 59.5338 19.9888 60.3222 20.8249 60.8041L27.8046 64.7833V72.7092C27.8046 73.6652 28.1896 74.5819 28.8749 75.2579C29.5602 75.9338 30.4897 76.3136 31.4588 76.3136H39.4982L43.5326 83.1978C43.8561 83.7433 44.318 84.1963 44.8729 84.5123C45.4277 84.8283 46.0565 84.9964 46.6972 85C47.333 85 47.9652 84.8342 48.528 84.5134L55.5003 80.5342L62.48 84.5134C63.3191 84.9907 64.3158 85.1202 65.2516 84.8736C66.1874 84.627 66.9858 84.0243 67.4717 83.1978L71.5024 76.3136H79.5381C80.5073 76.3136 81.4368 75.9338 82.1221 75.2579C82.8074 74.5819 83.1924 73.6652 83.1924 72.7092V64.7833L90.1721 60.8041C90.5878 60.5672 90.9521 60.2517 91.2442 59.8758C91.5363 59.4998 91.7504 59.0708 91.8742 58.6132C91.9981 58.1556 92.0293 57.6785 91.9661 57.209C91.9029 56.7395 91.7465 56.2869 91.5059 55.877L87.4752 48.9999ZM46.3646 30.9423C47.8189 30.9427 49.2134 31.513 50.2413 32.5276C51.2693 33.5422 51.8465 34.918 51.846 36.3524C51.8455 37.7867 51.2674 39.1622 50.2387 40.1761C49.2101 41.19 47.8152 41.7593 46.361 41.7589C44.9067 41.7584 43.5122 41.1881 42.4843 40.1735C41.4563 39.1589 40.8791 37.7831 40.8796 36.3488C40.88 34.9144 41.4582 33.539 42.4869 32.525C43.5155 31.5111 44.9104 30.9418 46.3646 30.9423ZM47.4609 65.5438L41.6141 61.2222L63.5397 32.3876L69.3865 36.7092L47.4609 65.5438ZM64.636 66.9856C63.9159 66.9853 63.203 66.8452 62.5378 66.5732C61.8726 66.3012 61.2683 65.9026 60.7593 65.4002C60.2503 64.8979 59.8466 64.3015 59.5713 63.6453C59.2959 62.989 59.1543 62.2857 59.1546 61.5755C59.1548 60.8652 59.2969 60.162 59.5727 59.5059C59.8484 58.8499 60.2525 58.2538 60.7619 57.7517C61.2712 57.2497 61.8758 56.8515 62.5412 56.58C63.2065 56.3084 63.9196 56.1687 64.6396 56.169C66.0939 56.1694 67.4884 56.7397 68.5163 57.7543C69.5443 58.7689 70.1215 60.1447 70.1211 61.5791C70.1206 63.0134 69.5424 64.3889 68.5138 65.4028C67.4851 66.4167 66.0902 66.986 64.636 66.9856Z" fill="url(#paint2_linear_660_13)"/>
<path d="M240 98H333L240 129V98Z" fill="#D9D9D9"/>
<defs>
<linearGradient id="paint0_linear_660_13" x1="22.8558" y1="49" x2="330.566" y2="55.2272" gradientUnits="userSpaceOnUse">
<stop stop-color="#EA0000"/>
<stop offset="1" stop-color="#C10000"/>
</linearGradient>
<linearGradient id="paint1_linear_660_13" x1="201.5" y1="13" x2="201.5" y2="85" gradientUnits="userSpaceOnUse">
<stop stop-color="white"/>
<stop offset="1" stop-color="white" stop-opacity="0.69"/>
</linearGradient>
<linearGradient id="paint2_linear_660_13" x1="55.5" y1="13" x2="55.5" y2="85" gradientUnits="userSpaceOnUse">
<stop stop-color="white"/>
<stop offset="1" stop-color="white" stop-opacity="0.69"/>
</linearGradient>
</defs>
</svg>
