<svg width="333" height="129" viewBox="0 0 333 129" fill="none" xmlns="http://www.w3.org/2000/svg">
<path d="M0 0H333V98H0C0 59.7286 0 38.2714 0 0Z" fill="url(#paint0_linear_660_13)"/>
<path d="M134.2 30.3927C134.2 33.5595 133.606 36.2651 132.417 38.5095C131.228 40.7443 129.607 42.4513 127.553 43.6306C125.508 44.8098 123.202 45.3994 120.634 45.3994C118.057 45.3994 115.746 44.8098 113.702 43.6306C111.657 42.4418 110.04 40.73 108.852 38.4952C107.672 36.2509 107.083 33.55 107.083 30.3927C107.083 27.2259 107.672 24.5251 108.852 22.2903C110.04 20.0459 111.657 18.3341 113.702 17.1549C115.746 15.9757 118.057 15.386 120.634 15.386C123.202 15.386 125.508 15.9757 127.553 17.1549C129.607 18.3341 131.228 20.0459 132.417 22.2903C133.606 24.5251 134.2 27.2259 134.2 30.3927ZM128.38 30.3927C128.38 28.253 128.052 26.4509 127.396 24.9863C126.749 23.5218 125.846 22.4139 124.686 21.6626C123.525 20.9018 122.175 20.5214 120.634 20.5214C119.103 20.5214 117.753 20.9018 116.583 21.6626C115.423 22.4139 114.519 23.5218 113.873 24.9863C113.226 26.4509 112.903 28.253 112.903 30.3927C112.903 32.5325 113.226 34.3346 113.873 35.7991C114.519 37.2637 115.423 38.3763 116.583 39.1371C117.753 39.8884 119.103 40.264 120.634 40.264C122.175 40.264 123.525 39.8884 124.686 39.1371C125.846 38.3763 126.749 37.2637 127.396 35.7991C128.052 34.3346 128.38 32.5325 128.38 30.3927ZM138.961 45V15.7855H158.019V20.5642H144.724V27.982H156.735V32.775H144.724V45H138.961ZM162.459 45V15.7855H181.831V20.5642H168.222V27.982H180.832V32.775H168.222V40.2213H181.916V45H162.459ZM186.977 45V15.7855H198.232C200.457 15.7855 202.345 16.1801 203.895 16.9694C205.445 17.7493 206.62 18.8477 207.419 20.2646C208.227 21.6816 208.631 23.3364 208.631 25.2288C208.631 27.1403 208.222 28.7903 207.404 30.1788C206.586 31.5577 205.393 32.6228 203.824 33.3741C202.264 34.1159 200.362 34.4868 198.118 34.4868H190.372V29.7793H197.262C198.498 29.7793 199.521 29.6082 200.329 29.2658C201.137 28.9234 201.736 28.4147 202.126 27.7395C202.526 27.0642 202.725 26.2274 202.725 25.2288C202.725 24.2303 202.526 23.3839 202.126 22.6897C201.727 21.9859 201.123 21.4534 200.315 21.092C199.506 20.7211 198.479 20.5357 197.233 20.5357H192.74V45H186.977ZM202.44 31.7336L209.687 45H203.296L196.192 31.7336H202.44ZM212.037 20.5642V15.7855H235.702V20.5642H226.715V45H221.009V20.5642H212.037ZM240.763 45H234.6L244.771 15.7855H252.075L262.246 45H256.083L248.537 22.1333H248.309L240.763 45ZM240.634 33.531H256.155V38.0815H240.634V33.531ZM107.696 81V51.7855H127.068V56.5642H113.459V63.982H126.069V68.775H113.459V76.2213H127.153V81H107.696ZM148.076 60.0163C147.953 58.8181 147.43 57.8861 146.507 57.2204C145.594 56.5547 144.372 56.2218 142.841 56.2218C141.795 56.2218 140.901 56.3788 140.159 56.6926C139.418 56.9969 138.852 57.4153 138.462 57.9479C138.072 58.4709 137.877 59.0701 137.877 59.7453C137.868 60.3159 137.991 60.8104 138.248 61.2288C138.505 61.6378 138.861 61.9896 139.318 62.2844C139.774 62.5792 140.288 62.8313 140.858 63.0405C141.439 63.2402 142.038 63.4114 142.656 63.554L145.338 64.2102C146.526 64.486 147.644 64.8521 148.69 65.3086C149.736 65.7651 150.654 66.3357 151.443 67.0204C152.242 67.6956 152.865 68.5039 153.312 69.4454C153.768 70.3869 154.001 71.4805 154.011 72.7263C154.001 74.4762 153.554 76.0025 152.67 77.3054C151.785 78.6082 150.506 79.6211 148.833 80.3438C147.168 81.0666 145.152 81.4279 142.784 81.4279C140.473 81.4279 138.462 81.0713 136.75 80.3581C135.038 79.6448 133.702 78.594 132.742 77.2055C131.791 75.8171 131.287 74.11 131.23 72.0844H136.836C136.912 73.083 137.211 73.9151 137.734 74.5808C138.257 75.237 138.947 75.7315 139.803 76.0643C140.668 76.3972 141.643 76.5636 142.727 76.5636C143.83 76.5636 144.791 76.4019 145.609 76.0786C146.426 75.7458 147.064 75.2893 147.52 74.7092C147.977 74.1291 148.21 73.4586 148.219 72.6978C148.21 71.9941 148 71.4045 147.591 70.929C147.183 70.4535 146.598 70.0541 145.837 69.7307C145.086 69.4074 144.182 69.1173 143.127 68.8606L139.874 68.0332C137.44 67.4246 135.514 66.4878 134.097 65.223C132.689 63.9487 131.986 62.2464 131.986 60.1162C131.986 58.3758 132.456 56.8543 133.398 55.5514C134.349 54.239 135.647 53.2167 137.292 52.4844C138.937 51.7522 140.806 51.386 142.898 51.386C145.029 51.386 146.888 51.7522 148.476 52.4844C150.074 53.2167 151.319 54.2295 152.213 55.5229C153.117 56.8162 153.583 58.314 153.611 60.0163H148.076ZM158.419 81V51.7855H169.674C171.908 51.7855 173.796 52.2086 175.337 53.055C176.887 53.8919 178.061 55.0474 178.86 56.5214C179.669 57.9954 180.073 59.6787 180.073 61.5712C180.073 63.4827 179.664 65.1755 178.846 66.6495C178.038 68.114 176.849 69.2647 175.28 70.1016C173.72 70.929 171.813 71.3427 169.559 71.3427H162.256V66.678H168.704C169.949 66.678 170.972 66.4593 171.77 66.0218C172.579 65.5844 173.178 64.9853 173.568 64.2245C173.967 63.4542 174.167 62.5697 174.167 61.5712C174.167 60.5726 173.967 59.6977 173.568 58.9464C173.178 58.1856 172.579 57.596 171.77 57.1776C170.962 56.7496 169.93 56.5357 168.675 56.5357H164.182V81H158.419ZM184.349 81V51.7855H203.72V56.5642H190.112V63.982H202.722V68.775H190.112V76.2213H203.806V81H184.349ZM234.286 61.8422H228.466C228.333 60.9958 228.076 60.2493 227.696 59.6026C227.316 58.9464 226.835 58.3901 226.255 57.9336C225.685 57.4676 225.024 57.1158 224.273 56.878C223.531 56.6403 222.727 56.5214 221.862 56.5214C220.321 56.5214 218.961 56.9066 217.782 57.6769C216.612 58.4377 215.699 59.5551 215.043 61.0291C214.396 62.5032 214.073 64.291 214.073 66.3927C214.073 68.5515 214.401 70.3631 215.057 71.8277C215.714 73.2922 216.627 74.4001 217.796 75.1514C218.966 75.8932 220.312 76.264 221.833 76.264C222.689 76.264 223.483 76.1547 224.215 75.936C224.948 75.7077 225.604 75.3749 226.184 74.9374C226.764 74.5 227.249 73.9626 227.639 73.3255C228.038 72.6883 228.314 71.9608 228.466 71.1429L234.286 71.1715C234.106 72.5409 233.687 73.839 233.031 75.0658C232.384 76.2926 231.524 77.3862 230.449 78.3467C229.384 79.2977 228.119 80.0443 226.655 80.5863C225.2 81.1284 223.564 81.3994 221.748 81.3994C219.161 81.3994 216.85 80.8098 214.815 79.6306C212.78 78.4418 211.177 76.73 210.008 74.4952C208.838 72.2509 208.253 69.55 208.253 66.3927C208.253 63.2259 208.843 60.5251 210.022 58.2903C211.211 56.0459 212.823 54.3341 214.858 53.1549C216.893 51.9757 219.189 51.386 221.748 51.386C223.412 51.386 224.957 51.619 226.384 52.085C227.81 52.551 229.075 53.231 230.178 54.1249C231.291 55.0188 232.199 56.1125 232.903 57.4058C233.616 58.6992 234.077 60.178 234.286 61.8422ZM244.678 51.7855V81H238.915V51.7855H244.678ZM254.493 81H248.33L258.501 51.7855H265.805L275.976 81H269.813L262.267 58.1333H262.039L254.493 81ZM254.364 69.531H269.885V74.0815H254.364V69.531ZM279.635 81V51.7855H285.398V76.2213H298.079V81H279.635Z" fill="url(#paint1_linear_660_13)"/>
<path d="M93.4752 48.4999L97.5095 41.5274C97.9944 40.6885 98.1263 39.6914 97.8761 38.7553C97.626 37.8192 97.0144 37.0207 96.1757 36.5355L89.196 32.501V24.4614C89.196 23.4922 88.811 22.5627 88.1257 21.8773C87.4404 21.192 86.5109 20.807 85.5418 20.807H77.506L73.4754 13.8307C72.9886 12.9936 72.1917 12.3818 71.2572 12.1278C70.7937 12.0022 70.3099 11.9698 69.8338 12.0325C69.3577 12.0952 68.8988 12.2518 68.4836 12.4932L61.504 16.5277L54.5243 12.4896C53.685 12.005 52.6876 11.8737 51.7514 12.1245C50.8153 12.3753 50.0172 12.9878 49.5326 13.8271L45.4982 20.807H37.4625C36.4933 20.807 35.5638 21.192 34.8785 21.8773C34.1932 22.5627 33.8082 23.4922 33.8082 24.4614V32.4974L26.8286 36.5318C26.4121 36.7714 26.0471 37.0909 25.7544 37.472C25.4618 37.853 25.2474 38.2882 25.1234 38.7524C24.9995 39.2166 24.9685 39.7007 25.0322 40.1769C25.0959 40.6531 25.2531 41.1121 25.4948 41.5274L29.5291 48.4999L25.4948 55.4725C25.0123 56.3122 24.8815 57.3086 25.1306 58.2444C25.3798 59.1802 25.9888 59.9795 26.8249 60.4681L33.8046 64.5025V72.5385C33.8046 73.5077 34.1896 74.4372 34.8749 75.1226C35.5602 75.8079 36.4897 76.1929 37.4588 76.1929H45.4982L49.5326 83.1728C49.8561 83.7259 50.318 84.1852 50.8729 84.5055C51.4277 84.8259 52.0565 84.9963 52.6972 85C53.333 85 53.9652 84.8319 54.528 84.5067L61.5003 80.4722L68.48 84.5067C69.3191 84.9906 70.3158 85.1219 71.2516 84.8718C72.1874 84.6218 72.9858 84.0108 73.4717 83.1728L77.5024 76.1929H85.5381C86.5073 76.1929 87.4368 75.8079 88.1221 75.1226C88.8074 74.4372 89.1924 73.5077 89.1924 72.5385V64.5025L96.1721 60.4681C96.5878 60.2278 96.9521 59.908 97.2442 59.5268C97.5363 59.1457 97.7504 58.7107 97.8742 58.2467C97.9981 57.7828 98.0293 57.299 97.9661 56.823C97.9029 56.347 97.7465 55.8881 97.5059 55.4725L93.4752 48.4999ZM52.3646 30.1915C53.8189 30.1919 55.2134 30.7701 56.2413 31.7988C57.2693 32.8275 57.8465 34.2224 57.846 35.6767C57.8455 37.131 57.2674 38.5255 56.2387 39.5535C55.2101 40.5815 53.8152 41.1588 52.361 41.1583C50.9067 41.1578 49.5122 40.5796 48.4843 39.5509C47.4563 38.5222 46.8791 37.1273 46.8796 35.673C46.88 34.2187 47.4582 32.8242 48.4869 31.7962C49.5155 30.7682 50.9104 30.191 52.3646 30.1915ZM53.4609 65.2736L47.6141 60.892L69.5397 31.6569L75.3865 36.0385L53.4609 65.2736ZM70.636 66.7354C69.9159 66.7351 69.203 66.593 68.5378 66.3173C67.8726 66.0415 67.2683 65.6374 66.7593 65.128C66.2503 64.6187 65.8466 64.014 65.5713 63.3487C65.2959 62.6833 65.1543 61.9702 65.1546 61.2501C65.1548 60.53 65.2969 59.817 65.5727 59.1518C65.8484 58.4867 66.2525 57.8823 66.7619 57.3733C67.2712 56.8643 67.8758 56.4606 68.5412 56.1852C69.2065 55.9099 69.9196 55.7683 70.6396 55.7685C72.0939 55.769 73.4884 56.3472 74.5163 57.3759C75.5443 58.4046 76.1215 59.7995 76.1211 61.2538C76.1206 62.7081 75.5424 64.1026 74.5138 65.1306C73.4851 66.1586 72.0902 66.7358 70.636 66.7354Z" fill="url(#paint2_linear_660_13)"/>
<path d="M240 98H333L240 129V98Z" fill="#D9D9D9"/>
<defs>
<linearGradient id="paint0_linear_660_13" x1="21.7456" y1="49" x2="314.521" y2="54.6372" gradientUnits="userSpaceOnUse">
<stop stop-color="#EA0000"/>
<stop offset="1" stop-color="#C10000"/>
</linearGradient>
<linearGradient id="paint1_linear_660_13" x1="204.5" y1="12" x2="204.5" y2="84" gradientUnits="userSpaceOnUse">
<stop stop-color="white"/>
<stop offset="1" stop-color="white" stop-opacity="0.55"/>
</linearGradient>
<linearGradient id="paint2_linear_660_13" x1="61.5" y1="12" x2="61.5" y2="85" gradientUnits="userSpaceOnUse">
<stop stop-color="white"/>
<stop offset="1" stop-color="white" stop-opacity="0.55"/>
</linearGradient>
</defs>
</svg>
