<svg width="350" height="120" viewBox="0 0 350 120" fill="none" xmlns="http://www.w3.org/2000/svg">
<path d="M0 10.0038C0 4.48097 4.47715 0 10 0H340C345.523 0 350 4.47715 350 10V88C350 93.5228 345.523 98 340 98H10C4.47715 98 0 93.519 0 87.9962C0 58.92 0 39.08 0 10.0038Z" fill="url(#paint0_linear_665_158)"/>
<path d="M122.47 38.0147C126.527 38.0147 129.058 34.8814 129.058 29.7396V29.4183C129.058 24.3167 126.487 21.304 122.43 21.304C118.372 21.304 115.842 24.2364 115.842 29.4585V29.7798C115.842 35.0019 118.493 38.0147 122.47 38.0147ZM122.309 44.482C113.03 44.482 107.245 38.4565 107.245 29.82V29.4986C107.245 20.7416 113.833 14.8768 122.43 14.8768C131.187 14.8768 137.654 20.38 137.654 29.2978V29.6191C137.654 38.4565 131.588 44.482 122.309 44.482ZM141.684 44V15.2784H161.087V21.6655H149.959V27.7713H158.837V33.837H149.959V44H141.684ZM164.947 44V15.2784H184.791V21.6253H173.142V26.5662H182.421V32.431H173.142V37.6531H185.434V44H164.947ZM189.543 44V15.2784H200.791C208.303 15.2784 212.48 18.3314 212.48 24.397V24.5577C212.48 28.6551 210.311 30.9447 207.298 32.1097L214.167 44H205.491L199.666 33.7165H197.738V44H189.543ZM197.738 28.3739H200.389C203.161 28.3739 204.527 27.2089 204.527 24.8791V24.7184C204.527 22.3885 203.081 21.4646 200.429 21.4646H197.738V28.3739ZM222.271 44V21.6253H214.84V15.2784H237.978V21.6253H230.546V44H222.271ZM236.722 44L245.921 15.2784H256.566L265.684 44H256.967L255.441 38.6574H245.921L244.394 44H236.722ZM250.701 21.9467L247.527 32.9934H253.834L250.701 21.9467ZM108.772 80V51.2784H128.616V57.6253H116.966V62.5662H126.246V68.431H116.966V73.6531H129.258V80H108.772ZM144.089 80.482C136.055 80.482 131.957 77.1078 131.716 70.8814H139.549C139.75 72.9301 140.674 74.6172 144.089 74.6172C146.459 74.6172 147.784 73.4523 147.784 71.7651C147.784 69.9977 146.7 69.5156 143.245 68.9934C135.131 68.0293 132.399 65.6191 132.399 59.8347C132.399 54.6527 136.657 50.8768 143.526 50.8768C150.436 50.8768 154.332 53.769 154.854 59.8347H147.222C146.941 57.786 145.776 56.7416 143.526 56.7416C141.317 56.7416 140.192 57.7458 140.192 59.1919C140.192 60.7987 141.076 61.5218 144.651 62.0038C151.922 62.8072 155.658 64.6952 155.658 70.9216C155.658 76.1838 151.48 80.482 144.089 80.482ZM159.573 80V51.2784H170.499C178.372 51.2784 182.028 54.7732 182.028 60.8791V61.0398C182.028 67.0653 177.971 70.319 170.86 70.319H167.767V80H159.573ZM167.767 64.6952H170.137C172.789 64.6952 174.195 63.45 174.195 61.0799V60.9192C174.195 58.4689 172.748 57.4646 170.178 57.4646H167.767V64.6952ZM185.777 80V51.2784H205.621V57.6253H193.972V62.5662H203.251V68.431H193.972V73.6531H206.264V80H185.777ZM223.478 80.482C213.436 80.482 208.495 74.6172 208.495 65.82V65.4986C208.495 56.6612 214.762 50.8366 223.157 50.8366C230.629 50.8366 235.811 54.2912 236.493 61.8833H228.018C227.696 58.9509 226.089 57.3441 223.197 57.3441C219.502 57.3441 217.172 60.2364 217.172 65.4585V65.7798C217.172 70.9618 219.381 73.8942 223.318 73.8942C226.21 73.8942 228.259 72.3677 228.66 69.1943H236.855C236.293 76.6257 230.91 80.482 223.478 80.482ZM240.623 80V51.2784H248.938V80H240.623ZM252.335 80L261.534 51.2784H272.179L281.297 80H272.58L271.054 74.6574H261.534L260.007 80H252.335ZM266.314 57.9467L263.14 68.9934H269.447L266.314 57.9467ZM284.594 80V51.2784H292.869V73.613H303.715V80H284.594Z" fill="url(#paint1_linear_665_158)"/>
<path d="M82.0331 49L85.57 43.2691C85.9951 42.5796 86.1107 41.76 85.8914 40.9906C85.6721 40.2212 85.1359 39.565 84.4006 39.1661L78.2815 35.8502V29.2422C78.2815 28.4456 77.9439 27.6816 77.3431 27.1184C76.7423 26.5551 75.9274 26.2386 75.0777 26.2386H68.0327L64.4989 20.5047C64.0722 19.8166 63.3735 19.3138 62.5543 19.105C62.1479 19.0018 61.7237 18.9751 61.3063 19.0267C60.8889 19.0783 60.4866 19.207 60.1226 19.4054L54.0035 22.7214L47.8843 19.4024C47.1485 19.0041 46.274 18.8962 45.4533 19.1023C44.6326 19.3085 43.9329 19.8119 43.508 20.5017L39.9711 26.2386H32.926C32.0763 26.2386 31.2615 26.5551 30.6606 27.1184C30.0598 27.6816 29.7223 28.4456 29.7223 29.2422V35.8472L23.6031 39.1631C23.238 39.36 22.918 39.6226 22.6614 39.9359C22.4049 40.2491 22.2169 40.6067 22.1082 40.9883C21.9996 41.3698 21.9724 41.7677 22.0282 42.1591C22.0841 42.5505 22.2219 42.9277 22.4338 43.2691L25.9707 49L22.4338 54.7308C22.0108 55.421 21.8961 56.2399 22.1145 57.0091C22.333 57.7782 22.8669 58.4352 23.5999 58.8368L29.7191 62.1528V68.7577C29.7191 69.5543 30.0566 70.3183 30.6574 70.8816C31.2582 71.4448 32.0731 71.7613 32.9228 71.7613H39.9711L43.508 77.4982C43.7916 77.9528 44.1966 78.3303 44.6831 78.5936C45.1695 78.8569 45.7207 78.997 46.2824 79C46.8399 79 47.3941 78.8618 47.8875 78.5945L54.0003 75.2785L60.1194 78.5945C60.8551 78.9922 61.7289 79.1002 62.5494 78.8946C63.3698 78.6891 64.0697 78.1869 64.4957 77.4982L68.0295 71.7613H75.0745C75.9242 71.7613 76.7391 71.4448 77.3399 70.8816C77.9407 70.3183 78.2783 69.5543 78.2783 68.7577V62.1528L84.3974 58.8368C84.7619 58.6393 85.0813 58.3764 85.3374 58.0631C85.5934 57.7499 85.7811 57.3923 85.8897 57.011C85.9983 56.6297 86.0257 56.232 85.9703 55.8408C85.9149 55.4495 85.7778 55.0724 85.5668 54.7308L82.0331 49ZM45.9909 33.9519C47.2659 33.9523 48.4884 34.4275 49.3897 35.273C50.2909 36.1185 50.7969 37.265 50.7965 38.4603C50.7961 39.6556 50.2892 40.8018 49.3874 41.6467C48.4856 42.4917 47.2627 42.9661 45.9877 42.9657C44.7127 42.9653 43.4902 42.4901 42.5889 41.6446C41.6877 40.7991 41.1817 39.6526 41.1821 38.4573C41.1825 37.262 41.6894 36.1158 42.5912 35.2709C43.493 34.4259 44.7159 33.9515 45.9909 33.9519ZM46.952 62.7865L41.826 59.1852L61.0485 35.1563L66.1745 38.7577L46.952 62.7865ZM62.0096 63.988C61.3783 63.9878 60.7533 63.871 60.1701 63.6443C59.587 63.4176 59.0571 63.0855 58.6109 62.6669C58.1646 62.2482 57.8107 61.7513 57.5693 61.2044C57.3279 60.6575 57.2038 60.0714 57.204 59.4795C57.2042 58.8877 57.3288 58.3017 57.5706 57.7549C57.8123 57.2082 58.1666 56.7115 58.6131 56.2931C59.0597 55.8747 59.5897 55.5429 60.1731 55.3166C60.7564 55.0903 61.3815 54.9739 62.0128 54.9741C63.2878 54.9745 64.5104 55.4497 65.4116 56.2952C66.3128 57.1407 66.8189 58.2872 66.8185 59.4825C66.818 60.6779 66.3111 61.824 65.4093 62.669C64.5075 63.5139 63.2846 63.9884 62.0096 63.988Z" fill="url(#paint2_linear_665_158)"/>
<defs>
<linearGradient id="paint0_linear_665_158" x1="22.8558" y1="49" x2="330.566" y2="55.2272" gradientUnits="userSpaceOnUse">
<stop stop-color="#823B35"/>
<stop offset="1" stop-color="#C8544B"/>
</linearGradient>
<linearGradient id="paint1_linear_665_158" x1="205.5" y1="13" x2="205.5" y2="85" gradientUnits="userSpaceOnUse">
<stop stop-color="white"/>
<stop offset="1" stop-color="white" stop-opacity="0.69"/>
</linearGradient>
<linearGradient id="paint2_linear_665_158" x1="54" y1="19" x2="54" y2="79" gradientUnits="userSpaceOnUse">
<stop stop-color="white"/>
<stop offset="1" stop-color="white" stop-opacity="0.69"/>
</linearGradient>
</defs>
</svg>
