<svg width="333" height="98" viewBox="0 0 333 98" fill="none" xmlns="http://www.w3.org/2000/svg">
<path d="M0 49C0 21.9381 21.938 0 49 0H284C311.062 0 333 21.938 333 49V49C333 76.062 311.062 98 284 98H49C21.938 98 0 76.0619 0 49V49Z" fill="url(#paint0_linear_660_13)"/>
<path d="M125.47 38.0147C129.527 38.0147 132.058 34.8814 132.058 29.7396V29.4183C132.058 24.3167 129.487 21.304 125.43 21.304C121.372 21.304 118.842 24.2364 118.842 29.4585V29.7798C118.842 35.0019 121.493 38.0147 125.47 38.0147ZM125.309 44.482C116.03 44.482 110.245 38.4565 110.245 29.82V29.4986C110.245 20.7416 116.833 14.8768 125.43 14.8768C134.187 14.8768 140.654 20.38 140.654 29.2978V29.6191C140.654 38.4565 134.588 44.482 125.309 44.482ZM144.684 44V15.2784H164.087V21.6655H152.959V27.7713H161.837V33.837H152.959V44H144.684ZM167.947 44V15.2784H187.791V21.6253H176.142V26.5662H185.421V32.431H176.142V37.6531H188.434V44H167.947ZM192.543 44V15.2784H203.791C211.303 15.2784 215.48 18.3314 215.48 24.397V24.5577C215.48 28.6551 213.311 30.9447 210.298 32.1097L217.167 44H208.491L202.666 33.7165H200.738V44H192.543ZM200.738 28.3739H203.389C206.161 28.3739 207.527 27.2089 207.527 24.8791V24.7184C207.527 22.3885 206.081 21.4646 203.429 21.4646H200.738V28.3739ZM225.271 44V21.6253H217.84V15.2784H240.978V21.6253H233.546V44H225.271ZM239.722 44L248.921 15.2784H259.566L268.684 44H259.967L258.441 38.6574H248.921L247.394 44H239.722ZM253.701 21.9467L250.527 32.9934H256.834L253.701 21.9467ZM111.772 80V51.2784H131.616V57.6253H119.966V62.5662H129.246V68.431H119.966V73.6531H132.258V80H111.772ZM147.089 80.482C139.055 80.482 134.957 77.1078 134.716 70.8814H142.549C142.75 72.9301 143.674 74.6172 147.089 74.6172C149.459 74.6172 150.784 73.4523 150.784 71.7651C150.784 69.9977 149.7 69.5156 146.245 68.9934C138.131 68.0293 135.399 65.6191 135.399 59.8347C135.399 54.6527 139.657 50.8768 146.526 50.8768C153.436 50.8768 157.332 53.769 157.854 59.8347H150.222C149.941 57.786 148.776 56.7416 146.526 56.7416C144.317 56.7416 143.192 57.7458 143.192 59.1919C143.192 60.7987 144.076 61.5218 147.651 62.0038C154.922 62.8072 158.658 64.6952 158.658 70.9216C158.658 76.1838 154.48 80.482 147.089 80.482ZM162.573 80V51.2784H173.499C181.372 51.2784 185.028 54.7732 185.028 60.8791V61.0398C185.028 67.0653 180.971 70.319 173.86 70.319H170.767V80H162.573ZM170.767 64.6952H173.137C175.789 64.6952 177.195 63.45 177.195 61.0799V60.9192C177.195 58.4689 175.748 57.4646 173.178 57.4646H170.767V64.6952ZM188.777 80V51.2784H208.621V57.6253H196.972V62.5662H206.251V68.431H196.972V73.6531H209.264V80H188.777ZM226.478 80.482C216.436 80.482 211.495 74.6172 211.495 65.82V65.4986C211.495 56.6612 217.762 50.8366 226.157 50.8366C233.629 50.8366 238.811 54.2912 239.493 61.8833H231.018C230.696 58.9509 229.089 57.3441 226.197 57.3441C222.502 57.3441 220.172 60.2364 220.172 65.4585V65.7798C220.172 70.9618 222.381 73.8942 226.318 73.8942C229.21 73.8942 231.259 72.3677 231.66 69.1943H239.855C239.293 76.6257 233.91 80.482 226.478 80.482ZM243.623 80V51.2784H251.938V80H243.623ZM255.335 80L264.534 51.2784H275.179L284.297 80H275.58L274.054 74.6574H264.534L263.007 80H255.335ZM269.314 57.9467L266.14 68.9934H272.447L269.314 57.9467ZM287.594 80V51.2784H295.869V73.613H306.715V80H287.594Z" fill="url(#paint1_linear_660_13)"/>
<path d="M94.4752 48.4999L98.5095 41.5274C98.9944 40.6885 99.1263 39.6914 98.8761 38.7553C98.626 37.8192 98.0144 37.0207 97.1757 36.5355L90.196 32.501V24.4614C90.196 23.4922 89.811 22.5627 89.1257 21.8773C88.4404 21.192 87.5109 20.807 86.5418 20.807H78.506L74.4754 13.8307C73.9886 12.9936 73.1917 12.3818 72.2572 12.1278C71.7937 12.0022 71.3099 11.9698 70.8338 12.0325C70.3577 12.0952 69.8988 12.2518 69.4836 12.4932L62.504 16.5277L55.5243 12.4896C54.685 12.005 53.6876 11.8737 52.7514 12.1245C51.8153 12.3753 51.0172 12.9878 50.5326 13.8271L46.4982 20.807H38.4625C37.4933 20.807 36.5638 21.192 35.8785 21.8773C35.1932 22.5627 34.8082 23.4922 34.8082 24.4614V32.4974L27.8286 36.5318C27.4121 36.7714 27.0471 37.0909 26.7544 37.472C26.4618 37.853 26.2474 38.2882 26.1234 38.7524C25.9995 39.2166 25.9685 39.7007 26.0322 40.1769C26.0959 40.6531 26.2531 41.1121 26.4948 41.5274L30.5291 48.4999L26.4948 55.4725C26.0123 56.3122 25.8815 57.3086 26.1306 58.2444C26.3798 59.1802 26.9888 59.9795 27.8249 60.4681L34.8046 64.5025V72.5385C34.8046 73.5077 35.1896 74.4372 35.8749 75.1226C36.5602 75.8079 37.4897 76.1929 38.4588 76.1929H46.4982L50.5326 83.1728C50.8561 83.7259 51.318 84.1852 51.8729 84.5055C52.4277 84.8259 53.0565 84.9963 53.6972 85C54.333 85 54.9652 84.8319 55.528 84.5067L62.5003 80.4722L69.48 84.5067C70.3191 84.9906 71.3158 85.1219 72.2516 84.8718C73.1874 84.6218 73.9858 84.0108 74.4717 83.1728L78.5024 76.1929H86.5381C87.5073 76.1929 88.4368 75.8079 89.1221 75.1226C89.8074 74.4372 90.1924 73.5077 90.1924 72.5385V64.5025L97.1721 60.4681C97.5878 60.2278 97.9521 59.908 98.2442 59.5268C98.5363 59.1457 98.7504 58.7107 98.8742 58.2467C98.9981 57.7828 99.0293 57.299 98.9661 56.823C98.9029 56.347 98.7465 55.8881 98.5059 55.4725L94.4752 48.4999ZM53.3646 30.1915C54.8189 30.1919 56.2134 30.7701 57.2413 31.7988C58.2693 32.8275 58.8465 34.2224 58.846 35.6767C58.8455 37.131 58.2674 38.5255 57.2387 39.5535C56.2101 40.5815 54.8152 41.1588 53.361 41.1583C51.9067 41.1578 50.5122 40.5796 49.4843 39.5509C48.4563 38.5222 47.8791 37.1273 47.8796 35.673C47.88 34.2187 48.4582 32.8242 49.4869 31.7962C50.5155 30.7682 51.9104 30.191 53.3646 30.1915ZM54.4609 65.2736L48.6141 60.892L70.5397 31.6569L76.3865 36.0385L54.4609 65.2736ZM71.636 66.7354C70.9159 66.7351 70.203 66.593 69.5378 66.3173C68.8726 66.0415 68.2683 65.6374 67.7593 65.128C67.2503 64.6187 66.8466 64.014 66.5713 63.3487C66.2959 62.6833 66.1543 61.9702 66.1546 61.2501C66.1548 60.53 66.2969 59.817 66.5727 59.1518C66.8484 58.4867 67.2525 57.8823 67.7619 57.3733C68.2712 56.8643 68.8758 56.4606 69.5412 56.1852C70.2065 55.9099 70.9196 55.7683 71.6396 55.7685C73.0939 55.769 74.4884 56.3472 75.5163 57.3759C76.5443 58.4046 77.1215 59.7995 77.1211 61.2538C77.1206 62.7081 76.5424 64.1026 75.5138 65.1306C74.4851 66.1586 73.0902 66.7358 71.636 66.7354Z" fill="url(#paint2_linear_660_13)"/>
<defs>
<linearGradient id="paint0_linear_660_13" x1="21.7456" y1="49" x2="314.521" y2="54.6372" gradientUnits="userSpaceOnUse">
<stop stop-color="#EA0000"/>
<stop offset="1" stop-color="#C10000"/>
</linearGradient>
<linearGradient id="paint1_linear_660_13" x1="208.5" y1="13" x2="208.5" y2="85" gradientUnits="userSpaceOnUse">
<stop stop-color="white"/>
<stop offset="1" stop-color="white" stop-opacity="0.69"/>
</linearGradient>
<linearGradient id="paint2_linear_660_13" x1="62.5" y1="12" x2="62.5" y2="85" gradientUnits="userSpaceOnUse">
<stop stop-color="white"/>
<stop offset="1" stop-color="white" stop-opacity="0.69"/>
</linearGradient>
</defs>
</svg>
