<svg width="350" height="141" viewBox="0 0 350 141" fill="none" xmlns="http://www.w3.org/2000/svg">
<path d="M0 0H350V98H0C0 59.7286 0 38.2714 0 0Z" fill="url(#paint0_linear_660_13)"/>
<path d="M118.47 38.0147C122.527 38.0147 125.058 34.8814 125.058 29.7396V29.4183C125.058 24.3167 122.487 21.304 118.43 21.304C114.372 21.304 111.842 24.2364 111.842 29.4585V29.7798C111.842 35.0019 114.493 38.0147 118.47 38.0147ZM118.309 44.482C109.03 44.482 103.245 38.4565 103.245 29.82V29.4986C103.245 20.7416 109.833 14.8768 118.43 14.8768C127.187 14.8768 133.654 20.38 133.654 29.2978V29.6191C133.654 38.4565 127.588 44.482 118.309 44.482ZM137.684 44V15.2784H157.087V21.6655H145.959V27.7713H154.837V33.837H145.959V44H137.684ZM160.947 44V15.2784H180.791V21.6253H169.142V26.5662H178.421V32.431H169.142V37.6531H181.434V44H160.947ZM185.543 44V15.2784H196.791C204.303 15.2784 208.48 18.3314 208.48 24.397V24.5577C208.48 28.6551 206.311 30.9447 203.298 32.1097L210.167 44H201.491L195.666 33.7165H193.738V44H185.543ZM193.738 28.3739H196.389C199.161 28.3739 200.527 27.2089 200.527 24.8791V24.7184C200.527 22.3885 199.081 21.4646 196.429 21.4646H193.738V28.3739ZM218.271 44V21.6253H210.84V15.2784H233.978V21.6253H226.546V44H218.271ZM232.722 44L241.921 15.2784H252.566L261.684 44H252.967L251.441 38.6574H241.921L240.394 44H232.722ZM246.701 21.9467L243.527 32.9934H249.834L246.701 21.9467ZM104.772 80V51.2784H124.616V57.6253H112.966V62.5662H122.246V68.431H112.966V73.6531H125.258V80H104.772ZM140.089 80.482C132.055 80.482 127.957 77.1078 127.716 70.8814H135.549C135.75 72.9301 136.674 74.6172 140.089 74.6172C142.459 74.6172 143.784 73.4523 143.784 71.7651C143.784 69.9977 142.7 69.5156 139.245 68.9934C131.131 68.0293 128.399 65.6191 128.399 59.8347C128.399 54.6527 132.657 50.8768 139.526 50.8768C146.436 50.8768 150.332 53.769 150.854 59.8347H143.222C142.941 57.786 141.776 56.7416 139.526 56.7416C137.317 56.7416 136.192 57.7458 136.192 59.1919C136.192 60.7987 137.076 61.5218 140.651 62.0038C147.922 62.8072 151.658 64.6952 151.658 70.9216C151.658 76.1838 147.48 80.482 140.089 80.482ZM155.573 80V51.2784H166.499C174.372 51.2784 178.028 54.7732 178.028 60.8791V61.0398C178.028 67.0653 173.971 70.319 166.86 70.319H163.767V80H155.573ZM163.767 64.6952H166.137C168.789 64.6952 170.195 63.45 170.195 61.0799V60.9192C170.195 58.4689 168.748 57.4646 166.178 57.4646H163.767V64.6952ZM181.777 80V51.2784H201.621V57.6253H189.972V62.5662H199.251V68.431H189.972V73.6531H202.264V80H181.777ZM219.478 80.482C209.436 80.482 204.495 74.6172 204.495 65.82V65.4986C204.495 56.6612 210.762 50.8366 219.157 50.8366C226.629 50.8366 231.811 54.2912 232.493 61.8833H224.018C223.696 58.9509 222.089 57.3441 219.197 57.3441C215.502 57.3441 213.172 60.2364 213.172 65.4585V65.7798C213.172 70.9618 215.381 73.8942 219.318 73.8942C222.21 73.8942 224.259 72.3677 224.66 69.1943H232.855C232.293 76.6257 226.91 80.482 219.478 80.482ZM236.623 80V51.2784H244.938V80H236.623ZM248.335 80L257.534 51.2784H268.179L277.297 80H268.58L267.054 74.6574H257.534L256.007 80H248.335ZM262.314 57.9467L259.14 68.9934H265.447L262.314 57.9467ZM280.594 80V51.2784H288.869V73.613H299.715V80H280.594Z" fill="url(#paint1_linear_660_13)"/>
<path d="M91.9397 48.9999L96.18 42.1229C96.6896 41.2955 96.8282 40.312 96.5653 39.3887C96.3024 38.4655 95.6595 37.678 94.7781 37.1994L87.4421 33.2202V25.2907C87.4421 24.3347 87.0374 23.418 86.3171 22.742C85.5968 22.0661 84.6199 21.6863 83.6012 21.6863H75.1553L70.9188 14.8057C70.4072 13.98 69.5696 13.3766 68.5874 13.1261C68.1003 13.0021 67.5918 12.9702 67.0914 13.032C66.5909 13.0939 66.1086 13.2484 65.6723 13.4865L58.3363 17.4657L51.0003 13.4829C50.1181 13.0049 49.0698 12.8754 48.0859 13.1228C47.102 13.3702 46.2631 13.9742 45.7537 14.8021L41.5135 21.6863H33.0675C32.0488 21.6863 31.0719 22.0661 30.3516 22.742C29.6313 23.418 29.2266 24.3347 29.2266 25.2907V33.2166L21.8907 37.1958C21.4529 37.4321 21.0693 37.7472 20.7617 38.123C20.4542 38.4989 20.2288 38.9281 20.0985 39.3859C19.9682 39.8437 19.9356 40.3212 20.0026 40.7909C20.0696 41.2606 20.2348 41.7133 20.4888 42.1229L24.729 48.9999L20.4888 55.877C19.9817 56.7052 19.8442 57.6879 20.1061 58.6109C20.3679 59.5338 21.0081 60.3222 21.8868 60.8041L29.2228 64.7833V72.7092C29.2228 73.6652 29.6275 74.5819 30.3478 75.2579C31.0681 75.9338 32.045 76.3136 33.0636 76.3136H41.5135L45.7537 83.1978C46.0938 83.7433 46.5793 84.1963 47.1625 84.5123C47.7457 84.8283 48.4065 84.9964 49.0799 85C49.7482 85 50.4127 84.8342 51.0041 84.5134L58.3324 80.5342L65.6684 84.5134C66.5504 84.9907 67.598 85.1202 68.5816 84.8736C69.5651 84.627 70.4043 84.0243 70.915 83.1978L75.1514 76.3136H83.5974C84.6161 76.3136 85.593 75.9338 86.3133 75.2579C87.0336 74.5819 87.4382 73.6652 87.4382 72.7092V64.7833L94.7742 60.8041C95.2112 60.5672 95.5941 60.2517 95.9011 59.8758C96.2081 59.4998 96.4331 59.0708 96.5633 58.6132C96.6935 58.1556 96.7263 57.6785 96.6599 57.209C96.5934 56.7395 96.4291 56.2869 96.1761 55.877L91.9397 48.9999ZM48.7304 30.9423C50.2589 30.9427 51.7245 31.513 52.805 32.5276C53.8854 33.5422 54.4921 34.918 54.4916 36.3524C54.4911 37.7867 53.8834 39.1622 52.8023 40.1761C51.7211 41.19 50.255 41.7593 48.7265 41.7589C47.198 41.7584 45.7324 41.1881 44.6519 40.1735C43.5715 39.1589 42.9648 37.7831 42.9653 36.3488C42.9658 34.9144 43.5735 33.539 44.6546 32.525C45.7358 31.5111 47.2019 30.9418 48.7304 30.9423ZM49.8826 65.5438L43.7373 61.2222L66.7823 32.3876L72.9276 36.7092L49.8826 65.5438ZM67.9345 66.9856C67.1777 66.9853 66.4283 66.8452 65.7292 66.5732C65.0301 66.3012 64.3949 65.9026 63.8599 65.4002C63.3249 64.8979 62.9006 64.3015 62.6112 63.6453C62.3218 62.989 62.173 62.2857 62.1733 61.5755C62.1735 60.8652 62.3228 60.162 62.6127 59.5059C62.9026 58.8499 63.3273 58.2538 63.8626 57.7517C64.398 57.2497 65.0334 56.8515 65.7327 56.58C66.4321 56.3084 67.1815 56.1687 67.9383 56.169C69.4668 56.1694 70.9325 56.7397 72.013 57.7543C73.0934 58.7689 73.7001 60.1447 73.6996 61.5791C73.6991 63.0134 73.0914 64.3889 72.0102 65.4028C70.9291 66.4167 69.463 66.986 67.9345 66.9856Z" fill="url(#paint2_linear_660_13)"/>
<path d="M300 98H350L300 129V98Z" fill="#D9D9D9"/>
<defs>
<linearGradient id="paint0_linear_660_13" x1="22.8558" y1="49" x2="330.566" y2="55.2272" gradientUnits="userSpaceOnUse">
<stop stop-color="#823B35"/>
<stop offset="1" stop-color="#C8544B"/>
</linearGradient>
<linearGradient id="paint1_linear_660_13" x1="201.5" y1="13" x2="201.5" y2="85" gradientUnits="userSpaceOnUse">
<stop stop-color="white"/>
<stop offset="1" stop-color="white" stop-opacity="0.69"/>
</linearGradient>
<linearGradient id="paint2_linear_660_13" x1="58.3321" y1="13" x2="58.3321" y2="85" gradientUnits="userSpaceOnUse">
<stop stop-color="white"/>
<stop offset="1" stop-color="white" stop-opacity="0.69"/>
</linearGradient>
</defs>
</svg>
