<svg width="333" height="141" viewBox="0 0 333 141" fill="none" xmlns="http://www.w3.org/2000/svg">
<path d="M0 0H333V98H0C0 59.7286 0 38.2714 0 0Z" fill="url(#paint0_linear_660_13)"/>
<path d="M125.47 38.0147C129.527 38.0147 132.058 34.8814 132.058 29.7396V29.4183C132.058 24.3167 129.487 21.304 125.43 21.304C121.372 21.304 118.842 24.2364 118.842 29.4585V29.7798C118.842 35.0019 121.493 38.0147 125.47 38.0147ZM125.309 44.482C116.03 44.482 110.245 38.4565 110.245 29.82V29.4986C110.245 20.7416 116.833 14.8768 125.43 14.8768C134.187 14.8768 140.654 20.38 140.654 29.2978V29.6191C140.654 38.4565 134.588 44.482 125.309 44.482ZM144.684 44V15.2784H164.087V21.6655H152.959V27.7713H161.837V33.837H152.959V44H144.684ZM167.947 44V15.2784H187.791V21.6253H176.142V26.5662H185.421V32.431H176.142V37.6531H188.434V44H167.947ZM192.543 44V15.2784H203.791C211.303 15.2784 215.48 18.3314 215.48 24.397V24.5577C215.48 28.6551 213.311 30.9447 210.298 32.1097L217.167 44H208.491L202.666 33.7165H200.738V44H192.543ZM200.738 28.3739H203.389C206.161 28.3739 207.527 27.2089 207.527 24.8791V24.7184C207.527 22.3885 206.081 21.4646 203.429 21.4646H200.738V28.3739ZM225.271 44V21.6253H217.84V15.2784H240.978V21.6253H233.546V44H225.271ZM239.722 44L248.921 15.2784H259.566L268.684 44H259.967L258.441 38.6574H248.921L247.394 44H239.722ZM253.701 21.9467L250.527 32.9934H256.834L253.701 21.9467ZM111.772 80V51.2784H131.616V57.6253H119.966V62.5662H129.246V68.431H119.966V73.6531H132.258V80H111.772ZM147.089 80.482C139.055 80.482 134.957 77.1078 134.716 70.8814H142.549C142.75 72.9301 143.674 74.6172 147.089 74.6172C149.459 74.6172 150.784 73.4523 150.784 71.7651C150.784 69.9977 149.7 69.5156 146.245 68.9934C138.131 68.0293 135.399 65.6191 135.399 59.8347C135.399 54.6527 139.657 50.8768 146.526 50.8768C153.436 50.8768 157.332 53.769 157.854 59.8347H150.222C149.941 57.786 148.776 56.7416 146.526 56.7416C144.317 56.7416 143.192 57.7458 143.192 59.1919C143.192 60.7987 144.076 61.5218 147.651 62.0038C154.922 62.8072 158.658 64.6952 158.658 70.9216C158.658 76.1838 154.48 80.482 147.089 80.482ZM162.573 80V51.2784H173.499C181.372 51.2784 185.028 54.7732 185.028 60.8791V61.0398C185.028 67.0653 180.971 70.319 173.86 70.319H170.767V80H162.573ZM170.767 64.6952H173.137C175.789 64.6952 177.195 63.45 177.195 61.0799V60.9192C177.195 58.4689 175.748 57.4646 173.178 57.4646H170.767V64.6952ZM188.777 80V51.2784H208.621V57.6253H196.972V62.5662H206.251V68.431H196.972V73.6531H209.264V80H188.777ZM226.478 80.482C216.436 80.482 211.495 74.6172 211.495 65.82V65.4986C211.495 56.6612 217.762 50.8366 226.157 50.8366C233.629 50.8366 238.811 54.2912 239.493 61.8833H231.018C230.696 58.9509 229.089 57.3441 226.197 57.3441C222.502 57.3441 220.172 60.2364 220.172 65.4585V65.7798C220.172 70.9618 222.381 73.8942 226.318 73.8942C229.21 73.8942 231.259 72.3677 231.66 69.1943H239.855C239.293 76.6257 233.91 80.482 226.478 80.482ZM243.623 80V51.2784H251.938V80H243.623ZM255.335 80L264.534 51.2784H275.179L284.297 80H275.58L274.054 74.6574H264.534L263.007 80H255.335ZM269.314 57.9467L266.14 68.9934H272.447L269.314 57.9467ZM287.594 80V51.2784H295.869V73.613H306.715V80H287.594Z" fill="url(#paint1_linear_660_13)"/>
<path d="M94.4752 48.9999L98.5095 42.1229C98.9944 41.2955 99.1263 40.312 98.8761 39.3887C98.626 38.4655 98.0144 37.678 97.1757 37.1994L90.196 33.2202V25.2907C90.196 24.3347 89.811 23.418 89.1257 22.742C88.4404 22.0661 87.5109 21.6863 86.5418 21.6863H78.506L74.4754 14.8057C73.9886 13.98 73.1917 13.3766 72.2572 13.1261C71.7937 13.0021 71.3099 12.9702 70.8338 13.032C70.3577 13.0939 69.8988 13.2484 69.4836 13.4865L62.504 17.4657L55.5243 13.4829C54.685 13.0049 53.6876 12.8754 52.7514 13.1228C51.8153 13.3702 51.0172 13.9742 50.5326 14.8021L46.4982 21.6863H38.4625C37.4933 21.6863 36.5638 22.0661 35.8785 22.742C35.1932 23.418 34.8082 24.3347 34.8082 25.2907V33.2166L27.8286 37.1958C27.4121 37.4321 27.0471 37.7472 26.7544 38.123C26.4618 38.4989 26.2474 38.9281 26.1234 39.3859C25.9995 39.8437 25.9685 40.3212 26.0322 40.7909C26.0959 41.2606 26.2531 41.7133 26.4948 42.1229L30.5291 48.9999L26.4948 55.877C26.0123 56.7052 25.8815 57.6879 26.1306 58.6109C26.3798 59.5338 26.9888 60.3222 27.8249 60.8041L34.8046 64.7833V72.7092C34.8046 73.6652 35.1896 74.5819 35.8749 75.2579C36.5602 75.9338 37.4897 76.3136 38.4588 76.3136H46.4982L50.5326 83.1978C50.8561 83.7433 51.318 84.1963 51.8729 84.5123C52.4277 84.8283 53.0565 84.9964 53.6972 85C54.333 85 54.9652 84.8342 55.528 84.5134L62.5003 80.5342L69.48 84.5134C70.3191 84.9907 71.3158 85.1202 72.2516 84.8736C73.1874 84.627 73.9858 84.0243 74.4717 83.1978L78.5024 76.3136H86.5381C87.5073 76.3136 88.4368 75.9338 89.1221 75.2579C89.8074 74.5819 90.1924 73.6652 90.1924 72.7092V64.7833L97.1721 60.8041C97.5878 60.5672 97.9521 60.2517 98.2442 59.8758C98.5363 59.4998 98.7504 59.0708 98.8742 58.6132C98.9981 58.1556 99.0293 57.6785 98.9661 57.209C98.9029 56.7395 98.7465 56.2869 98.5059 55.877L94.4752 48.9999ZM53.3646 30.9423C54.8189 30.9427 56.2134 31.513 57.2413 32.5276C58.2693 33.5422 58.8465 34.918 58.846 36.3524C58.8455 37.7867 58.2674 39.1622 57.2387 40.1761C56.2101 41.19 54.8152 41.7593 53.361 41.7589C51.9067 41.7584 50.5122 41.1881 49.4843 40.1735C48.4563 39.1589 47.8791 37.7831 47.8796 36.3488C47.88 34.9144 48.4582 33.539 49.4869 32.525C50.5155 31.5111 51.9104 30.9418 53.3646 30.9423ZM54.4609 65.5438L48.6141 61.2222L70.5397 32.3876L76.3865 36.7092L54.4609 65.5438ZM71.636 66.9856C70.9159 66.9853 70.203 66.8452 69.5378 66.5732C68.8726 66.3012 68.2683 65.9026 67.7593 65.4002C67.2503 64.8979 66.8466 64.3015 66.5713 63.6453C66.2959 62.989 66.1543 62.2857 66.1546 61.5755C66.1548 60.8652 66.2969 60.162 66.5727 59.5059C66.8484 58.8499 67.2525 58.2538 67.7619 57.7517C68.2712 57.2497 68.8758 56.8515 69.5412 56.58C70.2065 56.3084 70.9196 56.1687 71.6396 56.169C73.0939 56.1694 74.4884 56.7397 75.5163 57.7543C76.5443 58.7689 77.1215 60.1447 77.1211 61.5791C77.1206 63.0134 76.5424 64.3889 75.5138 65.4028C74.4851 66.4167 73.0902 66.986 71.636 66.9856Z" fill="url(#paint2_linear_660_13)"/>
<path d="M240 98H333L240 129V98Z" fill="#D9D9D9"/>
<defs>
<linearGradient id="paint0_linear_660_13" x1="21.7456" y1="49" x2="314.521" y2="54.6372" gradientUnits="userSpaceOnUse">
<stop stop-color="#EA0000"/>
<stop offset="1" stop-color="#C10000"/>
</linearGradient>
<linearGradient id="paint1_linear_660_13" x1="208.5" y1="13" x2="208.5" y2="85" gradientUnits="userSpaceOnUse">
<stop stop-color="white"/>
<stop offset="1" stop-color="white" stop-opacity="0.69"/>
</linearGradient>
<linearGradient id="paint2_linear_660_13" x1="62.5" y1="13" x2="62.5" y2="85" gradientUnits="userSpaceOnUse">
<stop stop-color="white"/>
<stop offset="1" stop-color="white" stop-opacity="0.69"/>
</linearGradient>
</defs>
</svg>
