<svg width="333" height="141" viewBox="0 0 333 141" fill="none" xmlns="http://www.w3.org/2000/svg">
<path d="M0 0H333V98H0C0 59.7286 0 38.2714 0 0Z" fill="url(#paint0_linear_660_13)"/>
<path d="M125.47 38.0147C129.527 38.0147 132.058 34.8814 132.058 29.7396V29.4183C132.058 24.3167 129.487 21.304 125.43 21.304C121.372 21.304 118.842 24.2364 118.842 29.4585V29.7798C118.842 35.0019 121.493 38.0147 125.47 38.0147ZM125.309 44.482C116.03 44.482 110.245 38.4565 110.245 29.82V29.4986C110.245 20.7416 116.833 14.8768 125.43 14.8768C134.187 14.8768 140.654 20.38 140.654 29.2978V29.6191C140.654 38.4565 134.588 44.482 125.309 44.482ZM144.684 44V15.2784H164.087V21.6655H152.959V27.7713H161.837V33.837H152.959V44H144.684ZM167.947 44V15.2784H187.791V21.6253H176.142V26.5662H185.421V32.431H176.142V37.6531H188.434V44H167.947ZM192.543 44V15.2784H203.791C211.303 15.2784 215.48 18.3314 215.48 24.397V24.5577C215.48 28.6551 213.311 30.9447 210.298 32.1097L217.167 44H208.491L202.666 33.7165H200.738V44H192.543ZM200.738 28.3739H203.389C206.161 28.3739 207.527 27.2089 207.527 24.8791V24.7184C207.527 22.3885 206.081 21.4646 203.429 21.4646H200.738V28.3739ZM225.271 44V21.6253H217.84V15.2784H240.978V21.6253H233.546V44H225.271ZM239.722 44L248.921 15.2784H259.566L268.684 44H259.967L258.441 38.6574H248.921L247.394 44H239.722ZM253.701 21.9467L250.527 32.9934H256.834L253.701 21.9467ZM111.772 80V51.2784H131.616V57.6253H119.966V62.5662H129.246V68.431H119.966V73.6531H132.258V80H111.772ZM147.089 80.482C139.055 80.482 134.957 77.1078 134.716 70.8814H142.549C142.75 72.9301 143.674 74.6172 147.089 74.6172C149.459 74.6172 150.784 73.4523 150.784 71.7651C150.784 69.9977 149.7 69.5156 146.245 68.9934C138.131 68.0293 135.399 65.6191 135.399 59.8347C135.399 54.6527 139.657 50.8768 146.526 50.8768C153.436 50.8768 157.332 53.769 157.854 59.8347H150.222C149.941 57.786 148.776 56.7416 146.526 56.7416C144.317 56.7416 143.192 57.7458 143.192 59.1919C143.192 60.7987 144.076 61.5218 147.651 62.0038C154.922 62.8072 158.658 64.6952 158.658 70.9216C158.658 76.1838 154.48 80.482 147.089 80.482ZM162.573 80V51.2784H173.499C181.372 51.2784 185.028 54.7732 185.028 60.8791V61.0398C185.028 67.0653 180.971 70.319 173.86 70.319H170.767V80H162.573ZM170.767 64.6952H173.137C175.789 64.6952 177.195 63.45 177.195 61.0799V60.9192C177.195 58.4689 175.748 57.4646 173.178 57.4646H170.767V64.6952ZM188.777 80V51.2784H208.621V57.6253H196.972V62.5662H206.251V68.431H196.972V73.6531H209.264V80H188.777ZM226.478 80.482C216.436 80.482 211.495 74.6172 211.495 65.82V65.4986C211.495 56.6612 217.762 50.8366 226.157 50.8366C233.629 50.8366 238.811 54.2912 239.493 61.8833H231.018C230.696 58.9509 229.089 57.3441 226.197 57.3441C222.502 57.3441 220.172 60.2364 220.172 65.4585V65.7798C220.172 70.9618 222.381 73.8942 226.318 73.8942C229.21 73.8942 231.259 72.3677 231.66 69.1943H239.855C239.293 76.6257 233.91 80.482 226.478 80.482ZM243.623 80V51.2784H251.938V80H243.623ZM255.335 80L264.534 51.2784H275.179L284.297 80H275.58L274.054 74.6574H264.534L263.007 80H255.335ZM269.314 57.9467L266.14 68.9934H272.447L269.314 57.9467ZM287.594 80V51.2784H295.869V73.613H306.715V80H287.594Z" fill="url(#paint1_linear_660_13)"/>
<path d="M94.4752 53.0115L98.5095 45.3903C98.9944 44.4734 99.1263 43.3835 98.8761 42.3603C98.626 41.3371 98.0144 40.4644 97.1757 39.9341L90.196 35.5243V26.7368C90.196 25.6774 89.811 24.6614 89.1257 23.9124C88.4404 23.1633 87.5109 22.7424 86.5418 22.7424H78.506L74.4754 15.1173C73.9886 14.2022 73.1917 13.5335 72.2572 13.2559C71.7937 13.1186 71.3099 13.0831 70.8338 13.1517C70.3577 13.2203 69.8988 13.3915 69.4836 13.6553L62.504 18.0651L55.5243 13.6513C54.685 13.1217 53.6876 12.9781 52.7514 13.2523C51.8153 13.5265 51.0172 14.1959 50.5326 15.1133L46.4982 22.7424H38.4625C37.4933 22.7424 36.5638 23.1633 35.8785 23.9124C35.1932 24.6614 34.8082 25.6774 34.8082 26.7368V35.5203L27.8286 39.9301C27.4121 40.1919 27.0471 40.5411 26.7544 40.9577C26.4618 41.3742 26.2474 41.8498 26.1234 42.3572C25.9995 42.8646 25.9685 43.3937 26.0322 43.9142C26.0959 44.4348 26.2531 44.9364 26.4948 45.3903L30.5291 53.0115L26.4948 60.6327C26.0123 61.5505 25.8815 62.6395 26.1306 63.6624C26.3798 64.6852 26.9888 65.5589 27.8249 66.0929L34.8046 70.5027V79.2862C34.8046 80.3456 35.1896 81.3616 35.8749 82.1106C36.5602 82.8597 37.4897 83.2806 38.4588 83.2806H46.4982L50.5326 90.9097C50.8561 91.5142 51.318 92.0163 51.8729 92.3665C52.4277 92.7166 53.0565 92.9029 53.6972 92.9069C54.333 92.9069 54.9652 92.7232 55.528 92.3677L62.5003 87.9579L69.48 92.3677C70.3191 92.8966 71.3158 93.0401 72.2516 92.7668C73.1874 92.4935 73.9858 91.8256 74.4717 90.9097L78.5024 83.2806H86.5381C87.5073 83.2806 88.4368 82.8597 89.1221 82.1106C89.8074 81.3616 90.1924 80.3456 90.1924 79.2862V70.5027L97.1721 66.0929C97.5878 65.8303 97.9521 65.4807 98.2442 65.0641C98.5363 64.6475 98.7504 64.1721 98.8742 63.665C98.9981 63.1579 99.0293 62.6291 98.9661 62.1088C98.9029 61.5885 98.7465 61.0869 98.5059 60.6327L94.4752 53.0115ZM53.3646 32.9999C54.8189 33.0004 56.2134 33.6324 57.2413 34.7568C58.2693 35.8811 58.8465 37.4058 58.846 38.9954C58.8455 40.585 58.2674 42.1092 57.2387 43.2328C56.2101 44.3565 54.8152 44.9874 53.361 44.9869C51.9067 44.9864 50.5122 44.3544 49.4843 43.23C48.4563 42.1056 47.8791 40.581 47.8796 38.9914C47.88 37.4018 48.4582 35.8776 49.4869 34.7539C50.5155 33.6303 51.9104 32.9994 53.3646 32.9999ZM54.4609 71.3455L48.6141 66.5563L70.5397 34.6016L76.3865 39.3908L54.4609 71.3455ZM71.636 72.9432C70.9159 72.943 70.203 72.7877 69.5378 72.4862C68.8726 72.1848 68.2683 71.7431 67.7593 71.1864C67.2503 70.6296 66.8466 69.9688 66.5713 69.2415C66.2959 68.5142 66.1543 67.7348 66.1546 66.9477C66.1548 66.1607 66.2969 65.3813 66.5727 64.6543C66.8484 63.9272 67.2525 63.2666 67.7619 62.7103C68.2712 62.1539 68.8758 61.7127 69.5412 61.4117C70.2065 61.1107 70.9196 60.956 71.6396 60.9562C73.0939 60.9568 74.4884 61.5887 75.5163 62.7131C76.5443 63.8375 77.1215 65.3621 77.1211 66.9517C77.1206 68.5413 76.5424 70.0656 75.5138 71.1892C74.4851 72.3128 73.0902 72.9438 71.636 72.9432Z" fill="url(#paint2_linear_660_13)"/>
<path d="M240 98H333L240 129V98Z" fill="#D9D9D9"/>
<defs>
<linearGradient id="paint0_linear_660_13" x1="21.7456" y1="49" x2="314.521" y2="54.6372" gradientUnits="userSpaceOnUse">
<stop stop-color="#EA0000"/>
<stop offset="1" stop-color="#C10000"/>
</linearGradient>
<linearGradient id="paint1_linear_660_13" x1="208.5" y1="13" x2="208.5" y2="85" gradientUnits="userSpaceOnUse">
<stop stop-color="white"/>
<stop offset="1" stop-color="white" stop-opacity="0.69"/>
</linearGradient>
<linearGradient id="paint2_linear_660_13" x1="62.5" y1="13.1162" x2="62.5" y2="92.9069" gradientUnits="userSpaceOnUse">
<stop stop-color="white"/>
<stop offset="1" stop-color="white" stop-opacity="0.69"/>
</linearGradient>
</defs>
</svg>
