<svg width="2000" height="1000" viewBox="0 0 2000 1000" fill="none" xmlns="http://www.w3.org/2000/svg">
<path d="M825.257 469.705C824.421 461.272 820.831 454.72 814.489 450.051C808.147 445.381 799.539 443.046 788.667 443.046C781.279 443.046 775.041 444.092 769.953 446.182C764.866 448.204 760.963 451.026 758.244 454.65C755.596 458.275 754.272 462.387 754.272 466.987C754.132 470.82 754.934 474.165 756.676 477.023C758.488 479.88 760.963 482.355 764.099 484.445C767.235 486.467 770.859 488.244 774.971 489.777C779.084 491.241 783.474 492.495 788.144 493.541L807.38 498.141C816.719 500.232 825.292 503.019 833.098 506.504C840.904 509.989 847.664 514.275 853.379 519.363C859.095 524.451 863.52 530.445 866.657 537.345C869.863 544.245 871.5 552.155 871.57 561.076C871.5 574.179 868.155 585.539 861.534 595.157C854.982 604.706 845.504 612.128 833.098 617.425C820.762 622.653 805.882 625.266 788.458 625.266C771.173 625.266 756.119 622.618 743.295 617.321C730.54 612.024 720.574 604.183 713.395 593.798C706.286 583.344 702.557 570.415 702.209 555.013H746.013C746.501 562.191 748.557 568.185 752.181 572.994C755.875 577.734 760.788 581.323 766.922 583.762C773.125 586.132 780.129 587.317 787.935 587.317C795.601 587.317 802.257 586.202 807.903 583.971C813.618 581.741 818.044 578.64 821.18 574.667C824.316 570.694 825.884 566.129 825.884 560.972C825.884 556.163 824.456 552.12 821.598 548.845C818.81 545.569 814.698 542.781 809.262 540.481C803.895 538.181 797.309 536.09 789.503 534.208L766.19 528.354C748.139 523.963 733.886 517.098 723.431 507.759C712.977 498.42 707.785 485.839 707.854 470.018C707.785 457.055 711.235 445.729 718.204 436.042C725.243 426.354 734.896 418.792 747.163 413.356C759.429 407.919 773.368 405.201 788.98 405.201C804.871 405.201 818.741 407.919 830.589 413.356C842.507 418.792 851.776 426.354 858.398 436.042C865.019 445.729 868.434 456.95 868.643 469.705H825.257ZM902.019 622.234V408.128H1046.29V445.451H947.286V496.468H1038.87V533.79H947.286V584.912H1046.71V622.234H902.019ZM1271.19 483.086H1225.4C1224.56 477.162 1222.86 471.9 1220.28 467.3C1217.7 462.631 1214.39 458.658 1210.34 455.382C1206.3 452.107 1201.63 449.597 1196.34 447.855C1191.11 446.113 1185.43 445.242 1179.3 445.242C1168.21 445.242 1158.56 447.995 1150.34 453.5C1142.11 458.937 1135.74 466.882 1131.2 477.336C1126.67 487.721 1124.41 500.336 1124.41 515.181C1124.41 530.445 1126.67 543.269 1131.2 553.654C1135.8 564.038 1142.22 571.879 1150.44 577.176C1158.67 582.473 1168.18 585.121 1178.98 585.121C1185.05 585.121 1190.66 584.32 1195.81 582.717C1201.04 581.114 1205.68 578.779 1209.72 575.712C1213.76 572.576 1217.11 568.778 1219.75 564.317C1222.47 559.856 1224.35 554.769 1225.4 549.054L1271.19 549.263C1270 559.09 1267.04 568.568 1262.3 577.699C1257.63 586.759 1251.33 594.879 1243.38 602.057C1235.5 609.166 1226.1 614.812 1215.15 618.994C1204.28 623.106 1191.98 625.162 1178.25 625.162C1159.15 625.162 1142.08 620.84 1127.02 612.198C1112.04 603.556 1100.19 591.045 1091.48 574.667C1082.84 558.288 1078.51 538.46 1078.51 515.181C1078.51 491.833 1082.91 471.97 1091.69 455.591C1100.47 439.213 1112.39 426.737 1127.44 418.165C1142.5 409.522 1159.43 405.201 1178.25 405.201C1190.66 405.201 1202.16 406.944 1212.75 410.428C1223.41 413.913 1232.86 419.001 1241.08 425.692C1249.3 432.313 1256 440.432 1261.15 450.051C1266.38 459.669 1269.73 470.681 1271.19 483.086ZM1435.9 408.128H1481.17V547.172C1481.17 562.784 1477.44 576.444 1469.98 588.153C1462.59 599.862 1452.24 608.992 1438.93 615.544C1425.62 622.025 1410.11 625.266 1392.41 625.266C1374.64 625.266 1359.09 622.025 1345.78 615.544C1332.47 608.992 1322.12 599.862 1314.73 588.153C1307.34 576.444 1303.65 562.784 1303.65 547.172V408.128H1348.92V543.304C1348.92 551.458 1350.69 558.707 1354.25 565.049C1357.87 571.391 1362.96 576.374 1369.51 579.999C1376.06 583.623 1383.7 585.435 1392.41 585.435C1401.19 585.435 1408.82 583.623 1415.3 579.999C1421.85 576.374 1426.91 571.391 1430.46 565.049C1434.09 558.707 1435.9 551.458 1435.9 543.304V408.128ZM1518.41 622.234V408.128H1602.88C1619.05 408.128 1632.85 411.021 1644.28 416.806C1655.78 422.521 1664.53 430.64 1670.52 441.164C1676.58 451.619 1679.62 463.92 1679.62 478.068C1679.62 492.286 1676.55 504.518 1670.42 514.763C1664.28 524.939 1655.4 532.745 1643.76 538.181C1632.19 543.617 1618.18 546.335 1601.73 546.335H1545.17V509.954H1594.41C1603.06 509.954 1610.23 508.769 1615.95 506.4C1621.66 504.03 1625.92 500.476 1628.7 495.736C1631.56 490.997 1632.99 485.108 1632.99 478.068C1632.99 470.959 1631.56 464.965 1628.7 460.087C1625.92 455.208 1621.63 451.514 1615.84 449.005C1610.13 446.426 1602.92 445.137 1594.2 445.137H1563.68V622.234H1518.41ZM1634.04 524.799L1687.25 622.234H1637.28L1585.21 524.799H1634.04ZM1711.61 622.234V408.128H1855.88V445.451H1756.87V496.468H1848.45V533.79H1756.87V584.912H1856.3V622.234H1711.61Z" fill="#E0E0E0"/>
<path d="M753.321 697.129C752.931 693.197 751.257 690.143 748.301 687.966C745.344 685.79 741.332 684.701 736.263 684.701C732.819 684.701 729.911 685.188 727.539 686.163C725.167 687.105 723.348 688.421 722.081 690.111C720.846 691.8 720.229 693.717 720.229 695.862C720.164 697.649 720.538 699.208 721.35 700.54C722.195 701.872 723.348 703.026 724.81 704.001C726.272 704.943 727.962 705.771 729.879 706.486C731.796 707.168 733.842 707.753 736.019 708.241L744.987 710.385C749.34 711.36 753.337 712.659 756.976 714.284C760.615 715.908 763.766 717.906 766.43 720.278C769.095 722.65 771.158 725.444 772.62 728.661C774.115 731.877 774.878 735.565 774.911 739.724C774.878 745.832 773.318 751.128 770.232 755.612C767.178 760.063 762.759 763.523 756.976 765.993C751.225 768.429 744.288 769.648 736.166 769.648C728.108 769.648 721.09 768.413 715.112 765.944C709.166 763.475 704.52 759.819 701.173 754.978C697.859 750.105 696.121 744.078 695.958 736.897H716.379C716.606 740.244 717.565 743.038 719.254 745.28C720.976 747.489 723.267 749.162 726.126 750.3C729.018 751.404 732.283 751.957 735.922 751.957C739.496 751.957 742.599 751.437 745.23 750.397C747.895 749.357 749.958 747.912 751.42 746.06C752.882 744.208 753.613 742.079 753.613 739.675C753.613 737.433 752.947 735.549 751.615 734.022C750.315 732.495 748.398 731.195 745.864 730.123C743.362 729.051 740.292 728.076 736.653 727.199L725.785 724.47C717.37 722.423 710.725 719.222 705.852 714.869C700.978 710.515 698.558 704.65 698.59 697.275C698.558 691.232 700.166 685.952 703.415 681.436C706.697 676.92 711.196 673.394 716.915 670.86C722.633 668.326 729.131 667.059 736.409 667.059C743.817 667.059 750.283 668.326 755.806 670.86C761.362 673.394 765.683 676.92 768.77 681.436C771.856 685.952 773.448 691.183 773.546 697.129H753.321ZM789.105 768.234V668.423H810.207V750.836H852.998V768.234H789.105ZM866.973 768.234V668.423H888.075V750.836H930.865V768.234H866.973ZM976.604 768.234V668.423H1043.86V685.822H997.707V709.605H1040.4V727.004H997.707V750.836H1044.05V768.234H976.604ZM1144.12 668.423V768.234H1125.89L1082.47 705.414H1081.74V768.234H1060.64V668.423H1079.16L1122.24 731.195H1123.12V668.423H1144.12ZM1249.62 703.367H1228.28C1227.89 700.605 1227.09 698.152 1225.89 696.008C1224.69 693.831 1223.14 691.979 1221.26 690.452C1219.37 688.925 1217.2 687.755 1214.73 686.943C1212.29 686.131 1209.64 685.725 1206.78 685.725C1201.62 685.725 1197.12 687.008 1193.28 689.575C1189.45 692.109 1186.48 695.813 1184.36 700.686C1182.25 705.528 1181.2 711.408 1181.2 718.329C1181.2 725.444 1182.25 731.423 1184.36 736.264C1186.51 741.105 1189.5 744.76 1193.33 747.229C1197.17 749.698 1201.6 750.933 1206.64 750.933C1209.46 750.933 1212.08 750.56 1214.48 749.812C1216.92 749.065 1219.08 747.976 1220.97 746.547C1222.85 745.085 1224.41 743.314 1225.64 741.235C1226.91 739.155 1227.79 736.783 1228.28 734.119L1249.62 734.217C1249.07 738.798 1247.69 743.217 1245.48 747.473C1243.3 751.697 1240.36 755.482 1236.66 758.828C1232.99 762.142 1228.6 764.774 1223.5 766.724C1218.43 768.641 1212.7 769.599 1206.3 769.599C1197.39 769.599 1189.43 767.585 1182.42 763.556C1175.43 759.527 1169.91 753.695 1165.85 746.06C1161.82 738.424 1159.8 729.181 1159.8 718.329C1159.8 707.445 1161.85 698.185 1165.94 690.549C1170.04 682.914 1175.59 677.098 1182.61 673.102C1189.63 669.073 1197.52 667.059 1206.3 667.059C1212.08 667.059 1217.44 667.871 1222.38 669.496C1227.35 671.12 1231.75 673.492 1235.59 676.611C1239.42 679.698 1242.54 683.483 1244.94 687.966C1247.38 692.45 1248.94 697.584 1249.62 703.367ZM1264.75 768.234V668.423H1304.13C1311.67 668.423 1318.1 669.772 1323.43 672.468C1328.79 675.133 1332.87 678.918 1335.67 683.824C1338.49 688.697 1339.91 694.432 1339.91 701.028C1339.91 707.656 1338.48 713.358 1335.62 718.134C1332.76 722.878 1328.61 726.516 1323.19 729.051C1317.8 731.585 1311.26 732.852 1303.6 732.852H1277.23V715.892H1300.19C1304.21 715.892 1307.56 715.34 1310.23 714.235C1312.89 713.13 1314.87 711.473 1316.17 709.264C1317.5 707.055 1318.17 704.309 1318.17 701.028C1318.17 697.714 1317.5 694.919 1316.17 692.645C1314.87 690.371 1312.87 688.649 1310.18 687.479C1307.51 686.277 1304.15 685.676 1300.09 685.676H1285.86V768.234H1264.75ZM1318.66 722.813L1343.46 768.234H1320.17L1295.9 722.813H1318.66ZM1344.82 668.423H1368.45L1391.21 711.408H1392.19L1414.95 668.423H1438.58L1402.18 732.95V768.234H1381.22V732.95L1344.82 668.423ZM1450.11 768.234V668.423H1489.49C1497.06 668.423 1503.51 669.869 1508.84 672.761C1514.16 675.62 1518.23 679.6 1521.02 684.701C1523.85 689.77 1525.26 695.618 1525.26 702.246C1525.26 708.874 1523.83 714.722 1520.97 719.791C1518.11 724.859 1513.97 728.807 1508.54 731.634C1503.15 734.46 1496.62 735.874 1488.95 735.874H1463.85V718.962H1485.54C1489.6 718.962 1492.95 718.264 1495.58 716.867C1498.24 715.437 1500.23 713.472 1501.53 710.97C1502.86 708.435 1503.52 705.528 1503.52 702.246C1503.52 698.932 1502.86 696.04 1501.53 693.571C1500.23 691.069 1498.24 689.136 1495.58 687.771C1492.92 686.374 1489.54 685.676 1485.44 685.676H1471.21V768.234H1450.11ZM1535.17 685.822V668.423H1617.14V685.822H1586.58V768.234H1565.72V685.822H1535.17ZM1651.74 668.423V768.234H1630.64V668.423H1651.74ZM1760.82 718.329C1760.82 729.213 1758.76 738.473 1754.64 746.108C1750.54 753.744 1744.95 759.576 1737.87 763.604C1730.82 767.601 1722.89 769.599 1714.09 769.599C1705.22 769.599 1697.26 767.585 1690.21 763.556C1683.16 759.527 1677.58 753.695 1673.49 746.06C1669.4 738.424 1667.35 729.181 1667.35 718.329C1667.35 707.445 1669.4 698.185 1673.49 690.549C1677.58 682.914 1683.16 677.098 1690.21 673.102C1697.26 669.073 1705.22 667.059 1714.09 667.059C1722.89 667.059 1730.82 669.073 1737.87 673.102C1744.95 677.098 1750.54 682.914 1754.64 690.549C1758.76 698.185 1760.82 707.445 1760.82 718.329ZM1739.43 718.329C1739.43 711.278 1738.37 705.333 1736.26 700.492C1734.18 695.65 1731.24 691.979 1727.44 689.477C1723.64 686.975 1719.19 685.725 1714.09 685.725C1708.99 685.725 1704.54 686.975 1700.73 689.477C1696.93 691.979 1693.98 695.65 1691.86 700.492C1689.78 705.333 1688.74 711.278 1688.74 718.329C1688.74 725.379 1689.78 731.325 1691.86 736.166C1693.98 741.007 1696.93 744.679 1700.73 747.18C1704.54 749.682 1708.99 750.933 1714.09 750.933C1719.19 750.933 1723.64 749.682 1727.44 747.18C1731.24 744.679 1734.18 741.007 1736.26 736.166C1738.37 731.325 1739.43 725.379 1739.43 718.329ZM1859.94 668.423V768.234H1841.71L1798.29 705.414H1797.56V768.234H1776.46V668.423H1794.98L1838.06 731.195H1838.94V668.423H1859.94Z" fill="#999999"/>
<mask id="mask0_771_3" style="mask-type:luminance" maskUnits="userSpaceOnUse" x="136" y="196" width="446" height="601">
<path d="M581.699 196.383H136.066V796.208H581.699V196.383Z" fill="white"/>
</mask>
<g mask="url(#mask0_771_3)">
<path d="M358.852 578.518C361.465 578.528 364.015 579.312 366.184 580.77C368.352 582.228 370.04 584.295 371.036 586.711C372.03 589.127 372.288 591.783 371.775 594.345C371.264 596.907 370.004 599.261 368.157 601.108C366.309 602.955 363.956 604.215 361.394 604.726C358.832 605.239 356.176 604.982 353.76 603.987C351.344 602.991 349.276 601.304 347.819 599.135C346.361 596.968 345.577 594.416 345.567 591.803C345.557 590.056 345.894 588.324 346.558 586.708C347.223 585.091 348.201 583.623 349.436 582.387C350.671 581.152 352.14 580.174 353.756 579.509C355.373 578.845 357.105 578.508 358.852 578.518Z" fill="#CACACA"/>
<path d="M526.569 364.28V388.13C523.327 387.532 520.034 387.252 516.736 387.293H484.726V364.28C484.726 330.89 471.462 298.868 447.852 275.258C424.241 251.647 392.22 238.383 358.83 238.383C325.44 238.383 293.418 251.647 269.808 275.258C246.198 298.868 232.933 330.89 232.933 364.28V387.293H201.028C197.698 387.308 194.375 387.587 191.09 388.13V364.28C191.048 331.077 200.864 298.61 219.293 270.992C237.722 243.373 263.936 221.848 294.612 209.143C325.287 196.438 359.044 193.126 391.604 199.625C424.164 206.125 454.061 222.145 477.508 245.654C493.137 261.19 505.522 279.679 513.944 300.043C522.366 320.407 526.658 342.243 526.569 364.28Z" fill="#CACACA"/>
<path d="M345.596 591.803C345.607 594.418 346.391 596.97 347.851 599.139C349.31 601.307 351.379 602.995 353.797 603.989C356.214 604.984 358.872 605.239 361.435 604.725C363.998 604.21 366.351 602.947 368.197 601.097C370.043 599.246 371.301 596.89 371.809 594.326C372.318 591.763 372.056 589.104 371.056 586.689C370.056 584.274 368.363 582.209 366.191 580.755C364.019 579.301 361.464 578.522 358.85 578.518C355.332 578.526 351.961 579.929 349.476 582.42C346.992 584.911 345.596 588.285 345.596 591.803ZM358.85 563.141C364.504 563.151 370.029 564.836 374.726 567.984C379.423 571.132 383.082 575.601 385.241 580.827C387.4 586.052 387.962 591.8 386.856 597.345C385.75 602.891 383.026 607.983 379.028 611.981C375.03 615.979 369.938 618.703 364.392 619.809C358.847 620.915 353.099 620.352 347.874 618.194C342.647 616.035 338.179 612.376 335.031 607.679C331.883 602.982 330.198 597.457 330.188 591.803C330.193 584.204 333.215 576.915 338.589 571.542C343.963 566.168 351.25 563.146 358.85 563.141Z" fill="#CACACA"/>
<path d="M526.57 388.13C523.327 387.532 520.034 387.251 516.737 387.293H201.028C197.699 387.308 194.375 387.587 191.09 388.13C175.77 390.48 161.797 398.239 151.703 410.003C141.61 421.766 136.062 436.755 136.066 452.255V731.246C136.083 748.47 142.933 764.983 155.111 777.163C167.291 789.341 183.804 796.191 201.028 796.208H516.737C533.955 796.174 550.459 789.319 562.635 777.144C574.81 764.969 581.665 748.464 581.699 731.246V452.255C581.676 436.746 576.105 421.756 565.995 409.996C555.884 398.235 541.9 390.48 526.57 388.13ZM212.012 429.241C211.313 429.261 210.614 429.227 209.92 429.137H214.104C213.411 429.227 212.711 429.261 212.012 429.241ZM358.851 620.361C353.188 620.371 347.65 618.701 342.936 615.561C338.223 612.421 334.548 607.953 332.377 602.724C330.204 597.493 329.633 591.737 330.736 586.182C331.838 580.627 334.564 575.525 338.569 571.52C342.573 567.516 347.676 564.79 353.231 563.687C358.785 562.585 364.542 563.156 369.772 565.327C375.002 567.5 379.469 571.175 382.61 575.888C385.749 580.601 387.42 586.139 387.409 591.803C387.376 599.367 384.357 606.611 379.008 611.96C373.66 617.308 366.415 620.327 358.851 620.361ZM505.617 429.241C504.918 429.261 504.218 429.227 503.525 429.137H507.709C507.026 429.224 506.337 429.26 505.648 429.241H505.617Z" fill="#999999"/>
</g>
</svg>
