<svg width="1600" height="1000" viewBox="0 0 1600 1000" fill="none" xmlns="http://www.w3.org/2000/svg">
<path d="M979.098 323.458C978.372 316.13 975.253 310.437 969.741 306.379C964.23 302.322 956.751 300.293 947.303 300.293C940.883 300.293 935.463 301.201 931.042 303.018C926.621 304.775 923.229 307.227 920.867 310.377C918.566 313.526 917.415 317.099 917.415 321.096C917.294 324.427 917.99 327.334 919.504 329.817C921.079 332.3 923.229 334.45 925.954 336.267C928.68 338.024 931.829 339.568 935.402 340.9C938.975 342.172 942.791 343.262 946.849 344.171L963.564 348.168C971.679 349.985 979.129 352.407 985.912 355.435C992.695 358.464 998.569 362.188 1003.54 366.609C1008.5 371.03 1012.35 376.239 1015.07 382.234C1017.86 388.23 1019.28 395.104 1019.34 402.856C1019.28 414.242 1016.37 424.114 1010.62 432.471C1004.93 440.768 996.692 447.218 985.912 451.821C975.192 456.363 962.262 458.634 947.121 458.634C932.102 458.634 919.02 456.333 907.876 451.73C896.793 447.128 888.133 440.314 881.895 431.29C875.717 422.206 872.477 410.972 872.175 397.587H910.238C910.662 403.825 912.449 409.033 915.598 413.212C918.808 417.331 923.078 420.45 928.407 422.569C933.797 424.628 939.884 425.658 946.667 425.658C953.329 425.658 959.113 424.689 964.018 422.751C968.984 420.813 972.83 418.118 975.555 414.666C978.281 411.214 979.643 407.247 979.643 402.765C979.643 398.586 978.402 395.074 975.919 392.227C973.496 389.381 969.923 386.958 965.199 384.96C960.536 382.961 954.813 381.144 948.03 379.509L927.771 374.422C912.085 370.606 899.7 364.641 890.616 356.525C881.532 348.41 877.02 337.478 877.08 323.731C877.02 312.466 880.017 302.625 886.074 294.206C892.191 285.788 900.579 279.217 911.238 274.493C921.897 269.769 934.009 267.407 947.575 267.407C961.384 267.407 973.436 269.769 983.731 274.493C994.088 279.217 1002.14 285.788 1007.9 294.206C1013.65 302.625 1016.62 312.375 1016.8 323.458H979.098ZM1146.73 323.458C1146 316.13 1142.88 310.437 1137.37 306.379C1131.86 302.322 1124.38 300.293 1114.93 300.293C1108.51 300.293 1103.09 301.201 1098.67 303.018C1094.25 304.775 1090.86 307.227 1088.5 310.377C1086.2 313.526 1085.05 317.099 1085.05 321.096C1084.92 324.427 1085.62 327.334 1087.13 329.817C1088.71 332.3 1090.86 334.45 1093.58 336.267C1096.31 338.024 1099.46 339.568 1103.03 340.9C1106.61 342.172 1110.42 343.262 1114.48 344.171L1131.19 348.168C1139.31 349.985 1146.76 352.407 1153.54 355.435C1160.33 358.464 1166.2 362.188 1171.17 366.609C1176.13 371.03 1179.98 376.239 1182.7 382.234C1185.49 388.23 1186.91 395.104 1186.97 402.856C1186.91 414.242 1184.01 424.114 1178.25 432.471C1172.56 440.768 1164.32 447.218 1153.54 451.821C1142.82 456.363 1129.89 458.634 1114.75 458.634C1099.73 458.634 1086.65 456.333 1075.51 451.73C1064.42 447.128 1055.76 440.314 1049.53 431.29C1043.35 422.206 1040.11 410.972 1039.8 397.587H1077.87C1078.29 403.825 1080.08 409.033 1083.23 413.212C1086.44 417.331 1090.71 420.45 1096.04 422.569C1101.43 424.628 1107.51 425.658 1114.3 425.658C1120.96 425.658 1126.74 424.689 1131.65 422.751C1136.61 420.813 1140.46 418.118 1143.19 414.666C1145.91 411.214 1147.27 407.247 1147.27 402.765C1147.27 398.586 1146.03 395.074 1143.55 392.227C1141.13 389.381 1137.55 386.958 1132.83 384.96C1128.17 382.961 1122.44 381.144 1115.66 379.509L1095.4 374.422C1079.72 370.606 1067.33 364.641 1058.25 356.525C1049.16 348.41 1044.65 337.478 1044.71 323.731C1044.65 312.466 1047.65 302.625 1053.7 294.206C1059.82 285.788 1068.21 279.217 1078.87 274.493C1089.53 269.769 1101.64 267.407 1115.21 267.407C1129.01 267.407 1141.07 269.769 1151.36 274.493C1161.72 279.217 1169.77 285.788 1175.53 294.206C1181.28 302.625 1184.25 312.375 1184.43 323.458H1146.73ZM1213.43 456V269.951H1252.77V423.569H1332.53V456H1213.43ZM878.17 729V542.951H917.506V696.569H997.267V729H878.17ZM1062.38 731.634C1053.48 731.634 1045.54 730.09 1038.58 727.001C1031.61 723.852 1026.1 719.219 1022.04 713.102C1018.05 706.925 1016.05 699.233 1016.05 690.028C1016.05 682.276 1017.47 675.765 1020.32 670.496C1023.17 665.227 1027.04 660.988 1031.95 657.778C1036.85 654.568 1042.42 652.146 1048.66 650.511C1054.96 648.875 1061.56 647.725 1068.47 647.058C1076.58 646.211 1083.12 645.423 1088.09 644.696C1093.05 643.909 1096.66 642.758 1098.9 641.244C1101.14 639.73 1102.26 637.49 1102.26 634.522V633.977C1102.26 628.223 1100.44 623.772 1096.81 620.623C1093.24 617.473 1088.15 615.899 1081.55 615.899C1074.58 615.899 1069.04 617.443 1064.92 620.532C1060.81 623.56 1058.08 627.376 1056.75 631.978L1020.95 629.071C1022.77 620.592 1026.34 613.264 1031.67 607.087C1037 600.849 1043.88 596.065 1052.3 592.734C1060.77 589.342 1070.59 587.646 1081.73 587.646C1089.48 587.646 1096.9 588.555 1103.99 590.372C1111.13 592.188 1117.46 595.005 1122.97 598.82C1128.54 602.636 1132.94 607.541 1136.15 613.537C1139.36 619.472 1140.96 626.588 1140.96 634.885V729H1104.26V709.65H1103.17C1100.93 714.011 1097.93 717.856 1094.18 721.187C1090.42 724.458 1085.91 727.032 1080.64 728.909C1075.37 730.726 1069.28 731.634 1062.38 731.634ZM1073.46 704.926C1079.16 704.926 1084.18 703.806 1088.54 701.565C1092.9 699.264 1096.33 696.175 1098.81 692.299C1101.29 688.423 1102.53 684.032 1102.53 679.126V664.319C1101.32 665.106 1099.66 665.833 1097.54 666.499C1095.48 667.105 1093.15 667.68 1090.54 668.225C1087.94 668.71 1085.33 669.164 1082.73 669.588C1080.12 669.951 1077.76 670.284 1075.64 670.587C1071.1 671.253 1067.13 672.313 1063.74 673.767C1060.35 675.22 1057.72 677.188 1055.84 679.672C1053.96 682.094 1053.02 685.122 1053.02 688.756C1053.02 694.025 1054.93 698.052 1058.75 700.838C1062.62 703.564 1067.53 704.926 1073.46 704.926ZM1171.71 729V542.951H1210.41V612.901H1211.59C1213.29 609.146 1215.74 605.331 1218.95 601.455C1222.22 597.518 1226.46 594.248 1231.67 591.643C1236.94 588.979 1243.48 587.646 1251.29 587.646C1261.47 587.646 1270.85 590.311 1279.45 595.641C1288.05 600.91 1294.93 608.874 1300.07 619.533C1305.22 630.131 1307.8 643.425 1307.8 659.413C1307.8 674.978 1305.28 688.12 1300.26 698.84C1295.29 709.499 1288.51 717.584 1279.91 723.095C1271.37 728.546 1261.8 731.271 1251.2 731.271C1243.69 731.271 1237.3 730.03 1232.03 727.546C1226.82 725.063 1222.55 721.944 1219.22 718.19C1215.89 714.374 1213.35 710.528 1211.59 706.652H1209.87V729H1171.71ZM1209.59 659.232C1209.59 667.529 1210.74 674.766 1213.05 680.943C1215.35 687.121 1218.68 691.936 1223.04 695.388C1227.4 698.779 1232.7 700.475 1238.94 700.475C1245.23 700.475 1250.56 698.749 1254.92 695.297C1259.28 691.784 1262.59 686.939 1264.83 680.762C1267.13 674.524 1268.28 667.347 1268.28 659.232C1268.28 651.177 1267.16 644.091 1264.92 637.974C1262.68 631.857 1259.38 627.073 1255.02 623.621C1250.65 620.169 1245.29 618.442 1238.94 618.442C1232.64 618.442 1227.31 620.108 1222.95 623.439C1218.65 626.77 1215.35 631.494 1213.05 637.611C1210.74 643.727 1209.59 650.934 1209.59 659.232ZM1449.72 629.253L1414.29 631.433C1413.68 628.405 1412.38 625.68 1410.38 623.257C1408.38 620.774 1405.75 618.806 1402.48 617.352C1399.27 615.838 1395.42 615.081 1390.94 615.081C1384.95 615.081 1379.89 616.353 1375.77 618.897C1371.65 621.38 1369.59 624.711 1369.59 628.89C1369.59 632.221 1370.92 635.037 1373.59 637.338C1376.25 639.639 1380.83 641.487 1387.31 642.88L1412.56 647.967C1426.13 650.753 1436.24 655.234 1442.9 661.412C1449.57 667.589 1452.9 675.705 1452.9 685.758C1452.9 694.903 1450.2 702.928 1444.81 709.832C1439.48 716.736 1432.15 722.126 1422.83 726.002C1413.56 729.818 1402.87 731.725 1390.76 731.725C1372.29 731.725 1357.57 727.88 1346.61 720.188C1335.71 712.436 1329.32 701.898 1327.44 688.574L1365.5 686.576C1366.66 692.208 1369.44 696.508 1373.86 699.476C1378.28 702.383 1383.95 703.836 1390.85 703.836C1397.63 703.836 1403.08 702.534 1407.2 699.93C1411.38 697.265 1413.5 693.843 1413.56 689.664C1413.5 686.152 1412.02 683.275 1409.11 681.034C1406.2 678.733 1401.72 676.976 1395.66 675.765L1371.5 670.95C1357.87 668.225 1347.73 663.501 1341.07 656.779C1334.47 650.056 1331.17 641.487 1331.17 631.07C1331.17 622.107 1333.59 614.385 1338.43 607.905C1343.34 601.424 1350.21 596.428 1359.05 592.915C1367.96 589.403 1378.37 587.646 1390.3 587.646C1407.93 587.646 1421.8 591.371 1431.91 598.82C1442.09 606.269 1448.02 616.414 1449.72 629.253Z" fill="#E0E0E0"/>
<g clip-path="url(#clip0_754_57)">
<path fill-rule="evenodd" clip-rule="evenodd" d="M456.236 119.002C664.153 119.002 768.696 230.248 768.696 230.248C768.696 230.248 780.649 312.593 773.02 478.395C761.496 728.859 456.309 879.277 456.283 879.293C456.257 879.306 151.073 728.859 139.546 478.395C131.915 312.593 143.87 230.248 143.87 230.248C143.87 230.248 248.317 119.002 456.236 119.002Z" fill="#ED2E26"/>
<path fill-rule="evenodd" clip-rule="evenodd" d="M300.218 448.239C300.218 359.679 370.229 287.632 456.283 287.632C542.41 287.632 612.478 357.7 612.478 443.824C612.478 512.582 553.374 569.149 507.821 598.219C525.493 608.301 564.494 618.889 601.835 622.311C656.364 580.111 689.619 514.878 689.619 443.824C689.619 315.163 584.947 210.49 456.283 210.49C327.622 210.49 222.949 315.163 222.949 443.824C222.949 521.531 255.305 590.562 316.515 643.461C373.744 692.913 457.455 725.923 552.767 741.551C573.417 730.14 608.732 696.451 621.977 676.73C542.373 666.492 467.037 647.079 416.535 620.586C339.354 580.101 300.218 522.112 300.218 448.239Z" fill="white"/>
</g>
<path d="M1524.44 107.188C1524.53 110.377 1526.89 112.854 1529.88 113.391V113.5H1531.1V113.368C1532.34 113.085 1533.28 112.359 1533.92 111.345C1534.72 110.086 1535 108.457 1535 106.846V85C1535 78.3977 1529.6 73 1523 73H1503.66C1501.93 73 1499.72 73.6474 1497.94 74.6836C1496.21 75.6841 1494.5 77.286 1494.5 79.3734V79.3899C1494.5 81.3105 1495.62 82.9639 1497.03 84.1051C1498.45 85.2505 1500.3 86.0011 1502.07 86.049L1502.07 86.049L1510.5 86.2746L1510.51 86.2746C1512.05 86.3132 1512.8 88.1865 1511.71 89.2824L1511.71 89.2831L1479.88 121.27C1479.88 121.27 1479.88 121.27 1479.88 121.27C1477.33 123.824 1477.44 127.939 1479.96 130.461C1482.5 132.996 1486.69 133.002 1489.23 130.461L1521.22 98.4782C1522.31 97.3821 1524.19 98.1272 1524.23 99.6761L1524.44 107.187L1524.44 107.188ZM1535 173.083V145.56C1535 141.966 1532.09 139.06 1528.5 139.06C1524.91 139.06 1522 141.967 1522 145.56V167.56C1522 169.149 1521.98 170.288 1521.68 171.053C1521.55 171.392 1521.38 171.598 1521.16 171.733C1520.94 171.875 1520.57 172 1519.94 172H1448.42C1445.63 172 1442.49 170.873 1440.04 169.018C1437.59 167.158 1436 164.691 1436 162.083V90.5604C1436 89.5778 1436.83 88.4486 1438.36 87.4862C1439.85 86.5541 1441.65 86 1442.94 86H1464.94C1468.53 86 1471.44 83.0944 1471.44 79.5C1471.44 75.9117 1468.53 73 1464.94 73H1437.42C1434.14 73 1430.58 74.3343 1427.83 76.4522C1425.08 78.5652 1423 81.5868 1423 85.0386V173.083C1423 176.535 1425.09 179.527 1427.83 181.611C1430.58 183.699 1434.15 185 1437.42 185H1525.46C1528.8 185 1531.25 183.64 1532.82 181.387C1534.36 179.185 1535 176.226 1535 173.083Z" fill="white" stroke="white" stroke-width="2"/>
<path d="M1524.44 107.188C1524.53 110.377 1526.89 112.854 1529.88 113.391V113.5H1531.1V113.368C1532.34 113.085 1533.28 112.359 1533.92 111.345C1534.72 110.086 1535 108.457 1535 106.846V85C1535 78.3977 1529.6 73 1523 73H1503.66C1501.93 73 1499.72 73.6474 1497.94 74.6836C1496.21 75.6841 1494.5 77.286 1494.5 79.3734V79.3899C1494.5 81.3105 1495.62 82.9639 1497.03 84.1051C1498.45 85.2505 1500.3 86.0011 1502.07 86.049L1502.07 86.049L1510.5 86.2746L1510.51 86.2746C1512.05 86.3132 1512.8 88.1865 1511.71 89.2824L1511.71 89.2831L1479.88 121.27C1479.88 121.27 1479.88 121.27 1479.88 121.27C1477.33 123.824 1477.44 127.939 1479.96 130.461C1482.5 132.996 1486.69 133.002 1489.23 130.461L1521.22 98.4782C1522.31 97.3821 1524.19 98.1272 1524.23 99.6761L1524.44 107.187L1524.44 107.188ZM1535 173.083V145.56C1535 141.966 1532.09 139.06 1528.5 139.06C1524.91 139.06 1522 141.967 1522 145.56V167.56C1522 169.149 1521.98 170.288 1521.68 171.053C1521.55 171.392 1521.38 171.598 1521.16 171.733C1520.94 171.875 1520.57 172 1519.94 172H1448.42C1445.63 172 1442.49 170.873 1440.04 169.018C1437.59 167.158 1436 164.691 1436 162.083V90.5604C1436 89.5778 1436.83 88.4486 1438.36 87.4862C1439.85 86.5541 1441.65 86 1442.94 86H1464.94C1468.53 86 1471.44 83.0944 1471.44 79.5C1471.44 75.9117 1468.53 73 1464.94 73H1437.42C1434.14 73 1430.58 74.3343 1427.83 76.4522C1425.08 78.5652 1423 81.5868 1423 85.0386V173.083C1423 176.535 1425.09 179.527 1427.83 181.611C1430.58 183.699 1434.15 185 1437.42 185H1525.46C1528.8 185 1531.25 183.64 1532.82 181.387C1534.36 179.185 1535 176.226 1535 173.083Z" fill="white" stroke="white" stroke-width="2"/>
<defs>
<clipPath id="clip0_754_57">
<rect width="638.091" height="762.597" fill="white" transform="translate(137 119)"/>
</clipPath>
</defs>
</svg>
