<svg width="2000" height="1000" viewBox="0 0 2000 1000" fill="none" xmlns="http://www.w3.org/2000/svg">
<path d="M1142.65 284.947C1141.77 276.065 1137.99 269.164 1131.31 264.245C1124.63 259.327 1115.56 256.868 1104.11 256.868C1096.33 256.868 1089.76 257.969 1084.4 260.171C1079.04 262.3 1074.93 265.273 1072.07 269.091C1069.28 272.908 1067.88 277.239 1067.88 282.084C1067.74 286.122 1068.58 289.646 1070.41 292.655C1072.32 295.665 1074.93 298.271 1078.23 300.474C1081.54 302.603 1085.35 304.475 1089.69 306.09C1094.02 307.631 1098.64 308.953 1103.56 310.054L1123.82 314.899C1133.66 317.101 1142.69 320.038 1150.91 323.708C1159.13 327.379 1166.25 331.894 1172.27 337.253C1178.29 342.612 1182.95 348.925 1186.26 356.193C1189.63 363.46 1191.36 371.793 1191.43 381.189C1191.36 394.99 1187.84 406.956 1180.86 417.087C1173.96 427.145 1163.98 434.963 1150.91 440.542C1137.92 446.048 1122.24 448.801 1103.89 448.801C1085.68 448.801 1069.83 446.011 1056.32 440.432C1042.89 434.853 1032.39 426.594 1024.83 415.656C1017.34 404.644 1013.41 391.026 1013.04 374.802H1059.18C1059.7 382.364 1061.86 388.677 1065.68 393.743C1069.57 398.734 1074.75 402.515 1081.21 405.085C1087.74 407.58 1095.12 408.828 1103.34 408.828C1111.41 408.828 1118.43 407.654 1124.37 405.305C1130.39 402.956 1135.05 399.689 1138.36 395.504C1141.66 391.32 1143.31 386.512 1143.31 381.079C1143.31 376.014 1141.81 371.756 1138.8 368.306C1135.86 364.855 1131.53 361.919 1125.8 359.496C1120.15 357.074 1113.21 354.871 1104.99 352.889L1080.44 346.723C1061.42 342.098 1046.41 334.867 1035.4 325.03C1024.39 315.193 1018.92 301.942 1018.99 285.278C1018.92 271.623 1022.55 259.694 1029.89 249.49C1037.31 239.286 1047.47 231.321 1060.39 225.594C1073.31 219.868 1088 217.005 1104.44 217.005C1121.18 217.005 1135.79 219.868 1148.27 225.594C1160.82 231.321 1170.58 239.286 1177.56 249.49C1184.53 259.694 1188.13 271.513 1188.35 284.947H1142.65ZM1345.84 284.947C1344.96 276.065 1341.18 269.164 1334.5 264.245C1327.82 259.327 1318.76 256.868 1307.3 256.868C1299.52 256.868 1292.95 257.969 1287.59 260.171C1282.23 262.3 1278.12 265.273 1275.26 269.091C1272.47 272.908 1271.07 277.239 1271.07 282.084C1270.93 286.122 1271.77 289.646 1273.61 292.655C1275.52 295.665 1278.12 298.271 1281.43 300.474C1284.73 302.603 1288.55 304.475 1292.88 306.09C1297.21 307.631 1301.83 308.953 1306.75 310.054L1327.01 314.899C1336.85 317.101 1345.88 320.038 1354.1 323.708C1362.32 327.379 1369.45 331.894 1375.47 337.253C1381.48 342.612 1386.15 348.925 1389.45 356.193C1392.83 363.46 1394.55 371.793 1394.63 381.189C1394.55 394.99 1391.03 406.956 1384.05 417.087C1377.15 427.145 1367.17 434.963 1354.1 440.542C1341.11 446.048 1325.44 448.801 1307.08 448.801C1288.88 448.801 1273.02 446.011 1259.51 440.432C1246.08 434.853 1235.58 426.594 1228.02 415.656C1220.53 404.644 1216.6 391.026 1216.24 374.802H1262.38C1262.89 382.364 1265.05 388.677 1268.87 393.743C1272.76 398.734 1277.94 402.515 1284.4 405.085C1290.93 407.58 1298.31 408.828 1306.53 408.828C1314.61 408.828 1321.62 407.654 1327.56 405.305C1333.58 402.956 1338.25 399.689 1341.55 395.504C1344.85 391.32 1346.5 386.512 1346.5 381.079C1346.5 376.014 1345 371.756 1341.99 368.306C1339.05 364.855 1334.72 361.919 1329 359.496C1323.34 357.074 1316.41 354.871 1308.18 352.889L1283.63 346.723C1264.61 342.098 1249.6 334.867 1238.59 325.03C1227.58 315.193 1222.11 301.942 1222.18 285.278C1222.11 271.623 1225.74 259.694 1233.08 249.49C1240.5 239.286 1250.67 231.321 1263.59 225.594C1276.51 219.868 1291.19 217.005 1307.63 217.005C1324.37 217.005 1338.98 219.868 1351.46 225.594C1364.01 231.321 1373.78 239.286 1380.75 249.49C1387.72 259.694 1391.32 271.513 1391.54 284.947H1345.84ZM1426.7 445.607V220.089H1474.38V406.296H1571.06V445.607H1426.7ZM1020.31 775.607V550.089H1067.99V736.296H1164.67V775.607H1020.31ZM1243.6 778.801C1232.81 778.801 1223.19 776.929 1214.75 773.185C1206.31 769.367 1199.63 763.752 1194.71 756.337C1189.86 748.849 1187.44 739.526 1187.44 728.367C1187.44 718.971 1189.17 711.079 1192.62 704.692C1196.07 698.306 1200.77 693.167 1206.71 689.276C1212.66 685.385 1219.41 682.449 1226.97 680.467C1234.61 678.485 1242.61 677.09 1250.98 676.282C1260.82 675.255 1268.74 674.3 1274.76 673.419C1280.78 672.465 1285.15 671.07 1287.87 669.235C1290.58 667.4 1291.94 664.683 1291.94 661.086V660.425C1291.94 653.451 1289.74 648.056 1285.33 644.238C1281 640.421 1274.84 638.512 1266.84 638.512C1258.39 638.512 1251.68 640.384 1246.68 644.128C1241.69 647.799 1238.39 652.424 1236.77 658.003L1193.39 654.479C1195.59 644.202 1199.92 635.319 1206.38 627.831C1212.84 620.27 1221.17 614.47 1231.38 610.433C1241.66 606.322 1253.55 604.266 1267.06 604.266C1276.45 604.266 1285.44 605.367 1294.03 607.569C1302.7 609.772 1310.37 613.185 1317.05 617.81C1323.8 622.435 1329.12 628.382 1333.02 635.649C1336.91 642.844 1338.85 651.469 1338.85 661.527V775.607H1294.36V752.153H1293.04C1290.33 757.438 1286.69 762.1 1282.14 766.137C1277.59 770.102 1272.12 773.222 1265.73 775.497C1259.35 777.7 1251.97 778.801 1243.6 778.801ZM1257.03 746.427C1263.94 746.427 1270.03 745.068 1275.31 742.352C1280.6 739.563 1284.75 735.819 1287.76 731.12C1290.77 726.422 1292.27 721.1 1292.27 715.153V697.204C1290.8 698.159 1288.79 699.04 1286.22 699.847C1283.72 700.581 1280.89 701.279 1277.74 701.939C1274.58 702.527 1271.42 703.077 1268.27 703.591C1265.11 704.032 1262.25 704.435 1259.68 704.802C1254.17 705.61 1249.36 706.895 1245.25 708.657C1241.14 710.418 1237.95 712.804 1235.67 715.814C1233.4 718.751 1232.26 722.421 1232.26 726.826C1232.26 733.213 1234.57 738.094 1239.2 741.471C1243.89 744.775 1249.84 746.427 1257.03 746.427ZM1376.13 775.607V550.089H1423.04V634.878H1424.47C1426.52 630.327 1429.5 625.702 1433.39 621.004C1437.35 616.232 1442.49 612.268 1448.8 609.111C1455.19 605.881 1463.12 604.266 1472.59 604.266C1484.92 604.266 1496.3 607.496 1506.72 613.956C1517.15 620.343 1525.48 629.997 1531.72 642.917C1537.96 655.764 1541.08 671.878 1541.08 691.258C1541.08 710.125 1538.03 726.055 1531.94 739.049C1525.92 751.969 1517.7 761.769 1507.27 768.45C1496.92 775.057 1485.32 778.36 1472.48 778.36C1463.37 778.36 1455.63 776.855 1449.24 773.846C1442.93 770.836 1437.75 767.055 1433.72 762.504C1429.68 757.879 1426.6 753.217 1424.47 748.519H1422.37V775.607H1376.13ZM1422.04 691.038C1422.04 701.095 1423.44 709.868 1426.23 717.356C1429.02 724.844 1433.06 730.68 1438.34 734.864C1443.63 738.975 1450.05 741.031 1457.61 741.031C1465.25 741.031 1471.71 738.939 1476.99 734.754C1482.28 730.496 1486.28 724.623 1489 717.136C1491.79 709.574 1493.18 700.875 1493.18 691.038C1493.18 681.274 1491.82 672.685 1489.11 665.271C1486.39 657.856 1482.39 652.057 1477.1 647.872C1471.82 643.688 1465.32 641.596 1457.61 641.596C1449.98 641.596 1443.52 643.614 1438.23 647.652C1433.02 651.69 1429.02 657.416 1426.23 664.83C1423.44 672.245 1422.04 680.981 1422.04 691.038ZM1713.11 654.699L1670.16 657.342C1669.43 653.672 1667.85 650.368 1665.43 647.432C1663.01 644.422 1659.81 642.036 1655.85 640.274C1651.96 638.439 1647.3 637.521 1641.86 637.521C1634.6 637.521 1628.47 639.063 1623.48 642.146C1618.48 645.156 1615.99 649.194 1615.99 654.259C1615.99 658.297 1617.6 661.71 1620.83 664.5C1624.06 667.289 1629.61 669.528 1637.46 671.217L1668.07 677.383C1684.52 680.76 1696.78 686.193 1704.85 693.681C1712.93 701.169 1716.96 711.006 1716.96 723.192C1716.96 734.277 1713.7 744.004 1707.16 752.373C1700.7 760.742 1691.82 767.275 1680.52 771.974C1669.28 776.598 1656.33 778.911 1641.64 778.911C1619.25 778.911 1601.42 774.249 1588.13 764.926C1574.91 755.529 1567.17 742.756 1564.89 726.606L1611.03 724.183C1612.43 731.01 1615.8 736.222 1621.16 739.82C1626.52 743.343 1633.39 745.105 1641.75 745.105C1649.98 745.105 1656.58 743.527 1661.58 740.37C1666.64 737.14 1669.21 732.992 1669.28 727.927C1669.21 723.669 1667.41 720.182 1663.89 717.466C1660.36 714.676 1654.93 712.547 1647.59 711.079L1618.3 705.243C1601.78 701.939 1589.49 696.213 1581.41 688.065C1573.41 679.916 1569.41 669.528 1569.41 656.902C1569.41 646.037 1572.34 636.677 1578.22 628.822C1584.16 620.967 1592.5 614.911 1603.21 610.653C1614.01 606.395 1626.63 604.266 1641.09 604.266C1662.46 604.266 1679.27 608.781 1691.53 617.81C1703.86 626.84 1711.05 639.136 1713.11 654.699Z" fill="#E0E0E0"/>
<g clip-path="url(#clip0_758_155)">
<path fill-rule="evenodd" clip-rule="evenodd" d="M583.37 127.002C786.814 127.002 889.108 235.855 889.108 235.855C889.108 235.855 900.804 316.428 893.339 478.665C882.063 723.741 583.441 870.924 583.415 870.939C583.39 870.952 284.771 723.741 273.491 478.665C266.024 316.428 277.722 235.855 277.722 235.855C277.722 235.855 379.923 127.002 583.37 127.002Z" fill="#ED2E26"/>
<path fill-rule="evenodd" clip-rule="evenodd" d="M430.708 449.158C430.708 362.503 499.213 292.006 583.416 292.006C667.691 292.006 736.251 360.567 736.251 444.838C736.251 512.117 678.419 567.468 633.845 595.912C651.137 605.777 689.3 616.138 725.838 619.486C779.193 578.194 811.734 514.364 811.734 444.838C811.734 318.945 709.312 216.523 583.416 216.523C457.523 216.523 355.102 318.945 355.102 444.838C355.102 520.874 386.761 588.42 446.655 640.181C502.652 688.569 584.564 720.869 677.825 736.161C698.031 724.996 732.586 692.031 745.546 672.734C667.655 662.717 593.939 643.722 544.523 617.798C469.003 578.184 430.708 521.442 430.708 449.158Z" fill="white"/>
</g>
<defs>
<clipPath id="clip0_758_155">
<rect width="624.366" height="746.193" fill="white" transform="translate(271 127)"/>
</clipPath>
</defs>
</svg>
