<svg width="2000" height="1000" viewBox="0 0 2000 1000" fill="none" xmlns="http://www.w3.org/2000/svg">
<path d="M119.032 431.235V415.116C119.032 367.413 157.703 328.739 205.408 328.739C253.112 328.739 291.784 367.413 291.784 415.116V431.235C303.017 435.057 313.917 439.598 324.424 444.813V415.259C324.424 349.528 271.139 296.242 205.408 296.242C139.677 296.242 86.3906 349.528 86.3906 415.259V444.812C96.8985 439.598 107.799 435.057 119.032 431.235Z" fill="#609CEC"/>
<path d="M205.412 419.936C156.577 419.936 110.795 432.998 71.3594 455.812V455.813C71.3594 555.047 125.278 641.685 205.412 688.041C285.548 641.685 339.465 555.047 339.465 455.812C300.03 432.998 254.249 419.936 205.412 419.936ZM165.88 621.518C158.141 621.606 152.384 615.884 152.379 608.101C152.375 600.494 157.991 594.874 165.606 594.863C173.244 594.853 178.886 600.431 178.908 608.014C178.929 615.678 173.378 621.434 165.88 621.518ZM245.328 621.518C237.793 621.447 232.262 615.752 232.267 608.073C232.274 600.438 237.846 594.871 245.491 594.863C253.104 594.856 258.774 600.476 258.789 608.042C258.804 615.805 253.024 621.59 245.328 621.518ZM283.748 514.475C281.667 526.431 279.553 538.382 277.569 550.354C276.236 558.399 274.035 560.421 265.994 560.428C252.936 560.441 239.879 560.432 226.821 560.432C207.361 560.432 187.9 560.407 168.439 560.491C167.159 560.496 164.972 561.076 164.76 561.828C163.834 565.113 163.481 568.56 162.861 572.311C164.887 572.311 166.375 572.311 167.863 572.311C198.623 572.311 229.383 572.274 260.144 572.387C262.395 572.395 264.923 573.02 266.829 574.173C269.978 576.077 270.986 580.304 269.827 583.904C268.702 587.393 265.354 589.659 261.018 589.666C242.31 589.696 223.603 589.679 204.895 589.679C187.82 589.679 170.745 589.695 153.669 589.671C146.42 589.66 142.593 584.993 143.955 577.937C144.192 576.707 144.449 575.478 144.608 574.238C145.747 565.34 148.916 556.718 147.822 547.508C146.655 537.677 145.831 527.806 144.832 517.953C143.718 506.98 142.524 496.015 141.496 485.034C141.3 482.945 140.451 482.015 138.497 481.448C133.574 480.022 128.768 478.154 123.805 476.906C119.631 475.857 116.571 473.785 114.8 469.862C114.8 468.355 114.8 466.848 114.8 465.341C118.382 459.197 121.619 457.902 128.477 460.036C135.995 462.375 143.475 464.842 150.995 467.178C155.184 468.479 157.421 471.215 157.882 475.572C158.365 480.136 159.002 484.683 159.575 489.266C174.754 490.923 189.576 492.52 204.392 494.163C226.433 496.608 248.469 499.106 270.513 501.533C276.178 502.157 281.932 502.474 284.331 509.043C284.331 510.549 284.331 512.056 284.331 513.563C284.13 513.866 283.805 514.147 283.748 514.475Z" fill="#609CEC"/>
<path d="M386.982 606.896C398.969 613.036 417.388 619.176 436.393 619.176C456.859 619.176 467.676 610.697 467.676 597.833C467.676 585.553 458.321 578.536 434.638 570.057C401.893 558.655 380.549 540.528 380.549 511.875C380.549 478.252 408.617 452.523 455.104 452.523C477.325 452.523 493.698 457.201 505.393 462.464L495.452 498.426C487.558 494.625 473.524 489.07 454.227 489.07C434.931 489.07 425.575 497.841 425.575 508.074C425.575 520.646 436.685 526.201 462.121 535.85C496.914 548.714 513.287 566.841 513.287 594.617C513.287 627.655 487.85 655.723 433.761 655.723C411.248 655.723 389.028 649.875 377.918 643.735L386.982 606.896Z" fill="white" stroke="#609CEC" stroke-width="8.77118" stroke-miterlimit="10" stroke-linejoin="bevel"/>
<path d="M539.599 606.896C551.586 613.036 570.005 619.176 589.01 619.176C609.476 619.176 620.294 610.697 620.294 597.833C620.294 585.553 610.938 578.536 587.255 570.057C554.51 558.655 533.167 540.528 533.167 511.875C533.167 478.252 561.234 452.523 607.722 452.523C629.942 452.523 646.315 457.201 658.01 462.464L648.069 498.426C640.175 494.625 626.141 489.07 606.844 489.07C587.548 489.07 578.192 497.841 578.192 508.074C578.192 520.646 589.302 526.201 614.739 535.85C649.531 548.714 665.904 566.841 665.904 594.617C665.904 627.655 640.467 655.723 586.378 655.723C563.866 655.723 541.645 649.875 530.535 643.735L539.599 606.896Z" fill="white" stroke="#609CEC" stroke-width="8.77118" stroke-miterlimit="10" stroke-linejoin="bevel"/>
<path d="M690.75 455.74H735.483V615.376H813.839V652.8H690.75V455.74Z" fill="white" stroke="#609CEC" stroke-width="8.77118" stroke-miterlimit="10" stroke-linejoin="bevel"/>
<path d="M863.712 606.896C875.699 613.036 894.119 619.176 913.123 619.176C933.589 619.176 944.407 610.697 944.407 597.833C944.407 585.553 935.051 578.536 911.369 570.057C878.623 558.655 857.28 540.528 857.28 511.875C857.28 478.252 885.348 452.523 931.835 452.523C954.055 452.523 970.428 457.201 982.123 462.464L972.182 498.426C964.288 494.625 950.254 489.07 930.958 489.07C911.661 489.07 902.305 497.841 902.305 508.074C902.305 520.646 913.415 526.201 938.852 535.85C973.644 548.714 990.017 566.841 990.017 594.617C990.017 627.655 964.581 655.723 910.492 655.723C887.979 655.723 865.759 649.875 854.648 643.735L863.712 606.896Z" fill="#609CEC"/>
<path d="M1012.25 445.217H1056.69V526.789H1057.28C1061.95 520.649 1067.8 515.971 1074.82 512.17C1081.25 508.662 1089.73 506.615 1097.92 506.615C1126.28 506.615 1147.91 526.204 1147.91 569.183V652.802H1103.47V574.153C1103.47 555.441 1097.04 542.577 1080.37 542.577C1068.68 542.577 1061.37 550.179 1058.15 558.073C1056.98 560.996 1056.69 564.797 1056.69 568.013V652.802H1012.25V445.217Z" fill="#609CEC"/>
<path d="M1319.52 579.705C1319.52 632.039 1282.39 656.014 1244.09 656.014C1202.28 656.014 1170.12 628.531 1170.12 582.336C1170.12 536.141 1200.52 506.611 1246.43 506.611C1290.28 506.611 1319.52 536.726 1319.52 579.705ZM1216.02 581.166C1216.02 605.726 1226.25 624.145 1245.26 624.145C1262.51 624.145 1273.62 606.895 1273.62 581.166C1273.62 559.823 1265.43 538.188 1245.26 538.188C1223.91 538.188 1216.02 560.116 1216.02 581.166Z" fill="#609CEC"/>
<path d="M1341.74 557.777C1341.74 539.065 1341.16 522.984 1340.57 509.827H1379.17L1381.21 529.709H1381.8C1392.32 514.505 1408.7 506.611 1429.46 506.611C1460.74 506.611 1488.81 533.802 1488.81 579.412C1488.81 631.455 1455.77 656.014 1423.9 656.014C1406.65 656.014 1393.2 648.997 1386.77 639.641H1386.18V710.688H1341.74V557.777ZM1386.18 591.399C1386.18 594.908 1386.48 598.124 1387.06 600.755C1389.99 612.743 1400.22 621.806 1413.08 621.806C1432.38 621.806 1443.78 605.726 1443.78 581.459C1443.78 558.654 1433.55 541.404 1413.67 541.404C1401.1 541.404 1389.99 550.76 1387.06 563.916C1386.48 566.255 1386.18 569.179 1386.18 571.81V591.399Z" fill="#609CEC"/>
<path d="M1511.31 557.777C1511.31 539.065 1510.73 522.984 1510.14 509.827H1548.73L1550.78 529.709H1551.37C1561.89 514.505 1578.26 506.611 1599.02 506.611C1630.31 506.611 1658.37 533.802 1658.37 579.412C1658.37 631.455 1625.34 656.014 1593.47 656.014C1576.22 656.014 1562.77 648.997 1556.34 639.641H1555.75V710.688H1511.31V557.777ZM1555.75 591.399C1555.75 594.908 1556.04 598.124 1556.63 600.755C1559.55 612.743 1569.78 621.806 1582.65 621.806C1601.95 621.806 1613.35 605.726 1613.35 581.459C1613.35 558.654 1603.12 541.404 1583.23 541.404C1570.66 541.404 1559.55 550.76 1556.63 563.916C1556.04 566.255 1555.75 569.179 1555.75 571.81V591.399Z" fill="#609CEC"/>
<path d="M1715.97 595.493C1717.43 613.912 1735.56 622.683 1756.32 622.683C1771.52 622.683 1783.8 620.637 1795.79 616.836L1801.64 646.95C1787.02 652.798 1769.18 655.722 1749.89 655.722C1701.35 655.722 1673.58 627.654 1673.58 582.921C1673.58 546.666 1696.09 506.611 1745.79 506.611C1791.99 506.611 1809.53 542.573 1809.53 577.95C1809.53 585.552 1808.65 592.277 1808.07 595.493H1715.97ZM1768.31 565.086C1768.31 554.268 1763.63 536.141 1743.16 536.141C1724.45 536.141 1716.85 553.099 1715.68 565.086H1768.31Z" fill="#609CEC"/>
<path d="M1830.88 556.899C1830.88 535.849 1830.29 522.107 1829.71 509.827H1868.01L1869.47 536.141H1870.64C1877.95 515.383 1895.49 506.611 1909.23 506.611C1913.33 506.611 1915.37 506.611 1918.59 507.196V549.005C1915.37 548.421 1911.57 547.836 1906.6 547.836C1890.23 547.836 1879.12 556.607 1876.19 570.349C1875.61 573.272 1875.32 576.781 1875.32 580.289V652.798H1830.88V556.899Z" fill="#609CEC"/>
<path d="M1946.44 92.1884C1946.53 95.377 1948.89 97.8538 1951.88 98.3913V98.5H1953.1V98.3683C1954.34 98.0846 1955.28 97.3586 1955.92 96.3447C1956.72 95.0857 1957 93.4568 1957 91.8459V70C1957 63.3977 1951.6 58 1945 58H1925.66C1923.93 58 1921.72 58.6474 1919.94 59.6836C1918.21 60.6841 1916.5 62.286 1916.5 64.3734V64.3899C1916.5 66.3105 1917.62 67.9639 1919.03 69.1051C1920.45 70.2505 1922.3 71.0011 1924.07 71.049L1924.07 71.049L1932.5 71.2746L1932.51 71.2746C1934.05 71.3132 1934.8 73.1865 1933.71 74.2824L1933.71 74.2831L1901.88 106.27C1901.88 106.27 1901.88 106.27 1901.88 106.27C1899.33 108.824 1899.44 112.939 1901.96 115.461C1904.5 117.996 1908.69 118.002 1911.23 115.461L1943.22 83.4782C1944.31 82.3821 1946.19 83.1272 1946.23 84.6761L1946.44 92.1873L1946.44 92.1884ZM1957 158.083V130.56C1957 126.966 1954.09 124.06 1950.5 124.06C1946.91 124.06 1944 126.967 1944 130.56V152.56C1944 154.149 1943.98 155.288 1943.68 156.053C1943.55 156.392 1943.38 156.598 1943.16 156.733C1942.94 156.875 1942.57 157 1941.94 157H1870.42C1867.63 157 1864.49 155.873 1862.04 154.018C1859.59 152.158 1858 149.691 1858 147.083V75.5604C1858 74.5778 1858.83 73.4486 1860.36 72.4862C1861.85 71.5541 1863.65 71 1864.94 71H1886.94C1890.53 71 1893.44 68.0944 1893.44 64.5C1893.44 60.9117 1890.53 58 1886.94 58H1859.42C1856.14 58 1852.58 59.3343 1849.83 61.4522C1847.08 63.5652 1845 66.5868 1845 70.0386V158.083C1845 161.535 1847.09 164.527 1849.83 166.611C1852.58 168.699 1856.15 170 1859.42 170H1947.46C1950.8 170 1953.25 168.64 1954.82 166.387C1956.36 164.185 1957 161.226 1957 158.083Z" fill="white" stroke="white" stroke-width="2"/>
</svg>
