<svg width="2000" height="1000" viewBox="0 0 2000 1000" fill="none" xmlns="http://www.w3.org/2000/svg">
<path d="M153.067 361.58V346.085C153.067 300.225 190.244 263.046 236.105 263.046C281.966 263.046 319.143 300.225 319.143 346.085V361.58C329.942 365.254 340.421 369.62 350.522 374.633V346.222C350.522 283.031 299.296 231.805 236.105 231.805C172.914 231.805 121.688 283.031 121.688 346.222V374.633C131.789 369.62 142.268 365.254 153.067 361.58Z" fill="#609CEC"/>
<path d="M236.107 350.717C189.158 350.717 145.146 363.275 107.234 385.207V385.207C107.234 480.607 159.069 563.896 236.107 608.461C313.145 563.896 364.979 480.607 364.979 385.207C327.068 363.275 283.055 350.717 236.107 350.717ZM198.102 544.509C190.662 544.593 185.128 539.093 185.123 531.61C185.119 524.297 190.518 518.894 197.838 518.884C205.182 518.875 210.605 524.236 210.627 531.526C210.647 538.894 205.31 544.428 198.102 544.509ZM274.479 544.509C267.236 544.44 261.918 538.965 261.924 531.583C261.93 524.243 267.287 518.891 274.636 518.884C281.955 518.877 287.406 524.28 287.42 531.554C287.435 539.016 281.878 544.578 274.479 544.509ZM311.415 441.603C309.414 453.096 307.382 464.585 305.475 476.095C304.193 483.829 302.077 485.773 294.347 485.78C281.794 485.792 269.241 485.783 256.688 485.783C237.98 485.783 219.271 485.759 200.562 485.84C199.331 485.845 197.23 486.403 197.026 487.125C196.135 490.284 195.796 493.597 195.2 497.203C197.148 497.203 198.578 497.203 200.008 497.203C229.579 497.203 259.151 497.168 288.723 497.276C290.887 497.284 293.317 497.885 295.149 498.993C298.177 500.824 299.146 504.888 298.032 508.348C296.951 511.702 293.732 513.881 289.563 513.888C271.578 513.916 253.594 513.9 235.609 513.9C219.194 513.9 202.779 513.916 186.363 513.892C179.394 513.882 175.715 509.396 177.024 502.612C177.252 501.429 177.499 500.248 177.652 499.056C178.747 490.501 181.794 482.213 180.742 473.359C179.62 463.908 178.828 454.418 177.867 444.946C176.797 434.397 175.649 423.856 174.661 413.299C174.472 411.291 173.656 410.397 171.777 409.852C167.045 408.481 162.424 406.685 157.653 405.485C153.64 404.477 150.699 402.485 148.996 398.714C148.996 397.265 148.996 395.816 148.996 394.368C152.439 388.461 155.552 387.216 162.145 389.267C169.372 391.516 176.563 393.887 183.793 396.133C187.819 397.385 189.97 400.015 190.414 404.203C190.877 408.591 191.49 412.962 192.04 417.368C206.633 418.961 220.882 420.496 235.126 422.076C256.315 424.426 277.499 426.828 298.691 429.161C304.138 429.761 309.669 430.065 311.975 436.38C311.975 437.829 311.975 439.277 311.975 440.726C311.782 441.017 311.47 441.288 311.415 441.603Z" fill="#609CEC"/>
<path d="M410.651 530.454C422.175 536.356 439.882 542.259 458.152 542.259C477.827 542.259 488.227 534.108 488.227 521.74C488.227 509.935 479.233 503.19 456.466 495.038C424.986 484.077 404.467 466.65 404.467 439.105C404.467 406.781 431.45 382.047 476.141 382.047C497.502 382.047 513.243 386.544 524.486 391.603L514.929 426.175C507.34 422.521 493.849 417.181 475.298 417.181C456.747 417.181 447.752 425.613 447.752 435.451C447.752 447.537 458.433 452.877 482.887 462.153C516.334 474.52 532.074 491.947 532.074 518.649C532.074 550.41 507.621 577.393 455.623 577.393C433.98 577.393 412.618 571.771 401.938 565.869L410.651 530.454Z" fill="white" stroke="#609CEC" stroke-width="8.4322" stroke-miterlimit="10" stroke-linejoin="bevel"/>
<path d="M557.37 530.454C568.894 536.356 586.601 542.259 604.871 542.259C624.546 542.259 634.946 534.108 634.946 521.74C634.946 509.935 625.951 503.19 603.184 495.038C571.704 484.077 551.186 466.65 551.186 439.105C551.186 406.781 578.169 382.047 622.86 382.047C644.221 382.047 659.961 386.544 671.204 391.603L661.648 426.175C654.059 422.521 640.567 417.181 622.016 417.181C603.466 417.181 594.471 425.613 594.471 435.451C594.471 447.537 605.152 452.877 629.605 462.153C663.053 474.52 678.793 491.947 678.793 518.649C678.793 550.41 654.34 577.393 602.341 577.393C580.699 577.393 559.337 571.771 548.656 565.869L557.37 530.454Z" fill="white" stroke="#609CEC" stroke-width="8.4322" stroke-miterlimit="10" stroke-linejoin="bevel"/>
<path d="M702.68 385.141H745.684V538.607H821.012V574.584H702.68V385.141Z" fill="white" stroke="#609CEC" stroke-width="8.4322" stroke-miterlimit="10" stroke-linejoin="bevel"/>
<path d="M868.955 530.454C880.479 536.356 898.187 542.259 916.457 542.259C936.132 542.259 946.532 534.108 946.532 521.74C946.532 509.935 937.537 503.19 914.77 495.038C883.29 484.077 862.772 466.65 862.772 439.105C862.772 406.781 889.755 382.047 934.446 382.047C955.807 382.047 971.547 386.544 982.79 391.603L973.234 426.175C965.645 422.521 952.153 417.181 933.602 417.181C915.052 417.181 906.057 425.613 906.057 435.451C906.057 447.537 916.738 452.877 941.191 462.153C974.639 474.52 990.379 491.947 990.379 518.649C990.379 550.41 965.926 577.393 913.927 577.393C892.285 577.393 870.923 571.771 860.242 565.869L868.955 530.454Z" fill="#609CEC"/>
<path d="M1011.75 375.023H1054.48V453.443H1055.04C1059.54 447.54 1065.16 443.043 1071.9 439.389C1078.09 436.016 1086.24 434.049 1094.11 434.049C1121.37 434.049 1142.17 452.881 1142.17 494.199V574.586H1099.45V498.977C1099.45 480.988 1093.27 468.621 1077.24 468.621C1066 468.621 1058.97 475.929 1055.88 483.518C1054.76 486.329 1054.48 489.982 1054.48 493.074V574.586H1011.75V375.023Z" fill="#609CEC"/>
<path d="M1307.15 504.313C1307.15 554.625 1271.45 577.673 1234.63 577.673C1194.44 577.673 1163.52 551.253 1163.52 506.843C1163.52 462.433 1192.75 434.045 1236.88 434.045C1279.04 434.045 1307.15 462.995 1307.15 504.313ZM1207.65 505.719C1207.65 529.329 1217.49 547.036 1235.76 547.036C1252.34 547.036 1263.02 530.453 1263.02 505.719C1263.02 485.2 1255.15 464.401 1235.76 464.401C1215.24 464.401 1207.65 485.481 1207.65 505.719Z" fill="#609CEC"/>
<path d="M1328.51 483.233C1328.51 465.244 1327.95 449.785 1327.39 437.137H1364.49L1366.46 456.25H1367.02C1377.14 441.634 1392.88 434.045 1412.84 434.045C1442.91 434.045 1469.89 460.185 1469.89 504.032C1469.89 554.063 1438.13 577.673 1407.5 577.673C1390.91 577.673 1377.98 570.928 1371.8 561.933H1371.24V630.234H1328.51V483.233ZM1371.24 515.556C1371.24 518.929 1371.52 522.021 1372.08 524.551C1374.89 536.075 1384.73 544.788 1397.1 544.788C1415.65 544.788 1426.61 529.329 1426.61 506C1426.61 484.076 1416.77 467.493 1397.66 467.493C1385.57 467.493 1374.89 476.487 1372.08 489.135C1371.52 491.384 1371.24 494.195 1371.24 496.724V515.556Z" fill="#609CEC"/>
<path d="M1491.53 483.233C1491.53 465.244 1490.97 449.785 1490.41 437.137H1527.51L1529.48 456.25H1530.04C1540.16 441.634 1555.9 434.045 1575.85 434.045C1605.93 434.045 1632.91 460.185 1632.91 504.032C1632.91 554.063 1601.15 577.673 1570.51 577.673C1553.93 577.673 1541 570.928 1534.82 561.933H1534.25V630.234H1491.53V483.233ZM1534.25 515.556C1534.25 518.929 1534.53 522.021 1535.1 524.551C1537.91 536.075 1547.75 544.788 1560.11 544.788C1578.66 544.788 1589.63 529.329 1589.63 506C1589.63 484.076 1579.79 467.493 1560.67 467.493C1548.59 467.493 1537.91 476.487 1535.1 489.135C1534.53 491.384 1534.25 494.195 1534.25 496.724V515.556Z" fill="#609CEC"/>
<path d="M1688.28 519.491C1689.68 537.199 1707.11 545.631 1727.07 545.631C1741.68 545.631 1753.49 543.664 1765.01 540.01L1770.63 568.96C1756.58 574.582 1739.43 577.392 1720.88 577.392C1674.23 577.392 1647.52 550.409 1647.52 507.405C1647.52 472.552 1669.17 434.045 1716.95 434.045C1761.36 434.045 1778.22 468.617 1778.22 502.627C1778.22 509.935 1777.38 516.399 1776.82 519.491H1688.28ZM1738.59 490.26C1738.59 479.86 1734.09 462.433 1714.42 462.433C1696.43 462.433 1689.12 478.736 1688 490.26H1738.59Z" fill="#609CEC"/>
<path d="M1798.74 482.39C1798.74 462.152 1798.18 448.942 1797.62 437.137H1834.44L1835.84 462.433H1836.97C1843.99 442.477 1860.86 434.045 1874.07 434.045C1878 434.045 1879.97 434.045 1883.06 434.607V474.801C1879.97 474.238 1876.32 473.676 1871.54 473.676C1855.8 473.676 1845.12 482.108 1842.31 495.319C1841.75 498.13 1841.46 501.503 1841.46 504.875V574.582H1798.74V482.39Z" fill="#609CEC"/>
<path d="M421.551 680.52L439.346 736.456H440.029L457.859 680.52H475.114L449.735 754.143H429.676L404.26 680.52H421.551ZM502.624 755.221C496.944 755.221 492.055 754.071 487.957 751.77C483.883 749.445 480.743 746.162 478.538 741.92C476.333 737.654 475.231 732.61 475.231 726.786C475.231 721.106 476.333 716.121 478.538 711.831C480.743 707.542 483.847 704.198 487.849 701.802C491.875 699.405 496.596 698.207 502.013 698.207C505.655 698.207 509.046 698.794 512.186 699.968C515.349 701.119 518.105 702.856 520.454 705.181C522.827 707.506 524.672 710.429 525.99 713.952C527.308 717.451 527.967 721.549 527.967 726.247V730.453H481.342V720.962H513.552C513.552 718.757 513.073 716.804 512.114 715.103C511.155 713.401 509.825 712.071 508.124 711.112C506.446 710.13 504.493 709.639 502.264 709.639C499.94 709.639 497.878 710.178 496.081 711.256C494.308 712.311 492.918 713.737 491.911 715.534C490.904 717.308 490.389 719.285 490.365 721.466V730.489C490.365 733.221 490.869 735.581 491.875 737.57C492.906 739.56 494.356 741.093 496.225 742.172C498.094 743.25 500.311 743.789 502.875 743.789C504.577 743.789 506.135 743.55 507.549 743.071C508.963 742.591 510.173 741.872 511.179 740.914C512.186 739.955 512.953 738.781 513.48 737.391L527.644 738.325C526.925 741.728 525.451 744.7 523.222 747.241C521.017 749.757 518.165 751.722 514.666 753.136C511.191 754.526 507.177 755.221 502.624 755.221ZM537.961 754.143V698.926H552.807V708.56H553.383C554.389 705.133 556.079 702.545 558.451 700.795C560.824 699.022 563.556 698.135 566.648 698.135C567.414 698.135 568.241 698.183 569.128 698.279C570.015 698.375 570.794 698.507 571.465 698.674V712.263C570.746 712.047 569.751 711.855 568.481 711.688C567.211 711.52 566.048 711.436 564.994 711.436C562.741 711.436 560.728 711.927 558.955 712.91C557.205 713.868 555.815 715.211 554.785 716.936C553.778 718.662 553.275 720.651 553.275 722.904V754.143H537.961ZM579.382 754.143V698.926H594.696V754.143H579.382ZM587.075 691.808C584.798 691.808 582.845 691.053 581.216 689.543C579.61 688.01 578.807 686.176 578.807 684.043C578.807 681.934 579.61 680.125 581.216 678.615C582.845 677.081 584.798 676.314 587.075 676.314C589.352 676.314 591.293 677.081 592.899 678.615C594.528 680.125 595.343 681.934 595.343 684.043C595.343 686.176 594.528 688.01 592.899 689.543C591.293 691.053 589.352 691.808 587.075 691.808ZM636.657 698.926V710.429H602.578V698.926H636.657ZM610.379 754.143V694.936C610.379 690.933 611.158 687.614 612.715 684.978C614.297 682.342 616.454 680.365 619.186 679.047C621.918 677.728 625.022 677.069 628.497 677.069C630.845 677.069 632.99 677.249 634.931 677.609C636.897 677.968 638.358 678.292 639.317 678.579L636.585 690.083C635.986 689.891 635.243 689.711 634.356 689.543C633.493 689.376 632.607 689.292 631.696 689.292C629.443 689.292 627.874 689.819 626.987 690.874C626.1 691.904 625.657 693.354 625.657 695.223V754.143H610.379ZM646.012 754.143V698.926H661.326V754.143H646.012ZM653.705 691.808C651.429 691.808 649.475 691.053 647.846 689.543C646.24 688.01 645.437 686.176 645.437 684.043C645.437 681.934 646.24 680.125 647.846 678.615C649.475 677.081 651.429 676.314 653.705 676.314C655.982 676.314 657.923 677.081 659.529 678.615C661.159 680.125 661.973 681.934 661.973 684.043C661.973 686.176 661.159 688.01 659.529 689.543C657.923 691.053 655.982 691.808 653.705 691.808ZM698.542 755.221C692.886 755.221 688.021 754.023 683.947 751.626C679.897 749.206 676.781 745.851 674.6 741.561C672.443 737.271 671.365 732.334 671.365 726.75C671.365 721.094 672.455 716.133 674.636 711.867C676.841 707.578 679.969 704.234 684.019 701.838C688.069 699.417 692.886 698.207 698.47 698.207C703.287 698.207 707.505 699.082 711.124 700.831C714.743 702.581 717.606 705.037 719.715 708.201C721.824 711.364 722.987 715.079 723.202 719.345H708.751C708.344 716.589 707.265 714.372 705.516 712.694C703.79 710.993 701.526 710.142 698.722 710.142C696.349 710.142 694.276 710.789 692.503 712.083C690.753 713.353 689.387 715.211 688.404 717.655C687.422 720.1 686.931 723.059 686.931 726.534C686.931 730.057 687.41 733.053 688.369 735.521C689.351 737.99 690.729 739.871 692.503 741.165C694.276 742.459 696.349 743.106 698.722 743.106C700.471 743.106 702.041 742.747 703.431 742.028C704.845 741.309 706.007 740.267 706.918 738.9C707.852 737.51 708.464 735.845 708.751 733.904H723.202C722.963 738.122 721.812 741.836 719.751 745.048C717.714 748.235 714.898 750.727 711.304 752.525C707.709 754.322 703.455 755.221 698.542 755.221ZM748.753 755.185C745.23 755.185 742.09 754.574 739.334 753.352C736.578 752.106 734.397 750.272 732.792 747.852C731.21 745.407 730.419 742.364 730.419 738.721C730.419 735.653 730.982 733.077 732.109 730.992C733.235 728.907 734.769 727.229 736.71 725.959C738.651 724.689 740.856 723.73 743.324 723.083C745.817 722.436 748.429 721.981 751.161 721.717C754.373 721.382 756.961 721.07 758.926 720.783C760.891 720.471 762.317 720.016 763.204 719.417C764.091 718.817 764.534 717.931 764.534 716.756V716.541C764.534 714.264 763.815 712.502 762.377 711.256C760.963 710.01 758.95 709.387 756.338 709.387C753.582 709.387 751.389 709.998 749.759 711.22C748.13 712.419 747.051 713.928 746.524 715.75L732.36 714.599C733.079 711.244 734.493 708.344 736.602 705.9C738.711 703.432 741.431 701.538 744.762 700.22C748.118 698.878 752 698.207 756.41 698.207C759.477 698.207 762.413 698.567 765.217 699.285C768.045 700.004 770.549 701.119 772.73 702.629C774.935 704.138 776.673 706.08 777.943 708.452C779.213 710.801 779.848 713.617 779.848 716.9V754.143H765.325V746.486H764.893C764.007 748.211 762.82 749.733 761.335 751.051C759.849 752.345 758.063 753.364 755.978 754.107C753.893 754.826 751.485 755.185 748.753 755.185ZM753.138 744.616C755.391 744.616 757.38 744.173 759.106 743.286C760.831 742.375 762.185 741.153 763.168 739.619C764.151 738.086 764.642 736.348 764.642 734.407V728.547C764.163 728.859 763.503 729.147 762.665 729.41C761.85 729.65 760.927 729.877 759.897 730.093C758.866 730.285 757.836 730.465 756.805 730.632C755.775 730.776 754.84 730.908 754.001 731.028C752.204 731.291 750.634 731.711 749.292 732.286C747.95 732.861 746.907 733.64 746.164 734.623C745.421 735.581 745.05 736.78 745.05 738.217C745.05 740.302 745.805 741.896 747.315 742.999C748.849 744.077 750.79 744.616 753.138 744.616ZM791.729 754.143V698.926H806.576V708.56H807.151C808.157 705.133 809.847 702.545 812.219 700.795C814.592 699.022 817.324 698.135 820.416 698.135C821.183 698.135 822.009 698.183 822.896 698.279C823.783 698.375 824.562 698.507 825.233 698.674V712.263C824.514 712.047 823.519 711.855 822.249 711.688C820.979 711.52 819.816 711.436 818.762 711.436C816.509 711.436 814.496 711.927 812.723 712.91C810.973 713.868 809.583 715.211 808.553 716.936C807.546 718.662 807.043 720.651 807.043 722.904V754.143H791.729ZM910.179 731.028L859.563 753.316V738.757L894.218 724.845L893.75 725.6V723.802L894.218 724.557L859.563 710.645V696.086L910.179 718.374V731.028Z" fill="#9E9E9E"/>
</svg>
