<svg width="3000" height="1000" viewBox="0 0 3000 1000" fill="none" xmlns="http://www.w3.org/2000/svg">
<path d="M181.088 282.535V258.188C181.088 186.134 239.5 127.719 311.557 127.719C383.613 127.719 442.025 186.134 442.025 258.188V282.535C458.992 288.308 475.456 295.167 491.327 303.044V258.404C491.327 159.119 410.841 78.6328 311.557 78.6328C212.272 78.6328 131.785 159.119 131.785 258.404V303.043C147.657 295.167 164.121 288.308 181.088 282.535Z" fill="#609CEC"/>
<path d="M311.561 265.467C237.796 265.467 168.644 285.197 109.078 319.657V319.658C109.078 469.549 190.52 600.411 311.561 670.432C432.602 600.411 514.043 469.549 514.043 319.657C454.478 285.197 385.326 265.467 311.561 265.467ZM251.848 569.95C240.159 570.083 231.463 561.441 231.455 549.684C231.449 538.194 239.932 529.705 251.434 529.69C262.972 529.675 271.493 538.099 271.527 549.553C271.559 561.129 263.173 569.824 251.848 569.95ZM371.851 569.95C360.471 569.843 352.116 561.241 352.124 549.642C352.134 538.109 360.551 529.701 372.098 529.69C383.597 529.678 392.162 538.168 392.184 549.596C392.207 561.321 383.477 570.06 371.851 569.95ZM429.885 408.266C426.74 426.324 423.548 444.376 420.552 462.459C418.537 474.612 415.213 477.665 403.067 477.676C383.344 477.696 363.621 477.682 343.898 477.682C314.504 477.682 285.109 477.644 255.713 477.771C253.78 477.779 250.478 478.655 250.157 479.79C248.758 484.753 248.225 489.959 247.288 495.625C250.349 495.625 252.597 495.625 254.844 495.625C301.305 495.625 347.768 495.569 394.231 495.74C397.631 495.752 401.449 496.695 404.328 498.437C409.084 501.314 410.608 507.699 408.857 513.135C407.158 518.405 402.101 521.829 395.551 521.839C367.293 521.884 339.037 521.859 310.779 521.859C284.988 521.859 259.196 521.883 233.405 521.846C222.454 521.83 216.674 514.781 218.731 504.122C219.089 502.265 219.478 500.408 219.717 498.536C221.439 485.095 226.225 472.071 224.573 458.161C222.81 443.311 221.565 428.401 220.055 413.519C218.374 396.945 216.57 380.382 215.017 363.796C214.721 360.64 213.439 359.236 210.487 358.38C203.051 356.226 195.792 353.404 188.295 351.518C181.99 349.934 177.369 346.805 174.693 340.88C174.693 338.603 174.693 336.326 174.693 334.05C180.104 324.77 184.994 322.814 195.353 326.037C206.709 329.571 218.006 333.296 229.366 336.825C235.692 338.791 239.071 342.923 239.768 349.504C240.497 356.398 241.459 363.266 242.324 370.188C265.252 372.691 287.641 375.103 310.019 377.585C343.312 381.278 376.596 385.051 409.893 388.718C418.45 389.66 427.141 390.138 430.764 400.06C430.764 402.336 430.764 404.612 430.764 406.888C430.461 407.346 429.97 407.771 429.885 408.266Z" fill="#609CEC"/>
<path d="M585.807 547.869C603.914 557.143 631.736 566.417 660.441 566.417C691.354 566.417 707.694 553.61 707.694 534.178C707.694 515.63 693.563 505.031 657.791 492.224C608.33 475.001 576.092 447.621 576.092 404.342C576.092 353.556 618.487 314.693 688.705 314.693C722.268 314.693 746.999 321.759 764.663 329.708L749.648 384.028C737.725 378.287 716.527 369.896 687.38 369.896C658.233 369.896 644.101 383.144 644.101 398.601C644.101 417.591 660.883 425.981 699.304 440.555C751.856 459.986 776.587 487.367 776.587 529.32C776.587 579.224 738.166 621.619 656.467 621.619C622.462 621.619 588.899 612.787 572.117 603.513L585.807 547.869Z" fill="white" stroke="#609CEC" stroke-width="13.2486" stroke-miterlimit="10" stroke-linejoin="bevel"/>
<path d="M816.331 547.869C834.437 557.143 862.259 566.417 890.965 566.417C921.878 566.417 938.218 553.61 938.218 534.178C938.218 515.63 924.086 505.031 888.315 492.224C838.853 475.001 806.615 447.621 806.615 404.342C806.615 353.556 849.011 314.693 919.228 314.693C952.791 314.693 977.522 321.759 995.187 329.708L980.172 384.028C968.248 378.287 947.05 369.896 917.903 369.896C888.756 369.896 874.625 383.144 874.625 398.601C874.625 417.591 891.406 425.981 929.827 440.555C982.38 459.986 1007.11 487.367 1007.11 529.32C1007.11 579.224 968.69 621.619 886.99 621.619C852.985 621.619 819.422 612.787 802.641 603.513L816.331 547.869Z" fill="white" stroke="#609CEC" stroke-width="13.2486" stroke-miterlimit="10" stroke-linejoin="bevel"/>
<path d="M1044.64 319.555H1112.21V560.679H1230.56V617.206H1044.64V319.555Z" fill="white" stroke="#609CEC" stroke-width="13.2486" stroke-miterlimit="10" stroke-linejoin="bevel"/>
<path d="M1305.89 547.869C1324 557.143 1351.82 566.417 1380.53 566.417C1411.44 566.417 1427.78 553.61 1427.78 534.178C1427.78 515.63 1413.65 505.031 1377.88 492.224C1328.42 475.001 1296.18 447.621 1296.18 404.342C1296.18 353.556 1338.57 314.693 1408.79 314.693C1442.35 314.693 1467.08 321.759 1484.75 329.708L1469.73 384.028C1457.81 378.287 1436.61 369.896 1407.47 369.896C1378.32 369.896 1364.19 383.144 1364.19 398.601C1364.19 417.591 1380.97 425.981 1419.39 440.555C1471.94 459.986 1496.67 487.367 1496.67 529.32C1496.67 579.224 1458.25 621.619 1376.55 621.619C1342.55 621.619 1308.98 612.787 1292.2 603.513L1305.89 547.869Z" fill="#609CEC"/>
<path d="M1530.25 303.658H1597.38V426.87H1598.26C1605.33 417.596 1614.16 410.53 1624.76 404.789C1634.48 399.49 1647.28 396.398 1659.65 396.398C1702.49 396.398 1735.17 425.987 1735.17 490.905V617.208H1668.04V498.412C1668.04 470.149 1658.32 450.718 1633.15 450.718C1615.49 450.718 1604.45 462.2 1599.59 474.123C1597.82 478.54 1597.38 484.281 1597.38 489.138V617.208H1530.25V303.658Z" fill="#609CEC"/>
<path d="M1994.37 506.797C1994.37 585.847 1938.29 622.06 1880.44 622.06C1817.29 622.06 1768.71 580.548 1768.71 510.772C1768.71 440.996 1814.64 396.393 1883.97 396.393C1950.21 396.393 1994.37 441.879 1994.37 506.797ZM1838.04 509.006C1838.04 546.102 1853.5 573.924 1882.2 573.924C1908.26 573.924 1925.04 547.868 1925.04 509.006C1925.04 476.767 1912.68 444.087 1882.2 444.087C1849.97 444.087 1838.04 477.209 1838.04 509.006Z" fill="#609CEC"/>
<path d="M2027.95 473.676C2027.95 445.412 2027.06 421.123 2026.18 401.25H2084.47L2087.56 431.281H2088.45C2104.35 408.316 2129.08 396.393 2160.43 396.393C2207.69 396.393 2250.08 437.463 2250.08 506.356C2250.08 584.964 2200.18 622.06 2152.04 622.06C2125.99 622.06 2105.67 611.461 2095.96 597.329H2095.07V704.643H2027.95V473.676ZM2095.07 524.462C2095.07 529.762 2095.51 534.62 2096.4 538.594C2100.81 556.7 2116.27 570.391 2135.7 570.391C2164.85 570.391 2182.07 546.102 2182.07 509.447C2182.07 475.001 2166.61 448.945 2136.58 448.945C2117.59 448.945 2100.81 463.077 2096.4 482.95C2095.51 486.483 2095.07 490.899 2095.07 494.874V524.462Z" fill="#609CEC"/>
<path d="M2284.07 473.676C2284.07 445.412 2283.19 421.123 2282.3 401.25H2340.6L2343.69 431.281H2344.57C2360.47 408.316 2385.2 396.393 2416.56 396.393C2463.81 396.393 2506.21 437.463 2506.21 506.356C2506.21 584.964 2456.3 622.06 2408.17 622.06C2382.11 622.06 2361.8 611.461 2352.08 597.329H2351.2V704.643H2284.07V473.676ZM2351.2 524.462C2351.2 529.762 2351.64 534.62 2352.52 538.594C2356.94 556.7 2372.4 570.391 2391.83 570.391C2420.97 570.391 2438.2 546.102 2438.2 509.447C2438.2 475.001 2422.74 448.945 2392.71 448.945C2373.72 448.945 2356.94 463.077 2352.52 482.95C2351.64 486.483 2351.2 490.899 2351.2 494.874V524.462Z" fill="#609CEC"/>
<path d="M2593.2 530.645C2595.41 558.467 2622.79 571.716 2654.15 571.716C2677.11 571.716 2695.66 568.624 2713.76 562.883L2722.6 608.37C2700.52 617.202 2673.58 621.619 2644.43 621.619C2571.12 621.619 2529.17 579.223 2529.17 511.655C2529.17 456.894 2563.17 396.393 2638.25 396.393C2708.02 396.393 2734.52 450.712 2734.52 504.148C2734.52 515.63 2733.2 525.787 2732.31 530.645H2593.2ZM2672.25 484.717C2672.25 468.377 2665.19 440.996 2634.27 440.996C2606.01 440.996 2594.53 466.61 2592.76 484.717H2672.25Z" fill="#609CEC"/>
<path d="M2766.76 472.351C2766.76 440.555 2765.88 419.798 2765 401.25H2822.85L2825.06 440.996H2826.82C2837.86 409.641 2864.36 396.393 2885.12 396.393C2891.3 396.393 2894.39 396.393 2899.25 397.276V460.427C2894.39 459.544 2888.65 458.661 2881.14 458.661C2856.41 458.661 2839.63 471.91 2835.21 492.666C2834.33 497.082 2833.89 502.381 2833.89 507.681V617.202H2766.76V472.351Z" fill="#609CEC"/>
<path d="M602.932 783.673L630.891 871.559H631.964L659.979 783.673H687.09L647.214 899.348H615.697L575.765 783.673H602.932ZM730.312 901.042C721.388 901.042 713.707 899.235 707.268 895.62C700.867 891.967 695.934 886.809 692.47 880.144C689.006 873.441 687.274 865.515 687.274 856.365C687.274 847.441 689.006 839.609 692.47 832.869C695.934 826.129 700.81 820.876 707.099 817.11C713.424 813.345 720.842 811.462 729.352 811.462C735.076 811.462 740.404 812.385 745.337 814.23C750.307 816.037 754.637 818.767 758.327 822.42C762.055 826.072 764.955 830.666 767.026 836.201C769.096 841.699 770.132 848.138 770.132 855.518V862.126H696.875V847.215H747.483C747.483 843.751 746.73 840.682 745.224 838.009C743.717 835.335 741.628 833.245 738.954 831.739C736.318 830.195 733.25 829.423 729.748 829.423C726.095 829.423 722.857 830.271 720.033 831.965C717.246 833.622 715.062 835.862 713.481 838.686C711.899 841.473 711.09 844.579 711.052 848.006V862.183C711.052 866.475 711.843 870.184 713.424 873.31C715.044 876.435 717.322 878.845 720.259 880.539C723.196 882.234 726.679 883.081 730.708 883.081C733.381 883.081 735.829 882.704 738.05 881.951C740.272 881.198 742.174 880.069 743.755 878.562C745.337 877.056 746.542 875.211 747.37 873.027L769.624 874.496C768.494 879.843 766.178 884.512 762.676 888.503C759.212 892.457 754.731 895.545 749.234 897.766C743.774 899.95 737.467 901.042 730.312 901.042ZM785.834 899.348V812.592H809.161V827.729H810.064C811.646 822.344 814.301 818.278 818.028 815.529C821.756 812.743 826.049 811.349 830.906 811.349C832.111 811.349 833.41 811.425 834.803 811.575C836.197 811.726 837.42 811.933 838.475 812.197V833.547C837.345 833.208 835.782 832.906 833.787 832.643C831.791 832.379 829.965 832.248 828.308 832.248C824.769 832.248 821.606 833.019 818.819 834.563C816.07 836.069 813.886 838.178 812.267 840.889C810.686 843.6 809.895 846.726 809.895 850.265V899.348H785.834ZM850.915 899.348V812.592H874.976V899.348H850.915ZM863.002 801.409C859.425 801.409 856.356 800.222 853.795 797.85C851.272 795.44 850.011 792.56 850.011 789.209C850.011 785.895 851.272 783.052 853.795 780.68C856.356 778.27 859.425 777.065 863.002 777.065C866.579 777.065 869.629 778.27 872.152 780.68C874.712 783.052 875.993 785.895 875.993 789.209C875.993 792.56 874.712 795.44 872.152 797.85C869.629 800.222 866.579 801.409 863.002 801.409ZM940.904 812.592V830.666H887.359V812.592H940.904ZM899.616 899.348V806.322C899.616 800.034 900.84 794.819 903.287 790.677C905.772 786.535 909.161 783.429 913.454 781.358C917.747 779.287 922.623 778.251 928.083 778.251C931.773 778.251 935.143 778.534 938.193 779.098C941.281 779.663 943.577 780.172 945.084 780.623L940.791 798.697C939.85 798.396 938.682 798.114 937.289 797.85C935.934 797.587 934.54 797.455 933.11 797.455C929.57 797.455 927.104 798.283 925.71 799.94C924.317 801.559 923.621 803.837 923.621 806.774V899.348H899.616ZM955.603 899.348V812.592H979.665V899.348H955.603ZM967.69 801.409C964.113 801.409 961.044 800.222 958.484 797.85C955.961 795.44 954.7 792.56 954.7 789.209C954.7 785.895 955.961 783.052 958.484 780.68C961.044 778.27 964.113 777.065 967.69 777.065C971.268 777.065 974.318 778.27 976.84 780.68C979.401 783.052 980.681 785.895 980.681 789.209C980.681 792.56 979.401 795.44 976.84 797.85C974.318 800.222 971.268 801.409 967.69 801.409ZM1038.14 901.042C1029.25 901.042 1021.61 899.159 1015.21 895.394C1008.84 891.591 1003.95 886.319 1000.52 879.579C997.131 872.839 995.437 865.082 995.437 856.309C995.437 847.422 997.15 839.628 1000.58 832.925C1004.04 826.185 1008.95 820.932 1015.32 817.167C1021.68 813.364 1029.25 811.462 1038.02 811.462C1045.59 811.462 1052.22 812.837 1057.91 815.585C1063.59 818.334 1068.09 822.194 1071.4 827.164C1074.72 832.135 1076.54 837.971 1076.88 844.673H1054.18C1053.54 840.343 1051.84 836.86 1049.09 834.224C1046.38 831.551 1042.83 830.214 1038.42 830.214C1034.69 830.214 1031.43 831.231 1028.65 833.264C1025.9 835.26 1023.75 838.178 1022.21 842.019C1020.67 845.86 1019.89 850.51 1019.89 855.97C1019.89 861.505 1020.65 866.212 1022.15 870.09C1023.7 873.969 1025.86 876.924 1028.65 878.958C1031.43 880.991 1034.69 882.008 1038.42 882.008C1041.17 882.008 1043.63 881.443 1045.82 880.313C1048.04 879.184 1049.87 877.546 1051.3 875.399C1052.77 873.216 1053.73 870.599 1054.18 867.549H1076.88C1076.51 874.176 1074.7 880.012 1071.46 885.058C1068.26 890.066 1063.84 893.982 1058.19 896.806C1052.54 899.63 1045.86 901.042 1038.14 901.042ZM1117.03 900.986C1111.49 900.986 1106.56 900.025 1102.23 898.105C1097.9 896.147 1094.47 893.266 1091.95 889.463C1089.46 885.623 1088.22 880.841 1088.22 875.117C1088.22 870.297 1089.11 866.249 1090.88 862.974C1092.65 859.698 1095.06 857.062 1098.11 855.066C1101.16 853.07 1104.62 851.564 1108.5 850.548C1112.42 849.531 1116.52 848.815 1120.81 848.401C1125.86 847.874 1129.92 847.385 1133.01 846.933C1136.1 846.443 1138.34 845.728 1139.73 844.786C1141.13 843.845 1141.82 842.452 1141.82 840.607V840.268C1141.82 836.691 1140.69 833.923 1138.43 831.965C1136.21 830.007 1133.05 829.028 1128.95 829.028C1124.62 829.028 1121.17 829.988 1118.61 831.909C1116.05 833.791 1114.35 836.164 1113.53 839.025L1091.27 837.218C1092.4 831.946 1094.62 827.39 1097.94 823.549C1101.25 819.671 1105.52 816.696 1110.76 814.625C1116.03 812.517 1122.13 811.462 1129.06 811.462C1133.88 811.462 1138.49 812.027 1142.9 813.157C1147.34 814.286 1151.27 816.037 1154.7 818.41C1158.17 820.782 1160.9 823.832 1162.89 827.56C1164.89 831.25 1165.88 835.674 1165.88 840.833V899.348H1143.07V887.317H1142.39C1140.99 890.028 1139.13 892.419 1136.8 894.49C1134.46 896.524 1131.66 898.124 1128.38 899.291C1125.1 900.421 1121.32 900.986 1117.03 900.986ZM1123.92 884.38C1127.46 884.38 1130.58 883.683 1133.29 882.29C1136.01 880.859 1138.13 878.939 1139.68 876.529C1141.22 874.119 1141.99 871.389 1141.99 868.339V859.133C1141.24 859.622 1140.2 860.074 1138.89 860.488C1137.61 860.865 1136.16 861.223 1134.54 861.561C1132.92 861.863 1131.3 862.145 1129.68 862.409C1128.06 862.635 1126.59 862.842 1125.27 863.03C1122.45 863.444 1119.98 864.103 1117.87 865.007C1115.77 865.911 1114.13 867.134 1112.96 868.678C1111.79 870.184 1111.21 872.067 1111.21 874.326C1111.21 877.602 1112.4 880.106 1114.77 881.838C1117.18 883.533 1120.23 884.38 1123.92 884.38ZM1184.55 899.348V812.592H1207.88V827.729H1208.78C1210.36 822.344 1213.02 818.278 1216.75 815.529C1220.47 812.743 1224.77 811.349 1229.62 811.349C1230.83 811.349 1232.13 811.425 1233.52 811.575C1234.91 811.726 1236.14 811.933 1237.19 812.197V833.547C1236.06 833.208 1234.5 832.906 1232.5 832.643C1230.51 832.379 1228.68 832.248 1227.03 832.248C1223.49 832.248 1220.32 833.019 1217.54 834.563C1214.79 836.069 1212.6 838.178 1210.98 840.889C1209.4 843.6 1208.61 846.726 1208.61 850.265V899.348H1184.55ZM1370.66 863.03L1291.13 898.049V875.174L1345.58 853.315L1344.85 854.501V851.677L1345.58 852.863L1291.13 831.005V808.13L1370.66 843.148V863.03Z" fill="#9E9E9E"/>
</svg>
