<svg width="3000" height="1000" viewBox="0 0 3000 1000" fill="none" xmlns="http://www.w3.org/2000/svg">
<path d="M170.088 396.88V372.534C170.088 300.479 228.5 242.065 300.557 242.065C372.613 242.065 431.025 300.479 431.025 372.534V396.88C447.992 402.653 464.456 409.513 480.327 417.389V372.749C480.327 273.465 399.841 192.979 300.557 192.979C201.272 192.979 120.785 273.465 120.785 372.749V417.388C136.657 409.513 153.121 402.653 170.088 396.88Z" fill="#609CEC"/>
<path d="M300.561 379.812C226.796 379.812 157.644 399.543 98.0781 434.003V434.004C98.0781 583.895 179.52 714.757 300.561 784.778C421.602 714.757 503.043 583.895 503.043 434.003C443.478 399.543 374.326 379.812 300.561 379.812ZM240.848 684.296C229.159 684.428 220.463 675.787 220.455 664.03C220.449 652.54 228.932 644.051 240.434 644.035C251.972 644.02 260.493 652.445 260.527 663.898C260.559 675.475 252.173 684.17 240.848 684.296ZM360.851 684.296C349.471 684.189 341.116 675.586 341.124 663.988C341.134 652.455 349.551 644.047 361.098 644.035C372.597 644.024 381.162 652.513 381.184 663.942C381.207 675.667 372.477 684.405 360.851 684.296ZM418.885 522.612C415.74 540.67 412.548 558.721 409.552 576.805C407.537 588.957 404.213 592.011 392.067 592.022C372.344 592.042 352.621 592.027 332.898 592.027C303.504 592.027 274.109 591.99 244.713 592.117C242.78 592.125 239.478 593.001 239.157 594.136C237.758 599.099 237.225 604.305 236.288 609.971C239.349 609.971 241.597 609.971 243.844 609.971C290.305 609.971 336.768 609.915 383.231 610.085C386.631 610.098 390.449 611.041 393.328 612.783C398.084 615.659 399.608 622.044 397.857 627.481C396.158 632.751 391.101 636.174 384.551 636.185C356.293 636.23 328.037 636.204 299.779 636.204C273.988 636.204 248.196 636.229 222.405 636.192C211.454 636.175 205.674 629.127 207.731 618.468C208.089 616.611 208.478 614.754 208.717 612.882C210.439 599.441 215.225 586.417 213.573 572.507C211.81 557.657 210.565 542.747 209.055 527.865C207.374 511.291 205.57 494.728 204.017 478.142C203.721 474.986 202.439 473.582 199.487 472.726C192.051 470.572 184.792 467.75 177.295 465.864C170.99 464.279 166.369 461.151 163.693 455.225C163.693 452.948 163.693 450.672 163.693 448.396C169.104 439.116 173.994 437.159 184.353 440.382C195.709 443.916 207.006 447.642 218.366 451.17C224.692 453.136 228.071 457.269 228.768 463.85C229.497 470.744 230.459 477.612 231.324 484.534C254.252 487.037 276.641 489.449 299.019 491.931C332.312 495.624 365.596 499.397 398.893 503.063C407.45 504.006 416.141 504.483 419.764 514.406C419.764 516.682 419.764 518.958 419.764 521.234C419.461 521.692 418.97 522.116 418.885 522.612Z" fill="#609CEC"/>
<path d="M574.807 662.214C592.914 671.488 620.736 680.762 649.441 680.762C680.354 680.762 696.694 667.955 696.694 648.524C696.694 629.976 682.563 619.377 646.791 606.57C597.33 589.347 565.092 561.967 565.092 518.688C565.092 467.902 607.487 429.039 677.705 429.039C711.268 429.039 735.999 436.105 753.663 444.054L738.648 498.373C726.725 492.632 705.527 484.242 676.38 484.242C647.233 484.242 633.101 497.49 633.101 512.947C633.101 531.936 649.883 540.327 688.304 554.901C740.856 574.332 765.587 601.712 765.587 643.666C765.587 693.569 727.166 735.965 645.467 735.965C611.462 735.965 577.899 727.132 561.117 717.858L574.807 662.214Z" fill="white" stroke="#609CEC" stroke-width="13.2486" stroke-miterlimit="10" stroke-linejoin="bevel"/>
<path d="M805.331 662.214C823.437 671.488 851.259 680.762 879.965 680.762C910.878 680.762 927.218 667.955 927.218 648.524C927.218 629.976 913.086 619.377 877.315 606.57C827.853 589.347 795.615 561.967 795.615 518.688C795.615 467.902 838.011 429.039 908.228 429.039C941.791 429.039 966.522 436.105 984.187 444.054L969.172 498.373C957.248 492.632 936.05 484.242 906.903 484.242C877.756 484.242 863.625 497.49 863.625 512.947C863.625 531.936 880.406 540.327 918.827 554.901C971.38 574.332 996.11 601.712 996.11 643.666C996.11 693.569 957.69 735.965 875.99 735.965C841.985 735.965 808.422 727.132 791.641 717.858L805.331 662.214Z" fill="white" stroke="#609CEC" stroke-width="13.2486" stroke-miterlimit="10" stroke-linejoin="bevel"/>
<path d="M1033.64 433.9H1101.21V675.025H1219.56V731.552H1033.64V433.9Z" fill="white" stroke="#609CEC" stroke-width="13.2486" stroke-miterlimit="10" stroke-linejoin="bevel"/>
<path d="M1294.89 662.214C1313 671.488 1340.82 680.762 1369.53 680.762C1400.44 680.762 1416.78 667.955 1416.78 648.524C1416.78 629.976 1402.65 619.377 1366.88 606.57C1317.42 589.347 1285.18 561.967 1285.18 518.688C1285.18 467.902 1327.57 429.039 1397.79 429.039C1431.35 429.039 1456.08 436.105 1473.75 444.054L1458.73 498.373C1446.81 492.632 1425.61 484.242 1396.47 484.242C1367.32 484.242 1353.19 497.49 1353.19 512.947C1353.19 531.936 1369.97 540.327 1408.39 554.901C1460.94 574.332 1485.67 601.712 1485.67 643.666C1485.67 693.569 1447.25 735.965 1365.55 735.965C1331.55 735.965 1297.98 727.132 1281.2 717.858L1294.89 662.214Z" fill="#609CEC"/>
<path d="M1519.25 418.004H1586.38V541.216H1587.26C1594.33 531.942 1603.16 524.876 1613.76 519.135C1623.48 513.835 1636.28 510.744 1648.65 510.744C1691.49 510.744 1724.17 540.333 1724.17 605.251V731.554H1657.04V612.758C1657.04 584.494 1647.32 565.063 1622.15 565.063C1604.49 565.063 1593.45 576.545 1588.59 588.469C1586.82 592.885 1586.38 598.626 1586.38 603.484V731.554H1519.25V418.004Z" fill="#609CEC"/>
<path d="M1983.37 621.143C1983.37 700.193 1927.29 736.406 1869.44 736.406C1806.29 736.406 1757.71 694.894 1757.71 625.118C1757.71 555.342 1803.64 510.738 1872.97 510.738C1939.21 510.738 1983.37 556.225 1983.37 621.143ZM1827.04 623.351C1827.04 660.447 1842.5 688.269 1871.2 688.269C1897.26 688.269 1914.04 662.214 1914.04 623.351C1914.04 591.113 1901.68 558.433 1871.2 558.433C1838.97 558.433 1827.04 591.555 1827.04 623.351Z" fill="#609CEC"/>
<path d="M2016.95 588.022C2016.95 559.758 2016.06 535.469 2015.18 515.596H2073.47L2076.56 545.626H2077.45C2093.35 522.662 2118.08 510.738 2149.43 510.738C2196.69 510.738 2239.08 551.809 2239.08 620.702C2239.08 699.31 2189.18 736.406 2141.04 736.406C2114.99 736.406 2094.67 725.807 2084.96 711.675H2084.07V818.989H2016.95V588.022ZM2084.07 638.808C2084.07 644.107 2084.51 648.965 2085.4 652.94C2089.81 671.046 2105.27 684.736 2124.7 684.736C2153.85 684.736 2171.07 660.447 2171.07 623.793C2171.07 589.347 2155.61 563.291 2125.58 563.291C2106.59 563.291 2089.81 577.423 2085.4 597.296C2084.51 600.829 2084.07 605.245 2084.07 609.219V638.808Z" fill="#609CEC"/>
<path d="M2273.07 588.022C2273.07 559.758 2272.19 535.469 2271.3 515.596H2329.6L2332.69 545.626H2333.57C2349.47 522.662 2374.2 510.738 2405.56 510.738C2452.81 510.738 2495.21 551.809 2495.21 620.702C2495.21 699.31 2445.3 736.406 2397.17 736.406C2371.11 736.406 2350.8 725.807 2341.08 711.675H2340.2V818.989H2273.07V588.022ZM2340.2 638.808C2340.2 644.107 2340.64 648.965 2341.52 652.94C2345.94 671.046 2361.4 684.736 2380.83 684.736C2409.97 684.736 2427.2 660.447 2427.2 623.793C2427.2 589.347 2411.74 563.291 2381.71 563.291C2362.72 563.291 2345.94 577.423 2341.52 597.296C2340.64 600.829 2340.2 605.245 2340.2 609.219V638.808Z" fill="#609CEC"/>
<path d="M2582.2 644.991C2584.41 672.813 2611.79 686.061 2643.15 686.061C2666.11 686.061 2684.66 682.97 2702.76 677.229L2711.6 722.716C2689.52 731.548 2662.58 735.964 2633.43 735.964C2560.12 735.964 2518.17 693.569 2518.17 626.001C2518.17 571.24 2552.17 510.738 2627.25 510.738C2697.02 510.738 2723.52 565.057 2723.52 618.493C2723.52 629.976 2722.2 640.133 2721.31 644.991H2582.2ZM2661.25 599.062C2661.25 582.722 2654.19 555.342 2623.27 555.342C2595.01 555.342 2583.53 580.956 2581.76 599.062H2661.25Z" fill="#609CEC"/>
<path d="M2755.76 586.697C2755.76 554.9 2754.88 534.144 2754 515.596H2811.85L2814.06 555.342H2815.82C2826.86 523.987 2853.36 510.738 2874.12 510.738C2880.3 510.738 2883.39 510.738 2888.25 511.622V574.773C2883.39 573.89 2877.65 573.007 2870.14 573.007C2845.41 573.007 2828.63 586.255 2824.21 607.011C2823.33 611.428 2822.89 616.727 2822.89 622.026V731.548H2755.76V586.697Z" fill="#609CEC"/>
<path d="M2933.44 99.1884C2933.53 102.377 2935.89 104.854 2938.88 105.391V105.5H2940.1V105.368C2941.34 105.085 2942.28 104.359 2942.92 103.345C2943.72 102.086 2944 100.457 2944 98.8459V77C2944 70.3977 2938.6 65 2932 65H2912.66C2910.93 65 2908.72 65.6474 2906.94 66.6836C2905.21 67.6841 2903.5 69.286 2903.5 71.3734V71.3899C2903.5 73.3105 2904.62 74.9639 2906.03 76.1051C2907.45 77.2505 2909.3 78.0011 2911.07 78.049L2911.07 78.049L2919.5 78.2746L2919.51 78.2746C2921.05 78.3132 2921.8 80.1865 2920.71 81.2824L2920.71 81.2831L2888.88 113.27C2888.88 113.27 2888.88 113.27 2888.88 113.27C2886.33 115.824 2886.44 119.939 2888.96 122.461C2891.5 124.996 2895.69 125.002 2898.23 122.461L2930.22 90.4782C2931.31 89.3821 2933.19 90.1272 2933.23 91.6761L2933.44 99.1873L2933.44 99.1884ZM2944 165.083V137.56C2944 133.966 2941.09 131.06 2937.5 131.06C2933.91 131.06 2931 133.967 2931 137.56V159.56C2931 161.149 2930.98 162.288 2930.68 163.053C2930.55 163.392 2930.38 163.598 2930.16 163.733C2929.94 163.875 2929.57 164 2928.94 164H2857.42C2854.63 164 2851.49 162.873 2849.04 161.018C2846.59 159.158 2845 156.691 2845 154.083V82.5604C2845 81.5778 2845.83 80.4486 2847.36 79.4862C2848.85 78.5541 2850.65 78 2851.94 78H2873.94C2877.53 78 2880.44 75.0944 2880.44 71.5C2880.44 67.9117 2877.53 65 2873.94 65H2846.42C2843.14 65 2839.58 66.3343 2836.83 68.4522C2834.08 70.5652 2832 73.5868 2832 77.0386V165.083C2832 168.535 2834.09 171.527 2836.83 173.611C2839.58 175.699 2843.15 177 2846.42 177H2934.46C2937.8 177 2940.25 175.64 2941.82 173.387C2943.36 171.185 2944 168.226 2944 165.083Z" fill="white" stroke="white" stroke-width="2"/>
</svg>
