<svg width="2000" height="1000" viewBox="0 0 2000 1000" fill="none" xmlns="http://www.w3.org/2000/svg">
<g clip-path="url(#clip0_754_3)">
<path d="M571.84 375.999H747.079V408.109H678.186V588.652H640.277V408.109H571.68V375.986H571.828L571.84 375.999ZM739.599 434.667H771.993V464.391H772.599C773.675 460.187 775.653 456.132 778.559 452.225C784.772 443.85 793.181 437.359 802.855 433.468C807.768 431.521 813 430.502 818.285 430.463C822.242 430.463 825.16 430.612 826.693 430.772C828.214 430.921 829.735 431.218 831.416 431.366V464.082C828.935 463.648 826.44 463.297 823.936 463.031C821.449 462.737 818.947 462.588 816.443 462.586C810.632 462.586 805.142 463.785 799.949 466.048C794.756 468.286 790.317 471.735 786.509 476.1C782.446 480.98 779.334 486.579 777.335 492.606C775.047 499.209 773.972 506.702 773.972 515.27V588.504H739.451V434.667H739.599ZM990.161 588.664H956.246V567.2H955.628C951.35 575.014 945.093 581.172 936.686 585.821C928.278 590.47 919.722 592.868 911.018 592.868C890.394 592.868 875.408 587.923 866.259 577.858C857.084 567.806 852.497 552.647 852.497 532.382V434.68H887.031V529.081C887.031 542.595 889.627 552.202 894.981 557.754C900.174 563.305 907.654 566.161 917.125 566.161C924.457 566.161 930.417 565.11 935.301 562.848C940.197 560.597 944.166 557.754 947.072 553.995C950.126 550.397 952.265 545.896 953.65 540.79C955.01 535.683 955.628 530.132 955.628 524.135V434.828H990.161V588.664ZM1048.98 539.294C1050.05 549.185 1053.86 556.109 1060.44 560.152C1067.15 564.059 1075.1 566.161 1084.43 566.161C1087.64 566.161 1091.3 565.852 1095.43 565.407C1099.55 564.95 1103.52 563.899 1107.04 562.563C1110.7 561.203 1113.59 559.101 1116.04 556.406C1118.34 553.686 1119.41 550.249 1119.26 545.896C1119.24 543.876 1118.79 541.883 1117.95 540.047C1117.11 538.211 1115.89 536.572 1114.37 535.238C1111.31 532.395 1107.5 530.293 1102.75 528.487C1097.46 526.655 1092.05 525.201 1086.55 524.135C1080.45 522.936 1074.34 521.576 1068.08 520.228C1061.78 518.864 1055.55 517.16 1049.44 515.122C1043.7 513.283 1038.29 510.549 1033.4 507.023C1028.64 503.7 1024.76 499.271 1022.09 494.115C1019.19 488.86 1017.81 482.406 1017.81 474.604C1017.81 466.196 1019.95 459.297 1024.08 453.585C1028.24 447.92 1033.62 443.257 1039.82 439.934C1046.48 436.414 1053.64 433.933 1061.05 432.578C1068.84 431.23 1076.33 430.476 1083.35 430.476C1091.45 430.476 1099.24 431.378 1106.58 433.035C1113.69 434.557 1120.47 437.351 1126.59 441.282C1132.55 445.041 1137.43 449.987 1141.41 455.996C1145.38 461.992 1147.83 469.349 1148.89 477.905H1112.84C1111.16 469.807 1107.49 464.255 1101.54 461.547C1095.58 458.703 1088.7 457.343 1081.06 457.343C1078.62 457.343 1075.71 457.492 1072.36 457.949C1069.13 458.379 1065.95 459.132 1062.88 460.199C1060.06 461.235 1057.51 462.872 1055.4 464.997C1054.37 466.105 1053.57 467.405 1053.05 468.823C1052.52 470.24 1052.28 471.746 1052.34 473.256C1052.34 477.46 1053.86 480.761 1056.77 483.308C1059.67 485.855 1063.49 487.957 1068.23 489.762C1072.96 491.419 1078.32 492.915 1084.43 494.115C1090.53 495.314 1096.79 496.662 1103.22 498.022C1109.48 499.37 1115.58 501.175 1121.7 503.116C1127.81 505.069 1133.15 507.777 1137.9 511.227C1142.64 514.677 1146.46 518.88 1149.35 523.987C1152.26 529.081 1153.79 535.535 1153.79 543.04C1153.79 552.19 1151.65 559.856 1147.36 566.31C1143.1 572.616 1137.59 577.858 1130.87 581.765C1123.83 585.821 1116.2 588.758 1108.25 590.47C1100.17 592.248 1091.92 593.151 1083.65 593.165C1074.38 593.269 1065.14 592.159 1056.16 589.864C1047.75 587.613 1040.42 584.312 1034.31 579.972C1028.28 575.586 1023.31 569.887 1019.8 563.305C1016.29 556.703 1014.44 548.74 1014.15 539.591H1048.98V539.294ZM1162.95 434.692H1189.08V388.45H1223.61V434.692H1254.77V460.039H1223.62V542.298C1223.62 545.884 1223.77 548.901 1224.08 551.596C1224.38 554.156 1225.14 556.406 1226.22 558.199C1227.39 560.082 1229.16 561.513 1231.25 562.254C1233.55 563.157 1236.45 563.614 1240.43 563.614C1242.86 563.614 1245.31 563.614 1247.76 563.454C1250.21 563.305 1252.64 563.009 1255.09 562.403V588.664C1251.27 589.122 1247.45 589.419 1243.94 589.864C1240.24 590.294 1236.51 590.496 1232.79 590.47C1223.62 590.47 1216.29 589.567 1210.78 587.923C1205.29 586.266 1200.85 583.719 1197.79 580.417C1194.58 577.116 1192.6 573.061 1191.38 568.103C1190.19 562.527 1189.53 556.851 1189.4 551.151V460.323H1163.27V434.655H1162.96L1162.95 434.692ZM1279.21 434.692H1311.92V455.538H1312.54C1317.41 446.537 1324.13 440.231 1332.84 436.336C1341.73 432.381 1351.38 430.382 1361.11 430.476C1373.48 430.476 1384.17 432.578 1393.35 436.93C1402.51 441.134 1410.15 446.994 1416.26 454.487C1422.37 461.992 1426.81 470.697 1429.86 480.613C1432.97 490.928 1434.52 501.652 1434.45 512.426C1434.45 522.775 1433.07 532.827 1430.32 542.447C1427.79 551.725 1423.59 560.468 1417.94 568.251C1412.39 575.754 1405.17 581.869 1396.86 586.117C1388.3 590.618 1378.38 592.868 1366.77 592.868C1361.69 592.863 1356.63 592.408 1351.63 591.508C1346.65 590.61 1341.78 589.155 1337.13 587.168C1332.5 585.238 1328.18 582.657 1324.28 579.502C1320.44 576.436 1317.09 572.795 1314.35 568.708H1313.73V645.552H1279.21V434.667V434.692ZM1399.91 511.82C1399.92 504.976 1399 498.163 1397.17 491.568C1395.48 485.319 1392.68 479.423 1388.91 474.159C1385.33 469.151 1380.69 464.996 1375.32 461.992C1369.55 458.875 1363.08 457.275 1356.53 457.343C1342.01 457.343 1331.01 462.289 1323.68 472.205C1316.34 482.109 1312.67 495.326 1312.67 511.82C1312.67 519.622 1313.6 526.831 1315.58 533.433C1317.56 540.036 1320.31 545.748 1324.28 550.545C1328.11 555.355 1332.69 559.101 1338.04 561.797C1343.38 564.653 1349.65 566.001 1356.68 566.001C1364.63 566.001 1371.19 564.356 1376.69 561.203C1382.02 558.138 1386.61 553.938 1390.13 548.901C1393.65 543.794 1396.25 538.082 1397.77 531.64C1399.18 525.127 1399.9 518.484 1399.91 511.82ZM1460.87 375.999H1495.4V408.121H1460.87V375.999ZM1460.87 434.68H1495.4V588.664H1460.87V434.68ZM1526.26 375.999H1560.8V588.664H1526.26V375.999ZM1666.67 592.868C1654.14 592.868 1642.98 590.766 1633.22 586.723C1623.85 582.882 1615.38 577.159 1608.31 569.908C1601.45 562.51 1596.19 553.771 1592.87 544.24C1589.24 533.719 1587.43 522.654 1587.53 511.524C1587.53 499.815 1589.36 489.021 1592.87 479.104C1596.19 469.578 1601.45 460.843 1608.31 453.449C1615.03 446.24 1623.44 440.689 1633.22 436.633C1642.98 432.578 1654.14 430.476 1666.67 430.476C1679.2 430.476 1690.35 432.578 1700.13 436.633C1709.91 440.689 1718.16 446.401 1725.03 453.449C1731.9 460.84 1737.15 469.577 1740.46 479.104C1743.97 489.008 1745.8 499.815 1745.8 511.524C1745.8 523.393 1743.97 534.336 1740.46 544.24C1737.15 553.772 1731.9 562.513 1725.03 569.908C1718.31 577.116 1709.91 582.668 1700.13 586.723C1690.35 590.766 1679.2 592.868 1666.67 592.868ZM1666.67 566.001C1674.31 566.001 1681.03 564.356 1686.68 561.203C1692.19 558.138 1696.94 553.879 1700.59 548.74C1704.25 543.646 1706.84 537.785 1708.69 531.331C1710.37 524.877 1711.28 518.275 1711.28 511.524C1711.28 504.921 1710.37 498.467 1708.69 491.864C1707.11 485.602 1704.36 479.694 1700.59 474.456C1696.93 469.365 1692.18 465.161 1686.68 462.153C1681.03 459 1674.31 457.343 1666.67 457.343C1659.03 457.343 1652.31 459 1646.66 462.153C1641.19 465.207 1636.45 469.403 1632.76 474.456C1629.04 479.725 1626.29 485.622 1624.66 491.864C1622.97 498.282 1622.09 504.887 1622.05 511.524C1622.05 518.275 1622.98 524.877 1624.66 531.331C1626.34 537.785 1629.09 543.646 1632.76 548.74C1636.42 553.847 1641 558.05 1646.66 561.203C1652.31 564.505 1659.03 566.001 1666.67 566.001ZM1755.89 434.692H1782.02V388.45H1816.55V434.692H1847.71V460.039H1816.55V542.298C1816.55 545.884 1816.7 548.901 1817 551.596C1817.31 554.156 1818.07 556.406 1819.15 558.199C1820.32 560.084 1822.09 561.515 1824.18 562.254C1826.48 563.157 1829.37 563.614 1833.36 563.614C1835.79 563.614 1838.24 563.614 1840.69 563.454C1843.14 563.305 1845.57 563.009 1848.02 562.403V588.664C1844.2 589.122 1840.38 589.419 1836.87 589.864C1833.17 590.294 1829.44 590.496 1825.71 590.47C1816.55 590.47 1809.21 589.567 1803.71 587.923C1798.22 586.266 1793.78 583.719 1790.72 580.417C1787.52 577.116 1785.53 573.061 1784.31 568.103C1783.12 562.526 1782.46 556.851 1782.33 551.151V460.323H1756.2V434.655H1755.89V434.692Z" fill="white"/>
<path d="M531.488 375.988H373.213L324.324 228L275.263 376.001L117 375.84L245.181 467.385L196.144 615.212L324.324 523.816L452.357 615.212L403.468 467.385L531.488 375.988Z" fill="#04DA8D"/>
<path d="M414.479 500.857L403.475 467.387L324.344 523.817L414.479 500.857Z" fill="#126849"/>
</g>
<path d="M553.27 747.053H536.568L562.017 673.333H582.103L607.516 747.053H590.814L572.348 690.179H571.772L553.27 747.053ZM552.226 718.076H591.678V730.243H552.226V718.076ZM638.509 748.133C632.845 748.133 627.974 746.933 623.894 744.533C619.839 742.109 616.719 738.75 614.535 734.454C612.376 730.159 611.296 725.215 611.296 719.624C611.296 713.96 612.388 708.993 614.571 704.721C616.779 700.426 619.911 697.078 623.966 694.678C628.022 692.255 632.845 691.043 638.437 691.043C643.26 691.043 647.484 691.919 651.107 693.671C654.731 695.422 657.599 697.882 659.71 701.05C661.822 704.217 662.986 707.937 663.202 712.209H648.732C648.324 709.449 647.244 707.229 645.492 705.549C643.764 703.845 641.496 702.994 638.689 702.994C636.313 702.994 634.237 703.642 632.461 704.937C630.71 706.209 629.342 708.069 628.358 710.517C627.374 712.964 626.882 715.928 626.882 719.408C626.882 722.935 627.362 725.935 628.322 728.407C629.306 730.879 630.686 732.762 632.461 734.058C634.237 735.354 636.313 736.002 638.689 736.002C640.441 736.002 642.012 735.642 643.404 734.922C644.82 734.202 645.984 733.158 646.896 731.79C647.832 730.399 648.444 728.731 648.732 726.787H663.202C662.962 731.01 661.81 734.73 659.746 737.946C657.707 741.137 654.887 743.633 651.287 745.433C647.688 747.233 643.428 748.133 638.509 748.133ZM698.217 748.133C692.53 748.133 687.634 746.981 683.531 744.677C679.451 742.349 676.308 739.062 674.1 734.814C671.892 730.543 670.788 725.491 670.788 719.66C670.788 713.972 671.892 708.981 674.1 704.685C676.308 700.39 679.415 697.042 683.423 694.642C687.454 692.243 692.182 691.043 697.605 691.043C701.253 691.043 704.648 691.631 707.792 692.807C710.96 693.959 713.72 695.698 716.071 698.026C718.447 700.354 720.295 703.282 721.615 706.809C722.934 710.313 723.594 714.416 723.594 719.12V723.331H676.908V713.828H709.16C709.16 711.621 708.68 709.665 707.72 707.961C706.76 706.257 705.428 704.925 703.725 703.965C702.045 702.982 700.089 702.49 697.857 702.49C695.53 702.49 693.466 703.03 691.666 704.109C689.89 705.165 688.498 706.593 687.49 708.393C686.482 710.169 685.967 712.149 685.943 714.332V723.367C685.943 726.103 686.447 728.467 687.454 730.459C688.486 732.45 689.938 733.986 691.81 735.066C693.682 736.146 695.901 736.686 698.469 736.686C700.173 736.686 701.733 736.446 703.149 735.966C704.565 735.486 705.776 734.766 706.784 733.806C707.792 732.846 708.56 731.67 709.088 730.279L723.27 731.214C722.551 734.622 721.075 737.598 718.843 740.141C716.635 742.661 713.779 744.629 710.276 746.045C706.796 747.437 702.777 748.133 698.217 748.133ZM779.604 707.529L765.566 708.393C765.326 707.193 764.81 706.113 764.018 705.153C763.226 704.169 762.182 703.39 760.886 702.814C759.614 702.214 758.091 701.914 756.315 701.914C753.939 701.914 751.935 702.418 750.303 703.426C748.672 704.409 747.856 705.729 747.856 707.385C747.856 708.705 748.384 709.821 749.44 710.733C750.495 711.645 752.307 712.377 754.875 712.928L764.882 714.944C770.257 716.048 774.265 717.824 776.905 720.272C779.544 722.719 780.864 725.935 780.864 729.919C780.864 733.542 779.796 736.722 777.66 739.458C775.549 742.193 772.645 744.329 768.949 745.865C765.278 747.377 761.042 748.133 756.243 748.133C748.924 748.133 743.092 746.609 738.749 743.561C734.429 740.489 731.898 736.314 731.154 731.034L746.236 730.243C746.692 732.474 747.796 734.178 749.548 735.354C751.299 736.506 753.543 737.082 756.279 737.082C758.967 737.082 761.126 736.566 762.758 735.534C764.414 734.478 765.254 733.122 765.278 731.466C765.254 730.075 764.666 728.935 763.514 728.047C762.362 727.135 760.586 726.439 758.187 725.959L748.612 724.051C743.212 722.971 739.193 721.1 736.553 718.436C733.937 715.772 732.629 712.377 732.629 708.249C732.629 704.697 733.589 701.638 735.509 699.07C737.453 696.502 740.177 694.523 743.68 693.131C747.208 691.739 751.335 691.043 756.063 691.043C763.046 691.043 768.541 692.519 772.549 695.47C776.581 698.422 778.932 702.442 779.604 707.529ZM836.523 707.529L822.485 708.393C822.245 707.193 821.729 706.113 820.937 705.153C820.145 704.169 819.101 703.39 817.805 702.814C816.533 702.214 815.009 701.914 813.234 701.914C810.858 701.914 808.854 702.418 807.222 703.426C805.59 704.409 804.774 705.729 804.774 707.385C804.774 708.705 805.302 709.821 806.358 710.733C807.414 711.645 809.226 712.377 811.794 712.928L821.801 714.944C827.176 716.048 831.184 717.824 833.823 720.272C836.463 722.719 837.783 725.935 837.783 729.919C837.783 733.542 836.715 736.722 834.579 739.458C832.467 742.193 829.564 744.329 825.868 745.865C822.197 747.377 817.961 748.133 813.162 748.133C805.842 748.133 800.011 746.609 795.667 743.561C791.348 740.489 788.816 736.314 788.072 731.034L803.155 730.243C803.611 732.474 804.714 734.178 806.466 735.354C808.218 736.506 810.462 737.082 813.198 737.082C815.885 737.082 818.045 736.566 819.677 735.534C821.333 734.478 822.173 733.122 822.197 731.466C822.173 730.075 821.585 728.935 820.433 728.047C819.281 727.135 817.505 726.439 815.105 725.959L805.53 724.051C800.131 722.971 796.111 721.1 793.472 718.436C790.856 715.772 789.548 712.377 789.548 708.249C789.548 704.697 790.508 701.638 792.428 699.07C794.372 696.502 797.095 694.523 800.599 693.131C804.127 691.739 808.254 691.043 812.982 691.043C819.965 691.043 825.46 692.519 829.468 695.47C833.499 698.422 835.851 702.442 836.523 707.529ZM863.205 748.097C859.677 748.097 856.534 747.485 853.774 746.261C851.014 745.013 848.831 743.177 847.223 740.753C845.639 738.306 844.847 735.258 844.847 731.61C844.847 728.539 845.411 725.959 846.539 723.871C847.667 721.784 849.203 720.104 851.146 718.832C853.09 717.56 855.298 716.6 857.77 715.952C860.265 715.304 862.881 714.848 865.617 714.584C868.832 714.248 871.424 713.936 873.392 713.648C875.36 713.336 876.788 712.88 877.675 712.281C878.563 711.681 879.007 710.793 879.007 709.617V709.401C879.007 707.121 878.287 705.357 876.848 704.109C875.432 702.862 873.416 702.238 870.8 702.238C868.041 702.238 865.845 702.85 864.213 704.073C862.581 705.273 861.501 706.785 860.973 708.609L846.791 707.457C847.511 704.097 848.927 701.194 851.038 698.746C853.15 696.274 855.874 694.379 859.209 693.059C862.569 691.715 866.457 691.043 870.872 691.043C873.944 691.043 876.884 691.403 879.691 692.123C882.523 692.843 885.031 693.959 887.214 695.47C889.422 696.982 891.162 698.926 892.434 701.302C893.706 703.654 894.342 706.473 894.342 709.761V747.053H879.799V739.386H879.367C878.479 741.113 877.292 742.637 875.804 743.957C874.316 745.253 872.528 746.273 870.44 747.017C868.352 747.737 865.941 748.097 863.205 748.097ZM867.597 737.514C869.852 737.514 871.844 737.07 873.572 736.182C875.3 735.27 876.656 734.046 877.639 732.51C878.623 730.975 879.115 729.235 879.115 727.291V721.424C878.635 721.736 877.975 722.023 877.136 722.287C876.32 722.527 875.396 722.755 874.364 722.971C873.332 723.163 872.3 723.343 871.268 723.511C870.236 723.655 869.3 723.787 868.46 723.907C866.661 724.171 865.089 724.591 863.745 725.167C862.401 725.743 861.357 726.523 860.613 727.507C859.869 728.467 859.497 729.667 859.497 731.106C859.497 733.194 860.253 734.79 861.765 735.894C863.301 736.974 865.245 737.514 867.597 737.514ZM906.238 747.053V691.763H921.105V701.41H921.681C922.689 697.978 924.38 695.386 926.756 693.635C929.132 691.859 931.868 690.971 934.963 690.971C935.731 690.971 936.559 691.019 937.447 691.115C938.335 691.211 939.115 691.343 939.787 691.511V705.117C939.067 704.901 938.071 704.709 936.799 704.541C935.527 704.373 934.363 704.289 933.307 704.289C931.052 704.289 929.036 704.781 927.26 705.765C925.508 706.725 924.116 708.069 923.084 709.797C922.077 711.525 921.573 713.516 921.573 715.772V747.053H906.238ZM1024.85 723.907L974.163 746.225V731.646L1008.86 717.716L1008.4 718.472V716.672L1008.86 717.428L974.163 703.498V688.919L1024.85 711.237V723.907Z" fill="#9E9E9E"/>
<defs>
<clipPath id="clip0_754_3">
<rect width="1731" height="420.386" fill="white" transform="translate(117 228)"/>
</clipPath>
</defs>
</svg>
