<svg width="2000" height="1000" viewBox="0 0 2000 1000" fill="none" xmlns="http://www.w3.org/2000/svg">
<g clip-path="url(#clip0_758_120)">
<path d="M556.103 432.799H745.313V467.468H670.927V662.405H629.995V467.468H555.93V432.785H556.09L556.103 432.799ZM737.236 496.144H772.213V528.238H772.867C774.029 523.699 776.165 519.32 779.302 515.101C786.01 506.059 795.089 499.05 805.535 494.849C810.84 492.747 816.489 491.647 822.195 491.605C826.467 491.605 829.618 491.765 831.273 491.939C832.915 492.099 834.558 492.42 836.373 492.58V527.904C833.694 527.435 831.001 527.057 828.296 526.769C825.611 526.451 822.91 526.291 820.206 526.289C813.932 526.289 808.004 527.584 802.397 530.027C796.79 532.443 791.998 536.168 787.886 540.88C783.499 546.149 780.139 552.194 777.98 558.702C775.51 565.831 774.349 573.921 774.349 583.173V662.245H737.076V496.144H737.236ZM1007.77 662.419H971.155V639.243H970.487C965.868 647.68 959.113 654.328 950.035 659.348C940.957 664.368 931.719 666.958 922.32 666.958C900.053 666.958 883.872 661.618 873.993 650.751C864.088 639.897 859.135 623.53 859.135 601.649V496.158H896.421V598.085C896.421 612.676 899.225 623.049 905.005 629.044C910.612 635.038 918.689 638.122 928.915 638.122C936.832 638.122 943.267 636.987 948.54 634.544C953.826 632.114 958.112 629.044 961.249 624.985C964.547 621.1 966.856 616.241 968.351 610.727C969.82 605.214 970.487 599.22 970.487 592.745V496.318H1007.77V662.419ZM1071.28 609.112C1072.44 619.792 1076.55 627.268 1083.66 631.633C1090.9 635.852 1099.49 638.122 1109.55 638.122C1113.03 638.122 1116.98 637.788 1121.44 637.307C1125.88 636.813 1130.17 635.678 1133.97 634.237C1137.92 632.768 1141.05 630.499 1143.69 627.588C1146.17 624.651 1147.32 620.94 1147.16 616.241C1147.14 614.06 1146.66 611.908 1145.75 609.925C1144.84 607.942 1143.53 606.173 1141.89 604.733C1138.58 601.663 1134.47 599.393 1129.34 597.444C1123.63 595.466 1117.78 593.895 1111.85 592.745C1105.26 591.45 1098.66 589.981 1091.91 588.526C1085.1 587.054 1078.38 585.213 1071.77 583.013C1065.58 581.027 1059.73 578.076 1054.46 574.268C1049.32 570.681 1045.13 565.898 1042.24 560.331C1039.12 554.657 1037.62 547.689 1037.62 539.265C1037.62 530.187 1039.93 522.737 1044.39 516.57C1048.89 510.454 1054.7 505.418 1061.39 501.831C1068.58 498.03 1076.31 495.351 1084.31 493.888C1092.72 492.433 1100.81 491.619 1108.39 491.619C1117.14 491.619 1125.55 492.593 1133.48 494.382C1141.15 496.026 1148.47 499.042 1155.08 503.287C1161.51 507.345 1166.79 512.685 1171.08 519.173C1175.37 525.648 1178.01 533.591 1179.16 542.829H1140.23C1138.42 534.085 1134.45 528.091 1128.03 525.167C1121.6 522.097 1114.17 520.628 1105.92 520.628C1103.28 520.628 1100.14 520.788 1096.52 521.282C1093.04 521.746 1089.61 522.56 1086.29 523.712C1083.25 524.83 1080.49 526.598 1078.21 528.892C1077.1 530.089 1076.24 531.492 1075.67 533.023C1075.11 534.553 1074.85 536.179 1074.91 537.81C1074.91 542.349 1076.55 545.913 1079.69 548.663C1082.83 551.413 1086.95 553.683 1092.07 555.632C1097.18 557.421 1102.96 559.036 1109.55 560.331C1116.15 561.626 1122.9 563.081 1129.85 564.55C1136.6 566.005 1143.2 567.954 1149.8 570.05C1156.4 572.159 1162.17 575.083 1167.29 578.807C1172.41 582.532 1176.53 587.071 1179.66 592.585C1182.79 598.085 1184.45 605.054 1184.45 613.157C1184.45 623.036 1182.14 631.313 1177.51 638.282C1172.9 645.09 1166.96 650.751 1159.7 654.969C1152.09 659.349 1143.86 662.519 1135.28 664.368C1126.55 666.287 1117.65 667.263 1108.71 667.278C1098.71 667.39 1088.73 666.192 1079.04 663.713C1069.96 661.284 1062.04 657.719 1055.45 653.033C1048.93 648.297 1043.57 642.144 1039.77 635.038C1035.98 627.909 1033.99 619.311 1033.67 609.432H1071.28V609.112ZM1194.34 496.171H1222.55V446.242H1259.84V496.171H1293.48V523.538H1259.85V612.356C1259.85 616.228 1260.01 619.485 1260.34 622.395C1260.66 625.159 1261.49 627.588 1262.65 629.524C1263.91 631.558 1265.83 633.102 1268.09 633.903C1270.57 634.877 1273.69 635.371 1277.99 635.371C1280.62 635.371 1283.26 635.371 1285.91 635.198C1288.55 635.038 1291.18 634.717 1293.82 634.063V662.419C1289.7 662.912 1285.57 663.233 1281.78 663.713C1277.79 664.178 1273.76 664.396 1269.74 664.368C1259.85 664.368 1251.93 663.393 1245.98 661.618C1240.05 659.829 1235.26 657.079 1231.96 653.514C1228.49 649.95 1226.35 645.571 1225.03 640.217C1223.75 634.197 1223.03 628.069 1222.9 621.915V523.846H1194.69V496.131H1194.35L1194.34 496.171ZM1319.87 496.171H1355.18V518.679H1355.85C1361.11 508.96 1368.37 502.152 1377.77 497.947C1387.38 493.675 1397.79 491.517 1408.3 491.619C1421.65 491.619 1433.2 493.888 1443.1 498.587C1453 503.126 1461.25 509.454 1467.84 517.544C1474.44 525.648 1479.23 535.046 1482.53 545.753C1485.89 556.89 1487.56 568.469 1487.48 580.102C1487.48 591.276 1486 602.13 1483.02 612.516C1480.29 622.535 1475.76 631.974 1469.66 640.378C1463.66 648.479 1455.87 655.082 1446.9 659.668C1437.66 664.528 1426.94 666.958 1414.4 666.958C1408.92 666.951 1403.45 666.46 1398.06 665.489C1392.68 664.52 1387.43 662.948 1382.4 660.803C1377.41 658.719 1372.74 655.932 1368.53 652.526C1364.38 649.215 1360.76 645.284 1357.81 640.872H1357.14V723.842H1319.87V496.144V496.171ZM1450.19 579.448C1450.2 572.059 1449.2 564.702 1447.23 557.581C1445.4 550.834 1442.38 544.468 1438.31 538.784C1434.45 533.377 1429.44 528.891 1423.64 525.648C1417.41 522.282 1410.43 520.555 1403.35 520.628C1387.67 520.628 1375.79 525.968 1367.88 536.675C1359.96 547.368 1356 561.639 1356 579.448C1356 587.872 1357 595.655 1359.13 602.784C1361.27 609.913 1364.25 616.081 1368.53 621.26C1372.67 626.454 1377.61 630.499 1383.39 633.409C1389.16 636.493 1395.93 637.948 1403.51 637.948C1412.09 637.948 1419.18 636.172 1425.12 632.768C1430.87 629.458 1435.83 624.923 1439.63 619.485C1443.42 613.971 1446.24 607.804 1447.88 600.848C1449.4 593.816 1450.18 586.643 1450.19 579.448ZM1516.01 432.799H1553.29V467.482H1516.01V432.799ZM1516.01 496.158H1553.29V662.419H1516.01V496.158ZM1586.62 432.799H1623.9V662.419H1586.62V432.799ZM1738.22 666.958C1724.68 666.958 1712.64 664.688 1702.09 660.323C1691.98 656.176 1682.83 649.996 1675.21 642.167C1667.79 634.179 1662.12 624.743 1658.53 614.452C1654.61 603.093 1652.66 591.145 1652.77 579.128C1652.77 566.485 1654.74 554.831 1658.53 544.124C1662.12 533.838 1667.8 524.407 1675.21 516.423C1682.46 508.64 1691.53 502.646 1702.09 498.267C1712.64 493.888 1724.68 491.619 1738.22 491.619C1751.74 491.619 1763.78 493.888 1774.34 498.267C1784.9 502.646 1793.81 508.813 1801.23 516.423C1808.64 524.404 1814.32 533.837 1817.89 544.124C1821.68 554.818 1823.66 566.485 1823.66 579.128C1823.66 591.944 1821.68 603.759 1817.89 614.452C1814.32 624.745 1808.64 634.182 1801.23 642.167C1793.97 649.95 1784.9 655.944 1774.34 660.323C1763.78 664.688 1751.74 666.958 1738.22 666.958ZM1738.22 637.948C1746.47 637.948 1753.72 636.172 1759.82 632.768C1765.77 629.458 1770.9 624.86 1774.84 619.311C1778.79 613.811 1781.59 607.483 1783.58 600.515C1785.4 593.546 1786.39 586.417 1786.39 579.128C1786.39 571.999 1785.4 565.03 1783.58 557.901C1781.88 551.139 1778.92 544.761 1774.84 539.105C1770.89 533.608 1765.76 529.069 1759.82 525.821C1753.72 522.417 1746.47 520.628 1738.22 520.628C1729.97 520.628 1722.71 522.417 1716.61 525.821C1710.71 529.119 1705.59 533.649 1701.6 539.105C1697.58 544.795 1694.62 551.162 1692.86 557.901C1691.03 564.83 1690.08 571.962 1690.04 579.128C1690.04 586.417 1691.04 593.546 1692.86 600.515C1694.67 607.483 1697.64 613.811 1701.6 619.311C1705.55 624.825 1710.5 629.364 1716.61 632.768C1722.71 636.333 1729.97 637.948 1738.22 637.948ZM1834.55 496.171H1862.76V446.242H1900.05V496.171H1933.69V523.538H1900.05V612.356C1900.05 616.228 1900.21 619.485 1900.53 622.395C1900.86 625.159 1901.69 627.588 1902.85 629.524C1904.11 631.56 1906.03 633.105 1908.28 633.903C1910.77 634.877 1913.89 635.371 1918.19 635.371C1920.82 635.371 1923.46 635.371 1926.11 635.198C1928.75 635.038 1931.38 634.717 1934.02 634.063V662.419C1929.9 662.912 1925.77 663.233 1921.98 663.713C1917.99 664.178 1913.96 664.396 1909.94 664.368C1900.05 664.368 1892.12 663.393 1886.18 661.618C1880.25 659.829 1875.46 657.079 1872.16 653.514C1868.7 649.95 1866.55 645.571 1865.23 640.217C1863.95 634.197 1863.23 628.069 1863.09 621.915V523.846H1834.89V496.131H1834.55V496.171Z" fill="white"/>
<path d="M512.532 432.786H341.639L288.853 273L235.88 432.799L65 432.626L203.399 531.469L150.453 691.082L288.853 592.399L427.092 691.082L374.306 531.469L512.532 432.786Z" fill="#04DA8D"/>
<path d="M386.197 567.613L374.315 531.475L288.875 592.404L386.197 567.613Z" fill="#126849"/>
</g>
<defs>
<clipPath id="clip0_758_120">
<rect width="1869" height="453.9" fill="white" transform="translate(65 273)"/>
</clipPath>
</defs>
</svg>
