<svg width="3000" height="1000" viewBox="0 0 3000 1000" fill="none" xmlns="http://www.w3.org/2000/svg">
<g clip-path="url(#clip0_754_3)">
<path d="M848.266 300.534H1130.01V352.158H1019.24V642.425H958.294V352.158H848.008V300.514H848.246L848.266 300.534ZM1117.98 394.857H1170.06V442.645H1171.03C1172.76 435.887 1175.94 429.367 1180.62 423.085C1190.6 409.621 1204.12 399.184 1219.68 392.929C1227.58 389.799 1235.99 388.161 1244.49 388.099C1250.85 388.099 1255.54 388.337 1258 388.596C1260.45 388.834 1262.89 389.311 1265.6 389.55V442.148C1261.61 441.451 1257.6 440.887 1253.57 440.459C1249.57 439.986 1245.55 439.747 1241.52 439.743C1232.18 439.743 1223.36 441.671 1215.01 445.309C1206.66 448.907 1199.52 454.453 1193.4 461.47C1186.87 469.316 1181.86 478.318 1178.65 488.008C1174.97 498.623 1173.24 510.67 1173.24 524.446V642.187H1117.74V394.857H1117.98ZM1520.82 642.445H1466.29V607.936H1465.3C1458.42 620.499 1448.36 630.399 1434.84 637.873C1421.33 645.347 1407.57 649.204 1393.58 649.204C1360.42 649.204 1336.32 641.252 1321.61 625.071C1306.86 608.91 1299.49 584.539 1299.49 551.958V394.877H1355.01V546.65C1355.01 568.377 1359.19 583.823 1367.79 592.749C1376.14 601.674 1388.17 606.266 1403.4 606.266C1415.18 606.266 1424.76 604.576 1432.62 600.939C1440.49 597.321 1446.87 592.749 1451.54 586.705C1456.45 580.921 1459.89 573.685 1462.12 565.475C1464.3 557.265 1465.3 548.34 1465.3 538.699V395.116H1520.82V642.445ZM1615.38 563.07C1617.11 578.973 1623.23 590.105 1633.81 596.605C1644.6 602.887 1657.38 606.266 1672.37 606.266C1677.54 606.266 1683.42 605.769 1690.06 605.053C1696.68 604.318 1703.06 602.628 1708.73 600.481C1714.61 598.295 1719.27 594.915 1723.2 590.582C1726.9 586.209 1728.61 580.682 1728.37 573.685C1728.34 570.438 1727.62 567.233 1726.27 564.281C1724.92 561.328 1722.96 558.694 1720.52 556.55C1715.59 551.978 1709.47 548.598 1701.83 545.696C1693.33 542.75 1684.63 540.412 1675.79 538.699C1665.97 536.77 1656.15 534.584 1646.09 532.417C1635.96 530.225 1625.95 527.484 1616.12 524.207C1606.89 521.25 1598.19 516.856 1590.33 511.187C1582.68 505.845 1576.44 498.723 1572.14 490.434C1567.49 481.985 1565.27 471.609 1565.27 459.065C1565.27 445.548 1568.71 434.455 1575.34 425.272C1582.04 416.164 1590.69 408.667 1600.65 403.326C1611.36 397.665 1622.87 393.677 1634.78 391.498C1647.31 389.331 1659.35 388.119 1670.64 388.119C1683.66 388.119 1696.19 389.57 1707.99 392.233C1719.43 394.681 1730.32 399.173 1740.16 405.492C1749.74 411.535 1757.59 419.487 1763.99 429.148C1770.37 438.789 1774.31 450.617 1776.02 464.373H1718.05C1715.35 451.352 1709.45 442.427 1699.88 438.073C1690.3 433.501 1679.25 431.315 1666.97 431.315C1663.03 431.315 1658.36 431.553 1652.97 432.289C1647.78 432.979 1642.67 434.191 1637.72 435.907C1633.2 437.572 1629.1 440.204 1625.7 443.619C1624.05 445.402 1622.76 447.492 1621.92 449.77C1621.08 452.049 1620.69 454.471 1620.79 456.898C1620.79 463.657 1623.23 468.965 1627.9 473.06C1632.58 477.155 1638.72 480.534 1646.33 483.436C1653.94 486.1 1662.55 488.505 1672.37 490.434C1682.19 492.362 1692.25 494.529 1702.59 496.715C1712.65 498.882 1722.47 501.784 1732.31 504.905C1742.13 508.046 1750.71 512.399 1758.35 517.945C1765.96 523.492 1772.1 530.25 1776.75 538.46C1781.43 546.65 1783.89 557.027 1783.89 569.093C1783.89 583.803 1780.45 596.128 1773.55 606.505C1766.7 616.643 1757.85 625.071 1747.04 631.353C1735.72 637.874 1723.45 642.595 1710.68 645.347C1697.69 648.206 1684.42 649.659 1671.12 649.681C1656.22 649.848 1641.37 648.064 1626.93 644.373C1613.41 640.755 1601.62 635.448 1591.8 628.47C1582.1 621.418 1574.12 612.256 1568.47 601.674C1562.82 591.059 1559.86 578.257 1559.38 563.547H1615.38V563.07ZM1798.62 394.897H1840.62V320.551H1896.15V394.897H1946.24V435.648H1896.17V567.9C1896.17 573.665 1896.4 578.516 1896.9 582.849C1897.38 586.964 1898.61 590.582 1900.34 593.464C1902.22 596.493 1905.07 598.792 1908.43 599.984C1912.13 601.435 1916.78 602.171 1923.18 602.171C1927.1 602.171 1931.03 602.171 1934.97 601.913C1938.9 601.674 1942.82 601.197 1946.76 600.223V642.445C1940.61 643.18 1934.47 643.658 1928.83 644.373C1922.87 645.065 1916.89 645.39 1910.9 645.347C1896.17 645.347 1884.38 643.896 1875.51 641.252C1866.69 638.589 1859.55 634.494 1854.64 629.186C1849.47 623.878 1846.29 617.358 1844.32 609.387C1842.41 600.422 1841.34 591.298 1841.14 582.133V436.105H1799.14V394.838H1798.64L1798.62 394.897ZM1985.54 394.897H2038.12V428.412H2039.11C2046.94 413.941 2057.76 403.803 2071.75 397.541C2086.06 391.181 2101.56 387.968 2117.21 388.119C2137.09 388.119 2154.29 391.498 2169.04 398.495C2183.77 405.254 2196.05 414.676 2205.87 426.723C2215.69 438.789 2222.83 452.784 2227.74 468.726C2232.74 485.31 2235.23 502.552 2235.11 519.874C2235.11 536.512 2232.91 552.673 2228.48 568.139C2224.4 583.057 2217.66 597.113 2208.58 609.625C2199.65 621.688 2188.05 631.52 2174.68 638.35C2160.93 645.586 2144.97 649.204 2126.3 649.204C2118.14 649.195 2110 648.463 2101.97 647.017C2093.96 645.574 2086.14 643.233 2078.65 640.04C2071.21 636.936 2064.26 632.786 2058 627.715C2051.82 622.785 2046.43 616.931 2042.03 610.361H2041.04V733.906H1985.54V394.857V394.897ZM2179.59 518.9C2179.6 507.896 2178.12 496.942 2175.18 486.339C2172.46 476.292 2167.96 466.813 2161.9 458.35C2156.15 450.298 2148.69 443.618 2140.06 438.789C2130.78 433.777 2120.38 431.205 2109.84 431.315C2086.5 431.315 2068.81 439.266 2057.02 455.209C2045.23 471.131 2039.33 492.382 2039.33 518.9C2039.33 531.443 2040.82 543.032 2044 553.647C2047.18 564.263 2051.62 573.446 2058 581.159C2064.16 588.892 2071.51 594.915 2080.12 599.249C2088.71 603.841 2098.79 606.008 2110.08 606.008C2122.86 606.008 2133.42 603.364 2142.26 598.295C2150.83 593.366 2158.21 586.614 2163.87 578.515C2169.52 570.306 2173.71 561.122 2176.15 550.765C2178.42 540.293 2179.57 529.613 2179.59 518.9ZM2277.6 300.534H2333.12V352.178H2277.6V300.534ZM2277.6 394.877H2333.12V642.445H2277.6V394.877ZM2382.73 300.534H2438.25V642.445H2382.73V300.534ZM2608.47 649.204C2588.32 649.204 2570.39 645.824 2554.68 639.324C2539.63 633.149 2526 623.947 2514.65 612.289C2503.61 600.396 2495.16 586.345 2489.82 571.021C2483.98 554.107 2481.07 536.317 2481.23 518.423C2481.23 499.598 2484.17 482.244 2489.82 466.301C2495.16 450.985 2503.61 436.941 2514.65 425.053C2525.44 413.464 2538.96 404.538 2554.68 398.018C2570.39 391.498 2588.32 388.119 2608.47 388.119C2628.61 388.119 2646.54 391.498 2662.27 398.018C2677.99 404.538 2691.25 413.722 2702.3 425.053C2713.34 436.937 2721.78 450.983 2727.11 466.301C2732.75 482.224 2735.7 499.598 2735.7 518.423C2735.7 537.506 2732.75 555.099 2727.11 571.021C2721.79 586.347 2713.34 600.4 2702.3 612.289C2691.49 623.878 2677.99 632.804 2662.27 639.324C2646.54 645.824 2628.61 649.204 2608.47 649.204ZM2608.47 606.008C2620.76 606.008 2631.55 603.364 2640.64 598.295C2649.49 593.366 2657.13 586.52 2663 578.257C2668.89 570.067 2673.06 560.645 2676.02 550.268C2678.72 539.891 2680.2 529.276 2680.2 518.423C2680.2 507.807 2678.72 497.431 2676.02 486.816C2673.49 476.747 2669.07 467.249 2663 458.827C2657.12 450.643 2649.48 443.883 2640.64 439.047C2631.55 433.978 2620.76 431.315 2608.47 431.315C2596.19 431.315 2585.38 433.978 2576.29 439.047C2567.51 443.957 2559.89 450.704 2553.95 458.827C2547.96 467.299 2543.55 476.78 2540.93 486.816C2538.21 497.133 2536.8 507.753 2536.73 518.423C2536.73 529.276 2538.22 539.891 2540.93 550.268C2543.63 560.645 2548.04 570.067 2553.95 578.257C2559.83 586.467 2567.21 593.226 2576.29 598.295C2585.38 603.602 2596.19 606.008 2608.47 606.008ZM2751.92 394.897H2793.92V320.551H2849.44V394.897H2899.54V435.648H2849.44V567.9C2849.44 573.665 2849.68 578.516 2850.16 582.849C2850.65 586.964 2851.89 590.582 2853.62 593.464C2855.49 596.496 2858.35 598.796 2861.71 599.984C2865.4 601.435 2870.06 602.171 2876.46 602.171C2880.37 602.171 2884.31 602.171 2888.24 601.913C2892.18 601.674 2896.1 601.197 2900.03 600.223V642.445C2893.89 643.18 2887.75 643.658 2882.1 644.373C2876.15 645.065 2870.16 645.39 2864.17 645.347C2849.44 645.347 2837.63 643.896 2828.79 641.252C2819.96 638.589 2812.83 634.494 2807.92 629.186C2802.77 623.878 2799.57 617.358 2797.6 609.387C2795.69 600.422 2794.62 591.297 2794.42 582.133V436.105H2752.41V394.838H2751.92V394.897Z" fill="white"/>
<path d="M783.389 300.516H528.924L450.324 62.5898L371.446 300.536L117 300.278L323.081 447.459L244.243 685.127L450.324 538.185L656.167 685.127L577.567 447.459L783.389 300.516Z" fill="#04DA8D"/>
<path d="M595.27 501.274L577.578 447.463L450.355 538.189L595.27 501.274Z" fill="#126849"/>
</g>
<path d="M818.406 897.533H791.553L832.469 779.011H864.762L905.62 897.533H878.767L849.078 806.095H848.152L818.406 897.533ZM816.728 850.946H880.156V870.507H816.728V850.946ZM955.448 899.269C946.342 899.269 938.51 897.34 931.951 893.482C925.431 889.585 920.416 884.184 916.905 877.278C913.432 870.372 911.696 862.424 911.696 853.434C911.696 844.329 913.452 836.343 916.963 829.475C920.512 822.569 925.547 817.187 932.067 813.329C938.587 809.432 946.342 807.484 955.332 807.484C963.087 807.484 969.877 808.892 975.703 811.709C981.529 814.525 986.139 818.48 989.534 823.572C992.93 828.665 994.801 834.645 995.148 841.513H971.883C971.227 837.076 969.491 833.507 966.675 830.806C963.897 828.067 960.251 826.697 955.737 826.697C951.917 826.697 948.58 827.739 945.725 829.823C942.909 831.867 940.709 834.857 939.128 838.793C937.546 842.728 936.755 847.493 936.755 853.087C936.755 858.759 937.527 863.581 939.07 867.555C940.652 871.529 942.87 874.558 945.725 876.641C948.58 878.725 951.917 879.766 955.737 879.766C958.553 879.766 961.081 879.188 963.318 878.03C965.595 876.873 967.466 875.194 968.932 872.995C970.437 870.758 971.42 868.076 971.883 864.951H995.148C994.762 871.741 992.91 877.722 989.592 882.892C986.313 888.023 981.78 892.035 975.992 894.929C970.205 897.823 963.357 899.269 955.448 899.269ZM1051.44 899.269C1042.3 899.269 1034.43 897.417 1027.83 893.714C1021.27 889.971 1016.22 884.686 1012.67 877.857C1009.12 870.989 1007.34 862.868 1007.34 853.492C1007.34 844.349 1009.12 836.324 1012.67 829.417C1016.22 822.511 1021.21 817.129 1027.66 813.271C1034.14 809.413 1041.74 807.484 1050.46 807.484C1056.32 807.484 1061.78 808.429 1066.84 810.32C1071.93 812.172 1076.37 814.969 1080.15 818.711C1083.97 822.454 1086.94 827.16 1089.06 832.832C1091.18 838.465 1092.24 845.062 1092.24 852.624V859.395H1017.18V844.117H1069.04C1069.04 840.568 1068.26 837.423 1066.72 834.684C1065.18 831.945 1063.04 829.803 1060.3 828.26C1057.6 826.678 1054.45 825.887 1050.86 825.887C1047.12 825.887 1043.8 826.755 1040.91 828.492C1038.06 830.189 1035.82 832.485 1034.2 835.378C1032.58 838.233 1031.75 841.416 1031.71 844.927V859.453C1031.71 863.852 1032.52 867.652 1034.14 870.854C1035.8 874.056 1038.13 876.526 1041.14 878.262C1044.15 879.998 1047.72 880.866 1051.85 880.866C1054.59 880.866 1057.1 880.48 1059.37 879.709C1061.65 878.937 1063.6 877.779 1065.22 876.236C1066.84 874.693 1068.07 872.802 1068.92 870.565L1091.72 872.069C1090.57 877.548 1088.19 882.332 1084.6 886.422C1081.05 890.473 1076.46 893.636 1070.83 895.913C1065.24 898.151 1058.77 899.269 1051.44 899.269ZM1182.29 833.989L1159.72 835.378C1159.34 833.449 1158.51 831.713 1157.23 830.17C1155.96 828.588 1154.28 827.334 1152.2 826.408C1150.15 825.444 1147.7 824.961 1144.85 824.961C1141.03 824.961 1137.81 825.772 1135.18 827.392C1132.56 828.974 1131.25 831.096 1131.25 833.758C1131.25 835.88 1132.1 837.674 1133.8 839.14C1135.49 840.606 1138.41 841.783 1142.53 842.67L1158.62 845.911C1167.27 847.686 1173.71 850.541 1177.95 854.476C1182.2 858.412 1184.32 863.581 1184.32 869.986C1184.32 875.812 1182.6 880.924 1179.17 885.322C1175.77 889.72 1171.1 893.154 1165.16 895.623C1159.26 898.054 1152.45 899.269 1144.73 899.269C1132.97 899.269 1123.59 896.819 1116.61 891.92C1109.66 886.981 1105.59 880.268 1104.4 871.78L1128.65 870.507C1129.38 874.095 1131.15 876.834 1133.97 878.725C1136.79 880.577 1140.39 881.503 1144.79 881.503C1149.11 881.503 1152.58 880.673 1155.21 879.014C1157.87 877.316 1159.22 875.137 1159.26 872.474C1159.22 870.237 1158.28 868.404 1156.42 866.977C1154.57 865.511 1151.72 864.392 1147.86 863.62L1132.46 860.553C1123.78 858.817 1117.32 855.807 1113.08 851.525C1108.87 847.242 1106.77 841.783 1106.77 835.147C1106.77 829.437 1108.31 824.518 1111.4 820.389C1114.52 816.261 1118.9 813.078 1124.54 810.84C1130.21 808.603 1136.84 807.484 1144.44 807.484C1155.67 807.484 1164.51 809.857 1170.95 814.602C1177.43 819.348 1181.21 825.81 1182.29 833.989ZM1273.8 833.989L1251.23 835.378C1250.85 833.449 1250.02 831.713 1248.74 830.17C1247.47 828.588 1245.79 827.334 1243.71 826.408C1241.66 825.444 1239.21 824.961 1236.36 824.961C1232.54 824.961 1229.32 825.772 1226.7 827.392C1224.07 828.974 1222.76 831.096 1222.76 833.758C1222.76 835.88 1223.61 837.674 1225.31 839.14C1227 840.606 1229.92 841.783 1234.04 842.67L1250.13 845.911C1258.78 847.686 1265.22 850.541 1269.46 854.476C1273.71 858.412 1275.83 863.581 1275.83 869.986C1275.83 875.812 1274.11 880.924 1270.68 885.322C1267.28 889.72 1262.61 893.154 1256.67 895.623C1250.77 898.054 1243.96 899.269 1236.24 899.269C1224.48 899.269 1215.1 896.819 1208.12 891.92C1201.17 886.981 1197.1 880.268 1195.91 871.78L1220.16 870.507C1220.89 874.095 1222.66 876.834 1225.48 878.725C1228.3 880.577 1231.9 881.503 1236.3 881.503C1240.62 881.503 1244.1 880.673 1246.72 879.014C1249.38 877.316 1250.73 875.137 1250.77 872.474C1250.73 870.237 1249.79 868.404 1247.93 866.977C1246.08 865.511 1243.23 864.392 1239.37 863.62L1223.98 860.553C1215.29 858.817 1208.83 855.807 1204.59 851.525C1200.38 847.242 1198.28 841.783 1198.28 835.147C1198.28 829.437 1199.82 824.518 1202.91 820.389C1206.03 816.261 1210.41 813.078 1216.05 810.84C1221.72 808.603 1228.35 807.484 1235.95 807.484C1247.18 807.484 1256.02 809.857 1262.46 814.602C1268.94 819.348 1272.72 825.81 1273.8 833.989ZM1316.7 899.212C1311.03 899.212 1305.98 898.228 1301.54 896.26C1297.1 894.254 1293.59 891.302 1291.01 887.406C1288.46 883.47 1287.19 878.57 1287.19 872.706C1287.19 867.768 1288.09 863.62 1289.91 860.263C1291.72 856.907 1294.19 854.206 1297.31 852.161C1300.44 850.116 1303.99 848.573 1307.96 847.532C1311.97 846.49 1316.18 845.757 1320.58 845.332C1325.75 844.792 1329.92 844.291 1333.08 843.828C1336.24 843.326 1338.54 842.593 1339.97 841.629C1341.39 840.664 1342.11 839.236 1342.11 837.346V836.999C1342.11 833.334 1340.95 830.498 1338.63 828.492C1336.36 826.485 1333.12 825.482 1328.91 825.482C1324.48 825.482 1320.95 826.466 1318.32 828.434C1315.7 830.363 1313.96 832.793 1313.11 835.726L1290.31 833.874C1291.47 828.472 1293.75 823.804 1297.14 819.869C1300.54 815.895 1304.91 812.847 1310.28 810.725C1315.68 808.564 1321.93 807.484 1329.03 807.484C1333.97 807.484 1338.69 808.063 1343.21 809.22C1347.76 810.377 1351.79 812.172 1355.3 814.602C1358.85 817.033 1361.65 820.158 1363.69 823.977C1365.74 827.758 1366.76 832.292 1366.76 837.577V897.533H1343.38V885.206H1342.69C1341.26 887.984 1339.35 890.434 1336.96 892.556C1334.56 894.64 1331.69 896.279 1328.33 897.475C1324.98 898.633 1321.1 899.212 1316.7 899.212ZM1323.76 882.197C1327.39 882.197 1330.59 881.483 1333.37 880.056C1336.15 878.59 1338.33 876.622 1339.91 874.153C1341.49 871.684 1342.28 868.886 1342.28 865.761V856.328C1341.51 856.83 1340.45 857.293 1339.1 857.717C1337.79 858.103 1336.3 858.469 1334.64 858.817C1332.98 859.125 1331.32 859.415 1329.66 859.685C1328.01 859.916 1326.5 860.128 1325.15 860.321C1322.26 860.746 1319.73 861.421 1317.57 862.347C1315.41 863.273 1313.73 864.527 1312.53 866.109C1311.34 867.652 1310.74 869.581 1310.74 871.896C1310.74 875.252 1311.96 877.818 1314.39 879.593C1316.86 881.329 1319.98 882.197 1323.76 882.197ZM1385.89 897.533V808.641H1409.79V824.151H1410.71C1412.34 818.634 1415.06 814.467 1418.87 811.651C1422.69 808.796 1427.09 807.368 1432.07 807.368C1433.3 807.368 1434.64 807.445 1436.06 807.6C1437.49 807.754 1438.74 807.966 1439.82 808.236V830.112C1438.67 829.765 1437.07 829.456 1435.02 829.186C1432.98 828.916 1431.11 828.781 1429.41 828.781C1425.78 828.781 1422.54 829.572 1419.68 831.154C1416.87 832.697 1414.63 834.857 1412.97 837.635C1411.35 840.413 1410.54 843.615 1410.54 847.242V897.533H1385.89ZM1576.58 860.321L1495.09 896.202V872.764L1550.88 850.367L1550.13 851.583V848.689L1550.88 849.904L1495.09 827.508V804.069L1576.58 839.95V860.321Z" fill="#9E9E9E"/>
<defs>
<clipPath id="clip0_754_3">
<rect width="2783" height="675.871" fill="white" transform="translate(117 62.5898)"/>
</clipPath>
</defs>
</svg>
