<svg width="3000" height="1000" viewBox="0 0 3000 1000" fill="none" xmlns="http://www.w3.org/2000/svg">
<g clip-path="url(#clip0_754_3)">
<path d="M839.266 399.944H1121.01V451.568H1010.24V741.835H949.294V451.568H839.008V399.924H839.246L839.266 399.944ZM1108.98 494.268H1161.06V542.056H1162.03C1163.76 535.297 1166.94 528.777 1171.62 522.495C1181.6 509.032 1195.12 498.595 1210.68 492.339C1218.58 489.209 1226.99 487.571 1235.49 487.509C1241.85 487.509 1246.54 487.747 1249 488.006C1251.45 488.244 1253.89 488.721 1256.6 488.96V541.559C1252.61 540.861 1248.6 540.297 1244.57 539.869C1240.57 539.396 1236.55 539.157 1232.52 539.153C1223.18 539.153 1214.36 541.082 1206.01 544.719C1197.66 548.317 1190.52 553.863 1184.4 560.881C1177.87 568.727 1172.86 577.728 1169.65 587.418C1165.97 598.034 1164.24 610.08 1164.24 623.856V741.597H1108.74V494.268H1108.98ZM1511.82 741.855H1457.29V707.346H1456.3C1449.42 719.909 1439.36 729.809 1425.84 737.283C1412.33 744.757 1398.57 748.614 1384.58 748.614C1351.42 748.614 1327.32 740.662 1312.61 724.481C1297.86 708.32 1290.49 683.949 1290.49 651.368V494.287H1346.01V646.06C1346.01 667.788 1350.19 683.233 1358.79 692.159C1367.14 701.084 1379.17 705.676 1394.4 705.676C1406.18 705.676 1415.76 703.986 1423.62 700.349C1431.49 696.731 1437.87 692.159 1442.54 686.116C1447.45 680.331 1450.89 673.095 1453.12 664.885C1455.3 656.675 1456.3 647.75 1456.3 638.109V494.526H1511.82V741.855ZM1606.38 662.48C1608.11 678.383 1614.23 689.515 1624.81 696.015C1635.6 702.297 1648.38 705.676 1663.37 705.676C1668.54 705.676 1674.42 705.179 1681.06 704.464C1687.68 703.728 1694.06 702.038 1699.73 699.891C1705.61 697.705 1710.27 694.325 1714.2 689.992C1717.9 685.619 1719.61 680.092 1719.37 673.095C1719.34 669.848 1718.62 666.643 1717.27 663.691C1715.92 660.739 1713.96 658.104 1711.52 655.96C1706.59 651.388 1700.47 648.008 1692.83 645.106C1684.33 642.16 1675.63 639.822 1666.79 638.109C1656.97 636.181 1647.15 633.994 1637.09 631.827C1626.96 629.635 1616.95 626.894 1607.12 623.617C1597.89 620.661 1589.19 616.266 1581.33 610.597C1573.68 605.255 1567.44 598.133 1563.14 589.844C1558.49 581.395 1556.27 571.019 1556.27 558.475C1556.27 544.958 1559.71 533.866 1566.34 524.682C1573.04 515.574 1581.69 508.077 1591.65 502.736C1602.36 497.076 1613.87 493.087 1625.78 490.908C1638.31 488.741 1650.35 487.529 1661.64 487.529C1674.66 487.529 1687.19 488.98 1698.99 491.644C1710.43 494.091 1721.32 498.583 1731.16 504.903C1740.74 510.946 1748.59 518.897 1754.99 528.558C1761.37 538.199 1765.31 550.027 1767.02 563.783H1709.05C1706.35 550.762 1700.45 541.837 1690.88 537.484C1681.3 532.911 1670.25 530.725 1657.97 530.725C1654.03 530.725 1649.36 530.963 1643.97 531.699C1638.78 532.389 1633.67 533.601 1628.72 535.317C1624.2 536.982 1620.1 539.614 1616.7 543.03C1615.05 544.812 1613.76 546.902 1612.92 549.18C1612.08 551.459 1611.69 553.881 1611.79 556.309C1611.79 563.067 1614.23 568.375 1618.9 572.47C1623.58 576.565 1629.72 579.944 1637.33 582.846C1644.94 585.51 1653.55 587.915 1663.37 589.844C1673.19 591.772 1683.25 593.939 1693.59 596.125C1703.65 598.292 1713.47 601.194 1723.31 604.315C1733.13 607.456 1741.71 611.81 1749.35 617.356C1756.96 622.902 1763.1 629.66 1767.75 637.87C1772.43 646.06 1774.89 656.437 1774.89 668.503C1774.89 683.213 1771.45 695.538 1764.55 705.915C1757.7 716.053 1748.85 724.481 1738.04 730.763C1726.72 737.284 1714.45 742.005 1701.68 744.757C1688.69 747.616 1675.42 749.069 1662.12 749.091C1647.22 749.258 1632.37 747.474 1617.93 743.783C1604.41 740.165 1592.62 734.858 1582.8 727.88C1573.1 720.828 1565.12 711.666 1559.47 701.084C1553.82 690.469 1550.86 677.667 1550.38 662.957H1606.38V662.48ZM1789.62 494.307H1831.62V419.961H1887.15V494.307H1937.24V535.058H1887.17V667.31C1887.17 673.075 1887.4 677.926 1887.9 682.259C1888.38 686.374 1889.61 689.992 1891.34 692.874C1893.22 695.903 1896.07 698.202 1899.43 699.395C1903.13 700.846 1907.78 701.581 1914.18 701.581C1918.1 701.581 1922.03 701.581 1925.97 701.323C1929.9 701.084 1933.82 700.607 1937.76 699.633V741.855C1931.61 742.591 1925.47 743.068 1919.83 743.783C1913.87 744.475 1907.89 744.8 1901.9 744.757C1887.17 744.757 1875.38 743.306 1866.51 740.662C1857.69 737.999 1850.55 733.904 1845.64 728.596C1840.47 723.289 1837.29 716.768 1835.32 708.797C1833.41 699.833 1832.34 690.708 1832.14 681.544V535.516H1790.14V494.248H1789.64L1789.62 494.307ZM1976.54 494.307H2029.12V527.823H2030.11C2037.94 513.351 2048.76 503.213 2062.75 496.951C2077.06 490.591 2092.56 487.378 2108.21 487.529C2128.09 487.529 2145.29 490.908 2160.04 497.905C2174.77 504.664 2187.05 514.086 2196.87 526.133C2206.69 538.199 2213.83 552.194 2218.74 568.136C2223.74 584.721 2226.23 601.962 2226.11 619.284C2226.11 635.922 2223.91 652.083 2219.48 667.549C2215.4 682.467 2208.66 696.523 2199.58 709.036C2190.65 721.098 2179.05 730.93 2165.68 737.76C2151.93 744.996 2135.97 748.614 2117.3 748.614C2109.14 748.605 2101 747.873 2092.97 746.427C2084.96 744.984 2077.14 742.643 2069.65 739.45C2062.21 736.347 2055.26 732.196 2049 727.125C2042.82 722.195 2037.43 716.341 2033.03 709.771H2032.04V833.316H1976.54V494.268V494.307ZM2170.59 618.31C2170.6 607.306 2169.12 596.352 2166.18 585.749C2163.46 575.702 2158.96 566.223 2152.9 557.76C2147.15 549.708 2139.69 543.028 2131.06 538.199C2121.78 533.187 2111.38 530.615 2100.84 530.725C2077.5 530.725 2059.81 538.676 2048.02 554.619C2036.23 570.542 2030.33 591.792 2030.33 618.31C2030.33 630.853 2031.82 642.442 2035 653.058C2038.18 663.673 2042.62 672.857 2049 680.569C2055.16 688.302 2062.51 694.325 2071.12 698.659C2079.71 703.251 2089.79 705.418 2101.08 705.418C2113.86 705.418 2124.42 702.774 2133.26 697.705C2141.83 692.776 2149.21 686.024 2154.87 677.926C2160.52 669.716 2164.71 660.532 2167.15 650.175C2169.42 639.703 2170.57 629.023 2170.59 618.31ZM2268.6 399.944H2324.12V451.588H2268.6V399.944ZM2268.6 494.287H2324.12V741.855H2268.6V494.287ZM2373.73 399.944H2429.25V741.855H2373.73V399.944ZM2599.47 748.614C2579.32 748.614 2561.39 745.234 2545.68 738.734C2530.63 732.559 2517 723.357 2505.65 711.699C2494.61 699.806 2486.16 685.755 2480.82 670.431C2474.98 653.517 2472.07 635.727 2472.23 617.833C2472.23 599.008 2475.17 581.654 2480.82 565.711C2486.16 550.395 2494.61 536.351 2505.65 524.463C2516.44 512.874 2529.96 503.948 2545.68 497.428C2561.39 490.908 2579.32 487.529 2599.47 487.529C2619.61 487.529 2637.54 490.908 2653.27 497.428C2668.99 503.948 2682.25 513.132 2693.3 524.463C2704.34 536.347 2712.78 550.393 2718.11 565.711C2723.75 581.634 2726.7 599.008 2726.7 617.833C2726.7 636.916 2723.75 654.509 2718.11 670.431C2712.79 685.757 2704.34 699.81 2693.3 711.699C2682.49 723.289 2668.99 732.214 2653.27 738.734C2637.54 745.234 2619.61 748.614 2599.47 748.614ZM2599.47 705.418C2611.76 705.418 2622.55 702.774 2631.64 697.705C2640.49 692.776 2648.13 685.93 2654 677.667C2659.89 669.477 2664.06 660.055 2667.02 649.678C2669.72 639.302 2671.2 628.686 2671.2 617.833C2671.2 607.218 2669.72 596.841 2667.02 586.226C2664.49 576.157 2660.07 566.659 2654 558.237C2648.12 550.053 2640.48 543.293 2631.64 538.458C2622.55 533.389 2611.76 530.725 2599.47 530.725C2587.19 530.725 2576.38 533.389 2567.29 538.458C2558.51 543.367 2550.89 550.114 2544.95 558.237C2538.96 566.709 2534.55 576.19 2531.93 586.226C2529.21 596.543 2527.8 607.163 2527.73 617.833C2527.73 628.686 2529.22 639.302 2531.93 649.678C2534.63 660.055 2539.04 669.477 2544.95 677.667C2550.83 685.877 2558.21 692.636 2567.29 697.705C2576.38 703.012 2587.19 705.418 2599.47 705.418ZM2742.92 494.307H2784.92V419.961H2840.44V494.307H2890.54V535.058H2840.44V667.31C2840.44 673.075 2840.68 677.926 2841.16 682.259C2841.65 686.374 2842.89 689.992 2844.62 692.874C2846.49 695.906 2849.35 698.206 2852.71 699.395C2856.4 700.846 2861.06 701.581 2867.46 701.581C2871.37 701.581 2875.31 701.581 2879.24 701.323C2883.18 701.084 2887.1 700.607 2891.03 699.633V741.855C2884.89 742.591 2878.75 743.068 2873.1 743.783C2867.15 744.475 2861.16 744.8 2855.17 744.757C2840.44 744.757 2828.63 743.306 2819.79 740.662C2810.96 737.999 2803.83 733.904 2798.92 728.596C2793.77 723.289 2790.57 716.768 2788.6 708.797C2786.69 699.832 2785.62 690.708 2785.42 681.544V535.516H2743.41V494.248H2742.92V494.307Z" fill="white"/>
<path d="M774.389 399.927H519.924L441.324 162L362.446 399.946L108 399.688L314.081 546.869L235.243 784.537L441.324 637.595L647.167 784.537L568.567 546.869L774.389 399.927Z" fill="#04DA8D"/>
<path d="M586.27 600.684L568.578 546.873L441.355 637.599L586.27 600.684Z" fill="#126849"/>
</g>
<defs>
<clipPath id="clip0_754_3">
<rect width="2783" height="675.871" fill="white" transform="translate(108 162)"/>
</clipPath>
</defs>
</svg>
